<svg xmlns="http://www.w3.org/2000/svg" viewBox="0 0 149.05 113.15"><defs><style>.cls-1{fill:#595859;}</style></defs><g id="Layer_2" data-name="Layer 2"><g id="Layer_2-2" data-name="Layer 2"><path class="cls-1" d="M148.2,77.65a2.08,2.08,0,0,0-1.15-.87c-.66-.21-3.92-.91-4.06-.94s-3.35-.88-4-1.07a3.54,3.54,0,0,1-.39-.14,1.78,1.78,0,0,0-.85-.15c.08-3.72.23-13.78.23-16.34a40.87,40.87,0,0,0-.65-7.41,26.68,26.68,0,0,0,5-.65l.18,0,1,.47.19.09.73-1.48-.21-.13-.68,1c-5.4-3.29-9.4-5.63-16.12-9.22l-22.77-12L75.49,32.45l-54.31,6.6-5.67.66c-3.72.42-6.92.79-10.37,1.32-.75-.32-1.54-.65-2.34-1l41.88-4.91,60.68-6.93,39,20.77.11,0,.84-1.32-5.83-4.37-.1-.06c-12.9-7-20.77-11.1-33.55-17.59l0,.06,0-.06c-4.57-1.58-8-2.74-14.27-4.35-2.38-.61-8.75-2.21-15.48-3.87l-.32-.08-.43.31A32.84,32.84,0,0,0,75.86,11v-.47l.91.32.13-2.94L76,7.13l0-1.85.56.13.43-2.57-.38-.22C74.23,1.26,72.78.43,72.19.1L72,0,65.83,1h0l0,0h0V1h0l-.31.31h0l0,0h0a.11.11,0,0,0,0,.15l-.13,1h0L65,2.39l.41.76h0l0,.07.05.08h0c0,.07.07.07.11.07h.07v0l.53.24c0,.5,0,1.44,0,2.49l-.76.26,0,.28s-.09.74-.17,1.43l0,.23,1,.91v5.36q0,1,0,1.89a27.51,27.51,0,0,0,.07,3.66L54,23.46l-.31.09.06-.41.08-.85-.53-.22c-.58-.25-2.26-.9-3.3-1.28l-.2-.07-2.15.4L42.32,22l-.08,1c0,.22-.05.42-.07.59l-.09.65.52-.05a2.75,2.75,0,0,0,.92-.19l0,1.13c0,.14,0,.28,0,.4a1.75,1.75,0,0,0,0,.72L15.08,34,11,35.06c-3.06.8-5.47,1.42-8.22,2.33l-2.8.4.94,1.92v.07a.11.11,0,0,0,.07.13H1l.07,0h0l.5.27,0-.05.47,0L5,41.65l.07,0,.47,0a1.08,1.08,0,0,0,.82.62l.11,0c.44.13,2.6.7,2.68.72s2.17.88,2.63,1a1.11,1.11,0,0,0,.87-.15c-.14,2.75-.14,5.28-.14,8.75V92.17l-.13,15.63V108l.88,1.43,12,.55c-.34.08-.68.19-1.07.3l-4.07,1.18,12.51.44c.09,0,8.22.58,9.85.63h.39l.6,0,.74,0,0-.62A8.64,8.64,0,0,0,44.1,110l.38-.2.18-.11-.17-.11c-.2-.13-.36-.23-.51-.31l0-.09.48-.06a6.86,6.86,0,0,0,2.07-.63l.25-.12c0,.6,0,.68,0,.68s0,.7.12,2.51l0,.6.57-.14c.82-.21,3.28-.8,4.34-1h.47c.29,0,.54,0,.78,0l.65,0a3.42,3.42,0,0,0,1.41-.27l.12,0,.46.11a22.89,22.89,0,0,0,5.26.63l.67,0c2.65.13,15.93.7,16.06.7s13.41.87,16.06,1l1.28,0a25.66,25.66,0,0,0,4.48-.41l0,.33.8-.09c1.42-.15,2.9-.37,4.67-.68,4.27-.76,25.65-4.9,25.87-4.94l11.6-2.15-.08-15.32c0-1,0-1.91,0-2.75a47.92,47.92,0,0,0-.26-6.86c1.24.15,2.55.29,4,.45l2.06.21.79-3.13ZM66,1.86Zm6.53-.27,3,1.88-.06.3L75,3.66a1.33,1.33,0,0,0-.54-.48c-.33-.17-1.56-.61-2.24-.85C72.34,2.06,72.45,1.77,72.5,1.59Zm-.58,3.72c0-.25,0-1.24,0-1.74.62.38,1.53.92,1.84,1.05a1.27,1.27,0,0,0,.74.12l0,1.79c-1-.46-2.53-1.12-2.6-1.15ZM66.37,1.92l3.06-.45L71,1.25c0,.23-.06.61-.08.94l-3,.52-.33,0a1.37,1.37,0,0,0-.49.09l-.74-.34ZM71,5.1c-.52.13-2.53.57-3,.67a2.52,2.52,0,0,1-.37.05c-.13,0-.26,0-.38.06V3.65a2.21,2.21,0,0,0,.62,0H68l2.94-.39v0S71,4.57,71,5.1ZM66.29,7.89l.1-.83.85-.29v0a2.62,2.62,0,0,0,.77,0l3.1-.55.29.15c.11.08,2.59,1.74,3.14,2a1.68,1.68,0,0,0,.74.2l.06.06V8.7L75,8.58a.35.35,0,0,0-.09-.07,2.54,2.54,0,0,0-.44-.13l-.25-.08v0l-.68-.13s-.81-.26-1.16-.39l0-.73-1.26.15c-1,.12-1.71.2-2,.26a4.65,4.65,0,0,0-2.24,1Zm8.74,10-3.21,2.29a5.79,5.79,0,0,0,.12-1.31l.14-6.78.24-3.28.8.35a9.53,9.53,0,0,0,1.14.81v1.09A32.66,32.66,0,0,0,75,17.8Zm-4,.7c0,.25,0,.47,0,.67a3.64,3.64,0,0,0,.1,1.43l-.28.2-4.08.42h0a30.67,30.67,0,0,0,.44-6l0-6.43a4.59,4.59,0,0,0,2.16.18c.26,0,.8-.13,1.54-.27L71,12.05S71,17.5,71,18.58Zm-20.65,3.8c.66.34,1.32.68,1.78.9v.06L51.32,23c-.12-.08-.66-.49-.93-.63Zm-.07,1.56c.31,0,.61.06.63.06h0l.57.14-1.37.37A1.8,1.8,0,0,0,50.32,23.94Zm-6.82-.66v.1a2.38,2.38,0,0,0-.37-.06l0-.51,4.64-.65L49.65,22l.18.09-.34.07c-.93.18-3.13.65-3.15.66ZM49,24.81l-4.66,1.26a2.86,2.86,0,0,0,.07-.74l0-1.22,2-.25,2.28-.11A1.86,1.86,0,0,0,49,24.81ZM13.7,35.3l39-10.41.33.32.21-.46,12.19-3.17v1.08l5.87-.51L76,18.93c6.55,1.74,12.76,3.36,15.12,4,5.79,1.48,9.3,2.14,13.57,2.87-6.1.42-11.75.87-18.18,1.46L84,27.45c-2.35.21-4.78.44-7.35.74L65.25,29.46c-9.65.9-38.38,4.62-56.19,7.06C10.47,36.16,12,35.76,13.7,35.3Zm-12.22,4Zm.32-.17-.29-.58c17.66-2.53,53.14-7.21,63.84-8.22L76.78,29.1c2.15-.25,4.21-.44,6.21-.63l3.6-.36c7.22-.72,12.94-1.37,19.12-2.17,6.14,3.61,11.09,6.49,16.19,9.41l-16.27-8.59L44.55,34.11Zm135.91,36.5c0-.12,0-.27,0-.44a2.55,2.55,0,0,0,.85.38l.14,0,1.83.56-2.84-.54ZM104.4,30.24l22.29,12c6.12,3.25,10.15,5.21,15.16,7.53a26.52,26.52,0,0,0-4.47-.56l-.67-.35c-2.4-1.22-14.64-7.09-14.76-7.15l-14.7-7.27-1.52-.78a18.6,18.6,0,0,0-4-1.72l-.49-.13c0-.38-.07-.77-.11-1.17Zm32.2,44.67-2.18-.68-1.63-.51-.13-18.09c0-.78,0-1.48,0-2.13a30.81,30.81,0,0,0-.22-5.08L136,50.26l.83.4.19.08h0a41.61,41.61,0,0,0-.64,7.4C136.36,60.77,136.53,71.45,136.6,74.91Zm0,16.36-.05-11.9,1.12.23a9.2,9.2,0,0,0-.6,3.32c0,1.57.27,9.43.27,9.5l.14,9.5v.38c-.38,0-.73.06-1.08.12h0l.3,0ZM133.31,86a91.86,91.86,0,0,0-.67-11.19l1.46.46,1.46.48V91.27l-.09,10-2.3.28C133.25,95.81,133.31,88.45,133.31,86Zm-1.52,11.4c-.45,0-1.83.35-1.88.36h0a4.85,4.85,0,0,0,.42-2c0-1.14-.27-6.83-.28-6.88s-.12-5.75-.13-6.88c0-.25,0-.48,0-.7a4.46,4.46,0,0,0-.07-1.27c.27.07,1.57.44,1.87.46h.15c-.11,1.68-.16,3.45-.16,5.53S131.75,93.16,131.79,97.36Zm-3.86-14.7c0-1.06,0-2-.07-2.89h0l1.29.14a5.33,5.33,0,0,0-.19,1.78V82c0,1.13,0,6.81,0,6.86s-.29,5.75-.28,6.89a4.82,4.82,0,0,0,.46,2.1l-1.23.13a1.07,1.07,0,0,1-.18,0h0C127.84,92.27,127.93,84.86,127.93,82.66Zm-.11,16.2H128c.33,0,1.91-.08,2-.09l.52.07-.6.15s-1.57.23-1.88.26a1.07,1.07,0,0,1-.18,0h-.06v-.39Zm2.1-19.93s-1.61,0-1.93-.06l-.18,0h0c-.1-1.55-.27-2.92-.52-4.7l1.47.28v-.67c0-.81.05-2.26.07-4,.34.12,1.37.42,1.39.43s1.17.66,1.42.73h.1v3.57l.37.12.27.09c-.13,1.24-.29,2.7-.41,4.18l-.09,0C131.56,78.81,130,78.92,129.92,78.93Zm-2.28,19.13Zm-1.07,4.16-3,.6-.83.17-.13-21.4c0-.91,0-1.71,0-2.46a39.54,39.54,0,0,0-.24-5.95l1.49.28,3.11.61a54.41,54.41,0,0,0-.66,8.59C126.32,85.78,126.5,98.74,126.57,102.22Zm-2.49-29.79-1.69-.32c0-2.9-.11-17.42-.13-20.72,0-.89,0-1.69,0-2.43A36.3,36.3,0,0,0,122,42.9l6.07,3.22a53.53,53.53,0,0,0-.67,8.62c0,2.82.14,14.18.22,18.33Zm-3,21c-.19,0-.65,0-1.37.14A3.56,3.56,0,0,0,120,92c0-1-.26-5.67-.27-5.87s-.13-4.89-.14-5.85c0-.22,0-.42,0-.6a5.92,5.92,0,0,0,0-.73,12.22,12.22,0,0,0,1.44.37.82.82,0,0,0,.63-.2V93.75a.87.87,0,0,0-.62-.31Zm0,.13Zm-2.33-7.45c0,.2-.29,4.9-.28,5.87a3.69,3.69,0,0,0,.42,1.71h-.12s-1.94.13-2.35.14h-.34c0-4.5,0-7.52,0-9,0-2.61,0-4.69-.15-6.69a.88.88,0,0,0,.56.24h.09c.37.07,2.19.32,2.24.33h0a4.64,4.64,0,0,0-.12,1.32v.24C118.71,81.23,118.72,86.08,118.72,86.12Zm-2.67,8.62a1.32,1.32,0,0,0,.29,0h2.39l1.14.16-1.06.18-2.38.24H116Zm5.25-17c-.29,0-1.42-.06-2.07-.06H119l-2.27-.19-.22,0a.63.63,0,0,0-.59.07c-.11-1.84-.25-3.67-.45-5.85L117,72l0-5.58a5.37,5.37,0,0,0,.88.62l.58.33.08-.74c0-.44,0-.88.06-1.44V56.26s.06-1.49.12-3.21c.07,1.8.13,3.29.13,3.31l.18,9.35c0,.34,0,.64,0,.92v.25l.28.13a6.68,6.68,0,0,0,2.06.69V73l.72.14a40.08,40.08,0,0,0-.35,4.83A.71.71,0,0,0,121.3,77.73Zm-20.08-45.9.37.3a24.37,24.37,0,0,0,4.64,2.78L116.32,40l-.07.36a28.58,28.58,0,0,0-.65,6.28c0,2.79.34,16.8.34,16.94l.08,7.18L107.62,69l-1.72-.39a19.32,19.32,0,0,0-4.46-.71h-.18c.09-3.76.41-22.19.42-26.33A83.85,83.85,0,0,0,101.22,31.83ZM119.9,56.36c0-.07.21-6.53.23-8.82a11.28,11.28,0,0,0,1.23.32c0,.78,0,1.61,0,2.56V67.11a7.18,7.18,0,0,0-1.41-.82v-.58Zm-.17-10.65L118.65,45l0,.67-.08-.27-.21,0a10.32,10.32,0,0,0-1.17-.21,29.4,29.4,0,0,0-.65-4.74l-.06-.3,5,2.55.27.14h0a34,34,0,0,0-.37,4.41A8.22,8.22,0,0,0,119.73,45.71Zm-2.54.94c0-.33,0-.64,0-.95l.28.31a7.18,7.18,0,0,0-.18,1.67c0,1.41.27,8.51.27,8.57l.14,8.58c0,.33,0,.62,0,.89s0,.24,0,.36A3.5,3.5,0,0,0,117,66V63.59C117,63.45,117.22,49.43,117.19,46.65ZM129,54.74c0-1.26,0-2.34-.09-3.38l1.05.53a16.63,16.63,0,0,0,1.38,1,.51.51,0,0,0,.42,0c0,.59,0,1.21,0,1.9V69.3c-.46-.06-1.18-.13-1.2-.13l-1.5-.32-.13,0-.06,0C128.93,63.51,129,56.84,129,54.74ZM130.45,51s-1.29-.51-1.53-.62l-.09-.06c-.11-1.3-.27-2.52-.48-4l3.76,2a29.35,29.35,0,0,0-.31,3.13C131.33,51.21,130.48,51,130.45,51ZM63.11,35l12.51-1.49,9.12-1a11.55,11.55,0,0,0-.41,3.37c0,.44,0,1.3.08,2.72l-6.78.93-10.84,1.3-1.11.1a9.26,9.26,0,0,0-2.61.48ZM80.88,77.45c-.1.65-.19,1.28-.27,1.94,0-.59-.11-1.22-.22-1.89Zm-.54-.25,0-.26H81Zm4,17v.17c-1.94,0-2.63,0-2.87,0H80.8l-.06,4.16,0-4.22Zm-2.45,1.21,3,.1H85v3.92l-3.24,0ZM81.74,93c.11-3.58.21-8,.22-9.5a38.13,38.13,0,0,0-.43-6.36l0-.22A14.73,14.73,0,0,0,85,76.1c0,1.4,0,2.88,0,4.57V93ZM80.67,75.33c-2,.07-11.77.76-11.87.76l-5.22.27-.17-5.71c0-.45,0-.86,0-1.24a9.85,9.85,0,0,0-.33-3.17l0-.06a6.88,6.88,0,0,0,2.44.17l.33,0c1.32-.06,8-.43,8-.43s6.73-.08,8.05-.16a6.51,6.51,0,0,0,2.59-.67l.05,3.82h.85c-.22,2.51-.31,4.62-.35,6.92A14.35,14.35,0,0,0,80.67,75.33Zm-.57,2.2a35.57,35.57,0,0,0-.37,6.38V99.4c-2.72,0-4.62,0-5.66,0H73.8c-.84,0-1.61,0-2.35,0l-.2-16.46V77.11c2.75,0,7.1-.1,9-.16l-.06.35-.62.29ZM63.84,86.71a64.57,64.57,0,0,0-.65-9.33l1.16,0v0a53.79,53.79,0,0,0-.4,8V99l-.22.18C63.78,94.57,63.84,88.78,63.84,86.71Zm4.82,3.93c0,.9,0,1.69.1,2.44-1.17.11-2.25.27-3.59.5l-.27,0,0-7.17c0-1,0-1.79,0-2.57a40.82,40.82,0,0,0-.27-6.51v-.05l2.81-.12,1.3,0v.33C68.66,81.24,68.63,88.57,68.66,90.64Zm-1.4,3.51c-.61,0-1.27.11-2,.23l-.35.06v-.66l.27,0C65.93,94,66.6,94.06,67.26,94.15Zm-2.32,5.33,0-4.91.35.06a27.36,27.36,0,0,0,3.55.36c0,.67,0,1.37,0,2.17l0,2.39c-1.33.11-2.58.27-4.15.48l-.56.08Zm-.88.71.66.09a59.55,59.55,0,0,0,9.08.67h.55l-10.3.06v-.81Zm6.2-9.57c0-2-.19-8.59-.31-12.54h.13L70.2,83l.32,16.27h-.73V99c0-.62,0-.92,0-1.15,0-.77,0-1.45,0-2.08,0-.44,0-.86,0-1.26v-.09l.4,0,.05-.74C70.24,92.79,70.26,91.79,70.26,90.62Zm9.2-27.76c-2.33.2-5.46.5-5.49.5l-3.06.21V63.5c.06-5.59.21-18.18.21-18.18s0-.78.08-4v-.14l6.52-.7,1.69-.13H80a37.2,37.2,0,0,0-.42,6.45Zm1.3-5.55,0,.61,3.5.21v0l-2.88,0-.5,0,0,.49c0,1,0,1,0,1l-.11,2.88h-.25V47.69c0-.77,0-1.46,0-2.09a28.4,28.4,0,0,0-.21-5.2H81a37.6,37.6,0,0,0-.4,5.92C80.56,48.05,80.67,53.69,80.76,57.31Zm3.71,6.28v.94a6.77,6.77,0,0,0-1.62-.37A6.62,6.62,0,0,0,84.47,63.59Zm-2.34-.91h-.35c.1-2.48.12-2.91.12-2.91l0-.5,2.5,0,0,3.82A6.24,6.24,0,0,0,82.13,62.68ZM84.3,49.51v1.25c0,1.19,0,3.51.08,6.19l-2.32-.23c.05-3.31.1-8.62.08-10.39a37.09,37.09,0,0,0-.49-6.11L84.54,40A83.91,83.91,0,0,0,84.3,49.51ZM69.81,41.92h.29L70,63.17h0l-.26-4h.23V57.84C70,55.23,69.87,45.64,69.81,41.92Zm-6.74-.16a7.83,7.83,0,0,0,1.37.11,19.82,19.82,0,0,0,2-.14l2.18-.23c-.1,3.55-.29,13.3-.3,16.13a44,44,0,0,0-5.39.6ZM63,59.13l0-.24h0c1,.11,2,.2,3.06.25a24.19,24.19,0,0,0-3.11.41v-.42Zm0,.75c1,.09,1.91.13,2.9.13s1.87,0,3-.1l.23,3.79-2.88.19-.81,0a4.32,4.32,0,0,0-2.11.4l-.26.13.27.1a4.9,4.9,0,0,0,1.76.3l.87,0h.33l7.8-.4s2.86,0,5.15-.05c-2.37.21-5.33.5-5.38.5s-6.7.49-8,.57l-.83,0a4.69,4.69,0,0,0-2,.34ZM48.85,66v-.18c.21-2.76.31-5.35.33-8.65,0-3,0-12.17,0-20l12.92-1.76L62,69.54h-.55l-3.69.06c-2.36,0-4.41.06-6.6.22l0-.33-.69,0-1.93.06C48.67,68.13,48.77,67,48.85,66ZM21.07,102.82a6.68,6.68,0,0,0,.26-.76c.7,0,1.43.1,2.22.13.07.27.24.72.24.72s.07.41.11.67l-2.82-.06C21.08,103.29,21.08,102.92,21.07,102.82Zm1.23-1.54c-1.34,0-2.58,0-3.84.16l.12-1.07a85.73,85.73,0,0,0,9.77.83l5.74.15v.19l-4.94-.1L26,101.36C24.68,101.32,23.5,101.28,22.3,101.28Zm-4,.17h-.16l-.5.05c.13-1.67.13-3.25.13-5.31v-1c0-3.84,0-23.16,0-23.35s0-2.6.08-6l.59,0c-.05.35-.09.7-.13,1l0,.28.31,0h0l-.06.42-.74.15.7.07-.12,1,0,.26.3,0c.75,0,1.5.08,2.3.08l1.31,0a6.85,6.85,0,0,0,.21.75c0,.2.09.74.1.89-1.33.13-2.65.28-4.13.48l-.41.06,0,.35c0,.84.09,1.71.14,2.63l-.27,0v.12h0v.71l0,.12v.12l1.47,0h.15l.87.47,0,6.36c0,1.3,0,2.46,0,3.53a79,79,0,0,0,.23,8.57H17.83L18,95.91l1.93,0a4.76,4.76,0,0,0,.28,1l.09.62a15.48,15.48,0,0,0-1.77.29l-.42.1.06.29c0,.27.11.55.17.86l-.31.08.35.11.08.36.11-.31a10.47,10.47,0,0,0,1.78.37l-2,.13-.26,0ZM20.56,45a19.64,19.64,0,0,0,2-.14l.41,0,5.15-.55c0,.23-.05.46-.08.68l-5.1.59-1.1.1a8.63,8.63,0,0,0-2.57.46c0-.29,0-.51,0-.68s0-.35,0-.51A8.66,8.66,0,0,0,20.56,45Zm-1.23-.56c0-.15,0-.29,0-.43s0-.52,0-.76a8.77,8.77,0,0,0,1.52.14,18.75,18.75,0,0,0,2-.14l.44-.05c.77-.07,2.88-.3,5-.53v.23l-.05.38-5.39.63c-.4,0-.76.08-1.1.1A9.46,9.46,0,0,0,19.33,44.39Zm1.33,2.18a18.75,18.75,0,0,0,2-.14l.41,0,4.91-.5V46a1.2,1.2,0,0,0,.15.63l-8.84.91,0-1.09A8,8,0,0,0,20.66,46.57Zm2.75,13.2v-.21c0-.83,0-5,0-5.06s.31-4.25.31-5.09a2.82,2.82,0,0,0-.32-1.32l6.31-.58c.05,0,3.68-.24,7.21-.49l.12,3.68.18,9.2-8.91.74-5.13.44A3.14,3.14,0,0,0,23.41,59.77ZM47.76,42v1a11.26,11.26,0,0,0-2.06-.2c-.4,0-.83,0-1.31.07s-2.1.25-4.44.55a2.11,2.11,0,0,1,0-.25c2.49-.2,4.07-.33,4.69-.4A11.17,11.17,0,0,0,47.76,42Zm-3-.85a11,11,0,0,0,3-.74v.88a11.08,11.08,0,0,0-2-.18C45.46,41.09,45.12,41.1,44.74,41.13Zm-15.2,4.92v-.33l4.24-.44,4.64-.34a1.11,1.11,0,0,0,.14.5c-3.93.44-8.85,1-8.9,1l-.22,0A1.29,1.29,0,0,0,29.54,46.05Zm-.09-2,4.33-.46,4.8-.36,0,.32-4.87.66-4.18.49C29.48,44.51,29.46,44.29,29.45,44.08Zm8.61,18.83c0-.24,0-.49.08-.83L40,62l2.25-.12a33.63,33.63,0,0,0,5.4-.56c0,.77,0,1.48.08,2.17l-9.86.47A6.81,6.81,0,0,0,38.06,62.91Zm6.34-2.09c1.06-.17,2.07-.37,3.22-.62,0,.24,0,.48,0,.72-.87-.07-1.68-.11-2.55-.11ZM47.71,46.2A11.46,11.46,0,0,0,46.32,46c.49-.13,1-.28,1.39-.43ZM44.9,44.87c-.55,0-1.14,0-1.79.09s-1.56.15-3.17.33a1.23,1.23,0,0,0,.08-.38v-.09c2.38-.19,3.91-.31,4.53-.38a11,11,0,0,0,3.19-.79l0,1.46A18,18,0,0,0,44.9,44.87Zm-5.1-3.12v-.19l4.26-.36C43.28,41.29,41.85,41.47,39.8,41.75Zm4.87,5.88a10.09,10.09,0,0,0,3-.76c-.06,4.87-.1,8.61-.1,10.26,0,.95,0,1.8,0,2.59-1.19-.09-2.49-.17-3.94-.17-1,0-2.12,0-3.4.12l-2.08.16-.06-9.14,0-2.58C40.37,48,43.7,47.73,44.67,47.63Zm-5.91-5.81v.07l-5.08.69-4.29.51c0-.13,0-.2,0-.2v-.38L34,42l4.76-.37Zm-15.36,22c0-.09.15-.46.22-.75l13.59-.93a8.43,8.43,0,0,0,0,1.81c-3.12.15-8.46.42-10.31.55-1.31.08-2.43.19-3.5.33C23.41,64.58,23.41,64,23.4,63.82Zm.22,2.38c1,0,2.13,0,3.39-.11,3.33-.2,17.69-1.32,20.76-1.57l0,.45-22,1.26-2.36.11a44,44,0,0,0-4.6.34c0-.23-.06-.47-.1-.72C20.58,66.11,22,66.2,23.62,66.2ZM23.43,85c0,.06.13,6.1.14,7.3,0,.28,0,.52,0,.75a5.43,5.43,0,0,0,.05,1.28H21c.34-3.73.35-6.52.35-10.72V75.3l2.35-.07a5.63,5.63,0,0,0-.54,2.43C23.15,78.86,23.43,84.91,23.43,85Zm.19,12.6-1.61,0h-.75c0-.24,0-.5,0-.57a5.25,5.25,0,0,0,.28-1l1.72,0a7.15,7.15,0,0,0,.27.91S23.58,97.28,23.62,97.56ZM19.27,74.41l-.7,0c.1-.77.2-1.5.29-2.21,1.1,0,2.13,0,3.14,0,1.81,0,3.69,0,5.93-.16,2.42-.12,9-.52,14.88-.87l7-.42-.16,2.57ZM23.54,70a6.51,6.51,0,0,0,.29-.85l1.14,0L37.1,68.5l.14.48s.1.79.13,1c-3.79.16-7.69.34-9.53.43-1.6.09-3,.18-4.33.3C23.53,70.52,23.54,70.09,23.54,70ZM18.9,68.57l-.09-.64a52.19,52.19,0,0,0,5.46.27l-.75,0A44.34,44.34,0,0,0,18.9,68.57Zm12.35-.73,6.23-.44-.25.11Zm6.7-.47,9.68-.71v.28l-9.46.52Zm-17.61,0c-.54.1-1.06.21-1.57.32l-.06-.38C19.25,67.31,19.79,67.32,20.34,67.33Zm-.71,31.55a7.5,7.5,0,0,0-.95.14c0-.11.08-.22.11-.33Zm4.94-2a6.13,6.13,0,0,0,.26-.88l8.24.13,0,1.83-4.39-.21-4.13-.17C24.58,97.35,24.57,97,24.57,96.9Zm9.25,8h3.9c.06,0,6,.2,8.37.23l-2.53,0L36,105l-.78,0c-.26,0-.5,0-.73,0a3.36,3.36,0,0,0-.92.12Zm3.89-1.06-2.62,0C35,100.3,35,96,35,94.77v-.52l-10.63,0a7.37,7.37,0,0,0,.15-1.75v-.28c0-1.2,0-7.24,0-7.29s.28-6.11.27-7.31a5.41,5.41,0,0,0-.55-2.44l18.37-.57,8-.2-.06.41a59.16,59.16,0,0,0-.39,8.44v20.84a8.71,8.71,0,0,0-3.34-.65h0C45.17,103.49,37.79,103.8,37.71,103.8ZM48.16,69.6c-3.17.11-7.08.27-9.87.39,0-.27,0-.89,0-1s.1-.31.16-.55L48,68C48.06,68.49,48.11,69,48.16,69.6Zm-.33-32.8,0,2.84a11.21,11.21,0,0,0-3.22-.09c-.64.06-2.25.27-4.81.61,0-.58,0-1.14,0-1.35a2.69,2.69,0,0,1,0-.31.94.94,0,0,0-.14-.73ZM29.35,39.43a1.62,1.62,0,0,0,0-.44l9.69-1.15a1.28,1.28,0,0,0-.22.82v.13c0,.23,0,.87,0,1.5l-4.9.68-4.55.55c0-.73,0-1.52,0-1.78A3,3,0,0,1,29.35,39.43Zm-.87-.33a2.43,2.43,0,0,0-.06.49v.12c0,.33,0,1.45-.06,1.92l-5.15.62-1.11.1a8.52,8.52,0,0,0-2.71.53,9.88,9.88,0,0,0-.23-2.54l0-.13Zm-9.55,1.13,0,.1a17.09,17.09,0,0,0-.5,4.46l0,.56c0,.43,0,1.21-.06,2.62l0,.6,4.14-.39a2.77,2.77,0,0,0-.28,1.22c0,.84.23,4.92.24,5.08s.1,4.24.1,5.08a4.21,4.21,0,0,1,0,.51,2.39,2.39,0,0,0,.1,1.06l-4.13.35-.05.44a1.78,1.78,0,0,1,0,.3h0l-.05.59-.07.62.62,0L21,63.24l1.15-.08c.09.31.2.66.2.66s.12.9.13,1.07V65c-1.25.19-2.43.42-3.81.71l-.1-.7-.11.75-.63.13c.08-6.06.2-14.85.19-17.31a52.2,52.2,0,0,0-.6-8.13Zm-1.32,61.42.5.06.2,0,.06.47.05-.46,1.33.16a4.07,4.07,0,0,0,.28.91s.07.43.11.69h-.41l-2.33,0C17.49,102.87,17.56,102.25,17.61,101.65ZM12.67,42.8a1.14,1.14,0,0,0-.52-.33C11.7,42.34,9.47,42,9.38,42l-2.29-.49c1.75-.16,3.55-.34,5.71-.58C12.75,41.57,12.71,42.18,12.67,42.8Zm12.58,65.66L14,108.11l-.32-.5-.13-15.44-.13-38c0-1.45,0-2.75,0-4,0-3.36,0-6-.21-9.32L17,40.46a51.6,51.6,0,0,0-.59,8.08c0,3.84.27,23.16.27,23.35s.12,19.51.14,23.35c0,.89,0,1.69,0,2.43a39.75,39.75,0,0,0,.23,5.87l-3.12.07v.25a139.25,139.25,0,0,0,13.85,1.5l-2.21,1.58-.33.23Zm17.66,2.48-.4,0c-1.62-.06-9.78-.07-9.86-.07L26,110.7a5.65,5.65,0,0,0,1.54-.76l.31-.21-.37,0h-.69l0-1.74L32.41,104,28,103.77l-3.15-.15c0-.23,0-.61,0-.71s.16-.42.22-.66l2.79.07,5.11.12c.08.22.18.46.18.46h0c0,.18.13.69.14.79s0,0,0,0a.21.21,0,0,0,0,.19.19.19,0,0,0,.06.07l-4.1,2.78c-.28.19-.53.35-.77.49l-.22.14v.23a5.93,5.93,0,0,0,.35,2.43l.13.32.11-.33a6.28,6.28,0,0,0,.22-.85l.13.08a3.13,3.13,0,0,0,1.86.48h.23c.92,0,5.5.17,5.54.17s4.63.43,5.54.45h.09a3,3,0,0,0,.69-.07Zm1.62-3.7-.33.3a2.91,2.91,0,0,0-1.79-.69h-.22c-1.14,0-4.63.17-4.66.17L33,107h-.3c-.18,0-.35,0-.5,0l-.41,0a1.68,1.68,0,0,0-1,.29l-.15.1.15.11a2.5,2.5,0,0,0,1.65.45h.2c.8,0,4.83.11,4.86.11s4.07.37,4.87.38h0a2.58,2.58,0,0,0,1.09-.22l-.63.62-.46,0h-.52c-1.49,0-5,.1-5,.1l-5.55,0-.57,0-.5,0a2.06,2.06,0,0,0-1.05.27l-.11.07a7.28,7.28,0,0,0,.09-1.23l3.89-2.54.08,0a5.57,5.57,0,0,0,2.52.49l7.88.26,2.22.17C45.12,106.79,44.73,107.08,44.53,107.24Zm-2.13,1.07h0ZM47,107.8l-.22.2,0,.24v.1l-.25-.11-.43-.18,2.07-1.72L49.68,105l-2.36,0a9,9,0,0,0,2.82-.65v.69C48.86,106.18,47.25,107.54,47,107.8Zm.95,3.06L47.84,109s0-.07,0-.49c.52-.34,1.61-1.1,2.49-1.72v.45a6.36,6.36,0,0,0,.68,2.84l0,.11Zm3.15-25.21V84.38c0-1,0-1.87,0-2.69a43.66,43.66,0,0,0-.28-6.83l0-.41.33-4c1.15,0,2.29.06,3.58.06,1.62,0,3.34,0,5.32-.07l2.53,0,.11,7h.28a64.43,64.43,0,0,0-.65,9.32c0,2.68.11,12.54.19,17.79l-6.74.06H51.86l0-.87-.67.55C51.15,100.62,51.09,90.08,51.06,85.65Zm48.53,26.69v.07a25.43,25.43,0,0,0-5.73-.88c-2.64-.13-15.94-.42-16.07-.43s-13.42-.45-16.07-.56l-1.67-.08c-.75,0-1.4-.09-2.06-.09a13.61,13.61,0,0,0-2.23.18l-.36.06-.23-.11a5.37,5.37,0,0,0-2.51-.45l-.82,0-.65.12,0-.08a6.23,6.23,0,0,0,.68-2.84c0-.27,0-.82,0-1.62h3.8l7.35.07h.58v-.6c0-.86,0-1.91,0-3.06h9l12.37.17v4.44l13.36.67,1.48.07h.06l.2,0C99.87,109.22,99.7,110.72,99.59,112.34Zm-.27-10.62a18.24,18.24,0,0,0,.55,4.6h0l-1.43-.07L86,105.66l-.1-23.47c0-1.41,0-2.67,0-3.83,0-3.39,0-6.07-.25-9.47l11.74-.1H100v0a17.15,17.15,0,0,0-.4,4.57V74c0,2.29,0,13.77,0,13.88S99.31,99.44,99.32,101.72ZM85.53,67.88l-.15-8.57h.13L85.37,57h0l-.11-6.3c0-1.14,0-2.17,0-3.12A63.1,63.1,0,0,0,84.86,40l1.07-.08V38.46c0-1.38,0-2.22,0-2.65a11.3,11.3,0,0,0-.54-3.42l15.43-1.74a85.71,85.71,0,0,0-.72,10.89c0,4.21,0,22.2.08,26.17Zm14.71.93v0h1v-.53a1.28,1.28,0,0,1,0-.19l.12.06a26.67,26.67,0,0,0,5.35,1.6l8.41,1.87a128.76,128.76,0,0,0-.64,13.23c0,2.47,0,9.64.12,19.18l-14.23,2.23a18.8,18.8,0,0,0,.53-4.51c0-2.28-.27-13.76-.28-13.88s-.12-11.59-.13-13.88c0-.53,0-1,0-1.44A13,13,0,0,0,100.24,68.81Zm41.25,20v15.58l-10.79,1.95c-.22,0-21.7,3.63-26,4.41-1.47.26-2.71.52-3.89.81-.12-1.35-.26-2.63-.47-4.23l15-2.07.57-.08v-.58c0-2.77,0-5.64.06-8.34h.44l2.37-.1c.08,0,2,.2,2.42.18a.85.85,0,0,0,.44-.17v8.1l.63-.13,1.45-.28,3.88-.73,0-.45c0-.5,0-1.39,0-2.52H128c.32,0,1.84-.13,1.88-.13s1.5.16,1.9.14l0,2.91,4-.57c0,.12,0,.23-.05.34l0,.37.46,0a9.87,9.87,0,0,0,1.77-.06l.46,0V92.43c0-.08.28-7.94.27-9.51a9.24,9.24,0,0,0-.57-3.25c1.28.24,2.49.42,3.76.58A63.71,63.71,0,0,0,141.49,88.79ZM147.57,80h0l-3.15-.34c-.82-.09-1.59-.18-2.34-.25l0-.19,0,.18c-1.77-.17-3.44-.3-5.4-.3h0l0-2.61,9.9,1.82.14,0a1.79,1.79,0,0,0,.54.09l.79.14Z"/></g></g></svg>