<svg xmlns="http://www.w3.org/2000/svg" viewBox="0 0 172.53 76.8"><defs><style>.cls-1{fill:#595859;}</style></defs><g id="Layer_2" data-name="Layer 2"><g id="Layer_2-2" data-name="Layer 2"><path class="cls-1" d="M82.77,3.6s8.29,1.33,10,1.52a9.05,9.05,0,0,0,3.78-.35,9.06,9.06,0,0,0-3.59-1.24c-1.66-.21-10-.87-10-.87s-8.35-.85-10-1-2.38-.48-3.72-.13a9,9,0,0,0,3.63.91C74.44,2.61,82.77,3.6,82.77,3.6Z"/><path class="cls-1" d="M172.53,33.81l-.94-.58H172l-.47-.06-.11-.07-.11-.18-.41-.12a31.31,31.31,0,0,0-4.95-2.32c-3.12-1.17-18.84-6.67-18.84-6.67L128.27,17a40.33,40.33,0,0,0-6.45-2.19c0-.34,0-.71.06-1.09s0-.75.05-1.13.09-.72.14-1.05c.08-.66.14-1.2.17-1.47A4,4,0,0,0,122,7.8h0l.07,0h0l.07,0a.71.71,0,0,0,.14-.1.55.55,0,0,0,.19-.22.69.69,0,0,0,.07-.15l.09-.1h0l0-.72h0l-.15-.13a1.1,1.1,0,0,1-.16-.34,1.25,1.25,0,0,1,0-.69l.13-.45-.64-.26-.77-.3h0l.87.11,1.54.2-1.15-1-.4-.36L120,1.25,119.73,1l-.36.11a13,13,0,0,0-2.13.75c-.31.14-.6.27-.83.39l-.52.34a3,3,0,0,0-1.29,1.8,2.3,2.3,0,0,0-.54.54,3.2,3.2,0,0,0,.59.05l.17.21s.12.35.13.42-.08.07,0,.1l-.43.14-.21.06-.06.17c-.21.61-.53,1.48-.64,1.77a4,4,0,0,1-.22.46l-.16.33.39.13a1.08,1.08,0,0,0,.56.06v.1c0,1.18,0,2.46,0,3.09a4.66,4.66,0,0,0-1.86-1.23c-1.16-.46-7.13-2.34-7.13-2.34S99.31,6.39,98.14,6s-1.62-.82-2.7-.68a5.11,5.11,0,0,0,2.42,1.41c1.17.46,7,2.65,7,2.65s5.74,2.51,6.91,2.94a4.8,4.8,0,0,0,2.42.28,4.83,4.83,0,0,0,.3,2.64c0-.1.09-.2.13-.3,0,.13,0,.26.09.38a1.36,1.36,0,0,0,.25.53,4.54,4.54,0,0,0,1,1,7.49,7.49,0,0,0,2.76,1.31l.26.06,0,0v0l.18,0,.23.05.23,0,.84,0,1.07-.09.45,0-.05-.5-.12-1.11s0-.35,0-.88a4.86,4.86,0,0,1,0-.67A37.35,37.35,0,0,0,128,17.72c3.11,1.18,18.73,7,18.73,7s15.49,6.13,18.61,7.28c.68.25,1.3.46,1.88.64-5.05-.62-9.54-1.07-16.3-1.5-9.5-.6-57.09-3.22-57.09-3.22s-47.59-2.81-57.09-3.39c-8.65-.53-13.6-1-20.8-1,0-.25,0-.5,0-.75a.69.69,0,0,1,0-.1c1.47-.45,2.9-1,4.86-1.77l20.53-8S58.62,6.62,62,5.28a40.4,40.4,0,0,0,7.3-3.68,40.15,40.15,0,0,0-7.87,2.19C58,5.1,41.05,12.05,41.05,12.05l-2,.79a2.09,2.09,0,0,0,0-.45c0-.44-.05-2.64-.05-2.64s.06-.56.14-1.16a3.76,3.76,0,0,1,.14-.79l0-.13V7.61h0a1.7,1.7,0,0,0,.07-.21c0-.06,0-.07,0-.08s0,0,0-.06a.58.58,0,0,1,0-.14.47.47,0,0,0,.37-.4.44.44,0,0,0,0-.26l-.57-1.22s-.14-.31-.6-1.38a.83.83,0,0,0-.08-.12l.72.18a.47.47,0,0,0,.57-.35A.46.46,0,0,0,39.55,3h0L39,2.66l-.12-.07-.5-.47c-.15-.15-.3-.36-.48-.57s-.32-.5-.51-.76a.6.6,0,0,0-.23-.22h0A4.26,4.26,0,0,0,34.55,0a4.35,4.35,0,0,0-1.13.28l-.05,0,0,0h0l-.06,0h0l-.08,0L33,.52l-.23.14-.15.09-.16.13-.27.26a2.13,2.13,0,0,0-.37.5,8.41,8.41,0,0,0-.5,1.15c.26,0,.51-.06.74-.1l.12.05.18.34v.06l-.12.11h0c-.2.24-.27.31-.32.38A4.93,4.93,0,0,0,30.88,6.2L31.41,6h0a3.86,3.86,0,0,0,.54.19,4.46,4.46,0,0,1-.22.63,1.19,1.19,0,0,0-.11.57c0,.13,0,.37.06.73s0,.81.06,1.23c0,.83.09,1.6.09,1.6s0,3.06,0,3.66-.15.74,0,1.08l-11.3,4.48c-2.07.81-3.59,1.3-5.08,2l-.23.1,0,.21c0,.11,0,.22,0,.32a.63.63,0,0,0-.17.1A5.2,5.2,0,0,0,13.33,24c-1,.86-5.61,5.49-5.61,5.49S3,33.93,2,34.81c-.52.48-.95.78-1.31,1.16h0a.63.63,0,0,0-.35.23.7.7,0,0,0-.16.37.37.37,0,0,0,0,.18A1.23,1.23,0,0,0,.06,37l.13,0a2.69,2.69,0,0,0-.19.38l.29-.07v.06a.47.47,0,0,0,.51.38h0l1.93-.22c.72,0,1.36-.07,1.36-.07l.47,0a10.54,10.54,0,0,1,1.09.11l1,.11-.13,0c-.49.12-.44.13-.45.15a.49.49,0,0,0,0,.15s-.3.19-.28.22a6.58,6.58,0,0,0,.79-.12l.49-.13a3,3,0,0,0-.56.72l.27,0a8.92,8.92,0,0,0-.47,3.58c0,1.65-.08,9.91-.08,9.91s-.4,8.27-.4,9.92c0,.24,0,.47,0,.66v.11a.72.72,0,0,0,.77.67h.11a6.57,6.57,0,0,0,.26.61l-.25.08-.69.2c-.36.1-.71.25-.83.29s-.38-.05-.44.35a1.23,1.23,0,0,0-.26,0,1.31,1.31,0,0,0,0,.43l-.07,0c-.53.23-.5.42-.54.74l0,.4c-.23-.26-.38-.2-.62-.17l-.64.1a.48.48,0,0,0-.39.55.24.24,0,0,0,0,.09c-.38.08-.35.12-.36.2s0,.57,0,.57-.33.48-.31.57.29.13.8.19h0l0,0a5,5,0,0,0,.54.69,2.39,2.39,0,0,0,.22.21.14.14,0,0,0,0,.06c0,.07.16.14.46.23l.06,0h.13l.08,0a.69.69,0,0,0,.2,0,3.44,3.44,0,0,0,.86,0l.79-.06,2-.16H11.1a.68.68,0,0,0,.64-.42,5.24,5.24,0,0,0,1.86,1.16c.26.13.8.36,1.42.68l2.06,1c.71.34,1.36.71,1.85,1l.8.45.51.33c.32.21.76.47,1.23.8l2.72,1.9a.78.78,0,0,0,1.06-.19.8.8,0,0,0,.13-.44v0c0-.9,0-1.3,0-1.52a4.16,4.16,0,0,0-.53-2,.57.57,0,0,0,.11-.16.64.64,0,0,0,.06-.18,45.6,45.6,0,0,0,8.19,0l22.6-1.24s18.86-.7,22.62-.92a40.9,40.9,0,0,0,7-1,6.76,6.76,0,0,0-.61.5l-.52.28A3,3,0,0,0,84,70c-.07,0-.13,0-.16.08l-.27.17a2.6,2.6,0,0,0,1.64,1c.42,0,1.7.22,2.69.34,0,.25,0,.46,0,.63,0,0,0,0-.05,0s-.07.06-.13.12l-1.23-.26c-1-.19-2.12-.32-2.52-.39a1.49,1.49,0,0,0-.29-1.25,2,2,0,0,0-.37.57c-.09-.14-.18-.21-.26-.2a6.71,6.71,0,0,0-1,.55s-.81.34-1,.39-.28-.12-.31.34a2.19,2.19,0,0,0-.52.91.33.33,0,0,0,.17.39l.12.06a6.25,6.25,0,0,0,1,.37l5.16,1.64a.47.47,0,0,0,.6-.3s0-.08,0-.12V75l0-.21a38.49,38.49,0,0,0,7.43,0c3.46-.19,20.81-1.26,20.81-1.26s17.37-.72,20.84-.94a36.12,36.12,0,0,0,7.39-1.2,3.91,3.91,0,0,0,.37.2c.51-.27.78-.45.79-.77,0-.09,0-.27-.06-.6l0-.2a.51.51,0,0,0-.13-.29l10-.56s8.83-.15,10.58-.26a10.15,10.15,0,0,0,1.26-.15l.18,0a.63.63,0,0,0,.5-.65,9.86,9.86,0,0,0-.46-2.26h0l.22-.06a.36.36,0,0,0,.26-.37c0-.44-.09-.89-.16-1.38l.61.06h0a.47.47,0,0,0,.53-.41v0c0-1.63.05-2.91.05-2.91s.13-1.43.24-2.77a.62.62,0,0,0-.56-.68h-.26v0h.21a.48.48,0,0,0,.47-.43v0c0-.15.15-4.13.19-6A.74.74,0,0,0,168,50h-.2c0-.1,0-.22,0-.33h.29a.48.48,0,0,0,.48-.46V49s.28-3.58.43-5.45a.73.73,0,0,0-.67-.78h-.14l-.44,0,0-.08s.2-.23.33-.4a.48.48,0,0,0,.42-.44v-.18s.35-3.32.55-5.2a.7.7,0,0,0-.46-.74h.26a.3.3,0,0,0,.06.11c.5.17.54.06.68-.09h.29l-.26,0c.18-.21.83-1.06.83-1.06a10,10,0,0,0,1.1-.89.19.19,0,0,0,0-.16Zm-52-30.49h-.86c.07-.17.15-.4.2-.52ZM122,6.47Zm-.23.44h0l0,0a.23.23,0,0,0,.06.06h0l0,0a.07.07,0,0,1,0-.05h-.1c-.07-.09-.12-.14-.18-.14a1.45,1.45,0,0,0-.29.13l-1-.06c-.18,0-.33-.07-.46-.09a2,2,0,0,0,.08-.45c0-.17,0-.53-.05-1.08a.77.77,0,0,0,.47.38,6.83,6.83,0,0,0,.81.17,2.64,2.64,0,0,0,.33.65,2.33,2.33,0,0,0,.4.44Zm-2.09-2.48V4.2H120A1.93,1.93,0,0,0,119.68,4.43ZM117.92,3.2A8.07,8.07,0,0,1,119,2.66c0,.22-.08.49-.1.57s-.09.09-.09.14c-.57.06-1.12.15-1.58.24h0Zm-2.16,2.05s.37-.32.36-.39-.1-.07-.26-.1a4.81,4.81,0,0,1,.52-.14,13.88,13.88,0,0,1,2.15-.37l0,.07,0,.09-2.22.85-.64.2C115.76,5.35,115.76,5.25,115.76,5.25Zm-1.43,2.9L115,6.63l1.68-.46,1.56-.25c0,.2,0,.34,0,.44a1.29,1.29,0,0,0,.12.53l-.84.37-3,1.28a1.72,1.72,0,0,0-.23-.28Zm2.13,8a6.57,6.57,0,0,1-.88-.83c-.13-.11-.25-.27-.41-.39a2.06,2.06,0,0,0-.44-.27,7.23,7.23,0,0,0,.27-2.47c0-.5,0-1.75,0-3l2.79-1.15.65-.26,0,.29c-.07.66-.2,1.55-.25,2.49-.16,1.88-.16,3.94-.14,4.62a5,5,0,0,0,.44,1.91A6.21,6.21,0,0,1,116.46,16.17Zm4.05,1.26-.74,0h-.2l-.2,0h0a5.5,5.5,0,0,0,.29-2.18c0-.66-.16-2.66-.17-4.51,0-.92,0-1.8,0-2.45V8.05a7.08,7.08,0,0,0,1.08.14l.5.14.15,0a3.91,3.91,0,0,0-.56,1.48c0,.29-.06.86-.1,1.56,0,.35,0,.73,0,1.12s0,.8.06,1.19a17.52,17.52,0,0,0,.19,2.07l.15.9.07.68Zm-82-11.31c-1.47-.13-4.25-.4-5-.49-.46,0-.83-.12-1.17-.17a4.89,4.89,0,0,0,.86-.81l0-.05.67.08c.48.05,1,.06,1.56.08s1.08,0,1.55,0l.77-.08.52,1ZM33.94,3l1.12.12.39,0,.41.07.86.15.54.1.08.09-.36,0c-.44,0-.94-.08-1.45-.11s-1-.14-1.44-.22l-.68-.13.09-.11Zm-.5-.85L33.6,2l.23-.14L34,1.8l.07,0h0a2.71,2.71,0,0,1,.7-.25,3,3,0,0,1,1.67.14c.19.23.36.46.55.65l.27.26-.39-.06L36,2.37l-.43-.07-.41,0L34,2.19l-.55,0Zm-.8,12.52c0-.61.16-3.65.16-3.65s.11-.77.24-1.6c.06-.42.12-.84.16-1.22a3.84,3.84,0,0,0,0-.93,1.31,1.31,0,0,0-.5-.92l.68.09L37.89,7a1.31,1.31,0,0,0,0,.15l0,.07v.21l0,.25a4.48,4.48,0,0,0,.08,1l.19,1.15s.2,2.2.22,2.64c0,.29-.09.5.06.71l-5.82,2.31A2.92,2.92,0,0,0,32.64,14.64ZM7,37.77l-.18-.1.48.06-.09.07Zm2.24-.37,6.66-4.46s5.75-3.44,6.85-4.19a6,6,0,0,0,.94-.78c-.05.17-.14.5-.22.83a5.65,5.65,0,0,0-1.81,1.83,8.32,8.32,0,0,0,1.37-.1q0,.41-.06.9c0,.4,0,.84,0,1.29s0,.91,0,1.36c.06.91.1,1.76.2,2.39,0,.32.07.58.1.76h0a3,3,0,0,0-.89.26l-.24.13c0-1.41,0-3.42,0-4.08,0-1.19.23-1.86-.27-2.86a5.47,5.47,0,0,0-.51,2.85c0,.84-.06,3.91-.08,5.08a.48.48,0,0,0,.47.48.5.5,0,0,0,.41-.22,1.52,1.52,0,0,1,.64-.54,1.59,1.59,0,0,1,.58-.16.79.79,0,0,1,.27,0c0,.41,0,.84,0,.84l0,.06h-.1a.76.76,0,0,0-.66.33h-.06a1.71,1.71,0,0,0-.74.21l-.33.23,0,0h0l0,0h0l0,0-.07.09-.08.08-.1.16A2.81,2.81,0,0,0,21,41.58c0,.42,0,.79,0,1.06s0,.44,0,.44-.22,2.78-.18,3.33.32.78.85,1.19l.13-.13a1.78,1.78,0,0,0,.17.4,2.16,2.16,0,0,0,.49.51,2.28,2.28,0,0,0,.62.32l.05,0c0,.28,0,.57,0,.75a2.12,2.12,0,0,0-.76.06l-.31.12-.16.1-.08,0,0,0-.07.06-.09.09,0,0-.07.1a1.27,1.27,0,0,0-.13.19,1.3,1.3,0,0,0-.08.17,3.48,3.48,0,0,0-.23,1.28c0,1.45,0,2.92,0,3.47a5.14,5.14,0,0,0,.74,2.54h-.31a4.31,4.31,0,0,0,1.79,1.45v.06c0,.11,0,.51,0,.77a2.37,2.37,0,0,1-.93-.33.6.6,0,0,0-.82.22s0,0,0,.08v0a13.84,13.84,0,0,0-.73,2.54c-.09.45-.13.89-.17,1.27s0,.68,0,.87a4,4,0,0,0,1,2.62l-.19,0a5.09,5.09,0,0,0,2,2l.13.09a.48.48,0,0,0,.66-.11.49.49,0,0,0,.08-.23l.1,0a6,6,0,0,0-.72,1.78C21.5,70,17.7,68.43,17.7,68.43l-7-3.11c-.38-.17-.69-.34-1-.49a7.37,7.37,0,0,0,.54-3.24c0-1.49.25-8.93.25-8.93s.54-7.44.57-8.93a8.37,8.37,0,0,0,0-1l0-.21a.64.64,0,0,0-.71-.56.66.66,0,0,0-.2.06,7.91,7.91,0,0,0-2,1.36,11.31,11.31,0,0,0,1.35.1,2.29,2.29,0,0,1,0,.25c0,1.48.08,8.94.08,8.94s-.07,7.45-.08,8.94c0,1.34-.25,2.11.19,3.23A5,5,0,0,0,9,64.52c-.13-.4-.25-.65-.42-.75A5.16,5.16,0,0,0,8.84,62c0-1.3-.33-7.82-.33-7.82s-.15-6.52-.16-7.83.2-1.88-.32-2.89a5.55,5.55,0,0,0-.47,2.89c0,1.31,0,7.83,0,7.83s-.09,1.7-.17,3.55c-.07-2.71-.17-5.61-.17-5.61s-.07-8.27-.08-9.92a9.13,9.13,0,0,0-.26-3.59A6.29,6.29,0,0,0,9.28,37.4ZM37,26.93l12.73.63,4.45.22,4.7.28,9.7.59L93.1,30.16l24.53,2,9.69.78,2.61.21-1,.37s-1.94.57-2.33.67a2.48,2.48,0,0,0-.54.1,18,18,0,0,0-5.26-1c-2.39-.11-14.38-.28-14.38-.28l-14.37-.91c-2.16-.15-3.39-.44-5.21-.1,0-.13-.14-.66-.16-.78s.17-.18-.23-.28l.36,0a42.9,42.9,0,0,0-8.37-1.33c-3.79-.26-22.81-1.12-22.81-1.12L32.86,27.14c-3.41-.21-5.37-.53-8.21-.25,0-.26,0-.5,0-.65C28.27,26.5,32,26.68,37,26.93ZM133.9,43.76l2.24-.09c-.07,1.45-.12,2.52-.12,2.52l-.3,2.58c-.92,0-1.63-.07-1.94-.06a3,3,0,0,0-1.61.46c0-.88.18-3.74.26-5.48A4.91,4.91,0,0,0,133.9,43.76Zm6.15,25.81h0l.06,0Zm-.56-.07a29.27,29.27,0,0,0-5.48-.11c-3.18.2-19.08,1.6-19.08,1.6S99,72.21,95.85,72.43c-2.94.21-4.61.11-7,.78a.28.28,0,0,0,.05-.11.36.36,0,0,0,0-.11v-.21L89,71.45l.52-.2a2.59,2.59,0,0,0,.68.08c.06,0,0-.19,0-.49a26.6,26.6,0,0,0,6.09.07c2.86-.15,17.14-1,17.14-1s14.3-.49,17.15-.67a24.24,24.24,0,0,0,5.72-1,1.84,1.84,0,0,0,.29.06l1.95.25.53.18a.9.9,0,0,0,0,.22C139,69.18,139.19,69.33,139.49,69.5ZM83,73.44c.65.13,2.32.36,3.39.48,0,.19,0,.35,0,.49ZM121,65c-1.17.07-4.68.45-7.92.67l-2.82.23a5.57,5.57,0,0,0,.45-2.29c0-1.35-.38-8.11-.38-8.11s-.19-6.77-.21-8.12a6.42,6.42,0,0,0-.27-2.85l.07-.09c-.44-.51-.75-.78-1.28-.8s-3.48.31-3.48.31l-3.48.16c-.45,0-.74-.14-1.08.13l-.15-.32A6.35,6.35,0,0,0,99.6,47c0,1.38.32,8.31.32,8.31s.15,6.93.17,8.31a7,7,0,0,0,.22,2.84c-3.13.16-6.45.2-7.58.22a20.56,20.56,0,0,0-4.84.26.33.33,0,0,0,0-.17v-.28s.24-4.31.4-7.05a.71.71,0,0,0-.67-.74H87.1l0-.12h.16a.48.48,0,0,0,.49-.46h0v-.19s.3-4.51.47-7.2a.7.7,0,0,0-.66-.76h-.38a2.58,2.58,0,0,0-.08-.26h.6a.49.49,0,0,0,.49-.47h0s0-2.28.1-4.76c0-.31,0-.62,0-.94s0-.58,0-1a2,2,0,0,0-.2-.7l0-.09,0,0-.07-.1-.07-.08a1.42,1.42,0,0,0-.3-.27,1.79,1.79,0,0,0-.48-.24,1.6,1.6,0,0,1,0-.27s0,0,0,0l.61,0a.47.47,0,0,0,.49-.46h0V40s.24-4.33.4-7.15a.71.71,0,0,0-.14-.45,28.88,28.88,0,0,0,3.64.41l14.36,1.07s12,.85,14.38.94a17,17,0,0,0,4.75-.44,11.54,11.54,0,0,0-.43,4.16c0,1.9.06,11.42.06,11.42s-.29,9.52-.27,11.42a10.79,10.79,0,0,0,.66,3.76v0l0,.07s0,0,0,0A16.4,16.4,0,0,0,121,65Zm-20.08-1.39c0-1.38,0-8.31,0-8.31s.34-6.93.33-8.31a5.66,5.66,0,0,0-.43-2.22,2,2,0,0,0,.87.12h3.47s2.9.35,3.47.34a1.35,1.35,0,0,0,1-.47,6.77,6.77,0,0,0-.29,2.62c0,1.35.06,8.11.06,8.11s-.3,6.77-.27,8.12a5.52,5.52,0,0,0,.5,2.33l-2.7.21-6.18.27h-.19A6.56,6.56,0,0,0,100.87,63.61ZM80.6,48.71c0-1.41-.09-2.58-.11-3.12A12.75,12.75,0,0,0,80.22,42a10,10,0,0,0,3.69.5l1,0,.69,0c.25,0,.49,0,.7,0a1.45,1.45,0,0,1,.45.06s0-.07,0,0l0,0h0a.51.51,0,0,1,.06.18c0,.19,0,.56.06.86s0,.63,0,.94c.09,1.8.17,3.47.21,4.27Zm-.22-9.13c0-1.36,0-2.39-.06-2.89,0-1.67.15-2.63-.34-4a10.78,10.78,0,0,0,3.87.85c.51,0,1.6,0,3.23,0,0,2.36.09,5.33.1,6.18ZM86.9,32l.28.09-.24,0Zm39.91,2.92,2.36-.51s1.54-.07,2.2-.15v.17l-.13.23-1.55.25a6.37,6.37,0,0,0-2.78,1.24,3.52,3.52,0,0,0-.16-.45,6.27,6.27,0,0,0-.61,3.06c0,.53-.08,1.86-.14,3.17a.48.48,0,0,0,.45.51l.13,0h0A14.85,14.85,0,0,1,130,42a8.86,8.86,0,0,1,1.14,0h.14c.09.17.18.32.18.32l0,.1-1.57-.16a6.13,6.13,0,0,0-3.08.53,6.28,6.28,0,0,0,2.94,1.06L131,44c.07,1.59.18,3.86.23,4.89a8,8,0,0,0-1.07-.1,15.56,15.56,0,0,0-2.94.15c0-1.21,0-2.47,0-3,0-1.26.23-2-.26-3a6,6,0,0,0-.52,3c0,.57,0,2.1-.06,3.43a.48.48,0,0,0,.47.48h.09a14.35,14.35,0,0,1,3.18-.15,6.45,6.45,0,0,1,.92.1c0,.19.11.41.14.53h0a16.81,16.81,0,0,0-1.83.16h-.79c-.41,0-.87,0-1,0a2.08,2.08,0,0,0-.43,0c-.11,0-.17.14-.22.41a1,1,0,0,0,.13.15,4.15,4.15,0,0,0-.48,2.25c0,.43-.06,1.55-.1,2.56-.11-3-.23-5.92-.23-5.92s-.19-9.52-.21-11.42c0-1.73.17-2.72-.32-4.16l.52-.11a.65.65,0,0,0-.24.37A.82.82,0,0,0,126.81,34.93Zm-.43,22.64a.42.42,0,0,0,.34.18h.08l1.1-.09h1.42l.6.08a12.6,12.6,0,0,1,1.38.23c0,.06,0,.13,0,.18-.75,0-2.17.05-2.59,0-.58,0-.94-.17-1.4.13-.09-.07-.19-.15-.3-.22a2.49,2.49,0,0,0-.65.45C126.4,58.24,126.39,57.91,126.38,57.57Zm.75-6.32,0,0c.09.06.12,0,.25,0l1,.08.79.06a18.25,18.25,0,0,0,1.77.49.49.49,0,0,0,.29-.12,3.64,3.64,0,0,0-.29,1.36c0,.56,0,2.26.06,3.6a8.12,8.12,0,0,0-1-.06h-1.3l-.84,0-.7.06c0-1.14,0-2.88,0-3.45A4.74,4.74,0,0,0,127.13,51.25Zm9.08,7.7s0,0,0,0h0l0,0h0Zm-.05.19c0,.22,0,.44,0,.43s0,3.78.05,4.53c0,.21,0,.39,0,.56l-1.1.07-.37,0-.83,0c-.62.08-1.31.17-1.52.22l-.2,0a1.72,1.72,0,0,0,.17-.74c0-.71-.32-4.27-.32-4.27s0-.24,0-.8a1.51,1.51,0,0,0,.9.37,4.63,4.63,0,0,0,1.16,0,8.22,8.22,0,0,0,.83-.11l.76-.21.18,0H136l.07,0Zm-8.91,4.79c0-.4.12-2.45.12-2.45s.44-2,.44-2.44a.57.57,0,0,0,0-.18,3.35,3.35,0,0,0,1,.12l2.35.06v1s-.34,3.56-.32,4.27a1.46,1.46,0,0,0,0,.31l-.4,0c-.36,0-.63,0-.87,0l-.37,0H128l-.94,0h0C127.24,64.41,127.22,64.22,127.25,63.93Zm-.81-1.58c0,.6,0,1.32,0,1.55s-.15.5.08.75a.9.9,0,0,0-.22,0,2.22,2.22,0,0,0-.36.11A10.62,10.62,0,0,0,126.44,62.35Zm8.58,4.5v0a4.54,4.54,0,0,0,0,.46,3.63,3.63,0,0,0-.34.4,22.47,22.47,0,0,0-3.06-.15A24.41,24.41,0,0,0,135,66.85Zm.35-.1h0a28,28,0,0,0-3.12-.48,1.45,1.45,0,0,0,0-.3.49.49,0,0,0,0-.15l.3,0c.23,0,.85-.08,1.43-.12h1.13l.41.09A8.72,8.72,0,0,0,135.37,66.75Zm.48-8.8,0,0h-.06l-.11,0h0l-.19,0-.78.09c-.25,0-.45,0-.65,0a6,6,0,0,1-.88-.09,3,3,0,0,0-.82.08l-.11,0V57.8l0,0a1.45,1.45,0,0,0,.88.23c.41,0,1.83-.23,2.75-.39C135.84,57.76,135.85,58,135.85,58ZM133,56.4a1.38,1.38,0,0,0-.69.23c.11-1.31.23-2.88.24-3.41a3.59,3.59,0,0,0-.29-1.56h.06c.31,0,1.87-.11,1.87-.11l.81.17a8.05,8.05,0,0,0,1,.17l.11,0a3.93,3.93,0,0,0-.06.81c0,.58.05,3.17.05,3.81C135.25,56.41,133.45,56.36,133,56.4Zm2.75-6.18v.08l-.78.13-.84.16s-1.55.25-1.86.28a.7.7,0,0,1-.21,0c0-.17,0-.32,0-.32s.18-.3.31-.56a3,3,0,0,0,1.4.33C134.1,50.31,134.82,50.27,135.74,50.22Zm-8.81-11.41a9.27,9.27,0,0,0,0-2.53,6.18,6.18,0,0,0,3,.21l1.11-.21c0,1.66.07,3.88.08,4.85a10.33,10.33,0,0,0-1.19,0,14.81,14.81,0,0,0-3.11.4C126.89,40.35,126.92,39.27,126.93,38.81ZM88.78,70.64h0Zm1.34-1.12c0-.31.12-.51-.1-.74l0-.09v0a24.2,24.2,0,0,0,6,.2c2.77-.1,16.6-.69,16.6-.69s9.59-.15,14.4-.28c-5.19.39-13.72,1.09-13.72,1.09s-14.27,1-17.12,1.15a27.93,27.93,0,0,0-6,.61.5.5,0,0,0,0-.12C90.16,70.2,90.13,69.7,90.12,69.52Zm-.79,0v.33l-.25-.09-.44-.14-.34-.11-.37-.12c-.14,0-.29-.06-.45-.09l-.41-.06h0v-.07h0l0-.09h0v-.1a.61.61,0,0,0,0-.19s0,0,0,0h.06c.2,0,1.22.1,1.22.1l.47.27.47.25A1.09,1.09,0,0,1,89.33,69.52Zm-2.26-.1s0,.07,0,0,0,0,0,0a.14.14,0,0,1,0-.06l0,0s0,0,0,.1Zm0,0v-.06s0,0,0,0S87.06,69.35,87.06,69.37Zm45.09-28.13c.08-1.08.31-4,.44-5.7a3,3,0,0,0,1.18.45c.36.06,1.26.15,2.31.26.07,1.21.14,2.35.14,2.35s0,1.17.06,2.7c-.89,0-1.9-.06-2.29-.08A4,4,0,0,0,132.15,41.24ZM134,34.41a3,3,0,0,0-1.63.19l-.07-.15s-.09-.43-.13-.66l1.58.24s1,.42,1.51.56l0,.06C134.72,34.53,134.25,34.44,134,34.41ZM27.29,30.31c.86.08,3.51.2,5.62.29,0,1.9.07,3.21.07,3.21s0,1.29,0,3.73c-1.7,0-4.51-.08-5.4-.1a12.46,12.46,0,0,0-3.13,0c0-.16.11-.28-.14-.42l0-.64c0-.61,0-1.45,0-2.32,0-.43.05-.88.08-1.31s.08-.85.11-1.23c.09-.65.16-1.19.2-1.54a.49.49,0,0,0,.2-.23A8,8,0,0,0,27.29,30.31ZM33.2,40.67v.19s0,3.08-.1,7.14l-6.49.14H25.1c-.4,0-.76,0-1.09,0V48c0-.24.17-.37-.17-.57a16.62,16.62,0,0,0,.47-4.07c0-.42,0-1.12,0-2.35.33-.13.54-.24.61-.39Zm-5.62,10.5,1,0L30,51.14c.88,0,1.88-.14,2.86-.25.1,2,.18,3.69.18,3.69s0,1.3.09,3.8c-1.75.07-4.7.15-5.63.17a12.13,12.13,0,0,0-3.28.18v-.12c0-.32-.07-.94-.13-1.71S24,55.23,24,54.37s0-1.7.07-2.3l0-.4a.42.42,0,0,0,.23-.32,6.17,6.17,0,0,0-.12-.94V50.3A7.33,7.33,0,0,0,27.58,51.17Zm5.06,10.08c0,1.84,0,3.09,0,3.09s0,1.64,0,4.24l-4.84.12a9.8,9.8,0,0,0-3.41.25l0,0,0,.06-.15.06s0,0,0,0c0-1.35.07-7.33.07-7.33v-.19c.15-.06.24-.12.25-.2a.72.72,0,0,0,0-.25,8.09,8.09,0,0,0,2.67.42C28,61.45,30.57,61.35,32.64,61.25ZM22.13,64.72c0-.18,0-.45,0-.79s0-.73.07-1.15A13.51,13.51,0,0,1,22.47,61h0a2.55,2.55,0,0,0,.43.07c0,.06,0,.11,0,.13s.14.18.38.27v.16s.06,4.72.08,6.72a4.3,4.3,0,0,0-1.74-1A7.5,7.5,0,0,0,22.13,64.72Zm.32-13a2.4,2.4,0,0,1,0-.8l0-.06v0s0,0,0,0l.07-.09h0l0,0,.09-.05.15,0a4,4,0,0,0-.14.7c0,.2.15.33.43.49,0,.07,0,.16,0,.24,0,.63,0,1.47,0,2.35s.07,1.81.12,2.59c.06.57.11,1.07.14,1.42a4.16,4.16,0,0,0-1.35-.56,5.28,5.28,0,0,0,.61-2.62C22.66,54.64,22.56,53.16,22.45,51.74ZM22,43s0-.18,0-.44-.06-.63-.06-1a2.07,2.07,0,0,1,.16-.9l0-.08.08-.09.06-.09,0,0h0l.19-.15a1.25,1.25,0,0,1,.29-.1c0,1.73,0,2.65,0,3.15a16.3,16.3,0,0,0,.55,4.34,1,1,0,0,0,0,.27V48a2.5,2.5,0,0,1-.45-.12,2.19,2.19,0,0,1-.82-.51,1.37,1.37,0,0,0,.51-1C22.45,45.79,22,43,22,43ZM6.3,65.19l.62-.12.65.12c.33,0,.69.14.8.13s.2-.07.29-.21a3.41,3.41,0,0,0,.44.3l-.25,0A8.2,8.2,0,0,0,8,65.6l-.37.08-.16,0-.41.08-1,.22-.56-.51-.09-.09.08,0A6.22,6.22,0,0,1,6.3,65.19ZM4.94,66l.5.52a.58.58,0,0,0-.08.22v.14L5,66.71l-.28-.12v-.42a1.25,1.25,0,0,1,0-.3Zm-1,.95a.45.45,0,0,0,.21.24l0,0,.39.21.07.05-.45.08-.23-.15-.41-.34C3.68,67.09,3.81,67.12,3.92,67Zm-1,.83a.67.67,0,0,0,0-.12l.43.41s.12.18.36.5h0c0,.06,0,.13,0,.18l0,0a5,5,0,0,1-.42-.52A4.06,4.06,0,0,0,2.89,67.82Zm4.82,1-2,.23L5,69.1l-.36,0a.48.48,0,0,0,0-.08l0-.15A4.65,4.65,0,0,0,5.3,69c.17,0,.3-.11.43-.3a.56.56,0,0,0,.62,0,.57.57,0,0,0,.25-.32l.05-.18A9.6,9.6,0,0,0,7,66.9a.47.47,0,0,0,0-.17l.26,0a2.13,2.13,0,0,1,.39,0l.15,0,.36,0c.21,0,.5,0,.8.07l1.45.19h.08a1.9,1.9,0,0,0-.19.85c0,.12,0,.3,0,.6Zm13,4.31-.55-.27-.82-.43c-.5-.27-1.17-.63-1.9-1l-2.12-1c-.63-.31-1.17-.52-1.43-.64A5.4,5.4,0,0,0,11.8,69c0-.69,0-1,0-1.23a2,2,0,0,0-.44-1.21l5.92,2.77s5.32,2.85,6.59,3.45a.66.66,0,0,0,.2.06,4,4,0,0,0-.32,1.72.92.92,0,0,0,0,.16l-1.7-.93C21.57,73.47,21.09,73.26,20.75,73.08Zm57.58-4.65C74.57,68.62,55.75,70,55.75,70s-18.83,1.18-22.59,1.4c-3.4.2-5.37.11-8.14.73,0,0,0,0,0-.07h0v-.27a5.41,5.41,0,0,0-.57-2.63,9.45,9.45,0,0,0,3.33.33l5.24,0a.48.48,0,0,0,.47-.47c.07-2.81.11-4.62.11-4.62s.1-1.54.23-3.73A.59.59,0,0,0,33.3,60h-.06c-2.15-.08-5.19-.16-6.11-.15a8.23,8.23,0,0,0-2.88.52v0l0-.06s-.13-.83-.14-1v0a.64.64,0,0,0,.1-.13l0-.08a10.69,10.69,0,0,0,3.3.26l6.06-.06a.49.49,0,0,0,.47-.49h0c0-2.77,0-4.21,0-4.21s0-2,.11-4.4a.62.62,0,0,0-.6-.63H33.4c-1.15,0-2.38.13-3.43.09l-1.4,0-.94,0a10.93,10.93,0,0,0-3.38.4.51.51,0,0,0-.14-.26v-.06s0-.36-.05-.76c.35,0,.7,0,1.06,0h1.5l6.87-.07a.48.48,0,0,0,.47-.47c.11-4.24.19-7.5.19-7.5s0,0,0-.68a.48.48,0,0,0-.44-.49h0l-9.07-.58,0-.13s-.09-.71-.14-1.16a10.9,10.9,0,0,0,3.08.38l5.83.2a.47.47,0,0,0,.49-.46h0c0-2.71.06-4.14.06-4.14s.08-1.58.19-3.8a.58.58,0,0,0-.51-.61h0c-2.17-.27-5.21-.62-6.14-.68a7.9,7.9,0,0,0-2.55.17c-.07-.48-.16-1-.16-1s0-.47-.05-.93a46.7,46.7,0,0,0,8.15,1c3.8.25,22.8,1.44,22.8,1.44s19,1.53,22.77,1.76a42,42,0,0,0,7.83-.2c-.29.08-.26.15-.27.25s0,.8,0,.8l0,.06-2-.09a10.89,10.89,0,0,0-4.11.67l.15.06a10.89,10.89,0,0,0-.41,4c0,.54,0,1.7,0,3.23a.48.48,0,0,0,.46.47l6.22.26v0s0,.09,0,.16q-.42,0-.72,0h-.69l-1,0a10.06,10.06,0,0,0-3.7.86s0-.1,0-.16a1.72,1.72,0,0,0-.07.21l-.15.07.12,0a11.16,11.16,0,0,0-.29,3.7c0,.58,0,1.9.08,3.47a.48.48,0,0,0,.47.47l6,.1v.25c-1.12,0-1.84-.07-2.22-.07a9.86,9.86,0,0,0-4,.73,10.06,10.06,0,0,0,3.92.87h2.73c0,2.27,0,5.26.05,6.17l-6.4-.12c0-1.34,0-2.4,0-2.9,0-1.64.23-2.57-.26-3.94a9.92,9.92,0,0,0-.52,3.93c0,.54,0,1.75,0,3.25a.48.48,0,0,0,.46.49l6.15.21c0,.06,0,.12,0,.15-1.11,0-1.87,0-2.26,0a10.13,10.13,0,0,0-4,.85,10.24,10.24,0,0,0,4,.75l3-.1c0,2.37.08,5.4.1,6.13l-6.36.25c0-1.36-.07-2.45-.08-2.95,0-1.66.16-2.6-.37-4a10.24,10.24,0,0,0-.42,4c0,.55,0,1.78,0,3.31a.47.47,0,0,0,.49.47h0l7.18-.16a.45.45,0,0,0,.31-.14,18.1,18.1,0,0,0,5,.36c1.18,0,4.72,0,8-.14l6.2-.2,6.21-.16c3.25-.06,6.79-.27,8-.36a16.26,16.26,0,0,0,4.57-1l.06.06.09,0a1.1,1.1,0,0,0,.47.18l2.18.43c-3.91.2-15.83,1-15.83,1L96,68.06c-2.48.12-3.93,0-6,.52,0-.45-.08-.71-.26-.76a3.73,3.73,0,0,0-.76,0l-.58.05s-1,.07-1.23.07-.25-.14-.38.08a1.62,1.62,0,0,1-.07-.3s0,0,0,0a2.7,2.7,0,0,0,.59,0,1.85,1.85,0,0,0-.33-.12,1.33,1.33,0,0,1-.16-.12s.2,0-.31,0-.46,0-.48,0a.47.47,0,0,0,0,.12,1.75,1.75,0,0,0-.32.12l.23,0a.15.15,0,0,0,0,.07,5.26,5.26,0,0,0,0,.54.4.4,0,0,1,.12-.07c.08,0,.16.08.16.23a.55.55,0,0,1-.08.28l-.34,0s0-.06,0,0l0-.1.05-.1v-.16a.25.25,0,0,0-.08.07.46.46,0,0,0-.11.16s0,0,0,0h.06l0,.09h0v0a0,0,0,0,1,0,0A40.71,40.71,0,0,0,78.33,68.43Zm2.72,4.39a1.6,1.6,0,0,0-.09-.41c.14.18.21.14.33.12h.08a3.17,3.17,0,0,0,1.06.75l-.61-.18C81.52,73,81.28,72.9,81.05,72.82Zm55.32-1.88c-3.47.2-20.8,1.59-20.8,1.59S98.23,73.74,94.77,74a41,41,0,0,0-7.37.7c0-.2.06-.5.11-.93l.27-.1a2.09,2.09,0,0,0,.62.11s0-.12,0-.28a.49.49,0,0,0,.4-.24,32.15,32.15,0,0,0,7.08,0c3.18-.2,19.1-1.28,19.1-1.28s15.94-.73,19.12-1a29.33,29.33,0,0,0,6.09-1c.13.17.29.18.5.21s2,.29,2,.29l.7.24v.1a.56.56,0,0,0,.26.42A35.62,35.62,0,0,0,136.37,70.94Zm29.7-3.69h-.73c-1.76.09-10.55.91-10.55.91l-10.55.75a11.31,11.31,0,0,0-3.63.43.72.72,0,0,0-.19,0,.48.48,0,0,0,.19-.36,4.4,4.4,0,0,0-.07-.7l0-.23a.56.56,0,0,0-.6-.49l-1.29.08s-1.64-.06-2-.09h-.08a1.33,1.33,0,0,0,.3-.34,16.72,16.72,0,0,0,3.41,0l12-.65s10-.2,12-.32a11.62,11.62,0,0,0,2.31-.35A13.49,13.49,0,0,0,166.07,67.25Zm-2.42-6.42,0-.9a9.49,9.49,0,0,1,0-1.18c0-.2.12-.33.08-.49a2.67,2.67,0,0,0,1.53.44c.33,0,1.15-.05,2.1-.12l.11,2.05s0,1.07,0,2.5a15.8,15.8,0,0,0-2.23,0c-.43,0-.79,0-1.1.08a2.07,2.07,0,0,0-.33.1.58.58,0,0,0,.21-.45C164,62.56,163.65,60.83,163.65,60.83Zm0-4.54c0-1.18,0-2.43,0-2.92a7.42,7.42,0,0,0-.1-2.53,5.58,5.58,0,0,0,2.68.68h1c.1,1.55.25,3.75.32,4.71Zm2.46-13.38a5.3,5.3,0,0,0-2.72,1,5.35,5.35,0,0,0,2.83.61l1.29-.11c0,1.53.08,3.52.1,4.3h0l-.31,0-.32.06-3.28.09c0-1-.06-1.91-.07-2.31a5.83,5.83,0,0,0-.24-2.58h0a.09.09,0,0,0,0-.11.09.09,0,0,0-.12,0l0,.08a5.45,5.45,0,0,0-.35,2.59c0,.45,0,1.53,0,2.68a.48.48,0,0,0,.48.48l3.54,0,.1.3h-.78a5.73,5.73,0,0,0-2.76.73,1.89,1.89,0,0,0-.09-.21,5.74,5.74,0,0,0-.51,2.92c0,.55,0,2-.06,3.31a.48.48,0,0,0,.47.49h1.46a3.67,3.67,0,0,0-1.48.76l.1.07c-.4.18-.39.37-.44.66a18.63,18.63,0,0,0-.18,2.16l-.15,1a5.77,5.77,0,0,0-.09,1.24c.05.33.33.5.83.69h0a2.11,2.11,0,0,0,1,.26c.32,0,.62,0,1,0A11.27,11.27,0,0,1,167,64c-.14.26-.26.52-.37.77a12.24,12.24,0,0,0-2.43-.11c-2,.1-12,1-12,1l-12,.81a24.75,24.75,0,0,0-3.27.22c0-.31-.07-.81-.13-1.26l0-.07a3,3,0,0,0,.17-1.17l.12-4.53a4,4,0,0,0,0-.68.85.85,0,0,0-.05-.25.88.88,0,0,0,0-.15s0,0,0,0-.32-.53-.32-.53-.13-.37-.16-.5l.11,0a.47.47,0,0,0,.34-.47l0-.37s-.17-3.29-.21-4,.15-.9-.24-1.35c0-.07.07-.13.11-.21l-.1-.2c.25-.05.39-.09.4-.14s-.34-.46-.34-.46l-.06-.16a.64.64,0,0,0,.4-.6c0-1.46-.06-3.28-.06-3.28s0-1.34.06-3.05v0a.39.39,0,0,0-.37-.39h0l-2.77.21a7.87,7.87,0,0,0-1.44.07.06.06,0,0,1,0,0c0-.23,0-.65,0-.65s.14-.3.23-.54a5.57,5.57,0,0,0,1.34.18l2.71.18a.48.48,0,0,0,.51-.44v0c0-1.73,0-3.11,0-3.11s.11-1.54.22-3a.64.64,0,0,0-.5-.66h-.08l-.57-.12v-.06a3.12,3.12,0,0,0,.41-.63c0-.08-.15-.16-.45-.26a1.68,1.68,0,0,0-.07-.24l.32,0,12.68,1.14c6.85.58,11.35.79,16.55.9a5.37,5.37,0,0,0-2.41.82,5.3,5.3,0,0,0,2.78.76c.26,0,.74,0,1.52-.05v4.17l-3.92.21c0-1,0-1.81,0-2.19,0-1.16.26-1.8-.21-2.78a5.13,5.13,0,0,0-.58,2.75c0,.43-.06,1.45-.1,2.58a.48.48,0,0,0,.46.5h0l3.47-.11a1.76,1.76,0,0,0,.06.17l0,.31C166.5,42.88,166.26,42.89,166.1,42.91Zm3.62-8.79s-.59,1-.72,1.19-.25.15-.2.33l-.45-.07a4.15,4.15,0,0,0-.7-.2c-.29,0-.49,0-.63,0-5.7-.87-10.34-1.48-17.74-2.12l-12.7-1.05-4.44-.36-4.71-.32-9.7-.66L93.17,29.21,68.59,27.78l-9.7-.57-4.71-.27-4.45-.2L37,26.14c-4.91-.23-8.6-.48-12.21-.62a.36.36,0,0,0-.16-.22.37.37,0,0,0-.5.12l-.05.07c-2.49-.08-5-.12-7.83-.06,2.75.33,5.17.57,7.59.75,0,.1,0,.25,0,.42a5.35,5.35,0,0,0-1.91.82c-1.11.73-6.48,4.73-6.48,4.73l-6.58,4.6,0,0a1.43,1.43,0,0,0-1-.59,6.36,6.36,0,0,0-.84,0l-1.25.09c-.42,0-.82.07-1.12.12l-.48.08-1.4.14-1.42.23a13.33,13.33,0,0,0,1.15-.9c1-.78,5.72-4.77,5.72-4.77s5-3.72,5.93-4.53a5.65,5.65,0,0,0,.77-.79,3.09,3.09,0,0,0,.58.25c.51-.13.8-.22.82-.41A8.78,8.78,0,0,0,16,24.41s0-.26-.05-.54c0-.11,0-.22,0-.32,7.14.93,12.1,1.19,20.75,1.74,9.5.61,57.08,3.55,57.08,3.55s47.55,3.3,57.05,3.88c7.78.47,12.59.55,18.71.53l.51.11C169.88,33.72,169.72,34.12,169.72,34.12Z"/><path class="cls-1" d="M121.74,6.93h0Z"/><path class="cls-1" d="M15.39,56.54a6.39,6.39,0,0,0,.18,2.66l-.2,0a7.26,7.26,0,0,0,3.1,1.27l.21,0a.46.46,0,0,0,.57-.34.5.5,0,0,0,0-.12c0-1.64-.06-8.75-.06-8.75s.29-7.48.27-9a7.27,7.27,0,0,0-.82-3.31l-.25.6a5.6,5.6,0,0,0-2.81.61l-.07,0a.8.8,0,0,0-.43.69h0c0,1.33.23,7.72.23,7.72Zm.4,2.64a6.1,6.1,0,0,0,.39-2.63c0-1.3.1-7.8.1-7.8l0-.32c0,2.11.08,4,.09,4.78a22.74,22.74,0,0,0,.17,4.26h0l.09.41h0v0a.09.09,0,0,0,.1.07.09.09,0,0,0,.07-.11h0a1.16,1.16,0,0,1,0-.18c.23.18.46.35.68.5a.26.26,0,0,0,.37-.06.18.18,0,0,0,0-.09L18,57.9A14.81,14.81,0,0,0,18.38,56c0,1.45.07,2.87.09,3.71A7.8,7.8,0,0,0,15.79,59.18ZM17.1,43.56a12.23,12.23,0,0,1,0-1.78c0-.1.06-.23.07-.28v0c0,.8-.07,2.05-.11,3.48C17.11,44.47,17.1,44,17.1,43.56Zm0,13.06c.05.31.11.61.18.91l-.33,0C17,57.2,17,56.9,17.08,56.62ZM18.2,40.25v-.14l.1-.12Z"/><path class="cls-1" d="M51,48.29c-.27,0-3,.19-3.62.21a3.18,3.18,0,0,0-.94,0c0-.66,0-1.23,0-1.62-.08-3.47.09-5.45-.48-8.34a44,44,0,0,0-.31,8.36c0,2,.16,8,.24,11.73a.47.47,0,0,0,.49.47h0l10.88-.22,12.15,0a.67.67,0,0,0,.67-.66v0c.08-4.82.14-8.93.14-10.48a42.64,42.64,0,0,0-.79-8.36,44.2,44.2,0,0,0-.77,6.4c0-1.34,0-2.65,0-3.13a7,7,0,0,0-.05-1.92c.22-.08.44-.18.68-.28l-.69-.34.78-.31a6.7,6.7,0,0,0-3.09-.93c-1.41-.07-8.47,0-8.47,0l-8.46-.19c-1.3,0-2-.29-3.13.18a6.4,6.4,0,0,0,3.1.6c.85.05,3.79.17,6,.26l-5.51,0c-1.27,0-2-.25-3.05.24a6.13,6.13,0,0,0,3,.54l1.46,0a6.94,6.94,0,0,0-.13,1.66C51,43,51,46.89,51,48.29Zm8.37,1.1c.45,0,2.18,0,3.17,0-.11,1.26-.47,5.15-.49,6.05a3.64,3.64,0,0,0,.22,1.38l-3.81.25a5,5,0,0,0,.26-1.93c0-.83.06-4.2.08-5.74A5.17,5.17,0,0,0,59.41,49.39Zm8,7.28a5.45,5.45,0,0,0-1.12-.08c-.47,0-1.61.06-2.89.14a3.61,3.61,0,0,0,.26-1.26c0-.9-.07-4.83-.11-6.08.79.08,3.09.29,3.63.27a1.39,1.39,0,0,0,.55-.12c-.08,1.09-.38,5.45-.37,6.42A5.16,5.16,0,0,0,67.44,56.67ZM62.82,42.52c0,.87-.14,4.56-.18,5.93-1,0-2.78.15-3.24.16l-.55,0c0-.31.41-5.46.42-6.51A3.83,3.83,0,0,0,59,40.7L63,41A6.75,6.75,0,0,0,62.82,42.52ZM58,40.63a3.6,3.6,0,0,0-.3,1.43c0,1.08.23,6.53.23,6.53S58,54,58,55.11a5.7,5.7,0,0,0,.08,2l-1.54.06a4.53,4.53,0,0,0,.23-1.87c0-1.06,0-6.38,0-6.38s.35-5.31.34-6.37a3.69,3.69,0,0,0-.54-1.93l1.39,0ZM55.81,49c0,.58.14,5.33.15,6.32a5.71,5.71,0,0,0,.09,1.89l-4.22.17a3.77,3.77,0,0,0,.47-1.86c0-.9-.2-4.74-.28-6.15.95.08,2.32.2,2.71.18A1.47,1.47,0,0,0,55.81,49Zm-8.37.33c.55,0,3.14,0,3.57-.05-.08,1.34-.32,5.31-.31,6.23a3.93,3.93,0,0,0,.47,1.9l-1.1,0c-1.25,0-2-.16-3,.37a4.12,4.12,0,0,0,1.74.41l-2.06.06c-.08-2.76-.19-6.52-.26-9.08A2,2,0,0,0,47.44,49.28Zm20.4-6.66c0,.8,0,3.9-.06,5.58a1.34,1.34,0,0,0-.58-.13c-.54,0-2.84.23-3.63.32,0-1.45,0-5,0-5.84a12,12,0,0,0,0-1.53c1.13.07,2.1.12,2.52.13A5.73,5.73,0,0,0,68,40.92,6.21,6.21,0,0,0,67.84,42.62Zm-11.79-2a3.61,3.61,0,0,0-.55,1.93c0,.87.2,4.55.28,5.89a1.45,1.45,0,0,0-1.07-.49c-.39,0-1.79.15-2.74.26,0-1.48-.12-5.16-.13-6.05a12.73,12.73,0,0,0,0-1.64Z"/><path class="cls-1" d="M71.19,34.79A8.31,8.31,0,0,0,68,34c-1.64-.09-9.86-.17-9.86-.17s-8.2-.26-9.84-.33-2.34-.31-3.59.11c0-.13-.07-.26-.11-.4a10.33,10.33,0,0,0-.65,4c0,.45-.07,1.36-.12,2.46s-.05,2.42-.07,3.67,0,2.45-.05,3.33c0,.44,0,.8,0,1v.4s-.05,2.27-.1,4.78c0,1.25,0,2.56,0,3.67s.05,2,.07,2.47A9.77,9.77,0,0,0,44,61.16l.06.23a.54.54,0,0,0,.67.38.52.52,0,0,0,.4-.51v-.17h0a10.28,10.28,0,0,0,.13-2.17c0-.45-.08-1.35-.16-2.45s-.19-2.4-.24-3.65l-.23-4.75v-.39c0-.25,0-.61,0-1V43.32c0-1.24,0-2.54,0-3.65s.07-2,.08-2.46a13,13,0,0,0,0-3.59,8.67,8.67,0,0,0,3.54.63c1.63.1,9.84.5,9.84.5s8.18.75,9.82.82a8.36,8.36,0,0,0,3.18-.45,7.61,7.61,0,0,0-.56,2.77c-.06,1.59.09,9.59.09,9.59s0,8-.07,9.6a10,10,0,0,0,.11,3.18,7.42,7.42,0,0,0-3.17-.58c-1.55,0-9.35.59-9.35.59s-7.8.38-9.36.43-2.26-.13-3.45.41a7.72,7.72,0,0,0,3.47.38c1.56,0,9.37-.27,9.37-.27s7.81.12,9.37.06a7.7,7.7,0,0,0,3.2-.79.65.65,0,0,0,0,.13c0-.06.05-.12.08-.19l.12,0-.09,0a8.76,8.76,0,0,0,.45-3.26c0-1.59.23-9.58.23-9.58s.53-8,.55-9.58a8.13,8.13,0,0,0-.71-3.56A3.79,3.79,0,0,0,71.19,34.79Z"/><path class="cls-1" d="M73,72c-3.35.2-20.1,1.61-20.1,1.61S36.18,74.8,32.83,75c-3.09.21-4.86.11-7.41.79a35.69,35.69,0,0,0,7.46,0L53,74.53s16.79-.74,20.14-1a34.33,34.33,0,0,0,7.38-1.27A33.43,33.43,0,0,0,73,72Z"/><path class="cls-1" d="M158.05,43.25a13.16,13.16,0,0,0-.78-4.34l0,0-.09-.06c0-.05,0-.1,0-.15l0,.09a2.89,2.89,0,0,0-1.79-.71c-.88,0-5.33.23-5.33.23s-4.44.07-5.32.07-1.21-.18-1.83.19c0-.09-.06-.18-.1-.27a5.08,5.08,0,0,0-.6,2.76c0,.63-.14,2.51-.14,4.25s0,3.31,0,3.31l-.09,3.32c-.07,1.74,0,3.63,0,4.26a5.34,5.34,0,0,0,1,2.73c.06-.13.12-.26.17-.39a14.82,14.82,0,0,0,4.26.27l10.13-.26A.47.47,0,0,0,158,58c0-2,0-2.33,0-2.33S158.1,45.32,158.05,43.25ZM147.34,58a16.57,16.57,0,0,0-4.14.3,5,5,0,0,0,.37-2.21c0-.63-.25-2.49-.35-4.21s-.25-3.28-.25-3.28,0-1.57,0-3.29,0-3.61,0-4.23a8,8,0,0,0,0-2.29,3,3,0,0,0,1.73.36l5.33.09s4.43.42,5.31.42a2.73,2.73,0,0,0,1.73-.59,13.11,13.11,0,0,0-.59,3.28,2,2,0,0,0-1.11-.38c-.77,0-4.65.15-4.65.15s-3.88,0-4.65,0-1.11-.24-1.73.25a1.8,1.8,0,0,0,1.29.51,3.83,3.83,0,0,0-.21,1.42c0,.8-.14,4.46-.16,5.17a1.28,1.28,0,0,0-1,.31c0-1.74,0-3.32,0-4,.08-1.6.35-2.5-.08-3.86a9.42,9.42,0,0,0-.7,3.81c0,.87-.15,3.5-.08,5.9,0,.6,0,1.18,0,1.73s.05,1,.07,1.46c0,.84.07,1.39.07,1.39s0,0,0,.71a.48.48,0,0,0,.48.45h0l1.53,0c.81,0,1.85-.07,2.91,0,2.14,0,4.39.17,5.18.18a9.69,9.69,0,0,0,3.24-.35v.47C155,57.69,148.88,57.93,147.34,58Zm-2.8-1.62v-.21s0-.54-.09-1.38c0-.41-.05-.91-.09-1.44s0-1.12,0-1.72,0-1.21-.05-1.81a1.71,1.71,0,0,0,.93.42c-.13,1.26-.41,4-.42,4.63a2.57,2.57,0,0,0,.39,1.44Zm11.23-7.27a2.29,2.29,0,0,0-.68-.12c-.32,0-1.17.05-2.05.12,0-1.17-.12-3.76-.13-4.39a4.17,4.17,0,0,0,0-1.39c1,.11,2.07.23,2.44.24a2,2,0,0,0,.58-.07,2.33,2.33,0,0,0-.32,1.12C155.55,45.26,155.7,48,155.77,49.09Zm-3.64-4.4c0,.65,0,3.34,0,4.47l-1.61.14h-.19c0-.78-.19-4.2-.21-5a6.15,6.15,0,0,0,0-1.32l.62,0,1.67.21A3,3,0,0,0,152.13,44.69Zm-2.75-1.45a2.36,2.36,0,0,0-.15-.25h.22A2.17,2.17,0,0,0,149.38,43.24Zm-.66,1.48c0,.68.12,3.6.16,4.64l-2.68.09c0-.73,0-4.37,0-5.17a5.61,5.61,0,0,0,0-1.41L149,43A2.64,2.64,0,0,0,148.72,44.72Zm-2.49,5.53h2.64c-.05,1.14-.17,3.84-.14,4.49a2.31,2.31,0,0,0,.39,1.2l-.57,0c-.94,0-1.84.13-2.59.22a2.5,2.5,0,0,0,.4-1.3C146.39,54.23,146.28,51.51,146.23,50.25Zm4.15,0h.12l1.55.13c-.1,1.22-.29,3.66-.29,4.27a2.26,2.26,0,0,0,.34,1.21l-1.76,0a2.39,2.39,0,0,0,.36-1.3C150.7,54,150.49,51.52,150.38,50.25Zm2.73.21c.86.06,1.67.12,2,.11a2,2,0,0,0,.72-.13c0,1.25.06,3.5.06,4.09s-.21,1.17.23,1.78a7.83,7.83,0,0,0-2.27-.43l-.82,0a2.23,2.23,0,0,0,.35-1.2C153.37,54.06,153.21,51.7,153.11,50.46Zm3.54,4.08c0-.14,0-.38,0-.68,0,.53,0,1,0,1.18a3.91,3.91,0,0,0,.08,1.52l-.6-.23A2.47,2.47,0,0,0,156.65,54.54Z"/><path class="cls-1" d="M97.42,36.22h0L95,36a8.84,8.84,0,0,0-3.28.27.42.42,0,0,0-.35-.16.44.44,0,0,0-.42.4v.06c0,.45,0,.93-.05,1.52,0,1.51-.15,9-.15,9s-.46,7.51-.47,9a6.92,6.92,0,0,0,.49,2.72h0c0,.15-.11.24-.06.37a.91.91,0,0,0,.09.17l.11.12a1.16,1.16,0,0,0,.59.2,13.7,13.7,0,0,0,1.42,0l1.06,0s2,.29,2.44.27.57-.3.87-.82a2.37,2.37,0,0,0-.26-.37,9.84,9.84,0,0,0,.46-3.54c0-1.71.2-10.29.2-10.29s.31-5.39.45-7.89A.73.73,0,0,0,97.42,36.22ZM96.31,58.3c-.4,0-2.42.38-2.42.38l-1.06.1a10.65,10.65,0,0,1-1.33.09.48.48,0,0,1-.22-.06,6.93,6.93,0,0,0,.58-2.7c0-1.5-.18-9-.18-9s0-7.52,0-9V38a4.8,4.8,0,0,0,.16-1.27,8.6,8.6,0,0,0,3,.83l1.71.15c0,.92,0,2.07,0,3.16a.75.75,0,0,0-.63-.43h0L95,40.36a5.13,5.13,0,0,0-2.76.65l.22.13a5.17,5.17,0,0,0-.38,2.58c0,1.23.07,7.38.07,7.38s-.24,5.17-.26,6.69a.77.77,0,0,0,.77.78h.73a5.19,5.19,0,0,0,2.71-.84L96,57.66A5,5,0,0,0,96.43,55c0-1.23,0-7.36,0-7.36s.15-3,.23-5.09c0,1.33,0,2.33,0,2.33s0,8.58,0,10.29a12.18,12.18,0,0,0,.09,3.3A.69.69,0,0,0,96.31,58.3ZM93.44,57c-.1-2-.35-5.88-.35-5.88l-.24-7.38a5.91,5.91,0,0,0-.21-2.46,4.72,4.72,0,0,0,1.94.67,4.66,4.66,0,0,0-.21,1.78V50S94,55.17,94,56.21a3.26,3.26,0,0,0,.08.73L94,57A4.45,4.45,0,0,0,93.44,57Zm2.19-1.11c0-1.54-.32-5.9-.32-5.9s-.12-5.22-.15-6.26c0-.28,0-.53,0-.76.11,2,.27,4.68.27,4.68s.16,6.14.19,7.36C95.65,55.31,95.64,55.6,95.63,55.86ZM95.13,42v.11a.53.53,0,0,0,0-.12Zm.32,15.34a3.06,3.06,0,0,0,.17-.9,2.68,2.68,0,0,0,.32,1.23l-.51-.25Z"/><path class="cls-1" d="M118.65,37.11h0l-1.61,0a12,12,0,0,0-4.35.76L113,38a5.48,5.48,0,0,0-.42,2.82c0,1.28.1,7.71.1,7.71s-.25,6.42-.22,7.7a5.39,5.39,0,0,0,.71,2.6h0c0,.08.08.16.13.24s.05-.12.08-.17a13.1,13.1,0,0,0,4.14.44h1a.48.48,0,0,0,.48-.47h0c0-2.57,0-10.76,0-10.76s.29-7.59.35-10.18A.78.78,0,0,0,118.65,37.11ZM117,38.68h.84c0,.62,0,1.38.05,2.2a.53.53,0,0,0-.22,0h0a17.07,17.07,0,0,0-3.45.86l.31.07a16.75,16.75,0,0,0-.48,5c0,1.17,0,4.7,0,7.43-.12-2.35-.35-5.8-.35-5.8s-.24-6.42-.27-7.7.17-1.84-.33-2.8A11.7,11.7,0,0,0,117,38.68Zm-2.12,17.17a3.38,3.38,0,0,0,.11.6l-.1,0C114.9,56.3,114.9,56.08,114.89,55.85Zm.52-11.7c0,1-.1,5.72-.1,5.72s-.38,4.28-.42,5.53c0-2.79-.07-7.22-.07-8.56,0-2.09.2-3.3-.27-5,.47.11.91.21,1.35.29A3.16,3.16,0,0,0,115.41,44.15Zm-.5,12.8v0l0,0Zm1.3-.14.24.12h-.3Zm1.25.11h0S117.49,56.91,117.46,56.92Zm-.48-.83h-.08l-.46-.09a2.59,2.59,0,0,0,0-.41c0-1-.22-5.72-.22-5.72l-.06-5.71c0-.86.21-1.35-.24-2.06.31.06.62.1.94.14,0,.3,0,.62-.05,1C116.82,45.11,116.94,53.24,117,56.09Zm-3.51,2.62a5.89,5.89,0,0,0,.52-1.49v.19a.47.47,0,0,0,.47.47h0l3,0a.48.48,0,0,0,.47-.47V57.1s.11-2.43.22-5.28c0,2.34.06,5.18.08,6.7h-.7A14,14,0,0,0,113.47,58.71Z"/><path class="cls-1" d="M101.85,64.88h0L108,64.7h.32a.46.46,0,0,0,.46-.46h0c0-.15,0-3.85.08-7.88s.07-8.4,0-9.87c0-.15,0-.29,0-.4v0a.79.79,0,0,0-.78-.77,27.31,27.31,0,0,0-6.2.69,1.62,1.62,0,0,0,0-.19,1.18,1.18,0,0,1,0,.2h0a29.16,29.16,0,0,0-.43,6.47c0,2,0,9.25,0,12A.47.47,0,0,0,101.85,64.88Zm.32-12.43c0-.75,0-1.42,0-2,.25.33.43.29.72.28l1.84-.07c0,.82,0,1.72,0,2.51l-2,.11c-.24,0-.41-.1-.59,0C102.18,52.94,102.17,52.67,102.17,52.45ZM107,47.61a.49.49,0,0,0,.3-.12c0,.5,0,1.1,0,1.78a.48.48,0,0,0-.18,0,14.63,14.63,0,0,0-1.6.3c0-.51,0-.93,0-1.16s0-.68,0-1A13.24,13.24,0,0,0,107,47.61Zm.44,5.29a.41.41,0,0,0-.25-.08,14.16,14.16,0,0,0-1.57.19c0-.74,0-1.58,0-2.34a15.51,15.51,0,0,0,1.65.16l.15,0C107.41,51.46,107.43,52.17,107.45,52.9Zm-1.77,2.3s0-.4,0-1c.56.1,1.3.23,1.52.23a.63.63,0,0,0,.32-.12l.06,2.05c.11,3.25.21,6.28.25,7.41l-2.27.08A4,4,0,0,0,106,62C106,60.9,105.68,55.2,105.68,55.2Zm-.92-6.83c0,.25,0,.73,0,1.32-.51.06-1.61.2-1.88.22s-.46-.12-.67.16a20.15,20.15,0,0,0-.13-3.12c.21.3.39.28.67.29s1.72,0,2.06,0C104.77,47.59,104.77,47.94,104.76,48.37Zm-2.57,5.49c.17.17.33.15.57.16s1.46,0,2,0V55.2s-.37,5.69-.36,6.82a4,4,0,0,0,.42,1.85l-2.51.08C102.26,61.5,102.21,56.58,102.19,53.86Zm1.52-7.46-1,.05c-.29,0-.47-.16-.71.19l-.12-.64C102.55,46.16,103.14,46.29,103.71,46.4Z"/></g></g></svg>