<svg width="113" height="113" viewBox="0 0 113 113" fill="none" xmlns="http://www.w3.org/2000/svg">
<g clip-path="url(#clip0)">
<path d="M65.8477 9.18836L64.5143 8.9425L62.3739 0L63.7775 0.259915L65.4336 7.53052L69.5601 1.31363L70.9636 1.57354L65.8477 9.18836Z" fill="#333333"/>
<path d="M72.0514 8.65464L70.4303 10.2352L69.0688 9.7224L75.6234 3.19641L76.9147 3.68112L77.6165 12.9116L76.2621 12.4058L76.1077 10.1579L72.0514 8.65464ZM75.7498 4.8402L72.9427 7.76952L75.9813 8.90753L75.7498 4.8402Z" fill="#333333"/>
<path d="M84.9499 17.4075L83.5464 16.5364L83.1323 11.8439L81.9042 11.0923L79.9182 14.3377L78.8164 13.6352L83.1885 6.45593L86.6974 8.61253C87.1475 8.8717 87.5374 9.22369 87.8413 9.64516C88.0949 9.99895 88.2411 10.4185 88.2623 10.8534C88.2737 11.2777 88.1625 11.6962 87.9422 12.0588C87.7219 12.4213 87.4017 12.7126 87.0202 12.8976C86.6371 13.0768 86.2129 13.1496 85.7921 13.1084C85.2956 13.0555 84.8166 12.8949 84.3885 12.6377L84.9499 17.4075ZM82.4797 10.1088L84.9008 11.584C85.2237 11.812 85.6155 11.9212 86.0096 11.8931C86.1729 11.8738 86.3294 11.816 86.466 11.7244C86.6027 11.6328 86.7156 11.5101 86.7956 11.3662C86.8862 11.2314 86.9425 11.0764 86.9596 10.9148C86.9768 10.7532 86.9542 10.5898 86.8939 10.439C86.7245 10.0851 86.4467 9.79468 86.1008 9.61004L83.6867 8.13485L82.4797 10.1088Z" fill="#333333"/>
<path d="M86.0801 18.468L91.3434 11.9209L92.3539 12.7358L87.0906 19.2899L86.0801 18.468Z" fill="#333333"/>
<path d="M90.5292 21.7769C90.311 21.0188 90.3098 20.2146 90.5256 19.4558C90.7415 18.697 91.1658 18.0141 91.7502 17.4848C92.3226 16.9343 93.0403 16.5591 93.8187 16.4035C94.5971 16.2479 95.4037 16.3184 96.1434 16.6067C96.9333 16.9034 97.6408 17.3852 98.2066 18.0116C98.7887 18.6299 99.2188 19.3755 99.4628 20.1893C99.6813 20.9504 99.6834 21.7574 99.4689 22.5196C99.2544 23.2818 98.8318 23.9691 98.2485 24.504C97.6652 25.039 96.9444 25.4005 96.1671 25.5479C95.3898 25.6953 94.5869 25.6228 93.8486 25.3384C93.0669 25.0269 92.3639 24.5459 91.79 23.9302C91.2161 23.3144 90.7855 22.579 90.5292 21.7769ZM94.1433 24.2145C94.6705 24.4096 95.2417 24.4534 95.7925 24.3409C96.3587 24.2091 96.8813 23.9327 97.3092 23.5388C97.7372 23.1449 98.056 22.6468 98.2346 22.093C98.3891 21.5512 98.3891 20.977 98.2346 20.4352C98.0523 19.8453 97.7411 19.3035 97.3235 18.8491C96.906 18.3946 96.3925 18.039 95.8205 17.8079C95.2899 17.6071 94.7132 17.5608 94.1573 17.6744C93.5938 17.8105 93.0743 18.0885 92.6481 18.4819C92.222 18.8753 91.9032 19.3711 91.7222 19.9224C91.5679 20.4666 91.5679 21.043 91.7222 21.5872C91.8924 22.185 92.2056 22.7323 92.6345 23.1818C93.043 23.6359 93.5561 23.9831 94.1293 24.1934L94.1433 24.2145Z" fill="#333333"/>
<path d="M97.1541 28.949C97.5519 27.9734 98.2866 27.1731 99.2243 26.6941L103.161 24.3689L103.863 25.535L99.912 27.8813C99.2204 28.2043 98.6675 28.7652 98.3541 29.4618C98.2767 29.7986 98.273 30.1481 98.3433 30.4864C98.4135 30.8247 98.5561 31.1438 98.7611 31.4217C98.9052 31.7322 99.1146 32.0079 99.375 32.2298C99.6354 32.4516 99.9407 32.6145 100.27 32.7073C101.032 32.7724 101.792 32.5604 102.41 32.1102L106.368 29.7639L107.07 30.93L103.112 33.2763C102.249 33.8608 101.208 34.1219 100.172 34.0139C99.2781 33.8734 98.4781 33.2084 97.7716 32.0188C97.0558 30.8246 96.8453 29.806 97.1541 28.949Z" fill="#333333"/>
<path d="M101.245 38.1796C101.211 37.5529 101.26 36.9244 101.393 36.311L102.515 36.6973C102.387 37.2161 102.345 37.7524 102.389 38.2849C102.433 38.8512 102.553 39.409 102.747 39.9428C102.909 40.4777 103.206 40.9616 103.61 41.3477C103.754 41.4904 103.935 41.5893 104.132 41.6328C104.33 41.6763 104.536 41.6627 104.726 41.5936C104.846 41.5575 104.957 41.4944 105.049 41.4093C105.142 41.3241 105.214 41.2189 105.259 41.1018C105.352 40.8506 105.383 40.5809 105.351 40.3151C105.351 40.0271 105.273 39.6548 105.189 39.1981L105.147 38.9593C104.994 38.2509 104.921 37.5275 104.93 36.8027C104.925 36.3664 105.044 35.9377 105.273 35.5664C105.504 35.2633 105.823 35.0398 106.186 34.9271C106.556 34.7639 106.965 34.7109 107.365 34.7744C107.764 34.8379 108.137 35.0153 108.438 35.2854C109.109 35.9006 109.611 36.6767 109.898 37.5403C110.093 38.0968 110.204 38.6792 110.228 39.2684C110.263 39.8673 110.23 40.4682 110.13 41.0597L109.021 40.6242C109.097 40.16 109.118 39.6884 109.084 39.2192C109.034 38.7797 108.93 38.348 108.775 37.9337C108.603 37.3542 108.284 36.8292 107.849 36.4093C107.695 36.2667 107.504 36.1701 107.299 36.1303C107.093 36.0906 106.88 36.1094 106.684 36.1845C106.582 36.2163 106.487 36.2681 106.405 36.3368C106.323 36.4055 106.256 36.4899 106.207 36.5849C106.096 36.839 106.053 37.1171 106.08 37.3928C106.114 37.8654 106.182 38.335 106.284 38.7977C106.394 39.3503 106.473 39.9084 106.523 40.4696C106.557 40.9497 106.478 41.431 106.291 41.8746C106.191 42.1093 106.04 42.3191 105.849 42.489C105.659 42.659 105.434 42.785 105.189 42.858C104.735 43.0187 104.24 43.0187 103.786 42.858C103.3 42.6873 102.87 42.3859 102.544 41.987C102.13 41.4905 101.814 40.9211 101.61 40.3081C101.381 39.6213 101.258 38.9035 101.245 38.1796Z" fill="#333333"/>
<path d="M108.663 54.7438C108.445 54.899 108.209 55.0286 107.961 55.1301C107.643 55.2785 107.295 55.3553 106.944 55.3553C106.592 55.3553 106.245 55.2785 105.926 55.1301C105.502 54.9309 105.143 54.617 104.888 54.224C104.6 53.7873 104.428 53.2844 104.389 52.7628L104.017 48.6463L112.382 47.8806L112.754 51.9971C112.817 52.5145 112.767 53.0395 112.607 53.5355C112.481 53.9479 112.237 54.3142 111.905 54.5892C111.575 54.8509 111.174 55.0075 110.754 55.0388C110.403 55.0763 110.048 55.033 109.716 54.9124C109.423 54.8132 109.162 54.6388 108.958 54.4066C108.891 54.543 108.789 54.6593 108.663 54.7438ZM105.575 52.6364C105.574 52.8346 105.615 53.0309 105.695 53.2123C105.775 53.3936 105.892 53.556 106.039 53.6887C106.187 53.8214 106.36 53.9214 106.549 53.9822C106.737 54.043 106.936 54.0631 107.133 54.0413C107.297 54.0365 107.458 53.9949 107.604 53.9195C107.75 53.8441 107.877 53.7369 107.975 53.6058C108.172 53.2817 108.246 52.8982 108.186 52.524L107.919 49.6157L105.316 49.8546L105.575 52.6364ZM109.084 49.4752L109.351 52.3835C109.362 52.7601 109.5 53.1218 109.744 53.4091C109.864 53.5209 110.008 53.6037 110.165 53.6512C110.322 53.6987 110.487 53.7096 110.649 53.683C110.811 53.6773 110.969 53.6321 111.11 53.5513C111.251 53.4705 111.369 53.3566 111.456 53.2194C111.637 52.8694 111.703 52.4712 111.646 52.0814L111.393 49.2715L109.084 49.4752Z" fill="#333333"/>
<path d="M104.067 64.1991L104.635 57.6591L113 58.3615L112.446 64.7821L111.295 64.6838L111.744 59.5557L109.316 59.345L108.93 63.7706L107.8 63.6652L108.186 59.2466L105.667 59.0289L105.21 64.2693L104.067 64.1991Z" fill="#333333"/>
<path d="M101.757 73.0574L102.066 71.9615L109.4 68.8636L103.421 67.1706L103.772 65.9132L111.856 68.2033L111.547 69.3132L104.228 72.4041L110.193 74.09L109.842 75.3474L101.757 73.0574Z" fill="#333333"/>
<path d="M97.8909 81.1286L100.824 75.2629L108.333 79.0282L105.449 84.7955L104.424 84.2968L106.726 79.6956L104.565 78.5856L102.579 82.5546L101.561 82.0418L103.547 78.0728L101.294 76.9419L98.9505 81.6414L97.8909 81.1286Z" fill="#333333"/>
<path d="M96.8942 82.6389L103.652 87.6335L99.8276 92.8178L98.9013 92.1153L101.954 87.9777L99.9961 86.5236L97.3574 90.0922L96.4451 89.3897L99.0767 85.8211L96.1433 83.6856L96.8942 82.6389Z" fill="#333333"/>
<path d="M94.4239 96.7166L89.3851 91.4902L90.3325 90.577L95.3713 95.8034L97.5889 93.696L98.3819 94.5179L92.9923 99.7303L92.1922 98.9013L94.4239 96.7166Z" fill="#333333"/>
<path d="M85.322 95.1994C85.9221 95.0074 86.5452 94.8964 87.1747 94.8693L87.0764 96.0564C86.5432 96.0603 86.0143 96.1528 85.5114 96.3304C84.9745 96.5172 84.4647 96.7747 83.9956 97.0961C83.5239 97.3888 83.1349 97.7975 82.8658 98.2833C82.7617 98.4579 82.7103 98.6589 82.7177 98.862C82.7252 99.0652 82.7912 99.2619 82.9079 99.4283C82.9735 99.5342 83.0616 99.6243 83.1659 99.6922C83.2702 99.7602 83.3881 99.8044 83.5114 99.8217C83.778 99.8479 84.047 99.8118 84.2974 99.7163C84.5711 99.611 84.9149 99.4705 85.336 99.2738L85.5536 99.1684C86.2032 98.8458 86.8855 98.5939 87.5887 98.4168C88.0085 98.2975 88.4532 98.2975 88.873 98.4168C89.2202 98.5601 89.5161 98.8049 89.7221 99.1192C89.9733 99.4374 90.1275 99.8214 90.166 100.225C90.2046 100.629 90.126 101.035 89.9397 101.395C89.5134 102.201 88.8875 102.883 88.1221 103.376C87.6325 103.704 87.0983 103.959 86.536 104.135C85.9665 104.319 85.3779 104.436 84.7816 104.486L84.929 103.306C85.392 103.256 85.8483 103.157 86.2904 103.011C86.7144 102.858 87.1176 102.653 87.4905 102.4C88.0049 102.087 88.4303 101.646 88.7256 101.121C88.826 100.937 88.8726 100.727 88.8602 100.518C88.8478 100.308 88.7768 100.106 88.6554 99.9341C88.5383 99.7536 88.3581 99.6233 88.1501 99.5688C87.8761 99.5251 87.5954 99.5542 87.3361 99.6531C86.8773 99.8044 86.4314 99.9923 86.0027 100.215C85.4975 100.458 84.9798 100.673 84.4518 100.861C84.0002 101.013 83.5201 101.058 83.0482 100.995C82.7953 100.955 82.554 100.861 82.3408 100.719C82.1276 100.577 81.9476 100.391 81.8131 100.173C81.5439 99.7847 81.4129 99.3171 81.4412 98.8453C81.4909 98.3378 81.675 97.8528 81.9745 97.4403C82.3565 96.9149 82.8324 96.4648 83.3781 96.1126C83.9749 95.7094 84.6307 95.4014 85.322 95.1994Z" fill="#333333"/>
<path d="M74.4935 101.536C75.2758 101.636 76.0135 101.957 76.621 102.461C77.2284 102.964 77.6807 103.63 77.9252 104.381C78.1919 105.132 78.2406 105.943 78.0655 106.72C77.8899 107.481 77.5032 108.178 76.9497 108.729C76.3359 109.319 75.5988 109.765 74.7917 110.035C73.9846 110.304 73.1276 110.391 72.2829 110.289C71.5109 110.187 70.7822 109.873 70.1776 109.382C69.5891 108.863 69.1491 108.196 68.9024 107.451C68.6558 106.705 68.6115 105.908 68.774 105.139C68.957 104.379 69.3427 103.682 69.8898 103.123C70.4957 102.529 71.2268 102.078 72.0295 101.803C72.8321 101.528 73.686 101.437 74.5286 101.536H74.4935ZM70.8092 103.861C70.419 104.269 70.1493 104.777 70.0302 105.329C69.9122 105.901 69.956 106.495 70.1565 107.043C70.3246 107.591 70.6447 108.08 71.0795 108.453C71.5143 108.826 72.046 109.068 72.6127 109.151C73.2256 109.232 73.8491 109.165 74.4303 108.954C75.0188 108.762 75.5529 108.432 75.9883 107.991C76.3844 107.587 76.6571 107.078 76.7743 106.523C76.8911 105.956 76.8498 105.368 76.655 104.823C76.4703 104.279 76.1432 103.793 75.7076 103.418C75.2775 103.043 74.749 102.799 74.1847 102.716C73.5719 102.634 72.9483 102.701 72.3671 102.913C71.7798 103.1 71.2457 103.425 70.8092 103.861Z" fill="#333333"/>
<path d="M65.2652 104.711C65.9925 105.472 66.4233 106.469 66.4793 107.521L67.0197 112.094L65.6793 112.255L65.1319 107.682C65.117 106.918 64.8281 106.185 64.3178 105.617C64.0396 105.412 63.7211 105.27 63.3835 105.198C63.0459 105.127 62.6969 105.128 62.3599 105.202C62.0142 105.209 61.674 105.29 61.3627 105.44C61.0513 105.59 60.7762 105.806 60.5563 106.073C60.1919 106.748 60.0799 107.53 60.2405 108.279L60.7879 112.852L59.4405 113.007L58.9001 108.441C58.7178 107.414 58.899 106.356 59.4124 105.448C59.9037 104.683 60.816 104.219 62.2195 104.043C63.6231 103.868 64.5634 104.092 65.2652 104.711Z" fill="#333333"/>
<path d="M49.0541 104.121L50.7174 104.24L53.2438 108.216L54.6473 108.314L54.928 104.521L56.2123 104.605L55.6298 113.035L51.5104 112.747C50.9903 112.72 50.4814 112.587 50.0156 112.354C49.638 112.14 49.3289 111.823 49.1243 111.44C48.9191 111.073 48.8286 110.652 48.8647 110.232C48.8918 109.822 49.0328 109.428 49.2717 109.094C49.5282 108.755 49.8729 108.492 50.2682 108.335C50.7312 108.159 51.2262 108.082 51.7209 108.111L49.0541 104.121ZM54.5982 109.466L51.7911 109.27C51.3981 109.214 50.9982 109.299 50.6612 109.509C50.5247 109.6 50.412 109.723 50.3327 109.868C50.2533 110.012 50.2096 110.173 50.2051 110.338C50.1866 110.497 50.2062 110.658 50.2623 110.809C50.3185 110.959 50.4095 111.093 50.5279 111.202C50.8387 111.444 51.2217 111.575 51.6156 111.574L54.4227 111.771L54.5982 109.466Z" fill="#333333"/>
<path d="M38.633 104.086L39.054 103.608C39.6509 103.072 40.3762 102.699 41.1594 102.526C41.9673 102.374 42.799 102.403 43.5945 102.61L43.8051 102.667C44.6121 102.882 45.3542 103.292 45.9665 103.861C46.5333 104.383 46.9459 105.052 47.1595 105.793C47.361 106.556 47.3554 107.36 47.1432 108.12C46.931 108.881 46.52 109.571 45.9525 110.12C45.3785 110.653 44.6658 111.014 43.8963 111.16C43.0635 111.318 42.2049 111.277 41.3909 111.04C40.4669 110.807 39.6261 110.32 38.9628 109.635C38.342 108.973 37.9359 108.138 37.7979 107.24L39.2014 107.612C39.3501 108.168 39.6544 108.67 40.0786 109.059C40.5384 109.481 41.0953 109.783 41.6997 109.937C42.2925 110.111 42.9181 110.14 43.5243 110.022C44.0786 109.908 44.5895 109.64 44.9981 109.249C45.4155 108.847 45.7121 108.336 45.8542 107.774C46.0096 107.221 46.0217 106.639 45.8893 106.081C45.7419 105.544 45.4507 105.058 45.0472 104.676C44.6096 104.268 44.0835 103.967 43.5103 103.798L43.3068 103.741C42.7209 103.595 42.1103 103.579 41.5173 103.692C40.9552 103.79 40.4403 104.069 40.0506 104.486L38.633 104.086Z" fill="#333333"/>
<path d="M36.5908 101.29C36.7611 102.323 36.5596 103.383 36.0224 104.282L33.917 108.371L32.717 107.745L34.8223 103.657C35.2375 103.015 35.4093 102.245 35.3066 101.486C35.1889 101.16 35.0027 100.863 34.7606 100.614C34.5185 100.366 34.2261 100.172 33.903 100.046C33.6151 99.8603 33.291 99.7379 32.9522 99.687C32.6134 99.6361 32.2677 99.658 31.938 99.7512C31.2567 100.101 30.7237 100.685 30.4362 101.395L28.3309 105.483L27.1309 104.858L29.2362 100.77C29.6596 99.8182 30.4052 99.0469 31.3415 98.5921C32.1696 98.2362 33.1989 98.3767 34.4293 99.0136C35.6598 99.6505 36.3803 100.409 36.5908 101.29Z" fill="#333333"/>
<path d="M21.9866 99.7023L26.4429 93.9772L27.4815 94.785L23.0252 100.51L25.4534 102.407L24.7516 103.313L18.8427 98.7048L19.5444 97.7986L21.9866 99.7023Z" fill="#333333"/>
<path d="M21.9586 90.549C22.1691 91.3026 22.1691 92.0995 21.9586 92.8531C21.7199 93.6103 21.2817 94.2892 20.6902 94.8183C20.0987 95.3474 19.3756 95.7071 18.5971 95.8597C17.8265 95.9919 17.0343 95.9068 16.3093 95.6138C15.5285 95.2839 14.8306 94.7844 14.2663 94.1515C13.7019 93.5185 13.2851 92.7679 13.0461 91.9539C12.8336 91.203 12.8336 90.4078 13.0461 89.6568C13.2848 88.8996 13.723 88.2207 14.3145 87.6916C14.906 87.1625 15.6291 86.8028 16.4076 86.6503C17.1775 86.5158 17.9697 86.5985 18.6954 86.8891C19.4868 87.2024 20.1901 87.7039 20.7445 88.3502C21.3173 88.9767 21.7334 89.7302 21.9586 90.549ZM18.3796 88.0552C17.8542 87.8534 17.2831 87.8023 16.7304 87.9077C16.1617 88.0309 15.6346 88.2995 15.2005 88.6873C14.7663 89.0751 14.44 89.5689 14.2531 90.1205C14.0985 90.6599 14.0985 91.2319 14.2531 91.7713C14.4272 92.3641 14.731 92.9106 15.1425 93.3712C15.554 93.8317 16.0629 94.1947 16.6321 94.4337C17.1578 94.6433 17.7321 94.6994 18.2883 94.5952C18.8539 94.4685 19.3775 94.1985 19.8088 93.811C20.2401 93.4235 20.5648 92.9316 20.7516 92.3824C20.9099 91.8412 20.9099 91.2658 20.7516 90.7246C20.5793 90.1301 20.2763 89.5817 19.8646 89.1197C19.4529 88.6578 18.9431 88.2941 18.3725 88.0552H18.3796Z" fill="#333333"/>
<path d="M12.5058 76.1692L6.80738 79.2601L13.1234 79.1196L13.7479 80.2717L10.1759 85.47L15.8884 82.3791L16.5059 83.5241L9.12324 87.5282L8.28111 85.9687L12.0918 80.4332L5.36874 80.5878L4.52661 79.0283L11.9163 75.0242L12.5058 76.1692Z" fill="#333333"/>
<path d="M9.34076 66.5032L11.1794 72.8254L3.116 75.1647L1.30542 68.9689L2.41423 68.6528L3.85287 73.5701L6.1968 72.8676L4.94764 68.6457L6.04241 68.3226L7.28455 72.5866L9.7127 71.8841L8.23897 66.8333L9.34076 66.5032Z" fill="#333333"/>
<path d="M8.2599 57.6028L8.42131 59.2325L4.96857 62.4218L5.12296 63.8267L8.90553 63.4333L9.04589 64.7118L0.701773 65.6461L0.245619 61.5296C0.177111 61.0137 0.220191 60.489 0.371938 59.9912C0.497723 59.5748 0.741504 59.2039 1.07371 58.9234C1.40019 58.658 1.79861 58.4965 2.21761 58.4598C2.62438 58.4082 3.03728 58.4792 3.40361 58.6635C3.78339 58.852 4.10212 59.1443 4.32294 59.5065C4.58261 59.9349 4.74772 60.4139 4.80716 60.9114L8.2599 57.6028ZM3.97907 64.0093L3.6773 61.1995C3.66085 60.8016 3.50708 60.4218 3.2422 60.1247C3.12788 60.008 2.98735 59.9203 2.83232 59.869C2.67728 59.8176 2.51224 59.8042 2.35095 59.8296C2.18881 59.838 2.03117 59.8859 1.89174 59.9691C1.75231 60.0524 1.63531 60.1685 1.55092 60.3073C1.3884 60.6506 1.33688 61.0362 1.40355 61.4102L1.71233 64.2201L3.97907 64.0093Z" fill="#333333"/>
<path d="M8.19677 55.067C7.98027 55.658 7.68267 56.216 7.31254 56.7249L6.44233 55.917C6.77047 55.4948 7.0244 55.0197 7.19323 54.5121C7.37789 53.9743 7.49114 53.4146 7.53009 52.8472C7.5948 52.2954 7.51499 51.7361 7.2985 51.2245C7.23003 51.0293 7.10568 50.8586 6.94095 50.7337C6.77622 50.6088 6.5784 50.5352 6.37216 50.522C6.24525 50.5042 6.11595 50.5158 5.99426 50.556C5.87256 50.5962 5.76174 50.6639 5.67038 50.7538C5.48406 50.9535 5.34706 51.1941 5.27037 51.4563C5.17914 51.7303 5.08089 52.0956 4.9686 52.5381L4.91246 52.791C4.75679 53.5037 4.52138 54.1964 4.21069 54.8563C4.04116 55.2584 3.76136 55.6043 3.40364 55.8538C3.07024 56.0386 2.68754 56.1148 2.30887 56.0716C1.91427 56.0607 1.53066 55.9391 1.20182 55.7205C0.87299 55.5019 0.612181 55.1951 0.449165 54.8352C0.072475 54.0039 -0.0822798 53.089 2.85208e-05 52.1799C0.0467858 51.5931 0.176748 51.0159 0.386005 50.4658C0.596236 49.9052 0.869336 49.3702 1.20007 48.8712L2.03518 49.7142C1.78129 50.1069 1.57626 50.5292 1.42463 50.9716C1.27738 51.398 1.1877 51.8421 1.15796 52.2923C1.08101 52.9029 1.16572 53.5231 1.40358 54.0906C1.48299 54.2882 1.61684 54.4591 1.78954 54.5835C1.96223 54.7078 2.16667 54.7805 2.37905 54.7931C2.59219 54.8163 2.80602 54.7559 2.97556 54.6245C3.18205 54.4333 3.33455 54.191 3.41768 53.922C3.58519 53.4653 3.71429 52.9953 3.80365 52.5171C3.92308 51.9682 4.07302 51.4265 4.25279 50.8943C4.41589 50.4409 4.68265 50.032 5.03176 49.7001C5.21766 49.5249 5.43967 49.3926 5.68216 49.3125C5.92465 49.2324 6.18173 49.2064 6.43532 49.2365C6.90814 49.2633 7.35812 49.4489 7.71255 49.7634C8.08735 50.1201 8.35892 50.5715 8.49854 51.07C8.67879 51.6897 8.74069 52.338 8.681 52.9807C8.62921 53.6972 8.46583 54.4011 8.19677 55.067Z" fill="#333333"/>
<path d="M4.21056 36.2758C4.73599 35.7146 5.4103 35.315 6.15448 35.1237C6.90737 34.9458 7.69601 34.9947 8.42122 35.2642C9.16666 35.5053 9.82532 35.9595 10.316 36.5708C10.787 37.1806 11.0764 37.9111 11.1511 38.6782C11.2386 39.5245 11.1331 40.3796 10.8423 41.179L9.74056 44.4104L1.8175 41.6708L2.92631 38.4394C3.18413 37.6297 3.6234 36.8896 4.21056 36.2758ZM10.0002 38.9452C9.94413 38.399 9.72943 37.8813 9.38265 37.4559C9.01241 37.0211 8.52528 36.7017 7.9791 36.5357C7.45348 36.3429 6.88388 36.3039 6.33694 36.4233C5.80071 36.5425 5.31209 36.8188 4.93339 37.2171C4.49997 37.6719 4.17594 38.2197 3.98599 38.8187L3.28422 40.8138L9.12299 42.7877L9.82477 40.7857C10.025 40.1941 10.0874 39.5646 10.0072 38.9452H10.0002Z" fill="#333333"/>
<path d="M16.5339 29.3985L13.2706 35.1237L5.98621 30.9089L9.18631 25.2891L10.1898 25.8651L7.62836 30.3469L9.73369 31.5622L11.9303 27.7126L12.9127 28.2816L10.7092 32.1312L12.8987 33.3886L15.5374 28.8014L16.5339 29.3985Z" fill="#333333"/>
<path d="M18.1338 27.0031C17.6114 27.3534 17.042 27.6278 16.4425 27.8179L16.211 26.694C16.714 26.5382 17.1882 26.3009 17.6145 25.9915C18.0814 25.6662 18.5016 25.2786 18.8637 24.8394C19.2501 24.4251 19.5212 23.9164 19.6497 23.3643C19.7027 23.1672 19.6978 22.9589 19.6356 22.7646C19.5733 22.5702 19.4564 22.3979 19.2988 22.2684C19.2049 22.1834 19.0929 22.1209 18.9713 22.0856C18.8497 22.0503 18.7217 22.0432 18.597 22.0647C18.3409 22.1113 18.1 22.2198 17.8952 22.3808C17.6566 22.5494 17.3689 22.7882 17.018 23.0833L16.8355 23.2448C16.2985 23.7331 15.7103 24.1618 15.0811 24.5233C14.7063 24.7481 14.2758 24.8626 13.839 24.8535C13.4632 24.804 13.1111 24.6424 12.8284 24.3899C12.5043 24.1539 12.2542 23.8303 12.1075 23.457C11.9608 23.0836 11.9236 22.6762 12.0003 22.2824C12.188 21.3905 12.6039 20.5626 13.2074 19.88C13.5867 19.4296 14.0314 19.0389 14.5267 18.7209C15.0292 18.3764 15.5711 18.0934 16.1408 17.8779L16.3232 19.0581C15.8877 19.2273 15.4732 19.4466 15.0881 19.7114C14.7229 19.9724 14.3927 20.2793 14.1056 20.6246C13.6887 21.0649 13.3958 21.6078 13.2565 22.1981C13.2125 22.4025 13.2259 22.615 13.2953 22.8122C13.3646 23.0094 13.4873 23.1834 13.6495 23.3151C13.8131 23.4561 14.0232 23.5312 14.239 23.5258C14.5153 23.4914 14.7785 23.3875 15.0039 23.2238C15.3996 22.9519 15.7749 22.6514 16.1267 22.3246C16.5457 21.9502 16.9862 21.6007 17.4461 21.2779C17.8413 21.0041 18.296 20.8284 18.7724 20.7651C19.0249 20.7341 19.2812 20.7583 19.5234 20.8359C19.7657 20.9135 19.9884 21.0427 20.176 21.2147C20.535 21.5186 20.7821 21.934 20.8778 22.3948C20.9676 22.8937 20.9241 23.4075 20.7514 23.8841C20.5322 24.4926 20.2014 25.0549 19.776 25.5419C19.3086 26.1123 18.7545 26.6053 18.1338 27.0031Z" fill="#333333"/>
<path d="M28.3379 17.2247L23.3132 21.4396L17.9165 14.9979L22.8289 10.8533L23.5307 11.7314L19.6499 15.047L21.2149 16.9156L24.6114 14.0495L25.3132 14.9206L21.9166 17.7797L23.5377 19.7115L27.5659 16.3326L28.3379 17.2247Z" fill="#333333"/>
<path d="M36.0715 12.6446L34.6259 13.4736L30.317 11.5769L29.0678 12.2794L30.9485 15.581L29.8327 16.2273L25.6221 8.9426L29.2011 6.87733C29.6473 6.6091 30.1444 6.43685 30.6608 6.37155C31.0911 6.31897 31.5274 6.39216 31.917 6.58229C32.293 6.77228 32.6035 7.07082 32.8083 7.43931C33.0145 7.79493 33.1166 8.20146 33.103 8.61244C33.0906 9.0479 32.9569 9.47124 32.717 9.83475C32.434 10.2424 32.0651 10.5829 31.6363 10.8323L36.0715 12.6446ZM28.4923 11.2959L30.9415 9.89094C31.2984 9.71667 31.5837 9.42364 31.7486 9.06202C31.8093 8.90951 31.8333 8.74483 31.8186 8.58131C31.804 8.41779 31.7512 8.26001 31.6644 8.12071C31.589 7.97196 31.4775 7.84451 31.3402 7.75001C31.2029 7.65552 31.0441 7.597 30.8784 7.5798C30.4842 7.55316 30.0922 7.65682 29.7625 7.87484L27.3134 9.27979L28.4923 11.2959Z" fill="#333333"/>
<path d="M41.2854 10.7337L40.0012 11.1763L33.7413 4.46065L35.1449 3.98297L40.1696 9.49037L40.6959 2.04414L42.0504 1.57349L41.2854 10.7337Z" fill="#333333"/>
<path d="M52.7105 8.29622L46.2331 9.28671L44.9629 0.969414L51.335 0L51.5105 1.13801L46.4226 1.91073L46.7945 4.32724L51.1736 3.62477L51.3491 4.74873L46.963 5.4512L47.3419 7.95201L52.5421 7.15821L52.7105 8.29622Z" fill="#333333"/>
<path d="M55.0543 8.16961C54.949 8.08499 54.8635 7.97818 54.8041 7.85676C54.7447 7.73535 54.7127 7.60232 54.7104 7.46713C54.7123 7.3353 54.7405 7.20518 54.7936 7.0845C54.8466 6.96382 54.9234 6.85505 55.0192 6.76466C55.2391 6.56249 55.5278 6.45194 55.8263 6.45557C56.1168 6.44429 56.4006 6.54484 56.6193 6.73656C56.7194 6.82929 56.7993 6.94175 56.854 7.06687C56.9086 7.19199 56.9368 7.32707 56.9368 7.46362C56.9368 7.60017 56.9086 7.73525 56.854 7.86037C56.7993 7.98549 56.7194 8.09795 56.6193 8.19068C56.407 8.39153 56.1253 8.5023 55.8333 8.49977C55.5413 8.49199 55.2631 8.37406 55.0543 8.16961Z" fill="#333333"/>
<path d="M32.801 68.8425L29.5799 68.1401L29.1798 68.5545L31.201 70.4863L30.1202 71.6524L24.3727 66.1661L25.8955 64.5715C27.3552 63.0401 28.5412 62.8083 29.7553 63.9674L30.0571 64.2554C30.4459 64.5428 30.7123 64.9662 30.8034 65.4413C30.8944 65.9164 30.8033 66.4085 30.5483 66.8194L34.0572 67.5219L32.801 68.8425ZM28.6675 67.2269C29.4535 66.405 29.4114 65.9273 28.864 65.4074L28.6746 65.2178C28.1272 64.705 27.6991 64.5856 26.857 65.4707L26.3938 65.9554L28.2184 67.6975L28.6675 67.2269Z" fill="#333333"/>
<path d="M32.5032 57.6559L29.03 61.3003L29.9237 62.1537L33.3969 58.5093L32.5032 57.6559Z" fill="#333333"/>
<path d="M34.9204 64.7541L33.4116 63.307L35.4467 61.1715L34.5204 60.2864L31.3975 63.5599L34.78 66.7843L38.3591 63.026L37.4257 62.1339L34.9204 64.7541Z" fill="#333333"/>
<path d="M36.1767 53.8096L39.7066 57.1815L34.5275 55.5447L33.4468 56.6757L39.1873 62.148L40.261 61.024L36.8153 57.7294L41.9383 59.2608L42.9839 58.165L37.2504 52.6857L36.1767 53.8096Z" fill="#333333"/>
<path d="M42.3242 55.4956L39.896 53.1704C38.6749 52.0113 38.7381 50.9506 40.1908 49.4192C41.6435 47.8878 42.7523 47.7332 43.9734 48.8923L46.4015 51.2807C47.5875 52.4117 47.4893 53.5778 46.0576 55.0811C44.626 56.5844 43.5102 56.6547 42.3242 55.4956ZM45.2646 52.2993L42.9417 50.0795C42.4154 49.5807 41.9382 49.377 41.1031 50.2902C40.268 51.2034 40.5066 51.5898 41.0259 52.0886L43.3558 54.3084C43.9032 54.8282 44.3593 54.9687 45.1453 54.1468C45.9313 53.3249 45.8471 52.8191 45.2646 52.2993Z" fill="#333333"/>
<path d="M47.2716 42.1697L51.384 49.363L50.2541 50.5432L42.8855 46.7709L43.9873 45.6118L49.0401 48.2531L46.1628 43.3358L47.2716 42.1697Z" fill="#333333"/>
<path d="M51.349 37.8725L47.8759 41.517L48.7696 42.3704L52.2427 38.7259L51.349 37.8725Z" fill="#333333"/>
<path d="M53.77 44.9795L52.2542 43.5324L54.2963 41.3898L53.37 40.5117L50.2471 43.7853L53.6296 47.0096L57.2087 43.2514L56.2683 42.3522L53.77 44.9795Z" fill="#333333"/>
<path d="M55.7721 33.2333L52.299 36.8777L53.1926 37.7311L56.6658 34.0866L55.7721 33.2333Z" fill="#333333"/>
<path d="M58.1914 40.336L56.6755 38.8889L58.7177 36.7534L57.7914 35.8683L54.6685 39.1418L58.051 42.3662L61.6301 38.6079L60.6897 37.7158L58.1914 40.336Z" fill="#333333"/>
<path d="M59.4474 29.3914L62.9774 32.7633L57.7912 31.1265L56.7175 32.2575L62.4581 37.7298L63.5318 36.6058L60.079 33.3112L65.202 34.8426L66.2547 33.7468L60.5212 28.2675L59.4474 29.3914Z" fill="#333333"/>
<path d="M65.595 31.1056L63.1598 28.8015C61.9387 27.6424 61.9949 26.5817 63.4546 25.0503C64.9143 23.5189 66.0161 23.3643 67.2301 24.5234L69.6653 26.8486C70.8513 27.9796 70.753 29.1457 69.3214 30.649C67.8898 32.1523 66.774 32.2577 65.588 31.1267L65.595 31.1056ZM68.5284 27.9304L66.1985 25.7106C65.6792 25.2118 65.202 25.0081 64.3669 25.9213C63.5318 26.8346 63.7704 27.2209 64.2897 27.7197L66.6196 29.9395C67.16 30.4593 67.6231 30.5998 68.4091 29.7779C69.1951 28.956 69.1109 28.4573 68.5284 27.9304Z" fill="#333333"/>
<path d="M80.2059 44.1435L83.4271 44.846L83.8271 44.4245L81.806 42.4927L82.8867 41.3617L88.6273 46.848L87.1044 48.4426C85.6517 49.967 84.4587 50.1988 83.2446 49.0397L82.9429 48.7517C82.5532 48.4666 82.2859 48.0444 82.1948 47.57C82.1036 47.0955 82.1954 46.6041 82.4516 46.1947L78.9427 45.4922L80.2059 44.1435ZM84.3324 45.7662C83.5534 46.5881 83.5885 47.0658 84.1359 47.5856L84.3324 47.7683C84.8728 48.2881 85.3079 48.4005 86.143 47.5224L86.6061 47.0377L84.7815 45.2956L84.3324 45.7662Z" fill="#333333"/>
<path d="M83.0767 50.8517L79.6035 54.4961L80.4972 55.3495L83.9704 51.7051L83.0767 50.8517Z" fill="#333333"/>
<path d="M78.0797 48.239L79.5955 49.6861L77.5604 51.8287L78.4797 52.7067L81.6026 49.4402L78.2271 46.2089L74.641 49.9671L75.5814 50.8663L78.0797 48.239Z" fill="#333333"/>
<path d="M76.8235 59.1836L73.2935 55.8187L78.4797 57.4485L79.5534 56.3245L73.8199 50.8452L72.7461 51.9762L76.1919 55.2638L71.0689 53.7324L70.0162 54.8353L75.7497 60.3146L76.8235 59.1836Z" fill="#333333"/>
<path d="M70.676 57.4764L73.1041 59.7945C74.3252 60.9606 74.2691 62.0214 72.8094 63.5528C71.3497 65.0842 70.2479 65.2387 69.0338 64.0726L66.5987 61.7544C65.4127 60.6234 65.5109 59.4573 66.9425 57.947C68.3742 56.4367 69.49 56.3454 70.676 57.4764ZM67.7355 60.6726L70.0654 62.8924C70.5848 63.3912 71.062 63.5949 71.9041 62.6817C72.7462 61.7685 72.4936 61.3821 71.9743 60.8834L69.6514 58.6635C69.104 58.1437 68.6408 57.9611 67.8548 58.8181C67.0689 59.6751 67.1531 60.1458 67.7355 60.6726Z" fill="#333333"/>
<path d="M65.7355 70.8234L61.6161 63.6371L62.7459 62.4569L70.1216 66.2222L69.0128 67.3812L63.96 64.747L66.8443 69.6643L65.7355 70.8234Z" fill="#333333"/>
<path d="M64.2307 70.628L60.7576 74.2725L61.6513 75.1259L65.1244 71.4814L64.2307 70.628Z" fill="#333333"/>
<path d="M59.2298 68.0207L60.7457 69.4678L58.7105 71.6034L59.6369 72.4885L62.7528 69.215L59.3772 65.9906L55.7911 69.7488L56.7315 70.641L59.2298 68.0207Z" fill="#333333"/>
<path d="M59.8125 75.2622L56.3394 78.9066L57.2331 79.76L60.7062 76.1156L59.8125 75.2622Z" fill="#333333"/>
<path d="M54.8087 72.664L56.3245 74.1041L54.2894 76.2466L55.2157 77.1318L58.3316 73.8582L54.9561 70.6268L51.37 74.3851L52.3104 75.2842L54.8087 72.664Z" fill="#333333"/>
<path d="M53.5595 83.6013L50.0296 80.2365L55.2087 81.8662L56.2824 80.7422L50.5489 75.2629L49.4751 76.3939L52.9209 79.6815L47.7979 78.1501L46.7452 79.253L52.4858 84.7323L53.5595 83.6013Z" fill="#333333"/>
<path d="M47.4051 81.8943L49.8402 84.2125C51.0543 85.3786 50.9981 86.4393 49.5385 87.9707C48.0788 89.5021 46.984 89.6567 45.7629 88.4906L43.3347 86.1724C42.1487 85.0344 42.247 83.8753 43.6786 82.372C45.1102 80.8687 46.2191 80.7633 47.4051 81.8943ZM44.4716 85.0836L46.7945 87.3104C47.3138 87.8092 47.791 87.9777 48.6332 87.0996C49.4753 86.2216 49.2297 85.8001 48.7033 85.3013L46.3805 83.0815C45.8331 82.5617 45.3699 82.379 44.5909 83.236C43.812 84.0931 43.9242 84.5637 44.4716 85.0836Z" fill="#333333"/>
<path d="M88.0801 24.0386L27.173 87.9497" stroke="#333333" stroke-miterlimit="10"/>
</g>
<defs>
<clipPath id="clip0">
<rect width="113" height="113" fill="white"/>
</clipPath>
</defs>
</svg>
