<svg xmlns="http://www.w3.org/2000/svg" viewBox="0 0 156.14 91.13"><defs><style>.cls-1{fill:#595859}</style></defs><g id="Layer_2" data-name="Layer 2"><g id="Layer_2-2" data-name="Layer 2"><path class="cls-1" d="M31.41 77.6a18.92 18.92 0 00-.41 4.71V83l.72.08.69.06c2.47.17 14.87.62 14.87.62l14.85 1a20.41 20.41 0 005.16-.07 2.61 2.61 0 00-.12.58 5.41 5.41 0 000 .8 1 1 0 00.08.3 1.13 1.13 0 00.15.21 3.17 3.17 0 01.49.58 1.11 1.11 0 00.27-.12 28.13 28.13 0 006.44 1.23c3.14.27 18.86 1.18 18.86 1.18l18.82 1.5a31 31 0 007 .07c-2.38-.71-4-.63-6.93-.87-3.13-.26-18.81-1.66-18.81-1.66s-15.66-1.6-18.8-1.83a27.7 27.7 0 00-6.27.16 1.12 1.12 0 00.33-.87c0-.14-.07-.43-.09-.63a1.31 1.31 0 010-.28A27.64 27.64 0 0075 86.1c3.06.22 18.43.91 18.43.91s15.34 1 18.4 1.24a28.77 28.77 0 006.83 0c-2.33-.68-4-.57-6.77-.77-3.07-.22-18.4-1.41-18.4-1.41S78.17 84.7 75.11 84.5a28.08 28.08 0 00-6.36.28l.06-.08s0-.06.1-.07a2.23 2.23 0 01.34-.12l.32-.08h.29a1.2 1.2 0 00.19-.07 2.4 2.4 0 00.29-.19l.06-.17.06-.07a1.34 1.34 0 00.16-.37 2 2 0 000-.69 1.14 1.14 0 01.08-.76 26.78 26.78 0 006.3 1c3 .21 18 .83 18 .83s15 1 18 1.16a28 28 0 006.69-.06 13.72 13.72 0 00-1.46-.34c.54 0 1.11-.1 1.72-.2-2.27-.66-3.85-.54-6.62-.72-3-.2-18-1.28-18-1.28s-15-1.28-18-1.45a25.62 25.62 0 00-4.38.08c0-.09-.28-.55-.28-.55v-.52c0-.09 0-.12-.46-.23s-.32.09-.34.17-.2.5-.2.5a3.13 3.13 0 00-.23.26h-.2a1.59 1.59 0 00-.73.25h-.06l-.13.1-.08.06-.09.11a2.35 2.35 0 00-.19.25c0 .1-.08.19-.13.29a1.76 1.76 0 00-.07.33v.62a1 1 0 010 .38l-.08.07h-.53a4.12 4.12 0 00-.53 0 1.75 1.75 0 00-.37.12h-.15a.53.53 0 00-.14.1 2 2 0 00-.51.72 21 21 0 00-5.16-.58l-14.92-.81S35 81.63 32.54 81.49a18.62 18.62 0 00-1-3.88h.19a17.69 17.69 0 004.41.57h15.4l1.43.08 4.52.26c1.7.1 3.48.16 5 .29l3.36.26a18.7 18.7 0 005.51-.05c-1.86-.66-3.17-.55-5.45-.74l-3.36-.3c-1.5-.14-3.29-.23-5-.35L53 77.4l-1.44-.09h-.54l-6.51-.37-2.57-.15c-.85 0-1.67-.05-2.43-.08-1.51 0-2.76-.07-3.38-.07a17.12 17.12 0 00-4.24.45l-.19-.63a15.09 15.09 0 00.52-3.9c0-2.28-.24-13.7-.24-13.7S32 47.42 32 45.14a17 17 0 00-.38-4.81c.21 0 .38-.07.61-.46l-.06-.09A24.84 24.84 0 0037 36.54c1.13-1 4.49-3.89 7.47-6.69l5.72-5.3 5.75-5.28c3-2.74 6.22-5.84 7.29-6.86a26.67 26.67 0 004.42-4.9c-2 1.21-3 2.44-5 4.32-1.08 1-4.3 4.09-7.35 6.79l-5.78 5.22-5.94 5c-3.09 2.66-6.55 5.46-7.67 6.43a24.7 24.7 0 00-4 4.22 2.55 2.55 0 00-.48 0c-.37 0-2.2-.22-2.2-.22s-.88-.19-1.54-.3a30.38 30.38 0 004.9-3.58L34 34.24c.57-.51 1.25-1.11 1.95-1.81l4.73-4.58 4.27-4.18 1.85-1.83L61 8.38a32.75 32.75 0 004.9-5.32c-2.18 1.35-3.28 2.68-5.47 4.74L46.09 21.14l-6.35 5.76-4.88 4.41c-.73.68-1.42 1.26-2 1.76l-1.34 1.16a30.15 30.15 0 00-4.34 4.7h-.13a.79.79 0 00-.22 0l.18.18-.05.06-.15-.08c-.39.22-.65.38-.75.6l-.15.3.29.15a1 1 0 00-.08.36c0 .37.16 1.77.26 2.51a5 5 0 01-.51.08c-.52 0-3.1.1-3.1.1h-.46a10.56 10.56 0 00.12-1.27 1.18 1.18 0 00-.51-.92 38.73 38.73 0 006.33-4.8c2.68-2.47 15.83-15.11 15.83-15.11l16-14.87A40.22 40.22 0 0065.73.4c-2.41 1.53-3.66 3-6.14 5.26L43.43 20.4S29.82 32.54 27.16 35a39.47 39.47 0 00-5.28 6l-.23-.19c-.53.39-.81.66-.83 1.13 0 .28.08 1.19.16 1.88l.09.76.59-.13h.14a1.4 1.4 0 001.06.63c.57 0 3.42-.25 3.42-.25s2.85.09 3.42.09a1.28 1.28 0 001.23-.42 1 1 0 00.31-.15v.82c0 2.28-.25 13.7-.25 13.7s-.43 11.41-.43 13.69a15.86 15.86 0 00.78 5.07c0-.06 0-.12.05-.17v.16zm-4.87-33.75h-.08.08zm.64-4.53l.07.07-.08-.06zm4.26 1h.09a11.59 11.59 0 00-.29 3.53c-.26-.23-.53-.14-.91-.2l-2.84-.55c.1-.72.27-2.19.26-2.57.66-.08 1.49-.22 1.49-.22s1.83.02 2.2.02zm40.75 40.92l-.44.06.18-.12zm-1.27.56a.83.83 0 01.16-.13.71.71 0 01.18-.08l.38.1z"/><path class="cls-1" d="M57.8 58.46v-7a4.47 4.47 0 00-.46-2.6 2.05 2.05 0 00-.19.4 24.24 24.24 0 00-6.11-.55c-1.25 0-4.65.21-8.4.4h-.67v.64c0 4.21.11 8.8.11 8.8s0 3.73-.1 8.78v.47h.48l8.42.26a25.44 25.44 0 006.22-.26l.15.27a4.74 4.74 0 00.83-2.59c.03-1.15-.28-7.02-.28-7.02zM53.51 52a5.48 5.48 0 00-.21-1.85c.68-.08 1.31-.18 1.93-.31a6.33 6.33 0 00-.1 2c0 .47 0 1.75-.06 3.07h-1.52c-.01-1.23-.03-2.46-.04-2.91zm-3.14 3h-.13v-2.9a6 6 0 00-.24-1.77h.41a7.7 7.7 0 000 1.82c-.01.43-.02 1.59-.04 2.85zm2 10.33a3.84 3.84 0 00.59 2h-1.89a3.71 3.71 0 00.58-2.06c0-.53-.09-2.07-.19-3.52h1c-.04 1.43-.1 3-.08 3.54zm-6.2-6.49v-2.47l1.45-.14c0 1.41-.08 2.67-.08 2.67s0 .72-.11 1.69l-1.06-.07c-.12-1-.19-1.72-.19-1.72zm2.29-2.7l.89-.1v2.69s0 .87-.1 2h-.65c-.06-1-.11-1.77-.11-1.77s-.02-1.41-.02-2.86zm2.18 11.17h-.46c.07-.15.15-.3.21-.44a4.23 4.23 0 00.26.4zm-1.58-2a3.86 3.86 0 00.54 1.93l-1.41-.06a3.56 3.56 0 00.58-2c0-.51-.07-2-.15-3.43h.55c-.06 1.46-.11 3.02-.1 3.55zm-1.91-.09a3.58 3.58 0 00.55 1.94l-1.48-.06a3.67 3.67 0 00.44-1.85c0-.49-.11-1.92-.22-3.31h.86c-.07 1.32-.15 2.77-.14 3.27zm-2.11.07a3.47 3.47 0 00.5 1.78L42.9 67c.05-2.17.09-4.07.11-5.51a2.58 2.58 0 001.61.58h.49c-.05 1.31-.11 2.72-.06 3.21zM43.16 56a2.72 2.72 0 001.56.44h.51v2.42s0 .67-.06 1.58h-.54A2.6 2.6 0 0043 61v-2.41s.11-1.07.16-2.59zm0-.67l.17-4.89h1.95a5.27 5.27 0 00-.07 2v2.43h-.57a2.61 2.61 0 00-1.46.46zm2.54-4.93h2.16a4.27 4.27 0 00-.2 2.14c0 .38 0 1.32-.06 2.36h-1.53c0-1.08-.05-2.07-.06-2.46a4.6 4.6 0 00-.29-2.04zm2.39 0h1.29a10 10 0 000 1.74v2.85h-.9V52.6a4 4 0 00-.37-2.23zm2.24 5.54c0 1.47-.05 2.78-.05 2.78v.18a1.49 1.49 0 000-.19v-2.76zm.89 0h1.43v2.8l-.11 2.18h-1.11c-.08-1.18-.14-2.11-.14-2.11s-.03-1.45-.05-2.93zm2.32-.07l1.49-.06c0 1.52-.07 2.89-.07 2.89s-.06 1-.13 2.25h-1.1c-.09-1.23-.16-2.23-.16-2.23s.01-1.42-.01-2.91zm2.38-.1a2.69 2.69 0 001-.2c0 1.56-.09 3-.09 3s-.08 1.19-.16 2.6a1.49 1.49 0 00-.61-.19c-.07-1.24-.13-2.23-.13-2.23zm1.15 12a12.71 12.71 0 00-1.37-.27 4 4 0 00.56-2.07c0-.56-.08-2.25-.16-3.8a1.66 1.66 0 00.54-.23c-.09 1.65-.19 3.5-.19 4.11a4.32 4.32 0 00.64 2.24zm-3.65-.42a3.89 3.89 0 00.58-2.08c0-.53-.1-2.1-.2-3.57h1c-.08 1.52-.16 3.16-.15 3.71a3.93 3.93 0 00.54 2c-.57-.04-1.14-.07-1.75-.08zm-.69-17.15a8.15 8.15 0 000 1.8v3h-1.5v-2.83A5.42 5.42 0 0051 50.3h.13c.58-.02 1.11-.06 1.6-.1zm4.4-.83a7.1 7.1 0 00-.13 2.06c0 .53 0 2-.1 3.51a2.39 2.39 0 00-1 0v-3a4.75 4.75 0 00-.29-2.12c.51-.19 1-.31 1.52-.45zm60.03 31.37zm-7.5-4.4a7 7 0 00.79-3.29c0-1.47-.4-8.87-.4-8.87s0-7.4-.07-8.88a7.05 7.05 0 00-.45-3.14l.17-.06-.21-.05a16.86 16.86 0 00-5.09-.41l-2.69.2-.76.06v.73c.06 3.34.23 11.59.23 11.59l-.09 11.41v.44h.43l1.86.18h1.06a21.67 21.67 0 002.81 0 9.53 9.53 0 002.2-.47c.06.22.14.39.21.56zm-.25-24.14a7.65 7.65 0 00-.22 3.11c0 1.48-.1 8.88-.1 8.88s-.29 7.4-.26 8.88a6.58 6.58 0 00.55 2.63 44.11 44.11 0 00-4.91-.16c-.23 0-.57 0-1-.06l-1.51-.16c.08-3.9.22-11.09.22-11.09s.24-7.17.36-10.85l2-.12a16.9 16.9 0 004.87-1.06zm26.51 12.51a3.48 3.48 0 00.43 2.11.3.3 0 01-.16 0c0 .25.29.45.56.48a.86.86 0 00.44 0l.12-.06h.12a2.33 2.33 0 00.27-.35 2.62 2.62 0 00.15-.39c0-.12.06-.29.07-.37v-.35c0-1-.35-6-.35-6v-6a3.34 3.34 0 00-.49-2.2 2 2 0 00-.2.38c0-.13-.08-.25-.13-.37l.25-.13a6.86 6.86 0 00-.79-.56l-.24-.14-.3.64a3.15 3.15 0 00-.3 1.4c0 1 .37 6 .37 6s.17 4.9.18 5.91zm.68 1.91a.21.21 0 010 .06 1.22 1.22 0 00.07-.17.2.2 0 01-.07.11zm-3.36.94a4.18 4.18 0 01-.48-2.51v-6.78s-.34-5.65-.33-6.77a3.8 3.8 0 01.29-1.51l.32-.78.35.28a7.24 7.24 0 01.81.78l-.31.07a4 4 0 01.16 1.15c0 1.13-.33 6.78-.33 6.78s-.11 4.54-.15 6.29c.11-2 .34-5.13.34-5.13l.24-6.64a6.16 6.16 0 01.11-2h.44a4.91 4.91 0 01.23 2c0 1.11-.08 6.65-.08 6.65s.28 5.54.26 6.65a3.79 3.79 0 01-.2 1.19l-.2.58h-.21a5.57 5.57 0 01-1.4-.16c.18-.22.35-.42.51-.59 0-.13-.06-.25-.08-.39a2.24 2.24 0 01-.29.84z"/><path class="cls-1" d="M118.72 89.41a2 2 0 00.77 1.49 2 2 0 00.86-1.44v-.86l.49-.34.37-.26v-.34l-.35-1.66v-.71l1.49-1 .19-.14v-1.13a2.44 2.44 0 00-.07-1c.13.09.1 0 .15-.06l.55-.2a2.19 2.19 0 00.64-.07c.06-.05 0-.26-.24-.62.21-.21.5-.58.5-.58s.67-.34.8-.42.13-.07.13-.07l.09.34c.56-1.62.37-2.74.43-4.69.07-2.11.48-12.7.48-12.7s.6-10.58.63-12.69a13.06 13.06 0 00-.53-4.13l.43-.09s2.2-.11 2.63-.15a1.07 1.07 0 00.66-.17h.1l.61.3.07-.66a2.46 2.46 0 00-.11-1.26l.11-.22c.4-.44.16-.66.1-1.11v-.49l3.24 1.88s5.76 3.74 6.91 4.47a6.52 6.52 0 002.52 1.2 3.9 3.9 0 00.22.38 9.17 9.17 0 00-.16 2.79c0 1.46-.21 8.77-.21 8.77s-.39 7.3-.38 8.76a6.31 6.31 0 00.31 2.07 1.12 1.12 0 00-.22.17 7.33 7.33 0 00-2 .71L134.15 76s-5.68 1.92-6.78 2.39a4.3 4.3 0 00-1.66 1.16l-.33-.12c.06.25.11.48.17.69v.06h.36a4.5 4.5 0 002-.32c1.11-.44 6.53-3 6.53-3l6.65-2.69a7 7 0 001.67-.83c0 .41-.07 2-.07 2a20.24 20.24 0 00-.23 2c0 .31.32.47.85.7.5-.28.77-.47.77-.78a8.24 8.24 0 00-.24-1.21 2 2 0 00.73.21c.76.08 4.6.06 4.6.06s3.81.33 4.57.38a2.11 2.11 0 001.73-.33c-.55-.57-1-.39-1.66-.46s-4.56-.55-4.56-.55-3.79-.67-4.55-.72a1.93 1.93 0 00-1.06.23c0-.38-.05-.94-.07-1.3a6.74 6.74 0 00.76-3.08c0-1.46-.28-8.77-.28-8.77s.06-7.31 0-8.77a9.69 9.69 0 00-.16-2.39h.07c.34 0 2-.38 2-.38s1.71 0 2.05-.05.49 0 .74-.49v-.1l.54.09c.51-.15.78-.25.78-.38a4.48 4.48 0 00-.4-.82s0-.7-.07-.84 0-.2-.51-.27l-.15.06c-.42-.93-1.05-1.25-1.9-2s-5.79-5.37-5.79-5.37-4.69-4.64-5.68-5.5a5 5 0 00-1.88-1.09 2.48 2.48 0 00-.7-.28h-.18c-2-1.54-3.68-2.09-6.39-3.39l-17.52-8.43S94.3 14 91.35 12.59a30.13 30.13 0 00-6.25-2.22.68.68 0 00-.29-.08c-.07-.6-.41-.59-.8-.87s-2.56-1.89-2.56-1.89-2-1.75-2.47-2-.8-.18-1.43 0c-.06-.06-.12-.13-.19-.19l-.08.1C77 5 76.56 5 76 4.67s-4.08-2.16-4.08-2.16-3.3-2-4-2.31a2.44 2.44 0 00-1.88 0 6 6 0 00.26.56.45.45 0 000 .16 1.18 1.18 0 00.11.59c0 .08.09.16.14.24l.19.21a2.51 2.51 0 00.24.19l.23.13c.66.31 4.13 1.5 4.13 1.5l4 1.8a1.92 1.92 0 001.66.21A1.8 1.8 0 0076.65 7c0 .29.11 1 .22 1.83-.21 0-.41.08-.69.11-.56.06-3.42.28-3.42.28s-2.88 0-3.45.11a1.16 1.16 0 00-.63.3 1.46 1.46 0 010-.31c0-.49-.06-2.93-.06-2.93v-.4a3.2 3.2 0 000-.44 2.69 2.69 0 000-.55 2.15 2.15 0 00-.13-.6l-.1-.3-.13-.26a2 2 0 00-.36-.47 1.21 1.21 0 00-.29-.25 1 1 0 00-1.48.41 1.57 1.57 0 01.37.59.61.61 0 00.19.33l.12.08a1.53 1.53 0 01.16.13l.07.09.09.14a1.34 1.34 0 01.18.36 9.58 9.58 0 01.32 1.15s.17 2.44.22 2.92 0 .62.34.88l.29.25-.19.07c.27.69.47 1.09 1 1.35.29.15 1.24.46 2.08.84l.34.14a9.45 9.45 0 00-.52 3.26c0 1.81.42 10.85.42 10.85s.06 9.05.09 10.86a10.66 10.66 0 00.41 3.69c-.46.25-.85.45-1 .56a2 2 0 00-.92 1.2h-.14l-.41.1.09.3c.1.31.2.63.31 1-.32 0-.5 0-.52.14a.92.92 0 00.12.49c.09.19.18.35.18.35l.06.37a1.62 1.62 0 00.12.4c0 .09 0 .16.54.07l.15-.1h.42a1.67 1.67 0 00.6.75 21.81 21.81 0 00-.12 3.55c0 2-.27 12.1-.27 12.1S70.86 73 70.86 75a11.81 11.81 0 00.64 4.06l.07.06c0 .1.06.2.1.31l.06-.19a1.42 1.42 0 001.14.4l.55-.13a21 21 0 004.82.55c1.34 0 5.35-.1 9-.06h7l7 .32c3.68.13 7.69.42 9 .5a23.82 23.82 0 005.49 0l-.06.12a.9.9 0 00.2.87 1.05 1.05 0 00.15.15l.11.08h.12l.12.06a2.15 2.15 0 00.27.1 3.13 3.13 0 001 .06l.8-.11.34-.05h1.11c.58-.07 1.24-.14 1.43-.2a1.84 1.84 0 00.39-.1 2.78 2.78 0 00-.1 1.08c0 .13 0 .36-.06.71-.62.39-1.48.93-1.64 1l-.21.11v2.53l-.67.31-.32.14v.48c.06.59.02 1.05.01 1.25zM67 4.77zm55.51 39.76a3.61 3.61 0 01.36.2.78.78 0 00.18 0c-.13.46-.25.88-.35 1.29a9.85 9.85 0 00-.17-1.49zm.34 35.17c0-.26.08-.53.11-.8 0 .26.06.52.1.77zm-.07-16.86zm-6.07 17.87a15.23 15.23 0 00.62-4.18c0-2.29-.15-13.73-.15-13.73s-.23-11.42-.27-13.7a19.36 19.36 0 00-.37-4.26h.13c.51 0 3.06-.41 3.06-.41h2.5A21.38 21.38 0 00122 49c0 2.33-.2 14-.2 14s-.37 11.67-.36 14a15.45 15.45 0 00.49 4c-.21-.07-.38.06-.64.1a11.42 11.42 0 01-1.36.09h-1l-1-.18a1.85 1.85 0 01-.6-.2.23.23 0 010-.05l-.07-.06h-.21a.63.63 0 01-.32.01zm1.47-37.64c-3.39.2-20.36 1.1-20.36 1.1s-5.85.24-11.37.49l11.26-1 8.78-.64c4.6-.36 9.61-.54 11.26-.54h3.89a21.61 21.61 0 003.14-.23v.13l-.06.45a47.74 47.74 0 00-6.52.24zm7.62-.44c0-.07.09-.34.12-.47 1 .64 2.36 1.53 2.81 1.77a2.58 2.58 0 001.24.34 1.8 1.8 0 00-.14.54c-.6-.32-3.03-1.64-4.01-2.18zm-51.7 1.6c-1.09.19-2.1.44-3.24.75l-.53-.21v-.66a29.9 29.9 0 003.79.12zm-3.12 1c1 .12 1.92.2 2.87.24-.53.09-1.05.19-1.57.31a1.28 1.28 0 00-.93.21l-.65.17a.72.72 0 010-.33v-.24l.17-.24zm7.72 2.67c-.53-.15-3.2-1-3.2-1l-.42-.16c.74 0 1.55 0 2.47-.07 3.39-.2 20.33-1.59 20.33-1.59L115.5 44l-.14.15.14.06.5.14-.07.12a1 1 0 00.26.2 9.56 9.56 0 00-.14 1.25 21.94 21.94 0 00-4.44.12c-2.3.13-13.83.68-13.83.68s-11.54.36-13.84.51a15.64 15.64 0 00-4.39.89c-.22-.12-.49-.12-.83-.19zm1.67 29.71h-.05zM88.27 61c-.27-.22-.49-.09-.83-.09l-1.84-.1c-.08-1-.14-1.86-.14-1.86v-3.09l2.12-.05c.43 0 .68 0 1-.48-.06 1.7-.13 3.33-.13 3.33s-.09 1.06-.18 2.34zm-3.85-.28c-.6-.08-2.19-.29-2.56-.28a.75.75 0 00-.44.15v-1.81l.15-2.56a.79.79 0 00.23 0c.4 0 2.16-.28 2.69-.37v3.07s-.03.82-.07 1.82zm-2.65-8.23a3.33 3.33 0 00-.48-1.76 1 1 0 00.61.21c.43 0 2.3-.38 2.8-.48a4.74 4.74 0 00-.13 2.09v2.34c-.48 0-2.33-.27-2.74-.25h-.11c.03-.92.06-1.77.05-2.13zM85 50.45l2.76-.16c.43 0 .69 0 1-.49a8.75 8.75 0 00-.07 1.9c0 .54-.08 2.1-.14 3.6-.37-.48-.61-.27-1-.27L85.41 55v-2.41a4.18 4.18 0 00-.41-2.14zm3 15.2a4 4 0 00.29 1.59h-.56c-.22 0-1.46-.09-2.26-.12a3.42 3.42 0 00.42-1.76c0-.54-.1-2.16-.21-3.64h1.77c.33 0 .55 0 .79-.2-.12 1.65-.24 3.48-.24 4.13zm-3.27 1.46s-2.53-.27-3-.28a1 1 0 00-.42.12 5.54 5.54 0 00.09-1.86c0-.48 0-1.85.06-3.18a.8.8 0 00.48.17c.36 0 1.87-.21 2.5-.3-.06 1.48-.12 3.09-.11 3.63a3.52 3.52 0 00.39 1.7zm-4-16.63a6.69 6.69 0 00-.38-1.78 15.36 15.36 0 003.65.19c2.3-.13 13.8-1.17 13.8-1.17s11.52-.69 13.82-.84a19 19 0 004.39-.57c0 .83.06 1.68.08 2.8 0 2.28.11 13.71.11 13.71s-.5 11.41-.51 13.69a15.26 15.26 0 00.2 2.79 16 16 0 00-4.09-.23c.48-1.36.27-2.3.27-3.94 0-1.8.07-10.8.07-10.8s.27-9 .24-10.81a10.22 10.22 0 00-.85-4 10.3 10.3 0 00-.77 4c0 1.8.42 10.8.42 10.8s.06 9 .09 10.8a10.31 10.31 0 00.49 3.93h-.45c-1.09 0-4.35-.21-7.35-.42l-4.36-.31c.47-1.27.27-2.16.27-3.7 0-1.7.14-10.24.14-10.24s.32-8.54.3-10.24a8.77 8.77 0 00-.62-3.26 1.83 1.83 0 001.2.51 7 7 0 001 0l1.49-.15.73-.09.61-.1.58-.1.58-.05c.36 0 .84-.06 1.33-.12 1-.11 2.09-.22 2.45-.27a1.92 1.92 0 001.55-.66c-.62-.45-1-.2-1.64-.13l-2.45.17c-.5 0-1 .07-1.32.08h-2.41l-1.39-.11c-.44 0-.79-.08-1-.08a2.1 2.1 0 00-1.46.6l-.17.13.09.1a8.67 8.67 0 00-.71 3.54c0 1.71.36 10.24.36 10.24v10.24a9.1 9.1 0 00.46 3.69l-1.3-.09s-10.88-1-13.06-1.07a13.77 13.77 0 00-4.34.4 9.64 9.64 0 00.52-3.3c0-.88-.11-3.5-.22-6a.93.93 0 00.48.14 29.33 29.33 0 003-.38h3a1.27 1.27 0 00.87-.19c.07.12.13.24.21.37a4.66 4.66 0 00.85-2.56c0-1.16-.22-7-.22-7s.09-5.82.11-7a5.31 5.31 0 00-.24-2.17h-.11v-.09H89l-.06.09h-.1l-.06.18c-.4-.47-.64-.25-1.09-.24s-2.94 0-2.94 0-2.47-.2-3-.16-.69.33-1 .87l.1.11c-.01.15-.05.2-.08.25zm44-8.43a19.69 19.69 0 00-3.11-.41h-3.92c-1.68 0-6.73.12-11.33.44l-8.79.57-10.86.59c5-.43 9.82-.86 9.82-.86L117.4 41a39.53 39.53 0 007.11-.88l.27.07v.14a1 1 0 00.16.82v.34c-.13 0-.2.07-.21.11s.08.18.17.31-.08.09-.09.14zM94.7 79.1l3.53.09 5.72.34c3 .17 6.28.34 7.38.33a13.26 13.26 0 004.62-.43c.07.35.14.7.23 1.07a.66.66 0 00-.23.17 25.58 25.58 0 00-5.57-.61c-1.33-.09-5.34-.42-9-.59zm-17.17-.6l1.84-.34c.43-.09.7-.11 1-.47h.07q.09.27.21.57c.06-.15.11-.3.16-.44a14.91 14.91 0 002.65.73c-2.33-.07-4.36-.1-5.24-.1zM72 78.38a11.33 11.33 0 00.5-3.36c0-2-.23-12.1-.23-12.1s.11-10.09.11-12.1a17.54 17.54 0 00-.16-3.38c.85.17 3.09.45 3.09.45s2.7.69 3.24.81a1.26 1.26 0 001.25-.12l.47.1A11.5 11.5 0 0080 52.5c0 1.81-.05 10.89-.05 10.89s-.25 9.08-.21 10.89a9.61 9.61 0 00.49 3c-.37-.2-.61 0-1 .06s-3.33.44-3.33.44-2.82.17-3.36.28a1.2 1.2 0 00-.54.32zm1-35.55c.31-.24.64-.5 1-.78s.74-.68 1-.92l.42-.41.44-.4a13 13 0 001-.93 23.31 23.31 0 001.67-1.87 2.17 2.17 0 00.47-1.16 12.36 12.36 0 003.74.22c2.09-.15 12.55-1.32 12.55-1.32s10.48-.81 12.58-1a16.17 16.17 0 003.93-.6 2.82 2.82 0 001.3 1c.43.18 1.79.59 3 1.09l2.32.9 2.17 1.18c1.15.58 2.35 1.37 2.76 1.61l.63.38a48.65 48.65 0 00-6.64.31l-20.79 1.29s-17.34.86-20.79 1.11c-1.07.08-1.97.18-2.76.3zm-.2-26.64a9.31 9.31 0 00-.48-3l.66.27 1.48.92c.78.45 1.6 1.06 1.88 1.25a1.84 1.84 0 001.23.5l-.15.28a1.91 1.91 0 001.55.41c.3-.07 1.15-.42 2-.64l1.55-.48 1.59-.2c.83-.13 1.77-.16 2.08-.19a1.71 1.71 0 001.08-.31 24 24 0 002.12 1.2c2.42 1.24 14.74 7 14.74 7l14.6 7.32a25.7 25.7 0 004.84 2.07.59.59 0 00-.14.5c0 .17.27.65.4 1.11s.32.89.32.89V36a9.93 9.93 0 010 1.21c0 .33 0 .52.45.82a.87.87 0 00.2-.12 5.73 5.73 0 001.53 1.76l-.43-.26-.83-.49-.17.57a10.12 10.12 0 00-1.19-.74c-.4-.25-1.57-1.07-2.73-1.7l-2.19-1.27-2.22-1.22a25.09 25.09 0 00-2.93-1.42 3.31 3.31 0 00-2.26 0l.08.11a22.94 22.94 0 00-3.71.2c-2.09.16-12.59.83-12.59.83s-10.51.49-12.6.67A13.59 13.59 0 0078 36.14l.35.08c-.22.21-.34.5-.6.82a23.93 23.93 0 01-1.66 1.73 12.17 12.17 0 01-1 .85l-.43.37-.48.31c-.29.19-.66.47-1.09.7l-.81.47a12.78 12.78 0 00.15-3.57c0-1.81.07-10.86.07-10.86s.33-9.04.3-10.85zm6.37-5.59l3.83 2a2 2 0 001.53.34c.7.58 1.31 1.09 2 1.55a2.22 2.22 0 01-.38 0c-.31 0-1.25 0-2.12.1l-1.67.14-1.66.16a12.27 12.27 0 00-2.13.35 1.4 1.4 0 00-.78.56c-.18-.46-.54-.53-1-.84-.27-.2-1.06-.84-1.85-1.34l-1.49-1-1.5-1c-.51-.35-1.07-.67-1.49-.9 1-.22 2.41-.58 2.41-.58s2.84-.35 3.41-.44a2.61 2.61 0 00.72-.13v.13l.29.12zm4.9-.23c-.33.15-.51.27-.5.38a4.48 4.48 0 00.5.8s.09.52.15.76a8.44 8.44 0 00-.85-.42l-3.76-2.15-1.34-.86V6.97c.7.41 2.65 1.36 2.65 1.36s2.2 1.48 2.65 1.76a2.9 2.9 0 00.5.28zM132.9 33.3c-.37.16-.57.28-.57.46a10.61 10.61 0 00.39 1.37s0 1 .07 1.34a2.23 2.23 0 00-.27 0c-.54 0-3.21.56-3.21.56s-2.7.18-3.24.24-.72 0-1 .4v-.37a11.83 11.83 0 00.08-1.25V34a4.81 4.81 0 00-.13-1.3c-.1-.34-.42-.46-1-.57l-.22.23a29.2 29.2 0 00-4.69-2.53l-14.52-7.47s-12-6.4-14.45-7.61a21.75 21.75 0 00-5.51-1.92 2.42 2.42 0 00-.12-.23h.29c.48-.21.26-.24.24-.38s0-.9 0-.9.09-.36.13-.64a29.7 29.7 0 005.51 3.35c2.94 1.41 17.83 8.13 17.83 8.13s14.74 7 17.69 8.44a32.51 32.51 0 006.7 2.7zm.72 3.71l-.11-.12h.05zm15.28 10.54c-.06.07 0 .12 0 .2s-.09.86-.09.86-.05.13-.1.29a12.78 12.78 0 00-1.47-1.24c-.95-.8-5.63-4.86-5.63-4.86s-4.55-4.22-5.51-5a5 5 0 00-2.49-1.1 1.37 1.37 0 010-.23c0-.24.09-1.4.09-1.4l.07-.27a5.07 5.07 0 00.87 1c1 .89 6.11 5 6.11 5s4.91 4.38 5.9 5.25a6 6 0 002.25 1.5zm-21.23-8.93a6.09 6.09 0 00-1.2-.6l2.91-.06s2.72.15 3.26.1.73-.32 1.08-.82a4.71 4.71 0 001.36 1.82c.95.79 5.94 4.48 5.94 4.48s4.77 4 5.73 4.73a6.94 6.94 0 001.62 1.13.66.66 0 01-.21 0l-2.06-.12a18.58 18.58 0 00-2-.28c-.27 0-.43.22-.62.59a7.28 7.28 0 00-2.2-1.65c-1.15-.75-6.83-4.61-6.83-4.61s-5.62-3.98-6.78-4.71zm1.56 2.84l-1-.58-.56-.37zm-2.76 3.59s-2.21-.22-2.65-.18a.77.77 0 00-.55.32c0-.13-.08-.25-.12-.39a1.09 1.09 0 01.35.14.52.52 0 000-.71 1.72 1.72 0 00-.6-.41h-.28l-.18-.06H122a25.07 25.07 0 002.76-.44l.23.12 3.59 1.8zm-2.74 34.55c.08-1 0-1.95 0-3.3 0-2.22.06-13.32.06-13.32s.25-11.1.22-13.32a14 14 0 00-.38-3.23.73.73 0 00.3.06c.26 0 1.14-.18 1.81-.31a12.77 12.77 0 00-.71 4c-.06 2.11 0 12.71 0 12.71s-.27 10.59-.31 12.7a18.56 18.56 0 00.15 3.77c-.24-.25-.23-.07-.35 0s-.59.18-.79.24zm-1.12 1.4l.12-.52v.12c-.05.16-.12.4-.12.4z"/><path class="cls-1" d="M122.67 88.39c.69-.43 2.78-1.67 4.78-2.68l3.78-2 3.8-1.93c2-1 4.18-2 4.91-2.4 1.34-.65 2-1.21 3.35-1.29a8.33 8.33 0 01-3 2c-.72.36-2.92 1.4-4.86 2.47l-3.74 2-3.59 2.26c-1.89 1.15-3.89 2.52-4.58 2.93a8.38 8.38 0 01-3.47 1.2 8.28 8.28 0 012.62-2.56zm26.52-6.3l4.95-4.37c.75-.68 1-1.23 2-1.43a4 4 0 01-1.46 2l-4.84 4.49s-3.8 4-4.62 4.74a4.24 4.24 0 01-2.33 1.06 4.29 4.29 0 011.24-2.26c.8-.75 5.06-4.23 5.06-4.23zM4.06 81.86c1.88-.28 11.35-1.28 11.35-1.28s9.45-1.18 11.33-1.43 2.7-.59 4.22-.28a11.3 11.3 0 01-4.1 1.07c-1.88.28-11.31 1.6-11.31 1.6s-9.38 1.67-11.26 1.92A11.07 11.07 0 010 83.25a11.28 11.28 0 014.06-1.39z"/></g></g></svg>