<svg xmlns="http://www.w3.org/2000/svg" viewBox="0 0 188.41 71.19"><path d="M188.13 19h-.21c-.78-.14-1.43-.25-2-.33a36.48 36.48 0 00-5.62-1.44c-3.12-.56-18.85-3.08-19-3.11l-11.61-2-6.84-2.77c-.69-.27-1.29-.53-1.85-.77a29.91 29.91 0 00-4-1.48h.07v-.35c-4.2-.59-7.38-1-13-1.3-5.82-.3-35.1-1.52-35.39-1.53l-22-1a.94.94 0 00.4-.73 11.18 11.18 0 00-.15-1.51l-.08-.46-.31-.1a2.17 2.17 0 00-.77-.12h-.29a1.14 1.14 0 00-.34.06 2.6 2.6 0 00-.76.36 2.56 2.56 0 00-.94 1.16 2.49 2.49 0 00-.11.26.77.77 0 00-.07.28.6.6 0 00.34.58l-10.31-.44c-1.35-.06-2.56-.13-3.67-.2-2.44-.14-4.54-.26-6.82-.26h-2.11l-.17-.17-.08-.07h-.09c-.47.13-.81.26-.91.63s-.21 1.76-.22 1.9S39 5.7 38.88 6a.75.75 0 01-.05.16.56.56 0 00.08.63 20.5 20.5 0 00-4.91.09C31.8 7.19 20.55 9 20.44 9.05l-13.62 2-1.42.18a14 14 0 00-3.55.77h-.23c-.39.12-.76.23-.81.56a11.21 11.21 0 00.13 1.36S1 15 1 15.19a.44.44 0 010 .1c-.07.21 0 .39.31.57h.12l.06.1-1.49.17 1.44.19h.21a1.91 1.91 0 00.72.59l3.54 1.52 1.5.8c.75.38 1.54.86 1.84 1h.05l.32.22a1.68 1.68 0 00.53.31L10 21l.32.14.48.21v6.59l-.26.08-.33.1.28.2a3 3 0 00.31.22v12.43s-.21 14.42-.19 17.27c0 .64 0 1.23.06 1.79l-1 .2 1 .17a30.23 30.23 0 00.47 3.54l-.78.18.83.14.25 1.3.22-1.22a19.63 19.63 0 003.1.21h1.84l17-.41c.14 0 13.63 0 16.32-.13a25.64 25.64 0 005.09-.59l.05.63 2.78 2.24.56.45c.32.24.61.48.83.68l.58.52 3.35 3.33.45-1 .08-.17a10.34 10.34 0 003.21.2l10.46-.44h5.41a21.92 21.92 0 002.44-.1 6 6 0 001.54-.4l.18-.09a3.58 3.58 0 00.39-.21l.21-.15.32-.26a.94.94 0 00.13-.14 2.63 2.63 0 00.24-.31 3 3 0 00.29-.6 2.62 2.62 0 00.13-1.17 2 2 0 00-.4-1 1.7 1.7 0 00-.53-.47l.49.1a17.41 17.41 0 003.24.27h1.74l15.66-.44c.12 0 12.58-.09 15-.18a24.15 24.15 0 005.57-.8l.79-.19-.8-.15-.27-.05a1.31 1.31 0 00.24-.94v-.12c0-.51-.11-2.94-.11-3v-.52h.31a23.69 23.69 0 003.4.22c.83 0 1.71 0 2.73-.06l19.37-.72c.16 0 15.54-.72 18.61-.93a36.38 36.38 0 006.84-1.08l1-.24-1-.1-1.48-.15a15.22 15.22 0 00.38-3.88v-.5c0-2 .14-12.22.14-12.32s.39-10.3.4-12.33a15.64 15.64 0 00-.16-2.46 1.94 1.94 0 00.62-.07h.1l2.72-.71c.1 0 2.37-.33 2.83-.46a1.14 1.14 0 00.58-.36l.89-.06h.47v-.4c.07-.92.13-1.86.17-2.66l.07-1.24zm-9.55 26.9a1.63 1.63 0 00-.94-.25h-1.94v-.15l.06-1.35.13-1c.54 0 1.39.06 1.69 0a1.89 1.89 0 001-.3zM86.79 67.58zm.63-1.33a2.81 2.81 0 01-.26.62 1.74 1.74 0 01-.2.3v.07h-.06l-.08.08.1.14-.14-.11-.2.14-.18.1-.15.08a5.16 5.16 0 01-1.25.43c-.62.1-1.39.16-2.2.21l-1.09.08-4.39.32-10 .55h-1a8.44 8.44 0 00-2.35.27 6.49 6.49 0 00.36-1.81 2.76 2.76 0 00-.61-1.84l10.49-.49c.09 0 8.65-.13 10.36-.22a10.65 10.65 0 002.54-.4l.13.14a1 1 0 01.3.67 1.65 1.65 0 01-.12.67zm-25.91-3.84a2 2 0 00-1-.37h-.34a2.29 2.29 0 01-.44.06 1.83 1.83 0 01-1.22-.22l-.09-.1-.07-.07-.05-.08a.93.93 0 01-.13-.24l-.17-.32a3.38 3.38 0 00-.22-.47 7.56 7.56 0 002.17.15h.33l8-.2s4.66.07 7 .07h1.08a7.15 7.15 0 003-.73l.2-.08V60l.15.8.15-.66a2.59 2.59 0 00.48.38l.11.08c.46.31 2.78 1.81 2.79 1.81s.75.61 1.47 1.17h-.36c-1.7.07-10.24.73-10.32.74l-10.33.61h-.2l-.11-.21a7.76 7.76 0 00-1.57-2.34l-.4-.39zM2.43 12.6a67.61 67.61 0 007.93.6l1.08.05 26.38 1c.22 0 22 1.11 26.37 1.27 1.12 0 2.12.06 3.06.06 2.16 0 3.9-.1 6.23-.29a.55.55 0 00-.09.41v.06c0 .24.11 1.41.11 1.43v.37a.91.91 0 00-.23.29 69.84 69.84 0 00-8.29-1.06c-.81-.08-2.21-.13-4-.19l-2.1-.08-2.39-.08c-2.16-.08-4.4-.16-6.61-.17l-8.17-.12h-3.58l-26.78-.28H8.57c-1 0-2-.05-2.91-.05H3.72c-.28-.15-.52-.28-.66-.34a1.87 1.87 0 00-1.14-.17C2 15.08 2 14.15 2 14a9.29 9.29 0 00.39-1.31zm109.68-1a15.58 15.58 0 004-.2h.57c1.59.06 9.59.3 9.66.3s8.07.52 9.67.56a9.89 9.89 0 003.29-.44c0 .34.19 1 .22 1.17s.08 1 .08 1.26a.25.25 0 010 .08 5.14 5.14 0 00-2-.48c-1.14-.07-6.7-.07-6.93-.07l-6.91-.2-.7-.05h-.73a3.36 3.36 0 00-.56 0 21.57 21.57 0 00-4.93-.71c-2.41-.1-14.51-.25-14.63-.26s-12.21-.3-14.62-.38l-1.52-.07c-.63 0-1.17-.06-1.73-.06a12.2 12.2 0 00-1.94.15c0-.29.14-1.58.14-1.6s.36-1.27.4-1.61a17.74 17.74 0 003.62.51h.47c2.07.16 12.46.87 12.56.87s10.41 1.04 12.52 1.18zm-20.54 7.33a9.34 9.34 0 003.26.47h.41l9.86.26c.08 0 8.23.49 9.85.52a9.52 9.52 0 002.78-.3 16.55 16.55 0 00-.33 4.12v13.33c0 .1-.24 10.69-.22 12.8a16.6 16.6 0 00.26 3 10.84 10.84 0 00-2.66-.21c-1 0-4.59.26-7.48.45a8.18 8.18 0 00.37-2.78c0-1.45-.5-8.75-.51-8.82s-.33-7.37-.38-8.82v-.92a5.73 5.73 0 00-.35-2.39l-.1-.27.52-.15.24-.08-.17-.2a3.77 3.77 0 00-.74-.71 2.37 2.37 0 00-1-.36 16 16 0 00-2.81-.06l-1.47.12-.63.05-4.76.25h-.48a2.2 2.2 0 00-1.11.17l-.17-.49-.16.46v.05a9.2 9.2 0 00-.59 3.34c0 1.52.24 9.13.24 9.21s.1 7.68.11 9.2v.95a6.57 6.57 0 00.27 2.5l.14.39h-.46a8 8 0 00-2.52.3 32.66 32.66 0 00.16-3.45l.19-16c0-.13.42-12.79.44-15.31zm45.5 19.52h.08a2.36 2.36 0 001.06-.25v.18a3.06 3.06 0 00-.46 1.47 2.86 2.86 0 000 .37l-1.72.11c0-.58 0-1.27-.07-1.92.52.03.89.04 1.11.04zm-1.42-9.23c.84.09 1.64.17 1.94.18h.11a2.3 2.3 0 00.6-.07v4.16l-.05-.05a2.27 2.27 0 00-1.53-.69h-.89v-2.3a2.37 2.37 0 00-.18-1.23zM134 41.55h.44a3.14 3.14 0 00.19 1h-.86a3.09 3.09 0 00.23-1zm.62-3.21c-.05.71-.1 1.48-.13 2.09h-.5c0-.61-.07-1.41-.11-2.15zm-.92-4.19l1.1.1v2.74l-.91.06-.06-1zm1.11-3.15v1.84l-1.15.08v-2.74a2.69 2.69 0 00-.14-1.21l1.67.2a3.09 3.09 0 00-.32 1.62zm-2.45 9.52H132v-2.31h.49c-.06.79-.1 1.66-.13 2.3zm.18-3.4h-.58l-.09-3.07h.73v2zm-.54 4.46h.39a3.1 3.1 0 00.24 1.06h-.88a3.18 3.18 0 00.25-1.06zm.65-11.09v2.48h-.76c0-.68-.07-1.34-.1-1.79v-1.03a2.68 2.68 0 00-.21-1.26h1.37a3.3 3.3 0 00-.34 1.6zm4.06 3.88a2.26 2.26 0 001.55-.66l.05-.05v3.4a2.44 2.44 0 00-1.12-.26c-.21 0-.62 0-1.24.06v-2.55c.28.05.55.06.72.06zM130 30.2v.32c0 .45-.11 1.49-.14 2.52h-1.59a1.23 1.23 0 00-.84.31l-.15.12v-4.76a2.67 2.67 0 001.23.21h1.72a3.75 3.75 0 00-.23 1.28zm-2.61 3.4a1.85 1.85 0 001.37.43h1.04v1.72l-.08 1.45-1.59.05h-.84v-3.77zm.53 4.65h1.69c0 .89-.07 1.82-.07 2.42h-1.31a2.23 2.23 0 00-1 .18V38.2a4.86 4.86 0 00.68.05zm.89 3.42h.8a3.22 3.22 0 00.25.78c-.95-.09-1.55-.13-1.8-.13a2 2 0 00-.79.14v-1a3.27 3.27 0 001.53.21zm8.3-4.67zm13.23-12c0 1.91.41 11.49.42 11.58s.25 9.67.28 11.58v1.18a11.8 11.8 0 00.17 2.54l-12.15.39a13.47 13.47 0 00.48-3.6c0-1.91-.18-11.49-.18-11.58s0-4.72-.05-8.22l.27-.16-.27-.22v-4.21a10.11 10.11 0 00-.25-3.12L139 21l11.74.39a13.59 13.59 0 00-.4 3.61zm-21.73 1.44l4.58-.05c.14 0 3.59.37 4.34.38a2.05 2.05 0 00.79-.14v1.28a2.51 2.51 0 00-.63-.11c-.75-.05-4.5 0-4.53 0l-4.52.11h-.41a1.85 1.85 0 00-.94.1v-1.93a2.08 2.08 0 001.32.34zM96.94 39.75h.74c-.12 1.22-.19 2-.19 2.29a2.66 2.66 0 00.07.76h-1.47L96 39.52a1.56 1.56 0 00.94.23zm6.11 1.82c0-.29-.06-1-.11-1.57h.87a1.45 1.45 0 00.68-.16l.07 2.94h-1.79a2.62 2.62 0 00.28-1.21zm.77-3.15h-1c-.08-.89-.16-1.62-.16-1.62v-.78l1 .12h.07a1.33 1.33 0 00.73-.21l.07 2.59a1.5 1.5 0 00-.71-.1zm-.13-3.85h-1.18c-.06-1-.12-2.05-.14-2.42v-.48a2.65 2.65 0 00-.06-.8h1.89a.2.2 0 000 .08 3.81 3.81 0 010 .76v.32l.06 2.74a1.26 1.26 0 00-.57-.2zm-4.64 2.77v-1.7l1.38.09 1.06.17v1s0 .77-.06 1.69l-1 .09-1.36.05c-.01-.79-.02-1.39-.02-1.39zm0 2.42h1.33l1 .1v1.74a2.54 2.54 0 00.33 1.21H99a2.49 2.49 0 00.12-.69c.01-.38 0-1.45-.02-2.36zm2.34-7.76v.19c0 .36 0 1.41.07 2.42h-2.39v-2.48a1.94 1.94 0 00-.23-1.36c.76.07 1.59.12 2.58.13a3.12 3.12 0 00-.03 1.1zm-2.77-1.3a2.58 2.58 0 00-.47 1.64v.19c0 .32 0 1.16-.09 2h-.65a2.53 2.53 0 01-.3 0 1.06 1.06 0 00-1 .25l-.12.11.11.13a1.33 1.33 0 001.11.5h.8l-.07 1.71s-.07.65-.15 1.48h-1a1.15 1.15 0 00-.79.12l-.09-2.78v-1.72a20.49 20.49 0 00-.34-4.19h.06c1.01.27 1.94.44 2.99.56zm4.52-1.46h-1.46a29.47 29.47 0 00-6.12.63h-.12l-.17-.74h.13l4.93-.12h.64c.38 0 .9 0 1.44.07s1 .07 1.39.12zM93.9 53.62a8.29 8.29 0 00.39-3.07v-9.58c0-.07.29-7.69.28-9.2a9 9 0 00-.38-2.77 3 3 0 001.07.13l-.13.8-.44.08.41.08a26.65 26.65 0 00-.22 5.33l.2 8.4h3l.17.28.21-.28 7.26.07v-.56c0-.09 0-3.48.09-7.18v-5.18a2 2 0 00-.07-.42 1.65 1.65 0 00-.53-.92l-.12-.09-.3-.16-.23-.08.43.07a3.28 3.28 0 001 0l.28-.07-.08.25a7.71 7.71 0 00-.3 3v.37c0 1.45.25 8.75.26 8.82s-.06 7.39 0 8.84a8.12 8.12 0 00.54 2.77l-2 .14c-.08 0-8.53.43-10.22.5h-.6zM94 55h.43c1.68-.05 10.14-.36 10.22-.37s8.56 0 10.24-.1a10.78 10.78 0 002.8-.46l.12.49-3 .08-6.36.21-6.36.24c-2.56.08-5.32.24-7 .33l-1.2.07-1.5.06c-.66 0-1.24 0-1.83.09q.09-.43.15-.84A11.25 11.25 0 0094 55zm24.29-34.8l.06.56h2.98c.09 0 2 .27 2.52.27a1.07 1.07 0 00.53-.16v4.4a5.36 5.36 0 00-1.91-.34h-.83v1.09c0 1.18.32 6.91.34 7.15v7.94a4.26 4.26 0 00.18 1.8h-.17l-2.2-.15h-.21a1 1 0 00-.26 0 .7.7 0 00-.52.28v.06c-.07-2.93-.15-5.6-.15-5.65s-.15-10.69-.17-12.8v-1.33a11.89 11.89 0 00-.27-3.39h.14a1.9 1.9 0 00-.09.25zm.43 22.89a.88.88 0 00.8.56h.35a1.81 1.81 0 00-.19 1.11V45c0 .62.19 3.7.19 3.72s-.12 3.14-.08 3.76a1.85 1.85 0 00.43 1.08l-.78-.12-.22-.06a1.14 1.14 0 00-.32-.07.66.66 0 00-.27.06h-.07a16.37 16.37 0 00.29-3.23c-.01-1.07-.08-4.14-.16-7.07zm5.6-14.37a3.52 3.52 0 00-.65 2c0 .36 0 1.34.16 2.91l.16 2.25-.09 5.19a4.39 4.39 0 010 .53 2.38 2.38 0 00.14 1.3h-1.4a5.31 5.31 0 00.34-2.22l.08-5.16v-2.3c0-.06.18-5 .19-6.79a5.75 5.75 0 001.16-.43v2.63zm-2.88 23.69c0-.62-.43-3.61-.45-3.73s-.27-3.11-.31-3.72v-.37a1.45 1.45 0 00-.12-.76l1.26.16.73.2a1.82 1.82 0 00-.27 1.17v.16c0 .62.05 3.75.05 3.77s-.23 3.17-.21 3.8a1.83 1.83 0 00.17.75h-.46l-.8-.11a2 2 0 00.38-1.34zm-3 1.53a.93.93 0 00.7.44h.1l.48.11h-1.41c.03-.18.08-.38.12-.57zm5-4.66s-.16-3.15-.18-3.77v-.39a1.58 1.58 0 00-.08-.77 8 8 0 00.82.19.89.89 0 00.4-.06v.71a1.13 1.13 0 00-.43-.56l-.16-.12-.1.17a1.7 1.7 0 00-.14 1.34v.51c.07.42.17 1.05.23 1.67 0 .27 0 .54.06.78s0 .21 0 .3v1.26a7.58 7.58 0 01-.07.77c0 .37-.09.75-.13 1.08-.06-1.13-.25-3.03-.26-3.13zm1.51 5.31c0-.21.09-.41.13-.61a1.86 1.86 0 00.13-.49v-.9c.06-.74.07-1.47.08-2.41v-.55c0-2.34.2-14.08.2-14.19s.44-11.86.47-14.2a20.35 20.35 0 00-.4-4.41l.53.13c.41.39.52.4.56.41h.07a15 15 0 00-.32 2.63h-.1.1v2.16c0 2.3-.23 13.89-.23 14s-.47 11.7-.5 14a20.31 20.31 0 00.42 4.55c-.42-.06-.8-.11-1.18-.14zM90.42 15c-.11.56-.19 1.06-.26 1.55-.09-.6-.21-1.23-.36-2zm-75 14.43h.81l1.14-.1v2.41h-.2c-.85 0-2 .08-2.74.08h-1.07a3.7 3.7 0 00-1.48.11v-2.78a3.63 3.63 0 001 .23 20.13 20.13 0 002.5.01zm1.06 7.4h.65l.08.84.09 1.47h-3.89a3 3 0 00-1.42.15v-2.41a3.7 3.7 0 001.28.2c.33-.08 1.42-.17 3.17-.29zm-3 7.59c.4 0 1.46 0 3.19-.08h.6l.07.81.07 1.56-3.07.17h-.81a2.37 2.37 0 00-1.35.34c0-1.11 0-2.16-.07-3.07a3.56 3.56 0 001.32.23zm-1.3 3.08a3.44 3.44 0 001.95.34l4.38-.13-.07-2.61v-.86a1.68 1.68 0 000-.32.63.63 0 000-.21.85.85 0 00-.14-.29l-.18-.18a.56.56 0 00-.15-.1l-.26-.14a2.64 2.64 0 00-.45-.06h-.62c-1.73-.11-2.8-.17-3.21-.17A3.51 3.51 0 0012 43v-3.3a3.64 3.64 0 001.7.3l2.46.06h1.41a.86.86 0 00.34-.09L18 40l.05-.07a.87.87 0 00.1-.24.34.34 0 000-.15 2.2 2.2 0 000-.23l-.07-1.61v-1a.49.49 0 000-.16.81.81 0 000-.2.5.5 0 00-.06-.17l-.02-.31v-.08a.77.77 0 00-.27-.17 1.24 1.24 0 00-.36-.1h-.85c-1.74-.06-2.82-.08-3.24-.07a3.58 3.58 0 00-1.26.24V32.5a4.55 4.55 0 001.83.32h4.86v-1.03c0-.22 0-.41-.05-.59v-1.23a11.11 11.11 0 01.12-1.18l.08-.64-2.67-.15h-.77c-.68 0-1.36-.13-1.85-.19l-.57-.14a6.49 6.49 0 00-1.17 0v-2.44a4.33 4.33 0 001.87.29h4.1a1 1 0 00.54-.33v-.06a.44.44 0 00.06-.1 1.42 1.42 0 00.11-.31 2.25 2.25 0 000-.48.38.38 0 010-.15V22a.49.49 0 010-.12 3 3 0 000-.59 1.34 1.34 0 00-.23-.67.61.61 0 00-.12-.15.45.45 0 00-.1-.09l-1.23-.85.54.58a3 3 0 00-.4 0h-4.31a4.82 4.82 0 00-1 .14 16.74 16.74 0 00-.29-2.94l-.08-.39 26.41.4v.09a17 17 0 00-.33 4.43v1.62a3.45 3.45 0 00-2-.66c-.92 0-4.92.27-5.09.28s-4.27.14-5.11.15h-.52a2.75 2.75 0 00-1 .07.64.64 0 00-.4-.69l-.1-.05-.09.07a.86.86 0 00-.38.89v.08c0 .37.17 2.11.17 2.16s-.12 1.85-.08 2.22a1.08 1.08 0 000 .21v16.22l-.06 2.78a6.85 6.85 0 00.11 1.16 2.65 2.65 0 00.63 1.3l.13.14.2.17a2.32 2.32 0 00.28.18 1.91 1.91 0 00.39.17 2.92 2.92 0 00.36.11 5.55 5.55 0 001.14.1l3.72-.11 3.16-.13a19.41 19.41 0 003.87-.57l.76-.14a19 19 0 00.64 4.35l-17.67.52c-.83 0-1.58 0-2.28.05a1.74 1.74 0 00.27-1.1v-1.63a1.3 1.3 0 00-.32-.95 1 1 0 00-.28-.19 1.06 1.06 0 00-.26-.1 3.15 3.15 0 00-.41 0h-1c-.12 0-3-.28-3.68-.28a2 2 0 00-.44 0c0-.94 0-1.89-.06-2.8zm4.34-26h.56a1.44 1.44 0 01.35 0h.07a.41.41 0 010 .1 2.73 2.73 0 010 .41v2.27a2 2 0 010 .27h-.07l-3.55.09h-.53a3.42 3.42 0 00-1.58.2V21.7a4.25 4.25 0 00.9.08h.13c.58-.12 2.32-.25 3.67-.35zm-.19 30.15h1a.67.67 0 01.21 0 .51.51 0 010 .23v1.79a1.37 1.37 0 00.15.91 48.3 48.3 0 00-5.42.29c0-.92 0-1.95-.06-3a2.57 2.57 0 00.4 0h.06c.71-.04 3.5-.28 3.61-.29zM79.6 39.33s-.06 9.9-.1 13.87a63.79 63.79 0 00-9-.39c-2.58.06-11.47.38-18.57.64a17 17 0 00.4-4v-.35a28.63 28.63 0 003.74.21h2.2l4-.07 2.07.17v-.21h2.18l-.42-12.87.22-13-1.24-.07-7.08-.39a39.14 39.14 0 00-6.33.21v-1.32a12.12 12.12 0 00-.3-3.53l-.13-.53c1.61.06 3.22.15 4.79.24l2.74.15 2.84.15c1.41.06 2.52.12 3.21.18 2 .14 3.63.2 5.26.2.94 0 1.9 0 3.07-.06.14.28.31.51.61.52h1.04c.4.06 2.34.26 2.4.26s2 .5 2.43.53a1 1 0 00.44-.07 22.82 22.82 0 00-.49 4.47c-.04 2.47.02 14.93.02 15.06zm-16.67 1.22a2.08 2.08 0 00-.91-.24h-1.48c-.07-1.37-.13-2.45-.13-2.45l-.1-2.77c.76.06 1.26.09 1.49.09a2.11 2.11 0 001.2-.3v2.81zm-2.15 5.11c0-.49-.05-1.78-.16-3.83.69.07 1.14.11 1.34.11H62a2.06 2.06 0 00.89-.18l-.1 6-2-.22h-.23a6.18 6.18 0 00.22-1.88zM60 27.55l2.36.06a1.26 1.26 0 01.47.06h.07a4.35 4.35 0 010 .54v5.58a2.15 2.15 0 00-1.16-.35H60.2c-.05-1.51-.1-3-.11-3.51v-.79a5 5 0 00-.09-1.59zm-2.4 7.31l1.65.16v2.88s0 1.09-.06 2.47l-1.4.05h-1.33c-.05-1.38-.1-2.48-.1-2.48v-3.1zm-1 10.69c0-.51 0-1.88-.11-4.07l1.29.05 1.42.16c-.05 2.14-.07 3.49-.05 4a6.15 6.15 0 00.26 1.77h-1.44c-.57 0-1.13.06-1.69.12a6.09 6.09 0 00.33-2.03zm2.57-15.72v3.84l-1.6.09h-1.33v-4.22a4.37 4.37 0 00-.24-2.07h.63l2.79.07a6.79 6.79 0 00-.24 2.29zm-3.5-2.38a5.79 5.79 0 00-.39 2.55v3.77h-2.57a1.37 1.37 0 00-.8.24c0-1.89-.09-4.63-.14-6.93a24.12 24.12 0 003.91.37zm-2.41 7.33h1.99v3.12s0 1.1-.11 2.47h-1.47a2.81 2.81 0 01-.43 0 1.63 1.63 0 00-1.16.22c-.08-2.36-.14-4.26-.15-4.3s0-.75 0-1.89a2.13 2.13 0 001.34.38zm.19 6.59h.17l1.48.06C55 43.69 55 45 55 45.54a6 6 0 00.36 2.12l-.63.11c-.86.22-1.66.47-2.41.73 0-1.74-.13-4.87-.21-7.53a2.06 2.06 0 001.35.4zm11.36-16.62L65 36l.47 12.16h-1.14l-.23-10.48-.1-9.34v-.17a2.42 2.42 0 00-.07-.66.82.82 0 00-.1-.25v-.08a.49.49 0 00-.08-.11 1.3 1.3 0 00-.48-.32 2.62 2.62 0 00-.82-.12l-5-.08-1.71-.05h-1.76a15.78 15.78 0 00-2.12.13c0-1.14 0-2.14-.05-2.82a38.62 38.62 0 006.25.77c1 .05 3.39.13 6.65.24zm-23.15-7.4l8.15.3 1.36.05-.12.53a16.84 16.84 0 00-.35 4.35v.62l-1 .11 1 .22c0 2.86.12 12.77.12 12.77s-.17 11-.14 13.18a16.78 16.78 0 00.48 4l-5.66.21-6.88.21a18.38 18.38 0 00.54-4.79c0-2.2-.42-13.29-.42-13.4v-1.74l.28-.19-.29-.2c0-1.76-.1-4.31-.15-6.58l.18-.11-.19-.14c0-2-.08-3.69-.09-4.43v-1.4a13 13 0 00-.32-3.59v-.08zm-4.12 31.56a15.8 15.8 0 00-3.94-.62h-.2v-.06a6.51 6.51 0 00.68-2.85c0-.5 0-1.84-.09-4l2.79.31a2.48 2.48 0 00.78-.06c-.01 2.67-.03 5.94-.02 7.28zm-5.2-14.63h.47v3.53s0 1-.11 2.25l-2.22.07h-.09c-.07-1.44-.12-2.61-.12-2.61l-.08-3.29zM37 33h-.1c-.53 0-1.92.07-3 .13v-3.54a4.41 4.41 0 00-.26-2.07l-.12-.27c1.2.16 2.66.34 3.12.36a2.47 2.47 0 001-.09L37.6 33a2.37 2.37 0 00-.6 0zm-5.27-6l1.66.22-.12.28a5.72 5.72 0 00-.42 2.5v3.14h-2.67c0-1.52-.07-3-.07-3.54v-.82a4.85 4.85 0 00-.23-2zm2.65 13H34c0-1.24-.08-2.2-.08-2.2v-3.46c1.2.09 2.64.19 3.12.19a3.21 3.21 0 00.65-.08v5.72a2.57 2.57 0 00-.66-.14H35.4zm-6.85-5.8h1.59v3.3l-.09 2.65H27.3a1.61 1.61 0 00-1.09.35l-.35-6.92.11.07a2.39 2.39 0 001.56.59zm-1.35 6.65a2.28 2.28 0 001.57.35h1.29c-.07 2.28-.1 3.7-.09 4.23a6.62 6.62 0 00.59 2.77h-2.93l-.28-4.2zm4.37 4.55c0-.71-.08-2.88-.14-4.24h2.23c-.07 1.57-.15 3.5-.15 4.14a6.37 6.37 0 00.64 2.85v.06l-3.13.01a6.77 6.77 0 00.55-2.78zm-4.66-18.2h.17l.2-.05.16-.06.19-.06h.13a2 2 0 01.26-.13h.13l.26-.05h2.01a6.54 6.54 0 00-.33 2.54v3.89h-1.86a1.73 1.73 0 00-1.33.28l-.11.08-.1-2v-1.29a11.88 11.88 0 00-.31-3 2.66 2.66 0 00.53-.11zm10.8-1.3c-.81-.07-4.72-.08-4.88-.08l-2.22-.08a14 14 0 00-1.59 0 2.46 2.46 0 00-.49 0h-.22l-.34.07h-.11a2.46 2.46 0 00-.41.1l-.2.06-.2.07-.21.11a1.16 1.16 0 00-.57.64l-.16-.53-.14.66a14.7 14.7 0 00-.22 4.11l.5 12.91.08 5h-.13L25 49h-.18l-.15-.1-.13-.11a1.47 1.47 0 01-.35-.67 5.32 5.32 0 01-.12-.9L24 44.41l-.13-13.95V28.7c.37-.29.62-.55.6-1s-.42-2.11-.43-2.17-.14-.94-.23-1.59a3.63 3.63 0 001.21.13h5.31c.17 0 4.05.24 5.05.24h.08a3.41 3.41 0 002-.68h.06v2.5a3.06 3.06 0 00-.83-.19zm43.45 33.36a24 24 0 00.31-4.26v-.61c.05-2.48.25-14.94.25-15.06s.48-12.58.51-15.06a23.18 23.18 0 00-.42-4.9l.76-.35v1.22c-.05 2.37 0 14.26 0 14.38L81.39 49v1.5a14.76 14.76 0 00.2 3.85l.15.76.19-.76a19.68 19.68 0 00.46-4.73l.12-6.19a1 1 0 00.65.29h.1l1.26.22a2 2 0 00-.23 1.2v.17c0 .66.1 4 .1 4s-.19 3.37-.16 4a2.34 2.34 0 00.09.54l-.39-.22a1.86 1.86 0 00.06-.34 14.29 14.29 0 000-2.24l-.09-1.72-.12-1.71c0-.7-.13-1.43-.18-1.87v-.72a1.37 1.37 0 00-.51-1.03l-.15-.15-.11.17a1.88 1.88 0 00-.29 1.42v.16a2.63 2.63 0 000 .33c0 .44.11 1.16.11 1.83l.06 1.65-.17 1.68c0 .53-.12 1.06-.18 1.49q0 .27-.06.45h-.11v.13a1.13 1.13 0 00.11.53 2.77 2.77 0 00.53 1.11l.17.2.15-.15a3 3 0 00.25-.26 5 5 0 00.51.31l.91.53.9.55a6.09 6.09 0 001.13.58v.05a3.14 3.14 0 00.47.61c0 .94.1 2.77.11 2.77v3.24a1.58 1.58 0 010 .32.28.28 0 010 .09 1.49 1.49 0 00-.49-.54c-.46-.31-2.86-1.56-3-1.61l-2.87-1.71a3.15 3.15 0 01-.27-.19 1.24 1.24 0 00-.66-.33zm5.56-4.71l-.2-.06.09-.18a2.56 2.56 0 00.11.24zm1.3-8.43v4.67l-.07-1s-.11-3.23-.12-3.87v-.39a1.39 1.39 0 00-.27-1.12l.91.26a2.12 2.12 0 00-.45 1.45zm-.81-1.75a1.87 1.87 0 00-.42 1.38v4.02c0 .02-.06.66-.12 1.39-.08-.92-.17-1.77-.18-1.84s-.2-3.35-.23-4v-.4a1.75 1.75 0 00-.11-.84l.56.09.56.17zm1.75.74a1.48 1.48 0 00-.15-.35 2.05 2.05 0 00.31.07zm.45-1.88c-.41-.08-2.45-.15-2.53-.16s-2.08-.22-2.49-.28h-.24a1.07 1.07 0 00-.31-.06.64.64 0 00-.35.1l.14-8.12c0-.12.49-12 .52-14.37v-1.5h.19l2.55.19c.09 0 2.13.44 2.57.46h.06a1 1 0 00.3 0v.72c0 2.49.16 15 .16 15.13v8.28a1 1 0 00-.56-.39zM76.52 59h-.16c-1.33 0-8 .46-8.06.46s-6.72.29-8 .33h-1.1a4.68 4.68 0 00-1.79.27 1.77 1.77 0 00-.46-.29 2 2 0 00-.79-.21 1.67 1.67 0 00-.31 0h-.08a1.1 1.1 0 000-.18l.09-.72-.86-.11c-.76 0-1.59-.06-2.57 0-2.9.05-17.47.61-17.62.62l-17.61.48h-1.83a30.63 30.63 0 00-3.08.12v-4.39c1.22.1 2.39.14 3.75.14 1.07 0 2.21 0 3.51-.06h1c4.11-.09 24.77-.62 25-.62s20.88-.25 25-.36a64.2 64.2 0 009-.83V56a17.35 17.35 0 00.13 3.67l-.17-.07a7.47 7.47 0 00-2.99-.6zm12-14.15a1.35 1.35 0 00.48-.24v6.08s-.19-3.55-.22-4.25v-.43a1.59 1.59 0 00-.29-1.18zM55.59 60.3zM89.94 51v-7.22 7.98a17.24 17.24 0 00.18 3.86l-.53.07a22.07 22.07 0 00.35-4.69zm91.88-28.4h.28l-1.71.52-.26.06a1.58 1.58 0 00-.36.09c-.05-.23-.1-.48-.17-.76zM135 20.81l3.77.13-.07.22a13.41 13.41 0 00-.41 3.83v.3a2.23 2.23 0 00-.79-.17c-.72 0-4.32.14-4.35.14l-4.3.18h-.44a1.62 1.62 0 00-1.16.25v-5.52h.15a49.81 49.81 0 007.6.64zM127.16 17v-.12s.05-.09.07-.15v-.06c0-.48 0-.77-.17-.85h-.1a3.35 3.35 0 00-.6.12h-.52a.26.26 0 00-.15-.06c-.12 0-.2.09-.27.22V16l-.15-.75-.18.75a23 23 0 00-.65 3.68 1 1 0 00-.62-.21c-.47 0-2.41.25-2.48.26l-2.09.11a.69.69 0 00-.3-.54l-.11-.07-.12-.08-.09.1-.09.09a10.59 10.59 0 00-3.51-.69h-9.86l-9.86-.13h-2a5.89 5.89 0 00-1.71.23 23.12 23.12 0 00-.4-3.84v-.27l-1.37-.24-.11-.54-.11.5-.3-.06.27.18v.18a27.05 27.05 0 00-.58 3.41.9.9 0 00-.33-.09c-.42 0-2.59.06-2.59.06l-2.57-.07a1.9 1.9 0 01-.25 0h-.09l-.13-1.34-1 .87c-.43.39-.83.79-1.3 1.29l-.14-.72-.14.64a1 1 0 00-.56-.28 7.63 7.63 0 00-.88 0h-1.59c.01 0-2-.1-2.43-.14a.93.93 0 000-.13 1.39 1.39 0 001-.56l.11-.08c.43-.32 2.48-1.9 2.55-2s2.32-1.43 2.75-1.77a1.46 1.46 0 00.54-.9.87.87 0 00.34-.26 20.48 20.48 0 004.66.51h.61l14.61.51c.12 0 12.21.7 14.61.77a21.29 21.29 0 004.58-.3 5.26 5.26 0 002.09.4h.26c1.14.07 6.86.33 6.91.33s2.13.21 4.06.38l-1.56.45-1.89.64a20.14 20.14 0 00-2.07.77l-.32.13a3.74 3.74 0 01-.43.15 1.83 1.83 0 00-1.06.69c-.06-.28-.11-.66-.19-1.02zm-52.74-1.76a1.64 1.64 0 00.41-.05h.57-.3a2.78 2.78 0 00.52-.37l.11-.09c.47-.37 2.76-2.29 2.77-2.3s2.32-1.6 2.9-2.07v1.94a1.48 1.48 0 00-1 .29c-.44.32-2.35 2.11-2.42 2.18s-2.07 1.73-2.48 2.06a2.22 2.22 0 01-.27.19 1.13 1.13 0 00-.52.57l-.11-.37s-.21-1.2-.24-1.44a.45.45 0 010-.11.43.43 0 00-.08-.34h.13zM10 19.6l-.12-.09c-.51-.39-3.26-2-3.37-2l-1.29-.81c1.55.09 3.13.12 5.07.15h1l-.07.41a20.76 20.76 0 00-.34 3.23 1.84 1.84 0 00-.88-.89zm2.28 40.93c.71.06 1.45.09 2.35.09h1.9l18.33-.37c.15 0 14.73 0 17.63-.09.68 0 1.29 0 1.86-.09 0 .76.11 1.52.24 2.53a25.68 25.68 0 00-4.64-.27c-2.68 0-16.15.64-16.28.65l-16.3.52h-1.69a20.81 20.81 0 00-3.8.26c.12-1.08.27-2.07.35-3.23zm43.31-.06H56a1.1 1.1 0 01.86.59 1.8 1.8 0 01.16.38l.15.39a2.17 2.17 0 00.19.4l.06.12.06.11.14-.09-.11.15.07.11a2.67 2.67 0 001 .74 3.18 3.18 0 001.21.28 3.33 3.33 0 00.79-.05 1.37 1.37 0 001-.87 10.45 10.45 0 001.18 2.85l.13.24v.27q-.06.25-.09.48a7 7 0 00-.1 1.07.86.86 0 010 .15 5.42 5.42 0 01-.08.77l-2-1.59-.6-.51a10.6 10.6 0 00-.87-.69l-.57-.43L56 63.47v-.33l.85-.19-.85-.14a2.53 2.53 0 00-.4-1.41l-.17-.27v.08c.02-.21.07-.49.11-.74zM159.43 34.4l-.08 1.86s0 .21-.07.54c0-.48-.07-.8-.07-.8l-.1-1.63zm3.57 7.06c0-.34 0-1.21-.12-2.6a2.63 2.63 0 00.92-.21v4h-1a2.83 2.83 0 00.2-1.19zm-.11-8.41h-.28v-1.72a4.38 4.38 0 010-.52 2.19 2.19 0 00-.25-1.36h1.48v3.81a3 3 0 00-.99-.21zm-.17 3.34l-.06-1.72h.26a2.71 2.71 0 00.91-.15v3a2.54 2.54 0 00-1-.21zm0 1zm-1.17-.12l-1.08.07v-2.82l1.07.09v1.79zm-1.17 4.29c0-.43.06-1.73.08-2.8h1c-.06 1-.11 2.22-.11 2.64a3.1 3.1 0 00.22 1.12h-1.43a3.12 3.12 0 00.21-.94zm1.2-8.53h-1v-2.52a2.92 2.92 0 00-.05-1.1h1.36a2.89 2.89 0 00-.35 1.66v1.94zm-2.67-3.58h1a3.68 3.68 0 00-.25 1.38l-.1 2.26h-.45c-.06-1-.11-2-.13-2.4a4.86 4.86 0 010-.54 5.47 5.47 0 00-.1-.68zm-.95 1.07v.21c0 .37 0 1.37.07 2.4h-1.08V30.6a2.58 2.58 0 00-.1-1.1H158a4.63 4.63 0 00-.07 1.04zm.14 5.48v1.5h-1l-.1-1.19v-2.09h1zm-1 2.62h.9v2.7a3.25 3.25 0 00.27 1.22h-1.23a3.29 3.29 0 00.16-1c.02-.35-.02-1.32-.09-2.89zm8.39-4l.07 8h-.8l.12-7.08.3-7.46h-.72c-4.49-.12-7-.18-8-.19h-.14a21.75 21.75 0 00-4.36.4v-1.71a28.55 28.55 0 005.34.57h8.05zm-10.09 6.65v-2.6h.31c-.1 1.54-.15 2.5-.14 2.86a3.06 3.06 0 00.14 1h-.65a2.9 2.9 0 00.35-1.26zm0-7.1h.53v2.13s0 .56-.09 1.32h-.38v-1.43zm-2.2 4.51h.8c-.14 1.36-.22 2.18-.23 2.5a3 3 0 00.22 1.29 13.26 13.26 0 00-2.05.15l-.06-4.12a3 3 0 001.28.18zm2.75-7.78v2.24h-.55v-2.51a2.27 2.27 0 00-.18-1.24h1a3.36 3.36 0 00-.31 1.51zm-1.57.06v2.17h-2.07a1.87 1.87 0 00-.34 0c0-1.28 0-2.74.05-4.09a20.15 20.15 0 002.7.39 2.91 2.91 0 00-.38 1.57zm-.05 5.22s-.07.66-.17 1.5h-1.26a2.09 2.09 0 00-1 .1v-3.86a3.53 3.53 0 001.06.14h1.35zm23.45 3l-2.4-.14-.1-1v-.33a.57.57 0 010-.13h1.1a2 2 0 01.36 0h.24a3.66 3.66 0 01.68.1h.17a3 3 0 00.73 0v1.59a3.21 3.21 0 00-.82-.1zm.76-5.58a4.23 4.23 0 00-.74-.07l-2.29-.06v-1l.07-.72h2.38a2 2 0 00.44 0h.12zm-.05-5.65a3.82 3.82 0 00-.72-.09l-2.1-.11v-1.89h1.32a2.68 2.68 0 01.43 0l.52.08a2 2 0 00.43 0h.07v.59c0 .2 0 .85.01 1.41zm8.86-6.49a53.14 53.14 0 00-5.44-.45c-3.77-.13-22.73-.49-22.92-.5L136 19.87c-.88 0-1.66-.06-2.39-.09-1.13-.05-2.1-.09-3.09-.09a27.21 27.21 0 00-3 .15h-.15a13.78 13.78 0 000-1.44 2.28 2.28 0 00.55.08 3 3 0 001.07-.26l.17-.07.33-.12a18.89 18.89 0 012-.7l.26-.08.33.07a40.63 40.63 0 006.77.63l21.51.82c.17 0 17.24.92 20.64 1a43.9 43.9 0 006.54-.23v1c-.05.34-.14.63-.23.91zm-37.84-8.51zM39.8 6.31v-.07c.08-.3.45-1.76.45-1.8S40.94 3 41 2.65a.69.69 0 000-.35c3.69.49 6.54.64 10.79.86l1.45.08L88.62 5c.29 0 29.54 1.76 35.37 2.05 2.48.12 4.57.17 6.57.17 1.77 0 3.44 0 5.38-.11l.08.05a35.55 35.55 0 005.71 2.84l7.64 3.15 11.73 2.08c.1 0 9.14 1.78 14.84 2.87-6.23-.17-15.38-.37-15.49-.37L139.8 17c-.79 0-1.5-.06-2.15-.09-1-.05-1.91-.1-2.8-.1-.67 0-1.29 0-1.92.09l.45-.14 1.94-.29c.64-.12 1.34-.19 1.85-.24a4.93 4.93 0 00.62-.07 2.78 2.78 0 001.64-.91l.1-.09c.19-.06.39-.14.63-.24l.34-.14-.18-.09a.45.45 0 00.23-.42v-1.3a8.51 8.51 0 00.31-1.28c0-.33-.36-.48-.73-.64H140a2.78 2.78 0 00-.54.25 10.23 10.23 0 00-3.46-.7h-9.68c-.08 0-8.08-.13-9.67-.17h-1.8a16.54 16.54 0 00-2.67-.4c-2.06-.15-12.47-.61-12.57-.61l-12.53-.85-1.28-.1c-.65-.06-1.22-.11-1.8-.11a8.2 8.2 0 00-1.32.1 2.54 2.54 0 00-.42-.31l-.08-.05h-.08a1.6 1.6 0 00-.7.45 1.73 1.73 0 00-1 .39c-.47.38-2.54 2.43-2.62 2.51s-2.24 2-2.69 2.41c-.1.09-.2.15-.29.22a1.26 1.26 0 00-.61.84h-.22a72 72 0 00-9.73-1c-4.35-.17-26.18-.74-26.4-.75s-22-.72-26.39-.88c-1 0-1.9-.08-2.74-.12l-1.87-.08H7l13.63-1.91c.12 0 11.44-1.33 13.68-1.65a20.61 20.61 0 005-1.35l.7-.27h-.52a.7.7 0 00.31-.6zm87.45 43.88v-6.42a2.06 2.06 0 00.76.16c.69 0 4-.17 4.15-.18l4.09-.24h.41a1.49 1.49 0 001.19-.33L138 43l-.18-.13a2 2 0 00-1.46-.38h-.57a3 3 0 00.19-.92l2.08.11c-.12 3.76-.19 6.08-.19 6.9a14 14 0 00.44 3.64l-3.81.12h-1.94a24.53 24.53 0 00-4.95.39L127 53a20.87 20.87 0 00.25-2.81zm51.32 1a36.08 36.08 0 00-6.89-.37c-3.05.11-18.41 1-18.56 1h-1.29a15.4 15.4 0 00.19-3.27v-.44c0-.76 0-2.73-.06-4.83a25.29 25.29 0 004.32.29l.13.16.1-.16h2.79l.1.15.11-.15 5.07.06h2.04v-9l.15-8.86h-.7c-3.35-.12-7.37-.25-8.72-.27a28.48 28.48 0 00-5.37.38V25a13.39 13.39 0 00-.51-3.6l7.45.25c.14 0 13.64.65 20.11.91a18.44 18.44 0 00-.42 2 2.9 2.9 0 00-.42-.1l-.58-.05a3.74 3.74 0 00-.58 0h-1.08l-1.46.24.07 1.77v1.52a1 1 0 000 .26.67.67 0 00.07.18l.05.08h.07a.37.37 0 00.15.08.91.91 0 00.33.05l2.17.05h.42a3.09 3.09 0 00.51 0v1.39a2.41 2.41 0 00-.43-.07h-1.45l-.47.05c-.11 0-.21 0-.32.06l-1.42.3v3.88h3.63a2.21 2.21 0 00.51 0v1.7a2.12 2.12 0 00-.45-.12 5.4 5.4 0 00-.93.17h-.33a2.08 2.08 0 00-.43 0l-.73.09-.45.09-.24.08h-.1l.08-.23-.57.65a.09.09 0 000 .06l-.06.12a1 1 0 00-.08.28.56.56 0 000 .18v.3l.3 2.3h.44c.65 0 2.26 0 2.69.06h.43a3.5 3.5 0 00.64 0v1.69a1.91 1.91 0 00-1.05-.28c-.41 0-1.73.12-2.28.17l-.67.07.06 2.24v1.41a1.86 1.86 0 000 .22 1.05 1.05 0 00.05.26l.06.17.06.09.12.15.11.09a.77.77 0 00.28.15 1 1 0 00.27.06 3.12 3.12 0 00.53 0h1.59a1.36 1.36 0 00.88-.25c-.02 2.22-.03 4.11-.03 4.96zM63.79 2.73a1.91 1.91 0 00.32-.31l.07-.08s0-.1.09-.2a.55.55 0 010-.13 1.61 1.61 0 01.6-.66 1.73 1.73 0 01.46-.19.66.66 0 01.17 0 10 10 0 00-.09 1 .92.92 0 00.36.68l-2.1-.1zm23.68 62l.24-.08.07.07h-.2zm.78-.12l-.47.11.12-.11.41-.15.53-.18-.6-.16a1.85 1.85 0 00.11-.63l.17-3.35c0-.11.41-2.7.42-3.26v-.42a22.77 22.77 0 004.36.08h.59l1.2-.05c1.65-.08 4.41-.21 7-.27l6.34-.19 6.36.07c2.08 0 4.3.05 5.92.09h2.37a22 22 0 005-.54 1.28 1.28 0 00-.17.67c0 .51.36 2.94.37 3s.21 2.52.24 3a3 3 0 010 .3 1.13 1.13 0 00.1.62 22.41 22.41 0 00-4.7-.32c-2.47.06-14.91.68-15 .69l-15 .56h-1.57a16.71 16.71 0 00-4.1.39zm41.44-6.13l-.27.06c.05-.8.12-2 .1-2.31a1.7 1.7 0 00-.74-1.22l-.12-.11-.12.12-.18.2c-.54-.13-1.11-.26-1.7-.36.14-.61.26-1.17.35-1.74l.65.1a24.53 24.53 0 003.83.26h2.29l19.37-.49c.15 0 15.54-.33 18.6-.46a36.72 36.72 0 006.82-.9v1.05a11.93 11.93 0 00.19 3.09c-.86-.07-1.66-.1-2.55-.1s-1.56 0-2.47.08c-3.05.18-18.39 1.44-18.54 1.45l-18.59.81-1.94.06a24.64 24.64 0 00-4.98.36z" fill="#595859" data-name="Layer 2"/></svg>