<svg width="463" height="462" viewBox="0 0 463 462" fill="none" xmlns="http://www.w3.org/2000/svg">
<g clip-path="url(#clip0)">
<path d="M75.3885 256.388L65.5543 240.579H62.283V256.388H53.4102V211.463H65.8815C77.8321 211.463 83.4535 215.436 83.4535 224.963V227.306C83.4535 233.983 80.8765 237.574 74.9012 239.324L85.7368 256.388H75.3885ZM65.8815 233.161C72.2974 233.161 74.1 231.158 74.1 226.866V225.35C74.1 221.097 72.8849 218.874 66.0017 218.874H62.2095V233.161H65.8815Z" fill="#1D1D1B" fill-opacity="0.29"/>
<path d="M120.053 211.463H91.5786V218.467H120.053V211.463Z" fill="#1D1D1B" fill-opacity="0.29"/>
<path d="M100.451 249.098V237.254H117.156V230.017H91.5786V256.435H120.948V249.098H100.451Z" fill="#1D1D1B" fill-opacity="0.29"/>
<path d="M150.123 211.523V239.137L136.57 211.523H127.764V256.388H136.57V229.436L150.317 256.388H158.929V211.523H150.123Z" fill="#1D1D1B" fill-opacity="0.29"/>
<path d="M167.154 243.383V224.369C167.154 214.848 171.721 210.943 183.665 210.943C195.609 210.943 200.576 214.848 200.576 224.369V243.383C200.576 252.663 195.435 256.809 183.665 256.809C171.894 256.809 167.154 252.663 167.154 243.383ZM191.703 242.989V224.769C191.703 220.683 190.548 218.053 183.691 218.053C177.262 218.053 176.047 220.683 176.047 224.769V242.989C176.047 247.268 177.262 249.712 183.691 249.712C190.121 249.712 191.703 247.268 191.703 242.989Z" fill="#1D1D1B" fill-opacity="0.29"/>
<path d="M241.067 211.523L227.748 256.435H218.495L205.129 211.523H214.189L223.128 242.515L231.988 211.523H241.067Z" fill="#1D1D1B" fill-opacity="0.29"/>
<path d="M274.616 211.463H246.135V218.467H274.616V211.463Z" fill="#1D1D1B" fill-opacity="0.29"/>
<path d="M255.001 249.098V237.254H271.705V230.017H246.135V256.435H275.497V249.098H255.001Z" fill="#1D1D1B" fill-opacity="0.29"/>
<path d="M310.848 211.463H282.38V218.467H310.848V211.463Z" fill="#1D1D1B" fill-opacity="0.29"/>
<path d="M291.253 249.098V237.254H307.957V230.017H282.38V256.435H311.749V249.098H291.253Z" fill="#1D1D1B" fill-opacity="0.29"/>
<path d="M340.925 211.523V239.137L327.372 211.523H318.566V256.388H327.372V229.436L341.112 256.388H349.724V211.523H340.925Z" fill="#1D1D1B" fill-opacity="0.29"/>
<path d="M357.956 243.383V224.369C357.956 214.848 362.523 210.943 374.467 210.943C386.41 210.943 391.364 214.848 391.364 224.369V243.383C391.364 252.663 386.217 256.809 374.467 256.809C362.716 256.809 357.956 252.663 357.956 243.383ZM382.491 242.989V224.769C382.491 220.683 381.343 218.053 374.48 218.053C368.044 218.053 366.836 220.683 366.836 224.769V242.989C366.836 247.268 368.044 249.712 374.48 249.712C380.916 249.712 382.491 247.268 382.491 242.989Z" fill="#1D1D1B" fill-opacity="0.29"/>
</g>
<path d="M462 231C462 358.578 358.578 462 231 462C103.422 462 0 358.578 0 231C0 103.422 103.422 0 231 0C358.578 0 462 103.422 462 231Z" fill="#333333" fill-opacity="0.8"/>
<path fill-rule="evenodd" clip-rule="evenodd" d="M231.386 460.332C358.227 460.332 461.052 357.507 461.052 230.666C461.052 103.825 358.227 1 231.386 1C104.545 1 1.71973 103.825 1.71973 230.666C1.71973 357.507 104.545 460.332 231.386 460.332ZM231.386 461.332C358.779 461.332 462.052 358.06 462.052 230.666C462.052 103.273 358.779 0 231.386 0C103.992 0 0.719727 103.273 0.719727 230.666C0.719727 358.06 103.992 461.332 231.386 461.332Z" fill="#333333"/>
<defs>
<clipPath id="clip0">
<rect width="337.954" height="45.8662" fill="white" transform="translate(53.4102 210.943)"/>
</clipPath>
</defs>
</svg>
