<svg width="333" height="151" fill="none" xmlns="http://www.w3.org/2000/svg"><path d="M107.424 2.408c17.856 0 25.056 9.216 25.056 23.04 0 40.608-63.648 121.536-105.12 121.536-12.672 0-18.144-7.2-18.144-18.144 0-38.88 65.376-126.432 98.208-126.432zm0-1.728h-.864C54.432.68 0 77.864 0 120.776c0 16.416 8.064 27.936 27.36 27.936 45.792 0 107.424-79.488 107.424-121.824 0-15.264-7.776-25.92-27.36-26.208zm.799 149.472c30.528 0 153.504-101.376 182.592-126.432-18.432 24.768-96.192 124.416-96.48 124.704l19.872 1.152c.288-.576 102.24-147.168 102.24-148.032 0-.576-.288-.864-.864-.864-36.576 29.376-175.68 147.744-207.072 147.744h-.576l-.288 1.728h.576z" opacity=".4" fill="#fff" fill-opacity=".7"/><path d="M54.676 77.036h-3.06c-1.836 0-2.592-.036-3.564-.18v3.672c.936-.144 1.8-.18 3.564-.18h3.06v2.232h-1.944c-1.836 0-2.592-.036-3.492-.108.108 1.116.144 1.908.144 3.456v6.192c0 1.692-.036 2.772-.144 3.852a46.618 46.618 0 013.492-.108h1.908v2.232h-3.348c-1.764 0-2.592-.036-3.528-.18v3.852c1.116-.144 1.98-.18 3.636-.18h3.24v1.8c0 1.908-.036 2.628-.216 3.672h3.996c-.18-1.044-.216-1.872-.216-3.672v-1.8h2.304c1.62 0 2.376.036 3.456.18v-3.852c-.9.144-1.836.18-3.492.18h-2.268v-2.232h2.088c1.728 0 2.412.036 3.42.108-.072-.828-.108-1.512-.108-3.924v-6.192c0-2.16 0-2.592.108-3.384-.828.072-1.476.108-3.42.108h-2.088v-2.232h2.844c1.404 0 2.556.072 3.564.18v-3.672c-.972.144-1.764.18-3.564.18h-2.844v-.54c0-1.224.072-1.908.252-2.772H54.46c.18.792.216 1.44.216 2.736v.576zm-1.764 8.784h7.272v1.98h-7.272v-1.98zm0 4.932h7.272v2.052h-7.272v-2.052zm22.644 4.5v6.444c0 .972-.216 1.152-1.368 1.152a22.22 22.22 0 01-3.672-.36c.54 1.44.756 2.304.936 3.96 1.98.108 2.304.108 2.916.108 1.728 0 2.916-.216 3.636-.72.972-.648 1.332-1.548 1.332-3.492V78.836c0-2.088.036-3.168.144-4.104-1.044.144-1.944.18-3.888.18h-5.508c-1.872 0-2.736-.036-3.96-.18.144 1.26.18 2.664.18 6.264 0 8.604-.144 12.276-.612 15.66-.504 3.564-1.26 5.292-3.492 8.028 1.44.9 1.944 1.296 3.204 2.412 1.692-2.196 2.448-3.708 3.204-6.336.504-1.8.684-2.88.9-5.508h6.048zm-5.832-3.42c.108-2.16.18-3.492.18-3.924 0-.252 0-.648.036-1.116h5.616v5.04h-5.832zm.252-8.496v-4.86h5.58v4.86h-5.58zm17.532 18.9c0 1.692-.072 3.132-.216 4.356h4.284v-2.16h16.74v2.16h4.356c-.144-1.296-.216-2.484-.216-4.356V78.98c0-1.26.036-2.304.18-3.672-1.08.144-2.196.18-3.888.18H91.324c-1.656 0-2.844-.036-3.996-.18a41.97 41.97 0 01.18 3.852v23.076zm4.068-22.932h16.74v8.352h-16.74v-8.352zm0 12.132h16.74v9.216h-16.74v-9.216zm34.956-13.608c-2.448 0-3.312-.036-4.608-.252v4.68c1.188-.18 1.872-.216 4.536-.216h17.136c-2.304 9.576-8.82 16.272-18.792 19.368 1.62 1.584 2.232 2.412 3.168 4.284 11.376-4.752 17.748-12.096 20.664-23.868.252.036.468.072.684.072a4.179 4.179 0 004.176-4.176c0-2.268-1.872-4.14-4.176-4.14-2.304 0-4.104 1.836-4.14 4.176-.612.036-1.044.072-2.124.072h-16.524zm22.788-2.448c1.332 0 2.376 1.044 2.376 2.34a2.374 2.374 0 01-2.376 2.376c-1.296 0-2.34-1.08-2.34-2.376a2.335 2.335 0 012.34-2.34zm11.952 4.752c1.116-.144 1.8-.18 4.14-.18h12.708c2.34 0 3.024.036 4.14.18v-4.428c-1.188.216-1.944.252-4.212.252h-12.564c-2.268 0-3.024-.036-4.212-.252v4.428zm22.824 4.176c-1.116.252-1.836.324-4.068.324h-17.136c-2.52 0-3.312-.036-4.68-.252v4.392c1.296-.144 2.196-.18 4.608-.18h17.532c-1.584 3.996-3.132 6.192-5.796 8.424-2.772 2.304-5.616 3.636-10.008 4.752 1.584 1.764 2.016 2.376 2.808 4.176 4.536-1.692 6.876-2.916 9.432-4.896 3.744-2.88 6.48-6.876 8.352-12.168.432-1.116.648-1.62 1.008-2.268l-2.052-2.304zm18.828-2.232v-3.744c0-1.728 0-1.872.144-3.06h-4.716c.144.9.18 1.368.18 3.204v3.6h-2.124c-2.7 0-3.384-.036-4.68-.252v4.392c1.224-.144 1.728-.18 4.608-.18h2.196v5.292c-.036 1.944-.036 2.34-.144 3.096h4.68c-.108-.864-.144-1.404-.144-3.024v-5.364h9.324c-.072 5.076-.288 6.84-1.152 9-1.548 3.492-4.572 5.76-9.684 7.2 1.476 1.512 2.088 2.376 2.7 3.816 5.184-1.728 8.712-4.5 10.692-8.388 1.332-2.844 1.692-5.148 1.764-11.628h2.376c2.916 0 3.42.036 4.644.18v-4.392c-1.296.216-1.98.252-4.716.252h-2.268c0-1.44.036-2.844.036-4.176 0-1.26 0-1.512.108-2.376h-4.608c.108.828.144 1.656.144 3.564v2.988h-9.36zm13.788-7.956c1.008 1.584 1.764 3.348 2.448 5.652l2.484-.72a22.014 22.014 0 00-2.484-5.616l-2.448.684zm9.18 3.708c-.72-2.196-1.476-3.888-2.448-5.4l-2.304.72c1.08 1.764 1.908 3.6 2.448 5.436l2.304-.756zm19.296 10.548h8.46c1.512 0 2.88.072 4.176.216v-4.284a36.668 36.668 0 01-4.176.216h-8.46v-6.156c0-1.62.072-2.808.252-4.14h-4.716c.18 1.476.252 2.556.252 4.14v23.256h-8.208c-2.052 0-3.564-.072-4.968-.216v4.32a45 45 0 014.968-.252h22.86c1.8 0 3.276.072 4.788.252v-4.32c-1.332.144-2.952.216-4.86.216h-10.368V88.376zm25.632 2.448v2.952h-3.24c-1.296 0-2.304-.072-3.276-.18v3.78a29.423 29.423 0 013.276-.18h3.24v3.636c-3.744.432-5.076.504-7.236.54l.756 4.176c1.08-.252 1.332-.288 3.78-.648 4.752-.72 7.524-1.224 12.744-2.448l-.072-3.312c-2.88.648-3.96.828-6.552 1.224v-3.168h3.204c1.476 0 2.34.036 3.312.18v-3.78c-1.008.144-1.872.18-3.312.18h-3.204v-2.952h3.204c1.224 0 2.196.036 2.88.108-.072-.72-.072-1.368-.072-3.204v-9.216c0-1.512.036-2.412.108-3.348-.936.108-1.8.144-3.312.144h-8.892c-1.368 0-2.376-.036-3.456-.144.108.9.144 1.908.144 3.312v8.892c0 1.224-.072 2.448-.144 3.564.756-.072 1.836-.108 3.024-.108h3.096zm0-12.096V81.5h-2.808v-2.772h2.808zm3.42 0h2.88V81.5h-2.88v-2.772zm-3.42 5.976v2.88h-2.808v-2.88h2.808zm3.42 0h2.88v2.88h-2.88v-2.88zm16.452-1.116c1.512-1.404 2.124-2.052 3.96-4.32.576-.72.828-1.08 1.404-1.764l-2.088-2.376c-.684.108-1.44.144-2.952.144h-5.832c-1.512 0-2.52-.036-3.492-.18v4.032c1.008-.108 1.98-.18 3.24-.18h5.688c-.72.9-1.476 1.656-2.772 2.736-1.116-.72-1.692-1.044-3.492-2.016l-2.052 2.556c2.916 1.656 4.824 2.916 6.408 4.248h-4.5c-1.584 0-2.268-.036-3.24-.18v4.14c.972-.144 1.764-.18 3.24-.18h1.692v11.988c0 .648-.288.864-1.152.864-.792 0-2.232-.144-3.672-.36.612 1.764.72 2.268.864 3.816 1.26.072 2.088.108 2.7.108 3.888 0 5.004-.792 5.004-3.528V90.248h3.204c-.864 1.764-1.656 2.916-2.952 4.464 1.08.576 1.368.756 2.916 1.944 1.512-2.052 2.412-3.636 3.564-6.192.396-.864.432-.936.828-1.764l-1.944-2.376c-.684.108-1.44.144-2.952.144h-1.872l1.728-1.836-1.476-1.044zm19.908-4.356v4.032h-4.932c-1.8 0-3.096-.036-4.212-.18a43.04 43.04 0 01.216 4.356v14.544c0 2.16-.072 3.24-.216 4.644h4.032v-2.088h21.06v2.088h4.032c-.144-1.008-.216-2.592-.216-4.608V87.44c0-1.8.036-2.916.18-4.356-1.224.144-2.412.18-4.212.18h-5.364v-4.032h7.164c1.476 0 2.88.072 4.176.216v-4.104c-1.116.144-2.52.216-4.212.216h-24.12c-1.692 0-3.132-.072-4.248-.216v4.104c1.224-.144 2.736-.216 4.176-.216h6.696zm3.672 0h3.132v4.032h-3.132v-4.032zm-3.816 7.704c-.216 2.88-.648 4.5-1.656 5.904-.792 1.116-1.8 1.98-3.312 2.772v-8.676h4.968zm6.948 0V93.2c0 2.52.864 3.132 4.356 3.132 2.592 0 3.708-.468 4.248-1.728.252-.576.36-1.296.468-2.7.036-.576.036-.576.072-.612v9.54h-21.06v-5.004c1.116.756 1.872 1.512 2.736 2.628 2.376-1.656 3.384-2.736 4.32-4.536.936-1.836 1.368-3.6 1.584-6.984h3.276zm3.564 0h5.58v3.852c-1.188-.144-1.908-.36-2.952-.9 0 2.808-.036 2.916-1.404 2.916-1.08 0-1.224-.072-1.224-.756v-5.112zM50.344 39.976v5.688c-1.608.84-2.448 1.224-4.368 1.992-.84.336-1.296.48-2.04.624l.888 2.856c.24-.12.648-.312 1.056-.48 1.704-.768 3.024-1.392 4.464-2.208v2.544c0 1.368-.048 2.088-.144 2.904h3c-.12-.768-.144-1.464-.144-2.88v-16.2c0-1.296.024-1.968.144-2.736h-3c.096.792.144 1.464.144 2.736v2.64h-3.6c-1.152 0-1.656-.024-2.256-.144v2.808c.624-.12 1.224-.144 2.256-.144h3.6zm8.352 2.544c1.704-.936 1.704-.936 2.688-1.536 1.104-.696 3.12-2.088 3.816-2.64.384-.312.528-.432.768-.6l-1.896-2.256c-.888 1.104-3.168 2.856-5.376 4.104V34.84c0-1.272.024-1.944.144-2.76h-2.952c.096.744.144 1.416.144 2.76v15.936c0 1.128.288 1.752 1.008 2.088.624.312 1.344.384 3.48.384 1.248 0 1.92-.024 2.448-.096.744-.12 1.368-.36 1.752-.696.816-.72 1.248-2.472 1.392-5.712-.84-.24-1.632-.576-2.544-1.056 0 2.184-.168 3.912-.432 4.416-.288.552-.816.696-2.496.696-1.632 0-1.944-.12-1.944-.72v-7.56zm23.4-3.648c.048.336.072.744.072 1.128 0 2.28-.336 4.584-.888 6.24-.6 1.824-1.56 3.264-3.12 4.608v-1.2c-.504.072-1.008.096-1.896.096h-4.92v-2.016c.552.432 1.056 1.008 1.632 1.848 1.248-1.68 1.992-2.904 2.856-4.752.696 1.008.696 1.008 2.016 3.336l1.536-2.184c-1.2-1.992-1.272-2.088-2.52-3.72.504-1.536.72-2.376 1.296-5.472l-2.4-.72a21.323 21.323 0 01-.624 4.104c-1.44-1.68-1.56-1.824-2.28-2.568l-1.416 1.944c1.008 1.032 1.68 1.824 2.808 3.216-.816 1.872-1.632 3.24-2.904 4.776V35.44h5.544c.792 0 1.488.024 2.208.12v-2.568c-.72.096-1.296.12-2.352.12h-5.808c-1.056 0-1.536-.024-2.136-.096.048.864.072 1.464.072 2.232V50.68c0 1.032-.048 1.92-.144 2.832h2.616v-1.44h5.688c.504.528.888 1.008 1.512 1.944 1.416-1.056 2.448-2.136 3.336-3.528 1.008-1.536 1.488-2.832 1.728-4.536.312 1.488.864 2.76 1.8 4.2.864 1.32 1.872 2.4 3.552 3.84.552-1.056.84-1.512 1.584-2.544-1.296-.912-2.232-1.704-2.952-2.52-.984-1.128-1.8-2.568-2.232-3.96-.408-1.248-.744-3.696-.744-5.328 0-.24.024-.48.072-.768h-2.592zm1.128-3.72c.528-1.944.84-3 .912-3.168l-2.76-.384c-.048.888-.456 2.712-.936 4.152-.648 1.92-1.608 3.744-2.592 5.016.792.552 1.296 1.008 1.944 1.824 1.2-1.824 1.872-3.144 2.664-5.16h4.896c-.504 1.896-1.008 3.048-1.992 4.656.744.384 1.272.72 2.16 1.416.96-1.824 1.68-3.672 2.064-5.232.312-1.272.36-1.392.576-1.968l-1.128-1.272c-.528.096-1.008.12-1.92.12h-3.888zm26.112-2.64c-.696 1.176-2.328 2.832-4.464 4.488-3.816 2.952-7.848 4.944-12.6 6.24.84 1.08 1.104 1.488 1.608 2.736 4.416-1.584 5.76-2.208 8.568-3.888v8.448c0 1.416-.024 1.896-.144 2.592h3.36c-.096-.648-.12-1.344-.12-2.664V40.216a42.44 42.44 0 005.664-4.944c.36-.384.48-.48.888-.84l-2.76-1.92zm8.592 4.08c2.232 1.248 4.2 2.832 6.12 4.872l2.064-2.616c-1.848-1.752-3.336-2.856-6.192-4.632l-1.992 2.376zm.84 15.84c.552-.192.624-.216 1.584-.408 3.72-.792 6.696-1.968 9.144-3.6 3.288-2.184 5.568-5.016 7.608-9.408-1.224-.864-1.608-1.224-2.544-2.352-.72 1.944-1.392 3.264-2.448 4.8-1.896 2.736-4.128 4.584-7.128 5.88-2.184.96-5.04 1.656-7.104 1.776l.888 3.312zm39.288-10.224c1.632 0 2.184.024 3.048.12v-2.856c-.912.144-1.464.168-3.096.168h-14.04c-1.656 0-2.184-.024-3.096-.168v2.856c.864-.096 1.416-.12 3.048-.12h5.856c-.072 1.872-.432 3.432-1.056 4.536-1.008 1.848-2.808 3.12-5.688 4.008 1.032 1.008 1.344 1.416 1.944 2.64 3.24-1.296 4.992-2.616 6.264-4.728 1.032-1.704 1.56-3.696 1.68-6.456h5.136zm-14.76-5.856c.792-.096 1.368-.12 3.048-.12h9.312c1.68 0 2.256.024 3.048.12v-2.928c-.888.144-1.368.168-3.096.168h-9.216c-1.728 0-2.208-.024-3.096-.168v2.928zm24.6-3.288c.072.624.096.936.096 2.16v6.6c0 .864-.048 1.608-.12 2.16h3.288c-.096-.6-.096-.912-.096-2.112v-6.624c0-1.272 0-1.488.096-2.16l-3.264-.024zm10.824.048c.096.552.12 1.056.12 2.28v3c0 1.92-.024 2.976-.12 4.008-.264 3.168-1.056 4.632-3.312 6.12-1.44.96-2.832 1.464-5.184 1.92 1.008 1.272 1.248 1.68 1.68 2.856 2.208-.648 3.408-1.128 4.68-1.848 2.496-1.392 4.032-3.192 4.728-5.592.432-1.512.6-3.528.624-7.272v-3.24c0-1.368.024-1.632.12-2.232h-3.336zm29.136.528c-.672.192-.888.216-2.328.216H193c-1.656 0-2.4-.048-3.312-.192v3c.984-.12 1.584-.144 3.264-.144h12.6c-.552 1.152-1.296 2.136-2.28 3.048-.984.936-1.896 1.488-3.504 2.208 1.08.816 1.44 1.176 2.16 2.184 1.128-.624 1.92-1.152 2.88-1.992 1.464-1.248 2.856-3.048 3.696-4.824.624-1.248.624-1.272.96-1.68l-1.608-1.824zm-11.4 4.848c.096.504.12.72.12 1.44 0 4.536-.768 6.6-3.216 8.544-1.176.936-2.256 1.464-4.2 2.04.96 1.008 1.272 1.44 1.896 2.736 3-1.248 4.752-2.472 6.192-4.32 1.632-2.088 2.28-4.392 2.376-8.496.024-1.464.024-1.488.096-1.944h-3.264zm36.936 11.808c-2.904-2.808-2.904-2.808-3.504-3.336-1.632-1.464-2.928-2.472-4.44-3.48 1.464-1.968 2.64-4.056 3.744-6.624.264-.6.456-.936.768-1.296l-1.584-1.632c-.6.216-.792.24-2.136.264l-8.448.12h-.576c-.984 0-1.44-.024-2.112-.144l.096 3.072c.816-.12 1.464-.168 2.616-.192 7.56-.12 7.56-.12 7.944-.144l-.264.624c-1.56 3.744-4.44 7.224-8.064 9.768-1.8 1.272-2.952 1.92-4.8 2.64.984 1.032 1.272 1.416 1.944 2.664 3.672-1.8 6.432-3.912 9.144-6.936 2.616 1.992 5.376 4.68 7.368 7.128l2.304-2.496zm21.072-15.528c-.624.216-1.128.264-2.112.288-5.856.048-5.856.048-6.24.096.12-.216.288-.504.576-1.152.456-.912.456-.912.72-1.344l-3.12-.696c-.216.888-.696 2.064-1.392 3.336-1.464 2.688-3.384 4.872-6.024 6.84 1.248.72 1.608 1.032 2.4 1.92 2.424-2.04 4.128-3.984 5.616-6.456l7.464-.072c-.744 2.256-1.56 3.936-2.688 5.664-1.8-1.416-2.808-2.088-4.824-3.216l-1.824 2.136c1.8.984 3.24 1.992 4.92 3.432-1.224 1.368-2.232 2.232-3.936 3.336-1.44.96-2.64 1.56-4.68 2.4.912.768 1.224 1.176 1.992 2.472 5.112-2.352 8.496-5.184 10.944-9.168.984-1.608 2.304-4.416 3.072-6.6.384-1.104.432-1.2.744-1.608l-1.608-1.608zm22.872-2.256c-.696 1.176-2.328 2.832-4.464 4.488-3.816 2.952-7.848 4.944-12.6 6.24.84 1.08 1.104 1.488 1.608 2.736 4.416-1.584 5.76-2.208 8.568-3.888v8.448c0 1.416-.024 1.896-.144 2.592h3.36c-.096-.648-.12-1.344-.12-2.664V40.216a42.44 42.44 0 005.664-4.944c.36-.384.48-.48.888-.84l-2.76-1.92zm10.061.72c.096.648.096.864.096 2.184 0 6.72-.552 9.816-2.28 12.576-.72 1.152-1.296 1.8-2.472 2.76 1.128.768 1.488 1.128 2.424 2.328 1.584-1.56 2.496-2.784 3.312-4.44 1.248-2.472 1.776-5.184 1.944-9.864.144-4.704.144-4.704.24-5.376l-3.264-.168zm6.36-.168c.072.456.096.984.096 1.584v.72l-.12 13.536c-.024 1.32-.048 1.848-.216 2.544l1.536 1.632c.312-.144.504-.24 1.032-.432 2.496-.984 3.744-1.704 5.112-2.88 1.584-1.416 2.832-3.216 3.816-5.592-1.104-.864-1.416-1.176-2.256-2.256-.552 1.776-1.248 3.096-2.352 4.392-1.032 1.224-1.992 1.944-3.672 2.736l.12-13.656c.024-1.176.048-1.584.168-2.28l-3.264-.048z" fill="#fff"/></svg>