<svg width="273" height="150" fill="none" xmlns="http://www.w3.org/2000/svg"><path d="M107.424 2.408c17.856 0 25.056 9.216 25.056 23.04 0 40.608-63.648 121.536-105.12 121.536-12.672 0-18.144-7.2-18.144-18.144 0-38.88 65.376-126.432 98.208-126.432zm0-1.728h-.864C54.432.68 0 77.864 0 120.776c0 16.416 8.064 27.936 27.36 27.936 45.792 0 107.424-79.488 107.424-121.824 0-15.264-7.776-25.92-27.36-26.208zm131.551 24.768l-1.44-.864c-14.976 19.008-31.968 26.496-43.2 26.496-8.064 0-13.248-3.744-13.248-9.216l.288-1.728c2.304-14.112 33.408-37.152 61.92-37.152 10.368 0 16.416 6.912 16.416 16.128 0 18.432-23.328 46.368-82.368 50.112l20.16.864c16.416 0 24.192 10.944 24.192 24.48 0 22.752-22.464 53.28-66.24 53.28-13.248 0-18.432-5.184-18.432-12.096 0-12.384 16.416-29.376 35.136-30.24 1.44 0 2.016-.288 2.016-.864 0-.288-.864-.864-2.304-.864-19.008 0-37.152 18.432-37.152 31.968 0 7.488 5.76 13.536 20.448 13.536 51.84 0 82.368-32.256 82.368-56.448 0-14.112-10.656-25.344-33.696-25.344 43.776-7.776 68.256-31.392 68.256-48.384 0-10.08-8.928-17.856-28.512-17.856-20.16 0-67.968 14.4-72.288 38.88l-.288 2.304c0 7.2 7.2 11.52 17.568 11.52 14.4 0 34.848-8.352 50.4-28.512z" opacity=".4" fill="#fff" fill-opacity=".7"/><path d="M40.536 80.204c1.26-.18 2.34-.216 4.644-.216h17.532c2.052 0 3.204.036 4.716.216v-4.536c-1.368.18-2.52.252-4.752.252H45.108c-2.196 0-3.312-.072-4.572-.252v4.536zm2.304 11.7c1.296-.144 2.34-.18 4.212-.18h13.932c1.656 0 2.736.036 4.14.18v-4.428c-1.26.144-2.52.216-4.176.216H46.98c-1.944 0-3.06-.072-4.14-.216v4.428zm27.036 8.316c-1.512.144-2.88.216-4.968.216h-21.78c-2.304 0-3.6-.072-5.076-.216v4.572c1.584-.18 2.952-.252 5.184-.252h21.78c2.412 0 3.456.072 4.86.252v-4.572zm21.492-18.468h-5.904c-1.512 0-2.772-.072-3.924-.252v3.708c1.008-.108 2.232-.18 3.816-.18h6.012v2.268h-4.32c-1.404 0-2.268-.036-3.204-.144v3.312c.864-.108 1.836-.144 3.132-.144h4.392v2.412h-4.824c-1.548 0-2.52-.036-3.492-.18v3.492c.936-.144 1.944-.18 3.456-.18h4.86v2.592h-5.724c-1.512 0-3.06-.072-3.924-.18v3.636c1.008-.144 2.34-.216 3.924-.216h5.724v1.296c0 1.548-.072 2.844-.216 3.924h4.104c-.144-1.152-.216-2.412-.216-3.924v-1.296h7.164c1.692 0 2.808.036 4.068.18v-3.6c-.972.108-2.232.18-3.996.18H95.04v-2.592h6.012c1.584 0 2.664.036 3.564.144v-3.456c-.9.144-1.944.18-3.6.18H95.04V90.32h6.3c1.548 0 2.448.036 2.844.108-.108-.864-.108-1.296-.108-3.384v-2.016h.216c1.08 0 1.764.036 2.556.144v-3.6c-.828.144-1.476.18-2.556.18h-.216v-2.664c0-.864.036-1.8.108-2.736-.72.108-1.476.144-2.88.144H95.04c0-1.656.036-2.16.216-2.916h-4.104c.18.756.216 1.368.216 2.916h-4.14c-1.368 0-2.376-.036-3.348-.18v3.456c1.044-.108 1.872-.144 3.24-.144h4.248v2.124zm3.672 0v-2.124h5.364v2.124H95.04zm0 3.276h5.364v2.268H95.04v-2.268zm-20.592-8.316c2.448 1.584 4.068 2.916 6.156 4.968l2.484-3.132c-2.232-1.98-3.672-3.06-6.192-4.608l-2.448 2.772zm-1.332 9c3.204 2.016 3.852 2.52 6.372 4.788l2.268-3.24c-2.376-1.944-3.24-2.52-6.408-4.428l-2.232 2.88zm5.148 7.2c-1.044 3.132-1.62 4.572-2.88 7.164-1.008 2.016-1.548 2.916-2.232 3.636l3.42 2.988c1.8-3.528 3.312-7.164 4.932-11.52l-3.24-2.268zm45.54-12.024c-1.692 2.88-3.528 4.968-6.264 7.128-2.556 1.98-5.184 3.492-8.532 4.824.936 1.332 1.332 2.124 1.944 3.672 2.016-.972 2.808-1.404 4.284-2.304v8.784c0 1.548-.072 2.772-.216 3.888h4.176v-1.764h13.5v1.764h4.212c-.144-1.116-.216-2.196-.216-3.888V94.1c1.728 1.044 2.412 1.404 4.464 2.34.468-1.26 1.224-2.7 1.98-3.816-3.564-1.332-6.12-2.772-8.928-4.968-2.772-2.124-4.536-4.068-6.264-6.768h-4.14zM118.8 91.724c2.772-2.16 5.292-4.716 7.164-7.416 1.944 2.772 4.284 5.184 7.236 7.416h-14.4zm.396 3.492h13.536v6.372h-13.536v-6.372zm1.116-21.528c-.972 1.692-2.016 2.916-3.924 4.392-1.656 1.332-3.636 2.448-6.48 3.816 1.08 1.08 1.728 1.908 2.52 3.24 3.456-1.872 4.212-2.304 5.904-3.672 2.34-1.872 3.564-3.132 5.22-5.4l-3.24-2.376zm8.1 2.268c3.744 4.32 6.12 6.228 11.52 9.252a21.443 21.443 0 012.268-3.6c-2.772-1.26-3.852-1.836-5.184-2.736-2.484-1.692-3.816-2.952-5.544-5.256l-3.06 2.34zm31.176 3.636H150.3c-1.656 0-3.132-.072-4.32-.216v4.284c1.224-.144 2.664-.216 4.32-.216h9.288v6.192h-6.732c-1.62 0-2.304-.036-3.276-.144.144 1.008.18 1.98.18 3.384v9.9c0 1.62-.072 2.88-.216 3.996h4.392V104.9h16.272v1.872h4.32c-.144-1.008-.216-2.232-.216-3.996v-9.9c0-1.476.036-2.376.18-3.384-.936.108-1.548.144-3.24.144h-7.38v-6.192h9.972c1.476 0 2.916.072 4.284.216v-4.284c-1.188.144-2.628.216-4.284.216h-9.972v-2.7c0-1.512.072-2.304.216-3.276h-4.716c.18.936.216 1.728.216 3.276v2.7zm-5.652 13.824h16.2v7.74h-16.2v-7.74zm53.208-7.02c1.656 0 2.736.036 3.924.108-.108-.828-.144-1.764-.144-3.312v-4.14c0-1.8 0-2.52.144-3.456-1.188.144-2.16.18-4.032.18h-17.244c-2.124 0-3.06-.036-4.356-.18a46.5 46.5 0 01.18 4.356v22.356c-2.088.288-2.844.396-3.816.396l.864 4.248c.504-.108.648-.144 1.26-.288.9-.18.9-.18 1.476-.288.576-.144 1.944-.396 3.024-.612 4.212-.864 7.092-1.584 11.196-2.844v-3.816c-3.996 1.152-5.976 1.62-10.008 2.484v-7.704l9.036-.072c.864 2.88 2.16 5.472 3.852 7.74 2.448 3.204 5.436 5.22 7.776 5.22 2.268 0 3.456-2.052 4.248-7.308-1.368-.648-2.124-1.116-3.456-2.124-.432 3.708-.792 4.968-1.368 4.968-.612 0-2.16-1.08-3.204-2.196-1.692-1.8-2.88-3.852-3.744-6.336l6.444-.072h.936c1.044 0 2.124.072 3.528.18l-.072-4.104c-1.08.18-1.908.252-4.392.252l-7.38.108c-.324-1.836-.432-2.52-.504-3.744h5.832zm-9.756 0c.18 1.728.324 2.988.468 3.744l-8.244.072v-3.816h7.776zm-7.776-7.128h17.46v3.708h-17.46v-3.708zm45.792 6.156c1.296 5.832 3.348 10.404 6.372 14.112 1.584 1.908 2.952 3.132 6.228 5.58 1.152-1.656 1.944-2.592 2.88-3.492-3.816-2.16-6.408-4.464-8.46-7.524 1.692-1.188 2.448-1.764 4.356-3.42.936-.828 1.224-1.044 2.052-1.692l-3.42-2.628c-1.476 1.872-2.772 3.132-4.716 4.572-.864-2.016-1.404-3.636-1.764-5.508h2.52c1.332 0 2.412.072 3.564.18v-3.636c-.864.144-1.512.18-3.564.18h-14.76c-1.836 0-2.592-.036-3.528-.18v3.636a34.948 34.948 0 013.528-.18h2.52c-1.296.9-2.628 1.548-4.608 2.232-1.836.684-2.7.9-5.904 1.584.972 1.296 1.296 1.836 1.908 3.024 3.636-1.08 6.084-2.088 8.532-3.42.612.72.9 1.08 1.44 1.872-3.42 2.124-7.776 3.888-12.636 5.04.864 1.044 1.368 1.836 2.016 3.06 4.464-1.476 8.928-3.564 12.06-5.652.36.828.54 1.224.828 2.052-3.78 3.024-9.468 5.724-15.12 7.236.936 1.08 1.44 1.836 2.268 3.312 5.94-2.232 9.756-4.248 13.716-7.164.072.684.144 1.332.144 2.052 0 1.944-.612 2.628-2.34 2.628-1.26 0-2.772-.18-4.572-.504.612 1.368.828 2.124 1.044 3.852 1.512.108 2.988.18 3.96.18 2.124 0 3.312-.252 4.104-.864 1.116-.864 1.656-2.412 1.656-4.788 0-3.168-.828-6.3-2.484-9.576-.972-1.908-1.728-2.988-3.168-4.572.828-.612 1.188-.9 1.944-1.584h1.404zm-3.636-8.892h-9.36c-1.764 0-2.88-.036-3.96-.144.072.756.144 1.476.144 2.52v2.808c0 1.116-.072 1.764-.18 2.556h3.924v-4.284h23.508v4.284h3.888c-.108-.792-.144-1.476-.144-2.556v-2.808c0-1.152.036-1.764.144-2.52-1.116.108-2.268.144-3.996.144h-9.972v-.792c0-.864.036-1.404.18-2.124h-4.392c.144.72.216 1.332.216 2.16v.756zM52.824 36.616c-.6.192-.816.216-1.896.216l-5.328.024c.072-.768.072-.984.096-1.512.048-1.248.048-1.248.096-1.752 0-.168.024-.312.024-.456.024-.336.048-.432.096-.744l-3.216-.072c.072.432.072.624.072.936v.6c0 .696-.048 2.088-.12 3l-4.2.024c-1.2 0-1.848-.048-2.664-.192l.024 2.952c.792-.096 1.128-.12 2.592-.12l3.984-.024c-.024.168-.072.408-.12.744-.216 1.68-.576 2.856-1.224 4.176-1.272 2.568-3.24 4.464-6.24 6.048 1.008.888 1.344 1.272 2.16 2.544 3.024-1.92 5.16-4.104 6.48-6.648 1.08-2.064 1.584-3.864 1.92-6.864l5.592-.024c0 2.76-.24 6.024-.528 7.68-.384 2.088-.744 2.616-1.776 2.616-.792 0-1.752-.168-3.168-.552.432 1.104.504 1.56.552 3.072 1.248.192 2.064.264 2.976.264 2.88 0 3.72-.984 4.344-5.136.24-1.584.504-5.28.576-7.992.024-.84.072-1.176.264-1.608l-1.368-1.2zm23.808-2.352c-.744.192-1.224.24-2.568.24H63.048c-1.632 0-2.136-.024-3.072-.168v3.12c.864-.12 1.416-.144 3.024-.144h11.424c-1.176 4.656-3.528 8.04-7.272 10.464-1.776 1.152-3.144 1.776-5.256 2.448 1.128 1.104 1.44 1.56 2.112 2.856 4.008-1.728 6.576-3.48 8.928-6.12 2.304-2.592 3.72-5.472 4.92-10.056a3.61 3.61 0 01.408-1.08l-1.632-1.56zm17.664 7.872h3.432c1.176 0 1.536.024 2.184.096V39.52c-.672.12-1.2.168-2.208.168h-9.432c-.96 0-1.536-.048-2.184-.168v2.76c.816-.12 1.32-.144 2.208-.144h3.216v7.728h-4.704c-1.104 0-1.536-.024-2.208-.144v2.688c.672-.072 1.152-.096 2.232-.096h12.36c1.056 0 1.536.024 2.232.096V49.72c-.672.12-1.104.144-2.232.144h-4.896v-7.728zm33.096 8.16c-2.904-2.808-2.904-2.808-3.504-3.336-1.632-1.464-2.928-2.472-4.44-3.48 1.464-1.968 2.64-4.056 3.744-6.624.264-.6.456-.936.768-1.296l-1.584-1.632c-.6.216-.792.24-2.136.264l-8.448.12h-.576c-.984 0-1.44-.024-2.112-.144l.096 3.072c.816-.12 1.464-.168 2.616-.192 7.56-.12 7.56-.12 7.944-.144l-.264.624c-1.56 3.744-4.44 7.224-8.064 9.768-1.8 1.272-2.952 1.92-4.8 2.64.984 1.032 1.272 1.416 1.944 2.664 3.672-1.8 6.432-3.912 9.144-6.936 2.616 1.992 5.376 4.68 7.368 7.128l2.304-2.496zm21.072-15.528c-.624.216-1.128.264-2.112.288-5.856.048-5.856.048-6.24.096.12-.216.288-.504.576-1.152.456-.912.456-.912.72-1.344l-3.12-.696c-.216.888-.696 2.064-1.392 3.336-1.464 2.688-3.384 4.872-6.024 6.84 1.248.72 1.608 1.032 2.4 1.92 2.424-2.04 4.128-3.984 5.616-6.456l7.464-.072c-.744 2.256-1.56 3.936-2.688 5.664-1.8-1.416-2.808-2.088-4.824-3.216l-1.824 2.136c1.8.984 3.24 1.992 4.92 3.432-1.224 1.368-2.232 2.232-3.936 3.336-1.44.96-2.64 1.56-4.68 2.4.912.768 1.224 1.176 1.992 2.472 5.112-2.352 8.496-5.184 10.944-9.168.984-1.608 2.304-4.416 3.072-6.6.384-1.104.432-1.2.744-1.608l-1.608-1.608zm22.872-2.256c-.696 1.176-2.328 2.832-4.464 4.488-3.816 2.952-7.848 4.944-12.6 6.24.84 1.08 1.104 1.488 1.608 2.736 4.416-1.584 5.76-2.208 8.568-3.888v8.448c0 1.416-.024 1.896-.144 2.592h3.36c-.096-.648-.12-1.344-.12-2.664V40.216a42.44 42.44 0 005.664-4.944c.36-.384.48-.48.888-.84l-2.76-1.92zm10.061.72c.096.648.096.864.096 2.184 0 6.72-.552 9.816-2.28 12.576-.72 1.152-1.296 1.8-2.472 2.76 1.128.768 1.488 1.128 2.424 2.328 1.584-1.56 2.496-2.784 3.312-4.44 1.248-2.472 1.776-5.184 1.944-9.864.144-4.704.144-4.704.24-5.376l-3.264-.168zm6.36-.168c.072.456.096.984.096 1.584v.72l-.12 13.536c-.024 1.32-.048 1.848-.216 2.544l1.536 1.632c.312-.144.504-.24 1.032-.432 2.496-.984 3.744-1.704 5.112-2.88 1.584-1.416 2.832-3.216 3.816-5.592-1.104-.864-1.416-1.176-2.256-2.256-.552 1.776-1.248 3.096-2.352 4.392-1.032 1.224-1.992 1.944-3.672 2.736l.12-13.656c.024-1.176.048-1.584.168-2.28l-3.264-.048z" fill="#fff"/></svg>