<svg width="399" height="149" fill="none" xmlns="http://www.w3.org/2000/svg"><path d="M107.424 2.408c17.856 0 25.056 9.216 25.056 23.04 0 40.608-63.648 121.536-105.12 121.536-12.672 0-18.144-7.2-18.144-18.144 0-38.88 65.376-126.432 98.208-126.432zm0-1.728h-.864C54.432.68 0 77.864 0 120.776c0 16.416 8.064 27.936 27.36 27.936 45.792 0 107.424-79.488 107.424-121.824 0-15.264-7.776-25.92-27.36-26.208zm131.839 33.984l-.864-1.152c-.288.288-31.68 39.456-55.008 39.456-6.624 0-9.792-4.032-9.792-9.792 0-19.296 31.104-59.616 71.424-59.616 13.536 0 27.936 5.472 27.936 20.448l-.288 4.32c-6.624 36.864-135.36 73.44-143.712 120.384h1.44c1.728-9.504 11.808-18.144 25.92-27.072 14.4.864 10.368 27.36 42.624 27.36 24.48 0 44.64-43.488 44.64-43.776l-1.44-.288s-19.872 39.456-43.2 39.456c-8.352 0-4.608-24.192-37.152-25.92 40.32-23.616 105.696-48.096 113.184-90.144l.576-5.184c0-15.552-16.128-21.312-30.24-21.312-43.488 0-83.232 38.016-83.232 59.328 0 8.64 6.336 14.4 20.736 14.4 24.48 0 56.448-40.608 56.448-40.896z" opacity=".4" fill="#fff" fill-opacity=".7"/><path d="M28.272 78.476c-1.116.288-1.836.36-3.996.36H13.8c-1.944 0-2.736-.072-3.996-.288v4.572c1.26-.18 2.016-.216 4.032-.216h11.232c-.504 4.932-1.26 10.008-2.268 14.76H10.236c-2.556 0-3.348-.036-4.716-.252v4.536c1.296-.144 2.124-.18 4.644-.18h21.744c2.484 0 3.312.036 4.608.18v-4.536c-1.368.216-2.16.252-4.68.252h-4.248c.936-5.4 1.332-7.956 2.196-14.328.18-1.368.36-2.124.756-2.988l-2.268-1.872zm17.388 5.4c1.188-.144 2.052-.18 4.212-.18h14.22c2.16 0 3.024.036 4.212.18v-4.752c-1.296.216-2.124.252-4.248.252H49.908c-2.124 0-2.952-.036-4.248-.252v4.752zm-3.636 17.604c1.26-.144 2.196-.18 4.536-.18h20.808c2.34 0 3.276.036 4.536.18v-4.824c-1.368.216-2.16.252-4.608.252H46.632c-2.448 0-3.24-.036-4.608-.252v4.824zm40.248-21.348c1.116-.144 1.8-.18 4.14-.18H99.12c2.34 0 3.024.036 4.14.18v-4.428c-1.188.216-1.944.252-4.212.252H86.484c-2.268 0-3.024-.036-4.212-.252v4.428zm22.824 4.176c-1.116.252-1.836.324-4.068.324H83.892c-2.52 0-3.312-.036-4.68-.252v4.392c1.296-.144 2.196-.18 4.608-.18h17.532c-1.584 3.996-3.132 6.192-5.796 8.424-2.772 2.304-5.616 3.636-10.008 4.752 1.584 1.764 2.016 2.376 2.808 4.176 4.536-1.692 6.876-2.916 9.432-4.896 3.744-2.88 6.48-6.876 8.352-12.168.432-1.116.648-1.62 1.008-2.268l-2.052-2.304zm33.408-9.54c-1.044 1.764-3.492 4.248-6.696 6.732-5.724 4.428-11.772 7.416-18.9 9.36 1.26 1.62 1.656 2.232 2.412 4.104 6.624-2.376 8.64-3.312 12.852-5.832v12.672c0 2.124-.036 2.844-.216 3.888h5.04c-.144-.972-.18-2.016-.18-3.996V86.324a63.66 63.66 0 008.496-7.416c.54-.576.72-.72 1.332-1.26l-4.14-2.88zm37.944 2.628c-1.116.288-1.836.36-3.852.36h-16.524c-2.448 0-3.204-.036-4.608-.252v4.68c1.296-.18 2.124-.216 4.536-.216h17.136c-1.764 6.984-5.292 12.06-10.908 15.696-2.664 1.728-4.716 2.664-7.884 3.672 1.692 1.656 2.16 2.34 3.168 4.284 6.012-2.592 9.864-5.22 13.392-9.18 3.456-3.888 5.58-8.208 7.38-15.084.18-.756.288-1.008.612-1.62l-2.448-2.34zm17.568 8.568v8.532c-2.412 1.26-3.672 1.836-6.552 2.988-1.26.504-1.944.72-3.06.936l1.332 4.284c.36-.18.972-.468 1.584-.72 2.556-1.152 4.536-2.088 6.696-3.312v3.816c0 2.052-.072 3.132-.216 4.356h4.5c-.18-1.152-.216-2.196-.216-4.32v-24.3c0-1.944.036-2.952.216-4.104h-4.5c.144 1.188.216 2.196.216 4.104v3.96h-5.4c-1.728 0-2.484-.036-3.384-.216v4.212c.936-.18 1.836-.216 3.384-.216h5.4zm12.528 3.816c2.556-1.404 2.556-1.404 4.032-2.304 1.656-1.044 4.68-3.132 5.724-3.96.576-.468.792-.648 1.152-.9l-2.844-3.384c-1.332 1.656-4.752 4.284-8.064 6.156V78.26c0-1.908.036-2.916.216-4.14h-4.428c.144 1.116.216 2.124.216 4.14v23.904c0 1.692.432 2.628 1.512 3.132.936.468 2.016.576 5.22.576 1.872 0 2.88-.036 3.672-.144 1.116-.18 2.052-.54 2.628-1.044 1.224-1.08 1.872-3.708 2.088-8.568-1.26-.36-2.448-.864-3.816-1.584 0 3.276-.252 5.868-.648 6.624-.432.828-1.224 1.044-3.744 1.044-2.448 0-2.916-.18-2.916-1.08V89.78zm41.832-3.492c1.98 0 3.06.072 4.5.252v-4.572c-1.224.18-2.484.252-4.536.252h-9.54c.036-1.332.072-2.16.072-3.636.036-2.412.072-2.952.252-4.212h-4.752c.144 1.008.252 2.088.252 3.6 0 1.872-.036 2.448-.108 4.248h-8.82c-2.124 0-3.42-.072-4.536-.252v4.572c1.188-.18 2.232-.252 4.5-.252h8.496c-.864 6.12-3.276 10.152-8.1 13.572-1.8 1.26-3.24 2.016-5.832 3.06 1.152 1.296 1.908 2.412 2.52 3.78 3.564-1.548 6.156-3.24 8.604-5.652 2.88-2.844 4.788-5.94 5.868-9.648 1.332 3.348 3.096 6.228 5.436 8.712 2.556 2.772 5.04 4.608 8.892 6.588.9-1.944 1.404-2.7 2.628-4.14-4.284-1.764-7.272-3.816-9.936-6.84-2.376-2.7-4.284-6.192-5.184-9.432h9.324zm38.232-3.096c-.648.144-1.476.18-2.916.18h-8.928v-4.608h10.584c1.764 0 2.7.036 3.924.18v-3.996c-1.116.144-2.304.216-4.032.216h-10.116c-1.584 0-2.988-.072-4.248-.18.108 1.116.144 2.484.144 4.392 0 2.16-.108 5.328-.252 8.028-.216 4.392-.612 6.948-1.296 9-1.116 3.204-2.52 5.256-5.4 7.812 1.332.828 1.836 1.296 3.096 2.772 2.772-2.916 4.176-5.004 5.4-8.172 1.26-3.348 1.8-6.372 2.052-11.952h.54c.792 5.22 1.62 7.704 3.672 11.052-2.304 2.628-4.68 4.284-8.388 5.94.972.828 1.8 1.836 2.556 3.168 3.816-1.98 5.796-3.456 8.136-6.012 1.908 2.196 3.816 3.744 7.272 5.832.612-1.872 1.08-2.772 1.98-3.924-3.132-1.548-5.004-2.88-6.912-5.004 1.692-2.592 2.988-5.58 3.924-8.964.792-2.916.792-2.988 1.08-3.708l-1.872-2.052zm-2.556 3.672c-.936 3.816-1.548 5.472-2.916 7.848-1.224-2.124-1.944-4.356-2.556-7.848h5.472zm-26.244 15.84c0 1.836-.072 3.132-.216 4.14h4.176c-.144-1.188-.18-2.268-.18-3.708V78.224h4.428c-1.188 3.744-1.944 5.508-3.564 8.136 1.548 1.692 2.124 2.592 2.7 4.104.36 1.008.576 2.016.576 2.844 0 .648-.18 1.152-.504 1.368-.18.108-.648.18-1.332.18-.288 0-.504 0-1.764-.108.54 1.008.72 1.836.756 3.672h.72c3.96 0 5.652-1.512 5.652-5.04 0-2.304-.792-4.5-2.628-7.344 1.584-3.132 2.376-4.86 3.132-6.912.144-.396.216-.684.252-.756.072-.144.108-.288.108-.288.18-.432.18-.432.36-.756l-1.872-2.7c-.648.108-1.224.144-2.412.144h-6.156c-1.008 0-1.656-.036-2.34-.108.072.972.108 2.16.108 3.456v24.588zm37.728-22.5c1.26-.18 2.34-.216 4.644-.216h17.532c2.052 0 3.204.036 4.716.216v-4.536c-1.368.18-2.52.252-4.752.252h-17.568c-2.196 0-3.312-.072-4.572-.252v4.536zm2.304 11.7c1.296-.144 2.34-.18 4.212-.18h13.932c1.656 0 2.736.036 4.14.18v-4.428c-1.26.144-2.52.216-4.176.216H301.98c-1.944 0-3.06-.072-4.14-.216v4.428zm27.036 8.316c-1.512.144-2.88.216-4.968.216h-21.78c-2.304 0-3.6-.072-5.076-.216v4.572c1.584-.18 2.952-.252 5.184-.252h21.78c2.412 0 3.456.072 4.86.252v-4.572zm11.844-9.324c-1.08 2.628-2.52 5.112-4.572 7.848l4.32.792c.864-1.332 1.152-1.8 1.656-2.7h14.436c-.36 3.132-.756 4.752-1.296 5.472-.432.54-1.224.756-2.988.756-1.296 0-3.924-.216-6.372-.504.684 1.512.936 2.592.972 3.852 2.196.144 3.564.216 5.436.216 3.78 0 5.148-.396 6.264-1.764.972-1.188 1.656-3.996 2.268-9.18.18-1.548.252-2.088.288-2.304-.972.108-1.8.144-3.708.144h-13.572c.468-.936.648-1.368 1.188-2.628h16.2c1.8 0 3.204.072 4.248.216v-3.888c-1.044.144-2.412.216-4.248.216h-24.48c-1.836 0-3.204-.072-4.212-.216v3.888c1.08-.144 2.448-.216 4.176-.216h3.996zm-3.6-8.532c0 1.26-.036 2.052-.144 3.06 1.08-.108 1.944-.144 3.708-.144h16.632c1.836 0 2.628.036 3.708.144-.108-.972-.144-1.728-.144-3.06v-4.68c0-1.224.036-2.124.144-2.988-.972.144-2.052.18-4.104.18h-15.876c-1.656 0-2.808-.036-4.068-.18.108 1.008.144 1.764.144 2.988v4.68zm19.8-4.104v3.708h-15.948V78.26h15.948zm34.848 2.304h6.12c1.692 0 2.952.072 3.672.18v-3.852c-1.08.144-2.088.216-3.708.216h-6.084v-.54c0-1.368.036-2.016.216-2.736h-3.996c.144.792.216 1.548.216 2.736v.54h-5.22c-1.692 0-2.7-.072-3.78-.216v3.204c-.468.036-.864.072-1.476.072h-.972v-2.772c0-1.692.072-2.772.18-3.744h-4.104c.144.936.18 1.944.18 3.78v2.736h-2.052c-1.152 0-1.764-.036-2.412-.18v3.852c.612-.108 1.332-.144 2.412-.144h1.692c-.504 1.944-.936 3.204-1.584 4.788-1.26 3.024-2.052 4.536-3.312 6.228.72 1.224 1.08 1.98 1.764 3.996 1.692-2.484 2.628-4.608 3.744-8.424-.144 1.224-.144 1.512-.18 2.772 0 .324 0 .648-.036 1.044v8.568c0 1.836-.072 3.276-.252 4.428h4.176c-.144-1.116-.216-2.52-.216-4.428v-9.216c0-1.656-.072-3.384-.216-4.896.9 2.34 1.476 3.456 2.34 4.608.576-1.476.972-2.16 1.62-3.024v2.088c0 1.548-.036 2.448-.144 3.42.828-.144 1.764-.18 3.168-.18h2.808c-1.296 1.656-1.764 2.124-2.952 3.132-1.98 1.728-3.744 2.844-5.76 3.744 1.08 1.116 1.476 1.728 2.34 3.42 3.744-2.304 6.12-4.572 8.352-7.956-.072.828-.108 1.62-.108 2.484v3.492c0 1.548-.036 2.268-.216 3.276h3.996c-.18-1.044-.216-1.728-.216-3.276v-3.528c0-.756-.072-1.944-.144-2.628.828 1.512 1.8 2.7 3.492 4.248 1.728 1.62 3.024 2.556 5.148 3.744.576-1.512 1.152-2.484 2.232-3.708-3.78-1.584-6.552-3.564-9-6.444h3.384c1.512 0 2.52.036 3.42.18-.144-.936-.18-1.836-.18-3.456v-6.48c0-1.656.036-2.448.18-3.348-.864.108-1.728.144-3.204.144h-5.328v-1.944zm-3.564 0v1.944h-4.536c-1.44 0-2.448-.036-3.312-.144.108.972.144 1.764.144 3.276v3.96c-1.692-1.944-2.7-3.6-3.528-5.904h.828c.72 0 1.296.036 1.872.108v-3.132a40.537 40.537 0 013.276-.108h5.256zm0 5.04v1.944h-4.212v-1.944h4.212zm3.564 0h4.752v1.944h-4.752v-1.944zm-3.564 4.752v2.016h-4.212v-2.016h4.212zm3.564 0h4.788v2.016h-4.788v-2.016zM18.336 32.512c-.696 1.176-2.328 2.832-4.464 4.488-3.816 2.952-7.848 4.944-12.6 6.24.84 1.08 1.104 1.488 1.608 2.736 4.416-1.584 5.76-2.208 8.568-3.888v8.448c0 1.416-.024 1.896-.144 2.592h3.36c-.096-.648-.12-1.344-.12-2.664V40.216a42.44 42.44 0 005.664-4.944c.36-.384.48-.48.888-.84l-2.76-1.92zm8.592 4.08c2.232 1.248 4.2 2.832 6.12 4.872l2.064-2.616c-1.848-1.752-3.336-2.856-6.192-4.632l-1.992 2.376zm.84 15.84c.552-.192.624-.216 1.584-.408 3.72-.792 6.696-1.968 9.144-3.6 3.288-2.184 5.568-5.016 7.608-9.408-1.224-.864-1.608-1.224-2.544-2.352-.72 1.944-1.392 3.264-2.448 4.8-1.896 2.736-4.128 4.584-7.128 5.88-2.184.96-5.04 1.656-7.104 1.776l.888 3.312zm40.008-16.656l.888-.288c-.648-1.512-1.224-2.472-2.208-3.72l-1.848.552c.744.96 1.176 1.632 1.728 2.712-.264.048-.816.072-1.32.096l-4.992.048h-.576c-.36.024-.432.024-.672.048.12-.216.168-.312.576-1.152.432-.888.456-.912.72-1.368l-3.12-.696c-.192.888-.6 1.824-1.416 3.336-1.392 2.616-3.552 5.064-6 6.864 1.2.696 1.656 1.056 2.4 1.92 2.184-1.8 4.296-4.2 5.616-6.456l7.464-.072c-.672 2.064-1.68 4.2-2.688 5.664-1.68-1.32-2.928-2.16-4.824-3.216l-1.824 2.136c1.512.792 3.456 2.136 4.92 3.408-1.92 2.28-5.016 4.344-8.616 5.736.84.72 1.272 1.272 1.992 2.496 7.248-3.36 10.968-7.488 13.824-15.336.36-1.008.456-1.224.744-1.608l-.768-1.104zm4.128-1.2c-.648-1.464-1.224-2.424-2.208-3.6l-1.776.576a17.476 17.476 0 012.136 3.672l1.848-.648zm22.488 15.72c-2.904-2.808-2.904-2.808-3.504-3.336-1.632-1.464-2.928-2.472-4.44-3.48 1.464-1.968 2.64-4.056 3.744-6.624.264-.6.456-.936.768-1.296l-1.584-1.632c-.6.216-.792.24-2.136.264l-8.448.12h-.576c-.984 0-1.44-.024-2.112-.144l.096 3.072c.816-.12 1.464-.168 2.616-.192 7.56-.12 7.56-.12 7.944-.144l-.264.624c-1.56 3.744-4.44 7.224-8.064 9.768-1.8 1.272-2.952 1.92-4.8 2.64.984 1.032 1.272 1.416 1.944 2.664 3.672-1.8 6.432-3.912 9.144-6.936 2.616 1.992 5.376 4.68 7.368 7.128l2.304-2.496zm11.256 2.784c-.072-.792-.096-1.416-.096-2.664V44.08c0-.672-.024-.96-.096-1.632.192.12.264.144.816.408 4.008 1.848 6.504 3.216 8.496 4.584l1.68-2.832c-3.84-2.16-7.608-3.912-10.896-5.064V35.08c0-1.488 0-1.8.096-2.52h-3.288c.096.648.144 1.272.144 2.448v15.384c0 1.272-.024 1.92-.144 2.688h3.288zm19.248-20.016c.072.624.096.936.096 2.16v6.6c0 .864-.048 1.608-.12 2.16h3.288c-.096-.6-.096-.912-.096-2.112v-6.624c0-1.272 0-1.488.096-2.16l-3.264-.024zm10.824.048c.096.552.12 1.056.12 2.28v3c0 1.92-.024 2.976-.12 4.008-.264 3.168-1.056 4.632-3.312 6.12-1.44.96-2.832 1.464-5.184 1.92 1.008 1.272 1.248 1.68 1.68 2.856 2.208-.648 3.408-1.128 4.68-1.848 2.496-1.392 4.032-3.192 4.728-5.592.432-1.512.6-3.528.624-7.272v-3.24c0-1.368.024-1.632.12-2.232h-3.336zm29.136.528c-.672.192-.888.216-2.328.216H150c-1.656 0-2.4-.048-3.312-.192v3c.984-.12 1.584-.144 3.264-.144h12.6c-.552 1.152-1.296 2.136-2.28 3.048-.984.936-1.896 1.488-3.504 2.208 1.08.816 1.44 1.176 2.16 2.184 1.128-.624 1.92-1.152 2.88-1.992 1.464-1.248 2.856-3.048 3.696-4.824.624-1.248.624-1.272.96-1.68l-1.608-1.824zm-11.4 4.848c.096.504.12.72.12 1.44 0 4.536-.768 6.6-3.216 8.544-1.176.936-2.256 1.464-4.2 2.04.96 1.008 1.272 1.44 1.896 2.736 3-1.248 4.752-2.472 6.192-4.32 1.632-2.088 2.28-4.392 2.376-8.496.024-1.464.024-1.488.096-1.944h-3.264zm18.941-5.256c.096.648.096.864.096 2.184 0 6.72-.552 9.816-2.28 12.576-.72 1.152-1.296 1.8-2.472 2.76 1.128.768 1.488 1.128 2.424 2.328 1.584-1.56 2.496-2.784 3.312-4.44 1.248-2.472 1.776-5.184 1.944-9.864.144-4.704.144-4.704.24-5.376l-3.264-.168zm6.36-.168c.072.456.096.984.096 1.584v.72l-.12 13.536c-.024 1.32-.048 1.848-.216 2.544l1.536 1.632c.312-.144.504-.24 1.032-.432 2.496-.984 3.744-1.704 5.112-2.88 1.584-1.416 2.832-3.216 3.816-5.592-1.104-.864-1.416-1.176-2.256-2.256-.552 1.776-1.248 3.096-2.352 4.392-1.032 1.224-1.992 1.944-3.672 2.736l.12-13.656c.024-1.176.048-1.584.168-2.28l-3.264-.048zm33.713 17.232c-2.904-2.808-2.904-2.808-3.504-3.336-1.632-1.464-2.928-2.472-4.44-3.48 1.464-1.968 2.64-4.056 3.744-6.624.264-.6.456-.936.768-1.296l-1.584-1.632c-.6.216-.792.24-2.136.264l-8.448.12h-.576c-.984 0-1.44-.024-2.112-.144l.096 3.072c.816-.12 1.464-.168 2.616-.192 7.56-.12 7.56-.12 7.944-.144l-.264.624c-1.56 3.744-4.44 7.224-8.064 9.768-1.8 1.272-2.952 1.92-4.8 2.64.984 1.032 1.272 1.416 1.944 2.664 3.672-1.8 6.432-3.912 9.144-6.936 2.616 1.992 5.376 4.68 7.368 7.128l2.304-2.496zm21.072-15.528c-.624.216-1.128.264-2.112.288-5.856.048-5.856.048-6.24.096.12-.216.288-.504.576-1.152.456-.912.456-.912.72-1.344l-3.12-.696c-.216.888-.696 2.064-1.392 3.336-1.464 2.688-3.384 4.872-6.024 6.84 1.248.72 1.608 1.032 2.4 1.92 2.424-2.04 4.128-3.984 5.616-6.456l7.464-.072c-.744 2.256-1.56 3.936-2.688 5.664-1.8-1.416-2.808-2.088-4.824-3.216l-1.824 2.136c1.8.984 3.24 1.992 4.92 3.432-1.224 1.368-2.232 2.232-3.936 3.336-1.44.96-2.64 1.56-4.68 2.4.912.768 1.224 1.176 1.992 2.472 5.112-2.352 8.496-5.184 10.944-9.168.984-1.608 2.304-4.416 3.072-6.6.384-1.104.432-1.2.744-1.608l-1.608-1.608zm22.872-2.256c-.696 1.176-2.328 2.832-4.464 4.488-3.816 2.952-7.848 4.944-12.6 6.24.84 1.08 1.104 1.488 1.608 2.736 4.416-1.584 5.76-2.208 8.568-3.888v8.448c0 1.416-.024 1.896-.144 2.592h3.36c-.096-.648-.12-1.344-.12-2.664V40.216a42.44 42.44 0 005.664-4.944c.36-.384.48-.48.888-.84l-2.76-1.92zm10.061.72c.096.648.096.864.096 2.184 0 6.72-.552 9.816-2.28 12.576-.72 1.152-1.296 1.8-2.472 2.76 1.128.768 1.488 1.128 2.424 2.328 1.584-1.56 2.496-2.784 3.312-4.44 1.248-2.472 1.776-5.184 1.944-9.864.144-4.704.144-4.704.24-5.376l-3.264-.168zm6.36-.168c.072.456.096.984.096 1.584v.72l-.12 13.536c-.024 1.32-.048 1.848-.216 2.544l1.536 1.632c.312-.144.504-.24 1.032-.432 2.496-.984 3.744-1.704 5.112-2.88 1.584-1.416 2.832-3.216 3.816-5.592-1.104-.864-1.416-1.176-2.256-2.256-.552 1.776-1.248 3.096-2.352 4.392-1.032 1.224-1.992 1.944-3.672 2.736l.12-13.656c.024-1.176.048-1.584.168-2.28l-3.264-.048z" fill="#fff"/></svg>