<svg xmlns="http://www.w3.org/2000/svg" viewBox="0 0 2390.4 1507.32"><g data-name="Layer 2"><path d="M2390.4 1497.42h-442.31c-128.81 0-229.69 0-285-3.22s-65-9.65-79.57-40-34.07-84.61-48.16-126.62-22.78-71.74-27.83-104.35-6.43-68.09-7.21-90.79-1-32.61.26-38.69 3.82-8.35 20.09-11 46.17-5.57 61.74-9.57 16.78-9 15.82-38.52-4.08-83.39-5.21-117.05-.26-47 2.35-54.26 6.95-8.26 10-6.61 4.78 6 6.95 33 4.79 76.79 6.44 107.75 2.35 43.13 5 50.87 7.39 11 19.83 13.57 32.61 4.26 44.09 7.48 14.26 7.91 15.56 20.87 1.13 34.17.09 56.87a580.46 580.46 0 01-7.65 74c-4.7 27.13-12.18 57.22-15.48 81.31s-2.44 42.18-.35 54.35 5.39 18.44 11.39 23 14.7 7.3 21 11 10.35 8.17 11.91 12.78a14 14 0 01-2.43 13.39c-3.13 4.09-8.53 7.57-21.22 10.44s-32.7 5.13-45.83 3-19.39-8.52-22.35-39.65-2.61-87-5.22-134-8.17-85.31-10.08-113.49-.18-46.26 2.69-55.91 6.87-10.87 17-10.61 26.26 2 42.09.78 31.3-5.39 39.74-13.13 9.82-19 11-62.18 2-118.09 1.56-167-2.17-71.66-7.83-104.44-15.21-75.57-18.26-101.74.44-35.75 3.83-48.44 6.69-28.52 7.3-41.57-1.47-23.3-7.21-30.78-15.14-12.18-30.27-8.61-36 15.39-52 26.87-27.13 22.61-30.87 33.83-.09 22.52 3.83 40.26 8.08 41.91 9.21 65.83-.78 47.57-4.69 65.65-9.83 30.61-20.09 43.48-24.87 26.09-33.13 35.22-10.18 14.18-8.7 18.53 6.35 8 16.87 6.78 26.7-7.31 39.13-13.65 21.14-13 32.61-17 25.75-5.65 34.7-9.56 12.61-10.18 14-17.13.52-14.61-2.17-23-7.22-17.65-8.87-30.26-.44-28.61.43-50.61 1.39-50 3.4-64.53 5.47-15.56 13.13-13.13a57.81 57.81 0 0128.26 20.18c8.78 11.82 14.52 29.56 26.7 42.26s30.78 20.35 50.08 25.48 39.31 7.74 49.57 5.22 10.79-10.18 11.92-22.79 2.87-30.17 7-48.26 10.78-36.7 13.57-61.57 1.74-56 .17-78.35-3.65-35.92-9.65-53.22-15.92-38.35-23.39-65.48-12.53-60.35-17-79-8.52-22.61-25.48-27.4-46.87-10.34-70.65-15.65-41.44-10.35-52.4-15.09-15.15-9.16-17.88-14.56-3.83-11.87-3.18-20 3.09-17.83 4.83-24 2.78-8.79 4.26-9 3.39 2 12.22 12.69 24.57 30.05 37.7 41.79 23.65 15.91 35.91 18 26.26 2.08 36.35.39 16.26-5.09 22.91-13 13.79-20.47 18.09-29.74 5.79-15.26 3.48-26-8.39-26.09-14.13-37.57-11.13-19-19.87-26.31a109.34 109.34 0 00-31.44-17.91c-10.61-3.7-19.74-4.13-32.74 1.78s-29.87 18.18-40.17 24.26-14 6-20.74 5.09-16.35-2.65-21.44-2.13-5.61 3.31-3.56 8.13a58 58 0 0011.6 16.57 42.22 42.22 0 0016.48 9.91c6.22 2.18 13.35 3.65 16.92 2.83s3.56-4 4.82-7.52 3.79-7.57 7-8.57 7 1 9.87 6 4.78 13 6 23.78 1.74 24.35 1 31.18-2.74 6.91-5.17 5.26a22.85 22.85 0 01-7.22-9.35c-1.91-4.3-2.87-9.52-5.87-14.09s-8-8.47-10-11.3-.69-4.57 2-5 6.74.3 14 .56 17.83 0 23.31 1.52 5.91 4.83 5 8.83-3.18 8.7-4.7 12.83-2.3 7.69.65 12.78 9.66 11.7 22.31 26.44 31.26 37.61 41.18 55.48 11.13 30.74 10 38.65-4.61 10.87-14.87 9.39-27.31-7.39-35.66-6.52-8 8.52-3.82 24.61 12.17 40.61 16.17 54.18 4 16.17-8.09 18.61-36.26 4.69-49.39 7-15.22 4.78-13.91 13.39 6 23.39 13 38.7 16.44 31.13 21.48 44.26 5.74 23.57 5 35-2.78 23.74-4.13 33.74-2 17.65-1 24.83 3.61 13.87 7.87 17.09 10.17 3 19.78-7 22.91-29.48 31.09-43.57 11.22-22.69 10.48-36.3-5.26-32.22-9.87-51.79-9.31-40.09-10.83-53.48.13-19.65 1.22-25.22 1.61-10.43-.26-21.48a263.31 263.31 0 00-13-46.52c-6.91-18.26-16.48-37.57-24.56-49s-14.7-14.87-22.09-17.52-15.57-4.48-28.09-6.35-29.39-3.78-46-6.87a403.63 403.63 0 01-52.18-13.65c-19.34-6.31-41.78-14.66-55.91-20.4s-20-8.87-25-9.95-9.17-.13-14.17.56-10.83 1.13-15.09-1.3-7-7.74-8.39-12.22-1.61-8.13 1.82-12.35 10.48-9 17.61-11.52 14.35-2.78 26.66-1.09 29.69 5.35 49.61 10.44 42.35 11.61 56.91 18.09 21.27 12.91 29.74 19 18.74 11.82 35.61 18 40.35 12.91 53.92 21.48 17.22 19 14.44 26.74-12 12.78-21.66 12.35-19.74-6.35-27-9-11.56-2.17-16.34 12.27-10 42.78-11.83 61.74-.26 28.52 2.17 32.52 5.74 2.44 8.53-8.09 5-30 6.78-45.65 3-27.48 2.09-36-3.83-13.74-24.09-20.79-57.83-15.91-96.18-25.47-77.48-19.83-103-24.35-37.57-3.31-45-3.92-10.17-3-7.39-12.17 11.13-25 20.83-35.83 20.74-16.78 29.87-20.61a83.42 83.42 0 0126.78-6.56 186.14 186.14 0 0135.18-.05c11.09 1.22 19.61 3.91 26.17 7.39s11.18 7.74 14.22 8.79 4.52-1.13 5.74-8 2.17-18.44 5.65-25.57 9.48-9.83 15.39-13.61 11.74-8.65 14.79-12.65 3.3-7.13-1.74-10.13-15.39-5.87-26.92-8.48-24.21-5-45.52-6-51.22-.91-68.7-2.21-22.52-4.09-25.74-9.74-4.61-14.18-3-25.4 6.35-25.13 12.22-35 12.92-15.69 25.31-18.74 30.13-3.3 45-2.22 26.87 3.53 36.31 9.05a46.79 46.79 0 0120.17 24.57c3.87 10.43 4.74 22.69 5 31.82s-.22 15.13-1.78 18-4.27 2.74-16.18 1.35-33-4-51.87-5.44-35.35-1.7-48 0S1455 87 1446.3 91.78s-17.43 10.61-22 15.14-5.13 7.74-1.66 11.17 11 7.09 25 9.78 34.53 4.44 58.31 5.09 50.83.22 67.65-1.69 23.44-5.31 26.31-7.83 2-4.18-9.74-5.39-34.35-2-58.18-2.48-48.87-.65-63.09 3.48-17.61 12.56-19.3 20.48-1.7 15.3 1 25.08 8.09 22 10.78 30.88 2.7 14.56 2 18.95-2.22 7.53-13.61 13.7-32.7 15.39-51.22 24.13-34.26 17-48.13 37.83-25.87 54.22-32 77.35-6.26 36-2.87 43.31 10.35 9 24.09 12.17 34.26 7.65 44.87 12.7 11.3 10.61 9.91 21-4.87 25.48-10.17 43.56-12.44 39.14-15.22 60.61-1.22 43.4-2 75.83-3.91 75.4-5.87 99-2.74 28-4.13 31.22-3.39 5.31-12.74 7.83-26 5.48-34.48 8.52-8.61 6.17-8.44 9.61.7 7.17 2.26 9.35 4.18 2.78 10.92 1.69 17.61-3.87 26.74-5.82 16.52-3.09 21.35-2.61 7.08 2.56 10.65 8a92 92 0 0111.53 25.58c3.17 11.39 4.65 25.39 4.87 34.78s-.83 14.18-2.48 16.44-3.91 2-6.83-3.22-6.47-15.39-9.21-19.57-4.66-2.34-5.39 2.74-.31 13.44 2.52 22.44 8 18.65 10 25.18.78 9.91-2.65 13.13a17.15 17.15 0 01-16.74 4.21c-7.65-2-17.31-9.17-25.26-17.26a107.44 107.44 0 01-18.13-24.61c-3.92-7.48-5.48-13.39-6.18-22.35a211.88 211.88 0 01.09-28.78c.61-7.83 1.65-11.48 4.87-14.26s8.61-4.7 16.3-6.22 17.7-2.65 24-7 8.78-11.78 9.7-16.43.21-6.48-6.31-9.39a186.27 186.27 0 00-28-9c-9.08-2.13-14.91-2.39-18.08-4.74s-3.7-6.78-6.53-33.56-8-75.92-9.21-116 1.34-71.27 4.48-99.88 6.78-54.7 10.39-72.61 7.17-27.65 10.43-32.35 6.22-4.35 17.39-1.61 30.57 7.87 41.79 10.05 14.26 1.39 14.61-7.44-2-25.7-6.83-45.48-12.13-42.48-15.09-58-1.56-23.87 1.74-26.05 8.53 1.83 15.4 18 15.39 44.53 22.34 73.83 12.35 59.57 17.66 101.49 10.52 95.48 11.39 140-2.61 80-4.61 100.88-2.52 27.13-.35 30.87 7 5 30.87 5.13 66.62-.7 89.75-1.83 26.61-2.52 28.17-5.13a6.52 6.52 0 00-1.91-8.69c-3.13-2.26-9-3-29.65-3.13s-55.92.17-79.23 5-34.61 14-40.43 32.44-6.18 46.09-1.48 96.26 14.43 122.88 20.52 163.4 8.52 48.88 17.48 54.62 24.44 8.87 44.26 9.39 44-1.57 57.57-.35 16.52 5.74 19.05 19.13 4.61 35.65 7.13 63.57 5.48 61.48 7.91 99.48 4.35 80.44 8.09 106.79 9.3 36.61 12.78 47a87.43 87.43 0 014.7 28.35c-.18 7.56-1.92 12.26-22.87 14.61s-61.14 2.35-127.84-1.65-159.92-12-210.79-17.57-59.39-8.7-63.74-12-4.52-6.78.43-13.57 15-16.87 20.61-31 6.61-32.17 5.05-47.13-5.74-26.78-16.7-50.87-28.7-60.44-38.09-81.05-10.43-25.48-7.3-28.52 10.43-4.26 21.3-7.39 25.31-8.18 32.18-14.7 6.17-14.52.87-29.83-15.22-37.91-23.05-66.78-13.56-64-15.74-83.83-.78-24.35 2.7-27 9-3.31 19.74-1.3a133.4 133.4 0 0142.35 16.08c15.83 9.39 31.65 23.48 47.65 40.35s32.18 36.53 45.4 58.88 23.48 47.39 29 69.91a213.42 213.42 0 015.57 59.22c-.61 16.7-2.52 30.09-8 43.57s-14.52 27-26.18 35.39-25.91 11.48-38.34 7.83-23-14.09-29.66-30.09-9.22-37.57-9.83-49.39.79-13.92 6.35-14.79 15.31-.52 21-5.21 7.22-14.44 4.61-28.61-9.39-32.79-22.35-52.36-32.09-40.08-43.91-52.26-16.35-16-24.7-36.17-20.52-56.7-31.92-90.1-22-63.65-29.48-94-11.82-60.79-15-91.22-5-60.87-3.48-81.14 6.61-30.35 13.3-33.82 15-.35 25.66 16 23.48 45.91 30.78 65.13 9 28.09 9 33.83-1.74 8.35-9.74 12.61-22.27 10.17-29.92 15.13-8.7 9-8.26 18.87a214.29 214.29 0 007.48 44.78c5.13 19 13.48 41.31 20.61 60.14s13 34.22 17.09 45.7 6.21 19 9 24a18.78 18.78 0 009.7 8.78c3.39 1.35 6.69 1.61 9.78-1s6-8 6.56-16.27-1-19.52-5.17-41.48-10.74-54.65-16.48-78.22-10.61-38-14.35-47.09-6.35-12.82-8.43-15-3.65-2.91-10.44-3.91-18.78-2.31-25.56-5.09-8.35-7-10-17.05a285.8 285.8 0 01-3.48-43.78c-.09-18 1.48-38.39 1.56-53.18s-1.3-24-9.3-31.48-22.61-13.21-37.74-14.26-30.79 2.61-49.48 4.35-40.44 1.57-51-1.83-10.09-10-8.44-17.3 4.44-15.31 1.92-27-10.35-27.21-16.52-41.91S965.8 496 964.67 483.2s1.13-24.44 8.43-37.92 19.66-28.78 32.53-38.61 26.26-14.17 41.56-13.39 32.53 6.69 44.53 14.78a56.1 56.1 0 0122.69 30.18c3.92 11.82 5 25.22 4.09 39.65s-3.65 29.92-7.82 41.57-9.74 19.48-20 24.61-25.21 7.56-39.48 7.74-27.82-1.92-37.91-9.22-16.7-19.83-21.74-31.39-8.55-22.2-8.27-34.44 4.26-26.17 10.69-37.48 15.31-20 26.09-25.13a59.62 59.62 0 0136.35-4.35c12.87 2.35 25.92 8.61 34.26 19s12 24.78 12.18 38.09-3.13 25.48-6.17 42-5.83 37.39-5.48 57 3.82 38.08 3.47 48.61-4.52 13.13-16.87 15-32.87 3.13-49.39 2.7-29-2.53-38.78-5.83-16.7-7.83-23.92-9.74-14.71-1.17-23.3 2.37-18.35 10-25 18.17-10.41 18.12-13.7 35.43-6.26 42-6.87 57.48 1.16 21.74 9.16 28.78 22.26 14.87 29.74 22.35 8.17 14.61 8.7 26.61a481.39 481.39 0 01-.35 49.65c-1.22 20.79-4 45.49-4.26 64.44a171.63 171.63 0 005.13 45.31c3.13 13.13 7.13 26.17 10 37.22a166.87 166.87 0 015.39 30c.78 9.91.61 20.7-3 26.78s-10.79 7.48-18.7 4.7-16.61-9.74-22.26-18.7-8.26-19.91-8.78-31.48 1-23.74 1-42.17-1.82-43.13-3.22-71.22-2.43-59.57-2.69-81.83.26-35.31 1.91-45.31 4.44-17 8-19.74 7.92-1.39 13.13 1.17 11.31 6.31 14.74 6.48 4.1-3.22 3.52-11.12-2.61-20.35-3.43-34.39-.48-29.7 1.61-37.53 5.91-7.82 8.87-5.56 5 6.78 7.91 23.91 6.52 46.88 8.61 87.05 2.61 90.79 3.39 123.14 1.83 46.44 2.87 55.57 2.09 13.3 7.83 16.87 16.17 6.52 32.69 7.82 39.14 1 58.27-.78a357.82 357.82 0 0050.87-8.61c16.09-3.74 32.61-8.09 41-8s8.52 4.61 7.65 8.35-2.78 6.69-15.91 11.22-37.48 10.61-50 17-13.21 13-10.61 39 8.53 71.65 13.22 98.61 8.18 35.31 20.53 40.53 33.56 7.3 52.61 6.52 35.91-4.44 46.78-3.91 15.74 5.21 20.26 17.47 8.7 32.09 11 51.92 2.87 39.65 8.26 57.92 15.65 35 20.09 51.22 3 32.08.78 44.61-5.39 21.74-12 25.82-16.7 3-45.31 4.09-75.74 4.18-108 5.74-49.66 1.57-61.57.26-18.35-3.91-22.61-8.26-6.35-10.43-4.7-18.52 7-18.18 9.31-27 1.39-16.52-2.52-31.48-10.87-37.22-16.7-60.87-10.52-48.7-11.65-64.7 1.3-23 15.48-26.78 40.08-4.52 53.56-11 14.53-18.87 12.09-45.65-8.35-68-12.26-94.87-5.83-39.4-9.22-46.18-8.26-7.83-20.09-8.35-30.61-.52-45-2.17-24.27-5-29.22-4.53-5 4.61-4.53 16.87 1.31 32.62 3.31 55.75 5.13 49 7.22 69.65 3.13 35.92 5.13 46 5 15 15.39 19.4 28.35 8.43 42.09 11.48 23.3 5.13 29 11.56 7.66 17.22 8.18 42.53-.35 65.13 1.82 91.3 7.4 38.7 9.31 49.14.52 18.78-14.26 28.87-43 21.91-107.31 33.39-164.88 22.61-229.23 28-92.53 5.05-113 3.48-33.39-4.35-41.65-12.09-11.92-20.43-11-43.3 6.52-55.92 9.48-91.14 3.3-72.61 9.21-109.22 17.4-72.44 23.48-105.31 6.79-62.79 8.44-80.61 4.26-23.57 24.7-31 58.69-16.44 78.7-17.31 21.74 6.44 17.21 25.05-15.3 48.52-21 77-6.44 55.65-11.91 93.83-15.74 87.39-27.66 125.74-25.48 65.83-30.52 85.48-1.57 31.48 4.43 40.44 14.53 15 16.35 19.48-3 7.22-15.22 7.65-31.65-1.48-43.74-5.13-16.78-9-18.35-21.22 0-31.13 4.7-72 12.52-103.66 21-157.49 17.48-98.7 16.26-131.48-12.7-53.48-24.18-65.4-22.95-15-40.69-15.56-41.74 1.56-57-1.22-21.91-10.43-29.91-35.48-17.48-67.5-24.99-108.2-13-79.65-12.66-113.74 6.61-63.31 15-89.4 18.78-49 26.35-62.26 12.26-16.7 16.6-17.22 8.35 1.91 9.4 5-.87 7-5.74 6.09-12.7-6.43-18.44-13.39-9.39-15.31-11.74-25.22-3.39-21.39-12.78-31.22-27.13-18-40.61-25.91-22.7-15.57-26.79-23.05-3-14.78 3.83-29.13 19.57-35.74 24.44-52.44 1.91-28.69-.61-41-4.61-25.05-3.39-36 5.74-20.18 12.08-26.61 14.53-10.09 23.13-14.7 17.66-10.17 31.49-23.39 32.43-34.09 41.74-49.31 9.3-24.78 6.61-36.52-8.09-25.66-11.66-32.18-5.3-5.65-9.22 3.22-10 25.74-17.21 41.74-15.57 31.13-22 44.31-11 24.39-12.18 34 .87 17.48 7.78 22.27 18.66 6.43 32.22 6 29-2.83 47.4-5.87 39.91-6.7 51.69-7.78 13.87.39 14.92 4.56 1 11.05 3.09 18.92a72.75 72.75 0 0012.91 25.61c6.78 8.87 16.26 17.74 22.13 24.13s8.13 10.3 8 15.09-2.52 10.43-9.78 13.21-19.35 2.7-31-2.39-22.74-15.17-33.56-25.13-21.35-19.78-27.44-28.3-7.74-15.74-7-20.48 4-7 11.61-8.22 19.61-1.39 35.14-5a215.09 215.09 0 0050.87-19.3c16.3-8.79 29.87-19.4 37.26-23.27s8.61-1 9.09 4 .21 12.14-2.61 16.7-8.22 6.57-12.22 6.7-6.61-1.61-2.83-9.18 14-21 25-32 23-19.87 31.87-31.4 14.82-25.78 20.3-37 10.52-19.39 16.18-23.48 11.91-4.08 19.56-1.3 16.7 8.35 23.66 9.74 11.82-1.39 12.43-5.91-3-10.79-12.61-15.14-25-6.78-42.26-9.82-36.18-6.7-49.48-11.74-21-11.48-30.87-21-22.09-22-35.83-29-29.05-8.61-44.09-6.87-29.83 6.78-43.91 14.26-27.48 17.39-35.66 25.91-11.13 15.65-12.87 29.22-2.26 33.57-2.43 46.61 0 19.13 7.56 23.74 22.52 7.74 43.48 3.91 47.92-14.6 70.18-28.69 39.83-31.48 57.22-37.74 34.61-1.39 43.83 2 10.43 5.3 10.09 10.08-2.27 12.44-8.09 22.7-15.57 23.13-28.44 35.13-28.87 23.13-40.09 32.27-17.65 16.26-20.78 26.43-3 23.39 4.87 30.09 23.3 6.87 40 9.74 34.61 8.43 46.53 14.44 17.82 12.43 21 21.21 3.74 19.92 5.65 39.66 5.22 48.09 9.92 70.78 10.78 39.74 20 65.22 21.56 59.4 31 93.84 16.09 69.39 21.22 102.26 8.78 63.66 9.91 85.66-.26 35.22-4.08 47.22-9.92 22.77-17.28 30.42-15.92 12.18-21.66 13-8.69-2.17-5.82-10.87 11.56-23.13 16.52-40.35 6.17-37.22 6.44-61.92-.44-54.08-4.79-78.26-12.35-43.13-23-61.57-24.09-36.35-39-57-31.22-44.18-42.09-64A201.39 201.39 0 01720.48 459c-3.82-15.74-6.08-31-6-45.13s2.52-27 10.61-39.57 21.83-25 30.44-29.57 12.09-1.47 13.22 2.7-.09 9.39-6.09 19.57-16.78 25.3-26.35 44.43-17.91 42.29-23.74 52.57-9.13 7.65-12.26 2.61-6.09-12.53-6.44-37.48 1.92-67.4 2.26-90.44-1.21-26.69-2.69-27.69-2.87.79-4.09 6-2.26 13.92-4.26 36.53-5 59.13-7.83 79.57-5.65 24.78-16.52 34.08a450.42 450.42 0 01-49.57 35.92c-19.74 12.35-40.26 22.78-55.57 28.26s-25.39 6-42.43-1-41-21.65-55.31-33.31-18.78-20.35-19.74-30.35 1.65-21.3 7.57-35.56 15.13-31.48 27-44.88 26.52-23 41.22-26.52 29.48-1.13 51.83 12.7 52.26 39 68.18 54.35 17.82 20.69 17.82 24.87-1.91 7.13-14.78 15.65-36.7 22.61-51 29-19 5-37-2.44-49.53-20.87-65.88-31.98-17.57-20-14.35-30.87 10.87-23.74 21.39-34.09 23.92-18.17 32-20.52 10.87.78 10.79 5.65-3 11.48-7.92 18.87A147.76 147.76 0 01506 423.71c-7.31 7.22-15.13 13.48-20.87 23.83s-9.4 24.79-3.13 35.92 22.43 19 34.26 29.39 19.3 23.48 23.91 36.17 6.35 25.05 4.61 42.18-7 39-12.09 57.48S522.56 682.07 520 700s-2.78 38.78 0 61 8.52 45.91 25.13 68.17 44.09 43.14 81 57.57 83.14 22.44 115 21.39 49.21-11.13 58.26-26.09 9.74-34.78 2.78-47.3-21.68-17.74-49.86-21.88-69.92-7.3-97.74-5.56-41.74 8.35-49.05 15.91-8 16.09-5 23.22 9.56 12.87 27.56 20 47.4 15.65 67.31 19.74 30.35 3.74 41.66 2.35 23.47-3.83 37.21-3.3 29 4 38.7 12.78 13.65 22.87 15.92 39.3 2.78 35.22 2.95 47.31 0 17.48-4.52 22.09-13.39 8.43-33.31 14.09-50.87 13.13-74.35 18.08-39.48 7.4-54.78 1.74-29.92-19.39-46.18-28-34.17-12.08-49-14-26.7-2.26-35.66 2.87-15 15.74-17 29.13.08 29.57-.44 46.18-3.65 33.65-8.17 54.52-10.44 45.57-12.61 71.66-.61 53.57 3.22 88.35 9.91 76.88 12.95 105 3 42.18 2.53 53-1.57 18.26 4.34 24.26 18.79 10.53 27.92 11.4 14.52-1.92 16.35-6 .08-9.48-3.57-13.4a26 26 0 00-13.48-7.13c-4.26-.78-7.22.09-13.65 3.92s-16.35 10.61-34.09 14-43.31 3.39-91.31 3.39H0" fill="none" stroke="#000003" stroke-miterlimit="2.61" stroke-width="3" data-name="Layer 1"/></g></svg>