<svg width="69" height="18" viewBox="0 0 69 18" fill="none" xmlns="http://www.w3.org/2000/svg">
<path d="M18.1521 11.7678L17.4561 13.1838C16.5281 14.5598 15.4321 15.5758 14.1681 16.2318C12.9201 16.8718 11.4321 17.2238 9.70411 17.2878H9.29611C7.60011 17.2718 6.08011 16.9118 4.73611 16.2078C3.40811 15.4878 2.36011 14.5038 1.59211 13.2558C0.840111 12.0078 0.464111 10.5918 0.464111 9.00782C0.464111 7.40782 0.848111 5.98382 1.61611 4.73582C2.40011 3.47182 3.48011 2.49582 4.85611 1.80783C6.23211 1.10382 7.78411 0.751824 9.51211 0.751824C11.4321 0.751824 13.1521 1.24782 14.6721 2.23983C16.2081 3.23182 17.3521 4.57582 18.1041 6.27182L14.9361 6.29583C14.4081 5.38382 13.6641 4.67183 12.7041 4.15983C11.7601 3.64783 10.6961 3.39182 9.51211 3.39182C8.32811 3.39182 7.27211 3.63182 6.34411 4.11182C5.41611 4.57582 4.69611 5.23982 4.18411 6.10382C3.67211 6.95182 3.41611 7.91982 3.41611 9.00782C3.41611 10.0158 3.64011 10.9438 4.08811 11.7918C4.60011 12.6398 5.31211 13.3198 6.22411 13.8318C7.15211 14.3278 8.16011 14.5998 9.24811 14.6478H9.63211C10.7361 14.6158 11.7681 14.3518 12.7281 13.8558C13.7041 13.3598 14.4321 12.6558 14.9121 11.7438L18.1521 11.7678Z" fill="#333333"/>
<path d="M24.6132 0.319824V16.9998H21.9252V0.319824H24.6132Z" fill="#333333"/>
<path d="M30.5901 4.68783C30.1101 4.68783 29.7021 4.53583 29.3661 4.23183C29.0461 3.92783 28.8861 3.55182 28.8861 3.10382C28.8861 2.65582 29.0461 2.28782 29.3661 1.99983C29.7021 1.69582 30.1101 1.54382 30.5901 1.54382C31.0541 1.54382 31.4541 1.69582 31.7901 1.99983C32.1261 2.30383 32.2941 2.67182 32.2941 3.10382C32.2941 3.53582 32.1261 3.91183 31.7901 4.23183C31.4541 4.53583 31.0541 4.68783 30.5901 4.68783ZM29.2221 16.9998V5.57583H31.9101V16.9998H29.2221Z" fill="#333333"/>
<path d="M42.0512 17.2878C40.8192 17.2878 39.7072 17.0318 38.7152 16.5198C37.7232 16.0078 36.9472 15.2958 36.3872 14.3838C35.8272 13.4718 35.5472 12.4398 35.5472 11.2878C35.5472 10.1358 35.8272 9.11183 36.3872 8.21583C36.9632 7.30383 37.7392 6.59183 38.7152 6.07983C39.7072 5.56783 40.8192 5.31182 42.0512 5.31182C42.9792 5.31182 43.8752 5.48782 44.7392 5.83982C45.6032 6.17582 46.3792 6.67182 47.0672 7.32782L45.1472 9.12783C44.7472 8.69583 44.2752 8.35983 43.7312 8.11983C43.2032 7.86383 42.6432 7.73583 42.0512 7.73583C40.9312 7.73583 40.0272 8.06383 39.3392 8.71982C38.6512 9.37582 38.3072 10.2318 38.3072 11.2878C38.3072 12.3438 38.6512 13.1998 39.3392 13.8558C40.0272 14.4958 40.9392 14.8158 42.0752 14.8158C43.2592 14.8158 44.3232 14.3358 45.2672 13.3758L47.1392 15.1998C46.4032 15.8718 45.6032 16.3918 44.7392 16.7598C43.8752 17.1118 42.9792 17.2878 42.0512 17.2878Z" fill="#333333"/>
<path d="M53.2772 14.0238V16.9998H50.5892V0.319824H53.2772V10.5678L58.5812 5.57583H62.3732L56.9492 10.6638L62.3252 16.9998H58.9412L55.0532 12.3678L53.2772 14.0238Z" fill="#333333"/>
<path d="M68.3845 1.37582L68.1925 12.4638H65.5285L65.3605 1.37582H68.3845ZM66.8725 17.2398C66.4085 17.2398 66.0085 17.0878 65.6725 16.7838C65.3365 16.4798 65.1685 16.1118 65.1685 15.6798C65.1685 15.2478 65.3365 14.8798 65.6725 14.5758C66.0085 14.2558 66.4085 14.0958 66.8725 14.0958C67.3365 14.0958 67.7285 14.2478 68.0485 14.5518C68.3845 14.8558 68.5525 15.2318 68.5525 15.6798C68.5525 16.1118 68.3845 16.4798 68.0485 16.7838C67.7285 17.0878 67.3365 17.2398 66.8725 17.2398Z" fill="#333333"/>
</svg>
