<svg width="14" height="197" fill="none" xmlns="http://www.w3.org/2000/svg"><path d="M13.216 189.757c0 1.26-.258 2.4-.774 3.42-.516 1.008-1.236 1.8-2.16 2.376-.924.576-1.974.864-3.15.864-1.164 0-2.202-.288-3.114-.864-.924-.576-1.644-1.368-2.16-2.376-.516-1.02-.774-2.16-.774-3.42 0-1.272.258-2.412.774-3.42.516-1.02 1.236-1.818 2.16-2.394.912-.576 1.95-.864 3.114-.864 1.176 0 2.226.288 3.15.864.924.576 1.644 1.374 2.16 2.394.516 1.008.774 2.148.774 3.42zm-1.656 0c0-.936-.186-1.77-.558-2.502-.372-.744-.894-1.32-1.566-1.728-.672-.42-1.44-.63-2.304-.63-.852 0-1.614.21-2.286.63-.672.408-1.194.984-1.566 1.728-.372.732-.558 1.566-.558 2.502 0 .912.186 1.74.558 2.484a4.279 4.279 0 001.566 1.728c.672.408 1.434.612 2.286.612.864 0 1.632-.204 2.304-.612a4.279 4.279 0 001.566-1.728c.372-.732.558-1.56.558-2.484zm-.918-.054c0 .72-.15 1.374-.45 1.962a3.378 3.378 0 01-1.242 1.35 3.465 3.465 0 01-1.818.486c-.672 0-1.272-.162-1.8-.486a3.463 3.463 0 01-1.26-1.368 4.254 4.254 0 01-.45-1.962c0-.648.162-1.254.486-1.818a4.142 4.142 0 011.314-1.422l.954 1.476c-.732.48-1.098 1.068-1.098 1.764 0 .576.174 1.05.522 1.422.348.36.792.54 1.332.54.552 0 1.002-.18 1.35-.54.348-.36.522-.828.522-1.404 0-.756-.372-1.368-1.116-1.836l.918-1.494c.576.384 1.026.87 1.35 1.458.324.588.486 1.212.486 1.872zM13 171.793v8.298h-1.188l-.18.162-4.536-4.95c-.372-.384-.696-.66-.972-.828a1.764 1.764 0 00-.954-.27c-.564 0-1.008.18-1.332.54-.336.36-.504.852-.504 1.476 0 .516.138 1.002.414 1.458.276.444.66.828 1.152 1.152l-1.188 1.638a4.917 4.917 0 01-1.692-1.854 5.039 5.039 0 01-.612-2.43c0-.792.15-1.506.45-2.142a3.46 3.46 0 011.314-1.494c.564-.372 1.242-.558 2.034-.558.66 0 1.236.138 1.728.414.48.276 1.008.726 1.584 1.35l2.574 2.79v-4.752H13zm.216-8.176c0 1.02-.246 1.938-.738 2.754-.504.816-1.206 1.458-2.106 1.926-.9.456-1.926.684-3.078.684s-2.172-.228-3.06-.684c-.9-.468-1.596-1.11-2.088-1.926-.492-.816-.738-1.734-.738-2.754s.252-1.938.756-2.754c.492-.816 1.188-1.452 2.088-1.908.888-.468 1.902-.702 3.042-.702s2.16.234 3.06.702c.9.456 1.602 1.092 2.106 1.908.504.816.756 1.734.756 2.754zm-1.944 0c0-.612-.168-1.158-.504-1.638-.336-.48-.804-.858-1.404-1.134-.612-.276-1.302-.414-2.07-.414-.768 0-1.452.138-2.052.414-.6.276-1.068.654-1.404 1.134a2.787 2.787 0 00-.504 1.638c0 .612.168 1.158.504 1.638.336.48.804.858 1.404 1.134.6.264 1.284.396 2.052.396.78 0 1.47-.132 2.07-.396.6-.276 1.068-.654 1.404-1.134.336-.48.504-1.026.504-1.638zM13 147.359v8.298h-1.188l-.18.162-4.536-4.95c-.372-.384-.696-.66-.972-.828a1.764 1.764 0 00-.954-.27c-.564 0-1.008.18-1.332.54-.336.36-.504.852-.504 1.476 0 .516.138 1.002.414 1.458.276.444.66.828 1.152 1.152l-1.188 1.638a4.917 4.917 0 01-1.692-1.854 5.039 5.039 0 01-.612-2.43c0-.792.15-1.506.45-2.142a3.46 3.46 0 011.314-1.494c.564-.372 1.242-.558 2.034-.558.66 0 1.236.138 1.728.414.48.276 1.008.726 1.584 1.35l2.574 2.79v-4.752H13zm.216-8.175c0 1.02-.246 1.938-.738 2.754-.504.816-1.206 1.458-2.106 1.926-.9.456-1.926.684-3.078.684s-2.172-.228-3.06-.684c-.9-.468-1.596-1.11-2.088-1.926-.492-.816-.738-1.734-.738-2.754s.252-1.938.756-2.754c.492-.816 1.188-1.452 2.088-1.908.888-.468 1.902-.702 3.042-.702s2.16.234 3.06.702c.9.456 1.602 1.092 2.106 1.908.504.816.756 1.734.756 2.754zm-1.944 0c0-.612-.168-1.158-.504-1.638-.336-.48-.804-.858-1.404-1.134-.612-.276-1.302-.414-2.07-.414-.768 0-1.452.138-2.052.414-.6.276-1.068.654-1.404 1.134a2.787 2.787 0 00-.504 1.638c0 .612.168 1.158.504 1.638.336.48.804.858 1.404 1.134.6.264 1.284.396 2.052.396.78 0 1.47-.132 2.07-.396.6-.276 1.068-.654 1.404-1.134.336-.48.504-1.026.504-1.638zM13 115.426v2.754l-5.238 3.87v1.71l5.256.018v2.142H1.048v-5.886c0-.84.144-1.566.432-2.178.276-.624.666-1.098 1.17-1.422.504-.336 1.086-.504 1.746-.504.924 0 1.692.318 2.304.954.612.624.96 1.494 1.044 2.61L13 115.426zm-7.182 8.334v-3.726c0-.6-.126-1.068-.378-1.404-.264-.336-.618-.504-1.062-.504-.444 0-.786.168-1.026.504-.252.324-.378.792-.378 1.404v3.726h2.844zM13 103.463v9.414H1.03v-9.27h1.944v7.11H5.98v-6.12h1.944v6.12h3.132v-7.254H13zm0-13.669v1.836l-8.262 6.606H13v2.16H1.03v-1.854l8.244-6.588H1.03v-2.16H13zm.216-9.84c0 1.296-.258 2.46-.774 3.492-.528 1.032-1.266 1.842-2.214 2.43-.948.576-2.022.864-3.222.864-1.2 0-2.268-.288-3.204-.864a5.9 5.9 0 01-2.196-2.43c-.528-1.032-.792-2.196-.792-3.492 0-1.296.264-2.454.792-3.474.516-1.032 1.248-1.836 2.196-2.412.936-.588 2.004-.882 3.204-.882 1.2 0 2.274.294 3.222.882.936.576 1.668 1.38 2.196 2.412.528 1.02.792 2.178.792 3.474zm-1.98 0c0-.888-.174-1.674-.522-2.358a3.983 3.983 0 00-1.494-1.62c-.648-.384-1.386-.576-2.214-.576-.828 0-1.56.192-2.196.576a3.863 3.863 0 00-1.476 1.62c-.36.684-.54 1.47-.54 2.358 0 .888.18 1.68.54 2.376a3.828 3.828 0 001.494 1.62c.636.384 1.362.576 2.178.576.828 0 1.566-.192 2.214-.576a3.983 3.983 0 001.494-1.62c.348-.696.522-1.488.522-2.376zM13 64.763v2.106L1.03 72.163v-2.395l9.18-3.941-9.18-3.942V59.49L13 64.763zm0-17.286v9.414H1.03v-9.27h1.944v7.11H5.98v-6.12h1.944v6.12h3.132v-7.255H13zm0-12.481v9.414H1.03v-9.27h1.944v7.11H5.98v-6.12h1.944v6.12h3.132v-7.254H13zm0-13.668v1.835L4.738 29.77H13v2.16H1.03v-1.854l8.244-6.588H1.03v-2.16H13zm.216-9.84c0 1.296-.258 2.46-.774 3.492-.528 1.032-1.266 1.842-2.214 2.43-.948.576-2.022.864-3.222.864-1.2 0-2.268-.288-3.204-.864a5.9 5.9 0 01-2.196-2.43c-.528-1.032-.792-2.196-.792-3.492 0-1.296.264-2.454.792-3.474.516-1.032 1.248-1.836 2.196-2.412.936-.588 2.004-.882 3.204-.882 1.2 0 2.274.294 3.222.882.936.576 1.668 1.38 2.196 2.412.528 1.02.792 2.178.792 3.474zm-1.98 0c0-.888-.174-1.674-.522-2.358A3.983 3.983 0 009.22 7.51c-.648-.384-1.386-.576-2.214-.576-.828 0-1.56.192-2.196.576a3.863 3.863 0 00-1.476 1.62c-.36.684-.54 1.47-.54 2.358 0 .888.18 1.68.54 2.376a3.828 3.828 0 001.494 1.62c.636.384 1.362.576 2.178.576.828 0 1.566-.192 2.214-.576a3.983 3.983 0 001.494-1.62c.348-.696.522-1.488.522-2.376zm1.944-9.447c0 .372-.12.69-.36.954-.24.252-.528.378-.864.378-.348 0-.636-.126-.864-.378-.24-.252-.36-.57-.36-.954 0-.372.12-.684.36-.936.24-.264.528-.396.864-.396.336 0 .624.132.864.396.24.252.36.564.36.936z" fill="#333"/></svg>