<svg width="329" height="650" fill="none" xmlns="http://www.w3.org/2000/svg"><path d="M.736 275.656c1.088.704 1.808 1.328 2.784 2.464a16.688 16.688 0 012.784 4.352c.368-.368.544-.496.912-.672a18.5 18.5 0 00-2.08-3.392c-1.088-1.408-2-2.288-3.504-3.36a13.44 13.44 0 002.688-2.464 22.365 22.365 0 002.944-4.512 4.141 4.141 0 01-1.008-.64 16.778 16.778 0 01-2.624 4.384c-1.008 1.232-1.808 1.968-2.896 2.64v1.2zm5.952 3.12a9.202 9.202 0 01-.064-1.248v-4.976c0-.608.016-.992.064-1.344H5.6c.048.336.064.72.064 1.344v4.96c0 .592-.016.976-.064 1.264h1.088zm8.352.112h-.928v-7.728h.928v-1.152a11.12 11.12 0 01-1.568.096H9.936c-.624 0-1.04-.016-1.472-.08.048.336.064.672.064 1.248v7.504c0 .576-.016.912-.064 1.248.448-.064.88-.08 1.472-.08h3.536c.608 0 1.072.032 1.568.096v-1.152zm-5.536 0v-7.728h3.664v7.728H9.504zm-3.696-22.736v1.408c0 .8-.032 1.344-.096 1.84h1.152a15.613 15.613 0 01-.096-1.84v-1.408h6.112c1.136 0 1.648.032 2.288.112v-1.28c-.608.096-1.264.128-2.288.128H6.768v-1.52c0-.8.032-1.328.096-1.92H5.712c.064.528.096 1.056.096 1.92v1.52H2.576c-.688 0-1.28-.032-1.776-.112v1.264c.576-.08 1.024-.112 1.776-.112h3.232zm-3.456 9.12a9.67 9.67 0 01-.064-1.296v-2.608c0-.544.016-.848.064-1.264H1.344c.064.384.08.704.08 1.264v2.608c0 .576-.016.912-.08 1.296h1.008zm2.224.752a9.237 9.237 0 01-.08-1.376v-3.872c0-.576.016-1.008.08-1.392H3.52c.064.368.096.768.096 1.392v3.856c0 .576-.032.96-.096 1.392h1.056zm2.176-.768a7.741 7.741 0 01-.064-1.152v-2.848c0-.512.016-.72.064-1.136h-.976c.048.352.064.592.064 1.136v2.848c0 .56-.016.816-.064 1.152h.976zm2.208 0a7.606 7.606 0 01-.064-1.152v-2.848c0-.544.016-.752.064-1.136h-.976c.048.352.064.592.064 1.136v2.848c0 .576-.016.832-.064 1.152h.976zm5.392-1.136v-3.04h.624v-1.072a8.34 8.34 0 01-1.36.096h-2.112c-.608 0-.912-.016-1.28-.064.032.32.048.624.048 1.088v2.928c0 .512-.016.768-.064 1.12.416-.064.784-.08 1.312-.08h2.128a10.8 10.8 0 011.536.096v-1.072h-.832zm-3.216.016v-3.072h2.368v3.072h-2.368zm-6.128-23.44h-.96v-2.288c0-.608.016-1.056.048-1.52-.256.048-.368.048-.896.048h-.544a6.2 6.2 0 01-1.04-.064c.064.352.08.784.08 1.52v2.304h-.16c-.4 0-.608-.016-.944-.08v1.056c.336-.064.544-.08.928-.08h.176v2.544c-.576-.032-.944-.048-1.088-.064v1.04a5.69 5.69 0 011.088-.08v2.816c0 .8-.016 1.184-.08 1.584h.928c-.064-.464-.08-.928-.08-1.584v-2.784c.352.016.512.032.864.08v2.064c0 .736-.016 1.104-.048 1.456 1.024.224 1.648.448 2.512.896a17.43 17.43 0 01-.048-1.424v-2.048c.912.832 1.392 1.92 1.872 4.192.272-.256.496-.384.816-.512-.256-.896-.368-1.232-.608-1.776h3.552c.752 0 1.28.016 1.616.064-.048-.416-.064-1.024-.064-1.776v-6.8c0-.768.016-1.376.064-1.792-.384.048-.832.064-1.648.064H8.768c-.576 0-1.072-.016-1.472-.032.016-.176.016-.304.016-.416 0-.384-.096-.656-.288-.816-.192-.16-.48-.24-1.296-.368-.4-.064-.416-.064-.768-.144.048.384.048.64.048 1.536v3.184zm2.064-1.328v7.12c-.352-.624-.72-1.04-1.328-1.456v-3.44h.16c.352 0 .592.016.864.08v-1.056c-.272.064-.512.08-.88.08h-.144v-3.648c.832.112.864.144.864.512 0 .24-.064.544-.208.992.24-.08.384-.112.672-.16v.976zm-3.024 5.904c.416.096.592.16.96.32v2.64a11.974 11.974 0 00-.96-.352v-2.608zm0-3.68h.96v3.056a3.918 3.918 0 00-.96-.288v-2.768zm-1.584 0h.864v2.656c-.32-.032-.336-.032-.864-.08v-2.576zm0-.896v-2.816h.864v2.816h-.864zm5.376 6.336v-8.304h.944v8.304H7.84zm1.68 0v-8.304h.944v8.304H9.52zm1.68 0v-8.304h.96v8.304h-.96zm1.872-1.664c.8 1.472 1.152 2.64 1.424 4.608.272-.256.512-.4.896-.576-.448-2.144-.8-3.104-1.728-4.768l-.592.736zm.592-4.16c.56-.976.768-1.456 1.12-2.528.304-.912.416-1.392.592-2.368a4.315 4.315 0 01-.912-.608c-.112 1.056-.208 1.584-.432 2.4-.256.944-.432 1.408-.944 2.352l.576.752z" fill="#333"/><path fill-rule="evenodd" clip-rule="evenodd" d="M10 2v217h1V2.678h21V2H10zm0 529V314h1v216.322h21V531H10z" fill="#C4C4C4"/><path d="M33 447h138v82H33v-82z" fill="#F7F8F8"/><path d="M74.064 503.216c-.108-.738-.144-1.386-.144-2.34v-9.108c0-1.08.036-1.908.144-2.97-.648.072-.918.09-1.836.09h-1.656c-.846 0-1.242-.018-1.8-.108v2.286a16.008 16.008 0 011.854-.108h.864v9.918c0 .936-.036 1.638-.144 2.34h2.718zm11.14.288c1.872 0 3.366-.72 4.374-2.124.846-1.17 1.332-3.114 1.332-5.328 0-1.476-.234-2.916-.702-4.176-.234-.648-.648-1.278-1.188-1.818-.954-.954-2.268-1.458-3.798-1.458-1.998 0-3.618.882-4.59 2.502-.666 1.098-1.098 3.078-1.098 4.986 0 1.458.234 2.862.702 4.14.234.648.648 1.278 1.188 1.818.954.954 2.25 1.458 3.78 1.458zm.018-2.088c-.99 0-1.746-.378-2.304-1.17-.576-.828-.918-2.394-.918-4.284 0-1.962.396-3.438 1.188-4.374.522-.63 1.152-.918 2.016-.918.81 0 1.53.27 1.962.756.81.882 1.26 2.52 1.26 4.608 0 2.106-.45 3.78-1.26 4.626-.45.486-1.152.756-1.944.756zm12.797 2.088c1.872 0 3.366-.72 4.374-2.124.846-1.17 1.332-3.114 1.332-5.328 0-1.476-.234-2.916-.702-4.176-.234-.648-.648-1.278-1.188-1.818-.954-.954-2.268-1.458-3.798-1.458-1.998 0-3.618.882-4.59 2.502-.666 1.098-1.098 3.078-1.098 4.986 0 1.458.234 2.862.702 4.14.234.648.648 1.278 1.188 1.818.954.954 2.25 1.458 3.78 1.458zm.018-2.088c-.99 0-1.746-.378-2.304-1.17-.576-.828-.918-2.394-.918-4.284 0-1.962.396-3.438 1.188-4.374.522-.63 1.152-.918 2.016-.918.81 0 1.53.27 1.962.756.81.882 1.26 2.52 1.26 4.608 0 2.106-.45 3.78-1.26 4.626-.45.486-1.152.756-1.944.756zm12.454-10.674c-.054 2.214-.072 2.394-.252 3.582-.36 2.394-1.134 4.302-2.394 5.94-.792 1.026-1.458 1.62-2.772 2.466a6.267 6.267 0 011.512 1.728c1.62-1.152 2.574-2.142 3.528-3.654 1.026-1.656 1.62-3.24 1.998-5.382h5.598c-.126 3.132-.378 5.328-.738 6.21-.198.504-.522.648-1.404.648-.702 0-1.782-.144-2.826-.36.288.72.396 1.242.486 2.052 1.584.126 1.962.144 2.556.144 1.782 0 2.574-.396 3.024-1.512.45-1.098.81-3.96.936-7.128.054-1.602.054-1.62.108-2.034-.54.072-1.242.09-2.304.09h-5.166c.108-.99.126-1.386.162-2.79h6.75c.81 0 1.584.036 2.286.108v-2.124a22.26 22.26 0 01-2.304.108h-11.574a21.53 21.53 0 01-2.304-.108v2.124a23.662 23.662 0 012.322-.108h2.772zm15.606 6.678h10.71v4.392c0 .432-.108.486-.81.486-.648 0-1.548-.072-2.736-.198.324.738.45 1.242.558 1.944.702.036 1.692.072 2.394.072.972 0 1.548-.072 1.89-.252.522-.27.738-.774.738-1.692v-11.538c0-.972.018-1.44.072-1.962-.432.054-.972.072-1.962.072h-10.944c-.954 0-1.422-.018-1.998-.072.054.522.072.972.072 1.728v11.772c0 .936-.036 1.584-.108 2.16h2.214c-.072-.414-.09-.954-.09-2.088v-4.824zm4.266-1.89h-4.266v-4.878h4.266v4.878zm1.944 0v-4.878h4.5v4.878h-4.5zM57.06 473.896c.882 0 1.176.014 1.61.07v-1.036c-.462.07-.728.084-1.624.084h-8.19c-.882 0-1.162-.014-1.624-.084v1.036c.434-.056.728-.07 1.61-.07h3.794c-.112 3.192-1.204 4.69-4.102 5.656.336.322.476.504.658.91 3.164-1.232 4.34-2.94 4.508-6.566h3.36zm-8.414-3.374c.392-.056.63-.07 1.596-.07h4.256c.882.014 1.414.028 1.596.042v-1.008c-.49.056-.854.07-1.61.07h-4.228c-.91 0-1.19-.014-1.61-.098v1.064zm7.504-1.904c.392.448 1.036 1.512 1.358 2.268l.714-.392a10.895 10.895 0 00-1.372-2.212l-.7.336zm1.722-.518c.518.658 1.078 1.582 1.358 2.254l.714-.392a11.653 11.653 0 00-1.372-2.212l-.7.35zm6.86 3.78v-1.666c0-.616.014-.798.056-1.134h-1.134c.042.308.056.434.056 1.176v1.624h-1.162c-.882 0-1.162-.014-1.638-.084v1.064c.448-.056.728-.07 1.624-.07h1.176v2.296c0 .742-.014.882-.056 1.176h1.134c-.042-.322-.056-.518-.056-1.134v-2.338h4.256c-.028 2.24-.112 3.08-.42 3.92-.56 1.414-1.974 2.506-3.808 2.968.322.308.462.518.63.882 1.89-.644 3.15-1.624 3.906-3.024.518-1.008.672-2.044.686-4.746h1.232c.896 0 1.176.014 1.624.07v-1.064c-.476.07-.756.084-1.638.084h-1.204v-1.47c.014-.924.014-.938.056-1.33H68.96c.042.322.042.448.042 1.428v1.372h-4.27zm5.852-3.472c.378.63.658 1.302.994 2.338l.742-.252c-.322-.994-.546-1.484-.994-2.296l-.742.21zm1.638-.434c.336.546.714 1.442.98 2.296l.728-.252a10.853 10.853 0 00-.994-2.282l-.714.238zm11.906.91c-.392.658-1.372 1.638-2.674 2.646-2.212 1.736-4.634 2.94-7.266 3.626.28.35.35.49.546.938 2.562-.868 3.584-1.33 5.404-2.45v5.32c0 .77-.014 1.092-.084 1.456h1.218c-.056-.378-.07-.686-.07-1.484v-5.964c1.204-.868 2.394-1.89 3.276-2.814.35-.378.364-.406.616-.588l-.966-.686zm5.222 1.974a15.459 15.459 0 013.332 2.744l.728-.868c-1.008-.994-1.876-1.68-3.374-2.632l-.686.756zm.098 9.1c.35-.112.462-.14.84-.224 2.338-.532 3.78-1.106 5.222-2.086 1.848-1.274 3.15-2.912 4.27-5.348-.392-.266-.532-.392-.854-.826-1.134 2.968-3.01 5.026-5.712 6.23-1.302.602-2.982 1.036-4.074 1.078l.308 1.176zm18.718-6.426c-.63 0-1.148.518-1.148 1.148 0 .63.518 1.148 1.148 1.148.63 0 1.148-.518 1.148-1.148 0-.63-.518-1.148-1.148-1.148zm18.984.798c-.21.042-.462.056-1.05.056h-3.906c-.406 0-.714-.014-.994-.07v.91c.294-.042.462-.056.84-.07.714 1.624 1.106 2.226 2.072 3.192-1.008.812-2.044 1.372-3.486 1.862.252.252.378.42.546.77 1.498-.588 2.604-1.232 3.556-2.058 1.036.868 1.96 1.372 3.626 2.03.154-.35.28-.56.504-.882-1.54-.49-2.52-.98-3.514-1.75a10.897 10.897 0 002.058-2.954c.182-.378.182-.378.266-.518l-.518-.518zm-.588.826c-.546 1.148-1.022 1.82-1.834 2.632-.938-.896-1.358-1.498-1.862-2.632h3.696zm-10.052-5.474c.308-.042.63-.056 1.064-.056h1.89c.448 0 .714.014 1.064.056v-.882c-.336.056-.588.07-1.064.07h-1.89c-.49 0-.728-.014-1.064-.07v.882zm-.476 1.988a8.779 8.779 0 011.12-.056h2.772c.504 0 .742.014 1.022.056v-.938c-.322.056-.546.07-1.12.07h-2.674c-.532 0-.798-.014-1.12-.07v.938zm.49 1.932a6.774 6.774 0 011.008-.056h1.974c.434 0 .658.014.994.056v-.854c-.294.042-.49.056-.994.056h-1.974c-.49 0-.742-.014-1.008-.056v.854zm0 1.932a6.655 6.655 0 011.008-.056h1.974c.476 0 .602.014.994.056v-.854c-.252.042-.518.056-.994.056h-1.974c-.49 0-.728-.014-1.008-.056v.854zm.882 5.516v-.756h2.254v.574h.868a7.327 7.327 0 01-.07-1.148v-1.974c0-.532.014-.784.042-1.106-.252.042-.42.042-1.022.042h-1.834c-.406 0-.756-.014-1.12-.056.056.364.07.686.07 1.176v1.89c0 .56-.028.952-.084 1.358h.896zm0-3.64h2.254v2.156h-2.254v-2.156zm8.106-7.756v2.954c0 .63.252.77 1.386.77.798 0 1.148-.07 1.358-.252.266-.238.406-.756.49-1.89-.308-.098-.434-.154-.77-.378-.028.826-.098 1.33-.224 1.568-.07.154-.238.196-.812.196-.462 0-.588-.056-.588-.294v-2.184c0-.56.014-.924.056-1.316a9.256 9.256 0 01-1.19.056h-1.708c-.364 0-.714-.014-1.092-.056.056.364.07.504.07.84 0 .924-.098 1.554-.322 2.128-.28.742-.644 1.176-1.372 1.666.252.14.462.322.714.588.574-.448.854-.77 1.148-1.302.462-.84.63-1.582.672-3.094h2.184zm13.146 3.178h-1.232c-.7 0-1.176-.028-1.61-.084v1.008c.476-.056.994-.084 1.61-.084h1.232v5.348c0 .994-.028 1.442-.098 2.002h1.12c-.084-.532-.112-1.106-.112-2.002v-5.348h1.33c.7 0 1.162.028 1.68.084v-1.008c-.462.056-.924.084-1.68.084h-1.33v-2.828a10 10 0 01.098-1.554h-1.106c.07.504.098.896.098 1.554v2.828zm-7.98-3.024a8.46 8.46 0 011.134-.056h2.282c.476 0 .742.014 1.106.056v-.882c-.336.056-.616.07-1.106.07h-2.282c-.504 0-.798-.014-1.134-.07v.882zm-.658 1.946c.392-.056.742-.07 1.204-.07h3.388c.504 0 .882.014 1.218.07v-.924c-.322.056-.672.084-1.218.084h-3.374c-.504 0-.84-.028-1.218-.084v.924zm.672 1.904a6.774 6.774 0 011.008-.056h2.492c.448 0 .63.014.994.056v-.854a6.34 6.34 0 01-.994.056H131.7c-.49 0-.714-.014-1.008-.056v.854zm0 1.932a6.655 6.655 0 011.008-.056h2.492c.476 0 .658.014.994.056v-.854a6.34 6.34 0 01-.994.056H131.7c-.504 0-.728-.014-1.008-.056v.854zm.994 4.718h2.66v.546h.938a7.298 7.298 0 01-.084-1.19v-1.848c0-.532.014-.798.056-1.12-.28.028-.546.042-.952.042h-2.562c-.448 0-.672-.014-.98-.056.056.364.07.686.07 1.148v1.862c0 .532-.028.938-.084 1.344h.938v-.728zm-.014-2.814h2.688v2.072h-2.688v-2.072zm20.51-5.362v-.84h2.002c.532 0 .924.014 1.33.042-.042-.224-.042-.322-.042-.784v-.476c0-.42.014-.63.056-.91-.308.056-.686.07-1.33.07h-2.016v-.14c0-.35.014-.532.07-.826h-.924c.056.294.07.476.07.812v.154h-2.226c.028-.504.042-.826.056-.952h-.91c.056.364.07.518.07.952h-2.464c-.7 0-1.036-.014-1.386-.07v.812c.406-.056.812-.07 1.386-.07h2.436a6.897 6.897 0 01-.07.756h-1.806c-.644 0-.966-.014-1.274-.042-.196.896-.392 1.442-.784 2.198a15.25 15.25 0 011.246-.042h1.792c-.728.798-1.68 1.218-3.668 1.638.224.238.336.434.448.714.784-.224 1.078-.322 1.554-.532v3.108c0 .658-.014 1.12-.056 1.414.364-.042.896-.056 1.554-.056h5.95c.672 0 1.204.014 1.568.056-.042-.336-.056-.728-.056-1.442v-2.254c0-.504.014-.938.028-1.288.154.014.266.014.364.014.336 0 .574-.084.714-.252.14-.168.21-.42.322-1.134.056-.35.056-.364.126-.672-.336.042-.56.042-1.344.042h-2.786zm1.162 1.806h-6.23c.546-.308.91-.63 1.274-1.162h3.01v.14c0 .308-.014.518-.07.756h.924a3.138 3.138 0 01-.07-.77v-.126h3.192c-.098.728-.126.756-.448.756-.21 0-.476-.056-.868-.182.07.21.098.336.14.588h-.854zm-5.166-2.646c-.084.364-.14.518-.28.84h-2.31c.098-.238.154-.378.308-.84h2.282zm3.22 0v.84h-2.674c.14-.336.182-.476.252-.84h2.422zm0-1.386v.756h-2.324c.028-.28.028-.294.07-.756h2.254zm.784 0h2.464v.756h-2.464v-.756zm-5.544 4.704h7.266v.826h-7.266v-.826zm0 1.47h7.266v.826h-7.266v-.826zm0 1.47h7.266v.84h-7.266v-.84zm1.456 1.638c-1.288.7-2.31 1.008-4.032 1.246.224.238.35.448.504.784 1.876-.392 2.716-.7 4.172-1.512l-.644-.518zm3.64.518c.854.49 1.274.672 2.212.98.798.266 1.218.364 2.072.518.196-.364.266-.476.532-.798-.924-.098-1.386-.182-2.1-.378-.826-.224-1.232-.378-2.058-.826l-.658.504z" fill="#333"/><path d="M33 82h138v365H33V82z" fill="#D2E5F5"/><path d="M72.664 246.151c-.396-.936-.666-1.35-1.134-1.836-.864-.9-2.142-1.368-3.69-1.368-1.89 0-3.33.702-4.392 2.142-.918 1.224-1.476 3.348-1.476 5.562 0 2.718.756 4.878 2.088 6.03.882.756 2.214 1.188 3.654 1.188 3.06 0 5.22-2.016 5.22-4.86 0-1.062-.216-1.998-.648-2.7-.792-1.35-2.34-2.142-4.176-2.142-1.818 0-2.88.486-3.852 1.8.09-1.386.288-2.25.738-3.186.612-1.242 1.548-1.872 2.826-1.872s1.944.504 2.412 1.818l2.43-.576zm-4.968 3.978c1.782 0 2.844 1.044 2.844 2.826 0 .63-.144 1.224-.414 1.638-.504.792-1.422 1.26-2.466 1.26-1.764 0-3.042-1.206-3.042-2.844 0-1.656 1.314-2.88 3.078-2.88zm12.509 7.704c1.872 0 3.366-.72 4.374-2.124.846-1.17 1.332-3.114 1.332-5.328 0-1.476-.234-2.916-.702-4.176-.234-.648-.648-1.278-1.188-1.818-.954-.954-2.268-1.458-3.798-1.458-1.998 0-3.618.882-4.59 2.502-.666 1.098-1.098 3.078-1.098 4.986 0 1.458.234 2.862.702 4.14.234.648.648 1.278 1.188 1.818.954.954 2.25 1.458 3.78 1.458zm.018-2.088c-.99 0-1.746-.378-2.304-1.17-.576-.828-.918-2.394-.918-4.284 0-1.962.396-3.438 1.188-4.374.522-.63 1.152-.918 2.016-.918.81 0 1.53.27 1.962.756.81.882 1.26 2.52 1.26 4.608 0 2.106-.45 3.78-1.26 4.626-.45.486-1.152.756-1.944.756zm12.797 2.088c1.871 0 3.365-.72 4.373-2.124.846-1.17 1.332-3.114 1.332-5.328 0-1.476-.234-2.916-.702-4.176-.234-.648-.648-1.278-1.188-1.818-.954-.954-2.268-1.458-3.798-1.458-1.998 0-3.618.882-4.59 2.502-.666 1.098-1.098 3.078-1.098 4.986 0 1.458.234 2.862.702 4.14.234.648.648 1.278 1.188 1.818.954.954 2.25 1.458 3.78 1.458zm.017-2.088c-.99 0-1.746-.378-2.304-1.17-.576-.828-.918-2.394-.918-4.284 0-1.962.396-3.438 1.188-4.374.522-.63 1.152-.918 2.016-.918.81 0 1.53.27 1.962.756.81.882 1.26 2.52 1.26 4.608 0 2.106-.45 3.78-1.26 4.626-.45.486-1.152.756-1.944.756zm12.455-10.674c-.054 2.214-.072 2.394-.252 3.582-.36 2.394-1.134 4.302-2.394 5.94-.792 1.026-1.458 1.62-2.772 2.466a6.267 6.267 0 011.512 1.728c1.62-1.152 2.574-2.142 3.528-3.654 1.026-1.656 1.62-3.24 1.998-5.382h5.598c-.126 3.132-.378 5.328-.738 6.21-.198.504-.522.648-1.404.648-.702 0-1.782-.144-2.826-.36.288.72.396 1.242.486 2.052 1.584.126 1.962.144 2.556.144 1.782 0 2.574-.396 3.024-1.512.45-1.098.81-3.96.936-7.128.054-1.602.054-1.62.108-2.034-.54.072-1.242.09-2.304.09h-5.166c.108-.99.126-1.386.162-2.79h6.75c.81 0 1.584.036 2.286.108v-2.124a22.26 22.26 0 01-2.304.108h-11.574a21.53 21.53 0 01-2.304-.108v2.124a23.662 23.662 0 012.322-.108h2.772zm15.606 6.678h10.71v4.392c0 .432-.108.486-.81.486-.648 0-1.548-.072-2.736-.198.324.738.45 1.242.558 1.944.702.036 1.692.072 2.394.072.972 0 1.548-.072 1.89-.252.522-.27.738-.774.738-1.692v-11.538c0-.972.018-1.44.072-1.962-.432.054-.972.072-1.962.072h-10.944c-.954 0-1.422-.018-1.998-.072.054.522.072.972.072 1.728v11.772c0 .936-.036 1.584-.108 2.16h2.214c-.072-.414-.09-.954-.09-2.088v-4.824zm4.266-1.89h-4.266v-4.878h4.266v4.878zm1.944 0v-4.878h4.5v4.878h-4.5zM83.52 227.372v-.784c0-.476.014-.756.084-1.134h-.952c.042.35.056.672.056 1.148v1.022l-.098.028c-.462.14-.672.182-.98.238l.182.924a7.92 7.92 0 01.896-.364v4.032c0 1.036.448 1.204 3.206 1.204 2.968 0 3.08-.084 3.318-2.604-.364-.084-.518-.154-.868-.35-.028 1.064-.126 1.722-.294 1.904-.154.182-.644.238-2.114.238-2.282 0-2.436-.042-2.436-.616v-4.06l1.596-.518v2.324c0 .588-.014.812-.056 1.176h.91c-.056-.322-.07-.602-.07-1.176v-2.576l1.862-.602c0 1.106-.056 1.988-.154 2.758-.042.294-.154.42-.406.42-.182 0-.602-.056-.91-.112.112.322.154.49.196.826.308.028.602.042.77.042.518 0 .798-.098.938-.336.21-.378.294-1.176.364-3.346.014-.294.014-.462.056-1.358-.196.098-.77.308-1.148.42l-1.568.49v-.826c0-.462.028-.798.084-1.134h-.938c.042.35.07.686.07 1.162v1.036l-1.596.504zm-4.606-3.752h-1.106c-.532 0-.854-.028-1.218-.084v.938c.322-.056.63-.07 1.176-.07h.406c-.056 2.66-.084 3.234-.196 4.256-.224 2.016-.7 3.276-1.708 4.508.266.21.42.364.658.7.854-1.19 1.26-2.044 1.582-3.332.21-.84.322-1.708.42-3.444h1.582c0 2.03-.084 3.668-.238 4.69-.14.952-.224 1.078-.714 1.078-.364 0-.7-.042-1.134-.154.098.266.126.476.168.91.378.028.77.056.952.056.476 0 .84-.07 1.008-.21.224-.168.378-.602.504-1.372.154-.966.252-2.94.266-4.956 0-.35.014-.602.028-.868-.28.042-.532.056-.98.056h-1.414c.028-1.12.028-1.12.056-1.918h1.722c.602 0 .924.014 1.246.056v-.91c-.364.056-.728.07-1.246.07h-.952v-.924c0-.56.014-.868.084-1.288H78.83c.056.406.084.756.084 1.288v.924zm8.792.504a14.1 14.1 0 011.428.056v-.938c-.336.056-.784.084-1.428.084h-4.018c.182-.406.266-.588.504-1.162.168-.434.182-.476.252-.588l-.938-.224c-.042.224-.07.336-.196.7-.448 1.4-1.12 2.534-2.212 3.808.336.182.518.336.672.56.7-.91 1.064-1.47 1.512-2.296h4.424zm8.652-.364v7.994H92.41c-.742 0-1.176-.028-1.652-.098v1.092c.49-.07.938-.098 1.638-.098h9.198c.7 0 1.19.028 1.638.098v-1.092c-.476.07-.91.098-1.638.098h-4.228v-7.994h3.374c.658 0 1.106.028 1.61.084v-1.064a12.48 12.48 0 01-1.624.084h-7.448c-.742 0-1.176-.028-1.624-.084v1.064c.49-.056.952-.084 1.61-.084h3.094zm16.618 1.372v-.84h2.002c.532 0 .924.014 1.33.042-.042-.224-.042-.322-.042-.784v-.476c0-.42.014-.63.056-.91-.308.056-.686.07-1.33.07h-2.016v-.14c0-.35.014-.532.07-.826h-.924c.056.294.07.476.07.812v.154h-2.226c.028-.504.042-.826.056-.952h-.91c.056.364.07.518.07.952h-2.464c-.7 0-1.036-.014-1.386-.07v.812c.406-.056.812-.07 1.386-.07h2.436a6.897 6.897 0 01-.07.756h-1.806c-.644 0-.966-.014-1.274-.042-.196.896-.392 1.442-.784 2.198a15.25 15.25 0 011.246-.042h1.792c-.728.798-1.68 1.218-3.668 1.638.224.238.336.434.448.714.784-.224 1.078-.322 1.554-.532v3.108c0 .658-.014 1.12-.056 1.414.364-.042.896-.056 1.554-.056h5.95c.672 0 1.204.014 1.568.056-.042-.336-.056-.728-.056-1.442v-2.254c0-.504.014-.938.028-1.288.154.014.266.014.364.014.336 0 .574-.084.714-.252.14-.168.21-.42.322-1.134.056-.35.056-.364.126-.672-.336.042-.56.042-1.344.042h-2.786zm1.162 1.806h-6.23c.546-.308.91-.63 1.274-1.162h3.01v.14c0 .308-.014.518-.07.756h.924a3.138 3.138 0 01-.07-.77v-.126h3.192c-.098.728-.126.756-.448.756-.21 0-.476-.056-.868-.182.07.21.098.336.14.588h-.854zm-5.166-2.646c-.084.364-.14.518-.28.84h-2.31c.098-.238.154-.378.308-.84h2.282zm3.22 0v.84h-2.674c.14-.336.182-.476.252-.84h2.422zm0-1.386v.756h-2.324c.028-.28.028-.294.07-.756h2.254zm.784 0h2.464v.756h-2.464v-.756zm-5.544 4.704h7.266v.826h-7.266v-.826zm0 1.47h7.266v.826h-7.266v-.826zm0 1.47h7.266v.84h-7.266v-.84zm1.456 1.638c-1.288.7-2.31 1.008-4.032 1.246.224.238.35.448.504.784 1.876-.392 2.716-.7 4.172-1.512l-.644-.518zm3.64.518c.854.49 1.274.672 2.212.98.798.266 1.218.364 2.072.518.196-.364.266-.476.532-.798-.924-.098-1.386-.182-2.1-.378-.826-.224-1.232-.378-2.058-.826l-.658.504z" fill="#333"/><path d="M34 0h137v82H34V0z" fill="#C4C4C4"/><path d="M68.064 57.216c-.108-.738-.144-1.386-.144-2.34v-9.108c0-1.08.036-1.908.144-2.97-.648.072-.918.09-1.836.09h-1.656c-.846 0-1.242-.018-1.8-.108v2.286a16.008 16.008 0 011.854-.108h.864v9.918c0 .936-.036 1.638-.144 2.34h2.718zm11.14.288c1.872 0 3.366-.72 4.374-2.124.846-1.17 1.332-3.114 1.332-5.328 0-1.476-.234-2.916-.702-4.176-.234-.648-.648-1.278-1.188-1.818-.954-.954-2.268-1.458-3.798-1.458-1.998 0-3.618.882-4.59 2.502-.666 1.098-1.098 3.078-1.098 4.986 0 1.458.234 2.862.702 4.14.234.648.648 1.278 1.188 1.818.954.954 2.25 1.458 3.78 1.458zm.018-2.088c-.99 0-1.746-.378-2.304-1.17-.576-.828-.918-2.394-.918-4.284 0-1.962.396-3.438 1.188-4.374.522-.63 1.152-.918 2.016-.918.81 0 1.53.27 1.962.756.81.882 1.26 2.52 1.26 4.608 0 2.106-.45 3.78-1.26 4.626-.45.486-1.152.756-1.944.756zm12.797 2.088c1.872 0 3.366-.72 4.374-2.124.846-1.17 1.332-3.114 1.332-5.328 0-1.476-.234-2.916-.702-4.176-.234-.648-.648-1.278-1.188-1.818-.954-.954-2.268-1.458-3.798-1.458-1.998 0-3.618.882-4.59 2.502-.666 1.098-1.098 3.078-1.098 4.986 0 1.458.234 2.862.702 4.14.234.648.648 1.278 1.188 1.818.954.954 2.25 1.458 3.78 1.458zm.018-2.088c-.99 0-1.746-.378-2.304-1.17-.576-.828-.918-2.394-.918-4.284 0-1.962.396-3.438 1.188-4.374.522-.63 1.152-.918 2.016-.918.81 0 1.53.27 1.962.756.81.882 1.26 2.52 1.26 4.608 0 2.106-.45 3.78-1.26 4.626-.45.486-1.152.756-1.944.756zm12.454-10.674c-.054 2.214-.072 2.394-.252 3.582-.36 2.394-1.134 4.302-2.394 5.94-.792 1.026-1.458 1.62-2.772 2.466a6.266 6.266 0 011.512 1.728c1.62-1.152 2.574-2.142 3.528-3.654 1.026-1.656 1.62-3.24 1.998-5.382h5.598c-.126 3.132-.378 5.328-.738 6.21-.198.504-.522.648-1.404.648-.702 0-1.782-.144-2.826-.36.288.72.396 1.242.486 2.052 1.584.126 1.962.144 2.556.144 1.782 0 2.574-.396 3.024-1.512.45-1.098.81-3.96.936-7.128.054-1.602.054-1.62.108-2.034-.54.072-1.242.09-2.304.09h-5.166c.108-.99.126-1.386.162-2.79h6.75c.81 0 1.584.036 2.286.108v-2.124a22.26 22.26 0 01-2.304.108h-11.574a21.52 21.52 0 01-2.304-.108v2.124a23.652 23.652 0 012.322-.108h2.772zm15.606 6.678h10.71v4.392c0 .432-.108.486-.81.486-.648 0-1.548-.072-2.736-.198.324.738.45 1.242.558 1.944.702.036 1.692.072 2.394.072.972 0 1.548-.072 1.89-.252.522-.27.738-.774.738-1.692V44.634c0-.972.018-1.44.072-1.962-.432.054-.972.072-1.962.072h-10.944c-.954 0-1.422-.018-1.998-.072.054.522.072.972.072 1.728v11.772c0 .936-.036 1.584-.108 2.16h2.214c-.072-.414-.09-.954-.09-2.088V51.42zm4.266-1.89h-4.266v-4.878h4.266v4.878zm1.944 0v-4.878h4.5v4.878h-4.5zM63.426 24.984h-3.892c-.448 0-.714-.014-1.05-.056.042.364.07.672.07 1.106v3.822c0 .448-.028.84-.084 1.246h1.008v-.952h3.948v3.262c0 .756-.028 1.12-.098 1.596h1.12c-.084-.448-.098-.798-.098-1.596V30.15h4.172v.952h1.008a8.863 8.863 0 01-.084-1.246v-3.822c0-.448.014-.742.07-1.106a7.486 7.486 0 01-1.064.056H64.35v-1.232c0-.602.028-.994.098-1.428h-1.12c.07.434.098.77.098 1.456v1.204zm0 .84v3.486h-3.948v-3.486h3.948zm.924 3.486v-3.486h4.172v3.486H64.35zm8.876-2.142h2.562c.56 0 1.036.014 1.414.042-.028-.35-.042-.742-.042-1.302v-1.736c0-.518.014-.938.042-1.33-.392.042-.728.056-1.428.056h-2.002c-.714 0-1.078-.014-1.47-.056.042.448.056.854.056 1.54v9.044c0 .756-.028 1.19-.084 1.568h1.036c-.056-.364-.084-.784-.084-1.568v-6.258zm0-3.584h3.136v1.12h-3.136v-1.12zm0 1.778h3.136v1.134h-3.136v-1.134zm10.402-.98c0-.63.014-.994.07-1.54-.406.042-.742.056-1.47.056h-2.31c-.714 0-1.036-.014-1.428-.056.028.42.042.84.042 1.33v1.736c0 .518-.014.938-.042 1.302.378-.028.826-.042 1.414-.042h2.87v6.412c0 .336-.112.406-.686.406-.294 0-.882-.056-1.54-.14.126.294.196.518.252.896.35.028 1.106.056 1.4.056 1.134 0 1.428-.238 1.428-1.162v-9.254zm-4.298-.798h3.444v1.12H79.33v-1.12zm0 1.778h3.444v1.134H79.33v-1.134zm1.246 4.228c0-.56.014-.924.042-1.316-.42.042-.742.056-1.386.056H76.67c-.63 0-.966-.014-1.386-.056.028.406.042.812.042 1.316v3.108c0 .574-.014.938-.07 1.316h.868v-.98h3.066c.574 0 1.036.014 1.428.042a16.008 16.008 0 01-.042-1.274V29.59zm-4.452-.56h3.654v1.246h-3.654V29.03zm0 1.946h3.654v1.358h-3.654v-1.358zm12.124-2.87c2.1 1.694 4.186 3.99 5.46 6.02l.854-.714c-.938-1.246-1.512-1.974-2.044-2.548 1.764-1.428 3.248-3.108 4.62-5.25.294-.448.392-.574.56-.742l-.588-.7c-.224.084-.294.098-.784.098h-8.162c-.812 0-1.148-.014-1.638-.084v1.106c.476-.042.868-.056 1.624-.056 7.798-.014 7.798-.014 7.994-.028-.056.084-.07.098-.112.168-.588.966-1.54 2.226-2.31 3.038a24.416 24.416 0 01-1.862 1.722c-1.274-1.302-1.792-1.778-2.842-2.646l-.77.616zm11.41 1.092c.42-.042.714-.056 1.736-.056h8.12c.938 0 1.26.014 1.708.056v-1.134c-.434.056-.658.07-1.694.07h-8.134c-.952 0-1.33-.014-1.736-.084v1.148zm15.806-5.068c.798.238 2.66 1.246 3.444 1.862l.574-.938a21.808 21.808 0 00-3.472-1.764l-.546.84zm-1.106 3.36c1.134.406 2.744 1.274 3.57 1.918l.546-.952a22.397 22.397 0 00-3.556-1.82l-.56.854zm.476 6.692c.21-.07.238-.07.546-.14 5.04-.952 7.924-3.15 9.688-7.392a4.309 4.309 0 01-.868-.756c-1.008 2.968-3.178 5.278-5.88 6.272-1.316.504-2.884.868-3.682.868h-.084l.28 1.148zm7.812-11.172c.406.448 1.078 1.484 1.428 2.226l.7-.42c-.42-.826-.812-1.414-1.428-2.17l-.7.364zm1.582-.742c.546.63 1.134 1.54 1.442 2.198l.7-.406c-.462-.882-.812-1.4-1.456-2.17l-.686.378zm4.396 2.59a15.46 15.46 0 013.332 2.744l.728-.868c-1.008-.994-1.876-1.68-3.374-2.632l-.686.756zm.098 9.1c.35-.112.462-.14.84-.224 2.338-.532 3.78-1.106 5.222-2.086 1.848-1.274 3.15-2.912 4.27-5.348-.392-.266-.532-.392-.854-.826-1.134 2.968-3.01 5.026-5.712 6.23-1.302.602-2.982 1.036-4.074 1.078l.308 1.176z" fill="#333"/><path d="M33 568h138v82H33v-82z" fill="#C4C4C4"/><path d="M46.398 590.906c-.018 1.872-.108 3.132-.27 3.888-.072.36-.27.486-.774.486-.54 0-1.044-.054-1.89-.18.27.648.396 1.17.45 1.98.792.072 1.206.09 1.602.09 1.548 0 2.034-.27 2.34-1.242.27-.864.45-3.078.45-5.58.018-.72.018-.9.054-1.26-.486.072-.972.09-1.71.09h-2.484c.036-.684.054-.774.072-1.746h1.89c1.026 0 1.674.018 2.268.072-.054-.414-.072-.774-.072-1.872v-2.34c0-.882.018-1.278.072-1.908-.504.072-1.062.09-2.214.09h-3.636c-1.044 0-1.692-.018-2.25-.09.054.684.072 1.062.072 1.98v2.178c0 .918-.018 1.332-.072 1.962.576-.054.936-.072 1.998-.072-.036 1.476-.108 2.34-.306 3.474-.396 2.25-1.026 3.474-2.484 4.734.666.63.882.9 1.35 1.764.99-.954 1.53-1.692 2.088-2.826.504-1.062.774-2.034 1.026-3.672h2.43zm-4.122-7.74h4.176v2.574h-4.176v-2.574zm7.488-1.224c.072.558.108 1.17.108 2.196v6.84c0 1.206-.018 1.584-.09 2.106h2.07c-.072-.54-.09-.99-.09-2.142v-6.804c0-1.062.018-1.602.108-2.196h-2.106zm3.888-.918c.09.792.126 1.584.126 2.448v11.25c0 .432-.18.54-.864.54-.522 0-1.404-.054-2.448-.18.306.684.468 1.224.612 2.016.846.036 1.098.054 1.494.054 2.628 0 3.132-.36 3.132-2.178v-11.502c0-1.026.036-1.728.126-2.448h-2.178zm13.752 3.438c.792.072 1.26.216 1.818.54 1.44.864 2.214 2.268 2.214 3.996 0 1.926-.936 3.636-2.502 4.5-.846.486-1.926.774-3.582.99.576.756.792 1.152 1.098 2.106 1.26-.216 1.962-.396 2.826-.756 2.754-1.116 4.374-3.6 4.374-6.714 0-4.05-2.808-6.678-7.128-6.678-2.556 0-4.68.864-6.192 2.52-1.278 1.404-1.98 3.258-1.98 5.238 0 2.898 1.476 4.986 3.528 4.986 1.476 0 2.628-1.062 3.654-3.384.9-2.034 1.53-4.518 1.872-7.344zm-2.196.018c-.216 2.034-.81 4.464-1.494 6.084-.648 1.548-1.26 2.304-1.854 2.304-.792 0-1.422-1.17-1.422-2.646 0-1.926.936-3.78 2.448-4.86.738-.522 1.386-.774 2.322-.882zm18.504-.738c-.774 1.35-1.368 2.142-2.556 3.348-1.674 1.728-3.348 2.97-5.67 4.194.648.72.972 1.188 1.26 1.836 1.602-1.008 2.538-1.656 3.42-2.376 1.134-.936 1.998-1.8 2.628-2.628-.018.792-.018 1.026-.018 1.674v5.4c0 .756-.054 1.584-.126 2.268h2.322a17.372 17.372 0 01-.126-2.268v-9.45c.702-.954.918-1.296 1.278-1.998h3.636c.774 0 1.62.036 2.34.108v-2.124c-.576.072-1.332.108-2.394.108H78.258c-.9 0-1.674-.036-2.394-.108v2.124c.72-.072 1.692-.108 2.466-.108h5.382zm1.278 3.996c1.782 2.196 3.672 3.798 6.39 5.364.396-.792.72-1.278 1.242-1.962-1.314-.576-2.34-1.224-3.69-2.304a18.53 18.53 0 01-2.628-2.556l-1.314 1.458zm12.726-3.87H95.52c-.738 0-1.188-.018-1.674-.09v1.656c.504-.072.918-.09 1.674-.09h2.196v.774h-1.548c-.792 0-1.26-.018-1.764-.054.036.45.054.792.054 1.638v2.322c0 .882-.018 1.26-.054 1.71.504-.036.936-.054 1.746-.054h1.566v.792H95.88c-.81 0-1.188-.018-1.692-.09v1.692a16.172 16.172 0 011.674-.072h1.854v.99c-1.908.108-2.25.126-3.06.126-.396 0-.558 0-.936-.036l.324 1.926c.432-.072.702-.108 1.044-.144 3.294-.252 4.608-.396 7.074-.756.612.432 1.044.864 1.422 1.422.72-.972 1.008-1.44 1.44-2.358.288.774.378 1.152.414 1.944.27.018 1.152.054 1.44.054 1.35 0 1.926-.27 2.25-1.062.45-1.044.684-3.582.774-8.226.054-2.592.054-2.736.126-3.384-.486.054-.918.072-1.692.072h-1.566c.054-3.114.054-3.114.144-3.6h-2.07c.09.504.108.792.108 2.286 0 .558 0 .864-.018 1.314h-.27c-.612 0-.918-.018-1.278-.072v1.944c.468-.054.756-.072 1.494-.072-.09 2.322-.198 3.438-.468 4.752-.342 1.53-.936 2.988-1.71 4.14v-.774c-1.692.234-2.304.306-3.24.396v-.882h2.016c.684 0 .936.018 1.26.09V592.4c-.414.054-.792.072-1.692.072h-1.584v-.792h1.674c.846 0 1.206 0 1.62.036a39.555 39.555 0 01-.054-1.638v-2.43c0-.918.018-1.206.054-1.584-.378.036-.702.054-1.512.054h-1.782v-.774h2.25c.792 0 1.026.018 1.296.072v-1.638c-.414.072-.828.09-1.674.09h-1.872v-1.008c.9-.126 1.8-.27 2.466-.396.234-.054.828-.144.99-.162l-1.08-1.476c-1.224.576-4.32.954-7.848.972.342.612.486.936.63 1.44a73.888 73.888 0 003.096-.216v.846zm0 3.6v.756H96.15v-.756h1.566zm1.746 0h1.566v.756h-1.566v-.756zm-1.746 2.07v.792H96.15v-.792h1.566zm1.746 0h1.566v.792h-1.566v-.792zm8.64-3.168c-.018.594-.018.702-.036 1.26-.018 1.458-.018 1.458-.036 2.088-.072 1.998-.126 2.772-.252 3.726-.216 1.674-.342 1.89-1.152 1.89-.396 0-.666-.036-1.584-.18 1.098-2.412 1.512-4.5 1.692-8.784h1.368zm8.496 7.164a15.161 15.161 0 011.656-.072h2.088v1.746h-4.122c-.774 0-1.242-.018-1.692-.09v1.908c.63-.072 1.116-.09 1.728-.09h9.99c.684 0 1.224.036 1.764.108v-1.926c-.45.054-.99.09-1.71.09h-4.068v-1.746h2.7c.792 0 1.098.018 1.62.072v-1.764c-.45.054-.774.072-1.62.072h-2.7v-1.422h3.222c.828 0 1.224.018 1.746.072v-1.908c-.45.072-.846.09-1.728.09h-3.24c0-.522.018-.774.072-1.152h-2.052c.054.306.072.594.072 1.152h-2.016c.216-.522.216-.522.396-.972l-1.818-.414c-.36 1.152-.522 1.548-.936 2.304a6.91 6.91 0 01-1.26 1.692c.126-1.368.162-2.106.162-4.194h11.124c.936 0 1.44.018 2.016.09v-1.836c-.504.072-1.044.09-2.016.09H123.6c.306-.54.396-.738.756-1.53h1.386c.954 0 1.404.018 1.926.072v-1.944c-.522.072-1.098.108-2.034.108h-4.41v-.18c0-.432.036-.756.108-1.134h-2.214c.054.414.09.756.09 1.134v.18h-4.41c-.918 0-1.476-.036-1.962-.108v1.944c.504-.054.882-.072 1.836-.072h1.53c.342.648.432.864.612 1.53h-1.854c-.81 0-1.35-.018-2.052-.09.054.594.09 1.26.09 1.98 0 2.574-.198 4.59-.558 5.994-.234.9-.486 1.458-1.026 2.376.594.558.846.864 1.44 1.764.954-1.476 1.44-3.006 1.764-5.634.414.396.684.72 1.044 1.242.486-.522.648-.72.936-1.098v1.566zm3.744-3.114v1.422h-2.106c-.756 0-1.17-.018-1.53-.054.342-.468.522-.792.828-1.368h2.808zm-1.458-4.986c-.216-.63-.324-.918-.612-1.53h4.032c-.234.648-.36.936-.684 1.53h-2.736zm14.562 2.718a14.4 14.4 0 011.548-.072h6.012c.684 0 1.152.018 1.62.072v-1.404c1.26.792 1.944 1.152 3.078 1.638.252-.738.486-1.242.99-2.016a19.026 19.026 0 01-4.626-2.43c-1.368-.954-2.088-1.656-3.042-2.988h-2.142c-.738 1.152-1.656 2.106-2.844 3.024-1.368 1.062-2.574 1.728-4.518 2.502a8.36 8.36 0 011.044 1.836c1.26-.558 1.764-.828 2.88-1.548v1.386zm1.566-1.944c-.324 0-.432 0-.738-.018 1.674-1.17 2.79-2.214 3.744-3.492 1.08 1.422 2.106 2.358 3.762 3.492-.342.018-.504.018-.792.018h-5.976zm.18 5.202c-.486 1.224-1.044 2.268-1.926 3.6-.918.054-1.458.072-1.584.072-.252 0-.558-.018-1.044-.054l.288 2.196c.414-.09 1.314-.18 2.322-.252.72-.054 4.284-.378 6.066-.54.666-.072 1.746-.198 3.24-.396.306.432.486.684 1.08 1.566l1.728-1.134c-1.458-1.962-2.232-2.862-4.158-4.806l-1.782.792a83.678 83.678 0 011.89 1.998c-2.52.27-2.52.27-5.706.45.756-1.116 1.314-2.178 1.872-3.492h6.192c.9 0 1.512.036 2.106.108v-2.088c-.594.072-1.224.108-2.106.108h-11.214c-.846 0-1.53-.036-2.124-.108v2.088c.594-.072 1.206-.108 2.124-.108h2.736zm17.208-.972c.774.9 1.386 1.422 2.322 2.034.288-.684.558-1.188.99-1.764-1.188-.684-2.016-1.332-2.862-2.286.864-1.188 1.206-1.782 1.8-3.078.126-.306.234-.486.396-.756l-.864-.936c-.234.036-.486.054-1.044.054h-.738v-1.476c0-.594.036-.99.108-1.404h-2.178c.072.414.108.9.108 1.368v1.512h-.9c-.594 0-.972-.018-1.422-.072v1.998c.486-.054.864-.072 1.512-.072h2.934c-.594 1.152-1.116 1.89-1.962 2.772-.972 1.026-1.836 1.71-3.096 2.43.378.54.702 1.188.918 1.872.918-.594 1.296-.882 1.998-1.53v4.518c0 .846-.018 1.332-.108 1.872h2.178c-.072-.54-.09-.99-.09-1.836v-5.22zm7.632-2.664h1.908c.63 0 1.188.036 1.764.09v-2.034c-.504.072-.954.09-1.764.09h-1.908v-3.168c0-.774.018-1.152.126-1.872h-2.25c.09.702.126 1.134.126 1.872v3.168h-1.35c-.774 0-1.242-.018-1.764-.09v2.034c.576-.054 1.152-.09 1.764-.09h1.35v7.038h-1.962c-.864 0-1.494-.036-2.07-.108v2.178c.63-.09 1.314-.126 2.034-.126h6.156c.72 0 1.422.036 2.052.126v-2.178c-.558.072-1.152.108-2.052.108h-2.16v-7.038zM103.08 610.24h5.274v-2.16h-5.274v-5.13h-2.178v5.13h-5.274v2.16h5.274v5.292h2.178v-5.292zm-20.25 14.15v9.63h-4.5c-1.098 0-1.746-.036-2.484-.126v2.178c.756-.09 1.512-.126 2.448-.126h11.484c.972 0 1.782.036 2.448.126v-2.178c-.72.09-1.404.126-2.448.126h-4.824v-9.63h3.96c.972 0 1.566.036 2.304.108v-2.124c-.684.072-1.26.108-2.322.108h-9.684c-1.098 0-1.71-.036-2.34-.108v2.124a20.953 20.953 0 012.322-.108h3.636zm20.61 7.938c-.72 1.71-1.908 2.718-4.212 3.582.486.54.792.99 1.116 1.602 2.844-1.242 4.266-2.718 5.04-5.184h2.358c-.054.9-.108 1.44-.234 2.034-.198.918-.378 1.134-.954 1.134-.54 0-1.242-.09-2.07-.252.27.756.36 1.152.414 1.872.828.09 1.404.126 1.908.126 1.404 0 1.872-.288 2.232-1.386.252-.738.486-2.376.63-4.518.018-.378.018-.378.072-.792-.324.054-.63.072-1.422.072h-2.556c.036-.324.072-.45.09-.702.018-.162.036-.198.036-.288.018-.126.036-.234.054-.324 0-.108 0-.108.018-.234l-1.836-.018c.774-.36 1.188-.576 1.674-.918 1.044.684 2.088 1.116 4.05 1.674.27-.864.396-1.17.828-1.872-1.548-.27-2.394-.504-3.456-1.008.846-.9 1.224-1.494 1.782-2.826.558 0 .882.018 1.296.072v-1.836c-.468.054-1.062.09-1.908.09h-3.726c.144-.306.216-.468.306-.702.108-.288.216-.54.27-.63l-1.872-.36c-.108.558-.198.81-.45 1.368-.612 1.368-1.332 2.304-2.682 3.474.558.378.954.72 1.368 1.224.702-.738.954-1.008 1.386-1.584.378.666.846 1.242 1.476 1.854-.882.486-1.818.846-2.952 1.116.09-.288.144-.414.216-.558l-.774-.954a11.75 11.75 0 01-1.314.054h-1.08l.396-.432c-.162-.198-.234-.252-.396-.432.702-.576 1.746-1.764 2.52-2.826.18-.252.324-.432.396-.522l-.972-1.044c-.378.036-.612.054-1.53.054h-3.078c-.792 0-1.206-.018-1.692-.072v1.854c.468-.054.918-.072 1.548-.072h3.132c-.468.666-.864 1.116-1.458 1.584-.45-.396-.54-.45-1.548-1.206l-1.116 1.08c.828.594 1.53 1.188 2.394 2.034h-1.8c-.738 0-1.17-.018-1.62-.09v1.908c.414-.072.828-.09 1.512-.09h1.242c-.774 1.944-1.584 3.096-3.042 4.338.414.666.63 1.116.9 1.962 1.134-1.044 1.962-2.232 2.646-3.816l.018 4.302c.018.36-.09.432-.576.432-.342 0-.864-.054-1.602-.18.252.666.342 1.08.378 1.764.54.036 1.098.054 1.494.054.864 0 1.422-.126 1.674-.36.27-.27.378-.648.378-1.206l-.036-7.29h1.134a9.589 9.589 0 01-1.026 2.286c.594.324.81.486 1.314.99.234-.486.306-.612.486-1.062v1.728c.396-.054.72-.072 1.422-.072h1.386zm-1.278-1.71c-.81 0-1.152-.018-1.476-.054.252-.648.396-1.026.63-1.782.288.45.378.594.594 1.08.99-.324 1.368-.45 2.052-.738a.35.35 0 01.018.144c0 .432-.036.846-.09 1.35h-1.728zm4.914-6.516c-.342.864-.63 1.278-1.278 1.944-.702-.63-1.206-1.242-1.548-1.944h2.826zm12.996 6.336h-2.304c-.756 0-1.152-.018-1.602-.072.054.468.072.918.072 1.584v3.276c0 .99-.036 1.71-.108 2.214h2.034v-.756h6.66v.774h2.052c-.09-.576-.108-1.224-.108-2.34v-2.934c0-.774.018-1.242.072-1.818-.432.054-.828.072-1.584.072h-3.294v-1.89h3.852c.702 0 1.314.036 1.836.108v-1.98c-.414.072-.99.108-1.908.108h-3.78v-.216c0-.99.018-1.368.072-1.782h-2.052c.072.45.09.792.09 1.782v3.87zm-1.908 1.8h6.66v2.664h-6.66v-2.664zm1.224-9.702h-4.068c-.81 0-1.494-.036-2.124-.09.054.63.072 1.206.072 2.736 0 3.546-.108 5.472-.378 7.002-.288 1.566-.63 2.538-1.35 3.654.792.612 1.062.882 1.602 1.548 1.656-2.7 2.088-5.418 2.07-13.05h10.656c.882 0 1.692.036 2.232.09v-1.998c-.486.072-1.206.108-2.268.108h-4.464v-.648c0-.522.018-.828.09-1.116h-2.16c.054.324.09.612.09 1.098v.666z" fill="#333"/><path d="M191 568h138v80H191v-80z" fill="#7EB1DD"/><g clip-path="url(#clip0)" fill="#1D1D1B"><path d="M207.883 624.514l-3.527-5.05h-1.174v5.05H200v-14.348h4.473c4.286 0 6.302 1.269 6.302 4.311v.749c0 2.132-.924 3.279-3.067 3.838l3.886 5.45h-3.711zm-3.41-7.418c2.301 0 2.948-.64 2.948-2.011v-.484c0-1.358-.436-2.068-2.905-2.068h-1.36v4.563h1.317zm19.429-6.93h-10.213v2.237h10.213v-2.237zm-7.03 12.02v-3.783h5.991v-2.311h-9.174v8.437h10.534v-2.343h-7.351zm17.815-12.001v8.819l-4.861-8.819h-3.159v14.329h3.159v-8.608l4.93 8.608h3.089v-14.329h-3.158zm6.108 10.175v-6.072c0-3.041 1.638-4.288 5.922-4.288s6.065 1.247 6.065 4.288v6.072c0 2.964-1.843 4.288-6.065 4.288-4.221 0-5.922-1.324-5.922-4.288zm8.805-.125v-5.819c0-1.305-.414-2.145-2.873-2.145-2.306 0-2.742.84-2.742 2.145v5.819c0 1.366.436 2.147 2.742 2.147s2.873-.781 2.873-2.147zm17.705-10.05l-4.777 14.343h-3.319l-4.794-14.343h3.249l3.207 9.898 3.177-9.898h3.257zm12.033-.019h-10.215v2.237h10.215v-2.237zm-7.036 12.02v-3.783h5.992v-2.311h-9.171v8.437h10.531v-2.343h-7.352zm20.03-12.02h-10.21v2.237h10.21v-2.237zm-7.028 12.02v-3.783h5.991v-2.311h-9.173v8.437h10.534v-2.343h-7.352zm17.816-12.001v8.819l-4.861-8.819h-3.158v14.329h3.158v-8.608l4.928 8.608h3.089v-14.329h-3.156zm6.108 10.175v-6.072c0-3.041 1.638-4.288 5.922-4.288 4.283 0 6.06 1.247 6.06 4.288v6.072c0 2.964-1.846 4.288-6.06 4.288-4.215 0-5.922-1.324-5.922-4.288zm8.8-.125v-5.819c0-1.305-.412-2.145-2.874-2.145-2.308 0-2.741.84-2.741 2.145v5.819c0 1.366.433 2.147 2.741 2.147 2.309 0 2.874-.781 2.874-2.147z"/></g><path d="M248.028 590.45h-4.356c-.81 0-1.278-.018-1.872-.108v2.052c.54-.054 1.062-.072 1.854-.072h10.386v1.728h-9.936c-.864 0-1.332-.018-1.746-.072v2.016c.432-.054.936-.072 1.728-.072h9.954v1.926h-10.512c-.882 0-1.368-.018-1.872-.09v2.052c.504-.09 1.116-.126 1.962-.108h10.386v.882h2.088c-.072-.576-.108-1.17-.108-2.052v-6.66c0-.63.018-1.044.072-1.512-.486.072-.828.09-1.44.09h-4.572v-4.824c0-.774.036-1.314.108-1.782h-2.232c.072.504.108 1.044.108 1.782v4.824zm-6.174-4.77c1.206 1.512 1.944 2.718 2.772 4.482l1.764-1.044c-.738-1.548-1.476-2.7-2.808-4.41l-1.728.972zm12.42-1.026c-.774 1.962-1.386 3.006-2.574 4.482l1.674 1.044c1.17-1.494 1.746-2.448 2.808-4.644l-1.908-.882zm14.346 8.784c.774.9 1.386 1.422 2.322 2.034.288-.684.558-1.188.99-1.764-1.188-.684-2.016-1.332-2.862-2.286.864-1.188 1.206-1.782 1.8-3.078.126-.306.234-.486.396-.756l-.864-.936c-.234.036-.486.054-1.044.054h-.738v-1.476c0-.594.036-.99.108-1.404h-2.178c.072.414.108.9.108 1.368v1.512h-.9c-.594 0-.972-.018-1.422-.072v1.998c.486-.054.864-.072 1.512-.072h2.934c-.594 1.152-1.116 1.89-1.962 2.772-.972 1.026-1.836 1.71-3.096 2.43.378.54.702 1.188.918 1.872.918-.594 1.296-.882 1.998-1.53v4.518c0 .846-.018 1.332-.108 1.872h2.178c-.072-.54-.09-.99-.09-1.836v-5.22zm7.632-2.664h1.908c.63 0 1.188.036 1.764.09v-2.034c-.504.072-.954.09-1.764.09h-1.908v-3.168c0-.774.018-1.152.126-1.872h-2.25c.09.702.126 1.134.126 1.872v3.168h-1.35c-.774 0-1.242-.018-1.764-.09v2.034c.576-.054 1.152-.09 1.764-.09h1.35v7.038h-1.962c-.864 0-1.494-.036-2.07-.108v2.178c.63-.09 1.314-.126 2.034-.126h6.156c.72 0 1.422.036 2.052.126v-2.178c-.558.072-1.152.108-2.052.108h-2.16v-7.038z" fill="#fff"/><mask id="a" maskUnits="userSpaceOnUse" x="191" y="0" width="138" height="233"><path d="M191 233V0h138v233H191z" fill="#C4C4C4"/></mask><g mask="url(#a)" fill="#7EB1DD" fill-opacity=".3"><path d="M100.692 167.827l12.699-2.57 239.345 73.127-12.699 2.57-239.345-73.127zm-6.333 23.293l12.699-2.57 239.344 73.128-12.699 2.57L94.359 191.12zm62.063-228.282l12.699-2.57 239.344 73.127-12.699 2.57-239.344-73.127zm-48.781 179.43l12.699-2.57 239.344 73.127-12.699 2.57-239.344-73.127zm7.092-26.09l12.699-2.57 239.345 73.127-12.699 2.57-239.345-73.127zm7.094-26.089l12.699-2.57 239.345 73.127-12.699 2.57-239.345-73.127zM128.919 64l12.699-2.57 239.344 73.127-12.699 2.57-239.344-73.128zm7.093-26.09l12.699-2.57 239.345 73.127-12.699 2.57L136.012 37.91zm7.093-26.09l12.699-2.57 239.344 73.128-12.699 2.57L143.105 11.82zm7.094-26.089l12.699-2.57 239.344 73.127-12.699 2.57-239.344-73.127z"/></g><path d="M191 217h138v314H191V217z" fill="#D2E5F5"/><path d="M233.664 380.798c-.396-.936-.666-1.35-1.134-1.836-.864-.9-2.142-1.368-3.69-1.368-1.89 0-3.33.702-4.392 2.142-.918 1.224-1.476 3.348-1.476 5.562 0 2.718.756 4.878 2.088 6.03.882.756 2.214 1.188 3.654 1.188 3.06 0 5.22-2.016 5.22-4.86 0-1.062-.216-1.998-.648-2.7-.792-1.35-2.34-2.142-4.176-2.142-1.818 0-2.88.486-3.852 1.8.09-1.386.288-2.25.738-3.186.612-1.242 1.548-1.872 2.826-1.872s1.944.504 2.412 1.818l2.43-.576zm-4.968 3.978c1.782 0 2.844 1.044 2.844 2.826 0 .63-.144 1.224-.414 1.638-.504.792-1.422 1.26-2.466 1.26-1.764 0-3.042-1.206-3.042-2.844 0-1.656 1.314-2.88 3.078-2.88zm12.509 7.704c1.872 0 3.366-.72 4.374-2.124.846-1.17 1.332-3.114 1.332-5.328 0-1.476-.234-2.916-.702-4.176-.234-.648-.648-1.278-1.188-1.818-.954-.954-2.268-1.458-3.798-1.458-1.998 0-3.618.882-4.59 2.502-.666 1.098-1.098 3.078-1.098 4.986 0 1.458.234 2.862.702 4.14.234.648.648 1.278 1.188 1.818.954.954 2.25 1.458 3.78 1.458zm.018-2.088c-.99 0-1.746-.378-2.304-1.17-.576-.828-.918-2.394-.918-4.284 0-1.962.396-3.438 1.188-4.374.522-.63 1.152-.918 2.016-.918.81 0 1.53.27 1.962.756.81.882 1.26 2.52 1.26 4.608 0 2.106-.45 3.78-1.26 4.626-.45.486-1.152.756-1.944.756zm12.796 2.088c1.872 0 3.366-.72 4.374-2.124.846-1.17 1.332-3.114 1.332-5.328 0-1.476-.234-2.916-.702-4.176-.234-.648-.648-1.278-1.188-1.818-.954-.954-2.268-1.458-3.798-1.458-1.998 0-3.618.882-4.59 2.502-.666 1.098-1.098 3.078-1.098 4.986 0 1.458.234 2.862.702 4.14.234.648.648 1.278 1.188 1.818.954.954 2.25 1.458 3.78 1.458zm.018-2.088c-.99 0-1.746-.378-2.304-1.17-.576-.828-.918-2.394-.918-4.284 0-1.962.396-3.438 1.188-4.374.522-.63 1.152-.918 2.016-.918.81 0 1.53.27 1.962.756.81.882 1.26 2.52 1.26 4.608 0 2.106-.45 3.78-1.26 4.626-.45.486-1.152.756-1.944.756zm12.455-10.674c-.054 2.214-.072 2.394-.252 3.582-.36 2.394-1.134 4.302-2.394 5.94-.792 1.026-1.458 1.62-2.772 2.466a6.267 6.267 0 011.512 1.728c1.62-1.152 2.574-2.142 3.528-3.654 1.026-1.656 1.62-3.24 1.998-5.382h5.598c-.126 3.132-.378 5.328-.738 6.21-.198.504-.522.648-1.404.648-.702 0-1.782-.144-2.826-.36.288.72.396 1.242.486 2.052 1.584.126 1.962.144 2.556.144 1.782 0 2.574-.396 3.024-1.512.45-1.098.81-3.96.936-7.128.054-1.602.054-1.62.108-2.034-.54.072-1.242.09-2.304.09h-5.166c.108-.99.126-1.386.162-2.79h6.75c.81 0 1.584.036 2.286.108v-2.124a22.26 22.26 0 01-2.304.108h-11.574a21.53 21.53 0 01-2.304-.108v2.124a23.662 23.662 0 012.322-.108h2.772zm15.606 6.678h10.71v4.392c0 .432-.108.486-.81.486-.648 0-1.548-.072-2.736-.198.324.738.45 1.242.558 1.944.702.036 1.692.072 2.394.072.972 0 1.548-.072 1.89-.252.522-.27.738-.774.738-1.692V379.61c0-.972.018-1.44.072-1.962-.432.054-.972.072-1.962.072h-10.944c-.954 0-1.422-.018-1.998-.072.054.522.072.972.072 1.728v11.772c0 .936-.036 1.584-.108 2.16h2.214c-.072-.414-.09-.954-.09-2.088v-4.824zm4.266-1.89h-4.266v-4.878h4.266v4.878zm1.944 0v-4.878h4.5v4.878h-4.5zm-42.748-24.134v-.784c0-.476.014-.756.084-1.134h-.952c.042.35.056.672.056 1.148v1.022l-.098.028c-.462.14-.672.182-.98.238l.182.924a7.92 7.92 0 01.896-.364v4.032c0 1.036.448 1.204 3.206 1.204 2.968 0 3.08-.084 3.318-2.604-.364-.084-.518-.154-.868-.35-.028 1.064-.126 1.722-.294 1.904-.154.182-.644.238-2.114.238-2.282 0-2.436-.042-2.436-.616v-4.06l1.596-.518v2.324c0 .588-.014.812-.056 1.176h.91c-.056-.322-.07-.602-.07-1.176v-2.576l1.862-.602c0 1.106-.056 1.988-.154 2.758-.042.294-.154.42-.406.42-.182 0-.602-.056-.91-.112.112.322.154.49.196.826.308.028.602.042.77.042.518 0 .798-.098.938-.336.21-.378.294-1.176.364-3.346.014-.294.014-.462.056-1.358-.196.098-.77.308-1.148.42l-1.568.49v-.826c0-.462.028-.798.084-1.134h-.938c.042.35.07.686.07 1.162v1.036l-1.596.504zm-4.606-3.752h-1.106c-.532 0-.854-.028-1.218-.084v.938c.322-.056.63-.07 1.176-.07h.406c-.056 2.66-.084 3.234-.196 4.256-.224 2.016-.7 3.276-1.708 4.508.266.21.42.364.658.7.854-1.19 1.26-2.044 1.582-3.332.21-.84.322-1.708.42-3.444h1.582c0 2.03-.084 3.668-.238 4.69-.14.952-.224 1.078-.714 1.078-.364 0-.7-.042-1.134-.154.098.266.126.476.168.91.378.028.77.056.952.056.476 0 .84-.07 1.008-.21.224-.168.378-.602.504-1.372.154-.966.252-2.94.266-4.956 0-.35.014-.602.028-.868-.28.042-.532.056-.98.056h-1.414c.028-1.12.028-1.12.056-1.918h1.722c.602 0 .924.014 1.246.056v-.91c-.364.056-.728.07-1.246.07h-.952v-.924c0-.56.014-.868.084-1.288h-1.036c.056.406.084.756.084 1.288v.924zm8.792.504a14.1 14.1 0 011.428.056v-.938c-.336.056-.784.084-1.428.084h-4.018c.182-.406.266-.588.504-1.162.168-.434.182-.476.252-.588l-.938-.224c-.042.224-.07.336-.196.7-.448 1.4-1.12 2.534-2.212 3.808.336.182.518.336.672.56.7-.91 1.064-1.47 1.512-2.296h4.424zm8.652-.364v7.994h-3.948c-.742 0-1.176-.028-1.652-.098v1.092c.49-.07.938-.098 1.638-.098h9.198c.7 0 1.19.028 1.638.098v-1.092c-.476.07-.91.098-1.638.098h-4.228v-7.994h3.374c.658 0 1.106.028 1.61.084v-1.064a12.48 12.48 0 01-1.624.084h-7.448c-.742 0-1.176-.028-1.624-.084v1.064c.49-.056.952-.084 1.61-.084h3.094zm16.618 1.372v-.84h2.002c.532 0 .924.014 1.33.042-.042-.224-.042-.322-.042-.784v-.476c0-.42.014-.63.056-.91-.308.056-.686.07-1.33.07h-2.016v-.14c0-.35.014-.532.07-.826h-.924c.056.294.07.476.07.812v.154h-2.226c.028-.504.042-.826.056-.952h-.91c.056.364.07.518.07.952h-2.464c-.7 0-1.036-.014-1.386-.07v.812c.406-.056.812-.07 1.386-.07h2.436a6.897 6.897 0 01-.07.756h-1.806c-.644 0-.966-.014-1.274-.042-.196.896-.392 1.442-.784 2.198a15.25 15.25 0 011.246-.042h1.792c-.728.798-1.68 1.218-3.668 1.638.224.238.336.434.448.714.784-.224 1.078-.322 1.554-.532v3.108c0 .658-.014 1.12-.056 1.414.364-.042.896-.056 1.554-.056h5.95c.672 0 1.204.014 1.568.056-.042-.336-.056-.728-.056-1.442v-2.254c0-.504.014-.938.028-1.288.154.014.266.014.364.014.336 0 .574-.084.714-.252.14-.168.21-.42.322-1.134.056-.35.056-.364.126-.672-.336.042-.56.042-1.344.042h-2.786zm1.162 1.806h-6.23c.546-.308.91-.63 1.274-1.162h3.01v.14c0 .308-.014.518-.07.756h.924a3.138 3.138 0 01-.07-.77v-.126h3.192c-.098.728-.126.756-.448.756-.21 0-.476-.056-.868-.182.07.21.098.336.14.588h-.854zm-5.166-2.646c-.084.364-.14.518-.28.84h-2.31c.098-.238.154-.378.308-.84h2.282zm3.22 0v.84h-2.674c.14-.336.182-.476.252-.84h2.422zm0-1.386v.756h-2.324c.028-.28.028-.294.07-.756h2.254zm.784 0h2.464v.756h-2.464v-.756zm-5.544 4.704h7.266v.826h-7.266v-.826zm0 1.47h7.266v.826h-7.266v-.826zm0 1.47h7.266v.84h-7.266v-.84zm1.456 1.638c-1.288.7-2.31 1.008-4.032 1.246.224.238.35.448.504.784 1.876-.392 2.716-.7 4.172-1.512l-.644-.518zm3.64.518c.854.49 1.274.672 2.212.98.798.266 1.218.364 2.072.518.196-.364.266-.476.532-.798-.924-.098-1.386-.182-2.1-.378-.826-.224-1.232-.378-2.058-.826l-.658.504zm-79.506-252.358c.342-.054.396-.054 1.17-.108.36-.036.918-.072 1.692-.126v5.508c0 .9-.036 1.386-.108 1.926h1.98c-.072-.54-.108-1.026-.108-1.926v-5.67c.324-.018.738-.072 1.278-.126.072.288.108.432.198.846l1.512-.63c-.468-1.386-.954-2.592-1.422-3.51l-1.35.54c.288.594.36.774.522 1.224-.918.108-.99.108-2.052.162.774-.882 2.034-2.556 3.042-4.05.306-.45.414-.63.594-.828l-1.656-.954c-.252.594-.774 1.458-1.944 3.15-.252-.324-.45-.54-.756-.9.45-.612 1.26-1.926 1.674-2.754.198-.36.27-.486.378-.648l-1.71-.702c-.18.648-.81 1.872-1.494 2.916-.18-.216-.288-.324-.54-.63l-1.026 1.494c1.314 1.224 1.494 1.422 2.466 2.664-.36.468-.432.558-1.044 1.314-.414.018-.594.018-.72.018-.36 0-.504-.018-.774-.054l.198 1.854zm13.932-4.968c0 3.744-.216 6.93-.576 8.676-.216 1.116-.414 1.332-1.224 1.332-.63 0-1.44-.072-2.358-.234.288.774.414 1.224.504 2.016.648.054 1.206.072 1.674.072 1.17 0 1.89-.144 2.304-.468.594-.468.918-1.458 1.206-3.528.198-1.476.396-4.608.414-6.66.018-2.556.018-2.556.09-3.132-.396.054-.72.072-1.476.072h-3.924c.216-.558.288-.774.522-1.512.144-.504.144-.504.234-.738l-2.016-.36c-.09.594-.306 1.368-.648 2.268a11.653 11.653 0 01-2.124 3.582c.666.486 1.08.9 1.44 1.458.846-1.044 1.152-1.548 1.8-2.844h4.158zm-13.374 5.58c-.108 2.052-.342 3.294-.846 4.842l1.602.738c.504-1.566.756-3.078.882-5.328l-1.638-.252zm4.752.252c.306 1.422.558 3.24.684 4.626l1.638-.396a44.472 44.472 0 00-.864-4.59l-1.458.36zm7.02.774c-.684-1.854-1.152-2.826-2.214-4.518l-1.566.864c.936 1.566 1.296 2.376 2.052 4.572l1.728-.918z" fill="#333"/><path d="M220.066 116.398c.468 1.508.806 2.184 1.456 2.912 1.482 1.69 3.562 2.47 6.604 2.47 2.782 0 4.966-.728 6.396-2.106.962-.962 1.56-2.392 1.56-3.796 0-1.534-.39-2.626-1.248-3.588-.91-1.014-1.872-1.456-3.718-1.742 1.378-.364 1.95-.572 2.522-1.014 1.118-.832 1.794-2.262 1.794-3.822 0-3.38-2.808-5.564-7.15-5.564-2.08 0-3.77.468-5.096 1.43-1.222.884-1.82 1.794-2.47 3.718l3.718.624c.312-1.066.572-1.508 1.092-2.002.624-.52 1.56-.806 2.834-.806 2.21 0 3.432 1.014 3.432 2.808 0 2.002-1.534 3.198-4.134 3.198-1.118 0-1.69-.026-2.522-.13v3.224c.884-.104 1.638-.13 2.782-.13 1.144 0 2.366.26 2.99.624.936.546 1.456 1.534 1.456 2.73 0 2.054-1.638 3.38-4.212 3.38-1.248 0-2.288-.338-3.146-1.014-.65-.52-.884-.936-1.222-2.132l-3.718.728zm26.674 5.33c2.704 0 4.862-1.04 6.318-3.068 1.222-1.69 1.924-4.498 1.924-7.696 0-2.132-.338-4.212-1.014-6.032-.338-.936-.936-1.846-1.716-2.626-1.378-1.378-3.276-2.106-5.486-2.106-2.886 0-5.226 1.274-6.63 3.614-.962 1.586-1.586 4.446-1.586 7.202 0 2.106.338 4.134 1.014 5.98.338.936.936 1.846 1.716 2.626 1.378 1.378 3.25 2.106 5.46 2.106zm.026-3.016c-1.43 0-2.522-.546-3.328-1.69-.832-1.196-1.326-3.458-1.326-6.188 0-2.834.572-4.966 1.716-6.318.754-.91 1.664-1.326 2.912-1.326 1.17 0 2.21.39 2.834 1.092 1.17 1.274 1.82 3.64 1.82 6.656 0 3.042-.65 5.46-1.82 6.682-.65.702-1.664 1.092-2.808 1.092zm18.483 3.016c2.704 0 4.862-1.04 6.318-3.068 1.222-1.69 1.924-4.498 1.924-7.696 0-2.132-.338-4.212-1.014-6.032-.338-.936-.936-1.846-1.716-2.626-1.378-1.378-3.276-2.106-5.486-2.106-2.886 0-5.226 1.274-6.63 3.614-.962 1.586-1.586 4.446-1.586 7.202 0 2.106.338 4.134 1.014 5.98.338.936.936 1.846 1.716 2.626 1.378 1.378 3.25 2.106 5.46 2.106zm.026-3.016c-1.43 0-2.522-.546-3.328-1.69-.832-1.196-1.326-3.458-1.326-6.188 0-2.834.572-4.966 1.716-6.318.754-.91 1.664-1.326 2.912-1.326 1.17 0 2.21.39 2.834 1.092 1.17 1.274 1.82 3.64 1.82 6.656 0 3.042-.65 5.46-1.82 6.682-.65.702-1.664 1.092-2.808 1.092zm17.99-15.418c-.078 3.198-.104 3.458-.364 5.174-.52 3.458-1.638 6.214-3.458 8.58-1.144 1.482-2.106 2.34-4.004 3.562a9.052 9.052 0 012.184 2.496c2.34-1.664 3.718-3.094 5.096-5.278 1.482-2.392 2.34-4.68 2.886-7.774h8.086c-.182 4.524-.546 7.696-1.066 8.97-.286.728-.754.936-2.028.936-1.014 0-2.574-.208-4.082-.52.416 1.04.572 1.794.702 2.964 2.288.182 2.834.208 3.692.208 2.574 0 3.718-.572 4.368-2.184.65-1.586 1.17-5.72 1.352-10.296.078-2.314.078-2.34.156-2.938-.78.104-1.794.13-3.328.13h-7.462c.156-1.43.182-2.002.234-4.03h9.75c1.17 0 2.288.052 3.302.156v-3.068c-1.014.104-2.08.156-3.328.156h-16.718c-1.274 0-2.366-.052-3.328-.156v3.068a34.179 34.179 0 013.354-.156h4.004zm22.542 9.646h15.47v6.344c0 .624-.156.702-1.17.702-.936 0-2.236-.104-3.952-.286.468 1.066.65 1.794.806 2.808 1.014.052 2.444.104 3.458.104 1.404 0 2.236-.104 2.73-.364.754-.39 1.066-1.118 1.066-2.444v-16.666c0-1.404.026-2.08.104-2.834-.624.078-1.404.104-2.834.104h-15.808c-1.378 0-2.054-.026-2.886-.104.078.754.104 1.404.104 2.496v17.004c0 1.352-.052 2.288-.156 3.12h3.198c-.104-.598-.13-1.378-.13-3.016v-6.968zm6.162-2.73h-6.162v-7.046h6.162v7.046zm2.808 0v-7.046h6.5v7.046h-6.5z" fill="#2C8BE2"/><path d="M237.616 82.52c.336-.048.608-.08 1.024-.096 2.656-.128 3.232-.176 4.464-.352-1.2 1.232-3.504 3.088-4.912 3.936-.368.064-.528.096-.912.128-.32.048-.528.064-.608.08-.384.048-1.056.096-1.376.096-.048 0-.144 0-.256-.016l.192 1.952c.304-.08.416-.112.736-.16a106.72 106.72 0 012.576-.352c.448-.064 1.04-.128 1.76-.224.768-.096 1.28-.176 1.968-.304-.864.448-1.264.736-1.712 1.216-.56.608-.864 1.328-.864 2.08 0 1.264.88 2.368 2.256 2.8.832.272 2 .448 2.976.448h.208c.448-.016.704-.016.816-.016.224 0 .416 0 .592.016l-.08-2.032c-.464.112-.912.144-1.52.144-2.064 0-3.216-.576-3.216-1.616 0-.864.88-1.84 2.176-2.432 1.184-.528 2.624-.784 4.448-.784h.48l-.112-1.872c-.224.048-.272.048-.528.064-.144.016-.56.048-1.136.112-.368.032-1.104.08-2.112.16-1.936.16-3.088.272-3.888.384 1.44-.992 3.248-2.432 4.4-3.488.512-.48.592-.544.928-.784l-1.04-1.328c-.336.128-.736.192-1.504.256a73.106 73.106 0 01-4.752.176c-.736 0-1.056-.016-1.568-.08l.096 1.888zm28.672.224c.704.064 1.12.192 1.616.48 1.28.768 1.968 2.016 1.968 3.552 0 1.712-.832 3.232-2.224 4-.752.432-1.712.688-3.184.88.512.672.704 1.024.976 1.872 1.12-.192 1.744-.352 2.512-.672 2.448-.992 3.888-3.2 3.888-5.968 0-3.6-2.496-5.936-6.336-5.936-2.272 0-4.16.768-5.504 2.24-1.136 1.248-1.76 2.896-1.76 4.656 0 2.576 1.312 4.432 3.136 4.432 1.312 0 2.336-.944 3.248-3.008.8-1.808 1.36-4.016 1.664-6.528zm-1.952.016c-.192 1.808-.72 3.968-1.328 5.408-.576 1.376-1.12 2.048-1.648 2.048-.704 0-1.264-1.04-1.264-2.352 0-1.712.832-3.36 2.176-4.32.656-.464 1.232-.688 2.064-.784zm22.752 0v.96h-3.36c-.672 0-1.008-.016-1.44-.08v1.584c.432-.048.8-.064 1.44-.064h3.36v.976h-4.416c-.896 0-1.264-.016-1.728-.08v1.648c.56-.064 1.04-.096 1.728-.096h1.488a8.897 8.897 0 01-3.616 4.96c.544.576.784.896 1.12 1.536.944-.736 1.52-1.296 2.208-2.192.672-.88 1.184-1.744 1.568-2.688v1.104a9.717 9.717 0 011.28-.064h1.856v1.968h-3.328c-.688 0-.976-.016-1.472-.096v1.728a14.686 14.686 0 011.84-.096h7.696c.768 0 1.296.032 1.84.096v-1.728c-.496.064-1.024.096-1.76.096h-3.04v-1.968h2.336c.608 0 1.104.016 1.536.08v-1.632c-.448.064-.8.08-1.552.08h-5.936c-.528 0-.736 0-1.12-.048.128-.384.16-.496.352-1.136h7.584c.784 0 1.28.032 1.712.096v-1.648c-.4.064-.8.08-1.712.08h-4.688v-.976h3.664c.624 0 .992.016 1.424.064V83.64c-.432.064-.784.08-1.424.08h-3.664v-.96h4.128c.752 0 1.2.016 1.712.08v-1.648c-.48.064-.96.096-1.712.096h-1.904c.368-.432.672-.864 1.072-1.536l-1.824-.4c-.368.864-.608 1.28-1.104 1.936h-2.272a15.535 15.535 0 00-1.264-1.936l-1.744.464c.48.512.8.928 1.104 1.472h-1.824c-.736 0-1.248-.032-1.728-.096v1.648c.496-.064.976-.08 1.728-.08h3.856z" fill="#333"/><path fill-rule="evenodd" clip-rule="evenodd" d="M269.536 210.172l-3.182 3.182a.5.5 0 01-.707 0l-3.182-3.182a.5.5 0 11.707-.708l2.328 2.329V142h1v69.793l2.329-2.329a.5.5 0 01.707.708zM262.464 5.828l3.182-3.182a.5.5 0 01.707 0l3.182 3.182a.5.5 0 11-.707.707L266.5 4.208V79h-1V4.207l-2.329 2.329a.5.5 0 11-.707-.708z" fill="#333"/><path d="M3 550h326v2H3v-2z" fill="#333"/><defs><clipPath id="clip0"><path fill="#fff" transform="translate(200 610)" d="M0 0h121.21v14.648H0z"/></clipPath></defs></svg>