<svg width="551" height="87" fill="none" xmlns="http://www.w3.org/2000/svg"><path d="M72.142 22.482h-6.839c-1.187 0-1.858-.026-2.838-.128.077.588.103 1.075.103 1.893v1.766c0 .793-.052 1.356-.13 1.919h2.814v-2.968h4.283c-.206 1.151-.593 1.893-1.341 2.533-.955.819-2.04 1.202-5.136 1.765.774.973 1.084 1.484 1.548 2.354 3.768-.972 5.187-1.714 6.375-3.352.696-.946.954-1.611 1.367-3.3h2.142v3.812c0 1.484.749 1.893 3.432 1.893 2.478 0 3.639-.102 4.233-.358.748-.332 1.058-.92 1.264-2.354h1.678c-.078-.588-.104-1.1-.104-1.893v-1.817c0-.844.026-1.33.104-1.893-1.007.102-1.652.128-2.84.128h-7.25v-.589c0-.716.025-1.177.128-1.663h-3.148c.103.538.155.947.155 1.663v.589zm10.142 4.324c-.568-.128-.8-.18-1.394-.41-.026.743-.077 1.229-.18 1.459-.181.333-.697.46-1.962.46-1.42 0-1.626-.076-1.626-.64v-2.711h5.162v1.842zm-8.98 5.885c.05-.384.05-.563.076-.947.104-1.433.104-1.586.233-2.072h-3.071c.077.537.103.92.103 1.458 0 .46-.026.896-.103 1.56h-4.13c-1.29 0-2.064-.05-2.838-.153v2.815c.749-.102 1.497-.128 2.89-.128h3.562c-.465 1.382-1.11 2.38-2.09 3.224-1.265 1.1-2.788 1.816-5.936 2.84.903 1.023 1.187 1.458 1.703 2.533 2.684-.947 4.645-2.047 6.194-3.48 1.522-1.433 2.374-2.891 2.967-5.117h3.82l-.078 5.527v.179c0 1.867.774 2.354 3.923 2.354 4.826 0 4.98-.18 5.393-6.243-1.316-.282-1.703-.41-2.71-.87-.025 2.047-.154 3.403-.335 3.991-.18.512-.464.589-2.374.589-.929 0-1.161-.154-1.135-.82l.077-5.04a35.05 35.05 0 01.103-2.302c-.8.076-1.368.102-2.71.102h-3.535zm22.037 2.124c0 1.023-.025 1.381-.077 1.944a8.537 8.537 0 011.265-.077h2.89c.413 0 .568 0 1.239.051-.026-.46-.052-.767-.052-1.125v-7.983h1.445c-.026 3.48-.129 5.578-.413 7.752-.284 2.098-.335 2.2-1.109 2.2-.517 0-1.11-.076-2.349-.28.361.87.465 1.356.594 2.481a32.92 32.92 0 001.703.077c2.142 0 2.71-.41 3.2-2.226.671.69 1.032 1.203 1.445 1.996 1.394-1.28 1.729-1.663 2.606-2.943.8 1.1 1.446 1.791 2.71 2.866.31-.947.697-1.56 1.342-2.277-1.523-1.228-1.884-1.587-2.761-2.79.851-1.713 1.109-2.635 2.09-7.112l-1.006-1.382c-.413.051-.904.077-1.42.077h-1.832c-.877 0-1.316-.026-1.832-.102v2.507a8.536 8.536 0 011.264-.077h2.168c-.206 1.561-.387 2.329-.8 3.608-.361-.844-.619-1.586-1.11-3.352l-1.884 1.152c.723 2.43 1.059 3.351 1.755 4.707-.877 1.382-1.316 1.894-2.709 2.994.361-1.586.645-4.682.722-8.264.103-3.02.103-3.02.155-3.94-.413.05-.774.076-1.858.076h-.723c.362-.768.517-1.075.878-1.944h5.393c1.239 0 2.22.05 2.968.128V20.87c-.723.102-1.523.153-2.968.153H97.587c-1.342 0-2.22-.05-2.968-.153v2.686c.722-.076 1.677-.127 2.916-.127h2.503c-.335.92-1.084 2.507-1.626 3.454h-1.806c-.516 0-.903-.026-1.342-.077.052.512.078.793.078 1.228v2.84c-1.084-1.356-1.523-2.15-2.117-3.838 1.007 0 1.317.026 1.523.128v-2.712c-.465.077-.8.102-1.548.102v-1.893c0-1.228.025-1.919.154-2.661H90.49c.103.64.155 1.33.155 2.661v1.893h-1.032c-.723 0-1.24-.025-1.73-.102v2.712a13.097 13.097 0 011.73-.128h.851c-.284 1.356-.774 2.891-1.29 4.196-.723 1.766-1.187 2.661-2.09 3.89.67.767 1.083 1.432 1.522 2.456.878-1.51 1.652-3.352 2.168-5.348-.078 1.254-.13 2.329-.13 3.122v5.22c0 1.279-.05 2.302-.154 3.121h2.864c-.103-.742-.154-1.612-.154-2.968v-7.062c0-.972-.026-1.484-.104-2.507 0-.103-.026-.282-.026-.486.336.946.62 1.51 1.42 2.763.284-.896.439-1.33.439-1.33.103-.257.18-.41.412-.922v3.634zm2.013-5.732h1.265v5.399h-1.265v-5.399zM94.18 42.925c.774-.102 1.523-.128 2.787-.128h11.51c1.238 0 2.116.052 2.967.128v-2.712c-.67.103-1.599.154-2.916.154H96.993c-1.264 0-2.039-.051-2.813-.154v2.712zm33.213-17.731c1.135.102 1.806.307 2.606.768 2.065 1.228 3.174 3.224 3.174 5.68 0 2.738-1.342 5.168-3.587 6.396-1.213.691-2.761 1.1-5.135 1.408.826 1.074 1.135 1.637 1.574 2.993 1.806-.307 2.813-.563 4.051-1.074 3.949-1.587 6.271-5.118 6.271-9.544 0-5.757-4.025-9.493-10.219-9.493-3.664 0-6.709 1.229-8.877 3.582-1.832 1.996-2.839 4.632-2.839 7.446 0 4.12 2.116 7.087 5.058 7.087 2.116 0 3.768-1.51 5.239-4.81 1.29-2.891 2.193-6.422 2.684-10.439zm-3.149.026c-.309 2.89-1.161 6.345-2.142 8.648-.929 2.2-1.806 3.275-2.658 3.275-1.135 0-2.038-1.663-2.038-3.761 0-2.738 1.342-5.373 3.509-6.909 1.058-.742 1.987-1.1 3.329-1.253zm32.593 15.121v1.56h3.458c-.103-.639-.129-1.355-.129-2.635V25.22c0-1.177 0-1.433.078-2.124-.903.051-.903.051-2.245.051h-12.413c-1.884 0-2.374-.025-3.329-.179v3.326c.929-.102 1.471-.128 3.303-.128h11.303v11.156h-11.742c-1.806 0-2.27-.026-3.225-.18v3.301c.774-.076 1.393-.102 3.174-.102h11.767zm31.329-.563c-3.123-2.993-3.123-2.993-3.768-3.556-1.754-1.561-3.148-2.636-4.774-3.71 1.574-2.098 2.839-4.324 4.026-7.062.284-.64.49-.998.826-1.382l-1.703-1.74c-.646.23-.852.256-2.297.282l-9.084.128h-.619c-1.058 0-1.549-.026-2.271-.154l.103 3.275c.877-.128 1.574-.179 2.813-.204 8.129-.128 8.129-.128 8.542-.154l-.284.665c-1.678 3.992-4.774 7.702-8.671 10.414-1.935 1.356-3.174 2.047-5.161 2.815 1.058 1.1 1.367 1.51 2.09 2.84 3.948-1.92 6.916-4.171 9.832-7.395 2.813 2.124 5.781 4.99 7.923 7.6l2.477-2.662zm12.103 2.968c-.077-.844-.103-1.51-.103-2.84v-6.755a13.2 13.2 0 00-.103-1.74c.206.128.283.154.877.435 4.31 1.97 6.993 3.43 9.135 4.887l1.807-3.019c-4.129-2.302-8.181-4.17-11.716-5.398v-4.76c0-1.586 0-1.919.103-2.686h-3.535c.103.69.154 1.356.154 2.61v16.4c0 1.357-.025 2.047-.154 2.866h3.535zm22.555-20.316v.359c0 .563-.078 1.433-.233 2.482-.413 3.224-1.316 6.396-2.425 8.776-1.084 2.354-2.142 3.915-3.691 5.45 1.239.665 1.729 1.049 2.942 2.2 3.458-3.94 5.471-8.98 6.555-16.324l.077-.614.129-.742.052-.435c.026-.205.052-.23.129-.512l-3.535-.64zm7.664.615c.129.384.206.793.361 1.842 1.007 6.883 3.407 12.768 6.839 16.836.981-1.1 1.522-1.535 2.839-2.354-2.684-2.866-4.491-6.32-5.755-11.053-.594-2.2-1.058-4.708-1.084-5.885l-3.2.614zm7.535-2.047c-1.625 0-2.967 1.33-2.967 2.942a2.977 2.977 0 002.967 2.968c1.652 0 2.994-1.33 2.994-2.968 0-1.612-1.342-2.942-2.994-2.942zm0 1.28c.955 0 1.704.741 1.704 1.662 0 .921-.749 1.689-1.704 1.689a1.688 1.688 0 01-1.677-1.689c0-.92.748-1.663 1.677-1.663zm24.594.409c-.8.204-1.317.255-2.762.255H248.01c-1.754 0-2.296-.025-3.303-.179v3.327c.929-.128 1.523-.154 3.252-.154h12.283c-1.264 4.964-3.793 8.572-7.819 11.156-1.909 1.228-3.38 1.893-5.651 2.61 1.213 1.177 1.548 1.663 2.271 3.044 4.309-1.842 7.07-3.71 9.599-6.524 2.478-2.764 4-5.834 5.291-10.72a3.83 3.83 0 01.438-1.152l-1.754-1.663zm17.186 8.52c-.8 1.305-2.193 2.865-3.767 4.196-1.652 1.407-3.484 2.533-5.549 3.454.981.921 1.291 1.305 1.91 2.405 3.69-1.97 6.606-4.324 8.361-6.755.362-.511.516-.741.878-1.432 0 .307-.026 1.304-.026 1.586l.026 6.397c0 .92-.026 1.484-.104 2.098h3.149c-.103-.614-.155-1.126-.155-2.175l-.129-9.749h2.219c1.136 0 1.652.026 2.349.103V28.57c-.671.128-1.187.154-2.323.154h-2.245l-.026-1.689c0-1.151 0-1.33.078-1.919h-3.02c.078.538.129 1.1.129 2.022v1.56h-7.509c-1.162 0-1.626-.025-2.323-.153v2.763c.723-.077 1.265-.102 2.323-.102h5.754zm15.149 2.353c1.032-.127 1.316-.127 4.206-.127h13.703c2.89 0 3.174 0 4.206.128v-3.557c-1.135.154-1.625.18-4.18.18h-13.755c-2.555 0-3.045-.026-4.18-.18v3.557zm29.109-2.43c1.884 1.51 3.174 2.763 5.161 4.938 2.168 2.38 3.536 4.145 4.981 6.448l2.709-2.15c-1.342-1.816-2.322-3.044-3.406-4.272 3.174-2.636 5.884-5.783 8.335-9.697.594-.921.749-1.1 1.136-1.51l-1.807-2.021c-.645.179-1.032.204-2.142.204l-14.348.026c-1.755 0-2.348-.026-3.355-.18v3.25c.955-.102 1.213-.102 3.304-.128h12.309c.542 0 .929-.025 1.187-.05-.026.05-.026.05-.051.127-.078.103-.078.103-.155.23-.62 1.024-2.039 2.943-3.149 4.171-.954 1.075-2.038 2.098-3.38 3.224-.181-.154-.181-.154-1.6-1.587-1.058-1.023-1.832-1.714-3.2-2.84l-2.529 1.817zm23.819-5.962c2.4 1.33 4.516 3.02 6.581 5.195l2.219-2.79c-1.987-1.867-3.587-3.044-6.658-4.938l-2.142 2.533zm.903 16.887c.594-.204.671-.23 1.703-.434 4-.845 7.2-2.099 9.832-3.839 3.536-2.328 5.988-5.347 8.181-10.03-1.316-.92-1.729-1.304-2.735-2.507-.775 2.073-1.497 3.48-2.633 5.117-2.038 2.917-4.438 4.887-7.664 6.27-2.348 1.023-5.419 1.765-7.639 1.893l.955 3.53zm45.051-2.277c-3.123-2.993-3.123-2.993-3.768-3.556-1.755-1.561-3.148-2.636-4.774-3.71 1.574-2.098 2.838-4.324 4.025-7.062.284-.64.491-.998.826-1.382l-1.703-1.74c-.645.23-.852.256-2.297.282l-9.083.128h-.62c-1.058 0-1.548-.026-2.271-.154l.104 3.275c.877-.128 1.574-.179 2.812-.204 8.129-.128 8.129-.128 8.542-.154l-.284.665c-1.677 3.992-4.774 7.702-8.67 10.414-1.936 1.356-3.175 2.047-5.162 2.815 1.058 1.1 1.368 1.51 2.091 2.84 3.948-1.92 6.916-4.171 9.832-7.395 2.813 2.124 5.78 4.99 7.922 7.6l2.478-2.662zm4.567-13.663c.181-.025.336-.025.413-.025.232 0 .232 0 .723.025.567 0 2.838.051 3.251.051 0 0 .336-.025.439-.025-.103.128-.103.128-.206.332-.517.973-2.091 3.199-3.097 4.376-.903 1.049-1.652 1.765-2.323 2.277l2.349 2.303c.567-.794 1.161-1.433 2.245-2.329 1.987-1.74 3.793-2.635 5.29-2.635.929 0 1.445.435 1.574 1.381-2.916 1.203-4.387 2.175-5.548 3.608-.826.972-1.136 1.791-1.136 2.84 0 1.408.697 2.636 1.884 3.3 1.316.768 3.02 1.075 5.755 1.075 2.271 0 4.748-.179 6.606-.46.62-.077.749-.102 1.187-.102l-.258-3.301c-1.832.69-4.49 1.075-7.587 1.075-3.122 0-4.361-.538-4.361-1.868 0-.742.439-1.433 1.342-2.098.542-.384 1.213-.742 2.477-1.33v.613c0 1.203-.051 2.508-.154 2.968l2.993-.076a10.533 10.533 0 01-.077-1.357c0-.179 0-.409.026-.844v-1.023c0-.358 0-.358-.026-1.024v-.281c2.219-.768 3.509-1.203 3.871-1.305 1.367-.384 2.142-.589 2.864-.691l-1.213-2.942c-.413.255-.516.281-1.909.767-.646.205-1.962.665-3.949 1.382-.413-1.766-1.677-2.712-3.69-2.712-1.316 0-2.684.435-3.639 1.151-.335.256-.335.256-.516.384l-.026-.051c.904-.921 1.626-1.945 2.375-3.403 2.606-.077 5.883-.282 7.767-.512 1.316-.154 1.316-.154 2.039-.205l-.181-2.916c-1.419.409-3.767.69-6.761.87-1.419.076-1.419.076-1.626.102.052-.103.103-.18.232-.46.878-2.048.878-2.048 1.033-2.304l-3.381-.358c-.103.87-.335 1.638-1.032 3.173-3.277 0-4.929-.102-5.987-.333l-.052 2.917zm34.322 2.968c0 .691 0 .691-.025 1.407h-4.542c-1.265 0-1.704-.025-2.323-.102v2.43c.671-.076 1.084-.102 2.323-.102h4.361c-.078.614-.129.896-.232 1.382h-6.762c-1.29 0-1.909-.026-2.606-.128v2.687a23.963 23.963 0 012.761-.154h5.703c-.774 1.305-1.78 2.226-3.277 2.994-1.548.793-2.89 1.177-5.6 1.56.749 1.075.903 1.357 1.368 2.661 2.864-.562 4.49-1.176 6.297-2.302 1.729-1.1 2.838-2.277 3.767-4.017 1.6 2.251 3.355 3.633 6.116 4.861 1.368.589 2.426.921 4.826 1.484.336-1.075.748-1.868 1.342-2.763-1.419-.256-2.219-.41-2.865-.589-1.806-.435-3.406-1.049-4.541-1.74-.981-.614-1.471-1.049-2.4-2.149h6.58c1.136 0 1.858.051 2.787.154V33.97c-.722.102-1.367.128-2.658.128h-8.051c.103-.537.129-.742.206-1.382h4.981c1.213 0 1.626.026 2.296.103v-2.43c-.619.076-1.032.101-2.296.101h-4.826c.026-.588.026-.588.052-1.407h5.187c1.213 0 1.806.026 2.451.128v-1.356h2.374a14.03 14.03 0 01-.103-1.893v-1.945c0-.69.026-1.228.103-1.868-.877.077-1.548.103-2.864.103h-7.071v-.589c0-.64.026-1.1.129-1.612h-3.174c.103.563.155.973.155 1.612v.589h-6.71c-1.29 0-2.013-.026-2.839-.103.078.665.104 1.228.104 1.92v1.893c0 .844-.026 1.305-.129 1.893h2.374v1.356c.593-.102 1.239-.128 2.426-.128h4.825zm-4.825-2.251c-.955 0-1.523-.026-1.987-.077v-2.098h16.799v2.098c-.645.051-1.058.077-2.038.077h-5.136c.026-1.024.026-1.33.103-1.638h-2.993c.077.486.077.819.103 1.638h-4.851zm32.541 8.597c-.284 2.353-1.419 3.965-3.716 5.194-.877.46-1.6.716-2.968 1.023.904.972 1.265 1.51 1.626 2.354 1.703-.537 2.607-.947 3.613-1.612 1.626-1.075 2.787-2.507 3.484-4.247.309-.794.413-1.152.671-2.712h1.264v6.063c0 .947.052 1.152.387 1.433.439.384 1.187.512 3.045.512 2.013 0 2.942-.179 3.484-.716.516-.512.697-1.33.929-4.094a11.12 11.12 0 01-2.4-1.024c-.025 1.612-.155 2.84-.335 3.07-.129.206-.49.282-1.187.282-1.084 0-1.213-.051-1.213-.435v-5.09h1.884c.284 0 .98.05 1.522.102-.077-.87-.103-1.638-.103-2.763v-9.416c0-1.254.026-1.92.103-2.584-.696.076-1.264.102-2.477.102h-7.897c-1.316 0-1.832-.026-2.503-.102.052.742.077 1.202.077 2.584v9.57c0 1.023-.025 1.739-.077 2.583 1.058-.05 1.497-.076 2.426-.076h.361zm-.052-12.154h7.329v1.74h-7.329v-1.74zm0 3.966h7.329v1.74h-7.329v-1.74zm0 3.966h7.329v1.842h-7.329v-1.842zm-8.928-7.318v5.015h-.904c-.8 0-1.213-.026-1.806-.102v2.61c.542-.103 1.058-.128 1.755-.128h.955v5.68c-1.497.486-2.684.793-3.381.895l.723 2.943c.387-.18.619-.256 1.341-.512 2.942-1.023 4.671-1.74 6.839-2.917v-2.61c-1.471.691-1.961.896-2.813 1.254v-4.733h.774c.594 0 1.058.025 1.652.102v-2.584c-.542.076-.903.102-1.652.102h-.774V23.89h.671c.903 0 1.445.026 2.116.102v-2.737c-.722.128-1.316.153-2.296.153h-3.82c-1.006 0-1.626-.025-2.322-.153v2.763c.722-.102 1.213-.128 2.167-.128h.775zm35.947 12.563c-.051-.512-.051-.768-.051-1.075 0-.358 0-.358.051-1.842l.362-8.7c.051-1.1.155-2.43.232-3.12h-4.232c.103.716.18 1.995.232 3.12l.361 8.7c.078 1.535.078 1.535.078 1.817 0 .307-.026.563-.052 1.1h3.019zm.362 5.603V38.55h-3.742v3.505h3.742z" fill="#333"/><path fill-rule="evenodd" clip-rule="evenodd" d="M256.268 63.37l18.695 21.973 18.695-21.973h256.268V1.074H1.074V63.37h255.194zM274.963 87l-19.191-22.556H0V0h551v64.444H294.154L274.963 87z" fill="#333"/></svg>