<svg width="274" height="88" fill="none" xmlns="http://www.w3.org/2000/svg"><g clip-path="url(#clip0)" fill="#1D1D1B"><path d="M17.82 36.846L9.845 24.028H7.194v12.818H0V.422h10.111c9.69 0 14.247 3.221 14.247 10.945v1.9c0 5.413-2.09 8.325-6.934 9.743l8.785 13.836h-8.39zm-7.71-18.832c5.202 0 6.663-1.624 6.663-5.104v-1.23c0-3.448-.985-5.25-6.565-5.25H7.134v11.583h2.977zM54.031.422H30.945V6.1h23.086V.422zM38.14 30.935v-9.603h13.542v-5.867H30.945v21.418h23.812v-5.948H38.139zM78.41.47v22.39L67.424.47h-7.14v36.375h7.14V14.994l11.145 21.852h6.983V.47h-7.14zm13.81 25.831V10.885C92.22 3.167 95.92 0 105.604 0s13.711 3.167 13.711 10.885v15.416c0 7.524-4.168 10.886-13.711 10.886S92.219 33.825 92.219 26.3zm19.902-.32v-14.77c0-3.314-.936-5.446-6.495-5.446-5.213 0-6.198 2.132-6.198 5.445v14.772c0 3.47.985 5.45 6.198 5.45 5.212 0 6.495-1.98 6.495-5.45zM152.145.47l-10.798 36.413h-7.503L123.008.471h7.345l7.248 25.127L144.784.47h7.361zm27.2-.048h-23.091V6.1h23.091V.422zm-15.903 30.513v-9.603h13.543v-5.867h-20.731v21.418h23.805v-5.948h-16.617zM208.721.422H185.64V6.1h23.081V.422zm-15.887 30.513v-9.603h13.543v-5.867H185.64v21.418h23.811v-5.948h-16.617zM233.106.47v22.39L222.118.47h-7.14v36.375h7.14V14.994l11.139 21.852h6.983V.47h-7.134zm13.808 25.831V10.885C246.914 3.167 250.616 0 260.3 0S274 3.167 274 10.885v15.416c0 7.524-4.173 10.886-13.7 10.886s-13.386-3.362-13.386-10.886zm19.892-.32v-14.77c0-3.314-.931-5.446-6.495-5.446-5.218 0-6.198 2.132-6.198 5.445v14.772c0 3.47.98 5.45 6.198 5.45s6.495-1.98 6.495-5.45z"/></g><path d="M8.768 77.344v-10.08h4.32v-2.616H5.912v12.696h2.856zm18.24 8.736c-.072-.792-.096-1.416-.096-2.664V77.08c0-.672-.024-.96-.096-1.632.192.12.264.144.816.408 4.008 1.848 6.504 3.216 8.496 4.584l1.68-2.832c-3.84-2.16-7.608-3.912-10.896-5.064V68.08c0-1.488 0-1.8.096-2.52H23.72c.096.648.144 1.272.144 2.448v15.384c0 1.272-.024 1.92-.144 2.688h3.288zm19.416-8.616c.96-.12 1.224-.12 3.912-.12H63.08c2.688 0 2.952 0 3.912.12v-3.336c-1.056.144-1.512.168-3.888.168H50.312c-2.376 0-2.832-.024-3.888-.168v3.336zm45.12-9.696c-.624.216-1.128.264-2.112.288-5.856.048-5.856.048-6.24.096.12-.216.288-.504.576-1.152.456-.912.456-.912.72-1.344l-3.12-.696c-.216.888-.696 2.064-1.392 3.336-1.464 2.688-3.384 4.872-6.024 6.84 1.248.72 1.608 1.032 2.4 1.92 2.424-2.04 4.128-3.984 5.616-6.456l7.464-.072c-.744 2.256-1.56 3.936-2.688 5.664-1.8-1.416-2.808-2.088-4.824-3.216l-1.824 2.136c1.8.984 3.24 1.992 4.92 3.432-1.224 1.368-2.232 2.232-3.936 3.336-1.44.96-2.64 1.56-4.68 2.4.912.768 1.224 1.176 1.992 2.472 5.112-2.352 8.496-5.184 10.944-9.168.984-1.608 2.304-4.416 3.072-6.6.384-1.104.432-1.2.744-1.608l-1.608-1.608zm12.293-1.536c.096.648.096.864.096 2.184 0 6.72-.552 9.816-2.28 12.576-.72 1.152-1.296 1.8-2.472 2.76 1.128.768 1.488 1.128 2.424 2.328 1.584-1.56 2.496-2.784 3.312-4.44 1.248-2.472 1.776-5.184 1.944-9.864.144-4.704.144-4.704.24-5.376l-3.264-.168zm6.36-.168c.072.456.096.984.096 1.584v.72l-.12 13.536c-.024 1.32-.048 1.848-.216 2.544l1.536 1.632c.312-.144.504-.24 1.032-.432 2.496-.984 3.744-1.704 5.112-2.88 1.584-1.416 2.832-3.216 3.816-5.592-1.104-.864-1.416-1.176-2.256-2.256-.552 1.776-1.248 3.096-2.352 4.392-1.032 1.224-1.992 1.944-3.672 2.736l.12-13.656c.024-1.176.048-1.584.168-2.28l-3.264-.048zm32.664 17.76v1.464h3.216c-.096-.6-.12-1.272-.12-2.472V69.64c0-1.104 0-1.344.072-1.992-.84.048-.84.048-2.088.048h-11.544c-1.752 0-2.208-.024-3.096-.168v3.12c.864-.096 1.368-.12 3.072-.12h10.512v10.464h-10.92c-1.68 0-2.112-.024-3-.168v3.096c.72-.072 1.296-.096 2.952-.096h10.944zm32.496-.528c-2.904-2.808-2.904-2.808-3.504-3.336-1.632-1.464-2.928-2.472-4.44-3.48 1.464-1.968 2.64-4.056 3.744-6.624.264-.6.456-.936.768-1.296l-1.584-1.632c-.6.216-.792.24-2.136.264l-8.448.12h-.576c-.984 0-1.44-.024-2.112-.144l.096 3.072c.816-.12 1.464-.168 2.616-.192 7.56-.12 7.56-.12 7.944-.144l-.264.624c-1.56 3.744-4.44 7.224-8.064 9.768-1.8 1.272-2.952 1.92-4.8 2.64.984 1.032 1.272 1.416 1.944 2.664 3.672-1.8 6.432-3.912 9.144-6.936 2.616 1.992 5.376 4.68 7.368 7.128l2.304-2.496zm14.616 2.784c-.072-.792-.096-1.416-.096-2.664V77.08c0-.672-.024-.96-.096-1.632.192.12.264.144.816.408 4.008 1.848 6.504 3.216 8.496 4.584l1.68-2.832c-3.84-2.16-7.608-3.912-10.896-5.064V68.08c0-1.488 0-1.8.096-2.52h-3.288c.096.648.144 1.272.144 2.448v15.384c0 1.272-.024 1.92-.144 2.688h3.288zm24-11.544h3.312c1.128 0 1.68.024 2.304.144v-2.832c-.648.12-1.152.144-2.304.144h-3.312v-4.008c0-1.296.024-1.92.144-2.688h-3c.096.792.144 1.44.144 2.688v15.432c-1.2.288-1.776.384-2.64.456l.576 2.976c.312-.144.744-.288 1.32-.456.192-.048.192-.048.504-.144 1.752-.48 1.752-.48 2.544-.72 2.904-.912 4.128-1.344 6-2.064l-.024-2.544a89.015 89.015 0 01-5.568 1.776v-8.16zm9.168 1.536c2.64-1.416 4.704-2.76 6.648-4.32.504-.408.504-.408.864-.672l-1.872-2.208c-1.008 1.344-2.856 2.784-5.64 4.392v-5.232c0-1.296.024-1.92.144-2.712h-2.952c.096.72.144 1.368.144 2.712v16.056c0 1.08.24 1.656.888 1.992.624.336 1.416.432 3.672.432 2.856 0 3.888-.216 4.56-.96.696-.768.96-2.136 1.128-5.712-1.032-.288-1.584-.528-2.544-1.056-.024 2.976-.168 4.368-.504 4.824-.24.336-.816.432-2.496.432-1.728 0-2.04-.096-2.04-.624v-7.344zm29.448-5.232c.984 2.016 1.752 3.144 2.952 4.488l-2.208-.864a14.423 14.423 0 01-1.464 4.368c-.864-1.368-1.464-2.904-1.704-4.2l-1.56.648c1.2-1.488 1.848-2.568 2.736-4.44l-2.16-1.008c-.792 1.968-1.656 3.24-3.168 4.704v-1.728c0-1.272.024-1.824.072-2.328-.504.048-.864.072-2.016.072h-1.344V69.28h1.296c1.152 0 1.536.024 2.184.096v-2.424c-.672.096-1.08.12-2.184.12h-1.296v-.288c0-.768.048-1.368.144-1.968h-2.64c.12.672.168 1.224.168 1.968v.288h-1.848c-1.104 0-1.536-.024-2.208-.12v2.424c.648-.072 1.2-.096 2.208-.096h1.848v1.272h-1.128c-1.104 0-1.584-.024-2.376-.072.072.696.096 1.392.096 2.496v4.128c0 1.104-.024 1.944-.096 2.688a35.887 35.887 0 012.424-.072h1.08v1.536h-1.968c-1.128 0-1.584-.024-2.208-.12v2.496c.696-.096 1.128-.12 2.208-.12h1.968v1.296c0 .84-.048 1.44-.168 2.208h2.64a15.099 15.099 0 01-.144-2.112v-1.392h1.8c.888 0 1.272.024 1.968.12v-2.496c-.672.096-1.056.12-1.968.12h-1.8V79.72h1.248c1.176 0 1.584.024 2.112.072a35.414 35.414 0 01-.072-2.592v-1.68c.552.528.744.72 1.2 1.296.384-.384.504-.504.792-.816.936 2.4 1.536 3.624 2.376 4.944-1.56 1.776-3.096 2.856-5.496 3.888.768.768 1.008 1.104 1.608 2.208 2.232-1.152 3.72-2.28 5.376-4.152 1.44 1.68 2.616 2.592 5.304 4.152.48-1.128.72-1.56 1.392-2.52-2.376-1.032-3.744-1.968-5.208-3.624.936-1.56 1.8-3.6 2.304-5.448.432.432.648.672 1.272 1.248.576-.888.576-.888 1.632-2.088-1.872-1.536-2.76-2.616-3.936-4.8l-2.04 1.032zm-9.96 6.936v-1.704h1.464v1.704h-1.464zm0-3.6v-1.68h1.464v1.68h-1.464zm-2.16-1.68v1.68h-1.464v-1.68h1.464zm0 3.576v1.704h-1.464v-1.704h1.464zm10.2-8.712h-1.584c-1.08 0-1.704-.024-2.376-.144v2.616c.696-.096 1.392-.12 2.376-.12h6.6c.888 0 1.704.048 2.448.12V67.24c-.72.096-1.368.12-2.424.12h-2.448v-.816c0-.768.024-1.272.12-1.752h-2.832c.096.552.12 1.032.12 1.8v.768zm16.968 7.056v10.08h-4.32v2.616h7.176V74.416h-2.856z" fill="#333"/><defs><clipPath id="clip0"><path fill="#fff" d="M0 0h274v37.187H0z"/></clipPath></defs></svg>