<svg width="1440" height="491" fill="none" xmlns="http://www.w3.org/2000/svg"><path fill="#333" d="M0 58h1440v433H0z"/><path d="M171.96 93.536c1.512 0 2.016.024 2.76.12V91.88c-.792.12-1.248.144-2.784.144h-14.04c-1.512 0-1.992-.024-2.784-.144v1.776c.744-.096 1.248-.12 2.76-.12h6.504c-.192 5.472-2.064 8.04-7.032 9.696.576.552.816.864 1.128 1.56 5.424-2.112 7.44-5.04 7.728-11.256h5.76zm-14.424-5.784c.672-.096 1.08-.12 2.736-.12h7.296c1.512.024 2.424.048 2.736.072v-1.728c-.84.096-1.464.12-2.76.12h-7.248c-1.56 0-2.04-.024-2.76-.168v1.824zm12.864-3.264c.672.768 1.776 2.592 2.328 3.888l1.224-.672c-.672-1.416-1.32-2.472-2.352-3.792l-1.2.576zm2.952-.888c.888 1.128 1.848 2.712 2.328 3.864l1.224-.672c-.744-1.512-1.32-2.448-2.352-3.792l-1.2.6zm11.76 6.48v-2.856c0-1.056.024-1.368.096-1.944h-1.944c.072.528.096.744.096 2.016v2.784h-1.992c-1.512 0-1.992-.024-2.808-.144v1.824c.768-.096 1.248-.12 2.784-.12h2.016v3.936c0 1.272-.024 1.512-.096 2.016h1.944c-.072-.552-.096-.888-.096-1.944V91.64h7.296c-.048 3.84-.192 5.28-.72 6.72-.96 2.424-3.384 4.296-6.528 5.088.552.528.792.888 1.08 1.512 3.24-1.104 5.4-2.784 6.696-5.184.888-1.728 1.152-3.504 1.176-8.136h2.112c1.536 0 2.016.024 2.784.12v-1.824c-.816.12-1.296.144-2.808.144h-2.064v-2.52c.024-1.584.024-1.608.096-2.28h-1.872c.072.552.072.768.072 2.448v2.352h-7.32zm10.032-5.952c.648 1.08 1.128 2.232 1.704 4.008l1.272-.432c-.552-1.704-.936-2.544-1.704-3.936l-1.272.36zm2.808-.744c.576.936 1.224 2.472 1.68 3.936l1.248-.432a18.605 18.605 0 00-1.704-3.912l-1.224.408zm20.41 1.56c-.672 1.128-2.352 2.808-4.584 4.536-3.792 2.976-7.944 5.04-12.456 6.216.48.6.6.84.936 1.608 4.392-1.488 6.144-2.28 9.264-4.2v9.12c0 1.32-.024 1.872-.144 2.496h2.088c-.096-.648-.12-1.176-.12-2.544V91.952c2.064-1.488 4.104-3.24 5.616-4.824.6-.648.624-.696 1.056-1.008l-1.656-1.176zm8.952 3.384a26.501 26.501 0 015.712 4.704l1.248-1.488c-1.728-1.704-3.216-2.88-5.784-4.512l-1.176 1.296zm.168 15.6c.6-.192.792-.24 1.44-.384 4.008-.912 6.48-1.896 8.952-3.576 3.168-2.184 5.4-4.992 7.32-9.168-.672-.456-.912-.672-1.464-1.416-1.944 5.088-5.16 8.616-9.792 10.68-2.232 1.032-5.112 1.776-6.984 1.848l.528 2.016zm32.088-11.016c-1.08 0-1.968.888-1.968 1.968s.888 1.968 1.968 1.968 1.968-.888 1.968-1.968-.888-1.968-1.968-1.968zm32.544 1.368c-.36.072-.792.096-1.8.096h-6.696c-.696 0-1.224-.024-1.704-.12v1.56a11.59 11.59 0 011.44-.12c1.224 2.784 1.896 3.816 3.552 5.472-1.728 1.392-3.504 2.352-5.976 3.192.432.432.648.72.936 1.32 2.568-1.008 4.464-2.112 6.096-3.528 1.776 1.488 3.36 2.352 6.216 3.48.264-.6.48-.96.864-1.512-2.64-.84-4.32-1.68-6.024-3 1.464-1.512 2.664-3.216 3.528-5.064.312-.648.312-.648.456-.888l-.888-.888zm-1.008 1.416c-.936 1.968-1.752 3.12-3.144 4.512-1.608-1.536-2.328-2.568-3.192-4.512h6.336zm-17.232-9.384c.528-.072 1.08-.096 1.824-.096h3.24c.768 0 1.224.024 1.824.096V84.8c-.576.096-1.008.12-1.824.12h-3.24c-.84 0-1.248-.024-1.824-.12v1.512zm-.816 3.408a15.05 15.05 0 011.92-.096h4.752c.864 0 1.272.024 1.752.096v-1.608c-.552.096-.936.12-1.92.12h-4.584c-.912 0-1.368-.024-1.92-.12v1.608zm.84 3.312c.552-.072.936-.096 1.728-.096h3.384c.744 0 1.128.024 1.704.096v-1.464c-.504.072-.84.096-1.704.096h-3.384c-.84 0-1.272-.024-1.728-.096v1.464zm0 3.312c.552-.072.912-.096 1.728-.096h3.384c.816 0 1.032.024 1.704.096V94.88c-.432.072-.888.096-1.704.096h-3.384c-.84 0-1.248-.024-1.728-.096v1.464zm1.512 9.456v-1.296h3.864v.984h1.488c-.096-.624-.12-1.224-.12-1.968v-3.384c0-.912.024-1.344.072-1.896-.432.072-.72.072-1.752.072h-3.144c-.696 0-1.296-.024-1.92-.096.096.624.12 1.176.12 2.016v3.24c0 .96-.048 1.632-.144 2.328h1.536zm0-6.24h3.864v3.696h-3.864V99.56zm13.896-13.296v5.064c0 1.08.432 1.32 2.376 1.32 1.368 0 1.968-.12 2.328-.432.456-.408.696-1.296.84-3.24-.528-.168-.744-.264-1.32-.648-.048 1.416-.168 2.28-.384 2.688-.12.264-.408.336-1.392.336-.792 0-1.008-.096-1.008-.504v-3.744c0-.96.024-1.584.096-2.256-.552.072-1.176.096-2.04.096h-2.928c-.624 0-1.224-.024-1.872-.096.096.624.12.864.12 1.44 0 1.584-.168 2.664-.552 3.648-.48 1.272-1.104 2.016-2.352 2.856.432.24.792.552 1.224 1.008.984-.768 1.464-1.32 1.968-2.232.792-1.44 1.08-2.712 1.152-5.304h3.744zm22.536 5.448h-2.112c-1.2 0-2.016-.048-2.76-.144v1.728a23.419 23.419 0 012.76-.144h2.112v9.168c0 1.704-.048 2.472-.168 3.432h1.92c-.144-.912-.192-1.896-.192-3.432v-9.168h2.28c1.2 0 1.992.048 2.88.144v-1.728c-.792.096-1.584.144-2.88.144h-2.28v-4.848c0-1.032.048-1.92.168-2.664h-1.896c.12.864.168 1.536.168 2.664v4.848zm-13.68-5.184c.528-.072 1.128-.096 1.944-.096h3.912c.816 0 1.272.024 1.896.096v-1.512c-.576.096-1.056.12-1.896.12h-3.912c-.864 0-1.368-.024-1.944-.12v1.512zm-1.128 3.336c.672-.096 1.272-.12 2.064-.12h5.808c.864 0 1.512.024 2.088.12V88.28c-.552.096-1.152.144-2.088.144h-5.784c-.864 0-1.44-.048-2.088-.144v1.584zm1.152 3.264c.552-.072.936-.096 1.728-.096h4.272c.768 0 1.08.024 1.704.096v-1.464c-.528.072-.888.096-1.704.096h-4.272c-.84 0-1.224-.024-1.728-.096v1.464zm0 3.312c.552-.072.912-.096 1.728-.096h4.272c.816 0 1.128.024 1.704.096v-1.464c-.528.072-.888.096-1.704.096h-4.272c-.864 0-1.248-.024-1.728-.096v1.464zm1.704 8.088h4.56v.936h1.608a12.51 12.51 0 01-.144-2.04v-3.168c0-.912.024-1.368.096-1.92-.48.048-.936.072-1.632.072h-4.392c-.768 0-1.152-.024-1.68-.096.096.624.12 1.176.12 1.968v3.192a16.2 16.2 0 01-.144 2.304h1.608v-1.248zm-.024-4.824h4.608v3.552h-4.608v-3.552zm35.16-9.192v-1.44h3.432c.912 0 1.584.024 2.28.072-.072-.384-.072-.552-.072-1.344v-.816c0-.72.024-1.08.096-1.56-.528.096-1.176.12-2.28.12h-3.456v-.24c0-.6.024-.912.12-1.416h-1.584c.096.504.12.816.12 1.392v.264h-3.816c.048-.864.072-1.416.096-1.632h-1.56c.096.624.12.888.12 1.632h-4.224c-1.2 0-1.776-.024-2.376-.12v1.392c.696-.096 1.392-.12 2.376-.12h4.176c-.024.528-.048.768-.12 1.296h-3.096c-1.104 0-1.656-.024-2.184-.072-.336 1.536-.672 2.472-1.344 3.768a26.144 26.144 0 012.136-.072h3.072c-1.248 1.368-2.88 2.088-6.288 2.808.384.408.576.744.768 1.224 1.344-.384 1.848-.552 2.664-.912v5.328c0 1.128-.024 1.92-.096 2.424.624-.072 1.536-.096 2.664-.096h10.2c1.152 0 2.064.024 2.688.096-.072-.576-.096-1.248-.096-2.472v-3.864c0-.864.024-1.608.048-2.208.264.024.456.024.624.024.576 0 .984-.144 1.224-.432.24-.288.36-.72.552-1.944.096-.6.096-.624.216-1.152-.576.072-.96.072-2.304.072h-4.776zm1.992 3.096h-10.68c.936-.528 1.56-1.08 2.184-1.992h5.16v.24c0 .528-.024.888-.12 1.296h1.584c-.096-.408-.12-.768-.12-1.32v-.216h5.472c-.168 1.248-.216 1.296-.768 1.296-.36 0-.816-.096-1.488-.312.12.36.168.576.24 1.008h-1.464zm-8.856-4.536c-.144.624-.24.888-.48 1.44h-3.96c.168-.408.264-.648.528-1.44h3.912zm5.52 0v1.44h-4.584c.24-.576.312-.816.432-1.44h4.152zm0-2.376v1.296h-3.984c.048-.48.048-.504.12-1.296h3.864zm1.344 0h4.224v1.296h-4.224v-1.296zm-9.504 8.064h12.456v1.416h-12.456V94.76zm0 2.52h12.456v1.416h-12.456V97.28zm0 2.52h12.456v1.44h-12.456V99.8zm2.496 2.808c-2.208 1.2-3.96 1.728-6.912 2.136.384.408.6.768.864 1.344 3.216-.672 4.656-1.2 7.152-2.592l-1.104-.888zm6.24.888c1.464.84 2.184 1.152 3.792 1.68 1.368.456 2.088.624 3.552.888.336-.624.456-.816.912-1.368-1.584-.168-2.376-.312-3.6-.648-1.416-.384-2.112-.648-3.528-1.416l-1.128.864zm-57.298 75.856v-1.344c0-.816.024-1.296.144-1.944h-1.632c.072.6.096 1.152.096 1.968v1.752l-.168.048c-.792.24-1.152.312-1.68.408l.312 1.584c.456-.216.96-.432 1.536-.624v6.912c0 1.776.768 2.064 5.496 2.064 5.088 0 5.28-.144 5.688-4.464-.624-.144-.888-.264-1.488-.6-.048 1.824-.216 2.952-.504 3.264-.264.312-1.104.408-3.624.408-3.912 0-4.176-.072-4.176-1.056v-6.96l2.736-.888v3.984c0 1.008-.024 1.392-.096 2.016h1.56c-.096-.552-.12-1.032-.12-2.016v-4.416l3.192-1.032c0 1.896-.096 3.408-.264 4.728-.072.504-.264.72-.696.72-.312 0-1.032-.096-1.56-.192.192.552.264.84.336 1.416.528.048 1.032.072 1.32.072.888 0 1.368-.168 1.608-.576.36-.648.504-2.016.624-5.736.024-.504.024-.792.096-2.328-.336.168-1.32.528-1.968.72l-2.688.84v-1.416c0-.792.048-1.368.144-1.944h-1.608c.072.6.12 1.176.12 1.992v1.776l-2.736.864zm-7.896-6.432h-1.896c-.912 0-1.464-.048-2.088-.144v1.608c.552-.096 1.08-.12 2.016-.12h.696c-.096 4.56-.144 5.544-.336 7.296-.384 3.456-1.2 5.616-2.928 7.728.456.36.72.624 1.128 1.2 1.464-2.04 2.16-3.504 2.712-5.712.36-1.44.552-2.928.72-5.904h2.712c0 3.48-.144 6.288-.408 8.04-.24 1.632-.384 1.848-1.224 1.848-.624 0-1.2-.072-1.944-.264.168.456.216.816.288 1.56.648.048 1.32.096 1.632.096.816 0 1.44-.12 1.728-.36.384-.288.648-1.032.864-2.352.264-1.656.432-5.04.456-8.496 0-.6.024-1.032.048-1.488-.48.072-.912.096-1.68.096h-2.424c.048-1.92.048-1.92.096-3.288h2.952c1.032 0 1.584.024 2.136.096v-1.56c-.624.096-1.248.12-2.136.12h-1.632v-1.584c0-.96.024-1.488.144-2.208h-1.776c.096.696.144 1.296.144 2.208v1.584zm15.072.864c.936 0 1.776.024 2.448.096v-1.608c-.576.096-1.344.144-2.448.144h-6.888c.312-.696.456-1.008.864-1.992.288-.744.312-.816.432-1.008l-1.608-.384c-.072.384-.12.576-.336 1.2-.768 2.4-1.92 4.344-3.792 6.528.576.312.888.576 1.152.96 1.2-1.56 1.824-2.52 2.592-3.936h7.584zm14.832-.624v13.704H292.2c-1.272 0-2.016-.048-2.832-.168v1.872c.84-.12 1.608-.168 2.808-.168h15.768c1.2 0 2.04.048 2.808.168v-1.872c-.816.12-1.56.168-2.808.168h-7.248V173.16h5.784c1.128 0 1.896.048 2.76.144v-1.824c-.792.096-1.536.144-2.784.144h-12.768c-1.272 0-2.016-.048-2.784-.144v1.824a22.85 22.85 0 012.76-.144h5.304zm28.488 2.352v-1.44h3.432c.912 0 1.584.024 2.28.072-.072-.384-.072-.552-.072-1.344v-.816c0-.72.024-1.08.096-1.56-.528.096-1.176.12-2.28.12h-3.456v-.24c0-.6.024-.912.12-1.416h-1.584c.096.504.12.816.12 1.392v.264h-3.816c.048-.864.072-1.416.096-1.632h-1.56c.096.624.12.888.12 1.632h-4.224c-1.2 0-1.776-.024-2.376-.12v1.392c.696-.096 1.392-.12 2.376-.12h4.176c-.024.528-.048.768-.12 1.296h-3.096c-1.104 0-1.656-.024-2.184-.072-.336 1.536-.672 2.472-1.344 3.768a26.144 26.144 0 012.136-.072h3.072c-1.248 1.368-2.88 2.088-6.288 2.808.384.408.576.744.768 1.224 1.344-.384 1.848-.552 2.664-.912v5.328c0 1.128-.024 1.92-.096 2.424.624-.072 1.536-.096 2.664-.096h10.2c1.152 0 2.064.024 2.688.096-.072-.576-.096-1.248-.096-2.472v-3.864c0-.864.024-1.608.048-2.208.264.024.456.024.624.024.576 0 .984-.144 1.224-.432.24-.288.36-.72.552-1.944.096-.6.096-.624.216-1.152-.576.072-.96.072-2.304.072h-4.776zm1.992 3.096h-10.68c.936-.528 1.56-1.08 2.184-1.992h5.16v.24c0 .528-.024.888-.12 1.296h1.584c-.096-.408-.12-.768-.12-1.32v-.216h5.472c-.168 1.248-.216 1.296-.768 1.296-.36 0-.816-.096-1.488-.312.12.36.168.576.24 1.008h-1.464zm-8.856-4.536c-.144.624-.24.888-.48 1.44h-3.96c.168-.408.264-.648.528-1.44h3.912zm5.52 0v1.44h-4.584c.24-.576.312-.816.432-1.44h4.152zm0-2.376v1.296h-3.984c.048-.48.048-.504.12-1.296h3.864zm1.344 0h4.224v1.296h-4.224v-1.296zm-9.504 8.064h12.456v1.416h-12.456v-1.416zm0 2.52h12.456v1.416h-12.456v-1.416zm0 2.52h12.456v1.44h-12.456v-1.44zm2.496 2.808c-2.208 1.2-3.96 1.728-6.912 2.136.384.408.6.768.864 1.344 3.216-.672 4.656-1.2 7.152-2.592l-1.104-.888zm6.24.888c1.464.84 2.184 1.152 3.792 1.68 1.368.456 2.088.624 3.552.888.336-.624.456-.816.912-1.368-1.584-.168-2.376-.312-3.6-.648-1.416-.384-2.112-.648-3.528-1.416l-1.128.864zm-114.672 71.048h-6.672c-.768 0-1.224-.024-1.8-.096.072.624.12 1.152.12 1.896v6.552c0 .768-.048 1.44-.144 2.136h1.728V268.4h6.768v5.592c0 1.296-.048 1.92-.168 2.736h1.92c-.144-.768-.168-1.368-.168-2.736V268.4h7.152v1.632h1.728a15.193 15.193 0 01-.144-2.136v-6.552c0-.768.024-1.272.12-1.896-.552.072-1.008.096-1.824.096H213.6v-2.112c0-1.032.048-1.704.168-2.448h-1.92c.12.744.168 1.32.168 2.496v2.064zm0 1.44v5.976h-6.768v-5.976h6.768zm1.584 5.976v-5.976h7.152v5.976H213.6zm15.216-3.672h4.392c.96 0 1.776.024 2.424.072-.048-.6-.072-1.272-.072-2.232v-2.976c0-.888.024-1.608.072-2.28-.672.072-1.248.096-2.448.096h-3.432c-1.224 0-1.848-.024-2.52-.096.072.768.096 1.464.096 2.64v15.504c0 1.296-.048 2.04-.144 2.688h1.776c-.096-.624-.144-1.344-.144-2.688v-10.728zm0-6.144h5.376v1.92h-5.376v-1.92zm0 3.048h5.376v1.944h-5.376v-1.944zm17.832-1.68c0-1.08.024-1.704.12-2.64-.696.072-1.272.096-2.52.096h-3.96c-1.224 0-1.776-.024-2.448-.096.048.72.072 1.44.072 2.28v2.976c0 .888-.024 1.608-.072 2.232a33.015 33.015 0 012.424-.072h4.92v10.992c0 .576-.192.696-1.176.696-.504 0-1.512-.096-2.64-.24.216.504.336.888.432 1.536.6.048 1.896.096 2.4.096 1.944 0 2.448-.408 2.448-1.992v-15.864zm-7.368-1.368h5.904v1.92h-5.904v-1.92zm0 3.048h5.904v1.944h-5.904v-1.944zm2.136 7.248c0-.96.024-1.584.072-2.256-.72.072-1.272.096-2.376.096h-4.392c-1.08 0-1.656-.024-2.376-.096.048.696.072 1.392.072 2.256v5.328c0 .984-.024 1.608-.12 2.256h1.488v-1.68h5.256c.984 0 1.776.024 2.448.072a27.443 27.443 0 01-.072-2.184v-3.792zm-7.632-.96h6.264v2.136h-6.264v-2.136zm0 3.336h6.264v2.328h-6.264v-2.328zm20.784-4.92c3.6 2.904 7.176 6.84 9.36 10.32l1.464-1.224c-1.608-2.136-2.592-3.384-3.504-4.368 3.024-2.448 5.568-5.328 7.92-9 .504-.768.672-.984.96-1.272l-1.008-1.2c-.384.144-.504.168-1.344.168h-13.992c-1.392 0-1.968-.024-2.808-.144v1.896c.816-.072 1.488-.096 2.784-.096 13.368-.024 13.368-.024 13.704-.048-.096.144-.12.168-.192.288-1.008 1.656-2.64 3.816-3.96 5.208-.888.936-2.16 2.088-3.192 2.952-2.184-2.232-3.072-3.048-4.872-4.536l-1.32 1.056zm19.559 1.872c.72-.072 1.224-.096 2.976-.096h13.92c1.608 0 2.16.024 2.928.096v-1.944c-.744.096-1.128.12-2.904.12h-13.944c-1.632 0-2.28-.024-2.976-.144v1.968zm27.096-8.688c1.368.408 4.56 2.136 5.904 3.192l.984-1.608c-1.872-1.176-3.768-2.136-5.952-3.024l-.936 1.44zm-1.896 5.76c1.944.696 4.704 2.184 6.12 3.288l.936-1.632a38.395 38.395 0 00-6.096-3.12l-.96 1.464zm.816 11.472c.36-.12.408-.12.936-.24 8.64-1.632 13.584-5.4 16.608-12.672-.624-.432-.912-.672-1.488-1.296-1.728 5.088-5.448 9.048-10.08 10.752-2.256.864-4.944 1.488-6.312 1.488h-.144l.48 1.968zm13.392-19.152c.696.768 1.848 2.544 2.448 3.816l1.2-.72c-.72-1.416-1.392-2.424-2.448-3.72l-1.2.624zm2.712-1.272c.936 1.08 1.944 2.64 2.472 3.768l1.2-.696c-.792-1.512-1.392-2.4-2.496-3.72l-1.176.648zm7.536 4.44a26.501 26.501 0 015.712 4.704l1.248-1.488c-1.728-1.704-3.216-2.88-5.784-4.512l-1.176 1.296zm.168 15.6c.6-.192.792-.24 1.44-.384 4.008-.912 6.48-1.896 8.952-3.576 3.168-2.184 5.4-4.992 7.32-9.168-.672-.456-.912-.672-1.464-1.416-1.944 5.088-5.16 8.616-9.792 10.68-2.232 1.032-5.112 1.776-6.984 1.848l.528 2.016zm-85.887 69.216h-3.912c-1.128 0-1.776-.024-2.304-.096.072.6.096 1.104.096 2.016v5.664c0 1.224-.024 1.824-.12 2.52h1.632v-1.44h4.608v5.112c0 1.176-.048 2.16-.144 2.88h1.824c-.096-.696-.144-1.656-.144-2.904v-5.088h4.968v1.416h1.632c-.096-.624-.12-1.176-.12-2.496v-5.64c0-.984.024-1.392.096-2.04-.528.072-1.2.096-2.28.096H239.6v-2.232c0-1.152.048-1.872.144-2.664h-1.824c.096.768.144 1.512.144 2.64v2.256zm0 1.44v5.808h-4.608v-5.808h4.608zm1.536 5.808v-5.808h4.968v5.808H239.6zm-11.592 6.648c0 1.296-.048 2.016-.168 2.88h1.872c-.12-.816-.168-1.728-.168-2.808v-13.104c.816-1.584 1.488-3.048 1.944-4.32.168-.48.264-.744.408-1.056l-1.68-.576c-.096.744-.48 1.944-1.008 3.24-1.152 2.736-2.616 5.016-4.512 6.936.48.552.576.672.936 1.416 1.224-1.44 1.872-2.352 2.472-3.528a42.226 42.226 0 00-.096 2.952v7.968zm31.008-18.696c-2.16 3.72-5.808 7.008-9.984 8.952.432.456.744.888 1.032 1.44 2.52-1.344 4.392-2.712 6.384-4.68 1.512-1.488 2.28-2.4 3.528-4.32 1.224 1.92 2.232 3.096 3.936 4.632 1.944 1.728 4.104 3.24 6.36 4.416.336-.672.552-1.008 1.008-1.536-2.112-.96-4.2-2.28-6.072-3.84-2.016-1.728-3.216-3.096-4.368-5.064h-1.824zm-3.816 7.92c.12.792.168 1.416.168 2.304 0 3.144-.552 5.304-1.728 6.864-.936 1.248-2.04 2.064-4.08 2.952.552.408.888.768 1.272 1.392 4.488-2.448 6.048-5.328 6.12-11.256.024-1.032.048-1.56.144-2.256H255.2zm7.536 0c.12.768.168 1.584.168 2.472v8.232c0 .888-.048 1.656-.168 2.52h1.92a17.423 17.423 0 01-.168-2.544v-8.208c0-.96.048-1.656.168-2.472h-1.92zm20.592-1.08h-6.048c-1.128 0-1.848-.048-2.544-.144v1.68c.72-.096 1.584-.144 2.544-.144h6.048v3.768h-7.392c-1.128 0-1.848-.048-2.52-.144v1.704c.72-.096 1.44-.144 2.52-.144h7.392v5.28c0 .528-.24.696-1.008.696-1.032 0-2.568-.144-4.08-.408.264.696.36 1.008.432 1.656 1.272.144 2.664.216 3.6.216 2.04 0 2.616-.408 2.616-1.896v-5.544h6.864c1.08 0 1.776.048 2.52.144V351.2c-.696.096-1.416.144-2.52.144h-6.864v-3.768h5.808c1.056 0 1.872.048 2.544.144v-1.68c-.696.096-1.416.144-2.544.144h-5.808v-4.032c2.832-.408 3.48-.552 7.32-1.632l-1.32-1.416c-1.176.6-3.24 1.152-6.12 1.632a62.944 62.944 0 01-9.936.768c.36.624.48.864.624 1.488 3.048-.096 4.68-.216 7.872-.624v3.816zm35.688-2.616c-.648.12-1.128.144-2.232.144h-5.088c.312-.936.48-1.608.792-2.784.312-1.176.312-1.176.432-1.512l-1.632-.36c-.096 1.512-.552 3.408-1.224 5.16-.84 2.232-1.704 3.72-2.952 5.184.528.288.768.456 1.2.936.792-1.008 1.176-1.632 1.752-2.784.504 2.952 1.176 4.896 2.472 7.056-1.512 2.064-3.384 3.528-6.216 4.896.408.408.696.768.984 1.344 2.664-1.44 4.584-3.024 6.096-4.944 1.488 2.016 3.144 3.48 5.328 4.752.312-.672.504-1.008.888-1.488-2.28-1.2-3.864-2.568-5.328-4.536.864-1.392 1.416-2.688 1.872-4.32.48-1.632.648-2.832.816-5.232 1.224 0 1.488.024 2.04.12v-1.632zm-3.528 1.512c-.072 1.416-.12 1.92-.288 2.784-.336 2.016-.912 3.744-1.8 5.376-1.272-2.256-1.896-4.296-2.424-7.632.12-.264.12-.312.216-.528h4.296zm-8.208 12.744c-1.104-.696-1.464-.912-2.496-1.416.936-1.224 1.272-1.872 1.824-3.672h.456c.816 0 1.248.024 1.728.12v-1.512c-.432.096-.84.12-1.68.12h-4.368c.24-.528.336-.768.648-1.56l-1.44-.336c-.288.96-.432 1.296-.72 1.896h-2.136c-.84 0-1.272-.024-1.704-.12v1.512c.456-.096.912-.12 1.704-.12h1.464c-.6 1.056-.888 1.488-1.704 2.592 1.944.72 2.592.984 3.672 1.488-1.392 1.128-3.048 1.944-5.28 2.544.36.456.552.792.768 1.32 2.856-1.008 4.32-1.8 5.808-3.192 1.104.576 1.512.84 2.616 1.656l.84-1.32zm-2.112-5.088c-.408 1.344-.792 2.04-1.632 3.072-.912-.432-1.368-.6-2.664-1.104.6-.936.84-1.296 1.224-1.968h3.072zm-1.248-8.808v-3.216c0-.672.024-1.08.12-1.608h-1.608c.096.552.12.984.12 1.608v3.216h-3.12c-.936 0-1.44-.024-1.944-.12v1.488c.504-.096 1.008-.12 1.896-.12h2.208c-.48.72-.624.864-.96 1.248-.96 1.056-1.848 1.728-3.552 2.736.456.36.72.648 1.056 1.152 2.352-1.68 3.288-2.64 4.512-4.728-.072.672-.096.936-.096 1.392v1.344c0 .336-.024.672-.096.984h1.56a4.494 4.494 0 01-.096-1.008v-1.344c0-.432-.024-.72-.096-1.392.84 1.392 1.464 2.064 2.88 3.12.504-.744.528-.768.936-1.152-1.296-.72-2.232-1.464-2.928-2.352h2.352c.816 0 1.2.024 1.632.096v-1.44c-.408.072-.768.096-1.608.096h-3.168zm-5.712-3.792c.792 1.08 1.224 1.848 1.728 3.144l1.296-.528c-.552-1.248-.984-1.992-1.8-3.168l-1.224.552zm8.784-.624c-.528 1.368-1.056 2.28-1.992 3.432l1.2.6c.84-1.08 1.272-1.824 2.088-3.432l-1.296-.6zm31.848 13.56l-6.552 1.56c-.912.216-1.704.36-2.304.384l.312 1.704a16.6 16.6 0 012.232-.648l6.312-1.536v3.624c0 1.368-.024 1.992-.144 2.64h1.824c-.096-.696-.144-1.464-.144-2.616v-4.008l.552-.144c.936-.216 1.704-.36 2.304-.408l-.288-1.68c-.528.216-1.128.408-2.208.672l-.36.072v-11.04c0-1.128.048-1.776.144-2.496h-1.824c.096.6.144 1.248.144 2.52v11.4zm-13.32-4.392c-.504 1.488-.744 2.04-1.344 3.216-.864 1.68-1.656 2.808-2.856 4.032.384.408.576.696.912 1.344 1.632-1.848 2.688-3.816 3.696-6.864a69.32 69.32 0 00-.12 3.72v4.08c0 1.104-.048 1.848-.144 2.664h1.752c-.096-.768-.144-1.488-.144-2.64v-4.488c0-.456-.072-2.592-.12-3.552.696 1.608 1.368 2.592 2.808 4.224.192-.384.504-.864.84-1.296-1.464-1.296-2.4-2.496-3.432-4.44h1.32c.744 0 1.296.024 1.8.096v-1.512c-.48.072-.96.096-1.776.096h-1.44v-5.688c0-1.224.048-1.944.144-2.544h-1.752c.096.624.144 1.392.144 2.568v5.664h-1.896c-1.056 0-1.608-.024-2.088-.12v1.56c.576-.096 1.08-.12 2.088-.12h1.608zm-3.576-7.488c.744 1.656 1.152 2.952 1.584 5.136l1.272-.552c-.456-2.04-.792-3.096-1.608-5.136l-1.248.552zm7.752-.624c-.504 2.376-.864 3.456-1.752 5.208l1.176.552c.888-1.848.888-1.872 1.944-5.232l-1.368-.528zm2.424 1.44c1.944 1.344 2.76 2.088 4.368 3.888l.984-1.248c-1.44-1.536-2.232-2.232-4.32-3.744l-1.032 1.104zm-.744 6c1.92 1.248 2.88 2.064 4.344 3.744l1.008-1.2c-1.248-1.392-2.28-2.256-4.296-3.648l-1.056 1.104zm-98.329 79.232c.754-.087 1.566-.116 2.494-.116h9.918c1.16 0 1.885.029 2.61.116v-2.03c1.769 1.16 2.668 1.624 4.727 2.552.551-1.421.841-1.972 1.595-3.19-2.958-1.102-5.133-2.262-7.395-3.973-2.32-1.74-3.625-3.045-4.872-4.901h-3.451c-1.189 1.798-2.552 3.248-4.553 4.843a28.976 28.976 0 01-7.395 4.176c.841 1.131 1.189 1.74 1.682 2.958 2.001-.87 2.755-1.276 4.64-2.436v2.001zm2.523-3.132h-.812c2.668-1.914 3.944-3.161 5.684-5.655 1.827 2.32 3.422 3.828 5.974 5.655H235.57zm-1.421 18.096v-1.479h12.673v1.479h3.451c-.145-.899-.174-1.711-.174-3.045v-6.786c0-1.247.029-2.059.145-2.871-.667.087-1.363.116-2.523.116h-14.5c-1.16 0-1.856-.029-2.494-.116.087.841.145 1.682.145 2.871v6.757c0 1.276-.058 2.146-.174 3.074h3.451zm0-9.773h12.673v5.452h-12.673v-5.452zm40.049-7.975h-1.827c-1.537 0-2.581-.058-3.509-.174v3.335c1.015-.116 2.262-.174 3.538-.174h1.798v10.585c0 2.117-.058 3.219-.203 4.379h3.625c-.145-1.189-.203-2.378-.203-4.379v-10.585h2.03c1.392 0 2.407.058 3.538.174v-3.335c-.957.116-1.943.174-3.509.174h-2.059v-5.249c0-1.566.058-2.494.203-3.48h-3.625c.174 1.102.203 1.856.203 3.48v5.249zm-16.443-5.162c.725-.087 1.45-.116 2.494-.116h5.017c1.102 0 1.653.029 2.465.116v-2.842c-.754.116-1.305.145-2.465.145h-5.017c-1.189 0-1.769-.029-2.494-.145v2.842zm-1.218 4.147c.841-.116 1.479-.145 2.436-.145h7.482c1.218 0 1.798.029 2.465.116v-2.9c-.696.116-1.334.145-2.465.145h-7.453c-1.073 0-1.74-.058-2.465-.174v2.958zm1.247 4.031c.667-.087.957-.087 1.914-.087h6.148c.928 0 1.189 0 1.856.087v-2.755c-.609.087-.87.087-1.856.087h-6.148c-.957 0-1.305-.029-1.914-.087v2.755zm0 4.118c.609-.058.957-.087 1.885-.087h6.119c.957 0 1.334.029 1.914.087v-2.755c-.609.087-.87.087-1.856.087h-6.148c-1.015 0-1.392-.029-1.914-.087v2.755zm3.045 9.512h4.031v.899h3.103c-.116-.725-.145-1.421-.145-2.523v-4.263c0-1.015.029-1.566.116-2.233-.551.058-.986.087-1.885.087h-6.235c-1.073 0-1.479-.029-2.03-.087.087.783.116 1.334.116 2.262v4.379c0 1.131-.029 1.943-.145 2.784h3.074v-1.305zm-.058-5.394h4.118v2.813h-4.118v-2.813zm35.931-9.396v2.813h-6.844c-1.45 0-2.378-.058-3.161-.174v3.219c.87-.116 1.885-.174 3.132-.174h6.873v6.496h-7.279c-1.479 0-2.552-.058-3.596-.174v3.335a28.593 28.593 0 013.596-.203h18.328c1.189 0 2.407.058 3.48.203v-3.335c-.957.116-1.943.174-3.422.174h-7.888v-6.496h7.308c1.363 0 2.378.058 3.19.174v-3.219c-.754.116-1.653.174-3.161.174h-7.337v-2.813h2.958c1.218 0 2.001.029 2.842.145v-1.479c1.827 1.131 2.784 1.595 5.075 2.552.435-1.189.87-2.117 1.566-3.19-3.132-1.015-5.307-2.117-7.685-3.915-2.059-1.508-3.306-2.755-4.466-4.466h-3.596c-2.088 3.48-6.438 6.612-11.832 8.497.783 1.073.986 1.45 1.682 2.987 1.914-.783 3.074-1.392 4.727-2.378v1.392c.841-.116 1.682-.145 2.842-.145h2.668zm-3.364-2.726c2.407-1.74 3.596-2.9 5.075-4.872 1.508 1.914 2.929 3.248 5.22 4.872-.435.029-.435.029-.696.029l-8.99-.029h-.609zm-4.234 9.831a21.12 21.12 0 012.291 4.814l2.9-1.16c-.783-1.972-1.334-3.074-2.32-4.814l-2.871 1.16zm15.631-1.131c-.696 2.001-1.392 3.538-2.291 4.988l2.726 1.015c.986-1.682 1.102-1.885 1.189-2.059 1.073-2.117 1.073-2.117 1.45-2.784l-3.074-1.16zm19.807-9.483c-.464.058-.725.058-1.334.058h-2.32c.261-.464.261-.464.435-.812l.232-.464-2.697-.551c-.551 1.943-2.668 4.379-4.988 5.771.725.696 1.073 1.247 1.537 2.262.87-.609 1.218-.899 2.088-1.74.551.667.841.957 1.711 1.769-1.74 1.218-3.335 1.943-5.684 2.61.667.754 1.073 1.508 1.45 2.668.609-.261.783-.348 1.276-.58.029.435.029.667.029 1.073v4.524c0 1.044-.058 1.972-.145 2.697h2.987v-1.595h3.973v1.363h2.9a50.6 50.6 0 01-.087-1.392c.58.58 1.131 1.392 1.537 2.175 2.407-1.044 3.944-2.117 5.887-4.176l-2.117-1.827h4.756l-2.03 1.856c1.914 2.001 3.306 2.958 5.858 4.089.493-1.073.986-1.885 1.74-2.784-2.9-1.16-3.654-1.595-5.336-3.161h.986c.696 0 1.508.029 2.494.087a46.486 46.486 0 01-.087-2.987v-10.005c0-1.102.029-1.769.087-2.581-.58.087-1.102.087-2.842.087h-1.914c.319-.812.493-1.247.725-2.03h2.059c1.45 0 2.03.029 3.045.145v-3.074c-.58.087-1.45.145-3.045.145h-7.569c-1.624 0-2.117-.029-3.045-.145v1.856a28.98 28.98 0 01-2.146.058h-2.378v-.58c0-.928.029-1.334.145-1.856h-3.335c.116.609.145 1.015.145 1.827v.609h-2.726c-1.247 0-1.914-.029-2.32-.087.058.725.087 1.421.087 1.943v1.392c0 .638-.029 1.16-.116 1.856h2.871v-2.523h7.221v2.03zm1.044.377h1.682c-.058-.435-.087-.812-.087-1.943v-1.885c.638-.087 1.769-.145 2.958-.145h2.523c-.203.638-.319 1.015-.725 2.03h-1.682c-1.479 0-1.856 0-2.436-.058.087 1.421.087 1.421.087 2.726v10.15c0 .667-.029 1.972-.087 2.668a43.724 43.724 0 012.262-.087h.87c-.928.986-1.305 1.334-2.262 1.972-1.015.696-1.595.986-2.813 1.421v-4.959c0-1.102 0-1.102.058-2.001l.841.261c.319-1.218.522-1.711 1.015-2.61-1.885-.522-2.987-.928-4.611-1.74 1.044-1.131 1.943-2.349 2.987-4.06.145-.203.174-.232.348-.464l.116-.145-1.044-1.131zm-2.61 2.088c-1.044 1.363-1.334 1.711-1.943 2.32-.812-.667-1.421-1.276-1.972-2.001.145-.145.174-.174.261-.319h3.654zm-4.727 7.511c1.305-.725 1.972-1.189 3.016-2.03 1.131.725 2.378 1.363 3.857 2.001-.348.029-.522.029-1.131.029h-5.742zm.841 2.407h4.002v2.813h-4.002v-2.813zm11.658-11.339h5.974v1.74h-5.974v-1.74zm0 4.118h5.974v1.827h-5.974v-1.827zm0 4.205h5.974v1.798h-5.974v-1.798z" fill="#fff"/><path d="M378 .998h332V58.12H378V.998z" fill="#C4C4C4"/><path d="M415.864 31.206c-.024 2.496-.144 4.176-.36 5.184-.096.48-.36.648-1.032.648-.72 0-1.392-.072-2.52-.24.36.864.528 1.56.6 2.64 1.056.096 1.608.12 2.136.12 2.064 0 2.712-.36 3.12-1.656.36-1.152.6-4.104.6-7.44.024-.96.024-1.2.072-1.68-.648.096-1.296.12-2.28.12h-3.312c.048-.912.072-1.032.096-2.328h2.52c1.368 0 2.232.024 3.024.096-.072-.552-.096-1.032-.096-2.496v-3.12c0-1.176.024-1.704.096-2.544-.672.096-1.416.12-2.952.12h-4.848c-1.392 0-2.256-.024-3-.12.072.912.096 1.416.096 2.64v2.904c0 1.224-.024 1.776-.096 2.616.768-.072 1.248-.096 2.664-.096-.048 1.968-.144 3.12-.408 4.632-.528 3-1.368 4.632-3.312 6.312.888.84 1.176 1.2 1.8 2.352 1.32-1.272 2.04-2.256 2.784-3.768.672-1.416 1.032-2.712 1.368-4.896h3.24zm-5.496-10.32h5.568v3.432h-5.568v-3.432zm9.984-1.632c.096.744.144 1.56.144 2.928v9.12c0 1.608-.024 2.112-.12 2.808h2.76c-.096-.72-.12-1.32-.12-2.856v-9.072c0-1.416.024-2.136.144-2.928h-2.808zm5.184-1.224c.12 1.056.168 2.112.168 3.264v15c0 .576-.24.72-1.152.72-.696 0-1.872-.072-3.264-.24.408.912.624 1.632.816 2.688 1.128.048 1.464.072 1.992.072 3.504 0 4.176-.48 4.176-2.904V21.294c0-1.368.048-2.304.168-3.264h-2.904zm18.336 4.584c1.056.096 1.68.288 2.424.72 1.92 1.152 2.952 3.024 2.952 5.328 0 2.568-1.248 4.848-3.336 6-1.128.648-2.568 1.032-4.776 1.32.768 1.008 1.056 1.536 1.464 2.808 1.68-.288 2.616-.528 3.768-1.008 3.672-1.488 5.832-4.8 5.832-8.952 0-5.4-3.744-8.904-9.504-8.904-3.408 0-6.24 1.152-8.256 3.36-1.704 1.872-2.64 4.344-2.64 6.984 0 3.864 1.968 6.648 4.704 6.648 1.968 0 3.504-1.416 4.872-4.512 1.2-2.712 2.04-6.024 2.496-9.792zm-2.928.024c-.288 2.712-1.08 5.952-1.992 8.112-.864 2.064-1.68 3.072-2.472 3.072-1.056 0-1.896-1.56-1.896-3.528 0-2.568 1.248-5.04 3.264-6.48.984-.696 1.848-1.032 3.096-1.176zm24.672-.984c-1.032 1.8-1.824 2.856-3.408 4.464-2.232 2.304-4.464 3.96-7.56 5.592.864.96 1.296 1.584 1.68 2.448 2.136-1.344 3.384-2.208 4.56-3.168 1.512-1.248 2.664-2.4 3.504-3.504-.024 1.056-.024 1.368-.024 2.232v7.2c0 1.008-.072 2.112-.168 3.024h3.096c-.12-.912-.168-1.896-.168-3.024v-12.6c.936-1.272 1.224-1.728 1.704-2.664h4.848c1.032 0 2.16.048 3.12.144v-2.832c-.768.096-1.776.144-3.192.144h-15.264c-1.2 0-2.232-.048-3.192-.144v2.832c.96-.096 2.256-.144 3.288-.144h7.176zm1.704 5.328c2.376 2.928 4.896 5.064 8.52 7.152.528-1.056.96-1.704 1.656-2.616-1.752-.768-3.12-1.632-4.92-3.072-1.392-1.128-2.304-2.016-3.504-3.408l-1.752 1.944zm16.968-5.16h-2.928c-.984 0-1.584-.024-2.232-.12v2.208c.672-.096 1.224-.12 2.232-.12h2.928v1.032h-2.064c-1.056 0-1.68-.024-2.352-.072.048.6.072 1.056.072 2.184v3.096c0 1.176-.024 1.68-.072 2.28a29.345 29.345 0 012.328-.072h2.088v1.056h-2.448c-1.08 0-1.584-.024-2.256-.12v2.256c.648-.072 1.464-.096 2.232-.096h2.472v1.32c-2.544.144-3 .168-4.08.168-.528 0-.744 0-1.248-.048l.432 2.568c.576-.096.936-.144 1.392-.192 4.392-.336 6.144-.528 9.432-1.008.816.576 1.392 1.152 1.896 1.896.96-1.296 1.344-1.92 1.92-3.144.384 1.032.504 1.536.552 2.592.36.024 1.536.072 1.92.072 1.8 0 2.568-.36 3-1.416.6-1.392.912-4.776 1.032-10.968.072-3.456.072-3.648.168-4.512-.648.072-1.224.096-2.256.096h-2.088c.072-4.152.072-4.152.192-4.8h-2.76c.12.672.144 1.056.144 3.048 0 .744 0 1.152-.024 1.752h-.36c-.816 0-1.224-.024-1.704-.096v2.592c.624-.072 1.008-.096 1.992-.096-.12 3.096-.264 4.584-.624 6.336-.456 2.04-1.248 3.984-2.28 5.52v-1.032c-2.256.312-3.072.408-4.32.528v-1.176h2.688c.912 0 1.248.024 1.68.12v-2.256c-.552.072-1.056.096-2.256.096h-2.112v-1.056h2.232c1.128 0 1.608 0 2.16.048-.024-.312-.048-1.032-.072-2.184v-3.24c0-1.224.024-1.608.072-2.112-.504.048-.936.072-2.016.072h-2.376V23.79h3c1.056 0 1.368.024 1.728.096v-2.184c-.552.096-1.104.12-2.232.12h-2.496v-1.344c1.2-.168 2.4-.36 3.288-.528a18.658 18.658 0 011.32-.216l-1.44-1.968c-1.632.768-5.76 1.272-10.464 1.296.456.816.648 1.248.84 1.92 1.8-.096 2.472-.144 4.128-.288v1.128zm0 4.8v1.008H482.2v-1.008h2.088zm2.328 0h2.088v1.008h-2.088v-1.008zm-2.328 2.76v1.056H482.2v-1.056h2.088zm2.328 0h2.088v1.056h-2.088v-1.056zm11.52-4.224c-.024.792-.024.936-.048 1.68-.024 1.944-.024 1.944-.048 2.784-.096 2.664-.168 3.696-.336 4.968-.288 2.232-.456 2.52-1.536 2.52-.528 0-.888-.048-2.112-.24 1.464-3.216 2.016-6 2.256-11.712h1.824zm11.328 9.552a20.215 20.215 0 012.208-.096h2.784v2.328h-5.496c-1.032 0-1.656-.024-2.256-.12v2.544c.84-.096 1.488-.12 2.304-.12h13.32c.912 0 1.632.048 2.352.144v-2.568c-.6.072-1.32.12-2.28.12h-5.424v-2.328h3.6c1.056 0 1.464.024 2.16.096v-2.352c-.6.072-1.032.096-2.16.096h-3.6v-1.896h4.296c1.104 0 1.632.024 2.328.096V28.11c-.6.096-1.128.12-2.304.12h-4.32c0-.696.024-1.032.096-1.536h-2.736c.072.408.096.792.096 1.536h-2.688c.288-.696.288-.696.528-1.296l-2.424-.552c-.48 1.536-.696 2.064-1.248 3.072-.528.96-1.008 1.584-1.68 2.256.168-1.824.216-2.808.216-5.592h14.832c1.248 0 1.92.024 2.688.12V23.79c-.672.096-1.392.12-2.688.12H518.8c.408-.72.528-.984 1.008-2.04h1.848c1.272 0 1.872.024 2.568.096v-2.592c-.696.096-1.464.144-2.712.144h-5.88v-.24c0-.576.048-1.008.144-1.512h-2.952c.072.552.12 1.008.12 1.512v.24h-5.88c-1.224 0-1.968-.048-2.616-.144v2.592c.672-.072 1.176-.096 2.448-.096h2.04c.456.864.576 1.152.816 2.04h-2.472c-1.08 0-1.8-.024-2.736-.12.072.792.12 1.68.12 2.64 0 3.432-.264 6.12-.744 7.992-.312 1.2-.648 1.944-1.368 3.168.792.744 1.128 1.152 1.92 2.352 1.272-1.968 1.92-4.008 2.352-7.512.552.528.912.96 1.392 1.656.648-.696.864-.96 1.248-1.464v2.088zm4.992-4.152v1.896h-2.808c-1.008 0-1.56-.024-2.04-.072.456-.624.696-1.056 1.104-1.824h3.744zm-1.944-6.648c-.288-.84-.432-1.224-.816-2.04h5.376c-.312.864-.48 1.248-.912 2.04h-3.648zm19.416 3.624a19.2 19.2 0 012.064-.096h8.016c.912 0 1.536.024 2.16.096v-1.872c1.68 1.056 2.592 1.536 4.104 2.184.336-.984.648-1.656 1.32-2.688-2.184-.792-4.128-1.8-6.168-3.24-1.824-1.272-2.784-2.208-4.056-3.984h-2.856c-.984 1.536-2.208 2.808-3.792 4.032-1.824 1.416-3.432 2.304-6.024 3.336.6.816.984 1.488 1.392 2.448 1.68-.744 2.352-1.104 3.84-2.064v1.848zm2.088-2.592c-.432 0-.576 0-.984-.024 2.232-1.56 3.72-2.952 4.992-4.656 1.44 1.896 2.808 3.144 5.016 4.656-.456.024-.672.024-1.056.024h-7.968zm.24 6.936c-.648 1.632-1.392 3.024-2.568 4.8a53.393 53.393 0 01-2.112.096c-.336 0-.744-.024-1.392-.072l.384 2.928c.552-.12 1.752-.24 3.096-.336.96-.072 5.712-.504 8.088-.72a185.25 185.25 0 004.32-.528c.408.576.648.912 1.44 2.088l2.304-1.512c-1.944-2.616-2.976-3.816-5.544-6.408l-2.376 1.056a111.57 111.57 0 012.52 2.664c-3.36.36-3.36.36-7.608.6 1.008-1.488 1.752-2.904 2.496-4.656h8.256c1.2 0 2.016.048 2.808.144v-2.784c-.792.096-1.632.144-2.808.144h-14.952c-1.128 0-2.04-.048-2.832-.144v2.784c.792-.096 1.608-.144 2.832-.144h3.648zm22.944-1.296c1.032 1.2 1.848 1.896 3.096 2.712.384-.912.744-1.584 1.32-2.352-1.584-.912-2.688-1.776-3.816-3.048 1.152-1.584 1.608-2.376 2.4-4.104.168-.408.312-.648.528-1.008l-1.152-1.248c-.312.048-.648.072-1.392.072h-.984v-1.968c0-.792.048-1.32.144-1.872h-2.904c.096.552.144 1.2.144 1.824v2.016h-1.2c-.792 0-1.296-.024-1.896-.096v2.664a16.433 16.433 0 012.016-.096h3.912c-.792 1.536-1.488 2.52-2.616 3.696-1.296 1.368-2.448 2.28-4.128 3.24.504.72.936 1.584 1.224 2.496 1.224-.792 1.728-1.176 2.664-2.04v6.024c0 1.128-.024 1.776-.144 2.496h2.904c-.096-.72-.12-1.32-.12-2.448v-6.96zm10.176-3.552h2.544c.84 0 1.584.048 2.352.12v-2.712c-.672.096-1.272.12-2.352.12h-2.544v-4.224c0-1.032.024-1.536.168-2.496h-3c.12.936.168 1.512.168 2.496v4.224h-1.8c-1.032 0-1.656-.024-2.352-.12v2.712c.768-.072 1.536-.12 2.352-.12h1.8v9.384h-2.616c-1.152 0-1.992-.048-2.76-.144v2.904c.84-.12 1.752-.168 2.712-.168h8.208c.96 0 1.896.048 2.736.168V36.27c-.744.096-1.536.144-2.736.144h-2.88V27.03zm20.064 3.288h7.032v-2.88h-7.032v-6.84h-2.904v6.84h-7.032v2.88h7.032v7.056h2.904v-7.056zm21-7.8v12.84h-6c-1.464 0-2.328-.048-3.312-.168v2.904c1.008-.12 2.016-.168 3.264-.168h15.312c1.296 0 2.376.048 3.264.168V35.19c-.96.12-1.872.168-3.264.168h-6.432v-12.84h5.28c1.296 0 2.088.048 3.072.144V19.83c-.912.096-1.68.144-3.096.144h-12.912c-1.464 0-2.28-.048-3.12-.144v2.832a27.937 27.937 0 013.096-.144h4.848zm27.48 10.584c-.96 2.28-2.544 3.624-5.616 4.776a9.774 9.774 0 011.488 2.136c3.792-1.656 5.688-3.624 6.72-6.912h3.144c-.072 1.2-.144 1.92-.312 2.712-.264 1.224-.504 1.512-1.272 1.512-.72 0-1.656-.12-2.76-.336.36 1.008.48 1.536.552 2.496 1.104.12 1.872.168 2.544.168 1.872 0 2.496-.384 2.976-1.848.336-.984.648-3.168.84-6.024.024-.504.024-.504.096-1.056-.432.072-.84.096-1.896.096h-3.408c.048-.432.096-.6.12-.936.024-.216.048-.264.048-.384a8.05 8.05 0 01.072-.432c0-.144 0-.144.024-.312l-2.448-.024c1.032-.48 1.584-.768 2.232-1.224 1.392.912 2.784 1.488 5.4 2.232.36-1.152.528-1.56 1.104-2.496-2.064-.36-3.192-.672-4.608-1.344 1.128-1.2 1.632-1.992 2.376-3.768.744 0 1.176.024 1.728.096v-2.448c-.624.072-1.416.12-2.544.12h-4.968c.192-.408.288-.624.408-.936.144-.384.288-.72.36-.84l-2.496-.48c-.144.744-.264 1.08-.6 1.824-.816 1.824-1.776 3.072-3.576 4.632.744.504 1.272.96 1.824 1.632.936-.984 1.272-1.344 1.848-2.112.504.888 1.128 1.656 1.968 2.472-1.176.648-2.424 1.128-3.936 1.488a4.39 4.39 0 01.288-.744l-1.032-1.272c-.456.048-.912.072-1.752.072h-1.44l.528-.576c-.216-.264-.312-.336-.528-.576.936-.768 2.328-2.352 3.36-3.768.24-.336.432-.576.528-.696l-1.296-1.392c-.504.048-.816.072-2.04.072h-4.104c-1.056 0-1.608-.024-2.256-.096v2.472c.624-.072 1.224-.096 2.064-.096h4.176c-.624.888-1.152 1.488-1.944 2.112-.6-.528-.72-.6-2.064-1.608l-1.488 1.44c1.104.792 2.04 1.584 3.192 2.712h-2.4c-.984 0-1.56-.024-2.16-.12v2.544c.552-.096 1.104-.12 2.016-.12h1.656c-1.032 2.592-2.112 4.128-4.056 5.784.552.888.84 1.488 1.2 2.616 1.512-1.392 2.616-2.976 3.528-5.088l.024 5.736c.024.48-.12.576-.768.576-.456 0-1.152-.072-2.136-.24.336.888.456 1.44.504 2.352.72.048 1.464.072 1.992.072 1.152 0 1.896-.168 2.232-.48.36-.36.504-.864.504-1.608l-.048-9.72h1.512a12.785 12.785 0 01-1.368 3.048c.792.432 1.08.648 1.752 1.32.312-.648.408-.816.648-1.416v2.304c.528-.072.96-.096 1.896-.096h1.848zm-1.704-2.28c-1.08 0-1.536-.024-1.968-.072.336-.864.528-1.368.84-2.376.384.6.504.792.792 1.44 1.32-.432 1.824-.6 2.736-.984a.468.468 0 01.024.192c0 .576-.048 1.128-.12 1.8h-2.304zm6.552-8.688c-.456 1.152-.84 1.704-1.704 2.592-.936-.84-1.608-1.656-2.064-2.592h3.768zm17.328 8.448h-3.072c-1.008 0-1.536-.024-2.136-.096.072.624.096 1.224.096 2.112v4.368c0 1.32-.048 2.28-.144 2.952h2.712V38.91h8.88v1.032h2.736c-.12-.768-.144-1.632-.144-3.12V32.91c0-1.032.024-1.656.096-2.424-.576.072-1.104.096-2.112.096h-4.392v-2.52h5.136c.936 0 1.752.048 2.448.144v-2.64c-.552.096-1.32.144-2.544.144h-5.04v-.288c0-1.32.024-1.824.096-2.376h-2.736c.096.6.12 1.056.12 2.376v5.16zm-2.544 2.4h8.88v3.552h-8.88v-3.552zm1.632-12.936h-5.424a32.51 32.51 0 01-2.832-.12c.072.84.096 1.608.096 3.648 0 4.728-.144 7.296-.504 9.336-.384 2.088-.84 3.384-1.8 4.872 1.056.816 1.416 1.176 2.136 2.064 2.208-3.6 2.784-7.224 2.76-17.4h14.208c1.176 0 2.256.048 2.976.12v-2.664c-.648.096-1.608.144-3.024.144h-5.952v-.864c0-.696.024-1.104.12-1.488h-2.88c.072.432.12.816.12 1.464v.888z" fill="#333"/><path d="M378 57.998h332v411H378v-411z" fill="#fff"/><path d="M477.661 96.193c.48-.096.504-.096 1.464-.168.912-.072.912-.072 2.688-.24v7.728c0 1.008-.048 1.776-.144 2.472h1.752c-.096-.72-.144-1.416-.144-2.448v-7.896c.912-.096 1.464-.168 1.656-.192.12 0 .336-.024.6-.072.24.624.312.84.552 1.608l1.224-.552c-.648-1.776-1.296-3.192-2.112-4.56l-1.104.432c.48.864.6 1.104.96 1.896-1.656.216-2.088.24-3.888.36 1.248-1.392 2.52-3.168 4.44-6.072.336-.48.48-.696.696-.984l-1.416-.84c-.312.864-1.128 2.184-2.76 4.536-.504-.6-.888-1.032-1.608-1.752.984-1.392 1.68-2.496 2.376-3.768.264-.48.384-.672.552-.912l-1.488-.672c-.24.936-1.056 2.448-2.376 4.44-.384-.384-.504-.48-1.032-.984l-.888 1.128c1.8 1.536 2.424 2.184 3.648 3.672a37.75 37.75 0 01-1.824 2.304c-.384.024-1.104.048-1.224.048-.336 0-.504-.024-.864-.072l.264 1.56zm19.176-6.576c-.048 5.16-.408 9.816-1.032 12.552-.336 1.536-.6 1.824-1.728 1.824-.96 0-1.872-.096-3.192-.312.24.624.336 1.008.408 1.656.96.096 1.848.144 2.544.144 2.304 0 2.904-.504 3.456-2.808.552-2.376 1.008-7.104 1.032-10.872.048-3 .048-3 .12-3.696-.504.072-.984.096-1.944.096h-6c.312-.768.504-1.248.696-1.776.432-1.2.432-1.2.624-1.656l-1.632-.408c-.192 1.152-.552 2.232-1.344 3.96-.744 1.608-1.608 2.928-2.688 4.104.504.264.864.528 1.248.936a18.667 18.667 0 002.448-3.744h6.984zm-17.808 7.728c-.288 2.904-.696 4.536-1.584 6.432l1.32.624c.888-2.16 1.152-3.264 1.584-6.792l-1.32-.264zm5.568.24c.576 1.848.912 3.408 1.224 5.784l1.392-.456c-.408-2.256-.72-3.552-1.416-5.712l-1.2.384zm9.168.84c-1.152-2.496-1.848-3.72-3.408-5.856l-1.248.72c1.56 2.136 2.184 3.264 3.288 5.952l1.368-.816zm10.344-10.872c.696-.096 1.32-.144 2.088-.144h1.296v13.896c0 1.104-.048 1.872-.192 2.712h2.28c-.144-.888-.192-1.584-.192-2.712V89.641c0-1.296.072-2.52.216-3.984-.792.096-1.176.12-1.992.12h-1.512c-.912 0-1.368-.024-1.992-.12v1.896zm19.781 16.824c2.208 0 3.888-.84 5.088-2.52 1.056-1.464 1.68-4.032 1.68-6.936 0-1.992-.312-3.912-.912-5.568-.288-.792-.768-1.536-1.44-2.208-1.08-1.128-2.616-1.704-4.392-1.704-2.376 0-4.224 1.008-5.376 2.952-.84 1.392-1.392 3.984-1.392 6.528 0 1.968.312 3.864.912 5.544.288.816.792 1.56 1.44 2.208 1.128 1.128 2.616 1.704 4.392 1.704zm0-17.28c1.68 0 2.976.744 3.768 2.184.624 1.128 1.08 3.504 1.08 5.592 0 1.776-.24 3.36-.744 4.848-.216.696-.6 1.32-1.128 1.872-.72.744-1.752 1.128-2.952 1.128-1.632 0-2.88-.696-3.72-2.088-.648-1.128-1.128-3.48-1.128-5.712 0-1.752.24-3.384.744-4.848.192-.6.576-1.2 1.08-1.752.768-.816 1.752-1.224 3-1.224zm15.774 17.28c2.208 0 3.888-.84 5.088-2.52 1.056-1.464 1.68-4.032 1.68-6.936 0-1.992-.312-3.912-.912-5.568-.288-.792-.768-1.536-1.44-2.208-1.08-1.128-2.616-1.704-4.392-1.704-2.376 0-4.224 1.008-5.376 2.952-.84 1.392-1.392 3.984-1.392 6.528 0 1.968.312 3.864.912 5.544.288.816.792 1.56 1.44 2.208 1.128 1.128 2.616 1.704 4.392 1.704zm0-17.28c1.68 0 2.976.744 3.768 2.184.624 1.128 1.08 3.504 1.08 5.592 0 1.776-.24 3.36-.744 4.848-.216.696-.6 1.32-1.128 1.872-.72.744-1.752 1.128-2.952 1.128-1.632 0-2.88-.696-3.72-2.088-.648-1.128-1.128-3.48-1.128-5.712 0-1.752.24-3.384.744-4.848.192-.6.576-1.2 1.08-1.752.768-.816 1.752-1.224 3-1.224zm16.661.143c-.096 4.513-.552 7.417-1.584 9.985-1.248 3.168-2.856 5.112-6.024 7.368.528.36.864.672 1.296 1.272 2.16-1.704 3.336-2.904 4.44-4.56 1.536-2.352 2.448-4.776 3-7.944h8.496c-.096 3.312-.384 6.312-.84 8.52-.36 1.68-.672 1.968-2.064 1.968-1.104 0-2.28-.144-4.2-.504.216.576.336 1.032.384 1.728 1.752.192 2.832.288 3.696.288 2.16 0 2.952-.456 3.48-1.992.576-1.656.96-4.968 1.152-9.696.048-1.008.072-1.44.144-1.872-.6.096-1.344.12-2.784.12h-7.272c.192-1.512.192-1.512.336-4.68h9.72c1.008 0 1.848.048 2.568.144v-1.752c-.792.096-1.536.144-2.568.144h-16.128c-1.056 0-1.824-.048-2.568-.144v1.752c.768-.096 1.56-.144 2.568-.144h4.752zm19.44 8.593h15.648v7.464c0 .456-.216.552-1.272.552-.936 0-2.112-.096-3.792-.288.216.576.312.96.384 1.56 1.152.096 2.472.144 3.432.144 2.328 0 2.856-.336 2.856-1.776V87.745c0-1.008.024-1.536.096-2.208-.576.072-1.176.096-2.208.096h-14.64c-.984 0-1.584-.024-2.208-.096.072.648.096 1.224.096 2.136v15.432c0 1.272-.048 1.968-.144 2.616h1.872c-.096-.552-.12-1.032-.12-2.544v-7.344zm6.84-1.44h-6.84v-7.296h6.84v7.296zm1.56 0v-7.296h7.248v7.296h-7.248zm-106.504 86.982c.48-.096.504-.096 1.464-.168.912-.072.912-.072 2.688-.24v7.728c0 1.008-.048 1.776-.144 2.472h1.752c-.096-.72-.144-1.416-.144-2.448v-7.896c.912-.096 1.464-.168 1.656-.192.12 0 .336-.024.6-.072.24.624.312.84.552 1.608l1.224-.552c-.648-1.776-1.296-3.192-2.112-4.56l-1.104.432c.48.864.6 1.104.96 1.896-1.656.216-2.088.24-3.888.36 1.248-1.392 2.52-3.168 4.44-6.072.336-.48.48-.696.696-.984l-1.416-.84c-.312.864-1.128 2.184-2.76 4.536-.504-.6-.888-1.032-1.608-1.752.984-1.392 1.68-2.496 2.376-3.768.264-.48.384-.672.552-.912l-1.488-.672c-.24.936-1.056 2.448-2.376 4.44-.384-.384-.504-.48-1.032-.984l-.888 1.128c1.8 1.536 2.424 2.184 3.648 3.672a37.75 37.75 0 01-1.824 2.304c-.384.024-1.104.048-1.224.048-.336 0-.504-.024-.864-.072l.264 1.56zm19.176-6.576c-.048 5.16-.408 9.816-1.032 12.552-.336 1.536-.6 1.824-1.728 1.824-.96 0-1.872-.096-3.192-.312.24.624.336 1.008.408 1.656.96.096 1.848.144 2.544.144 2.304 0 2.904-.504 3.456-2.808.552-2.376 1.008-7.104 1.032-10.872.048-3 .048-3 .12-3.696-.504.072-.984.096-1.944.096h-6c.312-.768.504-1.248.696-1.776.432-1.2.432-1.2.624-1.656l-1.632-.408c-.192 1.152-.552 2.232-1.344 3.96-.744 1.608-1.608 2.928-2.688 4.104.504.264.864.528 1.248.936a18.667 18.667 0 002.448-3.744h6.984zm-17.808 7.728c-.288 2.904-.696 4.536-1.584 6.432l1.32.624c.888-2.16 1.152-3.264 1.584-6.792l-1.32-.264zm5.568.24c.576 1.848.912 3.408 1.224 5.784l1.392-.456c-.408-2.256-.72-3.552-1.416-5.712l-1.2.384zm9.168.84c-1.152-2.496-1.848-3.72-3.408-5.856l-1.248.72c1.56 2.136 2.184 3.264 3.288 5.952l1.368-.816zm20.448-9.288c-.696-1.44-1.176-2.088-2.016-2.688-.912-.648-2.208-1.008-3.648-1.008-2.088 0-3.792.888-5.064 2.616-1.152 1.56-1.824 4.248-1.824 7.248 0 3.408.864 6.096 2.424 7.536 1.032.96 2.64 1.512 4.344 1.512 3.792 0 6.288-2.448 6.288-6.168 0-3.696-2.304-6-6.024-6-1.656 0-2.928.456-4.056 1.464-.528.456-.768.792-1.2 1.536.168-2.616.384-3.72 1.008-5.16.864-1.968 2.28-2.976 4.152-2.976 1.2 0 2.136.408 2.856 1.2.36.408.528.744.84 1.512l1.92-.624zm-1.392 9.096c0 .936-.24 1.92-.624 2.544-.744 1.2-2.184 1.944-3.744 1.944-2.592 0-4.536-1.92-4.536-4.512 0-1.2.408-2.256 1.2-3.048.84-.84 2.112-1.368 3.312-1.368 2.808 0 4.392 1.608 4.392 4.44zm11.069 6.144c2.208 0 3.888-.84 5.088-2.52 1.056-1.464 1.68-4.032 1.68-6.936 0-1.992-.312-3.912-.912-5.568-.288-.792-.768-1.536-1.44-2.208-1.08-1.128-2.616-1.704-4.392-1.704-2.376 0-4.224 1.008-5.376 2.952-.84 1.392-1.392 3.984-1.392 6.528 0 1.968.312 3.864.912 5.544.288.816.792 1.56 1.44 2.208 1.128 1.128 2.616 1.704 4.392 1.704zm0-17.28c1.68 0 2.976.744 3.768 2.184.624 1.128 1.08 3.504 1.08 5.592 0 1.776-.24 3.36-.744 4.848-.216.696-.6 1.32-1.128 1.872-.72.744-1.752 1.128-2.952 1.128-1.632 0-2.88-.696-3.72-2.088-.648-1.128-1.128-3.48-1.128-5.712 0-1.752.24-3.384.744-4.848.192-.6.576-1.2 1.08-1.752.768-.816 1.752-1.224 3-1.224zm15.774 17.28c2.208 0 3.888-.84 5.088-2.52 1.056-1.464 1.68-4.032 1.68-6.936 0-1.992-.312-3.912-.912-5.568-.288-.792-.768-1.536-1.44-2.208-1.08-1.128-2.616-1.704-4.392-1.704-2.376 0-4.224 1.008-5.376 2.952-.84 1.392-1.392 3.984-1.392 6.528 0 1.968.312 3.864.912 5.544.288.816.792 1.56 1.44 2.208 1.128 1.128 2.616 1.704 4.392 1.704zm0-17.28c1.68 0 2.976.744 3.768 2.184.624 1.128 1.08 3.504 1.08 5.592 0 1.776-.24 3.36-.744 4.848-.216.696-.6 1.32-1.128 1.872-.72.744-1.752 1.128-2.952 1.128-1.632 0-2.88-.696-3.72-2.088-.648-1.128-1.128-3.48-1.128-5.712 0-1.752.24-3.384.744-4.848.192-.6.576-1.2 1.08-1.752.768-.816 1.752-1.224 3-1.224zm16.661.144c-.096 4.512-.552 7.416-1.584 9.984-1.248 3.168-2.856 5.112-6.024 7.368.528.36.864.672 1.296 1.272 2.16-1.704 3.336-2.904 4.44-4.56 1.536-2.352 2.448-4.776 3-7.944h8.496c-.096 3.312-.384 6.312-.84 8.52-.36 1.68-.672 1.968-2.064 1.968-1.104 0-2.28-.144-4.2-.504.216.576.336 1.032.384 1.728 1.752.192 2.832.288 3.696.288 2.16 0 2.952-.456 3.48-1.992.576-1.656.96-4.968 1.152-9.696.048-1.008.072-1.44.144-1.872-.6.096-1.344.12-2.784.12h-7.272c.192-1.512.192-1.512.336-4.68h9.72c1.008 0 1.848.048 2.568.144v-1.752c-.792.096-1.536.144-2.568.144h-16.128c-1.056 0-1.824-.048-2.568-.144v1.752c.768-.096 1.56-.144 2.568-.144h4.752zm19.44 8.592h15.648v7.464c0 .456-.216.552-1.272.552-.936 0-2.112-.096-3.792-.288.216.576.312.96.384 1.56 1.152.096 2.472.144 3.432.144 2.328 0 2.856-.336 2.856-1.776v-15.744c0-1.008.024-1.536.096-2.208-.576.072-1.176.096-2.208.096h-14.64c-.984 0-1.584-.024-2.208-.096.072.648.096 1.224.096 2.136v15.432c0 1.272-.048 1.968-.144 2.616h1.872c-.096-.552-.12-1.032-.12-2.544v-7.344zm6.84-1.44h-6.84v-7.296h6.84v7.296zm1.56 0v-7.296h7.248v7.296h-7.248zm-106.504 87.984c.48-.096.504-.096 1.464-.168.912-.072.912-.072 2.688-.24v7.728c0 1.008-.048 1.776-.144 2.472h1.752c-.096-.72-.144-1.416-.144-2.448v-7.896c.912-.096 1.464-.168 1.656-.192.12 0 .336-.024.6-.072.24.624.312.84.552 1.608l1.224-.552c-.648-1.776-1.296-3.192-2.112-4.56l-1.104.432c.48.864.6 1.104.96 1.896-1.656.216-2.088.24-3.888.36 1.248-1.392 2.52-3.168 4.44-6.072.336-.48.48-.696.696-.984l-1.416-.84c-.312.864-1.128 2.184-2.76 4.536-.504-.6-.888-1.032-1.608-1.752.984-1.392 1.68-2.496 2.376-3.768.264-.48.384-.672.552-.912l-1.488-.672c-.24.936-1.056 2.448-2.376 4.44-.384-.384-.504-.48-1.032-.984l-.888 1.128c1.8 1.536 2.424 2.184 3.648 3.672a37.75 37.75 0 01-1.824 2.304c-.384.024-1.104.048-1.224.048-.336 0-.504-.024-.864-.072l.264 1.56zm19.176-6.576c-.048 5.16-.408 9.816-1.032 12.552-.336 1.536-.6 1.824-1.728 1.824-.96 0-1.872-.096-3.192-.312.24.624.336 1.008.408 1.656.96.096 1.848.144 2.544.144 2.304 0 2.904-.504 3.456-2.808.552-2.376 1.008-7.104 1.032-10.872.048-3 .048-3 .12-3.696-.504.072-.984.096-1.944.096h-6c.312-.768.504-1.248.696-1.776.432-1.2.432-1.2.624-1.656l-1.632-.408c-.192 1.152-.552 2.232-1.344 3.96-.744 1.608-1.608 2.928-2.688 4.104.504.264.864.528 1.248.936a18.667 18.667 0 002.448-3.744h6.984zm-17.808 7.728c-.288 2.904-.696 4.536-1.584 6.432l1.32.624c.888-2.16 1.152-3.264 1.584-6.792l-1.32-.264zm5.568.24c.576 1.848.912 3.408 1.224 5.784l1.392-.456c-.408-2.256-.72-3.552-1.416-5.712l-1.2.384zm9.168.84c-1.152-2.496-1.848-3.72-3.408-5.856l-1.248.72c1.56 2.136 2.184 3.264 3.288 5.952l1.368-.816zm17.832 5.592c1.2 0 1.992.048 2.952.144v-2.016c-.912.12-1.728.168-2.928.168h-7.656c.288-1.152.624-1.8 1.368-2.784.792-1.008 1.56-1.68 3.456-2.952 2.736-1.824 3.36-2.28 4.08-3.096.936-1.032 1.416-2.184 1.416-3.408 0-2.832-2.328-4.656-5.952-4.656-2.112 0-3.744.624-4.824 1.848-.792.888-1.152 1.728-1.512 3.456l2.016.336c.168-1.2.384-1.776.84-2.424.72-1.032 1.896-1.56 3.48-1.56 2.448 0 3.984 1.176 3.984 3 0 1.464-.792 2.52-3.168 4.128-2.784 1.896-2.832 1.92-3.672 2.64-1.512 1.296-2.52 2.616-3.12 4.128-.36.912-.432 1.272-.696 3.168.768-.096 1.128-.12 2.64-.12h7.296zm12.293.36c2.208 0 3.888-.84 5.088-2.52 1.056-1.464 1.68-4.032 1.68-6.936 0-1.992-.312-3.912-.912-5.568-.288-.792-.768-1.536-1.44-2.208-1.08-1.128-2.616-1.704-4.392-1.704-2.376 0-4.224 1.008-5.376 2.952-.84 1.392-1.392 3.984-1.392 6.528 0 1.968.312 3.864.912 5.544.288.816.792 1.56 1.44 2.208 1.128 1.128 2.616 1.704 4.392 1.704zm0-17.28c1.68 0 2.976.744 3.768 2.184.624 1.128 1.08 3.504 1.08 5.592 0 1.776-.24 3.36-.744 4.848-.216.696-.6 1.32-1.128 1.872-.72.744-1.752 1.128-2.952 1.128-1.632 0-2.88-.696-3.72-2.088-.648-1.128-1.128-3.48-1.128-5.712 0-1.752.24-3.384.744-4.848.192-.6.576-1.2 1.08-1.752.768-.816 1.752-1.224 3-1.224zm15.774 17.28c2.208 0 3.888-.84 5.088-2.52 1.056-1.464 1.68-4.032 1.68-6.936 0-1.992-.312-3.912-.912-5.568-.288-.792-.768-1.536-1.44-2.208-1.08-1.128-2.616-1.704-4.392-1.704-2.376 0-4.224 1.008-5.376 2.952-.84 1.392-1.392 3.984-1.392 6.528 0 1.968.312 3.864.912 5.544.288.816.792 1.56 1.44 2.208 1.128 1.128 2.616 1.704 4.392 1.704zm0-17.28c1.68 0 2.976.744 3.768 2.184.624 1.128 1.08 3.504 1.08 5.592 0 1.776-.24 3.36-.744 4.848-.216.696-.6 1.32-1.128 1.872-.72.744-1.752 1.128-2.952 1.128-1.632 0-2.88-.696-3.72-2.088-.648-1.128-1.128-3.48-1.128-5.712 0-1.752.24-3.384.744-4.848.192-.6.576-1.2 1.08-1.752.768-.816 1.752-1.224 3-1.224zm16.661.144c-.096 4.512-.552 7.416-1.584 9.984-1.248 3.168-2.856 5.112-6.024 7.368.528.36.864.672 1.296 1.272 2.16-1.704 3.336-2.904 4.44-4.56 1.536-2.352 2.448-4.776 3-7.944h8.496c-.096 3.312-.384 6.312-.84 8.52-.36 1.68-.672 1.968-2.064 1.968-1.104 0-2.28-.144-4.2-.504.216.576.336 1.032.384 1.728 1.752.192 2.832.288 3.696.288 2.16 0 2.952-.456 3.48-1.992.576-1.656.96-4.968 1.152-9.696.048-1.008.072-1.44.144-1.872-.6.096-1.344.12-2.784.12h-7.272c.192-1.512.192-1.512.336-4.68h9.72c1.008 0 1.848.048 2.568.144v-1.752c-.792.096-1.536.144-2.568.144h-16.128c-1.056 0-1.824-.048-2.568-.144v1.752c.768-.096 1.56-.144 2.568-.144h4.752zm19.44 8.592h15.648v7.464c0 .456-.216.552-1.272.552-.936 0-2.112-.096-3.792-.288.216.576.312.96.384 1.56 1.152.096 2.472.144 3.432.144 2.328 0 2.856-.336 2.856-1.776v-15.744c0-1.008.024-1.536.096-2.208-.576.072-1.176.096-2.208.096h-14.64c-.984 0-1.584-.024-2.208-.096.072.648.096 1.224.096 2.136v15.432c0 1.272-.048 1.968-.144 2.616h1.872c-.096-.552-.12-1.032-.12-2.544v-7.344zm6.84-1.44h-6.84v-7.296h6.84v7.296zm1.56 0v-7.296h7.248v7.296h-7.248zm-97.47 85.98c.48-.096.504-.096 1.464-.168.912-.072.912-.072 2.688-.24v7.728c0 1.008-.048 1.776-.144 2.472h1.752c-.096-.72-.144-1.416-.144-2.448v-7.896c.912-.096 1.464-.168 1.656-.192.12 0 .336-.024.6-.072.24.624.312.84.552 1.608l1.224-.552c-.648-1.776-1.296-3.192-2.112-4.56l-1.104.432c.48.864.6 1.104.96 1.896-1.656.216-2.088.24-3.888.36 1.248-1.392 2.52-3.168 4.44-6.072.336-.48.48-.696.696-.984l-1.416-.84c-.312.864-1.128 2.184-2.76 4.536-.504-.6-.888-1.032-1.608-1.752.984-1.392 1.68-2.496 2.376-3.768.264-.48.384-.672.552-.912l-1.488-.672c-.24.936-1.056 2.448-2.376 4.44-.384-.384-.504-.48-1.032-.984l-.888 1.128c1.8 1.536 2.424 2.184 3.648 3.672a37.75 37.75 0 01-1.824 2.304c-.384.024-1.104.048-1.224.048-.336 0-.504-.024-.864-.072l.264 1.56zm19.176-6.576c-.048 5.16-.408 9.816-1.032 12.552-.336 1.536-.6 1.824-1.728 1.824-.96 0-1.872-.096-3.192-.312.24.624.336 1.008.408 1.656.96.096 1.848.144 2.544.144 2.304 0 2.904-.504 3.456-2.808.552-2.376 1.008-7.104 1.032-10.872.048-3 .048-3 .12-3.696-.504.072-.984.096-1.944.096h-6c.312-.768.504-1.248.696-1.776.432-1.2.432-1.2.624-1.656l-1.632-.408c-.192 1.152-.552 2.232-1.344 3.96-.744 1.608-1.608 2.928-2.688 4.104.504.264.864.528 1.248.936a18.667 18.667 0 002.448-3.744h6.984zm-17.808 7.728c-.288 2.904-.696 4.536-1.584 6.432l1.32.624c.888-2.16 1.152-3.264 1.584-6.792l-1.32-.264zm5.568.24c.576 1.848.912 3.408 1.224 5.784l1.392-.456c-.408-2.256-.72-3.552-1.416-5.712l-1.2.384zm9.168.84c-1.152-2.496-1.848-3.72-3.408-5.856l-1.248.72c1.56 2.136 2.184 3.264 3.288 5.952l1.368-.816zm11.208-10.992h5.64c1.128 0 1.896.048 2.808.192v-2.04c-.96.144-1.512.192-2.808.192h-4.944c-1.416 0-1.8-.024-2.544-.12.048.6.048.696.048 1.032 0 .456-.024.744-.072 1.44l-.528 5.424a19.122 19.122 0 01-.36 2.472l1.8.168c.264-.648.528-.984 1.104-1.44.864-.672 1.92-1.008 3.144-1.008 2.544 0 4.2 1.728 4.2 4.368 0 2.76-1.8 4.584-4.488 4.584-1.392 0-2.592-.504-3.408-1.416-.36-.408-.528-.72-.768-1.392l-1.968.576c.576 1.152.912 1.656 1.512 2.256 1.152 1.08 2.712 1.632 4.584 1.632 3.96 0 6.48-2.472 6.48-6.336 0-1.776-.528-3.192-1.608-4.224-1.08-1.056-2.568-1.632-4.32-1.632-1.656 0-3.048.552-4.2 1.656.144-.648.144-.648.192-1.08l.504-5.304zm15.773 0h5.64c1.128 0 1.896.048 2.808.192v-2.04c-.96.144-1.512.192-2.808.192h-4.944c-1.416 0-1.8-.024-2.544-.12.048.6.048.696.048 1.032 0 .456-.024.744-.072 1.44l-.528 5.424a19.122 19.122 0 01-.36 2.472l1.8.168c.264-.648.528-.984 1.104-1.44.864-.672 1.92-1.008 3.144-1.008 2.544 0 4.2 1.728 4.2 4.368 0 2.76-1.8 4.584-4.488 4.584-1.392 0-2.592-.504-3.408-1.416-.36-.408-.528-.72-.768-1.392l-1.968.576c.576 1.152.912 1.656 1.512 2.256 1.152 1.08 2.712 1.632 4.584 1.632 3.96 0 6.48-2.472 6.48-6.336 0-1.776-.528-3.192-1.608-4.224-1.08-1.056-2.568-1.632-4.32-1.632-1.656 0-3.048.552-4.2 1.656.144-.648.144-.648.192-1.08l.504-5.304zm19.806-.192c-.096 4.512-.552 7.416-1.584 9.984-1.248 3.168-2.856 5.112-6.024 7.368.528.36.864.672 1.296 1.272 2.16-1.704 3.336-2.904 4.44-4.56 1.536-2.352 2.448-4.776 3-7.944h8.496c-.096 3.312-.384 6.312-.84 8.52-.36 1.68-.672 1.968-2.064 1.968-1.104 0-2.28-.144-4.2-.504.216.576.336 1.032.384 1.728 1.752.192 2.832.288 3.696.288 2.16 0 2.952-.456 3.48-1.992.576-1.656.96-4.968 1.152-9.696.048-1.008.072-1.44.144-1.872-.6.096-1.344.12-2.784.12h-7.272c.192-1.512.192-1.512.336-4.68h9.72c1.008 0 1.848.048 2.568.144v-1.752c-.792.096-1.536.144-2.568.144h-16.128c-1.056 0-1.824-.048-2.568-.144v1.752c.768-.096 1.56-.144 2.568-.144h4.752zm19.44 8.592h15.648v7.464c0 .456-.216.552-1.272.552-.936 0-2.112-.096-3.792-.288.216.576.312.96.384 1.56 1.152.096 2.472.144 3.432.144 2.328 0 2.856-.336 2.856-1.776v-15.744c0-1.008.024-1.536.096-2.208-.576.072-1.176.096-2.208.096h-14.64c-.984 0-1.584-.024-2.208-.096.072.648.096 1.224.096 2.136v15.432c0 1.272-.048 1.968-.144 2.616h1.872c-.096-.552-.12-1.032-.12-2.544v-7.344zm6.84-1.44h-6.84v-7.296h6.84v7.296zm1.56 0v-7.296h7.248v7.296h-7.248zm-99.765 82.973c.48-.096.504-.096 1.464-.168.912-.072.912-.072 2.688-.24v7.728c0 1.008-.048 1.776-.144 2.472h1.752c-.096-.72-.144-1.416-.144-2.448v-7.896c.912-.096 1.464-.168 1.656-.192.12 0 .336-.024.6-.072.24.624.312.84.552 1.608l1.224-.552c-.648-1.776-1.296-3.192-2.112-4.56l-1.104.432c.48.864.6 1.104.96 1.896-1.656.216-2.088.24-3.888.36 1.248-1.392 2.52-3.168 4.44-6.072.336-.48.48-.696.696-.984l-1.416-.84c-.312.864-1.128 2.184-2.76 4.536-.504-.6-.888-1.032-1.608-1.752.984-1.392 1.68-2.496 2.376-3.768.264-.48.384-.672.552-.912l-1.488-.672c-.24.936-1.056 2.448-2.376 4.44-.384-.384-.504-.48-1.032-.984l-.888 1.128c1.8 1.536 2.424 2.184 3.648 3.672a37.75 37.75 0 01-1.824 2.304c-.384.024-1.104.048-1.224.048-.336 0-.504-.024-.864-.072l.264 1.56zm19.176-6.576c-.048 5.16-.408 9.816-1.032 12.552-.336 1.536-.6 1.824-1.728 1.824-.96 0-1.872-.096-3.192-.312.24.624.336 1.008.408 1.656.96.096 1.848.144 2.544.144 2.304 0 2.904-.504 3.456-2.808.552-2.376 1.008-7.104 1.032-10.872.048-3 .048-3 .12-3.696-.504.072-.984.096-1.944.096h-6c.312-.768.504-1.248.696-1.776.432-1.2.432-1.2.624-1.656l-1.632-.408c-.192 1.152-.552 2.232-1.344 3.96-.744 1.608-1.608 2.928-2.688 4.104.504.264.864.528 1.248.936a18.667 18.667 0 002.448-3.744h6.984zm-17.808 7.728c-.288 2.904-.696 4.536-1.584 6.432l1.32.624c.888-2.16 1.152-3.264 1.584-6.792l-1.32-.264zm5.568.24c.576 1.848.912 3.408 1.224 5.784l1.392-.456c-.408-2.256-.72-3.552-1.416-5.712l-1.2.384zm9.168.84c-1.152-2.496-1.848-3.72-3.408-5.856l-1.248.72c1.56 2.136 2.184 3.264 3.288 5.952l1.368-.816zm8.04 2.232c.624 1.272 1.008 1.824 1.68 2.376 1.032.864 2.376 1.296 4.032 1.296 2.208 0 3.792-.72 4.992-2.232 1.296-1.608 1.992-4.32 1.992-7.656 0-2.064-.216-3.696-.696-4.992-.912-2.496-3.12-4.032-5.808-4.032-3.936 0-6.504 2.496-6.504 6.312 0 1.704.6 3.288 1.632 4.32 1.032 1.032 2.544 1.584 4.32 1.584 1.8 0 3.144-.528 4.368-1.68.432-.456.624-.696.96-1.344-.048 1.224-.12 2.208-.216 2.808-.192 1.128-.576 2.304-1.032 3.072-.888 1.512-2.136 2.208-3.864 2.208-1.32 0-2.352-.384-3.024-1.128-.384-.408-.576-.744-.864-1.536l-1.968.624zm5.856-4.632c-2.616 0-4.272-1.704-4.272-4.416 0-.936.24-1.896.624-2.52.792-1.272 2.232-2.04 3.816-2.04 2.568 0 4.488 1.944 4.488 4.536 0 2.544-1.992 4.44-4.656 4.44zm13.085-8.592h5.64c1.128 0 1.896.048 2.808.192v-2.04c-.96.144-1.512.192-2.808.192h-4.944c-1.416 0-1.8-.024-2.544-.12.048.6.048.696.048 1.032 0 .456-.024.744-.072 1.44l-.528 5.424a19.122 19.122 0 01-.36 2.472l1.8.168c.264-.648.528-.984 1.104-1.44.864-.672 1.92-1.008 3.144-1.008 2.544 0 4.2 1.728 4.2 4.368 0 2.76-1.8 4.584-4.488 4.584-1.392 0-2.592-.504-3.408-1.416-.36-.408-.528-.72-.768-1.392l-1.968.576c.576 1.152.912 1.656 1.512 2.256 1.152 1.08 2.712 1.632 4.584 1.632 3.96 0 6.48-2.472 6.48-6.336 0-1.776-.528-3.192-1.608-4.224-1.08-1.056-2.568-1.632-4.32-1.632-1.656 0-3.048.552-4.2 1.656.144-.648.144-.648.192-1.08l.504-5.304zm15.774 0h5.64c1.128 0 1.896.048 2.808.192v-2.04c-.96.144-1.512.192-2.808.192h-4.944c-1.416 0-1.8-.024-2.544-.12.048.6.048.696.048 1.032 0 .456-.024.744-.072 1.44l-.528 5.424a19.122 19.122 0 01-.36 2.472l1.8.168c.264-.648.528-.984 1.104-1.44.864-.672 1.92-1.008 3.144-1.008 2.544 0 4.2 1.728 4.2 4.368 0 2.76-1.8 4.584-4.488 4.584-1.392 0-2.592-.504-3.408-1.416-.36-.408-.528-.72-.768-1.392l-1.968.576c.576 1.152.912 1.656 1.512 2.256 1.152 1.08 2.712 1.632 4.584 1.632 3.96 0 6.48-2.472 6.48-6.336 0-1.776-.528-3.192-1.608-4.224-1.08-1.056-2.568-1.632-4.32-1.632-1.656 0-3.048.552-4.2 1.656.144-.648.144-.648.192-1.08l.504-5.304zm19.805-.192c-.096 4.512-.552 7.416-1.584 9.984-1.248 3.168-2.856 5.112-6.024 7.368.528.36.864.672 1.296 1.272 2.16-1.704 3.336-2.904 4.44-4.56 1.536-2.352 2.448-4.776 3-7.944h8.496c-.096 3.312-.384 6.312-.84 8.52-.36 1.68-.672 1.968-2.064 1.968-1.104 0-2.28-.144-4.2-.504.216.576.336 1.032.384 1.728 1.752.192 2.832.288 3.696.288 2.16 0 2.952-.456 3.48-1.992.576-1.656.96-4.968 1.152-9.696.048-1.008.072-1.44.144-1.872-.6.096-1.344.12-2.784.12h-7.272c.192-1.512.192-1.512.336-4.68h9.72c1.008 0 1.848.048 2.568.144v-1.752c-.792.096-1.536.144-2.568.144h-16.128c-1.056 0-1.824-.048-2.568-.144v1.752c.768-.096 1.56-.144 2.568-.144h4.752zm19.44 8.592h15.648v7.464c0 .456-.216.552-1.272.552-.936 0-2.112-.096-3.792-.288.216.576.312.96.384 1.56 1.152.096 2.472.144 3.432.144 2.328 0 2.856-.336 2.856-1.776v-15.744c0-1.008.024-1.536.096-2.208-.576.072-1.176.096-2.208.096h-14.64c-.984 0-1.584-.024-2.208-.096.072.648.096 1.224.096 2.136v15.432c0 1.272-.048 1.968-.144 2.616h1.872c-.096-.552-.12-1.032-.12-2.544v-7.344zm6.84-1.44h-6.84v-7.296h6.84v7.296zm1.56 0v-7.296h7.248v7.296h-7.248z" fill="#333"/><path d="M730.125.998H1061V58.12H730.125V.998z" fill="#7EB1DD"/><g clip-path="url(#clip0)" fill="#1D1D1B"><path d="M843.028 40.985l-5.83-8.344h-1.939v8.344H830V17.273h7.392c7.084 0 10.416 2.096 10.416 7.125v1.237c0 3.524-1.527 5.42-5.069 6.343l6.423 9.007h-6.134zm-5.636-12.26c3.803 0 4.872-1.057 4.872-3.323v-.8c0-2.244-.72-3.418-4.8-3.418h-2.248v7.541h2.176zm32.111-11.452h-16.878v3.696h16.878v-3.696zm-11.619 19.865v-6.252h9.901v-3.82h-15.16V41.01h17.408v-3.872h-12.149zm29.443-19.834V31.88l-8.033-14.575h-5.22v23.681h5.22V26.759l8.148 14.226h5.105v-23.68h-5.22zm10.096 16.817V24.085c0-5.025 2.707-7.087 9.786-7.087 7.08 0 10.025 2.062 10.025 7.087V34.12c0 4.898-3.048 7.087-10.025 7.087-6.976 0-9.786-2.189-9.786-7.087zm14.551-.208v-9.617c0-2.156-.684-3.545-4.749-3.545-3.811 0-4.531 1.389-4.531 3.545v9.617c0 2.259.72 3.549 4.531 3.549s4.749-1.29 4.749-3.549zm29.261-16.609L933.34 41.01h-5.485l-7.922-23.706h5.37l5.299 16.358 5.251-16.358h5.382zm19.887-.031h-16.883v3.696h16.883v-3.696zm-11.627 19.865v-6.252h9.901v-3.82h-15.157V41.01h17.405v-3.872h-12.149zm33.104-19.865h-16.875v3.696h16.875v-3.696zm-11.615 19.865v-6.252h9.901v-3.82h-15.161V41.01h17.409v-3.872h-12.149zm29.446-19.834V31.88l-8.037-14.575h-5.22v23.681h5.22V26.759l8.147 14.226h5.1v-23.68h-5.21zm10.09 16.817V24.085c0-5.025 2.71-7.087 9.79-7.087 7.08 0 10.02 2.062 10.02 7.087V34.12c0 4.898-3.06 7.087-10.02 7.087-6.97 0-9.79-2.189-9.79-7.087zm14.55-.208v-9.617c0-2.156-.68-3.545-4.75-3.545-3.82 0-4.53 1.389-4.53 3.545v9.617c0 2.259.71 3.549 4.53 3.549 3.81 0 4.75-1.29 4.75-3.549z"/></g><path d="M778.704 26.598h-5.808c-1.08 0-1.704-.024-2.496-.144v2.736c.72-.072 1.416-.096 2.472-.096h13.848v2.304h-13.248c-1.152 0-1.776-.024-2.328-.096v2.688c.576-.072 1.248-.096 2.304-.096h13.272v2.568h-14.016c-1.176 0-1.824-.024-2.496-.12v2.736c.672-.12 1.488-.168 2.616-.144h13.848v1.176h2.784c-.096-.768-.144-1.56-.144-2.736v-8.88c0-.84.024-1.392.096-2.016-.648.096-1.104.12-1.92.12h-6.096v-6.432c0-1.032.048-1.752.144-2.376h-2.976c.096.672.144 1.392.144 2.376v6.432zm-8.232-6.36c1.608 2.016 2.592 3.624 3.696 5.976l2.352-1.392c-.984-2.064-1.968-3.6-3.744-5.88l-2.304 1.296zm16.56-1.368c-1.032 2.616-1.848 4.008-3.432 5.976l2.232 1.392c1.56-1.992 2.328-3.264 3.744-6.192l-2.544-1.176zM799.2 30.582c1.032 1.2 1.848 1.896 3.096 2.712.384-.912.744-1.584 1.32-2.352-1.584-.912-2.688-1.776-3.816-3.048 1.152-1.584 1.608-2.376 2.4-4.104.168-.408.312-.648.528-1.008l-1.152-1.248c-.312.048-.648.072-1.392.072h-.984v-1.968c0-.792.048-1.32.144-1.872h-2.904c.096.552.144 1.2.144 1.824v2.016h-1.2c-.792 0-1.296-.024-1.896-.096v2.664a16.433 16.433 0 012.016-.096h3.912c-.792 1.536-1.488 2.52-2.616 3.696-1.296 1.368-2.448 2.28-4.128 3.24.504.72.936 1.584 1.224 2.496 1.224-.792 1.728-1.176 2.664-2.04v6.024c0 1.128-.024 1.776-.144 2.496h2.904c-.096-.72-.12-1.32-.12-2.448v-6.96zm10.176-3.552h2.544c.84 0 1.584.048 2.352.12v-2.712c-.672.096-1.272.12-2.352.12h-2.544v-4.224c0-1.032.024-1.536.168-2.496h-3c.12.936.168 1.512.168 2.496v4.224h-1.8c-1.032 0-1.656-.024-2.352-.12v2.712c.768-.072 1.536-.12 2.352-.12h1.8v9.384h-2.616c-1.152 0-1.992-.048-2.76-.144v2.904c.84-.12 1.752-.168 2.712-.168h8.208c.96 0 1.896.048 2.736.168V36.27c-.744.096-1.536.144-2.736.144h-2.88V27.03zM730 57.998h331v411H730v-411z" fill="#fff"/><path d="M882.36 105.894c3.328 0 5.984-1.28 7.776-3.776 1.504-2.08 2.368-5.536 2.368-9.472 0-2.624-.416-5.184-1.248-7.424-.416-1.152-1.152-2.272-2.112-3.232-1.696-1.696-4.032-2.592-6.752-2.592-3.552 0-6.432 1.568-8.16 4.448-1.184 1.952-1.952 5.472-1.952 8.864 0 2.592.416 5.088 1.248 7.36.416 1.152 1.152 2.272 2.112 3.232 1.696 1.696 4 2.592 6.72 2.592zm.032-3.712c-1.76 0-3.104-.672-4.096-2.08-1.024-1.472-1.632-4.256-1.632-7.616 0-3.488.704-6.112 2.112-7.776.928-1.12 2.048-1.632 3.584-1.632 1.44 0 2.72.48 3.488 1.344 1.44 1.568 2.24 4.48 2.24 8.192 0 3.744-.8 6.72-2.24 8.224-.8.864-2.048 1.344-3.456 1.344zm17.885-7.104h19.04v7.808c0 .768-.192.864-1.44.864-1.152 0-2.752-.128-4.864-.352.576 1.312.8 2.208.992 3.456 1.248.064 3.008.128 4.256.128 1.728 0 2.752-.128 3.36-.448.928-.48 1.312-1.376 1.312-3.008V83.014c0-1.728.032-2.56.128-3.488-.768.096-1.728.128-3.488.128h-19.456c-1.696 0-2.528-.032-3.552-.128.096.928.128 1.728.128 3.072v20.928c0 1.664-.064 2.816-.192 3.84h3.936c-.128-.736-.16-1.696-.16-3.712v-8.576zm7.584-3.36h-7.584v-8.672h7.584v8.672zm3.456 0v-8.672h8v8.672h-8z" fill="#639CD1"/><path d="M837.416 172.03c.48-.096.504-.096 1.464-.168.912-.072.912-.072 2.688-.24v7.728c0 1.008-.048 1.776-.144 2.472h1.752c-.096-.72-.144-1.416-.144-2.448v-7.896c.912-.096 1.464-.168 1.656-.192.12 0 .336-.024.6-.072.24.624.312.84.552 1.608l1.224-.552c-.648-1.776-1.296-3.192-2.112-4.56l-1.104.432c.48.864.6 1.104.96 1.896-1.656.216-2.088.24-3.888.36 1.248-1.392 2.52-3.168 4.44-6.072.336-.48.48-.696.696-.984l-1.416-.84c-.312.864-1.128 2.184-2.76 4.536-.504-.6-.888-1.032-1.608-1.752.984-1.392 1.68-2.496 2.376-3.768.264-.48.384-.672.552-.912l-1.488-.672c-.24.936-1.056 2.448-2.376 4.44-.384-.384-.504-.48-1.032-.984l-.888 1.128c1.8 1.536 2.424 2.184 3.648 3.672a37.75 37.75 0 01-1.824 2.304c-.384.024-1.104.048-1.224.048-.336 0-.504-.024-.864-.072l.264 1.56zm19.176-6.576c-.048 5.16-.408 9.816-1.032 12.552-.336 1.536-.6 1.824-1.728 1.824-.96 0-1.872-.096-3.192-.312.24.624.336 1.008.408 1.656.96.096 1.848.144 2.544.144 2.304 0 2.904-.504 3.456-2.808.552-2.376 1.008-7.104 1.032-10.872.048-3 .048-3 .12-3.696-.504.072-.984.096-1.944.096h-6c.312-.768.504-1.248.696-1.776.432-1.2.432-1.2.624-1.656l-1.632-.408c-.192 1.152-.552 2.232-1.344 3.96-.744 1.608-1.608 2.928-2.688 4.104.504.264.864.528 1.248.936a18.667 18.667 0 002.448-3.744h6.984zm-17.808 7.728c-.288 2.904-.696 4.536-1.584 6.432l1.32.624c.888-2.16 1.152-3.264 1.584-6.792l-1.32-.264zm5.568.24c.576 1.848.912 3.408 1.224 5.784l1.392-.456c-.408-2.256-.72-3.552-1.416-5.712l-1.2.384zm9.168.84c-1.152-2.496-1.848-3.72-3.408-5.856l-1.248.72c1.56 2.136 2.184 3.264 3.288 5.952l1.368-.816zm20.448-9.288c-.696-1.44-1.176-2.088-2.016-2.688-.912-.648-2.208-1.008-3.648-1.008-2.088 0-3.792.888-5.064 2.616-1.152 1.56-1.824 4.248-1.824 7.248 0 3.408.864 6.096 2.424 7.536 1.032.96 2.64 1.512 4.344 1.512 3.792 0 6.288-2.448 6.288-6.168 0-3.696-2.304-6-6.024-6-1.656 0-2.928.456-4.056 1.464-.528.456-.768.792-1.2 1.536.168-2.616.384-3.72 1.008-5.16.864-1.968 2.28-2.976 4.152-2.976 1.2 0 2.136.408 2.856 1.2.36.408.528.744.84 1.512l1.92-.624zm-1.392 9.096c0 .936-.24 1.92-.624 2.544-.744 1.2-2.184 1.944-3.744 1.944-2.592 0-4.536-1.92-4.536-4.512 0-1.2.408-2.256 1.2-3.048.84-.84 2.112-1.368 3.312-1.368 2.808 0 4.392 1.608 4.392 4.44zm11.069 6.144c2.208 0 3.888-.84 5.088-2.52 1.056-1.464 1.68-4.032 1.68-6.936 0-1.992-.312-3.912-.912-5.568-.288-.792-.768-1.536-1.44-2.208-1.08-1.128-2.616-1.704-4.392-1.704-2.376 0-4.224 1.008-5.376 2.952-.84 1.392-1.392 3.984-1.392 6.528 0 1.968.312 3.864.912 5.544.288.816.792 1.56 1.44 2.208 1.128 1.128 2.616 1.704 4.392 1.704zm0-17.28c1.68 0 2.976.744 3.768 2.184.624 1.128 1.08 3.504 1.08 5.592 0 1.776-.24 3.36-.744 4.848-.216.696-.6 1.32-1.128 1.872-.72.744-1.752 1.128-2.952 1.128-1.632 0-2.88-.696-3.72-2.088-.648-1.128-1.128-3.48-1.128-5.712 0-1.752.24-3.384.744-4.848.192-.6.576-1.2 1.08-1.752.768-.816 1.752-1.224 3-1.224zm15.774 17.28c2.208 0 3.888-.84 5.088-2.52 1.056-1.464 1.68-4.032 1.68-6.936 0-1.992-.312-3.912-.912-5.568-.288-.792-.768-1.536-1.44-2.208-1.08-1.128-2.616-1.704-4.392-1.704-2.376 0-4.224 1.008-5.376 2.952-.84 1.392-1.392 3.984-1.392 6.528 0 1.968.312 3.864.912 5.544.288.816.792 1.56 1.44 2.208 1.128 1.128 2.616 1.704 4.392 1.704zm0-17.28c1.68 0 2.976.744 3.768 2.184.624 1.128 1.08 3.504 1.08 5.592 0 1.776-.24 3.36-.744 4.848-.216.696-.6 1.32-1.128 1.872-.72.744-1.752 1.128-2.952 1.128-1.632 0-2.88-.696-3.72-2.088-.648-1.128-1.128-3.48-1.128-5.712 0-1.752.24-3.384.744-4.848.192-.6.576-1.2 1.08-1.752.768-.816 1.752-1.224 3-1.224zm16.661.144c-.096 4.512-.552 7.416-1.584 9.984-1.248 3.168-2.856 5.112-6.024 7.368.528.36.864.672 1.296 1.272 2.16-1.704 3.336-2.904 4.44-4.56 1.536-2.352 2.448-4.776 3-7.944h8.496c-.096 3.312-.384 6.312-.84 8.52-.36 1.68-.672 1.968-2.064 1.968-1.104 0-2.28-.144-4.2-.504.216.576.336 1.032.384 1.728 1.752.192 2.832.288 3.696.288 2.16 0 2.952-.456 3.48-1.992.576-1.656.96-4.968 1.152-9.696.048-1.008.072-1.44.144-1.872-.6.096-1.344.12-2.784.12H917.4c.192-1.512.192-1.512.336-4.68h9.72c1.008 0 1.848.048 2.568.144v-1.752c-.792.096-1.536.144-2.568.144h-16.128c-1.056 0-1.824-.048-2.568-.144v1.752c.768-.096 1.56-.144 2.568-.144h4.752zm19.44 8.592h15.648v7.464c0 .456-.216.552-1.272.552-.936 0-2.112-.096-3.792-.288.216.576.312.96.384 1.56 1.152.096 2.472.144 3.432.144 2.328 0 2.856-.336 2.856-1.776v-15.744c0-1.008.024-1.536.096-2.208-.576.072-1.176.096-2.208.096h-14.64c-.984 0-1.584-.024-2.208-.096.072.648.096 1.224.096 2.136v15.432c0 1.272-.048 1.968-.144 2.616h1.872c-.096-.552-.12-1.032-.12-2.544v-7.344zm6.84-1.44h-6.84v-7.296h6.84v7.296zm1.56 0v-7.296h7.248v7.296h-7.248z" fill="#333"/><path d="M886.36 273.894c3.328 0 5.984-1.28 7.776-3.776 1.504-2.08 2.368-5.536 2.368-9.472 0-2.624-.416-5.184-1.248-7.424-.416-1.152-1.152-2.272-2.112-3.232-1.696-1.696-4.032-2.592-6.752-2.592-3.552 0-6.432 1.568-8.16 4.448-1.184 1.952-1.952 5.472-1.952 8.864 0 2.592.416 5.088 1.248 7.36.416 1.152 1.152 2.272 2.112 3.232 1.696 1.696 4 2.592 6.72 2.592zm.032-3.712c-1.76 0-3.104-.672-4.096-2.08-1.024-1.472-1.632-4.256-1.632-7.616 0-3.488.704-6.112 2.112-7.776.928-1.12 2.048-1.632 3.584-1.632 1.44 0 2.72.48 3.488 1.344 1.44 1.568 2.24 4.48 2.24 8.192 0 3.744-.8 6.72-2.24 8.224-.8.864-2.048 1.344-3.456 1.344zm17.885-7.104h19.04v7.808c0 .768-.192.864-1.44.864-1.152 0-2.752-.128-4.864-.352.576 1.312.8 2.208.992 3.456 1.248.064 3.008.128 4.256.128 1.728 0 2.752-.128 3.36-.448.928-.48 1.312-1.376 1.312-3.008v-20.512c0-1.728.032-2.56.128-3.488-.768.096-1.728.128-3.488.128h-19.456c-1.696 0-2.528-.032-3.552-.128.096.928.128 1.728.128 3.072v20.928c0 1.664-.064 2.816-.192 3.84h3.936c-.128-.736-.16-1.696-.16-3.712v-8.576zm7.584-3.36h-7.584v-8.672h7.584v8.672zm3.456 0v-8.672h8v8.672h-8z" fill="#639CD1"/><path d="M846.416 340.03c.48-.096.504-.096 1.464-.168.912-.072.912-.072 2.688-.24v7.728c0 1.008-.048 1.776-.144 2.472h1.752c-.096-.72-.144-1.416-.144-2.448v-7.896c.912-.096 1.464-.168 1.656-.192.12 0 .336-.024.6-.072.24.624.312.84.552 1.608l1.224-.552c-.648-1.776-1.296-3.192-2.112-4.56l-1.104.432c.48.864.6 1.104.96 1.896-1.656.216-2.088.24-3.888.36 1.248-1.392 2.52-3.168 4.44-6.072.336-.48.48-.696.696-.984l-1.416-.84c-.312.864-1.128 2.184-2.76 4.536-.504-.6-.888-1.032-1.608-1.752.984-1.392 1.68-2.496 2.376-3.768.264-.48.384-.672.552-.912l-1.488-.672c-.24.936-1.056 2.448-2.376 4.44-.384-.384-.504-.48-1.032-.984l-.888 1.128c1.8 1.536 2.424 2.184 3.648 3.672a37.75 37.75 0 01-1.824 2.304c-.384.024-1.104.048-1.224.048-.336 0-.504-.024-.864-.072l.264 1.56zm19.176-6.576c-.048 5.16-.408 9.816-1.032 12.552-.336 1.536-.6 1.824-1.728 1.824-.96 0-1.872-.096-3.192-.312.24.624.336 1.008.408 1.656.96.096 1.848.144 2.544.144 2.304 0 2.904-.504 3.456-2.808.552-2.376 1.008-7.104 1.032-10.872.048-3 .048-3 .12-3.696-.504.072-.984.096-1.944.096h-6c.312-.768.504-1.248.696-1.776.432-1.2.432-1.2.624-1.656l-1.632-.408c-.192 1.152-.552 2.232-1.344 3.96-.744 1.608-1.608 2.928-2.688 4.104.504.264.864.528 1.248.936a18.667 18.667 0 002.448-3.744h6.984zm-17.808 7.728c-.288 2.904-.696 4.536-1.584 6.432l1.32.624c.888-2.16 1.152-3.264 1.584-6.792l-1.32-.264zm5.568.24c.576 1.848.912 3.408 1.224 5.784l1.392-.456c-.408-2.256-.72-3.552-1.416-5.712l-1.2.384zm9.168.84c-1.152-2.496-1.848-3.72-3.408-5.856l-1.248.72c1.56 2.136 2.184 3.264 3.288 5.952l1.368-.816zm11.208-10.992h5.64c1.128 0 1.896.048 2.808.192v-2.04c-.96.144-1.512.192-2.808.192h-4.944c-1.416 0-1.8-.024-2.544-.12.048.6.048.696.048 1.032 0 .456-.024.744-.072 1.44l-.528 5.424a19.122 19.122 0 01-.36 2.472l1.8.168c.264-.648.528-.984 1.104-1.44.864-.672 1.92-1.008 3.144-1.008 2.544 0 4.2 1.728 4.2 4.368 0 2.76-1.8 4.584-4.488 4.584-1.392 0-2.592-.504-3.408-1.416-.36-.408-.528-.72-.768-1.392l-1.968.576c.576 1.152.912 1.656 1.512 2.256 1.152 1.08 2.712 1.632 4.584 1.632 3.96 0 6.48-2.472 6.48-6.336 0-1.776-.528-3.192-1.608-4.224-1.08-1.056-2.568-1.632-4.32-1.632-1.656 0-3.048.552-4.2 1.656.144-.648.144-.648.192-1.08l.504-5.304zm15.773 0h5.64c1.128 0 1.896.048 2.808.192v-2.04c-.96.144-1.512.192-2.808.192h-4.944c-1.416 0-1.8-.024-2.544-.12.048.6.048.696.048 1.032 0 .456-.024.744-.072 1.44l-.528 5.424a19.122 19.122 0 01-.36 2.472l1.8.168c.264-.648.528-.984 1.104-1.44.864-.672 1.92-1.008 3.144-1.008 2.544 0 4.2 1.728 4.2 4.368 0 2.76-1.8 4.584-4.488 4.584-1.392 0-2.592-.504-3.408-1.416-.36-.408-.528-.72-.768-1.392l-1.968.576c.576 1.152.912 1.656 1.512 2.256 1.152 1.08 2.712 1.632 4.584 1.632 3.96 0 6.48-2.472 6.48-6.336 0-1.776-.528-3.192-1.608-4.224-1.08-1.056-2.568-1.632-4.32-1.632-1.656 0-3.048.552-4.2 1.656.144-.648.144-.648.192-1.08l.504-5.304zm19.806-.192c-.096 4.512-.552 7.416-1.584 9.984-1.248 3.168-2.856 5.112-6.024 7.368.528.36.864.672 1.296 1.272 2.16-1.704 3.336-2.904 4.44-4.56 1.536-2.352 2.448-4.776 3-7.944h8.496c-.096 3.312-.384 6.312-.84 8.52-.36 1.68-.672 1.968-2.064 1.968-1.104 0-2.28-.144-4.2-.504.216.576.336 1.032.384 1.728 1.752.192 2.832.288 3.696.288 2.16 0 2.952-.456 3.48-1.992.576-1.656.96-4.968 1.152-9.696.048-1.008.072-1.44.144-1.872-.6.096-1.344.12-2.784.12h-7.272c.192-1.512.192-1.512.336-4.68h9.72c1.008 0 1.848.048 2.568.144v-1.752c-.792.096-1.536.144-2.568.144h-16.128c-1.056 0-1.824-.048-2.568-.144v1.752c.768-.096 1.56-.144 2.568-.144h4.752zm19.44 8.592h15.648v7.464c0 .456-.216.552-1.272.552-.936 0-2.112-.096-3.792-.288.216.576.312.96.384 1.56 1.152.096 2.472.144 3.432.144 2.328 0 2.856-.336 2.856-1.776v-15.744c0-1.008.024-1.536.096-2.208-.576.072-1.176.096-2.208.096h-14.64c-.984 0-1.584-.024-2.208-.096.072.648.096 1.224.096 2.136v15.432c0 1.272-.048 1.968-.144 2.616h1.872c-.096-.552-.12-1.032-.12-2.544v-7.344zm6.84-1.44h-6.84v-7.296h6.84v7.296zm1.56 0v-7.296h7.248v7.296h-7.248z" fill="#333"/><path d="M817.888 430.95c.608-.096.704-.096 2.08-.192.64-.064 1.632-.128 3.008-.224v9.792c0 1.6-.064 2.464-.192 3.424h3.52c-.128-.96-.192-1.824-.192-3.424v-10.08c.576-.032 1.312-.128 2.272-.224.128.512.192.768.352 1.504l2.688-1.12c-.832-2.464-1.696-4.608-2.528-6.24l-2.4.96c.512 1.056.64 1.376.928 2.176-1.632.192-1.76.192-3.648.288 1.376-1.568 3.616-4.544 5.408-7.2.544-.8.736-1.12 1.056-1.472l-2.944-1.696c-.448 1.056-1.376 2.592-3.456 5.6-.448-.576-.8-.96-1.344-1.6.8-1.088 2.24-3.424 2.976-4.896.352-.64.48-.864.672-1.152l-3.04-1.248c-.32 1.152-1.44 3.328-2.656 5.184-.32-.384-.512-.576-.96-1.12l-1.824 2.656c2.336 2.176 2.656 2.528 4.384 4.736-.64.832-.768.992-1.856 2.336-.736.032-1.056.032-1.28.032-.64 0-.896-.032-1.376-.096l.352 3.296zm24.768-8.832c0 6.656-.384 12.32-1.024 15.424-.384 1.984-.736 2.368-2.176 2.368-1.12 0-2.56-.128-4.192-.416.512 1.376.736 2.176.896 3.584 1.152.096 2.144.128 2.976.128 2.08 0 3.36-.256 4.096-.832 1.056-.832 1.632-2.592 2.144-6.272.352-2.624.704-8.192.736-11.84.032-4.544.032-4.544.16-5.568-.704.096-1.28.128-2.624.128h-6.976c.384-.992.512-1.376.928-2.688.256-.896.256-.896.416-1.312l-3.584-.64c-.16 1.056-.544 2.432-1.152 4.032a20.716 20.716 0 01-3.776 6.368c1.184.864 1.92 1.6 2.56 2.592 1.504-1.856 2.048-2.752 3.2-5.056h7.392zm-23.776 9.92c-.192 3.648-.608 5.856-1.504 8.608l2.848 1.312c.896-2.784 1.344-5.472 1.568-9.472l-2.912-.448zm8.448.448c.544 2.528.992 5.76 1.216 8.224l2.912-.704c-.352-2.688-.864-5.344-1.536-8.16l-2.592.64zm12.48 1.376c-1.216-3.296-2.048-5.024-3.936-8.032l-2.784 1.536c1.664 2.784 2.304 4.224 3.648 8.128l3.072-1.632zm28.928-12.736c-.704-1.664-1.184-2.4-2.016-3.264-1.536-1.6-3.808-2.432-6.56-2.432-3.36 0-5.92 1.248-7.808 3.808-1.632 2.176-2.624 5.952-2.624 9.888 0 4.832 1.344 8.672 3.712 10.72 1.568 1.344 3.936 2.112 6.496 2.112 5.44 0 9.28-3.584 9.28-8.64 0-1.888-.384-3.552-1.152-4.8-1.408-2.4-4.16-3.808-7.424-3.808-3.232 0-5.12.864-6.848 3.2.16-2.464.512-4 1.312-5.664 1.088-2.208 2.752-3.328 5.024-3.328 2.272 0 3.456.896 4.288 3.232l4.32-1.024zm-8.832 7.072c3.168 0 5.056 1.856 5.056 5.024 0 1.12-.256 2.176-.736 2.912-.896 1.408-2.528 2.24-4.384 2.24-3.136 0-5.408-2.144-5.408-5.056 0-2.944 2.336-5.12 5.472-5.12zm12.765 7.488c.704 1.792 1.152 2.56 2.016 3.488 1.76 1.888 4.128 2.784 7.296 2.784 5.952 0 9.632-3.488 9.632-9.12 0-2.56-.704-4.48-2.272-6.016-1.568-1.632-3.648-2.4-6.24-2.4-2.208 0-3.904.608-5.472 1.952.096-.64.16-1.088.192-1.344l.512-5.6h7.52c1.76 0 3.008.064 4.416.256v-4.032c-1.44.224-2.24.256-4.448.256h-7.872c-1.696 0-2.432-.032-3.392-.096-.032 1.6-.096 2.688-.128 3.264l-.736 7.936c-.064.896-.096 1.056-.416 3.328l4 .384c.288-.704.512-.992.96-1.44.992-.96 2.4-1.472 3.968-1.472 3.04 0 5.024 2.016 5.024 5.152 0 3.168-2.08 5.28-5.248 5.28-1.696 0-3.04-.544-3.936-1.632-.448-.512-.672-.928-.96-1.856l-4.416.928zm22.781 0c.704 1.792 1.152 2.56 2.016 3.488 1.76 1.888 4.128 2.784 7.296 2.784 5.952 0 9.632-3.488 9.632-9.12 0-2.56-.704-4.48-2.272-6.016-1.568-1.632-3.648-2.4-6.24-2.4-2.208 0-3.904.608-5.472 1.952.096-.64.16-1.088.192-1.344l.512-5.6h7.52c1.76 0 3.008.064 4.416.256v-4.032c-1.44.224-2.24.256-4.448.256h-7.872c-1.696 0-2.432-.032-3.392-.096-.032 1.6-.096 2.688-.128 3.264l-.736 7.936c-.064.896-.096 1.056-.416 3.328l4 .384c.288-.704.512-.992.96-1.44.992-.96 2.4-1.472 3.968-1.472 3.04 0 5.024 2.016 5.024 5.152 0 3.168-2.08 5.28-5.248 5.28-1.696 0-3.04-.544-3.936-1.632-.448-.512-.672-.928-.96-1.856l-4.416.928zm31.646-16.48c-.096 3.936-.128 4.256-.448 6.368-.64 4.256-2.016 7.648-4.256 10.56-1.408 1.824-2.592 2.88-4.928 4.384a11.141 11.141 0 012.688 3.072c2.88-2.048 4.576-3.808 6.272-6.496 1.824-2.944 2.88-5.76 3.552-9.568h9.952c-.224 5.568-.672 9.472-1.312 11.04-.352.896-.928 1.152-2.496 1.152-1.248 0-3.168-.256-5.024-.64.512 1.28.704 2.208.864 3.648 2.816.224 3.488.256 4.544.256 3.168 0 4.576-.704 5.376-2.688.8-1.952 1.44-7.04 1.664-12.672.096-2.848.096-2.88.192-3.616-.96.128-2.208.16-4.096.16h-9.184c.192-1.76.224-2.464.288-4.96h12c1.44 0 2.816.064 4.064.192v-3.776c-1.248.128-2.56.192-4.096.192h-20.576c-1.568 0-2.912-.064-4.096-.192v3.776a42.067 42.067 0 014.128-.192h4.928zm27.744 11.872h19.04v7.808c0 .768-.192.864-1.44.864-1.152 0-2.752-.128-4.864-.352.576 1.312.8 2.208.992 3.456 1.248.064 3.008.128 4.256.128 1.728 0 2.752-.128 3.36-.448.928-.48 1.312-1.376 1.312-3.008v-20.512c0-1.728.032-2.56.128-3.488-.768.096-1.728.128-3.488.128H954.68c-1.696 0-2.528-.032-3.552-.128.096.928.128 1.728.128 3.072v20.928c0 1.664-.064 2.816-.192 3.84H955c-.128-.736-.16-1.696-.16-3.712v-8.576zm7.584-3.36h-7.584v-8.672h7.584v8.672zm3.456 0v-8.672h8v8.672h-8z" fill="#639CD1"/><path stroke="#C4C4C4" stroke-width=".5" stroke-dasharray="2.4 2.4" d="M6.25 387.25h1448.5v.5H6.25zm-8-84h1448.5v.5H-1.75zm-1-84h1448.5v.5H-2.75zm-12-84h1448.5v.5H-14.75z"/><defs><clipPath id="clip0"><path fill="#fff" transform="translate(830 16.998)" d="M0 0h200.325v24.209H0z"/></clipPath></defs></svg>