<svg width="707" height="530" fill="none" xmlns="http://www.w3.org/2000/svg"><path d="M0 94h707v436H0V94z" fill="#333"/><path d="M85.292 118.152c1.134 0 1.512.018 2.07.09v-1.332c-.594.09-.936.108-2.088.108h-10.53c-1.134 0-1.494-.018-2.088-.108v1.332c.558-.072.936-.09 2.07-.09h4.878c-.144 4.104-1.548 6.03-5.274 7.272.432.414.612.648.846 1.17 4.068-1.584 5.58-3.78 5.796-8.442h4.32zm-10.818-4.338c.504-.072.81-.09 2.052-.09h5.472c1.134.018 1.818.036 2.052.054v-1.296c-.63.072-1.098.09-2.07.09h-5.436c-1.17 0-1.53-.018-2.07-.126v1.368zm9.648-2.448c.504.576 1.332 1.944 1.746 2.916l.918-.504a14.007 14.007 0 00-1.764-2.844l-.9.432zm2.214-.666c.666.846 1.386 2.034 1.746 2.898l.918-.504c-.558-1.134-.99-1.836-1.764-2.844l-.9.45zm8.82 4.86v-2.142c0-.792.018-1.026.072-1.458H93.77c.054.396.072.558.072 1.512v2.088h-1.494c-1.134 0-1.494-.018-2.106-.108v1.368c.576-.072.936-.09 2.088-.09h1.512v2.952c0 .954-.018 1.134-.072 1.512h1.458c-.054-.414-.072-.666-.072-1.458v-3.006h5.472c-.036 2.88-.144 3.96-.54 5.04-.72 1.818-2.538 3.222-4.896 3.816.414.396.594.666.81 1.134 2.43-.828 4.05-2.088 5.022-3.888.666-1.296.864-2.628.882-6.102h1.584c1.152 0 1.512.018 2.088.09v-1.368c-.612.09-.972.108-2.106.108h-1.548v-1.89c.018-1.188.018-1.206.072-1.71h-1.404c.054.414.054.576.054 1.836v1.764h-5.49zm7.524-4.464c.486.81.846 1.674 1.278 3.006l.954-.324c-.414-1.278-.702-1.908-1.278-2.952l-.954.27zm2.106-.558c.432.702.918 1.854 1.26 2.952l.936-.324a13.953 13.953 0 00-1.278-2.934l-.918.306zm15.308 1.17c-.504.846-1.764 2.106-3.438 3.402-2.844 2.232-5.958 3.78-9.342 4.662.36.45.45.63.702 1.206 3.294-1.116 4.608-1.71 6.948-3.15v6.84c0 .99-.018 1.404-.108 1.872h1.566c-.072-.486-.09-.882-.09-1.908v-7.668c1.548-1.116 3.078-2.43 4.212-3.618.45-.486.468-.522.792-.756l-1.242-.882zm6.714 2.538a19.876 19.876 0 014.284 3.528l.936-1.116c-1.296-1.278-2.412-2.16-4.338-3.384l-.882.972zm.126 11.7c.45-.144.594-.18 1.08-.288 3.006-.684 4.86-1.422 6.714-2.682 2.376-1.638 4.05-3.744 5.49-6.876-.504-.342-.684-.504-1.098-1.062-1.458 3.816-3.87 6.462-7.344 8.01-1.674.774-3.834 1.332-5.238 1.386l.396 1.512zm-23.526 16.764c-.27.054-.594.072-1.35.072h-5.022c-.522 0-.918-.018-1.278-.09v1.17a8.693 8.693 0 011.08-.09c.918 2.088 1.422 2.862 2.664 4.104-1.296 1.044-2.628 1.764-4.482 2.394.324.324.486.54.702.99 1.926-.756 3.348-1.584 4.572-2.646 1.332 1.116 2.52 1.764 4.662 2.61.198-.45.36-.72.648-1.134-1.98-.63-3.24-1.26-4.518-2.25a14.01 14.01 0 002.646-3.798c.234-.486.234-.486.342-.666l-.666-.666zm-.756 1.062c-.702 1.476-1.314 2.34-2.358 3.384-1.206-1.152-1.746-1.926-2.394-3.384h4.752zm-12.924-7.038c.396-.054.81-.072 1.368-.072h2.43c.576 0 .918.018 1.368.072V135.6c-.432.072-.756.09-1.368.09h-2.43c-.63 0-.936-.018-1.368-.09v1.134zm-.612 2.556c.468-.054.828-.072 1.44-.072h3.564c.648 0 .954.018 1.314.072v-1.206c-.414.072-.702.09-1.44.09h-3.438c-.684 0-1.026-.018-1.44-.09v1.206zm.63 2.484a8.71 8.71 0 011.296-.072h2.538c.558 0 .846.018 1.278.072v-1.098c-.378.054-.63.072-1.278.072h-2.538c-.63 0-.954-.018-1.296-.072v1.098zm0 2.484a8.556 8.556 0 011.296-.072h2.538c.612 0 .774.018 1.278.072v-1.098c-.324.054-.666.072-1.278.072h-2.538c-.63 0-.936-.018-1.296-.072v1.098zm1.134 7.092v-.972h2.898v.738h1.116c-.072-.468-.09-.918-.09-1.476v-2.538c0-.684.018-1.008.054-1.422-.324.054-.54.054-1.314.054h-2.358c-.522 0-.972-.018-1.44-.072.072.468.09.882.09 1.512v2.43c0 .72-.036 1.224-.108 1.746h1.152zm0-4.68h2.898v2.772H90.88v-2.772zm10.422-9.972v3.798c0 .81.324.99 1.782.99 1.026 0 1.476-.09 1.746-.324.342-.306.522-.972.63-2.43-.396-.126-.558-.198-.99-.486-.036 1.062-.126 1.71-.288 2.016-.09.198-.306.252-1.044.252-.594 0-.756-.072-.756-.378v-2.808c0-.72.018-1.188.072-1.692-.414.054-.882.072-1.53.072h-2.196c-.468 0-.918-.018-1.404-.072.072.468.09.648.09 1.08 0 1.188-.126 1.998-.414 2.736-.36.954-.828 1.512-1.764 2.142.324.18.594.414.918.756.738-.576 1.098-.99 1.476-1.674.594-1.08.81-2.034.864-3.978h2.808zm16.902 4.086h-1.584c-.9 0-1.512-.036-2.07-.108v1.296a17.564 17.564 0 012.07-.108h1.584v6.876c0 1.278-.036 1.854-.126 2.574h1.44c-.108-.684-.144-1.422-.144-2.574v-6.876h1.71c.9 0 1.494.036 2.16.108v-1.296c-.594.072-1.188.108-2.16.108h-1.71v-3.636c0-.774.036-1.44.126-1.998h-1.422c.09.648.126 1.152.126 1.998v3.636zm-10.26-3.888c.396-.054.846-.072 1.458-.072h2.934c.612 0 .954.018 1.422.072v-1.134c-.432.072-.792.09-1.422.09h-2.934c-.648 0-1.026-.018-1.458-.09v1.134zm-.846 2.502c.504-.072.954-.09 1.548-.09h4.356c.648 0 1.134.018 1.566.09v-1.188c-.414.072-.864.108-1.566.108h-4.338c-.648 0-1.08-.036-1.566-.108v1.188zm.864 2.448a8.71 8.71 0 011.296-.072h3.204c.576 0 .81.018 1.278.072v-1.098c-.396.054-.666.072-1.278.072h-3.204c-.63 0-.918-.018-1.296-.072v1.098zm0 2.484a8.556 8.556 0 011.296-.072h3.204c.612 0 .846.018 1.278.072v-1.098c-.396.054-.666.072-1.278.072h-3.204c-.648 0-.936-.018-1.296-.072v1.098zm1.278 6.066h3.42v.702h1.206a9.383 9.383 0 01-.108-1.53v-2.376c0-.684.018-1.026.072-1.44-.36.036-.702.054-1.224.054h-3.294c-.576 0-.864-.018-1.26-.072.072.468.09.882.09 1.476v2.394c0 .684-.036 1.206-.108 1.728h1.206v-.936zm-.018-3.618h3.456v2.664h-3.456v-2.664zm26.37-6.894v-1.08h2.574c.684 0 1.188.018 1.71.054-.054-.288-.054-.414-.054-1.008v-.612c0-.54.018-.81.072-1.17-.396.072-.882.09-1.71.09h-2.592v-.18c0-.45.018-.684.09-1.062h-1.188c.072.378.09.612.09 1.044v.198h-2.862c.036-.648.054-1.062.072-1.224h-1.17c.072.468.09.666.09 1.224h-3.168c-.9 0-1.332-.018-1.782-.09v1.044c.522-.072 1.044-.09 1.782-.09h3.132a8.867 8.867 0 01-.09.972h-2.322c-.828 0-1.242-.018-1.638-.054-.252 1.152-.504 1.854-1.008 2.826.468-.036.918-.054 1.602-.054h2.304c-.936 1.026-2.16 1.566-4.716 2.106.288.306.432.558.576.918 1.008-.288 1.386-.414 1.998-.684v3.996c0 .846-.018 1.44-.072 1.818.468-.054 1.152-.072 1.998-.072h7.65c.864 0 1.548.018 2.016.072-.054-.432-.072-.936-.072-1.854v-2.898c0-.648.018-1.206.036-1.656.198.018.342.018.468.018.432 0 .738-.108.918-.324.18-.216.27-.54.414-1.458.072-.45.072-.468.162-.864-.432.054-.72.054-1.728.054h-3.582zm1.494 2.322h-8.01c.702-.396 1.17-.81 1.638-1.494h3.87v.18c0 .396-.018.666-.09.972h1.188c-.072-.306-.09-.576-.09-.99v-.162h4.104c-.126.936-.162.972-.576.972-.27 0-.612-.072-1.116-.234.09.27.126.432.18.756h-1.098zm-6.642-3.402c-.108.468-.18.666-.36 1.08h-2.97c.126-.306.198-.486.396-1.08h2.934zm4.14 0v1.08h-3.438c.18-.432.234-.612.324-1.08h3.114zm0-1.782v.972h-2.988c.036-.36.036-.378.09-.972h2.898zm1.008 0h3.168v.972h-3.168v-.972zm-7.128 6.048h9.342v1.062h-9.342v-1.062zm0 1.89h9.342v1.062h-9.342v-1.062zm0 1.89h9.342v1.08h-9.342v-1.08zm1.872 2.106c-1.656.9-2.97 1.296-5.184 1.602.288.306.45.576.648 1.008 2.412-.504 3.492-.9 5.364-1.944l-.828-.666zm4.68.666c1.098.63 1.638.864 2.844 1.26 1.026.342 1.566.468 2.664.666.252-.468.342-.612.684-1.026-1.188-.126-1.782-.234-2.7-.486-1.062-.288-1.584-.486-2.646-1.062l-.846.648zM97.72 212.764v-1.008c0-.612.018-.972.108-1.458h-1.224c.054.45.072.864.072 1.476v1.314l-.126.036c-.594.18-.864.234-1.26.306l.234 1.188c.342-.162.72-.324 1.152-.468v5.184c0 1.332.576 1.548 4.122 1.548 3.816 0 3.96-.108 4.266-3.348-.468-.108-.666-.198-1.116-.45-.036 1.368-.162 2.214-.378 2.448-.198.234-.828.306-2.718.306-2.934 0-3.132-.054-3.132-.792v-5.22l2.052-.666v2.988c0 .756-.018 1.044-.072 1.512h1.17c-.072-.414-.09-.774-.09-1.512v-3.312l2.394-.774c0 1.422-.072 2.556-.198 3.546-.054.378-.198.54-.522.54-.234 0-.774-.072-1.17-.144.144.414.198.63.252 1.062.396.036.774.054.99.054.666 0 1.026-.126 1.206-.432.27-.486.378-1.512.468-4.302.018-.378.018-.594.072-1.746-.252.126-.99.396-1.476.54l-2.016.63v-1.062c0-.594.036-1.026.108-1.458h-1.206c.054.45.09.882.09 1.494v1.332l-2.052.648zm-5.922-4.824h-1.422a9.395 9.395 0 01-1.566-.108v1.206c.414-.072.81-.09 1.512-.09h.522c-.072 3.42-.108 4.158-.252 5.472-.288 2.592-.9 4.212-2.196 5.796.342.27.54.468.846.9 1.098-1.53 1.62-2.628 2.034-4.284.27-1.08.414-2.196.54-4.428h2.034c0 2.61-.108 4.716-.306 6.03-.18 1.224-.288 1.386-.918 1.386-.468 0-.9-.054-1.458-.198.126.342.162.612.216 1.17.486.036.99.072 1.224.072.612 0 1.08-.09 1.296-.27.288-.216.486-.774.648-1.764.198-1.242.324-3.78.342-6.372 0-.45.018-.774.036-1.116-.36.054-.684.072-1.26.072h-1.818c.036-1.44.036-1.44.072-2.466h2.214c.774 0 1.188.018 1.602.072v-1.17c-.468.072-.936.09-1.602.09h-1.224v-1.188c0-.72.018-1.116.108-1.656H91.69c.072.522.108.972.108 1.656v1.188zm11.304.648c.702 0 1.332.018 1.836.072v-1.206c-.432.072-1.008.108-1.836.108h-5.166c.234-.522.342-.756.648-1.494.216-.558.234-.612.324-.756l-1.206-.288c-.054.288-.09.432-.252.9-.576 1.8-1.44 3.258-2.844 4.896.432.234.666.432.864.72.9-1.17 1.368-1.89 1.944-2.952h5.688zm11.124-.468v10.278h-5.076c-.954 0-1.512-.036-2.124-.126v1.404c.63-.09 1.206-.126 2.106-.126h11.826c.9 0 1.53.036 2.106.126v-1.404c-.612.09-1.17.126-2.106.126h-5.436V208.12h4.338c.846 0 1.422.036 2.07.108v-1.368c-.594.072-1.152.108-2.088.108h-9.576c-.954 0-1.512-.036-2.088-.108v1.368c.63-.072 1.224-.108 2.07-.108h3.978zm21.366 1.764v-1.08h2.574c.684 0 1.188.018 1.71.054-.054-.288-.054-.414-.054-1.008v-.612c0-.54.018-.81.072-1.17-.396.072-.882.09-1.71.09h-2.592v-.18c0-.45.018-.684.09-1.062h-1.188c.072.378.09.612.09 1.044v.198h-2.862c.036-.648.054-1.062.072-1.224h-1.17c.072.468.09.666.09 1.224h-3.168c-.9 0-1.332-.018-1.782-.09v1.044c.522-.072 1.044-.09 1.782-.09h3.132a8.867 8.867 0 01-.09.972h-2.322c-.828 0-1.242-.018-1.638-.054-.252 1.152-.504 1.854-1.008 2.826.468-.036.918-.054 1.602-.054h2.304c-.936 1.026-2.16 1.566-4.716 2.106.288.306.432.558.576.918 1.008-.288 1.386-.414 1.998-.684v3.996c0 .846-.018 1.44-.072 1.818.468-.054 1.152-.072 1.998-.072h7.65c.864 0 1.548.018 2.016.072-.054-.432-.072-.936-.072-1.854v-2.898c0-.648.018-1.206.036-1.656.198.018.342.018.468.018.432 0 .738-.108.918-.324.18-.216.27-.54.414-1.458.072-.45.072-.468.162-.864-.432.054-.72.054-1.728.054h-3.582zm1.494 2.322h-8.01c.702-.396 1.17-.81 1.638-1.494h3.87v.18c0 .396-.018.666-.09.972h1.188c-.072-.306-.09-.576-.09-.99v-.162h4.104c-.126.936-.162.972-.576.972-.27 0-.612-.072-1.116-.234.09.27.126.432.18.756h-1.098zm-6.642-3.402c-.108.468-.18.666-.36 1.08h-2.97c.126-.306.198-.486.396-1.08h2.934zm4.14 0v1.08h-3.438c.18-.432.234-.612.324-1.08h3.114zm0-1.782v.972h-2.988c.036-.36.036-.378.09-.972h2.898zm1.008 0h3.168v.972h-3.168v-.972zm-7.128 6.048h9.342v1.062h-9.342v-1.062zm0 1.89h9.342v1.062h-9.342v-1.062zm0 1.89h9.342v1.08h-9.342v-1.08zm1.872 2.106c-1.656.9-2.97 1.296-5.184 1.602.288.306.45.576.648 1.008 2.412-.504 3.492-.9 5.364-1.944l-.828-.666zm4.68.666c1.098.63 1.638.864 2.844 1.26 1.026.342 1.566.468 2.664.666.252-.468.342-.612.684-1.026-1.188-.126-1.782-.234-2.7-.486-1.062-.288-1.584-.486-2.646-1.062l-.846.648zm-20.754 61.786h-5.004c-.576 0-.918-.018-1.35-.072.054.468.09.864.09 1.422v4.914c0 .576-.036 1.08-.108 1.602h1.296v-1.224h5.076v4.194c0 .972-.036 1.44-.126 2.052h1.44c-.108-.576-.126-1.026-.126-2.052v-4.194h5.364v1.224h1.296a11.395 11.395 0 01-.108-1.602v-4.914c0-.576.018-.954.09-1.422a9.625 9.625 0 01-1.368.072h-5.274v-1.584c0-.774.036-1.278.126-1.836h-1.44c.09.558.126.99.126 1.872v1.548zm0 1.08v4.482h-5.076v-4.482h5.076zm1.188 4.482v-4.482h5.364v4.482h-5.364zm11.412-2.754h3.294c.72 0 1.332.018 1.818.054a20.63 20.63 0 01-.054-1.674v-2.232c0-.666.018-1.206.054-1.71-.504.054-.936.072-1.836.072h-2.574c-.918 0-1.386-.018-1.89-.072.054.576.072 1.098.072 1.98v11.628c0 .972-.036 1.53-.108 2.016h1.332c-.072-.468-.108-1.008-.108-2.016v-8.046zm0-4.608h4.032v1.44h-4.032v-1.44zm0 2.286h4.032v1.458h-4.032v-1.458zm13.374-1.26c0-.81.018-1.278.09-1.98-.522.054-.954.072-1.89.072h-2.97c-.918 0-1.332-.018-1.836-.072.036.54.054 1.08.054 1.71v2.232c0 .666-.018 1.206-.054 1.674a24.761 24.761 0 011.818-.054h3.69v8.244c0 .432-.144.522-.882.522-.378 0-1.134-.072-1.98-.18.162.378.252.666.324 1.152.45.036 1.422.072 1.8.072 1.458 0 1.836-.306 1.836-1.494v-11.898zm-5.526-1.026h4.428v1.44h-4.428v-1.44zm0 2.286h4.428v1.458h-4.428v-1.458zm1.602 5.436c0-.72.018-1.188.054-1.692-.54.054-.954.072-1.782.072h-3.294c-.81 0-1.242-.018-1.782-.072.036.522.054 1.044.054 1.692v3.996c0 .738-.018 1.206-.09 1.692h1.116v-1.26h3.942c.738 0 1.332.018 1.836.054a20.582 20.582 0 01-.054-1.638v-2.844zm-5.724-.72h4.698v1.602h-4.698v-1.602zm0 2.502h4.698v1.746h-4.698v-1.746zm-55.691 21.31c2.7 2.178 5.382 5.13 7.02 7.74l1.098-.918c-1.206-1.602-1.944-2.538-2.628-3.276 2.268-1.836 4.176-3.996 5.94-6.75.378-.576.504-.738.72-.954l-.756-.9c-.288.108-.378.126-1.008.126H74.789c-1.044 0-1.476-.018-2.106-.108v1.422c.612-.054 1.116-.072 2.088-.072 10.026-.018 10.026-.018 10.278-.036-.072.108-.09.126-.144.216-.756 1.242-1.98 2.862-2.97 3.906-.666.702-1.62 1.566-2.394 2.214-1.638-1.674-2.304-2.286-3.654-3.402l-.99.792zm14.669 1.404c.54-.054.918-.072 2.232-.072h10.44c1.206 0 1.62.018 2.196.072v-1.458c-.558.072-.846.09-2.178.09H91.798c-1.224 0-1.71-.018-2.232-.108v1.476zm20.322-6.516c1.026.306 3.42 1.602 4.428 2.394l.738-1.206a28.04 28.04 0 00-4.464-2.268l-.702 1.08zm-1.422 4.32c1.458.522 3.528 1.638 4.59 2.466l.702-1.224a28.797 28.797 0 00-4.572-2.34l-.72 1.098zm.612 8.604c.27-.09.306-.09.702-.18 6.48-1.224 10.188-4.05 12.456-9.504a5.54 5.54 0 01-1.116-.972c-1.296 3.816-4.086 6.786-7.56 8.064-1.692.648-3.708 1.116-4.734 1.116h-.108l.36 1.476zm10.044-14.364c.522.576 1.386 1.908 1.836 2.862l.9-.54c-.54-1.062-1.044-1.818-1.836-2.79l-.9.468zm2.034-.954c.702.81 1.458 1.98 1.854 2.826l.9-.522c-.594-1.134-1.044-1.8-1.872-2.79l-.882.486zm5.652 3.33a19.876 19.876 0 014.284 3.528l.936-1.116c-1.296-1.278-2.412-2.16-4.338-3.384l-.882.972zm.126 11.7c.45-.144.594-.18 1.08-.288 3.006-.684 4.86-1.422 6.714-2.682 2.376-1.638 4.05-3.744 5.49-6.876-.504-.342-.684-.504-1.098-1.062-1.458 3.816-3.87 6.462-7.344 8.01-1.674.774-3.834 1.332-5.238 1.386l.396 1.512zm-10.386 46.912h-2.934c-.846 0-1.332-.018-1.728-.072.054.45.072.828.072 1.512v4.248c0 .918-.018 1.368-.09 1.89h1.224v-1.08h3.456v3.834c0 .882-.036 1.62-.108 2.16h1.368c-.072-.522-.108-1.242-.108-2.178v-3.816h3.726v1.062h1.224c-.072-.468-.09-.882-.09-1.872v-4.23c0-.738.018-1.044.072-1.53-.396.054-.9.072-1.71.072H117.7v-1.674c0-.864.036-1.404.108-1.998h-1.368c.072.576.108 1.134.108 1.98v1.692zm0 1.08v4.356h-3.456v-4.356h3.456zm1.152 4.356v-4.356h3.726v4.356H117.7zm-8.694 4.986c0 .972-.036 1.512-.126 2.16h1.404c-.09-.612-.126-1.296-.126-2.106v-9.828c.612-1.188 1.116-2.286 1.458-3.24.126-.36.198-.558.306-.792l-1.26-.432c-.072.558-.36 1.458-.756 2.43-.864 2.052-1.962 3.762-3.384 5.202.36.414.432.504.702 1.062.918-1.08 1.404-1.764 1.854-2.646a31.67 31.67 0 00-.072 2.214v5.976zm23.256-14.022c-1.62 2.79-4.356 5.256-7.488 6.714.324.342.558.666.774 1.08 1.89-1.008 3.294-2.034 4.788-3.51 1.134-1.116 1.71-1.8 2.646-3.24.918 1.44 1.674 2.322 2.952 3.474a23.827 23.827 0 004.77 3.312c.252-.504.414-.756.756-1.152a20.395 20.395 0 01-4.554-2.88c-1.512-1.296-2.412-2.322-3.276-3.798h-1.368zm-2.862 5.94c.09.594.126 1.062.126 1.728 0 2.358-.414 3.978-1.296 5.148-.702.936-1.53 1.548-3.06 2.214.414.306.666.576.954 1.044 3.366-1.836 4.536-3.996 4.59-8.442.018-.774.036-1.17.108-1.692H129.4zm5.652 0c.09.576.126 1.188.126 1.854v6.174c0 .666-.036 1.242-.126 1.89h1.44a13.067 13.067 0 01-.126-1.908v-6.156c0-.72.036-1.242.126-1.854h-1.44zm-38.556 24.19H91.96c-.846 0-1.386-.036-1.908-.108v1.26a14.78 14.78 0 011.908-.108h4.536v2.826h-5.544c-.846 0-1.386-.036-1.89-.108v1.278c.54-.072 1.08-.108 1.89-.108h5.544v3.96c0 .396-.18.522-.756.522-.774 0-1.926-.108-3.06-.306.198.522.27.756.324 1.242.954.108 1.998.162 2.7.162 1.53 0 1.962-.306 1.962-1.422v-4.158h5.148c.81 0 1.332.036 1.89.108v-1.278c-.522.072-1.062.108-1.89.108h-5.148v-2.826h4.356c.792 0 1.404.036 1.908.108v-1.26c-.522.072-1.062.108-1.908.108h-4.356v-3.024c2.124-.306 2.61-.414 5.49-1.224l-.99-1.062c-.882.45-2.43.864-4.59 1.224a47.208 47.208 0 01-7.452.576c.27.468.36.648.468 1.116 2.286-.072 3.51-.162 5.904-.468v2.862zm26.766-1.962c-.486.09-.846.108-1.674.108h-3.816c.234-.702.36-1.206.594-2.088.234-.882.234-.882.324-1.134l-1.224-.27c-.072 1.134-.414 2.556-.918 3.87-.63 1.674-1.278 2.79-2.214 3.888.396.216.576.342.9.702.594-.756.882-1.224 1.314-2.088.378 2.214.882 3.672 1.854 5.292-1.134 1.548-2.538 2.646-4.662 3.672.306.306.522.576.738 1.008 1.998-1.08 3.438-2.268 4.572-3.708 1.116 1.512 2.358 2.61 3.996 3.564.234-.504.378-.756.666-1.116-1.71-.9-2.898-1.926-3.996-3.402.648-1.044 1.062-2.016 1.404-3.24.36-1.224.486-2.124.612-3.924.918 0 1.116.018 1.53.09v-1.224zm-2.646 1.134c-.054 1.062-.09 1.44-.216 2.088-.252 1.512-.684 2.808-1.35 4.032-.954-1.692-1.422-3.222-1.818-5.724.09-.198.09-.234.162-.396h3.222zm-6.156 9.558c-.828-.522-1.098-.684-1.872-1.062.702-.918.954-1.404 1.368-2.754h.342c.612 0 .936.018 1.296.09v-1.134c-.324.072-.63.09-1.26.09h-3.276c.18-.396.252-.576.486-1.17l-1.08-.252c-.216.72-.324.972-.54 1.422h-1.602c-.63 0-.954-.018-1.278-.09v1.134c.342-.072.684-.09 1.278-.09h1.098c-.45.792-.666 1.116-1.278 1.944 1.458.54 1.944.738 2.754 1.116-1.044.846-2.286 1.458-3.96 1.908.27.342.414.594.576.99 2.142-.756 3.24-1.35 4.356-2.394.828.432 1.134.63 1.962 1.242l.63-.99zm-1.584-3.816c-.306 1.008-.594 1.53-1.224 2.304-.684-.324-1.026-.45-1.998-.828.45-.702.63-.972.918-1.476h2.304zm-.936-6.606v-2.412c0-.504.018-.81.09-1.206h-1.206c.072.414.09.738.09 1.206v2.412h-2.34c-.702 0-1.08-.018-1.458-.09v1.116c.378-.072.756-.09 1.422-.09h1.656c-.36.54-.468.648-.72.936-.72.792-1.386 1.296-2.664 2.052.342.27.54.486.792.864 1.764-1.26 2.466-1.98 3.384-3.546-.054.504-.072.702-.072 1.044v1.008c0 .252-.018.504-.072.738h1.17a3.37 3.37 0 01-.072-.756v-1.008c0-.324-.018-.54-.072-1.044.63 1.044 1.098 1.548 2.16 2.34.378-.558.396-.576.702-.864-.972-.54-1.674-1.098-2.196-1.764h1.764c.612 0 .9.018 1.224.072v-1.08c-.306.054-.576.072-1.206.072h-2.376zm-4.284-2.844c.594.81.918 1.386 1.296 2.358l.972-.396c-.414-.936-.738-1.494-1.35-2.376l-.918.414zm6.588-.468c-.396 1.026-.792 1.71-1.494 2.574l.9.45c.63-.81.954-1.368 1.566-2.574l-.972-.45zm23.886 10.17l-4.914 1.17c-.684.162-1.278.27-1.728.288l.234 1.278a12.45 12.45 0 011.674-.486l4.734-1.152v2.718c0 1.026-.018 1.494-.108 1.98h1.368c-.072-.522-.108-1.098-.108-1.962v-3.006l.414-.108c.702-.162 1.278-.27 1.728-.306l-.216-1.26c-.396.162-.846.306-1.656.504l-.27.054v-8.28c0-.846.036-1.332.108-1.872h-1.368c.072.45.108.936.108 1.89v8.55zm-9.99-3.294c-.378 1.116-.558 1.53-1.008 2.412-.648 1.26-1.242 2.106-2.142 3.024.288.306.432.522.684 1.008 1.224-1.386 2.016-2.862 2.772-5.148a51.99 51.99 0 00-.09 2.79v3.06c0 .828-.036 1.386-.108 1.998h1.314a14.81 14.81 0 01-.108-1.98v-3.366c0-.342-.054-1.944-.09-2.664.522 1.206 1.026 1.944 2.106 3.168.144-.288.378-.648.63-.972-1.098-.972-1.8-1.872-2.574-3.33h.99c.558 0 .972.018 1.35.072v-1.134c-.36.054-.72.072-1.332.072h-1.08v-4.266c0-.918.036-1.458.108-1.908h-1.314c.072.468.108 1.044.108 1.926v4.248h-1.422c-.792 0-1.206-.018-1.566-.09v1.17c.432-.072.81-.09 1.566-.09h1.206zm-2.682-5.616c.558 1.242.864 2.214 1.188 3.852l.954-.414c-.342-1.53-.594-2.322-1.206-3.852l-.936.414zm5.814-.468c-.378 1.782-.648 2.592-1.314 3.906l.882.414c.666-1.386.666-1.404 1.458-3.924l-1.026-.396zm1.818 1.08c1.458 1.008 2.07 1.566 3.276 2.916l.738-.936c-1.08-1.152-1.674-1.674-3.24-2.808l-.774.828zm-.558 4.5c1.44.936 2.16 1.548 3.258 2.808l.756-.9c-.936-1.044-1.71-1.692-3.222-2.736l-.792.828zM66.86 466.2c.52-.06 1.08-.08 1.72-.08h6.84c.8 0 1.3.02 1.8.08v-1.4c1.22.8 1.84 1.12 3.26 1.76.38-.98.58-1.36 1.1-2.2-2.04-.76-3.54-1.56-5.1-2.74-1.6-1.2-2.5-2.1-3.36-3.38h-2.38c-.82 1.24-1.76 2.24-3.14 3.34-1.54 1.2-3.24 2.16-5.1 2.88.58.78.82 1.2 1.16 2.04 1.38-.6 1.9-.88 3.2-1.68v1.38zm1.74-2.16h-.56c1.84-1.32 2.72-2.18 3.92-3.9 1.26 1.6 2.36 2.64 4.12 3.9H68.6zm-.98 12.48v-1.02h8.74v1.02h2.38c-.1-.62-.12-1.18-.12-2.1v-4.68c0-.86.02-1.42.1-1.98-.46.06-.94.08-1.74.08h-10c-.8 0-1.28-.02-1.72-.08.06.58.1 1.16.1 1.98v4.66c0 .88-.04 1.48-.12 2.12h2.38zm0-6.74h8.74v3.76h-8.74v-3.76zm27.62-5.5h-1.26c-1.06 0-1.78-.04-2.42-.12v2.3c.7-.08 1.56-.12 2.44-.12h1.24v7.3c0 1.46-.04 2.22-.14 3.02h2.5c-.1-.82-.14-1.64-.14-3.02v-7.3h1.4c.96 0 1.66.04 2.44.12v-2.3c-.66.08-1.34.12-2.42.12h-1.42v-3.62c0-1.08.04-1.72.14-2.4h-2.5c.12.76.14 1.28.14 2.4v3.62zm-11.34-3.56c.5-.06 1-.08 1.72-.08h3.46c.76 0 1.14.02 1.7.08v-1.96c-.52.08-.9.1-1.7.1h-3.46c-.82 0-1.22-.02-1.72-.1v1.96zm-.84 2.86c.58-.08 1.02-.1 1.68-.1h5.16c.84 0 1.24.02 1.7.08v-2c-.48.08-.92.1-1.7.1h-5.14c-.74 0-1.2-.04-1.7-.12v2.04zm.86 2.78c.46-.06.66-.06 1.32-.06h4.24c.64 0 .82 0 1.28.06v-1.9c-.42.06-.6.06-1.28.06h-4.24c-.66 0-.9-.02-1.32-.06v1.9zm0 2.84c.42-.04.66-.06 1.3-.06h4.22c.66 0 .92.02 1.32.06v-1.9c-.42.06-.6.06-1.28.06h-4.24c-.7 0-.96-.02-1.32-.06v1.9zm2.1 6.56h2.78v.62h2.14c-.08-.5-.1-.98-.1-1.74v-2.94c0-.7.02-1.08.08-1.54-.38.04-.68.06-1.3.06h-4.3c-.74 0-1.02-.02-1.4-.06.06.54.08.92.08 1.56v3.02c0 .78-.02 1.34-.1 1.92h2.12v-.9zm-.04-3.72h2.84v1.94h-2.84v-1.94zm24.78-6.48v1.94h-4.72c-1 0-1.64-.04-2.18-.12v2.22c.6-.08 1.3-.12 2.16-.12h4.74v4.48h-5.02c-1.02 0-1.76-.04-2.48-.12v2.3c.84-.1 1.56-.14 2.48-.14h12.64c.82 0 1.66.04 2.4.14v-2.3c-.66.08-1.34.12-2.36.12h-5.44v-4.48h5.04c.94 0 1.64.04 2.2.12v-2.22c-.52.08-1.14.12-2.18.12h-5.06v-1.94h2.04c.84 0 1.38.02 1.96.1v-1.02c1.26.78 1.92 1.1 3.5 1.76.3-.82.6-1.46 1.08-2.2-2.16-.7-3.66-1.46-5.3-2.7-1.42-1.04-2.28-1.9-3.08-3.08h-2.48c-1.44 2.4-4.44 4.56-8.16 5.86.54.74.68 1 1.16 2.06 1.32-.54 2.12-.96 3.26-1.64v.96c.58-.08 1.16-.1 1.96-.1h1.84zm-2.32-1.88c1.66-1.2 2.48-2 3.5-3.36 1.04 1.32 2.02 2.24 3.6 3.36-.3.02-.3.02-.48.02l-6.2-.02h-.42zm-2.92 6.78c.64 1 1.16 2.06 1.58 3.32l2-.8c-.54-1.36-.92-2.12-1.6-3.32l-1.98.8zm10.78-.78c-.48 1.38-.96 2.44-1.58 3.44l1.88.7c.68-1.16.76-1.3.82-1.42.74-1.46.74-1.46 1-1.92l-2.12-.8zm13.66-6.54c-.32.04-.5.04-.92.04h-1.6c.18-.32.18-.32.3-.56l.16-.32-1.86-.38c-.38 1.34-1.84 3.02-3.44 3.98.5.48.74.86 1.06 1.56.6-.42.84-.62 1.44-1.2.38.46.58.66 1.18 1.22-1.2.84-2.3 1.34-3.92 1.8.46.52.74 1.04 1 1.84.42-.18.54-.24.88-.4.02.3.02.46.02.74v3.12c0 .72-.04 1.36-.1 1.86h2.06v-1.1h2.74v.94h2c-.02-.26-.04-.56-.06-.96.4.4.78.96 1.06 1.5 1.66-.72 2.72-1.46 4.06-2.88l-1.46-1.26h3.28l-1.4 1.28c1.32 1.38 2.28 2.04 4.04 2.82.34-.74.68-1.3 1.2-1.92-2-.8-2.52-1.1-3.68-2.18h.68c.48 0 1.04.02 1.72.06-.04-.72-.06-1.2-.06-2.06v-6.9c0-.76.02-1.22.06-1.78-.4.06-.76.06-1.96.06h-1.32c.22-.56.34-.86.5-1.4h1.42c1 0 1.4.02 2.1.1v-2.12c-.4.06-1 .1-2.1.1h-5.22c-1.12 0-1.46-.02-2.1-.1v1.28c-.3.02-.66.04-1.48.04h-1.64v-.4c0-.64.02-.92.1-1.28h-2.3c.08.42.1.7.1 1.26v.42h-1.88c-.86 0-1.32-.02-1.6-.06.04.5.06.98.06 1.34v.96c0 .44-.02.8-.08 1.28h1.98v-1.74h4.98v1.4zm.72.26h1.16c-.04-.3-.06-.56-.06-1.34v-1.3c.44-.06 1.22-.1 2.04-.1h1.74c-.14.44-.22.7-.5 1.4h-1.16c-1.02 0-1.28 0-1.68-.04.06.98.06.98.06 1.88v7c0 .46-.02 1.36-.06 1.84.7-.04 1.22-.06 1.56-.06h.6c-.64.68-.9.92-1.56 1.36-.7.48-1.1.68-1.94.98v-3.42c0-.76 0-.76.04-1.38l.58.18c.22-.84.36-1.18.7-1.8-1.3-.36-2.06-.64-3.18-1.2.72-.78 1.34-1.62 2.06-2.8.1-.14.12-.16.24-.32l.08-.1-.72-.78zm-1.8 1.44c-.72.94-.92 1.18-1.34 1.6-.56-.46-.98-.88-1.36-1.38.1-.1.12-.12.18-.22h2.52zm-3.26 5.18c.9-.5 1.36-.82 2.08-1.4.78.5 1.64.94 2.66 1.38-.24.02-.36.02-.78.02h-3.96zm.58 1.66h2.76v1.94h-2.76v-1.94zm8.04-7.82h4.12v1.2h-4.12v-1.2zm0 2.84h4.12v1.26h-4.12v-1.26zm0 2.9h4.12v1.24h-4.12v-1.24z" fill="#fff"/><path d="M183 0h184v94H183V0z" fill="#C4C4C4"/><path d="M213.771 25.34c-.02 2.08-.12 3.48-.3 4.32-.08.4-.3.54-.86.54-.6 0-1.16-.06-2.1-.2.3.72.44 1.3.5 2.2.88.08 1.34.1 1.78.1 1.72 0 2.26-.3 2.6-1.38.3-.96.5-3.42.5-6.2.02-.8.02-1 .06-1.4-.54.08-1.08.1-1.9.1h-2.76c.04-.76.06-.86.08-1.94h2.1c1.14 0 1.86.02 2.52.08-.06-.46-.08-.86-.08-2.08v-2.6c0-.98.02-1.42.08-2.12-.56.08-1.18.1-2.46.1h-4.04c-1.16 0-1.88-.02-2.5-.1.06.76.08 1.18.08 2.2v2.42c0 1.02-.02 1.48-.08 2.18.64-.06 1.04-.08 2.22-.08-.04 1.64-.12 2.6-.34 3.86-.44 2.5-1.14 3.86-2.76 5.26.74.7.98 1 1.5 1.96 1.1-1.06 1.7-1.88 2.32-3.14.56-1.18.86-2.26 1.14-4.08h2.7zm-4.58-8.6h4.64v2.86h-4.64v-2.86zm8.32-1.36c.08.62.12 1.3.12 2.44v7.6c0 1.34-.02 1.76-.1 2.34h2.3c-.08-.6-.1-1.1-.1-2.38v-7.56c0-1.18.02-1.78.12-2.44h-2.34zm4.32-1.02c.1.88.14 1.76.14 2.72v12.5c0 .48-.2.6-.96.6-.58 0-1.56-.06-2.72-.2.34.76.52 1.36.68 2.24.94.04 1.22.06 1.66.06 2.92 0 3.48-.4 3.48-2.42V17.08c0-1.14.04-1.92.14-2.72h-2.42zm15.28 3.82c.88.08 1.4.24 2.02.6 1.6.96 2.46 2.52 2.46 4.44 0 2.14-1.04 4.04-2.78 5-.94.54-2.14.86-3.98 1.1.64.84.88 1.28 1.22 2.34 1.4-.24 2.18-.44 3.14-.84 3.06-1.24 4.86-4 4.86-7.46 0-4.5-3.12-7.42-7.92-7.42-2.84 0-5.2.96-6.88 2.8-1.42 1.56-2.2 3.62-2.2 5.82 0 3.22 1.64 5.54 3.92 5.54 1.64 0 2.92-1.18 4.06-3.76 1-2.26 1.7-5.02 2.08-8.16zm-2.44.02c-.24 2.26-.9 4.96-1.66 6.76-.72 1.72-1.4 2.56-2.06 2.56-.88 0-1.58-1.3-1.58-2.94 0-2.14 1.04-4.2 2.72-5.4.82-.58 1.54-.86 2.58-.98zm20.56-.82c-.86 1.5-1.52 2.38-2.84 3.72-1.86 1.92-3.72 3.3-6.3 4.66.72.8 1.08 1.32 1.4 2.04 1.78-1.12 2.82-1.84 3.8-2.64 1.26-1.04 2.22-2 2.92-2.92-.02.88-.02 1.14-.02 1.86v6c0 .84-.06 1.76-.14 2.52h2.58c-.1-.76-.14-1.58-.14-2.52V19.6c.78-1.06 1.02-1.44 1.42-2.22h4.04c.86 0 1.8.04 2.6.12v-2.36c-.64.08-1.48.12-2.66.12h-12.72c-1 0-1.86-.04-2.66-.12v2.36c.8-.08 1.88-.12 2.74-.12h5.98zm1.42 4.44c1.98 2.44 4.08 4.22 7.1 5.96.44-.88.8-1.42 1.38-2.18-1.46-.64-2.6-1.36-4.1-2.56-1.16-.94-1.92-1.68-2.92-2.84l-1.46 1.62zm14.14-4.3h-2.44c-.82 0-1.32-.02-1.86-.1v1.84c.56-.08 1.02-.1 1.86-.1h2.44v.86h-1.72c-.88 0-1.4-.02-1.96-.06.04.5.06.88.06 1.82v2.58c0 .98-.02 1.4-.06 1.9.56-.04 1.04-.06 1.94-.06h1.74v.88h-2.04c-.9 0-1.32-.02-1.88-.1v1.88c.54-.06 1.22-.08 1.86-.08h2.06v1.1c-2.12.12-2.5.14-3.4.14-.44 0-.62 0-1.04-.04l.36 2.14c.48-.08.78-.12 1.16-.16 3.66-.28 5.12-.44 7.86-.84.68.48 1.16.96 1.58 1.58.8-1.08 1.12-1.6 1.6-2.62.32.86.42 1.28.46 2.16.3.02 1.28.06 1.6.06 1.5 0 2.14-.3 2.5-1.18.5-1.16.76-3.98.86-9.14.06-2.88.06-3.04.14-3.76-.54.06-1.02.08-1.88.08h-1.74c.06-3.46.06-3.46.16-4h-2.3c.1.56.12.88.12 2.54 0 .62 0 .96-.02 1.46h-.3c-.68 0-1.02-.02-1.42-.08v2.16c.52-.06.84-.08 1.66-.08-.1 2.58-.22 3.82-.52 5.28-.38 1.7-1.04 3.32-1.9 4.6v-.86c-1.88.26-2.56.34-3.6.44v-.98h2.24c.76 0 1.04.02 1.4.1V27c-.46.06-.88.08-1.88.08h-1.76v-.88h1.86c.94 0 1.34 0 1.8.04-.02-.26-.04-.86-.06-1.82v-2.7c0-1.02.02-1.34.06-1.76-.42.04-.78.06-1.68.06h-1.98v-.86h2.5c.88 0 1.14.02 1.44.08v-1.82c-.46.08-.92.1-1.86.1h-2.08V16.4c1-.14 2-.3 2.74-.44.26-.06.92-.16 1.1-.18l-1.2-1.64c-1.36.64-4.8 1.06-8.72 1.08.38.68.54 1.04.7 1.6 1.5-.08 2.06-.12 3.44-.24v.94zm0 4v.84h-1.74v-.84h1.74zm1.94 0h1.74v.84h-1.74v-.84zm-1.94 2.3v.88h-1.74v-.88h1.74zm1.94 0h1.74v.88h-1.74v-.88zm9.6-3.52c-.02.66-.02.78-.04 1.4-.02 1.62-.02 1.62-.04 2.32-.08 2.22-.14 3.08-.28 4.14-.24 1.86-.38 2.1-1.28 2.1-.44 0-.74-.04-1.76-.2 1.22-2.68 1.68-5 1.88-9.76h1.52zm9.44 7.96c.56-.06 1.12-.08 1.84-.08h2.32v1.94h-4.58c-.86 0-1.38-.02-1.88-.1v2.12c.7-.08 1.24-.1 1.92-.1h11.1c.76 0 1.36.04 1.96.12v-2.14c-.5.06-1.1.1-1.9.1h-4.52v-1.94h3c.88 0 1.22.02 1.8.08V26.3c-.5.06-.86.08-1.8.08h-3V24.8h3.58c.92 0 1.36.02 1.94.08v-2.12c-.5.08-.94.1-1.92.1h-3.6c0-.58.02-.86.08-1.28h-2.28c.06.34.08.66.08 1.28h-2.24c.24-.58.24-.58.44-1.08l-2.02-.46c-.4 1.28-.58 1.72-1.04 2.56-.44.8-.84 1.32-1.4 1.88.14-1.52.18-2.34.18-4.66h12.36c1.04 0 1.6.02 2.24.1v-2.04c-.56.08-1.16.1-2.24.1h-2.64c.34-.6.44-.82.84-1.7h1.54c1.06 0 1.56.02 2.14.08v-2.16c-.58.08-1.22.12-2.26.12h-4.9v-.2c0-.48.04-.84.12-1.26h-2.46c.06.46.1.84.1 1.26v.2h-4.9c-1.02 0-1.64-.04-2.18-.12v2.16c.56-.06.98-.08 2.04-.08h1.7c.38.72.48.96.68 1.7h-2.06c-.9 0-1.5-.02-2.28-.1.06.66.1 1.4.1 2.2 0 2.86-.22 5.1-.62 6.66-.26 1-.54 1.62-1.14 2.64.66.62.94.96 1.6 1.96 1.06-1.64 1.6-3.34 1.96-6.26.46.44.76.8 1.16 1.38.54-.58.72-.8 1.04-1.22v1.74zm4.16-3.46v1.58h-2.34c-.84 0-1.3-.02-1.7-.06.38-.52.58-.88.92-1.52h3.12zm-1.62-5.54c-.24-.7-.36-1.02-.68-1.7h4.48c-.26.72-.4 1.04-.76 1.7h-3.04zm16.18 3.02a16 16 0 011.72-.08h6.68c.76 0 1.28.02 1.8.08v-1.56c1.4.88 2.16 1.28 3.42 1.82.28-.82.54-1.38 1.1-2.24-1.82-.66-3.44-1.5-5.14-2.7-1.52-1.06-2.32-1.84-3.38-3.32h-2.38c-.82 1.28-1.84 2.34-3.16 3.36-1.52 1.18-2.86 1.92-5.02 2.78.5.68.82 1.24 1.16 2.04 1.4-.62 1.96-.92 3.2-1.72v1.54zm1.74-2.16c-.36 0-.48 0-.82-.02 1.86-1.3 3.1-2.46 4.16-3.88 1.2 1.58 2.34 2.62 4.18 3.88-.38.02-.56.02-.88.02h-6.64zm.2 5.78c-.54 1.36-1.16 2.52-2.14 4-1.02.06-1.62.08-1.76.08-.28 0-.62-.02-1.16-.06l.32 2.44c.46-.1 1.46-.2 2.58-.28.8-.06 4.76-.42 6.74-.6.74-.08 1.94-.22 3.6-.44.34.48.54.76 1.2 1.74l1.92-1.26c-1.62-2.18-2.48-3.18-4.62-5.34l-1.98.88c1.12 1.16 1.46 1.52 2.1 2.22-2.8.3-2.8.3-6.34.5.84-1.24 1.46-2.42 2.08-3.88h6.88c1 0 1.68.04 2.34.12V23.7c-.66.08-1.36.12-2.34.12h-12.46c-.94 0-1.7-.04-2.36-.12v2.32c.66-.08 1.34-.12 2.36-.12h3.04zm19.12-1.08c.86 1 1.54 1.58 2.58 2.26.32-.76.62-1.32 1.1-1.96-1.32-.76-2.24-1.48-3.18-2.54.96-1.32 1.34-1.98 2-3.42.14-.34.26-.54.44-.84l-.96-1.04c-.26.04-.54.06-1.16.06h-.82V15.7c0-.66.04-1.1.12-1.56h-2.42c.08.46.12 1 .12 1.52v1.68h-1c-.66 0-1.08-.02-1.58-.08v2.22c.54-.06.96-.08 1.68-.08h3.26c-.66 1.28-1.24 2.1-2.18 3.08-1.08 1.14-2.04 1.9-3.44 2.7.42.6.78 1.32 1.02 2.08 1.02-.66 1.44-.98 2.22-1.7v5.02c0 .94-.02 1.48-.12 2.08h2.42c-.08-.6-.1-1.1-.1-2.04v-5.8zm8.48-2.96h2.12c.7 0 1.32.04 1.96.1V19.7c-.56.08-1.06.1-1.96.1h-2.12v-3.52c0-.86.02-1.28.14-2.08h-2.5c.1.78.14 1.26.14 2.08v3.52h-1.5c-.86 0-1.38-.02-1.96-.1v2.26c.64-.06 1.28-.1 1.96-.1h1.5v7.82h-2.18c-.96 0-1.66-.04-2.3-.12v2.42c.7-.1 1.46-.14 2.26-.14h6.84c.8 0 1.58.04 2.28.14v-2.42c-.62.08-1.28.12-2.28.12h-2.4v-7.82zm-63.28 26.74h5.86v-2.4h-5.86v-5.7h-2.42v5.7h-5.86v2.4h5.86v5.88h2.42V48.6zm-22.5 17.5v10.7h-5c-1.22 0-1.94-.04-2.76-.14v2.42c.84-.1 1.68-.14 2.72-.14h12.76c1.08 0 1.98.04 2.72.14v-2.42c-.8.1-1.56.14-2.72.14h-5.36V66.1h4.4c1.08 0 1.74.04 2.56.12v-2.36c-.76.08-1.4.12-2.58.12h-10.76c-1.22 0-1.9-.04-2.6-.12v2.36c.78-.08 1.48-.12 2.58-.12h4.04zm22.9 8.82c-.8 1.9-2.12 3.02-4.68 3.98.54.6.88 1.1 1.24 1.78 3.16-1.38 4.74-3.02 5.6-5.76h2.62c-.06 1-.12 1.6-.26 2.26-.22 1.02-.42 1.26-1.06 1.26-.6 0-1.38-.1-2.3-.28.3.84.4 1.28.46 2.08.92.1 1.56.14 2.12.14 1.56 0 2.08-.32 2.48-1.54.28-.82.54-2.64.7-5.02.02-.42.02-.42.08-.88-.36.06-.7.08-1.58.08h-2.84c.04-.36.08-.5.1-.78.02-.18.04-.22.04-.32.02-.14.04-.26.06-.36 0-.12 0-.12.02-.26l-2.04-.02c.86-.4 1.32-.64 1.86-1.02 1.16.76 2.32 1.24 4.5 1.86.3-.96.44-1.3.92-2.08-1.72-.3-2.66-.56-3.84-1.12.94-1 1.36-1.66 1.98-3.14.62 0 .98.02 1.44.08v-2.04c-.52.06-1.18.1-2.12.1h-4.14c.16-.34.24-.52.34-.78.12-.32.24-.6.3-.7l-2.08-.4c-.12.62-.22.9-.5 1.52-.68 1.52-1.48 2.56-2.98 3.86.62.42 1.06.8 1.52 1.36.78-.82 1.06-1.12 1.54-1.76.42.74.94 1.38 1.64 2.06-.98.54-2.02.94-3.28 1.24.1-.32.16-.46.24-.62l-.86-1.06c-.38.04-.76.06-1.46.06h-1.2l.44-.48c-.18-.22-.26-.28-.44-.48.78-.64 1.94-1.96 2.8-3.14.2-.28.36-.48.44-.58l-1.08-1.16c-.42.04-.68.06-1.7.06h-3.42c-.88 0-1.34-.02-1.88-.08v2.06c.52-.06 1.02-.08 1.72-.08h3.48c-.52.74-.96 1.24-1.62 1.76-.5-.44-.6-.5-1.72-1.34l-1.24 1.2c.92.66 1.7 1.32 2.66 2.26h-2c-.82 0-1.3-.02-1.8-.1v2.12c.46-.08.92-.1 1.68-.1h1.38c-.86 2.16-1.76 3.44-3.38 4.82.46.74.7 1.24 1 2.18 1.26-1.16 2.18-2.48 2.94-4.24l.02 4.78c.02.4-.1.48-.64.48-.38 0-.96-.06-1.78-.2.28.74.38 1.2.42 1.96.6.04 1.22.06 1.66.06.96 0 1.58-.14 1.86-.4.3-.3.42-.72.42-1.34l-.04-8.1h1.26c-.26.88-.64 1.72-1.14 2.54.66.36.9.54 1.46 1.1.26-.54.34-.68.54-1.18V75c.44-.06.8-.08 1.58-.08h1.54zm-1.42-1.9c-.9 0-1.28-.02-1.64-.06.28-.72.44-1.14.7-1.98.32.5.42.66.66 1.2 1.1-.36 1.52-.5 2.28-.82.02.06.02.08.02.16 0 .48-.04.94-.1 1.5h-1.92zm5.46-7.24c-.38.96-.7 1.42-1.42 2.16-.78-.7-1.34-1.38-1.72-2.16h3.14zm14.44 7.04h-2.56c-.84 0-1.28-.02-1.78-.08.06.52.08 1.02.08 1.76v3.64c0 1.1-.04 1.9-.12 2.46h2.26v-.84h7.4v.86h2.28c-.1-.64-.12-1.36-.12-2.6v-3.26c0-.86.02-1.38.08-2.02-.48.06-.92.08-1.76.08h-3.66v-2.1h4.28c.78 0 1.46.04 2.04.12v-2.2c-.46.08-1.1.12-2.12.12h-4.2v-.24c0-1.1.02-1.52.08-1.98h-2.28c.08.5.1.88.1 1.98v4.3zm-2.12 2h7.4v2.96h-7.4v-2.96zm1.36-10.78h-4.52c-.9 0-1.66-.04-2.36-.1.06.7.08 1.34.08 3.04 0 3.94-.12 6.08-.42 7.78-.32 1.74-.7 2.82-1.5 4.06.88.68 1.18.98 1.78 1.72 1.84-3 2.32-6.02 2.3-14.5h11.84c.98 0 1.88.04 2.48.1v-2.22c-.54.08-1.34.12-2.52.12h-4.96v-.72c0-.58.02-.92.1-1.24h-2.4c.06.36.1.68.1 1.22v.74z" fill="#333"/><path d="M183 94h184v411H183V94z" fill="#fff"/><path d="M224.18 132.36c.4-.08.42-.08 1.22-.14.76-.06.76-.06 2.24-.2v6.44c0 .84-.04 1.48-.12 2.06h1.46c-.08-.6-.12-1.18-.12-2.04v-6.58c.76-.08 1.22-.14 1.38-.16.1 0 .28-.02.5-.06.2.52.26.7.46 1.34l1.02-.46c-.54-1.48-1.08-2.66-1.76-3.8l-.92.36c.4.72.5.92.8 1.58-1.38.18-1.74.2-3.24.3 1.04-1.16 2.1-2.64 3.7-5.06.28-.4.4-.58.58-.82l-1.18-.7c-.26.72-.94 1.82-2.3 3.78-.42-.5-.74-.86-1.34-1.46.82-1.16 1.4-2.08 1.98-3.14.22-.4.32-.56.46-.76l-1.24-.56c-.2.78-.88 2.04-1.98 3.7-.32-.32-.42-.4-.86-.82l-.74.94c1.5 1.28 2.02 1.82 3.04 3.06-.58.78-.78 1.04-1.52 1.92-.32.02-.92.04-1.02.04-.28 0-.42-.02-.72-.06l.22 1.3zm15.98-5.48c-.04 4.3-.34 8.18-.86 10.46-.28 1.28-.5 1.52-1.44 1.52-.8 0-1.56-.08-2.66-.26.2.52.28.84.34 1.38.8.08 1.54.12 2.12.12 1.92 0 2.42-.42 2.88-2.34.46-1.98.84-5.92.86-9.06.04-2.5.04-2.5.1-3.08-.42.06-.82.08-1.62.08h-5c.26-.64.42-1.04.58-1.48.36-1 .36-1 .52-1.38l-1.36-.34c-.16.96-.46 1.86-1.12 3.3-.62 1.34-1.34 2.44-2.24 3.42.42.22.72.44 1.04.78.8-.96 1.44-1.92 2.04-3.12h5.82zm-14.84 6.44c-.24 2.42-.58 3.78-1.32 5.36l1.1.52c.74-1.8.96-2.72 1.32-5.66l-1.1-.22zm4.64.2c.48 1.54.76 2.84 1.02 4.82l1.16-.38c-.34-1.88-.6-2.96-1.18-4.76l-1 .32zm7.64.7c-.96-2.08-1.54-3.1-2.84-4.88l-1.04.6c1.3 1.78 1.82 2.72 2.74 4.96l1.14-.68zm8.62-9.06c.58-.08 1.1-.12 1.74-.12h1.08v11.58c0 .92-.04 1.56-.16 2.26h1.9c-.12-.74-.16-1.32-.16-2.26v-9.72c0-1.08.06-2.1.18-3.32-.66.08-.98.1-1.66.1h-1.26c-.76 0-1.14-.02-1.66-.1v1.58zm16.484 14.02c1.84 0 3.24-.7 4.24-2.1.88-1.22 1.4-3.36 1.4-5.78 0-1.66-.26-3.26-.76-4.64-.24-.66-.64-1.28-1.2-1.84-.9-.94-2.18-1.42-3.66-1.42-1.98 0-3.52.84-4.48 2.46-.7 1.16-1.16 3.32-1.16 5.44 0 1.64.26 3.22.76 4.62.24.68.66 1.3 1.2 1.84.94.94 2.18 1.42 3.66 1.42zm0-14.4c1.4 0 2.48.62 3.14 1.82.52.94.9 2.92.9 4.66 0 1.48-.2 2.8-.62 4.04-.18.58-.5 1.1-.94 1.56-.6.62-1.46.94-2.46.94-1.36 0-2.4-.58-3.1-1.74-.54-.94-.94-2.9-.94-4.76 0-1.46.2-2.82.62-4.04.16-.5.48-1 .9-1.46.64-.68 1.46-1.02 2.5-1.02zm13.145 14.4c1.84 0 3.24-.7 4.24-2.1.88-1.22 1.4-3.36 1.4-5.78 0-1.66-.26-3.26-.76-4.64-.24-.66-.64-1.28-1.2-1.84-.9-.94-2.18-1.42-3.66-1.42-1.98 0-3.52.84-4.48 2.46-.7 1.16-1.16 3.32-1.16 5.44 0 1.64.26 3.22.76 4.62.24.68.66 1.3 1.2 1.84.94.94 2.18 1.42 3.66 1.42zm0-14.4c1.4 0 2.48.62 3.14 1.82.52.94.9 2.92.9 4.66 0 1.48-.2 2.8-.62 4.04-.18.58-.5 1.1-.94 1.56-.6.62-1.46.94-2.46.94-1.36 0-2.4-.58-3.1-1.74-.54-.94-.94-2.9-.94-4.76 0-1.46.2-2.82.62-4.04.16-.5.48-1 .9-1.46.64-.68 1.46-1.02 2.5-1.02zm13.885.12c-.08 3.76-.46 6.18-1.32 8.32-1.04 2.64-2.38 4.26-5.02 6.14.44.3.72.56 1.08 1.06 1.8-1.42 2.78-2.42 3.7-3.8 1.28-1.96 2.04-3.98 2.5-6.62h7.08c-.08 2.76-.32 5.26-.7 7.1-.3 1.4-.56 1.64-1.72 1.64-.92 0-1.9-.12-3.5-.42.18.48.28.86.32 1.44 1.46.16 2.36.24 3.08.24 1.8 0 2.46-.38 2.9-1.66.48-1.38.8-4.14.96-8.08.04-.84.06-1.2.12-1.56-.5.08-1.12.1-2.32.1h-6.06c.16-1.26.16-1.26.28-3.9h8.1c.84 0 1.54.04 2.14.12v-1.46c-.66.08-1.28.12-2.14.12h-13.44c-.88 0-1.52-.04-2.14-.12v1.46c.64-.08 1.3-.12 2.14-.12h3.96zm16.2 7.16h13.04v6.22c0 .38-.18.46-1.06.46-.78 0-1.76-.08-3.16-.24.18.48.26.8.32 1.3.96.08 2.06.12 2.86.12 1.94 0 2.38-.28 2.38-1.48v-13.12c0-.84.02-1.28.08-1.84-.48.06-.98.08-1.84.08h-12.2c-.82 0-1.32-.02-1.84-.08.06.54.08 1.02.08 1.78v12.86c0 1.06-.04 1.64-.12 2.18h1.56c-.08-.46-.1-.86-.1-2.12v-6.12zm5.7-1.2h-5.7v-6.08h5.7v6.08zm1.3 0v-6.08h6.04v6.08h-6.04zm-88.492 83.5c.4-.08.42-.08 1.22-.14.76-.06.76-.06 2.24-.2v6.44c0 .84-.04 1.48-.12 2.06h1.46c-.08-.6-.12-1.18-.12-2.04v-6.58c.76-.08 1.22-.14 1.38-.16.1 0 .28-.02.5-.06.2.52.26.7.46 1.34l1.02-.46c-.54-1.48-1.08-2.66-1.76-3.8l-.92.36c.4.72.5.92.8 1.58-1.38.18-1.74.2-3.24.3 1.04-1.16 2.1-2.64 3.7-5.06.28-.4.4-.58.58-.82l-1.18-.7c-.26.72-.94 1.82-2.3 3.78-.42-.5-.74-.86-1.34-1.46.82-1.16 1.4-2.08 1.98-3.14.22-.4.32-.56.46-.76l-1.24-.56c-.2.78-.88 2.04-1.98 3.7-.32-.32-.42-.4-.86-.82l-.74.94c1.5 1.28 2.02 1.82 3.04 3.06-.58.78-.78 1.04-1.52 1.92-.32.02-.92.04-1.02.04-.28 0-.42-.02-.72-.06l.22 1.3zm15.98-5.48c-.04 4.3-.34 8.18-.86 10.46-.28 1.28-.5 1.52-1.44 1.52-.8 0-1.56-.08-2.66-.26.2.52.28.84.34 1.38.8.08 1.54.12 2.12.12 1.92 0 2.42-.42 2.88-2.34.46-1.98.84-5.92.86-9.06.04-2.5.04-2.5.1-3.08-.42.06-.82.08-1.62.08h-5c.26-.64.42-1.04.58-1.48.36-1 .36-1 .52-1.38l-1.36-.34c-.16.96-.46 1.86-1.12 3.3-.62 1.34-1.34 2.44-2.24 3.42.42.22.72.44 1.04.78.8-.96 1.44-1.92 2.04-3.12h5.82zm-14.84 6.44c-.24 2.42-.58 3.78-1.32 5.36l1.1.52c.74-1.8.96-2.72 1.32-5.66l-1.1-.22zm4.64.2c.48 1.54.76 2.84 1.02 4.82l1.16-.38c-.34-1.88-.6-2.96-1.18-4.76l-1 .32zm7.64.7c-.96-2.08-1.54-3.1-2.84-4.88l-1.04.6c1.3 1.78 1.82 2.72 2.74 4.96l1.14-.68zm17.04-7.74c-.58-1.2-.98-1.74-1.68-2.24-.76-.54-1.84-.84-3.04-.84-1.74 0-3.16.74-4.22 2.18-.96 1.3-1.52 3.54-1.52 6.04 0 2.84.72 5.08 2.02 6.28.86.8 2.2 1.26 3.62 1.26 3.16 0 5.24-2.04 5.24-5.14 0-3.08-1.92-5-5.02-5-1.38 0-2.44.38-3.38 1.22-.44.38-.64.66-1 1.28.14-2.18.32-3.1.84-4.3.72-1.64 1.9-2.48 3.46-2.48 1 0 1.78.34 2.38 1 .3.34.44.62.7 1.26l1.6-.52zm-1.16 7.58c0 .78-.2 1.6-.52 2.12-.62 1-1.82 1.62-3.12 1.62-2.16 0-3.78-1.6-3.78-3.76 0-1 .34-1.88 1-2.54.7-.7 1.76-1.14 2.76-1.14 2.34 0 3.66 1.34 3.66 3.7zm9.224 5.12c1.84 0 3.24-.7 4.24-2.1.88-1.22 1.4-3.36 1.4-5.78 0-1.66-.26-3.26-.76-4.64-.24-.66-.64-1.28-1.2-1.84-.9-.94-2.18-1.42-3.66-1.42-1.98 0-3.52.84-4.48 2.46-.7 1.16-1.16 3.32-1.16 5.44 0 1.64.26 3.22.76 4.62.24.68.66 1.3 1.2 1.84.94.94 2.18 1.42 3.66 1.42zm0-14.4c1.4 0 2.48.62 3.14 1.82.52.94.9 2.92.9 4.66 0 1.48-.2 2.8-.62 4.04-.18.58-.5 1.1-.94 1.56-.6.62-1.46.94-2.46.94-1.36 0-2.4-.58-3.1-1.74-.54-.94-.94-2.9-.94-4.76 0-1.46.2-2.82.62-4.04.16-.5.48-1 .9-1.46.64-.68 1.46-1.02 2.5-1.02zm13.145 14.4c1.84 0 3.24-.7 4.24-2.1.88-1.22 1.4-3.36 1.4-5.78 0-1.66-.26-3.26-.76-4.64-.24-.66-.64-1.28-1.2-1.84-.9-.94-2.18-1.42-3.66-1.42-1.98 0-3.52.84-4.48 2.46-.7 1.16-1.16 3.32-1.16 5.44 0 1.64.26 3.22.76 4.62.24.68.66 1.3 1.2 1.84.94.94 2.18 1.42 3.66 1.42zm0-14.4c1.4 0 2.48.62 3.14 1.82.52.94.9 2.92.9 4.66 0 1.48-.2 2.8-.62 4.04-.18.58-.5 1.1-.94 1.56-.6.62-1.46.94-2.46.94-1.36 0-2.4-.58-3.1-1.74-.54-.94-.94-2.9-.94-4.76 0-1.46.2-2.82.62-4.04.16-.5.48-1 .9-1.46.64-.68 1.46-1.02 2.5-1.02zm13.884.12c-.08 3.76-.46 6.18-1.32 8.32-1.04 2.64-2.38 4.26-5.02 6.14.44.3.72.56 1.08 1.06 1.8-1.42 2.78-2.42 3.7-3.8 1.28-1.96 2.04-3.98 2.5-6.62h7.08c-.08 2.76-.32 5.26-.7 7.1-.3 1.4-.56 1.64-1.72 1.64-.92 0-1.9-.12-3.5-.42.18.48.28.86.32 1.44 1.46.16 2.36.24 3.08.24 1.8 0 2.46-.38 2.9-1.66.48-1.38.8-4.14.96-8.08.04-.84.06-1.2.12-1.56-.5.08-1.12.1-2.32.1h-6.06c.16-1.26.16-1.26.28-3.9h8.1c.84 0 1.54.04 2.14.12v-1.46c-.66.08-1.28.12-2.14.12h-13.44c-.88 0-1.52-.04-2.14-.12v1.46c.64-.08 1.3-.12 2.14-.12h3.96zm16.2 7.16h13.04v6.22c0 .38-.18.46-1.06.46-.78 0-1.76-.08-3.16-.24.18.48.26.8.32 1.3.96.08 2.06.12 2.86.12 1.94 0 2.38-.28 2.38-1.48v-13.12c0-.84.02-1.28.08-1.84-.48.06-.98.08-1.84.08h-12.2c-.82 0-1.32-.02-1.84-.08.06.54.08 1.02.08 1.78v12.86c0 1.06-.04 1.64-.12 2.18h1.56c-.08-.46-.1-.86-.1-2.12v-6.12zm5.7-1.2h-5.7v-6.08h5.7v6.08zm1.3 0v-6.08h6.04v6.08h-6.04zm-88.753 87.5c.4-.08.42-.08 1.22-.14.76-.06.76-.06 2.24-.2v6.44c0 .84-.04 1.48-.12 2.06h1.46c-.08-.6-.12-1.18-.12-2.04v-6.58c.76-.08 1.22-.14 1.38-.16.1 0 .28-.02.5-.06.2.52.26.7.46 1.34l1.02-.46c-.54-1.48-1.08-2.66-1.76-3.8l-.92.36c.4.72.5.92.8 1.58-1.38.18-1.74.2-3.24.3 1.04-1.16 2.1-2.64 3.7-5.06.28-.4.4-.58.58-.82l-1.18-.7c-.26.72-.94 1.82-2.3 3.78-.42-.5-.74-.86-1.34-1.46.82-1.16 1.4-2.08 1.98-3.14.22-.4.32-.56.46-.76l-1.24-.56c-.2.78-.88 2.04-1.98 3.7-.32-.32-.42-.4-.86-.82l-.74.94c1.5 1.28 2.02 1.82 3.04 3.06-.58.78-.78 1.04-1.52 1.92-.32.02-.92.04-1.02.04-.28 0-.42-.02-.72-.06l.22 1.3zm15.98-5.48c-.04 4.3-.34 8.18-.86 10.46-.28 1.28-.5 1.52-1.44 1.52-.8 0-1.56-.08-2.66-.26.2.52.28.84.34 1.38.8.08 1.54.12 2.12.12 1.92 0 2.42-.42 2.88-2.34.46-1.98.84-5.92.86-9.06.04-2.5.04-2.5.1-3.08-.42.06-.82.08-1.62.08h-5c.26-.64.42-1.04.58-1.48.36-1 .36-1 .52-1.38l-1.36-.34c-.16.96-.46 1.86-1.12 3.3-.62 1.34-1.34 2.44-2.24 3.42.42.22.72.44 1.04.78.8-.96 1.44-1.92 2.04-3.12h5.82zm-14.84 6.44c-.24 2.42-.58 3.78-1.32 5.36l1.1.52c.74-1.8.96-2.72 1.32-5.66l-1.1-.22zm4.64.2c.48 1.54.76 2.84 1.02 4.82l1.16-.38c-.34-1.88-.6-2.96-1.18-4.76l-1 .32zm7.64.7c-.96-2.08-1.54-3.1-2.84-4.88l-1.04.6c1.3 1.78 1.82 2.72 2.74 4.96l1.14-.68zm14.86 4.66c1 0 1.66.04 2.46.12v-1.68c-.76.1-1.44.14-2.44.14h-6.38c.24-.96.52-1.5 1.14-2.32.66-.84 1.3-1.4 2.88-2.46 2.28-1.52 2.8-1.9 3.4-2.58.78-.86 1.18-1.82 1.18-2.84 0-2.36-1.94-3.88-4.96-3.88-1.76 0-3.12.52-4.02 1.54-.66.74-.96 1.44-1.26 2.88l1.68.28c.14-1 .32-1.48.7-2.02.6-.86 1.58-1.3 2.9-1.3 2.04 0 3.32.98 3.32 2.5 0 1.22-.66 2.1-2.64 3.44-2.32 1.58-2.36 1.6-3.06 2.2-1.26 1.08-2.1 2.18-2.6 3.44-.3.76-.36 1.06-.58 2.64.64-.08.94-.1 2.2-.1h6.08zm10.244.3c1.84 0 3.24-.7 4.24-2.1.88-1.22 1.4-3.36 1.4-5.78 0-1.66-.26-3.26-.76-4.64-.24-.66-.64-1.28-1.2-1.84-.9-.94-2.18-1.42-3.66-1.42-1.98 0-3.52.84-4.48 2.46-.7 1.16-1.16 3.32-1.16 5.44 0 1.64.26 3.22.76 4.62.24.68.66 1.3 1.2 1.84.94.94 2.18 1.42 3.66 1.42zm0-14.4c1.4 0 2.48.62 3.14 1.82.52.94.9 2.92.9 4.66 0 1.48-.2 2.8-.62 4.04-.18.58-.5 1.1-.94 1.56-.6.62-1.46.94-2.46.94-1.36 0-2.4-.58-3.1-1.74-.54-.94-.94-2.9-.94-4.76 0-1.46.2-2.82.62-4.04.16-.5.48-1 .9-1.46.64-.68 1.46-1.02 2.5-1.02zm13.145 14.4c1.84 0 3.24-.7 4.24-2.1.88-1.22 1.4-3.36 1.4-5.78 0-1.66-.26-3.26-.76-4.64-.24-.66-.64-1.28-1.2-1.84-.9-.94-2.18-1.42-3.66-1.42-1.98 0-3.52.84-4.48 2.46-.7 1.16-1.16 3.32-1.16 5.44 0 1.64.26 3.22.76 4.62.24.68.66 1.3 1.2 1.84.94.94 2.18 1.42 3.66 1.42zm0-14.4c1.4 0 2.48.62 3.14 1.82.52.94.9 2.92.9 4.66 0 1.48-.2 2.8-.62 4.04-.18.58-.5 1.1-.94 1.56-.6.62-1.46.94-2.46.94-1.36 0-2.4-.58-3.1-1.74-.54-.94-.94-2.9-.94-4.76 0-1.46.2-2.82.62-4.04.16-.5.48-1 .9-1.46.64-.68 1.46-1.02 2.5-1.02zm13.884.12c-.08 3.76-.46 6.18-1.32 8.32-1.04 2.64-2.38 4.26-5.02 6.14.44.3.72.56 1.08 1.06 1.8-1.42 2.78-2.42 3.7-3.8 1.28-1.96 2.04-3.98 2.5-6.62h7.08c-.08 2.76-.32 5.26-.7 7.1-.3 1.4-.56 1.64-1.72 1.64-.92 0-1.9-.12-3.5-.42.18.48.28.86.32 1.44 1.46.16 2.36.24 3.08.24 1.8 0 2.46-.38 2.9-1.66.48-1.38.8-4.14.96-8.08.04-.84.06-1.2.12-1.56-.5.08-1.12.1-2.32.1h-6.06c.16-1.26.16-1.26.28-3.9h8.1c.84 0 1.54.04 2.14.12v-1.46c-.66.08-1.28.12-2.14.12h-13.44c-.88 0-1.52-.04-2.14-.12v1.46c.64-.08 1.3-.12 2.14-.12h3.96zm16.2 7.16h13.04v6.22c0 .38-.18.46-1.06.46-.78 0-1.76-.08-3.16-.24.18.48.26.8.32 1.3.96.08 2.06.12 2.86.12 1.94 0 2.38-.28 2.38-1.48v-13.12c0-.84.02-1.28.08-1.84-.48.06-.98.08-1.84.08h-12.2c-.82 0-1.32-.02-1.84-.08.06.54.08 1.02.08 1.78v12.86c0 1.06-.04 1.64-.12 2.18h1.56c-.08-.46-.1-.86-.1-2.12v-6.12zm5.7-1.2h-5.7v-6.08h5.7v6.08zm1.3 0v-6.08h6.04v6.08h-6.04zm-82.51 84.5c.4-.08.42-.08 1.22-.14.76-.06.76-.06 2.24-.2v6.44c0 .84-.04 1.48-.12 2.06h1.46c-.08-.6-.12-1.18-.12-2.04v-6.58c.76-.08 1.22-.14 1.38-.16.1 0 .28-.02.5-.06.2.52.26.7.46 1.34l1.02-.46c-.54-1.48-1.08-2.66-1.76-3.8l-.92.36c.4.72.5.92.8 1.58-1.38.18-1.74.2-3.24.3 1.04-1.16 2.1-2.64 3.7-5.06.28-.4.4-.58.58-.82l-1.18-.7c-.26.72-.94 1.82-2.3 3.78-.42-.5-.74-.86-1.34-1.46.82-1.16 1.4-2.08 1.98-3.14.22-.4.32-.56.46-.76l-1.24-.56c-.2.78-.88 2.04-1.98 3.7-.32-.32-.42-.4-.86-.82l-.74.94c1.5 1.28 2.02 1.82 3.04 3.06-.58.78-.78 1.04-1.52 1.92-.32.02-.92.04-1.02.04-.28 0-.42-.02-.72-.06l.22 1.3zm15.98-5.48c-.04 4.3-.34 8.18-.86 10.46-.28 1.28-.5 1.52-1.44 1.52-.8 0-1.56-.08-2.66-.26.2.52.28.84.34 1.38.8.08 1.54.12 2.12.12 1.92 0 2.42-.42 2.88-2.34.46-1.98.84-5.92.86-9.06.04-2.5.04-2.5.1-3.08-.42.06-.82.08-1.62.08h-5c.26-.64.42-1.04.58-1.48.36-1 .36-1 .52-1.38l-1.36-.34c-.16.96-.46 1.86-1.12 3.3-.62 1.34-1.34 2.44-2.24 3.42.42.22.72.44 1.04.78.8-.96 1.44-1.92 2.04-3.12h5.82zm-14.84 6.44c-.24 2.42-.58 3.78-1.32 5.36l1.1.52c.74-1.8.96-2.72 1.32-5.66l-1.1-.22zm4.64.2c.48 1.54.76 2.84 1.02 4.82l1.16-.38c-.34-1.88-.6-2.96-1.18-4.76l-1 .32zm7.64.7c-.96-2.08-1.54-3.1-2.84-4.88l-1.04.6c1.3 1.78 1.82 2.72 2.74 4.96l1.14-.68zm9.34-9.16h4.7c.94 0 1.58.04 2.34.16v-1.7c-.8.12-1.26.16-2.34.16h-4.12c-1.18 0-1.5-.02-2.12-.1.04.5.04.58.04.86 0 .38-.02.62-.06 1.2l-.44 4.52c-.08.86-.14 1.28-.3 2.06l1.5.14c.22-.54.44-.82.92-1.2.72-.56 1.6-.84 2.62-.84 2.12 0 3.5 1.44 3.5 3.64 0 2.3-1.5 3.82-3.74 3.82-1.16 0-2.16-.42-2.84-1.18-.3-.34-.44-.6-.64-1.16l-1.64.48c.48.96.76 1.38 1.26 1.88.96.9 2.26 1.36 3.82 1.36 3.3 0 5.4-2.06 5.4-5.28 0-1.48-.44-2.66-1.34-3.52-.9-.88-2.14-1.36-3.6-1.36-1.38 0-2.54.46-3.5 1.38.12-.54.12-.54.16-.9l.42-4.42zm13.144 0h4.7c.94 0 1.58.04 2.34.16v-1.7c-.8.12-1.26.16-2.34.16h-4.12c-1.18 0-1.5-.02-2.12-.1.04.5.04.58.04.86 0 .38-.02.62-.06 1.2l-.44 4.52c-.08.86-.14 1.28-.3 2.06l1.5.14c.22-.54.44-.82.92-1.2.72-.56 1.6-.84 2.62-.84 2.12 0 3.5 1.44 3.5 3.64 0 2.3-1.5 3.82-3.74 3.82-1.16 0-2.16-.42-2.84-1.18-.3-.34-.44-.6-.64-1.16l-1.64.48c.48.96.76 1.38 1.26 1.88.96.9 2.26 1.36 3.82 1.36 3.3 0 5.4-2.06 5.4-5.28 0-1.48-.44-2.66-1.34-3.52-.9-.88-2.14-1.36-3.6-1.36-1.38 0-2.54.46-3.5 1.38.12-.54.12-.54.16-.9l.42-4.42zm16.505-.16c-.08 3.76-.46 6.18-1.32 8.32-1.04 2.64-2.38 4.26-5.02 6.14.44.3.72.56 1.08 1.06 1.8-1.42 2.78-2.42 3.7-3.8 1.28-1.96 2.04-3.98 2.5-6.62h7.08c-.08 2.76-.32 5.26-.7 7.1-.3 1.4-.56 1.64-1.72 1.64-.92 0-1.9-.12-3.5-.42.18.48.28.86.32 1.44 1.46.16 2.36.24 3.08.24 1.8 0 2.46-.38 2.9-1.66.48-1.38.8-4.14.96-8.08.04-.84.06-1.2.12-1.56-.5.08-1.12.1-2.32.1h-6.06c.16-1.26.16-1.26.28-3.9h8.1c.84 0 1.54.04 2.14.12v-1.46c-.66.08-1.28.12-2.14.12h-13.44c-.88 0-1.52-.04-2.14-.12v1.46c.64-.08 1.3-.12 2.14-.12h3.96zm16.2 7.16h13.04v6.22c0 .38-.18.46-1.06.46-.78 0-1.76-.08-3.16-.24.18.48.26.8.32 1.3.96.08 2.06.12 2.86.12 1.94 0 2.38-.28 2.38-1.48v-13.12c0-.84.02-1.28.08-1.84-.48.06-.98.08-1.84.08h-12.2c-.82 0-1.32-.02-1.84-.08.06.54.08 1.02.08 1.78v12.86c0 1.06-.04 1.64-.12 2.18h1.56c-.08-.46-.1-.86-.1-2.12v-6.12zm5.7-1.2h-5.7v-6.08h5.7v6.08zm1.3 0v-6.08h6.04v6.08h-6.04zm-81.852 86.86c.38-.06.44-.06 1.3-.12.4-.04 1.02-.08 1.88-.14v6.12c0 1-.04 1.54-.12 2.14h2.2c-.08-.6-.12-1.14-.12-2.14v-6.3c.36-.02.82-.08 1.42-.14.08.32.12.48.22.94l1.68-.7c-.52-1.54-1.06-2.88-1.58-3.9l-1.5.6c.32.66.4.86.58 1.36-1.02.12-1.1.12-2.28.18.86-.98 2.26-2.84 3.38-4.5.34-.5.46-.7.66-.92l-1.84-1.06c-.28.66-.86 1.62-2.16 3.5-.28-.36-.5-.6-.84-1 .5-.68 1.4-2.14 1.86-3.06.22-.4.3-.54.42-.72l-1.9-.78c-.2.72-.9 2.08-1.66 3.24-.2-.24-.32-.36-.6-.7l-1.14 1.66c1.46 1.36 1.66 1.58 2.74 2.96-.4.52-.48.62-1.16 1.46-.46.02-.66.02-.8.02-.4 0-.56-.02-.86-.06l.22 2.06zm15.48-5.52c0 4.16-.24 7.7-.64 9.64-.24 1.24-.46 1.48-1.36 1.48-.7 0-1.6-.08-2.62-.26.32.86.46 1.36.56 2.24.72.06 1.34.08 1.86.08 1.3 0 2.1-.16 2.56-.52.66-.52 1.02-1.62 1.34-3.92.22-1.64.44-5.12.46-7.4.02-2.84.02-2.84.1-3.48-.44.06-.8.08-1.64.08h-4.36c.24-.62.32-.86.58-1.68.16-.56.16-.56.26-.82l-2.24-.4c-.1.66-.34 1.52-.72 2.52-.52 1.42-1.36 2.84-2.36 3.98.74.54 1.2 1 1.6 1.62.94-1.16 1.28-1.72 2-3.16h4.62zm-14.86 6.2c-.12 2.28-.38 3.66-.94 5.38l1.78.82c.56-1.74.84-3.42.98-5.92l-1.82-.28zm5.28.28c.34 1.58.62 3.6.76 5.14l1.82-.44c-.22-1.68-.54-3.34-.96-5.1l-1.62.4zm7.8.86c-.76-2.06-1.28-3.14-2.46-5.02l-1.74.96c1.04 1.74 1.44 2.64 2.28 5.08l1.92-1.02zm6.34 1.56c.58 1.16.96 1.68 1.64 2.22 1 .8 2.18 1.16 3.86 1.16 1.9 0 3.2-.46 4.26-1.52 1.32-1.28 2.12-3.92 2.12-6.94 0-1.64-.2-3.06-.58-4.14-.84-2.44-2.94-3.94-5.5-3.94-1.38 0-2.58.3-3.5.88-1.64 1-2.54 2.66-2.54 4.7 0 3.22 2.12 5.26 5.44 5.26 1.32 0 2.34-.3 3.24-.92.46-.34.68-.58 1.06-1.14-.1 2.36-.56 3.8-1.56 4.76-.56.56-1.3.82-2.26.82-1.02 0-1.8-.28-2.3-.82-.24-.26-.38-.52-.62-1.1l-2.76.72zm5.6-4.48c-1.94 0-3.18-1.26-3.18-3.2 0-1.92 1.34-3.28 3.26-3.28 1.98 0 3.36 1.34 3.36 3.22 0 1.86-1.48 3.26-3.44 3.26zm8.598 4.06c.44 1.12.72 1.6 1.26 2.18 1.1 1.18 2.58 1.74 4.56 1.74 3.72 0 6.02-2.18 6.02-5.7 0-1.6-.44-2.8-1.42-3.76-.98-1.02-2.28-1.5-3.9-1.5-1.38 0-2.44.38-3.42 1.22.06-.4.1-.68.12-.84l.32-3.5h4.7c1.1 0 1.88.04 2.76.16v-2.52c-.9.14-1.4.16-2.78.16h-4.92c-1.06 0-1.52-.02-2.12-.06-.02 1-.06 1.68-.08 2.04l-.46 4.96c-.04.56-.06.66-.26 2.08l2.5.24c.18-.44.32-.62.6-.9.62-.6 1.5-.92 2.48-.92 1.9 0 3.14 1.26 3.14 3.22 0 1.98-1.3 3.3-3.28 3.3-1.06 0-1.9-.34-2.46-1.02-.28-.32-.42-.58-.6-1.16l-2.76.58zm14.239 0c.44 1.12.72 1.6 1.26 2.18 1.1 1.18 2.58 1.74 4.56 1.74 3.72 0 6.02-2.18 6.02-5.7 0-1.6-.44-2.8-1.42-3.76-.98-1.02-2.28-1.5-3.9-1.5-1.38 0-2.44.38-3.42 1.22.06-.4.1-.68.12-.84l.32-3.5h4.7c1.1 0 1.88.04 2.76.16v-2.52c-.9.14-1.4.16-2.78.16h-4.92c-1.06 0-1.52-.02-2.12-.06-.02 1-.06 1.68-.08 2.04l-.46 4.96c-.04.56-.06.66-.26 2.08l2.5.24c.18-.44.32-.62.6-.9.62-.6 1.5-.92 2.48-.92 1.9 0 3.14 1.26 3.14 3.22 0 1.98-1.3 3.3-3.28 3.3-1.06 0-1.9-.34-2.46-1.02-.28-.32-.42-.58-.6-1.16l-2.76.58zm19.778-10.3c-.06 2.46-.08 2.66-.28 3.98-.4 2.66-1.26 4.78-2.66 6.6-.88 1.14-1.62 1.8-3.08 2.74.72.58 1.22 1.16 1.68 1.92 1.8-1.28 2.86-2.38 3.92-4.06 1.14-1.84 1.8-3.6 2.22-5.98h6.22c-.14 3.48-.42 5.92-.82 6.9-.22.56-.58.72-1.56.72-.78 0-1.98-.16-3.14-.4.32.8.44 1.38.54 2.28 1.76.14 2.18.16 2.84.16 1.98 0 2.86-.44 3.36-1.68.5-1.22.9-4.4 1.04-7.92.06-1.78.06-1.8.12-2.26-.6.08-1.38.1-2.56.1h-5.74c.12-1.1.14-1.54.18-3.1h7.5c.9 0 1.76.04 2.54.12v-2.36c-.78.08-1.6.12-2.56.12h-12.86c-.98 0-1.82-.04-2.56-.12v2.36c.82-.08 1.66-.12 2.58-.12h3.08zm17.34 7.42h11.9v4.88c0 .48-.12.54-.9.54-.72 0-1.72-.08-3.04-.22.36.82.5 1.38.62 2.16.78.04 1.88.08 2.66.08 1.08 0 1.72-.08 2.1-.28.58-.3.82-.86.82-1.88v-12.82c0-1.08.02-1.6.08-2.18-.48.06-1.08.08-2.18.08h-12.16c-1.06 0-1.58-.02-2.22-.08.06.58.08 1.08.08 1.92v13.08c0 1.04-.04 1.76-.12 2.4h2.46c-.08-.46-.1-1.06-.1-2.32v-5.36zm4.74-2.1h-4.74v-5.42h4.74v5.42zm2.16 0v-5.42h5v5.42h-5z" fill="#333"/><path d="M389 0h192.712v94H389V0z" fill="#7EB1DD"/><g clip-path="url(#clip0)" fill="#1D1D1B"><path d="M428.255 76.014l-3.797-7.31h-1.263v7.31h-3.425V55.24h4.814c4.614 0 6.785 1.837 6.785 6.243v1.083c0 3.087-.995 4.748-3.302 5.557l4.183 7.891h-3.995zm-3.671-10.74c2.477 0 3.173-.926 3.173-2.912v-.7c0-1.967-.469-2.995-3.126-2.995h-1.464v6.607h1.417zm20.915-10.034h-10.993v3.239h10.993V55.24zm-7.568 17.404v-5.477h6.45V63.82h-9.875v12.217h11.339v-3.393h-7.914zm19.177-17.376v12.769l-5.233-12.769h-3.399v20.746h3.399V63.551l5.308 12.463h3.325V55.268h-3.4zM463.684 70v-8.79c0-4.403 1.763-6.209 6.374-6.209s6.529 1.806 6.529 6.209V70c0 4.291-1.985 6.208-6.529 6.208s-6.374-1.917-6.374-6.208zm9.477-.181v-8.425c0-1.89-.446-3.106-3.093-3.106-2.482 0-2.951 1.216-2.951 3.106v8.425c0 1.979.469 3.109 2.951 3.109s3.093-1.13 3.093-3.11zm19.059-14.551l-5.142 20.768h-3.573l-5.16-20.768h3.498l3.451 14.331 3.42-14.33h3.506zm12.953-.028h-10.996v3.239h10.996V55.24zM497.6 72.644v-5.477h6.449V63.82h-9.872v12.217h11.336v-3.393H497.6zm21.561-17.404H508.17v3.239h10.991V55.24zm-7.565 17.404v-5.477h6.449V63.82h-9.875v12.217h11.339v-3.393h-7.913zm19.177-17.376v12.769l-5.233-12.769h-3.399v20.746h3.399V63.551l5.305 12.463h3.325V55.268h-3.397zM537.349 70v-8.79c0-4.403 1.763-6.209 6.374-6.209s6.524 1.806 6.524 6.209V70c0 4.291-1.987 6.208-6.524 6.208s-6.374-1.917-6.374-6.208zm9.472-.181v-8.425c0-1.89-.443-3.106-3.093-3.106-2.485 0-2.951 1.216-2.951 3.106v8.425c0 1.979.466 3.109 2.951 3.109s3.093-1.13 3.093-3.11z"/></g><path d="M475.735 24.55h-5.324c-.99 0-1.562-.022-2.288-.132v2.508c.66-.066 1.298-.088 2.266-.088h12.694v2.112h-12.144c-1.056 0-1.628-.022-2.134-.088v2.464c.528-.066 1.144-.088 2.112-.088h12.166v2.354h-12.848c-1.078 0-1.672-.022-2.288-.11v2.508c.616-.11 1.364-.154 2.398-.132h12.694v1.078h2.552c-.088-.704-.132-1.43-.132-2.508v-8.14c0-.77.022-1.276.088-1.848-.594.088-1.012.11-1.76.11h-5.588v-5.896c0-.946.044-1.606.132-2.178h-2.728c.088.616.132 1.276.132 2.178v5.896zm-7.546-5.83c1.474 1.848 2.376 3.322 3.388 5.478l2.156-1.276c-.902-1.892-1.804-3.3-3.432-5.39l-2.112 1.188zm15.18-1.254c-.946 2.398-1.694 3.674-3.146 5.478l2.046 1.276c1.43-1.826 2.134-2.992 3.432-5.676l-2.332-1.078zm11.154 10.736c.946 1.1 1.694 1.738 2.838 2.486.352-.836.682-1.452 1.21-2.156-1.452-.836-2.464-1.628-3.498-2.794 1.056-1.452 1.474-2.178 2.2-3.762.154-.374.286-.594.484-.924l-1.056-1.144c-.286.044-.594.066-1.276.066h-.902V18.17c0-.726.044-1.21.132-1.716h-2.662c.088.506.132 1.1.132 1.672v1.848h-1.1c-.726 0-1.188-.022-1.738-.088v2.442a15.063 15.063 0 011.848-.088h3.586c-.726 1.408-1.364 2.31-2.398 3.388-1.188 1.254-2.244 2.09-3.784 2.97.462.66.858 1.452 1.122 2.288 1.122-.726 1.584-1.078 2.442-1.87v5.522c0 1.034-.022 1.628-.132 2.288h2.662c-.088-.66-.11-1.21-.11-2.244v-6.38zm9.328-3.256h2.332c.77 0 1.452.044 2.156.11V22.57c-.616.088-1.166.11-2.156.11h-2.332v-3.872c0-.946.022-1.408.154-2.288h-2.75c.11.858.154 1.386.154 2.288v3.872h-1.65c-.946 0-1.518-.022-2.156-.11v2.486c.704-.066 1.408-.11 2.156-.11h1.65v8.602h-2.398c-1.056 0-1.826-.044-2.53-.132v2.662c.77-.11 1.606-.154 2.486-.154h7.524c.88 0 1.738.044 2.508.154v-2.662c-.682.088-1.408.132-2.508.132h-2.64v-8.602zM389 94h192.712v411H389V94z" fill="#fff"/><path d="M475.23 142.728c2.704 0 4.862-1.04 6.318-3.068 1.222-1.69 1.924-4.498 1.924-7.696 0-2.132-.338-4.212-1.014-6.032-.338-.936-.936-1.846-1.716-2.626-1.378-1.378-3.276-2.106-5.486-2.106-2.886 0-5.226 1.274-6.63 3.614-.962 1.586-1.586 4.446-1.586 7.202 0 2.106.338 4.134 1.014 5.98.338.936.936 1.846 1.716 2.626 1.378 1.378 3.25 2.106 5.46 2.106zm.026-3.016c-1.43 0-2.522-.546-3.328-1.69-.832-1.196-1.326-3.458-1.326-6.188 0-2.834.572-4.966 1.716-6.318.754-.91 1.664-1.326 2.912-1.326 1.17 0 2.21.39 2.834 1.092 1.17 1.274 1.82 3.64 1.82 6.656 0 3.042-.65 5.46-1.82 6.682-.65.702-1.664 1.092-2.808 1.092zm14.532-5.772h15.47v6.344c0 .624-.156.702-1.17.702-.936 0-2.236-.104-3.952-.286.468 1.066.65 1.794.806 2.808 1.014.052 2.444.104 3.458.104 1.404 0 2.236-.104 2.73-.364.754-.39 1.066-1.118 1.066-2.444v-16.666c0-1.404.026-2.08.104-2.834-.624.078-1.404.104-2.834.104h-15.808c-1.378 0-2.054-.026-2.886-.104.078.754.104 1.404.104 2.496v17.004c0 1.352-.052 2.288-.156 3.12h3.198c-.104-.598-.13-1.378-.13-3.016v-6.968zm6.162-2.73h-6.162v-7.046h6.162v7.046zm2.808 0v-7.046h6.5v7.046h-6.5z" fill="#639CD1"/><path d="M434.299 214.696c.44-.088.462-.088 1.342-.154.836-.066.836-.066 2.464-.22v7.084c0 .924-.044 1.628-.132 2.266h1.606a15.975 15.975 0 01-.132-2.244v-7.238c.836-.088 1.342-.154 1.518-.176.11 0 .308-.022.55-.066.22.572.286.77.506 1.474l1.122-.506c-.594-1.628-1.188-2.926-1.936-4.18l-1.012.396c.44.792.55 1.012.88 1.738-1.518.198-1.914.22-3.564.33 1.144-1.276 2.31-2.904 4.07-5.566.308-.44.44-.638.638-.902l-1.298-.77c-.286.792-1.034 2.002-2.53 4.158-.462-.55-.814-.946-1.474-1.606.902-1.276 1.54-2.288 2.178-3.454.242-.44.352-.616.506-.836l-1.364-.616c-.22.858-.968 2.244-2.178 4.07-.352-.352-.462-.44-.946-.902l-.814 1.034c1.65 1.408 2.222 2.002 3.344 3.366a34.605 34.605 0 01-1.672 2.112 32.74 32.74 0 01-1.122.044c-.308 0-.462-.022-.792-.066l.242 1.43zm17.578-6.028c-.044 4.73-.374 8.998-.946 11.506-.308 1.408-.55 1.672-1.584 1.672-.88 0-1.716-.088-2.926-.286.22.572.308.924.374 1.518.88.088 1.694.132 2.332.132 2.112 0 2.662-.462 3.168-2.574.506-2.178.924-6.512.946-9.966.044-2.75.044-2.75.11-3.388-.462.066-.902.088-1.782.088h-5.5a45.52 45.52 0 00.638-1.628c.396-1.1.396-1.1.572-1.518l-1.496-.374c-.176 1.056-.506 2.046-1.232 3.63-.682 1.474-1.474 2.684-2.464 3.762.462.242.792.484 1.144.858a17.112 17.112 0 002.244-3.432h6.402zm-16.324 7.084c-.264 2.662-.638 4.158-1.452 5.896l1.21.572c.814-1.98 1.056-2.992 1.452-6.226l-1.21-.242zm5.104.22c.528 1.694.836 3.124 1.122 5.302l1.276-.418c-.374-2.068-.66-3.256-1.298-5.236l-1.1.352zm8.404.77c-1.056-2.288-1.694-3.41-3.124-5.368l-1.144.66c1.43 1.958 2.002 2.992 3.014 5.456l1.254-.748zm18.744-8.514c-.638-1.32-1.078-1.914-1.848-2.464-.836-.594-2.024-.924-3.344-.924-1.914 0-3.476.814-4.642 2.398-1.056 1.43-1.672 3.894-1.672 6.644 0 3.124.792 5.588 2.222 6.908.946.88 2.42 1.386 3.982 1.386 3.476 0 5.764-2.244 5.764-5.654 0-3.388-2.112-5.5-5.522-5.5-1.518 0-2.684.418-3.718 1.342-.484.418-.704.726-1.1 1.408.154-2.398.352-3.41.924-4.73.792-1.804 2.09-2.728 3.806-2.728 1.1 0 1.958.374 2.618 1.1.33.374.484.682.77 1.386l1.76-.572zm-1.276 8.338c0 .858-.22 1.76-.572 2.332-.682 1.1-2.002 1.782-3.432 1.782-2.376 0-4.158-1.76-4.158-4.136 0-1.1.374-2.068 1.1-2.794.77-.77 1.936-1.254 3.036-1.254 2.574 0 4.026 1.474 4.026 4.07zm10.147 5.632c2.024 0 3.564-.77 4.664-2.31.968-1.342 1.54-3.696 1.54-6.358 0-1.826-.286-3.586-.836-5.104-.264-.726-.704-1.408-1.32-2.024-.99-1.034-2.398-1.562-4.026-1.562-2.178 0-3.872.924-4.928 2.706-.77 1.276-1.276 3.652-1.276 5.984 0 1.804.286 3.542.836 5.082.264.748.726 1.43 1.32 2.024 1.034 1.034 2.398 1.562 4.026 1.562zm0-15.84c1.54 0 2.728.682 3.454 2.002.572 1.034.99 3.212.99 5.126 0 1.628-.22 3.08-.682 4.444a4.331 4.331 0 01-1.034 1.716c-.66.682-1.606 1.034-2.706 1.034-1.496 0-2.64-.638-3.41-1.914-.594-1.034-1.034-3.19-1.034-5.236 0-1.606.22-3.102.682-4.444.176-.55.528-1.1.99-1.606.704-.748 1.606-1.122 2.75-1.122zm14.459 15.84c2.024 0 3.564-.77 4.664-2.31.968-1.342 1.54-3.696 1.54-6.358 0-1.826-.286-3.586-.836-5.104-.264-.726-.704-1.408-1.32-2.024-.99-1.034-2.398-1.562-4.026-1.562-2.178 0-3.872.924-4.928 2.706-.77 1.276-1.276 3.652-1.276 5.984 0 1.804.286 3.542.836 5.082.264.748.726 1.43 1.32 2.024 1.034 1.034 2.398 1.562 4.026 1.562zm0-15.84c1.54 0 2.728.682 3.454 2.002.572 1.034.99 3.212.99 5.126 0 1.628-.22 3.08-.682 4.444a4.331 4.331 0 01-1.034 1.716c-.66.682-1.606 1.034-2.706 1.034-1.496 0-2.64-.638-3.41-1.914-.594-1.034-1.034-3.19-1.034-5.236 0-1.606.22-3.102.682-4.444.176-.55.528-1.1.99-1.606.704-.748 1.606-1.122 2.75-1.122zm15.273.132c-.088 4.136-.506 6.798-1.452 9.152-1.144 2.904-2.618 4.686-5.522 6.754.484.33.792.616 1.188 1.166 1.98-1.562 3.058-2.662 4.07-4.18 1.408-2.156 2.244-4.378 2.75-7.282h7.788c-.088 3.036-.352 5.786-.77 7.81-.33 1.54-.616 1.804-1.892 1.804-1.012 0-2.09-.132-3.85-.462.198.528.308.946.352 1.584 1.606.176 2.596.264 3.388.264 1.98 0 2.706-.418 3.19-1.826.528-1.518.88-4.554 1.056-8.888.044-.924.066-1.32.132-1.716-.55.088-1.232.11-2.552.11h-6.666c.176-1.386.176-1.386.308-4.29h8.91c.924 0 1.694.044 2.354.132v-1.606c-.726.088-1.408.132-2.354.132h-14.784c-.968 0-1.672-.044-2.354-.132v1.606c.704-.088 1.43-.132 2.354-.132h4.356zm17.82 7.876h14.344v6.842c0 .418-.198.506-1.166.506-.858 0-1.936-.088-3.476-.264.198.528.286.88.352 1.43 1.056.088 2.266.132 3.146.132 2.134 0 2.618-.308 2.618-1.628v-14.432c0-.924.022-1.408.088-2.024-.528.066-1.078.088-2.024.088h-13.42c-.902 0-1.452-.022-2.024-.088.066.594.088 1.122.088 1.958v14.146c0 1.166-.044 1.804-.132 2.398h1.716c-.088-.506-.11-.946-.11-2.332v-6.732zm6.27-1.32h-6.27v-6.688h6.27v6.688zm1.43 0v-6.688h6.644v6.688h-6.644z" fill="#333"/><path d="M475.23 310.728c2.704 0 4.862-1.04 6.318-3.068 1.222-1.69 1.924-4.498 1.924-7.696 0-2.132-.338-4.212-1.014-6.032-.338-.936-.936-1.846-1.716-2.626-1.378-1.378-3.276-2.106-5.486-2.106-2.886 0-5.226 1.274-6.63 3.614-.962 1.586-1.586 4.446-1.586 7.202 0 2.106.338 4.134 1.014 5.98.338.936.936 1.846 1.716 2.626 1.378 1.378 3.25 2.106 5.46 2.106zm.026-3.016c-1.43 0-2.522-.546-3.328-1.69-.832-1.196-1.326-3.458-1.326-6.188 0-2.834.572-4.966 1.716-6.318.754-.91 1.664-1.326 2.912-1.326 1.17 0 2.21.39 2.834 1.092 1.17 1.274 1.82 3.64 1.82 6.656 0 3.042-.65 5.46-1.82 6.682-.65.702-1.664 1.092-2.808 1.092zm14.532-5.772h15.47v6.344c0 .624-.156.702-1.17.702-.936 0-2.236-.104-3.952-.286.468 1.066.65 1.794.806 2.808 1.014.052 2.444.104 3.458.104 1.404 0 2.236-.104 2.73-.364.754-.39 1.066-1.118 1.066-2.444v-16.666c0-1.404.026-2.08.104-2.834-.624.078-1.404.104-2.834.104h-15.808c-1.378 0-2.054-.026-2.886-.104.078.754.104 1.404.104 2.496v17.004c0 1.352-.052 2.288-.156 3.12h3.198c-.104-.598-.13-1.378-.13-3.016v-6.968zm6.162-2.73h-6.162v-7.046h6.162v7.046zm2.808 0v-7.046h6.5v7.046h-6.5z" fill="#639CD1"/><path d="M442.299 382.696c.44-.088.462-.088 1.342-.154.836-.066.836-.066 2.464-.22v7.084c0 .924-.044 1.628-.132 2.266h1.606a15.975 15.975 0 01-.132-2.244v-7.238c.836-.088 1.342-.154 1.518-.176.11 0 .308-.022.55-.066.22.572.286.77.506 1.474l1.122-.506c-.594-1.628-1.188-2.926-1.936-4.18l-1.012.396c.44.792.55 1.012.88 1.738-1.518.198-1.914.22-3.564.33 1.144-1.276 2.31-2.904 4.07-5.566.308-.44.44-.638.638-.902l-1.298-.77c-.286.792-1.034 2.002-2.53 4.158-.462-.55-.814-.946-1.474-1.606.902-1.276 1.54-2.288 2.178-3.454.242-.44.352-.616.506-.836l-1.364-.616c-.22.858-.968 2.244-2.178 4.07-.352-.352-.462-.44-.946-.902l-.814 1.034c1.65 1.408 2.222 2.002 3.344 3.366a34.605 34.605 0 01-1.672 2.112 32.74 32.74 0 01-1.122.044c-.308 0-.462-.022-.792-.066l.242 1.43zm17.578-6.028c-.044 4.73-.374 8.998-.946 11.506-.308 1.408-.55 1.672-1.584 1.672-.88 0-1.716-.088-2.926-.286.22.572.308.924.374 1.518.88.088 1.694.132 2.332.132 2.112 0 2.662-.462 3.168-2.574.506-2.178.924-6.512.946-9.966.044-2.75.044-2.75.11-3.388-.462.066-.902.088-1.782.088h-5.5a45.52 45.52 0 00.638-1.628c.396-1.1.396-1.1.572-1.518l-1.496-.374c-.176 1.056-.506 2.046-1.232 3.63-.682 1.474-1.474 2.684-2.464 3.762.462.242.792.484 1.144.858a17.112 17.112 0 002.244-3.432h6.402zm-16.324 7.084c-.264 2.662-.638 4.158-1.452 5.896l1.21.572c.814-1.98 1.056-2.992 1.452-6.226l-1.21-.242zm5.104.22c.528 1.694.836 3.124 1.122 5.302l1.276-.418c-.374-2.068-.66-3.256-1.298-5.236l-1.1.352zm8.404.77c-1.056-2.288-1.694-3.41-3.124-5.368l-1.144.66c1.43 1.958 2.002 2.992 3.014 5.456l1.254-.748zm10.274-10.076h5.17c1.034 0 1.738.044 2.574.176v-1.87c-.88.132-1.386.176-2.574.176h-4.532c-1.298 0-1.65-.022-2.332-.11.044.55.044.638.044.946 0 .418-.022.682-.066 1.32l-.484 4.972a17.529 17.529 0 01-.33 2.266l1.65.154c.242-.594.484-.902 1.012-1.32.792-.616 1.76-.924 2.882-.924 2.332 0 3.85 1.584 3.85 4.004 0 2.53-1.65 4.202-4.114 4.202-1.276 0-2.376-.462-3.124-1.298-.33-.374-.484-.66-.704-1.276l-1.804.528c.528 1.056.836 1.518 1.386 2.068 1.056.99 2.486 1.496 4.202 1.496 3.63 0 5.94-2.266 5.94-5.808 0-1.628-.484-2.926-1.474-3.872-.99-.968-2.354-1.496-3.96-1.496-1.518 0-2.794.506-3.85 1.518.132-.594.132-.594.176-.99l.462-4.862zm14.459 0h5.17c1.034 0 1.738.044 2.574.176v-1.87c-.88.132-1.386.176-2.574.176h-4.532c-1.298 0-1.65-.022-2.332-.11.044.55.044.638.044.946 0 .418-.022.682-.066 1.32l-.484 4.972a17.529 17.529 0 01-.33 2.266l1.65.154c.242-.594.484-.902 1.012-1.32.792-.616 1.76-.924 2.882-.924 2.332 0 3.85 1.584 3.85 4.004 0 2.53-1.65 4.202-4.114 4.202-1.276 0-2.376-.462-3.124-1.298-.33-.374-.484-.66-.704-1.276l-1.804.528c.528 1.056.836 1.518 1.386 2.068 1.056.99 2.486 1.496 4.202 1.496 3.63 0 5.94-2.266 5.94-5.808 0-1.628-.484-2.926-1.474-3.872-.99-.968-2.354-1.496-3.96-1.496-1.518 0-2.794.506-3.85 1.518.132-.594.132-.594.176-.99l.462-4.862zm18.155-.176c-.088 4.136-.506 6.798-1.452 9.152-1.144 2.904-2.618 4.686-5.522 6.754.484.33.792.616 1.188 1.166 1.98-1.562 3.058-2.662 4.07-4.18 1.408-2.156 2.244-4.378 2.75-7.282h7.788c-.088 3.036-.352 5.786-.77 7.81-.33 1.54-.616 1.804-1.892 1.804-1.012 0-2.09-.132-3.85-.462.198.528.308.946.352 1.584 1.606.176 2.596.264 3.388.264 1.98 0 2.706-.418 3.19-1.826.528-1.518.88-4.554 1.056-8.888.044-.924.066-1.32.132-1.716-.55.088-1.232.11-2.552.11h-6.666c.176-1.386.176-1.386.308-4.29h8.91c.924 0 1.694.044 2.354.132v-1.606c-.726.088-1.408.132-2.354.132h-14.784c-.968 0-1.672-.044-2.354-.132v1.606c.704-.088 1.43-.132 2.354-.132h4.356zm17.82 7.876h14.344v6.842c0 .418-.198.506-1.166.506-.858 0-1.936-.088-3.476-.264.198.528.286.88.352 1.43 1.056.088 2.266.132 3.146.132 2.134 0 2.618-.308 2.618-1.628v-14.432c0-.924.022-1.408.088-2.024-.528.066-1.078.088-2.024.088h-13.42c-.902 0-1.452-.022-2.024-.088.066.594.088 1.122.088 1.958v14.146c0 1.166-.044 1.804-.132 2.398h1.716c-.088-.506-.11-.946-.11-2.332v-6.732zm6.27-1.32h-6.27v-6.688h6.27v6.688zm1.43 0v-6.688h6.644v6.688h-6.644z" fill="#333"/><path d="M427.416 465.464c.456-.072.528-.072 1.56-.144.48-.048 1.224-.096 2.256-.168v7.344c0 1.2-.048 1.848-.144 2.568h2.64c-.096-.72-.144-1.368-.144-2.568v-7.56c.432-.024.984-.096 1.704-.168.096.384.144.576.264 1.128l2.016-.84c-.624-1.848-1.272-3.456-1.896-4.68l-1.8.72c.384.792.48 1.032.696 1.632-1.224.144-1.32.144-2.736.216 1.032-1.176 2.712-3.408 4.056-5.4.408-.6.552-.84.792-1.104l-2.208-1.272c-.336.792-1.032 1.944-2.592 4.2-.336-.432-.6-.72-1.008-1.2.6-.816 1.68-2.568 2.232-3.672.264-.48.36-.648.504-.864l-2.28-.936c-.24.864-1.08 2.496-1.992 3.888-.24-.288-.384-.432-.72-.84l-1.368 1.992c1.752 1.632 1.992 1.896 3.288 3.552-.48.624-.576.744-1.392 1.752-.552.024-.792.024-.96.024a6.31 6.31 0 01-1.032-.072l.264 2.472zm18.576-6.624c0 4.992-.288 9.24-.768 11.568-.288 1.488-.552 1.776-1.632 1.776-.84 0-1.92-.096-3.144-.312.384 1.032.552 1.632.672 2.688.864.072 1.608.096 2.232.096 1.56 0 2.52-.192 3.072-.624.792-.624 1.224-1.944 1.608-4.704.264-1.968.528-6.144.552-8.88.024-3.408.024-3.408.12-4.176-.528.072-.96.096-1.968.096h-5.232c.288-.744.384-1.032.696-2.016.192-.672.192-.672.312-.984l-2.688-.48c-.12.792-.408 1.824-.864 3.024a15.537 15.537 0 01-2.832 4.776c.888.648 1.44 1.2 1.92 1.944 1.128-1.392 1.536-2.064 2.4-3.792h5.544zm-17.832 7.44c-.144 2.736-.456 4.392-1.128 6.456l2.136.984c.672-2.088 1.008-4.104 1.176-7.104l-2.184-.336zm6.336.336c.408 1.896.744 4.32.912 6.168l2.184-.528a59.296 59.296 0 00-1.152-6.12l-1.944.48zm9.36 1.032c-.912-2.472-1.536-3.768-2.952-6.024l-2.088 1.152c1.248 2.088 1.728 3.168 2.736 6.096l2.304-1.224zm21.696-9.552c-.528-1.248-.888-1.8-1.512-2.448-1.152-1.2-2.856-1.824-4.92-1.824-2.52 0-4.44.936-5.856 2.856-1.224 1.632-1.968 4.464-1.968 7.416 0 3.624 1.008 6.504 2.784 8.04 1.176 1.008 2.952 1.584 4.872 1.584 4.08 0 6.96-2.688 6.96-6.48 0-1.416-.288-2.664-.864-3.6-1.056-1.8-3.12-2.856-5.568-2.856-2.424 0-3.84.648-5.136 2.4.12-1.848.384-3 .984-4.248.816-1.656 2.064-2.496 3.768-2.496 1.704 0 2.592.672 3.216 2.424l3.24-.768zm-6.624 5.304c2.376 0 3.792 1.392 3.792 3.768 0 .84-.192 1.632-.552 2.184-.672 1.056-1.896 1.68-3.288 1.68-2.352 0-4.056-1.608-4.056-3.792 0-2.208 1.752-3.84 4.104-3.84zm9.574 5.616c.528 1.344.864 1.92 1.512 2.616 1.32 1.416 3.096 2.088 5.472 2.088 4.464 0 7.224-2.616 7.224-6.84 0-1.92-.528-3.36-1.704-4.512-1.176-1.224-2.736-1.8-4.68-1.8-1.656 0-2.928.456-4.104 1.464.072-.48.12-.816.144-1.008l.384-4.2h5.64c1.32 0 2.256.048 3.312.192v-3.024c-1.08.168-1.68.192-3.336.192h-5.904c-1.272 0-1.824-.024-2.544-.072-.024 1.2-.072 2.016-.096 2.448l-.552 5.952c-.048.672-.072.792-.312 2.496l3 .288c.216-.528.384-.744.72-1.08.744-.72 1.8-1.104 2.976-1.104 2.28 0 3.768 1.512 3.768 3.864 0 2.376-1.56 3.96-3.936 3.96-1.272 0-2.28-.408-2.952-1.224-.336-.384-.504-.696-.72-1.392l-3.312.696zm17.086 0c.528 1.344.864 1.92 1.512 2.616 1.32 1.416 3.096 2.088 5.472 2.088 4.464 0 7.224-2.616 7.224-6.84 0-1.92-.528-3.36-1.704-4.512-1.176-1.224-2.736-1.8-4.68-1.8-1.656 0-2.928.456-4.104 1.464.072-.48.12-.816.144-1.008l.384-4.2h5.64c1.32 0 2.256.048 3.312.192v-3.024c-1.08.168-1.68.192-3.336.192h-5.904c-1.272 0-1.824-.024-2.544-.072-.024 1.2-.072 2.016-.096 2.448l-.552 5.952c-.048.672-.072.792-.312 2.496l3 .288c.216-.528.384-.744.72-1.08.744-.72 1.8-1.104 2.976-1.104 2.28 0 3.768 1.512 3.768 3.864 0 2.376-1.56 3.96-3.936 3.96-1.272 0-2.28-.408-2.952-1.224-.336-.384-.504-.696-.72-1.392l-3.312.696zm23.734-12.36c-.072 2.952-.096 3.192-.336 4.776-.48 3.192-1.512 5.736-3.192 7.92-1.056 1.368-1.944 2.16-3.696 3.288a8.356 8.356 0 012.016 2.304c2.16-1.536 3.432-2.856 4.704-4.872 1.368-2.208 2.16-4.32 2.664-7.176h7.464c-.168 4.176-.504 7.104-.984 8.28-.264.672-.696.864-1.872.864-.936 0-2.376-.192-3.768-.48.384.96.528 1.656.648 2.736 2.112.168 2.616.192 3.408.192 2.376 0 3.432-.528 4.032-2.016.6-1.464 1.08-5.28 1.248-9.504.072-2.136.072-2.16.144-2.712-.72.096-1.656.12-3.072.12h-6.888c.144-1.32.168-1.848.216-3.72h9c1.08 0 2.112.048 3.048.144v-2.832a29.68 29.68 0 01-3.072.144h-15.432c-1.176 0-2.184-.048-3.072-.144v2.832a31.55 31.55 0 013.096-.144h3.696zm20.808 8.904h14.28v5.856c0 .576-.144.648-1.08.648-.864 0-2.064-.096-3.648-.264.432.984.6 1.656.744 2.592.936.048 2.256.096 3.192.096 1.296 0 2.064-.096 2.52-.336.696-.36.984-1.032.984-2.256v-15.384c0-1.296.024-1.92.096-2.616-.576.072-1.296.096-2.616.096H530.01c-1.272 0-1.896-.024-2.664-.096.072.696.096 1.296.096 2.304v15.696c0 1.248-.048 2.112-.144 2.88h2.952c-.096-.552-.12-1.272-.12-2.784v-6.432zm5.688-2.52h-5.688v-6.504h5.688v6.504zm2.592 0v-6.504h6v6.504h-6z" fill="#639CD1"/><path fill-rule="evenodd" clip-rule="evenodd" d="M11.303 423.002H10.1v1h1.203v-1zm4.806 1v-1h-2.404v1h2.404zm2.402-1v1h2.404v-1h-2.404zm4.806 0v1h2.405v-1h-2.405zm4.806 0v1h2.405v-1h-2.405zm4.807 0v1h2.404v-1H32.93zm4.806 0v1h2.404v-1h-2.404zm4.806 0v1h2.404v-1h-2.404zm4.806 0v1h2.404v-1h-2.404zm4.806 0v1h2.403l.002-1h-2.405zm4.807 0v1h2.403v-1h-2.403zm4.806 0v1h2.403v-1h-2.403zm4.806 0v1h2.403v-1h-2.403zm4.806 0v1h2.403l.001-1H71.38zm4.806 0v1h2.403l.001-1h-2.404zm4.807 0v1h2.403v-1h-2.403zm4.806 0v1H88.2v-1h-2.403zm4.806 0v1h2.403v-1h-2.403zm4.806 0v1h2.403v-1H95.41zm4.806 0v1h2.404v-1h-2.404zm4.807 0v1h2.403v-1h-2.403zm4.806 0v1h2.403v-1h-2.403zm4.806 0v1h2.403v-1h-2.403zm4.806 0v1h2.403l.001-1h-2.404zm4.807 0v1h2.403v-1h-2.403zm4.806 0v1h2.403v-1h-2.403zm4.806 0v1h2.403v-1h-2.403zm7.209 0h-2.403v1h2.403v-1zm2.403 1h2.403l.001-1h-2.404v1zm4.807-1l-.001 1h2.404v-1h-2.403zm4.806 0v1h2.403v-1h-2.403zm4.806 0v1h2.403v-1h-2.403zm4.806 0v1h2.403v-1h-2.403zm4.806 0v1h2.403v-1h-2.403zm4.807 0l-.001 1h2.403v-1h-2.402zm4.806 0l-.001 1h2.403v-1h-2.402zm4.806 0v1h2.403v-1h-2.403zm4.806 0v1h2.403v-1h-2.403zm4.807 0l-.001 1h2.403v-1h-2.402zm4.806 0l-.001 1h2.403v-1h-2.402zm4.806 0l-.001 1h2.403v-1h-2.402zm4.806 0l-.001 1h2.404v-1h-2.403zm4.806 0v1h2.403v-1h-2.403zm4.807 0l-.001 1h2.403v-1h-2.402zm4.806 0l-.001 1h2.403v-1h-2.402zm4.806 0l-.001 1h2.403v-1h-2.402zm4.806 0l-.001 1h2.404v-1h-2.403zm4.806 0v1h2.403v-1h-2.403zm4.807 0l-.001 1h2.403v-1h-2.402zm4.806 0l-.001 1h2.403v-1h-2.402zm4.806 0l-.001 1h2.403v-1h-2.402zm4.806 0v1h2.403v-1h-2.403zm4.807 0l-.001 1h2.403v-1h-2.402zm4.806 0l-.001 1h2.403v-1h-2.402zm4.806 0l-.001 1h2.403v-1h-2.402zm4.806 0l-.001 1h2.404v-1h-2.403zm4.806 0v1h2.403v-1h-2.403zm4.807 0l-.001 1h2.403v-1h-2.402zm4.806 0l-.001 1h2.403v-1h-2.402zm4.806 0l-.001 1h2.403v-1h-2.402zm4.806 0l-.001 1h2.404v-1h-2.403zm4.806 0v1h2.403v-1h-2.403zm4.807 0l-.001 1h2.403v-1h-2.402zm4.806 0l-.001 1h2.403v-1h-2.402zm4.806 0l-.001 1h2.403v-1h-2.402zm4.806 0v1h2.403v-1h-2.403zm4.807 0l-.001 1h2.403v-1h-2.402zm4.806 0l-.001 1h2.403v-1h-2.402zm4.806 0l-.001 1h2.403v-1h-2.402zm4.806 0l-.001 1h2.404v-1h-2.403zm4.806 0v1h2.403v-1h-2.403zm4.807 0l-.001 1h2.403v-1h-2.402zm4.806 0l-.001 1h2.403v-1h-2.402zm4.806 0l-.001 1h2.403v-1h-2.402zm4.806 0l-.001 1h2.404v-1h-2.403zm4.806 0v1h2.403v-1h-2.403zm4.807 0l-.001 1h2.403v-1h-2.402zm4.806 0l-.001 1h2.403v-1h-2.402zm4.806 0l-.001 1h2.403v-1h-2.402zm4.806 0v1h2.403v-1h-2.403zm4.807 0l-.001 1h2.403v-1h-2.402zm4.806 0l-.001 1h2.403v-1h-2.402zm4.806 0l-.001 1h2.403v-1h-2.402zm4.806 0l-.001 1h2.403v-1h-2.402zm4.806 0v1h2.403v-1h-2.403zm4.807 0l-.001 1h2.403v-1h-2.402zm4.806 0l-.001 1h2.403v-1h-2.402zm4.806 0l-.001 1h2.403v-1h-2.402zm4.806 0l-.001 1h2.404v-1h-2.403zm4.806 0v1h2.403v-1h-2.403zm4.807 0l-.001 1h2.403v-1h-2.402zm4.806 0l-.001 1h2.403v-1h-2.402zm4.806 0l-.001 1h2.403v-1h-2.402zm4.806 0v1h2.403v-1h-2.403zm4.807 0l-.001 1h2.403v-1h-2.402zm4.806 0l-.001 1h2.403v-1h-2.402zm4.806 0l-.001 1h2.403v-1h-2.402zm4.806 0l-.001 1h2.403v-1h-2.402zm4.806 0v1h2.403v-1h-2.403zm4.807 0l-.001 1h2.403v-1h-2.402zm4.806 0l-.001 1h2.403v-1h-2.402zm4.806 0l-.001 1h2.403v-1h-2.402zm4.806 0l-.001 1h2.404v-1h-2.403zm4.806 0v1h2.403v-1h-2.403zm4.807 0l-.001 1h2.403v-1h-2.402zm4.806 0l-.001 1h2.403v-1h-2.402zm4.806 0l-.001 1h2.403v-1h-2.402zm4.806 0v1h2.403v-1h-2.403zm4.806 0v1h2.403v-1h-2.403zm4.807 0l-.001 1h2.403v-1h-2.402zm4.806 0l-.001 1h2.403v-1h-2.402zm4.806 0l-.001 1h2.403v-1h-2.402zm7.209 0h-2.403v1h2.403v-1zm43.256 1h-2.404v-1h2.403l.001 1zm4.806 0h-2.403v-1h2.403v1zm4.806 0h-2.403v-1h2.403v1zm4.806 0h-2.403v-1h2.403v1zm4.806 0h-2.403v-1h2.403v1zm4.807 0h-2.403l-.001-1h2.403l.001 1zm2.403 0l-.001-1h2.403v1h-2.402zm7.209 0v-1h-2.403l-.001 1h2.404zm2.403-1v1h2.403v-1h-2.403zm4.806 0v1h2.403l.001-1h-2.404zm4.806 0v1h2.403l.001-1h-2.404zm4.806 0v1h2.403l.001-1h-2.404zm4.806 0v1h2.403l.001-1h-2.404zm4.806 0v1h2.403l.001-1h-2.404zm4.807 0v1h2.403l.001-1h-2.404zm4.806 0v1h2.403l.001-1h-2.404zm4.806 0v1h2.404v-1h-2.404zm4.806 0v1h2.404v-1h-2.404zm4.806 0v1h2.404v-1h-2.404zm4.806 0v1h2.405v-1h-2.405zm4.806 0v1h2.405v-1h-2.405zm4.807 0v1h2.404v-1h-2.404zm4.806 0v1h2.404v-1h-2.404zm4.806 0v1h2.404v-1h-2.404zm4.806 0v1H707v-1h-1.203zm-117.751 0h-2.403v1h2.403v-1zm-4.806 0h-2.403v1h2.403v-1zm-4.806 0h-2.403v1h2.403v-1zm-4.806 0h-2.403v1h2.403v-1zm-4.806 0h-2.403l-.001 1h2.404v-1zm-4.806 0h-2.404v1h2.403l.001-1zm-4.807 0h-2.403v1h2.403v-1zm-4.806 0H552v1h2.403v-1zm-546.948-84H6.252v1h1.203v-1zm4.807 1v-1H9.857v1h2.405zm2.401-1v1h2.405v-1h-2.405zm4.806 0v1h2.405v-1H19.47zm4.807 0v1h2.404v-1h-2.404zm4.806 0v1h2.404v-1h-2.404zm4.806 0v1h2.404v-1h-2.404zm4.806 0v1h2.404v-1h-2.404zm4.806 0v1h2.405v-1H43.5zm4.807 0v1h2.403v-1h-2.403zm4.806 0v1h2.403v-1h-2.403zm4.806 0v1h2.403l.001-1H57.92zm4.806 0v1h2.404v-1h-2.404zm4.807 0v1h2.403v-1h-2.403zm4.806 0v1h2.403v-1h-2.403zm4.806 0v1h2.403v-1h-2.403zm4.806 0v1h2.403v-1H81.95zm4.806 0v1h2.403l.001-1h-2.404zm4.807 0v1h2.403v-1h-2.403zm4.806 0v1h2.403v-1H96.37zm4.806 0v1h2.403v-1h-2.403zm4.806 0v1h2.403l.001-1h-2.404zm4.806 0v1h2.404v-1h-2.404zm4.807 0v1h2.403v-1h-2.403zm4.806 0v1h2.403v-1H120.4zm4.806 0v1h2.403v-1h-2.403zm4.806 0v1h2.403v-1h-2.403zm7.21 0h-2.403l-.001 1h2.404v-1zm2.403 1h2.403v-1h-2.403v1zm4.806-1v1h2.403v-1h-2.403zm4.806 0v1h2.403v-1h-2.403zm4.806 0v1h2.403v-1h-2.403zm4.807 0l-.001 1h2.403v-1h-2.402zm4.806 0l-.001 1h2.403v-1h-2.402zm4.806 0v1h2.403v-1h-2.403zm4.806 0v1h2.403v-1h-2.403zm4.806 0v1h2.403v-1h-2.403zm4.807 0l-.001 1h2.403v-1h-2.402zm4.806 0l-.001 1h2.403v-1h-2.402zm4.806 0l-.001 1h2.403v-1h-2.402zm4.806 0v1h2.403v-1h-2.403zm4.807 0l-.001 1h2.403v-1h-2.402zm4.806 0l-.001 1h2.403v-1h-2.402zm4.806 0l-.001 1h2.403v-1h-2.402zm4.806 0l-.001 1h2.404v-1h-2.403zm4.806 0v1h2.403v-1h-2.403zm4.807 0l-.001 1h2.403v-1h-2.402zm4.806 0l-.001 1h2.403v-1h-2.402zm4.806 0l-.001 1h2.403v-1h-2.402zm4.806 0l-.001 1h2.404v-1h-2.403zm4.806 0v1h2.403v-1h-2.403zm4.807 0l-.001 1h2.403v-1h-2.402zm4.806 0l-.001 1h2.403v-1h-2.402zm4.806 0l-.001 1h2.403v-1h-2.402zm4.806 0v1h2.403v-1h-2.403zm4.807 0l-.001 1h2.403v-1h-2.402zm4.806 0l-.001 1h2.403v-1h-2.402zm4.806 0l-.001 1h2.403v-1h-2.402zm4.806 0l-.001 1h2.404v-1h-2.403zm4.806 0v1h2.403v-1h-2.403zm4.807 0l-.001 1h2.403v-1h-2.402zm4.806 0l-.001 1h2.403v-1h-2.402zm4.806 0l-.001 1h2.403v-1h-2.402zm4.806 0l-.001 1h2.404v-1h-2.403zm4.806 0v1h2.403v-1h-2.403zm4.807 0l-.001 1h2.403v-1h-2.402zm4.806 0l-.001 1h2.403v-1h-2.402zm4.806 0l-.001 1h2.403v-1h-2.402zm4.806 0v1h2.403v-1h-2.403zm4.807 0l-.001 1h2.403v-1h-2.402zm4.806 0l-.001 1h2.403v-1h-2.402zm4.806 0l-.001 1h2.403v-1h-2.402zm4.806 0l-.001 1h2.404v-1h-2.403zm4.806 0v1h2.403v-1h-2.403zm4.807 0l-.001 1h2.403v-1h-2.402zm4.806 0l-.001 1h2.403v-1h-2.402zm4.806 0l-.001 1h2.403v-1h-2.402zm4.806 0l-.001 1h2.404v-1h-2.403zm4.806 0v1h2.403v-1h-2.403zm4.807 0l-.001 1h2.403v-1h-2.402zm4.806 0l-.001 1h2.403v-1h-2.402zm4.806 0l-.001 1h2.403v-1h-2.402zm4.806 0v1h2.403v-1h-2.403zm4.806 0v1h2.403v-1h-2.403zm4.807 0l-.001 1h2.403v-1h-2.402zm4.806 0l-.001 1h2.403v-1h-2.402zm4.806 0l-.001 1h2.403v-1h-2.402zm4.806 0v1h2.403v-1h-2.403zm4.807 0l-.001 1h2.403v-1h-2.402zm4.806 0l-.001 1h2.403v-1h-2.402zm4.806 0l-.001 1h2.403v-1h-2.402zm4.806 0l-.001 1h2.404v-1h-2.403zm4.806 0v1h2.403v-1h-2.403zm4.807 0l-.001 1h2.403v-1h-2.402zm4.806 0l-.001 1h2.403v-1h-2.402zm4.806 0l-.001 1h2.403v-1h-2.402zm4.806 0v1h2.403v-1h-2.403zm4.806 0v1h2.403v-1h-2.403zm4.807 0l-.001 1h2.403v-1h-2.402zm4.806 0l-.001 1h2.403v-1h-2.402zm4.806 0l-.001 1h2.403v-1h-2.402zm4.806 0v1h2.403v-1h-2.403zm4.807 0l-.001 1h2.403v-1h-2.402zm4.806 0l-.001 1h2.403v-1h-2.402zm4.806 0l-.001 1h2.403v-1h-2.402zm4.806 0l-.001 1h2.404v-1h-2.403zm4.806 0v1h2.403v-1h-2.403zm4.807 0l-.001 1h2.403v-1h-2.402zm4.806 0l-.001 1h2.403v-1h-2.402zm4.806 0l-.001 1h2.403v-1h-2.402zm4.806 0l-.001 1h2.404v-1h-2.403zm4.806 0v1h2.403v-1h-2.403zm7.209 0h-2.403v1h2.403v-1zm43.256 1h-2.403v-1h2.403v1zm4.806 0h-2.403v-1h2.403v1zm4.806 0h-2.403v-1h2.403v1zm4.807 0h-2.404v-1h2.403l.001 1zm4.806 0h-2.403l-.001-1h2.403l.001 1zm4.806 0h-2.403v-1h2.403v1zm2.403 0v-1h2.403v1h-2.403zm7.209 0v-1h-2.403v1h2.403zm2.403-1v1h2.403l.001-1h-2.404zm4.806 0v1h2.403l.001-1h-2.404zm4.806 0v1h2.403l.001-1h-2.404zm4.806 0v1h2.403l.001-1h-2.404zm4.807 0v1h2.403l.001-1h-2.404zm4.806 0v1h2.403l.001-1h-2.404zm4.806 0v1h2.403l.001-1h-2.404zm4.806 0v1h2.403l.001-1h-2.404zm4.806 0v1h2.404v-1H663.5zm4.806 0v1h2.405v-1h-2.405zm4.806 0v1h2.405v-1h-2.405zm4.807 0v1h2.404v-1h-2.404zm4.806 0v1h2.404v-1h-2.404zm4.806 0v1h2.404v-1h-2.404zm4.806 0v1h2.405v-1h-2.405zm4.806 0v1h2.405v-1h-2.405zm4.806 0v1h1.203v-1h-1.203zm-117.75 0h-2.403v1h2.403v-1zm-4.806 0h-2.404v1h2.404v-1zm-4.807 0h-2.403v1h2.403v-1zm-4.806 0h-2.403v1h2.403v-1zm-4.806 0h-2.403v1h2.403v-1zm-4.806 0h-2.403v1h2.403v-1zm-4.806 0h-2.403l-.001 1h2.403l.001-1zm-4.806 0h-2.403l-.001 1h2.403l.001-1zm-543.582-84H5.771v1h1.203v-1zm4.807 1v-1H9.376v1h2.405zm2.401-1v1h2.405v-1h-2.405zm4.807 0v1h2.404v-1h-2.404zm4.806 0v1h2.404v-1h-2.404zm4.806 0v1h2.404v-1h-2.404zm4.806 0v1h2.404v-1h-2.404zm4.806 0v1h2.405v-1h-2.405zm4.807 0v1h2.404v-1H43.02zm4.806 0v1h2.403v-1h-2.403zm4.806 0v1h2.403l.001-1h-2.404zm4.806 0v1h2.403l.001-1h-2.404zm4.806 0v1h2.403l.001-1h-2.404zm4.807 0v1h2.403v-1h-2.403zm4.806 0v1h2.403v-1h-2.403zm4.806 0v1h2.403v-1h-2.403zm4.806 0v1h2.403v-1H81.47zm4.806 0v1h2.404v-1h-2.404zm4.807 0v1h2.403v-1h-2.403zm4.806 0v1h2.403v-1h-2.403zm4.806 0v1h2.403l.001-1h-2.404zm4.806 0v1h2.403l.001-1H105.5zm4.807 0v1h2.403v-1h-2.403zm4.806 0v1h2.403v-1h-2.403zm4.806 0v1h2.403v-1h-2.403zm4.806 0v1h2.403v-1h-2.403zm4.806 0v1h2.403v-1h-2.403zm7.21 0h-2.403v1h2.403v-1zm2.403 1h2.403v-1h-2.403v1zm4.806-1v1h2.403v-1h-2.403zm4.806 0v1h2.403v-1h-2.403zm4.806 0v1h2.403v-1h-2.403zm4.807 0l-.001 1h2.403v-1h-2.402zm4.806 0l-.001 1h2.404v-1h-2.403zm4.806 0v1h2.403v-1h-2.403zm4.806 0v1h2.403v-1h-2.403zm4.807 0l-.001 1h2.403v-1h-2.402zm4.806 0l-.001 1h2.403v-1H182.4zm4.806 0l-.001 1h2.403v-1h-2.402zm4.806 0l-.001 1h2.403v-1h-2.402zm4.806 0v1h2.403v-1h-2.403zm4.807 0l-.001 1h2.403v-1h-2.402zm4.806 0l-.001 1h2.403v-1h-2.402zm4.806 0l-.001 1h2.403v-1h-2.402zm4.806 0l-.001 1h2.404v-1h-2.403zm4.806 0v1h2.403v-1h-2.403zm4.807 0l-.001 1h2.403v-1h-2.402zm4.806 0l-.001 1h2.403v-1h-2.402zm4.806 0l-.001 1h2.403v-1h-2.402zm4.806 0v1h2.403v-1h-2.403zm4.806 0v1h2.403v-1h-2.403zm4.807 0l-.001 1h2.403v-1h-2.402zm4.806 0l-.001 1h2.403v-1h-2.402zm4.806 0l-.001 1h2.403v-1h-2.402zm4.806 0v1h2.403v-1h-2.403zm4.807 0l-.001 1h2.403v-1h-2.402zm4.806 0l-.001 1h2.403v-1h-2.402zm4.806 0l-.001 1h2.403v-1h-2.402zm4.806 0l-.001 1h2.404v-1h-2.403zm4.806 0v1h2.403v-1h-2.403zm4.807 0l-.001 1h2.403v-1h-2.402zm4.806 0l-.001 1h2.403v-1h-2.402zm4.806 0l-.001 1h2.403v-1h-2.402zm4.806 0v1h2.403v-1h-2.403zm4.806 0v1h2.403v-1h-2.403zm4.807 0l-.001 1h2.403v-1h-2.402zm4.806 0l-.001 1h2.403v-1h-2.402zm4.806 0l-.001 1h2.403v-1h-2.402zm4.806 0v1h2.403v-1h-2.403zm4.807 0l-.001 1h2.403v-1h-2.402zm4.806 0l-.001 1h2.403v-1h-2.402zm4.806 0l-.001 1h2.403v-1h-2.402zm4.806 0l-.001 1h2.404v-1h-2.403zm4.806 0v1h2.403v-1h-2.403zm4.807 0l-.001 1h2.403v-1h-2.402zm4.806 0l-.001 1h2.403v-1h-2.402zm4.806 0l-.001 1h2.403v-1h-2.402zm4.806 0l-.001 1h2.404v-1h-2.403zm4.806 0v1h2.403v-1h-2.403zm4.807 0l-.001 1h2.403v-1h-2.402zm4.806 0l-.001 1h2.403v-1h-2.402zm4.806 0l-.001 1h2.403v-1h-2.402zm4.806 0v1h2.403v-1h-2.403zm4.807 0l-.001 1h2.403v-1h-2.402zm4.806 0l-.001 1h2.403v-1h-2.402zm4.806 0l-.001 1h2.403v-1h-2.402zm4.806 0l-.001 1h2.404v-1h-2.403zm4.806 0v1h2.403v-1h-2.403zm4.807 0l-.001 1h2.403v-1h-2.402zm4.806 0l-.001 1h2.403v-1h-2.402zm4.806 0l-.001 1h2.403v-1h-2.402zm4.806 0l-.001 1h2.404v-1h-2.403zm4.806 0v1h2.403v-1h-2.403zm4.807 0l-.001 1h2.403v-1h-2.402zm4.806 0l-.001 1h2.403v-1h-2.402zm4.806 0l-.001 1h2.403v-1h-2.402zm4.806 0v1h2.403v-1h-2.403zm4.807 0l-.001 1h2.403v-1h-2.402zm4.806 0l-.001 1h2.403v-1h-2.402zm4.806 0l-.001 1h2.403v-1h-2.402zm4.806 0l-.001 1h2.404v-1h-2.403zm4.806 0v1h2.403v-1h-2.403zm4.807 0l-.001 1h2.403v-1h-2.402zm4.806 0l-.001 1h2.403v-1h-2.402zm4.806 0l-.001 1h2.403v-1h-2.402zm4.806 0l-.001 1h2.404v-1h-2.403zm4.806 0v1h2.403v-1h-2.403zm4.807 0l-.001 1h2.403v-1h-2.402zm4.806 0l-.001 1h2.403v-1h-2.402zm4.806 0l-.001 1h2.403v-1h-2.402zm4.806 0v1h2.403v-1h-2.403zm4.806 0v1h2.403v-1h-2.403zm7.209 0h-2.403v1h2.403v-1zm43.256 1h-2.403v-1h2.403v1zm4.806 0h-2.403v-1h2.403v1zm4.806 0h-2.403v-1h2.403v1zm4.807 0h-2.404v-1h2.403l.001 1zm4.806 0h-2.403l-.001-1h2.403l.001 1zm4.806 0h-2.403v-1h2.403v1zm2.403 0v-1h2.403v1h-2.403zm7.209 0v-1h-2.403v1h2.403zm2.403-1v1h2.403l.001-1h-2.404zm4.806 0v1h2.403l.001-1h-2.404zm4.806 0v1h2.403l.001-1h-2.404zm4.806 0v1h2.404v-1h-2.404zm4.807 0v1h2.403l.001-1h-2.404zm4.806 0v1h2.403l.001-1h-2.404zm4.806 0v1h2.403l.001-1h-2.404zm4.806 0v1h2.403l.001-1h-2.404zm4.806 0v1h2.404v-1h-2.404zm4.806 0v1h2.405v-1h-2.405zm4.807 0v1h2.404v-1h-2.404zm4.806 0v1h2.404v-1h-2.404zm4.806 0v1h2.404v-1h-2.404zm4.806 0v1h2.404v-1h-2.404zm4.806 0v1h2.405v-1h-2.405zm4.806 0v1h2.405v-1h-2.405zm4.806 0v1h1.203v-1h-1.203zm-117.75 0h-2.403v1h2.403v-1zm-4.806 0h-2.404v1h2.404v-1zm-4.807 0h-2.403v1h2.403v-1zm-4.806 0h-2.403v1h2.403v-1zm-4.806 0h-2.403v1h2.403v-1zm-4.806 0h-2.403v1h2.403v-1zm-4.806 0h-2.403l-.001 1h2.403l.001-1zm-4.806 0h-2.403l-.001 1h2.403l.001-1zm-548.872-84H0v1h1.203v-1zm4.806 1v-1H3.605v1h2.404zm2.402-1v1h2.404v-1H8.411zm4.806 0v1h2.404v-1h-2.404zm4.806 0v1h2.405v-1h-2.405zm4.806 0v1h2.405v-1h-2.405zm4.807 0v1h2.404v-1h-2.404zm4.806 0v1h2.404v-1h-2.404zm4.806 0v1h2.404v-1h-2.404zm4.806 0v1h2.403l.001-1h-2.404zm4.806 0v1h2.404v-1H46.86zm4.807 0v1h2.403v-1h-2.403zm4.806 0v1h2.403v-1h-2.403zm4.806 0v1h2.403l.001-1h-2.404zm4.806 0v1h2.403l.001-1h-2.404zm4.806 0v1h2.404v-1h-2.404zm4.807 0v1H78.1v-1h-2.403zm4.806 0v1h2.403v-1h-2.403zm4.806 0v1h2.403v-1H85.31zm4.806 0v1h2.403v-1h-2.403zm4.807 0v1h2.403v-1h-2.403zm4.806 0v1h2.403v-1h-2.403zm4.806 0v1h2.403v-1h-2.403zm4.806 0v1h2.403l.001-1h-2.404zm4.806 0v1h2.404v-1h-2.404zm4.807 0v1h2.403v-1h-2.403zm4.806 0v1h2.403v-1h-2.403zm7.209 0h-2.403v1h2.403v-1zm2.403 1h2.403v-1h-2.403v1zm4.807-1l-.001 1h2.403v-1h-2.402zm4.806 0l-.001 1h2.404v-1h-2.403zm4.806 0v1h2.403v-1h-2.403zm4.806 0v1H155v-1h-2.403zm4.806 0v1h2.403v-1h-2.403zm4.807 0l-.001 1h2.403v-1h-2.402zm4.806 0l-.001 1h2.403v-1h-2.402zm4.806 0l-.001 1h2.403v-1h-2.402zm4.806 0v1h2.403v-1h-2.403zm4.806 0v1h2.403v-1h-2.403zm4.807 0l-.001 1h2.403v-1h-2.402zm4.806 0l-.001 1h2.403v-1h-2.402zm4.806 0l-.001 1h2.403v-1h-2.402zm4.806 0v1h2.403v-1h-2.403zm4.807 0l-.001 1h2.403v-1h-2.402zm4.806 0l-.001 1h2.403v-1h-2.402zm4.806 0l-.001 1h2.403v-1h-2.402zm4.806 0l-.001 1h2.403v-1h-2.402zm4.806 0v1h2.403v-1h-2.403zm4.807 0l-.001 1h2.403v-1h-2.402zm4.806 0l-.001 1h2.403v-1h-2.402zm4.806 0l-.001 1h2.403v-1h-2.402zm4.806 0l-.001 1h2.404v-1h-2.403zm4.806 0v1h2.403v-1h-2.403zm4.807 0l-.001 1h2.403v-1h-2.402zm4.806 0l-.001 1h2.403v-1h-2.402zm4.806 0l-.001 1h2.403v-1h-2.402zm4.806 0l-.001 1h2.404v-1h-2.403zm4.807 0l-.001 1h2.403v-1h-2.402zm4.806 0l-.001 1h2.403v-1h-2.402zm4.806 0l-.001 1h2.403v-1h-2.402zm4.806 0l-.001 1h2.403v-1h-2.402zm4.806 0v1h2.403v-1h-2.403zm4.807 0l-.001 1h2.403v-1h-2.402zm4.806 0l-.001 1h2.403v-1h-2.402zm4.806 0l-.001 1h2.403v-1h-2.402zm4.806 0l-.001 1h2.404v-1h-2.403zm4.806 0v1h2.403v-1h-2.403zm4.807 0l-.001 1h2.403v-1h-2.402zm4.806 0l-.001 1h2.403v-1h-2.402zm4.806 0l-.001 1h2.403v-1h-2.402zm4.806 0v1h2.403v-1h-2.403zm4.806 0v1h2.403v-1h-2.403zm4.807 0l-.001 1h2.403v-1h-2.402zm4.806 0l-.001 1h2.403v-1h-2.402zm4.806 0l-.001 1h2.403v-1h-2.402zm4.806 0v1h2.403v-1h-2.403zm4.807 0l-.001 1h2.403v-1h-2.402zm4.806 0l-.001 1h2.403v-1h-2.402zm4.806 0l-.001 1h2.403v-1h-2.402zm4.806 0l-.001 1h2.404v-1h-2.403zm4.806 0v1h2.403v-1h-2.403zm4.807 0l-.001 1h2.403v-1h-2.402zm4.806 0l-.001 1h2.403v-1h-2.402zm4.806 0l-.001 1h2.403v-1h-2.402zm4.806 0v1h2.403v-1h-2.403zm4.806 0v1h2.403v-1h-2.403zm4.807 0l-.001 1h2.403v-1h-2.402zm4.806 0l-.001 1h2.403v-1h-2.402zm4.806 0l-.001 1h2.403v-1h-2.402zm4.806 0v1h2.403v-1h-2.403zm4.807 0l-.001 1h2.403v-1h-2.402zm4.806 0l-.001 1h2.403v-1h-2.402zm4.806 0l-.001 1h2.403v-1h-2.402zm4.806 0l-.001 1h2.404v-1h-2.403zm4.806 0v1h2.403v-1h-2.403zm4.807 0l-.001 1h2.403v-1h-2.402zm4.806 0l-.001 1h2.403v-1h-2.402zm4.806 0l-.001 1h2.403v-1h-2.402zm4.806 0l-.001 1h2.404v-1h-2.403zm4.806 0v1h2.403v-1h-2.403zm4.807 0l-.001 1h2.403v-1h-2.402zm4.806 0l-.001 1h2.403v-1h-2.402zm4.806 0l-.001 1h2.403v-1h-2.402zm4.806 0v1h2.403v-1h-2.403zm4.807 0l-.001 1h2.403v-1h-2.402zm4.806 0l-.001 1h2.403v-1h-2.402zm4.806 0l-.001 1h2.403v-1h-2.402zm4.806 0l-.001 1h2.404v-1h-2.403zm4.806 0v1h2.403v-1h-2.403zm4.806 0v1h2.403v-1h-2.403zm4.807 0l-.001 1h2.403v-1h-2.402zm4.806 0l-.001 1h2.403v-1h-2.402zm7.209 0h-2.403v1h2.403v-1zm43.256 1h-2.404v-1h2.403l.001 1zm4.806 0h-2.403l-.001-1h2.404v1zm4.806 0h-2.403v-1h2.403v1zm4.806 0h-2.403v-1h2.403v1zm4.806 0h-2.403v-1h2.403v1zm4.807 0h-2.404v-1h2.403l.001 1zm2.403 0l-.001-1h2.403v1h-2.402zm7.209 0v-1h-2.403l-.001 1h2.404zm2.403-1v1h2.403v-1h-2.403zm4.806 0v1h2.403v-1h-2.403zm4.806 0v1h2.403l.001-1h-2.404zm4.806 0v1h2.403l.001-1h-2.404zm4.806 0v1h2.403l.001-1h-2.404zm4.806 0v1h2.403l.001-1h-2.404zm4.806 0v1h2.404v-1h-2.404zm4.807 0v1h2.403l.001-1h-2.404zm4.806 0v1h2.404v-1h-2.404zm4.806 0v1h2.404v-1h-2.404zm4.806 0v1h2.404v-1h-2.404zm4.806 0v1h2.404v-1h-2.404zm4.806 0v1h2.405v-1h-2.405zm4.807 0v1h2.404v-1h-2.404zm4.806 0v1h2.404v-1h-2.404zm4.806 0v1h2.404v-1h-2.404zm4.806 0v1h1.203v-1h-1.203zm-117.751 0h-2.403v1h2.403v-1zm-4.806 0h-2.403v1h2.403v-1zm-4.806 0h-2.403v1h2.403v-1zm-4.806 0h-2.403v1h2.403v-1zm-4.806 0h-2.403l-.001 1h2.403l.001-1zm-4.807 0h-2.403v1h2.403v-1zm-4.806 0h-2.403v1h2.403v-1zm-4.806 0H541.9v1h2.403v-1z" fill="#C4C4C4"/><defs><clipPath id="clip0"><path fill="#fff" transform="translate(419.77 55)" d="M0 0h130.477v21.209H0z"/></clipPath></defs></svg>