<svg width="220" height="218" viewBox="0 0 220 218" fill="none" xmlns="http://www.w3.org/2000/svg">
<path d="M123.531 14.8003C122.384 13.9265 121.5 12.7535 120.979 11.4108C120.458 10.0408 120.341 8.55103 120.64 7.11668C120.89 5.66961 121.554 4.32525 122.551 3.24472C123.534 2.19161 124.79 1.43153 126.181 1.0494C127.69 0.624708 129.281 0.575012 130.814 0.90465C132.359 1.17212 133.818 1.80041 135.073 2.7381C136.224 3.6057 137.112 4.77485 137.637 6.11552C138.138 7.4955 138.235 8.98908 137.916 10.4217C137.667 11.8634 137.008 13.2033 136.016 14.2816C135.036 15.3426 133.78 16.111 132.387 16.5011C130.872 16.8977 129.286 16.9509 127.747 16.6566C126.209 16.3622 124.756 15.728 123.495 14.8003H123.531ZM131.576 14.4384C132.575 14.1464 133.471 13.5825 134.165 12.81C134.867 11.9988 135.327 11.0089 135.496 9.95129C135.719 8.90216 135.644 7.81173 135.278 6.80306C134.917 5.84596 134.292 5.00984 133.476 4.39062C132.565 3.6957 131.497 3.23207 130.367 3.03966C129.249 2.80707 128.092 2.84429 126.991 3.14822C125.988 3.437 125.087 4.0013 124.39 4.77661C123.683 5.57865 123.21 6.55926 123.023 7.61123C122.8 8.66436 122.875 9.75876 123.241 10.7715C123.605 11.7304 124.234 12.5669 125.056 13.184C125.979 13.8525 127.04 14.3077 128.161 14.5163C129.283 14.725 130.437 14.6819 131.54 14.3902L131.576 14.4384Z" fill="#1D1D1B"/>
<path d="M141.315 18.0932C140.828 16.2249 141.025 14.2445 141.872 12.5084L145.09 4.66797L147.401 5.60882L144.183 13.4492C143.527 14.6985 143.339 16.1391 143.65 17.5142C143.92 18.0894 144.308 18.6014 144.79 19.0171C145.271 19.4327 145.835 19.7426 146.445 19.9266C147 20.2164 147.611 20.3846 148.237 20.42C148.863 20.4554 149.489 20.3571 150.074 20.1317C151.265 19.3739 152.148 18.22 152.566 16.8749L155.784 9.03448L158.095 9.97533L154.853 17.8519C154.225 19.6683 152.979 21.2086 151.332 22.2064C149.856 22.9904 147.945 22.906 145.574 21.941C143.203 20.9761 141.823 19.6975 141.315 18.0932Z" fill="#1D1D1B"/>
<path d="M167.096 33.5088L164.531 31.8563L163.962 23.1956L161.712 21.7723L157.901 27.6586L155.905 26.3801L164.277 13.3408L170.701 17.442C171.522 17.9388 172.228 18.6051 172.77 19.396C173.231 20.0503 173.484 20.8279 173.496 21.6275C173.504 22.4027 173.281 23.1629 172.854 23.8108C172.445 24.4668 171.858 24.9937 171.161 25.3306C170.445 25.6525 169.653 25.7694 168.874 25.6684C167.964 25.5481 167.089 25.2355 166.309 24.7517L167.096 33.5088ZM162.837 19.9871L167.241 22.7976C167.835 23.2236 168.554 23.44 169.286 23.4128C169.587 23.3795 169.877 23.276 170.131 23.1105C170.386 22.9449 170.597 22.722 170.749 22.4598C170.923 22.2184 171.035 21.9383 171.075 21.6439C171.115 21.3496 171.082 21.05 170.979 20.7711C170.683 20.1061 170.178 19.5555 169.54 19.203L165.136 16.3926L162.837 19.9871Z" fill="#1D1D1B"/>
<path d="M188.122 47.4043L187.009 47.7421C185.558 48.0107 184.063 47.9027 182.666 47.4285C181.244 46.8846 179.96 46.0364 178.903 44.9437L178.637 44.6542C177.577 43.5342 176.802 42.1777 176.375 40.6978C175.976 39.3048 175.974 37.8289 176.368 36.4347C176.762 35.0404 177.536 33.7827 178.605 32.8019C179.674 31.8211 180.996 31.1557 182.422 30.8801C183.848 30.6045 185.323 30.7294 186.682 31.241C188.157 31.7874 189.477 32.6813 190.53 33.8464C191.753 35.1117 192.592 36.6968 192.949 38.418C193.285 40.0369 193.121 41.7193 192.477 43.2429L190.626 41.3009C190.923 40.2846 190.923 39.2051 190.626 38.1888C190.3 37.0867 189.715 36.0778 188.92 35.2457C188.155 34.4031 187.196 33.7575 186.126 33.364C185.144 32.9988 184.077 32.9234 183.053 33.1468C182.011 33.3791 181.052 33.8923 180.283 34.6305C179.504 35.3498 178.921 36.2546 178.589 37.26C178.316 38.2346 178.316 39.2649 178.589 40.2394C178.876 41.2928 179.402 42.2665 180.125 43.0861L180.391 43.3756C181.175 44.1633 182.12 44.7724 183.162 45.1608C184.143 45.5556 185.226 45.6192 186.247 45.3417L188.122 47.4043Z" fill="#1D1D1B"/>
<path d="M188.727 53.7251C189.432 51.9308 190.753 50.4437 192.453 49.5275L199.712 45.0645L201.031 47.1753L193.772 51.6384C192.512 52.2732 191.515 53.3272 190.953 54.6177C190.824 55.2453 190.832 55.8932 190.976 56.5174C191.12 57.1417 191.397 57.7279 191.788 58.2364C192.069 58.8018 192.468 59.3008 192.959 59.7001C193.449 60.0995 194.019 60.39 194.631 60.5523C196.044 60.6322 197.439 60.2042 198.563 59.3461L205.821 54.8831L207.14 56.994L199.881 61.469C198.307 62.5747 196.393 63.0954 194.474 62.9406C192.812 62.7074 191.312 61.5012 189.973 59.322C188.582 57.187 188.171 55.3053 188.727 53.7251Z" fill="#1D1D1B"/>
<path d="M196.675 70.5878C196.574 69.4316 196.631 68.267 196.845 67.126L198.938 67.7894C198.729 68.7479 198.68 69.7341 198.793 70.7085C198.917 71.7496 199.173 72.7709 199.555 73.7481C199.889 74.7117 200.464 75.5749 201.224 76.2571C201.5 76.5137 201.843 76.6874 202.213 76.7578C202.583 76.8282 202.966 76.7926 203.317 76.6551C203.534 76.5761 203.73 76.451 203.893 76.2886C204.056 76.1261 204.182 75.9301 204.261 75.7143C204.417 75.2486 204.462 74.7531 204.394 74.2668C204.321 73.7361 204.2 73.0606 204.019 72.2162L203.922 71.782C203.604 70.4861 203.43 69.1594 203.402 67.8256C203.37 67.0196 203.567 66.221 203.97 65.5217C204.381 64.9599 204.956 64.5385 205.616 64.3155C206.291 63.9953 207.045 63.875 207.787 63.9691C208.529 64.0632 209.228 64.3676 209.802 64.8462C211.081 65.9376 212.052 67.3429 212.62 68.9233C213.017 69.931 213.262 70.992 213.346 72.0715C213.446 73.1727 213.418 74.2818 213.262 75.3765L211.193 74.6287C211.295 73.7753 211.295 72.9128 211.193 72.0594C211.096 71.2326 210.893 70.4218 210.588 69.647C210.238 68.5894 209.616 67.6413 208.785 66.8968C208.492 66.6457 208.134 66.4801 207.752 66.4184C207.37 66.3567 206.978 66.4012 206.62 66.547C206.246 66.6801 205.938 66.9524 205.761 67.3069C205.612 67.7746 205.579 68.2712 205.664 68.7544C205.743 69.6382 205.897 70.5138 206.124 71.3719C206.359 72.3782 206.537 73.3971 206.656 74.4236C206.748 75.3065 206.632 76.1987 206.317 77.029C206.144 77.4666 205.877 77.8609 205.534 78.184C205.191 78.5071 204.781 78.7511 204.333 78.8987C203.528 79.2357 202.629 79.2826 201.793 79.0314C200.879 78.7495 200.062 78.219 199.434 77.4995C198.643 76.6062 198.024 75.5759 197.607 74.4598C197.103 73.2232 196.789 71.9179 196.675 70.5878Z" fill="#1D1D1B"/>
<path d="M215.56 87.3663L202.446 90.1527L201.95 87.7403L215.052 84.9539L213.842 79.3932L215.923 78.959L218.802 92.4566L216.734 92.9029L215.56 87.3663Z" fill="#1D1D1B"/>
<path d="M204.757 100.334C205.354 99.0201 206.299 97.8941 207.491 97.0768C208.394 96.4593 209.417 96.0376 210.494 95.8391C211.571 95.6405 212.678 95.6695 213.743 95.9242C214.808 96.1788 215.807 96.6535 216.677 97.3174C217.546 97.9814 218.266 98.8199 218.79 99.7787C219.517 101.164 219.926 102.693 219.989 104.255C220.051 105.818 219.766 107.374 219.153 108.813C218.561 110.123 217.619 111.245 216.431 112.058C215.201 112.853 213.779 113.303 212.314 113.36C210.85 113.418 209.396 113.08 208.108 112.384C206.848 111.672 205.813 110.624 205.12 109.356C204.364 107.986 203.95 106.456 203.91 104.893C203.826 103.328 204.116 101.765 204.757 100.334ZM206.934 108.065C207.444 108.97 208.199 109.714 209.112 110.212C210.067 110.706 211.135 110.943 212.211 110.901C213.286 110.859 214.332 110.538 215.245 109.971C216.111 109.399 216.798 108.597 217.23 107.655C217.703 106.616 217.915 105.477 217.847 104.338C217.825 103.201 217.521 102.086 216.963 101.093C216.461 100.177 215.705 99.4231 214.786 98.9223C213.844 98.4182 212.78 98.1844 211.713 98.2468C210.636 98.2704 209.586 98.5874 208.676 99.1635C207.806 99.7389 207.115 100.545 206.68 101.492C206.21 102.532 205.998 103.67 206.063 104.809C206.084 105.949 206.383 107.066 206.934 108.065Z" fill="#1D1D1B"/>
<path d="M201.575 131.972L213.37 134.107L204.14 127.063L204.575 124.651L215.717 121.31L203.91 119.162L204.345 116.75L219.625 119.512L219.032 122.721L207.14 126.267L217.012 133.806L216.431 137.014L201.152 134.24L201.575 131.972Z" fill="#1D1D1B"/>
<path d="M195.139 149.571L199.639 138.354L214.06 144.095L209.644 155.12L207.672 154.336L211.193 145.531L207.007 143.866L203.97 151.453L202.01 150.681L205.059 143.094L200.716 141.369L197.086 150.355L195.139 149.571Z" fill="#1D1D1B"/>
<path d="M186.658 163.877L188.267 161.247L196.929 160.488L198.321 158.22L192.272 154.601L193.481 152.575L206.789 160.632L202.821 167.134C202.339 167.964 201.683 168.68 200.897 169.233C200.248 169.705 199.474 169.978 198.671 170.017C197.894 170.034 197.129 169.824 196.47 169.414C195.819 169.027 195.294 168.462 194.957 167.785C194.612 167.082 194.478 166.295 194.57 165.517C194.662 164.604 194.955 163.723 195.429 162.936L186.658 163.877ZM200.135 159.317L197.413 163.78C196.986 164.375 196.785 165.102 196.845 165.831C196.88 166.13 196.986 166.416 197.155 166.665C197.323 166.915 197.548 167.121 197.812 167.266C198.06 167.434 198.344 167.538 198.642 167.572C198.939 167.606 199.239 167.567 199.518 167.459C200.18 167.152 200.72 166.635 201.055 165.988L203.777 161.537L200.135 159.317Z" fill="#1D1D1B"/>
<path d="M175.806 175.951L177.573 174.19L193.409 180.294L191.509 182.139L178.734 177.037L183.888 189.847L182.013 191.717L175.806 175.951Z" fill="#1D1D1B"/>
<path d="M167.301 184.359C168.732 184.158 170.189 184.358 171.512 184.938C172.516 185.372 173.419 186.011 174.16 186.815C174.901 187.619 175.464 188.569 175.813 189.604C176.162 190.639 176.289 191.736 176.186 192.823C176.083 193.91 175.751 194.963 175.214 195.914C174.449 197.28 173.366 198.442 172.056 199.304C170.772 200.206 169.292 200.793 167.737 201.016C166.307 201.217 164.849 201.017 163.527 200.437C162.181 199.849 161.037 198.88 160.236 197.651C159.383 196.46 158.891 195.049 158.821 193.586C158.773 192.143 159.115 190.714 159.813 189.449C160.599 188.095 161.68 186.936 162.977 186.055C164.273 185.173 165.751 184.594 167.301 184.359ZM161.882 190.305C161.379 191.215 161.145 192.248 161.204 193.285C161.28 194.358 161.653 195.389 162.281 196.264C162.872 197.169 163.712 197.885 164.7 198.327C165.646 198.758 166.695 198.913 167.725 198.773C168.851 198.598 169.924 198.175 170.866 197.534C171.808 196.893 172.595 196.052 173.169 195.07C173.679 194.158 173.919 193.121 173.859 192.078C173.775 191.018 173.412 189.998 172.806 189.123C172.209 188.22 171.371 187.502 170.386 187.048C169.438 186.612 168.385 186.453 167.35 186.59C166.223 186.769 165.15 187.195 164.209 187.837C163.268 188.48 162.481 189.323 161.906 190.305H161.882Z" fill="#1D1D1B"/>
<path d="M152.651 192.488L159.511 206.384L157.345 207.433L150.498 193.55L152.651 192.488Z" fill="#1D1D1B"/>
<path d="M132.726 205.13L132.883 203.984C133.261 202.573 133.994 201.282 135.012 200.233C136.107 199.181 137.421 198.382 138.859 197.893L139.234 197.772C140.699 197.285 142.26 197.161 143.783 197.41C145.206 197.649 146.536 198.274 147.626 199.218C148.715 200.161 149.523 201.385 149.961 202.756C150.399 204.127 150.449 205.592 150.106 206.99C149.763 208.387 149.04 209.664 148.018 210.678C146.893 211.782 145.526 212.608 144.025 213.091C142.354 213.662 140.556 213.754 138.835 213.356C137.201 212.974 135.724 212.103 134.601 210.859L137.154 210.015C137.944 210.721 138.924 211.182 139.972 211.342C141.109 211.519 142.271 211.42 143.36 211.052C144.449 210.711 145.444 210.12 146.263 209.327C147.004 208.594 147.52 207.665 147.751 206.65C147.98 205.607 147.917 204.523 147.57 203.514C147.25 202.505 146.675 201.595 145.9 200.872C145.129 200.23 144.196 199.813 143.203 199.666C142.126 199.475 141.02 199.537 139.972 199.847L139.597 199.967C138.542 200.333 137.583 200.931 136.791 201.716C136.021 202.434 135.507 203.383 135.327 204.418L132.726 205.13Z" fill="#1D1D1B"/>
<path d="M115.789 202.645L127.814 201.089L129.81 216.444L118.003 217.976L117.737 215.913L127.161 214.707L126.568 210.256L118.45 211.306L118.172 209.231L126.302 208.169L125.697 203.562L116.019 204.768L115.789 202.645Z" fill="#1D1D1B"/>
<path d="M112.244 202.766C112.388 202.886 112.504 203.035 112.586 203.203C112.667 203.372 112.711 203.556 112.716 203.743C112.72 203.934 112.683 204.125 112.608 204.302C112.533 204.478 112.421 204.637 112.28 204.768C112.132 204.908 111.957 205.017 111.766 205.09C111.575 205.162 111.372 205.196 111.167 205.19C110.764 205.211 110.368 205.072 110.066 204.804C109.921 204.681 109.804 204.528 109.724 204.355C109.645 204.182 109.605 203.993 109.607 203.803C109.599 203.615 109.633 203.428 109.706 203.255C109.78 203.082 109.89 202.927 110.03 202.802C110.174 202.663 110.345 202.554 110.532 202.482C110.719 202.409 110.918 202.374 111.119 202.38C111.53 202.361 111.932 202.499 112.244 202.766Z" fill="#1D1D1B"/>
<path d="M102.251 203.151C103.449 203.958 104.403 205.076 105.01 206.384C105.612 207.722 105.818 209.203 105.602 210.654C105.442 212.11 104.862 213.488 103.933 214.622C103.018 215.732 101.812 216.567 100.449 217.035C98.9636 217.538 97.3797 217.683 95.8274 217.457C94.2709 217.288 92.7754 216.76 91.4601 215.913C90.2626 215.111 89.3085 213.997 88.7018 212.692C88.1189 211.349 87.9102 209.873 88.0975 208.421C88.2849 206.969 88.8614 205.595 89.7664 204.442C90.6888 203.334 91.898 202.5 93.2627 202.029C94.7456 201.516 96.331 201.367 97.8841 201.595C99.4427 201.762 100.939 202.296 102.251 203.151ZM94.2426 203.996C93.2589 204.343 92.3946 204.962 91.7504 205.781C91.0816 206.627 90.6626 207.642 90.5406 208.712C90.3822 209.771 90.5247 210.853 90.952 211.836C91.3665 212.787 92.0468 213.6 92.9118 214.176C93.8663 214.799 94.9498 215.199 96.0812 215.345C97.2125 215.491 98.3624 215.38 99.4447 215.02C100.435 214.686 101.306 214.069 101.949 213.247C102.616 212.41 103.035 211.403 103.159 210.34C103.32 209.274 103.182 208.184 102.759 207.192C102.347 206.216 101.663 205.379 100.788 204.78C99.8456 204.125 98.7574 203.711 97.6179 203.573C96.4751 203.441 95.3171 203.586 94.2426 203.996Z" fill="#1D1D1B"/>
<path d="M84.2859 200.92C84.8894 202.754 84.8165 204.743 84.0802 206.529L81.3461 214.55L78.9265 213.742L81.6606 205.721C82.2438 204.44 82.3468 202.994 81.951 201.644C81.6493 201.082 81.2311 200.59 80.7243 200.201C80.2175 199.812 79.6335 199.535 79.0112 199.388C78.4396 199.136 77.8215 199.006 77.1965 199.006C76.5715 199.006 75.9535 199.136 75.3818 199.388C74.2404 200.22 73.434 201.43 73.1074 202.802L70.3612 210.823L67.9417 210.015L70.6758 201.994C71.1869 200.142 72.3345 198.528 73.918 197.434C75.3455 196.566 77.2691 196.529 79.6887 197.35C82.1083 198.17 83.681 199.364 84.2859 200.92Z" fill="#1D1D1B"/>
<path d="M57.6463 187.133L60.3441 188.629L61.433 197.229L63.7557 198.52L67.2036 192.416L69.2845 193.622L61.6991 207.096L55.0332 203.381C54.1798 202.938 53.4328 202.317 52.8435 201.559C52.3482 200.931 52.0495 200.172 51.9845 199.376C51.9468 198.612 52.1224 197.852 52.4919 197.181C52.8614 196.51 53.4103 195.955 54.0774 195.576C54.7674 195.209 55.548 195.046 56.3276 195.106C57.2428 195.163 58.1345 195.418 58.9408 195.854L57.6463 187.133ZM62.7274 200.401L58.1544 197.82C57.5385 197.422 56.8024 197.251 56.0736 197.337C55.7753 197.386 55.4928 197.505 55.249 197.683C55.0052 197.861 54.8069 198.094 54.6702 198.363C54.5124 198.615 54.4189 198.902 54.3978 199.198C54.3767 199.495 54.4287 199.792 54.5493 200.063C54.882 200.71 55.4172 201.231 56.0736 201.547L60.6466 204.08L62.7274 200.401Z" fill="#1D1D1B"/>
<path d="M35.8219 174.528L36.9228 174.118C38.3518 173.767 39.8472 173.788 41.2659 174.178C42.7203 174.631 44.0552 175.402 45.1735 176.434L45.4639 176.699C46.5911 177.75 47.4462 179.058 47.956 180.511C48.4248 181.852 48.5127 183.296 48.2101 184.684C47.9919 185.752 47.5519 186.762 46.9183 187.65C46.2847 188.538 45.4716 189.284 44.5314 189.84C43.5912 190.395 42.5447 190.749 41.4593 190.876C40.3738 191.004 39.2736 190.904 38.2293 190.583C36.7298 190.104 35.3656 189.277 34.2491 188.17C32.9418 186.98 31.9982 185.445 31.5271 183.743C31.0903 182.13 31.1535 180.423 31.7086 178.846L33.6805 180.679C33.4288 181.707 33.4877 182.785 33.8499 183.779C34.2279 184.866 34.8726 185.84 35.7251 186.614C36.5406 187.41 37.5366 187.997 38.6286 188.327C39.6323 188.616 40.6977 188.616 41.7014 188.327C42.7292 188.034 43.655 187.462 44.3751 186.674C45.1234 185.938 45.6727 185.025 45.972 184.021C46.1866 183.035 46.1281 182.009 45.8026 181.053C45.4572 180.02 44.8728 179.082 44.0968 178.315L43.8186 178.038C42.9843 177.299 42.0032 176.744 40.9393 176.409C39.9385 176.074 38.8551 176.074 37.8543 176.409L35.8219 174.528Z" fill="#1D1D1B"/>
<path d="M34.8661 168.231C34.2906 170.063 33.0816 171.632 31.4545 172.658L24.5225 177.543L22.986 175.517L29.9302 170.62C31.1513 169.919 32.082 168.807 32.5555 167.483C32.6485 166.852 32.6036 166.209 32.4241 165.597C32.2445 164.985 31.9344 164.419 31.515 163.937C31.1982 163.392 30.7692 162.92 30.2563 162.552C29.7433 162.184 29.1581 161.928 28.539 161.802C27.1252 161.812 25.7598 162.316 24.6797 163.225L17.7476 168.123L16.2959 166.096L23.2401 161.199C24.7416 159.993 26.6233 159.356 28.5511 159.402C30.2206 159.522 31.7933 160.608 33.2692 162.707C34.7452 164.806 35.2896 166.627 34.8661 168.231Z" fill="#1D1D1B"/>
<path d="M25.8652 151.887C26.0208 153.036 26.0208 154.2 25.8652 155.349L23.736 154.818C23.8928 153.851 23.8928 152.866 23.736 151.899C23.5539 150.864 23.2324 149.857 22.7802 148.908C22.39 147.963 21.7656 147.133 20.9656 146.495C20.6772 146.254 20.3254 146.101 19.9522 146.054C19.5789 146.007 19.1999 146.068 18.8605 146.23C18.6467 146.318 18.4553 146.452 18.3004 146.623C18.1455 146.794 18.031 146.998 17.9653 147.219C17.8554 147.699 17.8554 148.198 17.9653 148.679C18.0621 149.209 18.2314 149.885 18.4613 150.693L18.5823 151.127C18.9774 152.403 19.233 153.717 19.3444 155.047C19.4301 155.848 19.2831 156.656 18.921 157.375C18.5497 157.97 18.0052 158.437 17.3604 158.714C16.7026 159.074 15.9552 159.238 15.2068 159.187C14.4583 159.135 13.7404 158.871 13.1382 158.425C11.8008 157.413 10.7468 156.076 10.0775 154.541C9.62241 153.554 9.31664 152.505 9.17012 151.429C9.00421 150.339 8.96362 149.234 9.04915 148.136L11.1542 148.739C11.105 149.602 11.1496 150.467 11.2873 151.32C11.4329 152.154 11.6892 152.966 12.0494 153.733C12.4523 154.77 13.1296 155.678 14.0093 156.362C14.315 156.598 14.6807 156.745 15.0654 156.785C15.4501 156.826 15.8384 156.759 16.1869 156.591C16.5538 156.433 16.8445 156.139 16.9975 155.771C17.1613 155.286 17.1947 154.766 17.0942 154.263C16.9562 153.387 16.7458 152.524 16.4651 151.682C16.1736 150.69 15.9353 149.684 15.7514 148.666C15.6066 147.792 15.6688 146.895 15.9328 146.049C16.0795 145.602 16.3222 145.193 16.644 144.849C16.9658 144.505 17.3589 144.235 17.7959 144.059C18.5854 143.678 19.4812 143.576 20.3365 143.769C21.2542 144.004 22.0905 144.484 22.756 145.156C23.6042 145.994 24.2856 146.985 24.7643 148.075C25.3207 149.284 25.6919 150.569 25.8652 151.887Z" fill="#1D1D1B"/>
<path d="M6.04904 136.303L18.9696 132.684L19.6108 135.012L6.70233 138.631L8.22666 144.107L6.18212 144.674L2.41968 131.333L4.46422 130.766L6.04904 136.303Z" fill="#1D1D1B"/>
<path d="M15.9813 122.685C15.4708 124.033 14.5957 125.215 13.4528 126.098C12.2811 126.986 10.8791 127.522 9.41211 127.642C7.96641 127.812 6.50211 127.567 5.1908 126.937C3.87949 126.307 2.7755 125.317 2.00821 124.084C1.19968 122.744 0.699936 121.241 0.545109 119.685C0.390281 118.129 0.584241 116.558 1.11296 115.085C1.61974 113.725 2.50424 112.536 3.66318 111.659C4.82211 110.781 6.20763 110.25 7.65792 110.128C9.11735 109.967 10.5927 110.218 11.9164 110.851C13.2151 111.492 14.3118 112.477 15.086 113.698C15.8951 115.036 16.3953 116.536 16.5501 118.091C16.705 119.645 16.5106 121.214 15.9813 122.685ZM13.3076 115.097C12.7473 114.223 11.9504 113.525 11.009 113.083C10.0314 112.63 8.94596 112.458 7.87568 112.588C6.80432 112.671 5.77762 113.052 4.9117 113.686C4.08167 114.303 3.44065 115.138 3.06072 116.099C2.67639 117.168 2.53562 118.31 2.64861 119.441C2.76161 120.572 3.12553 121.663 3.71401 122.636C4.27456 123.533 5.08632 124.246 6.0489 124.687C7.01885 125.138 8.09466 125.313 9.15805 125.193C10.2338 125.105 11.264 124.721 12.1341 124.084C12.9665 123.469 13.608 122.633 13.9851 121.671C14.3768 120.596 14.5193 119.445 14.4019 118.307C14.2846 117.168 13.9105 116.071 13.3076 115.097Z" fill="#1D1D1B"/>
<path d="M17.2516 90.9488L5.35936 89.5255L15.0377 96.0029L14.7473 98.4153L3.85922 102.432L15.7272 103.843L15.4369 106.256L0 104.386L0.387132 101.153L12.0979 96.8834L1.73 89.9597L2.11713 86.7271L17.5298 88.5605L17.2516 90.9488Z" fill="#1D1D1B"/>
<path d="M22.5867 72.9644L18.8001 84.4356L4.05273 79.6107L7.77888 68.3325L9.79923 68.9959L6.82315 77.9702L11.1058 79.3815L13.6706 71.6255L15.6667 72.2769L13.1019 80.0329L17.5298 81.4924L20.5663 72.301L22.5867 72.9644Z" fill="#1D1D1B"/>
<path d="M30.2447 58.1881L28.8051 60.9021L20.2035 62.1927L18.9937 64.5328L25.1999 67.8258L23.9901 69.9608L10.259 62.7235L13.8279 55.9928C14.2546 55.1346 14.8611 54.3778 15.6063 53.7733C16.2291 53.2661 16.985 52.9479 17.7839 52.8566C18.5484 52.801 19.3134 52.9589 19.9929 53.3126C20.6724 53.6663 21.2397 54.2017 21.631 54.8589C22.0144 55.5428 22.1988 56.3198 22.1633 57.1025C22.1227 58.0154 21.8833 58.9086 21.4617 59.72L30.2447 58.1881ZM17.0217 63.5437L19.4413 58.9359C19.8196 58.3095 19.9771 57.5751 19.8889 56.8492C19.8294 56.557 19.7036 56.2822 19.5212 56.046C19.3388 55.8097 19.1045 55.6182 18.8364 55.4861C18.5805 55.3346 18.2913 55.2476 17.994 55.2329C17.6967 55.2182 17.4003 55.2762 17.1306 55.4017C16.5119 55.7567 16.0209 56.2969 15.7273 56.9457L13.3077 61.5534L17.0217 63.5437Z" fill="#1D1D1B"/>
<path d="M40.2859 45.4748L38.6285 47.3323L22.4536 42.218L24.1957 40.1915L37.2614 44.5098L31.4544 32.0857L33.1965 30.1558L40.2859 45.4748Z" fill="#1D1D1B"/>
<path d="M48.2704 36.5726C46.8395 36.8613 45.356 36.7459 43.9873 36.2393C42.6186 35.7326 41.419 34.855 40.5236 33.7052C39.6282 32.5554 39.0726 31.1792 38.9195 29.7315C38.7663 28.2839 39.0217 26.8223 39.6567 25.5116C40.3631 24.1185 41.3709 22.8993 42.6073 21.9418C43.8438 20.9843 45.2781 20.3126 46.8066 19.9751C48.2389 19.6762 49.7273 19.7949 51.0938 20.3168C52.4604 20.8387 53.6474 21.7418 54.5129 22.9182C55.43 24.062 56.0008 25.4429 56.1583 26.8987C56.3043 28.3312 56.0489 29.776 55.4203 31.0723C54.7231 32.472 53.7181 33.6969 52.4802 34.6555C51.2422 35.6141 49.8032 36.2818 48.2704 36.6088V36.5726ZM53.3153 30.3123C53.755 29.3717 53.9226 28.3273 53.7992 27.2968C53.6423 26.2374 53.2135 25.2365 52.5542 24.3911C51.895 23.5457 51.0278 22.8846 50.0367 22.4719C49.0698 22.1002 48.0172 22.0082 47.0002 22.2066C45.8855 22.4498 44.8392 22.9376 43.9373 23.6345C43.0354 24.3314 42.3005 25.2199 41.786 26.2353C41.3314 27.1758 41.1592 28.2272 41.29 29.2629C41.4423 30.3222 41.868 31.3238 42.5255 32.1697C43.1829 33.0155 44.0495 33.6765 45.0403 34.0878C46.013 34.4701 47.0752 34.5664 48.1011 34.3652C49.2182 34.1239 50.2666 33.6355 51.1691 32.9361C52.0716 32.2367 52.805 31.3442 53.3153 30.3244V30.3123Z" fill="#1D1D1B"/>
<path d="M62.4129 27.5622L54.7307 14.1008L56.8236 12.8945L64.5058 26.3439L62.4129 27.5622Z" fill="#1D1D1B"/>
<path d="M81.5518 13.7271L81.455 14.9333C81.169 16.3783 80.5196 17.7272 79.5678 18.8535C78.535 19.9671 77.2719 20.8438 75.8658 21.4227L75.5029 21.5675C74.0675 22.1376 72.516 22.3568 70.9783 22.2068C69.5605 22.0587 68.2099 21.5292 67.0707 20.6749C65.9154 19.796 65.0344 18.608 64.5301 17.2492C63.97 15.8772 63.8269 14.3713 64.1188 12.9189C64.3761 11.5003 65.0303 10.1832 66.006 9.1193C67.0614 7.96545 68.3755 7.07681 69.8411 6.52592C71.4728 5.8479 73.2635 5.64302 75.0069 5.93488C76.6605 6.21679 78.1884 6.99532 79.3863 8.16638L76.8941 9.17961C76.0687 8.50546 75.0638 8.08624 74.0027 7.97339C72.8532 7.87235 71.6962 8.04603 70.6274 8.48C69.5228 8.87697 68.5338 9.53994 67.7481 10.41C67.0522 11.1872 66.5908 12.1447 66.4174 13.1722C66.2482 14.2281 66.3781 15.3101 66.7924 16.2963C67.1758 17.2816 67.8044 18.1533 68.6192 18.8294C69.4222 19.4451 70.3817 19.8253 71.3896 19.927C72.4768 20.058 73.5797 19.9299 74.6076 19.5531L74.9706 19.4083C75.9981 18.9762 76.9188 18.3258 77.6684 17.5025C78.3951 16.7359 78.8498 15.7529 78.9629 14.7041L81.5518 13.7271Z" fill="#1D1D1B"/>
<path d="M98.5615 15.1622L86.6693 17.454L83.7295 2.24357L95.4161 0L95.8274 2.0747L86.4878 3.87196L87.3468 8.28673L95.3919 6.74277L95.7911 8.79334L87.746 10.3494L88.6291 14.9209L98.1623 13.0875L98.5615 15.1622Z" fill="#1D1D1B"/>
<path d="M102.094 14.8487C101.941 14.7383 101.814 14.5957 101.722 14.4311C101.63 14.2665 101.575 14.0838 101.562 13.8958C101.546 13.7062 101.571 13.5155 101.636 13.3365C101.701 13.1575 101.803 12.9945 101.937 12.8585C102.224 12.5622 102.613 12.3855 103.026 12.3639C103.43 12.3286 103.833 12.4495 104.151 12.7017C104.297 12.819 104.418 12.965 104.505 13.1308C104.592 13.2966 104.644 13.4786 104.658 13.6653C104.671 13.852 104.646 14.0396 104.584 14.2162C104.522 14.3928 104.424 14.5548 104.296 14.6919C104.007 14.974 103.627 15.1446 103.224 15.1733C102.82 15.202 102.42 15.087 102.094 14.8487Z" fill="#1D1D1B"/>
<path d="M67.0464 119.573L61.7596 117.51L60.9612 118.101L63.8405 121.949L61.6992 123.565L53.521 112.625L56.5576 110.357C59.4852 108.198 61.5661 108.15 63.2961 110.454L63.7316 111.033C64.3104 111.629 64.6419 112.422 64.6598 113.251C64.6778 114.081 64.3808 114.887 63.8284 115.508L69.5991 117.691L67.0464 119.573ZM60.4894 115.641C62.0621 114.434 62.1226 113.662 61.3483 112.625L61.0701 112.251C60.2958 111.214 59.5941 110.9 57.9246 112.143L56.9931 112.83L59.5941 116.316L60.4894 115.641Z" fill="#1D1D1B"/>
<path d="M69.87 100.227L62.9307 105.417L64.2082 107.115L71.1476 101.926L69.87 100.227Z" fill="#1D1D1B"/>
<path d="M71.8372 113.252L69.6717 110.369L73.7608 107.329L72.4421 105.568L66.1875 110.212L71.0025 116.641L78.1765 111.31L76.8336 109.525L71.8372 113.252Z" fill="#1D1D1B"/>
<path d="M77.1119 95.0741L82.1446 101.793L73.8092 97.5348L71.6558 99.1391L79.8339 110.055L81.9753 108.463L77.0635 101.901L85.3385 105.966L87.4314 104.398L79.2653 93.4819L77.1119 95.0741Z" fill="#1D1D1B"/>
<path d="M87.1047 99.7422L83.6326 95.1104C81.9026 92.7944 82.3019 91.0213 85.2175 88.8501C88.133 86.6789 90.0566 86.7271 91.7987 89.0431L95.2587 93.675C96.9524 95.9306 96.4685 97.8726 93.5771 100.008C90.6857 102.143 88.7379 101.998 87.1047 99.7422ZM93.0206 95.1827L89.7058 90.7559C88.9557 89.7547 88.1935 89.3205 86.5119 90.575C84.8303 91.8294 85.1086 92.6014 85.8949 93.6026L89.2097 98.0294C89.9961 99.0668 90.7341 99.4407 92.3068 98.2707C93.8795 97.1006 93.819 96.2201 93.0448 95.1827" fill="#1D1D1B"/>
<path d="M99.3115 78.561L104.247 91.9139L101.985 93.5905L90.5405 85.0867L92.7544 83.4462L100.582 89.3688L97.0976 80.2136L99.3115 78.561Z" fill="#1D1D1B"/>
<path d="M107.497 72.4518L100.545 77.624L101.819 79.3255L108.771 74.1532L107.497 72.4518Z" fill="#1D1D1B"/>
<path d="M109.559 85.1711L107.405 82.2882L111.482 79.2606L110.163 77.4995L103.921 82.1434L108.736 88.5726L115.898 83.2411L114.567 81.4559L109.559 85.1711Z" fill="#1D1D1B"/>
<path d="M116.343 65.8732L109.391 71.0454L110.664 72.7469L117.616 67.5746L116.343 65.8732Z" fill="#1D1D1B"/>
<path d="M118.414 78.5972L116.261 75.7143L120.338 72.6747L119.019 70.9136L112.776 75.5575L117.579 81.9867L124.753 76.6552L123.422 74.87L118.414 78.5972Z" fill="#1D1D1B"/>
<path d="M123.701 60.4319L128.722 67.1505L120.386 62.8926L118.233 64.4848L126.411 75.4132L128.552 73.8089L123.64 67.247L131.915 71.312L134.02 69.7439L125.842 58.8276L123.701 60.4319Z" fill="#1D1D1B"/>
<path d="M133.657 65.1358L130.185 60.5039C128.455 58.188 128.855 56.4148 131.782 54.2436C134.71 52.0725 136.621 52.1207 138.351 54.4366L141.811 59.0685C143.505 61.3241 143.021 63.2662 140.13 65.4012C137.238 67.5362 135.291 67.3914 133.657 65.1358ZM139.573 60.5763L136.258 56.1495C135.508 55.1604 134.746 54.7261 133.077 55.9685C131.407 57.2109 131.686 57.995 132.423 58.9961L135.738 63.423C136.525 64.4603 137.263 64.8342 138.835 63.6763C140.408 62.5183 140.348 61.6136 139.573 60.5763Z" fill="#1D1D1B"/>
<path d="M157.539 89.0554L162.85 91.0215L163.636 90.4184L160.696 86.6188L162.838 84.9663L171.197 95.8223L168.161 98.09C165.281 100.309 163.2 100.382 161.422 98.09L160.987 97.5231C160.398 96.9359 160.053 96.1485 160.022 95.3186C159.99 94.4888 160.274 93.6778 160.817 93.048L155.01 90.9612L157.539 89.0554ZM164.144 92.8791C162.608 94.0853 162.547 94.8935 163.346 95.9188L163.624 96.2807C164.41 97.3059 165.124 97.6196 166.781 96.2807L167.701 95.569L165.039 92.1433L164.144 92.8791Z" fill="#1D1D1B"/>
<path d="M160.692 101.18L153.826 106.465L155.127 108.145L161.993 102.86L160.692 101.18Z" fill="#1D1D1B"/>
<path d="M152.845 95.4605L155.058 98.3072L151.03 101.407L152.373 103.144L158.543 98.3916L153.619 92.0469L146.542 97.499L147.909 99.2601L152.845 95.4605Z" fill="#1D1D1B"/>
<path d="M147.873 113.71L142.731 107.076L151.139 111.189L153.256 109.561L144.909 98.7773L142.791 100.406L147.8 106.883L139.464 102.963L137.396 104.555L145.743 115.339L147.873 113.71Z" fill="#1D1D1B"/>
<path d="M137.831 109.211L141.376 113.783C143.142 116.062 142.767 117.86 139.888 120.067C137.009 122.274 135.049 122.274 133.319 119.983L129.774 115.411C128.044 113.179 128.564 111.225 131.347 109.042C134.129 106.859 136.101 106.979 137.831 109.211ZM131.988 113.867L135.375 118.209C136.137 119.186 136.912 119.609 138.569 118.33C140.227 117.051 139.924 116.279 139.162 115.29L135.775 110.972C134.976 109.935 134.226 109.573 132.677 110.767C131.129 111.961 131.189 112.854 131.988 113.879" fill="#1D1D1B"/>
<path d="M125.939 130.585L120.797 117.317L123.023 115.604L134.613 123.915L132.423 125.592L124.499 119.802L128.129 128.897L125.939 130.585Z" fill="#1D1D1B"/>
<path d="M123.421 129.857L116.555 135.143L117.857 136.823L124.723 131.538L123.421 129.857Z" fill="#1D1D1B"/>
<path d="M115.583 124.144L117.797 126.991L113.769 130.091L115.111 131.828L121.281 127.075L116.358 120.73L109.28 126.183L110.647 127.944L115.583 124.144Z" fill="#1D1D1B"/>
<path d="M114.693 136.587L107.827 141.872L109.128 143.552L115.994 138.267L114.693 136.587Z" fill="#1D1D1B"/>
<path d="M106.848 130.863L109.05 133.71L105.022 136.81L106.377 138.559L112.547 133.806L107.623 127.461L100.545 132.914L101.912 134.675L106.848 130.863Z" fill="#1D1D1B"/>
<path d="M101.864 149.125L96.7225 142.478L105.13 146.604L107.26 144.963L98.9122 134.18L96.783 135.82L101.804 142.298L93.4681 138.365L91.3994 139.97L99.7469 150.753L101.864 149.125Z" fill="#1D1D1B"/>
<path d="M91.8351 144.626L95.3676 149.198C97.146 151.477 96.771 153.262 93.8917 155.482C91.0124 157.701 89.0525 157.677 87.3104 155.397L83.7779 150.778C82.0479 148.546 82.5681 146.592 85.3506 144.409C88.1331 142.226 90.1051 142.346 91.8351 144.578V144.626ZM85.9918 149.234L89.3792 153.6C90.1413 154.589 90.9035 154.999 92.5609 153.733C94.2183 152.466 93.9159 151.67 93.1537 150.693L89.7663 146.315C88.9799 145.289 88.2299 144.927 86.6814 146.122C85.1328 147.316 85.1933 148.196 85.9918 149.234Z" fill="#1D1D1B"/>
<path d="M177.04 53.8335L40.8909 158.654" stroke="#1D1D1B" stroke-miterlimit="10"/>
</svg>
