<svg width="66" height="16" fill="none" xmlns="http://www.w3.org/2000/svg"><path d="M7.073.04c1.744 0 3.304.328 4.68.984 1.376.656 2.456 1.584 3.24 2.784.784 1.2 1.176 2.6 1.176 4.2s-.392 3.008-1.176 4.224c-.784 1.2-1.864 2.128-3.24 2.784-1.376.656-2.936.984-4.68.984H.593V.04h6.48zm0 13.752c1.312 0 2.464-.24 3.456-.72s1.752-1.152 2.28-2.016c.544-.88.816-1.896.816-3.048 0-1.136-.272-2.136-.816-3-.528-.88-1.288-1.56-2.28-2.04-.992-.48-2.144-.72-3.456-.72H3.065v11.544h4.008zm15.008-1.68L20.257 16h-2.76L24.817.04h2.616L34.753 16h-2.736l-1.776-3.888h-8.16zm4.056-9.24l-3.048 7.08h6.168l-3.12-7.08zm16.774-.648V16h-2.495V2.224H34.56V.04h14.23v2.184h-5.88zm10.249 9.888L51.334 16h-2.76L55.895.04h2.616L65.831 16h-2.736l-1.776-3.888h-8.16zm4.055-9.24l-3.048 7.08h6.168l-3.12-7.08z" fill="#fff"/></svg>