<svg width="197" height="14" fill="none" xmlns="http://www.w3.org/2000/svg"><path d="M7.244 13.216c-1.26 0-2.4-.257-3.42-.773-1.008-.516-1.8-1.236-2.376-2.16-.576-.925-.864-1.975-.864-3.15 0-1.165.288-2.203.864-3.115.576-.924 1.368-1.644 2.376-2.16 1.02-.516 2.16-.774 3.42-.774 1.272 0 2.412.258 3.42.774 1.02.516 1.818 1.236 2.394 2.16.576.912.864 1.95.864 3.114 0 1.176-.288 2.226-.864 3.15-.576.925-1.374 1.645-2.394 2.16-1.008.517-2.148.774-3.42.774zm0-1.655c.936 0 1.77-.187 2.502-.559.744-.372 1.32-.894 1.728-1.566.42-.672.63-1.44.63-2.304 0-.852-.21-1.614-.63-2.286-.408-.672-.984-1.194-1.728-1.566-.732-.372-1.566-.558-2.502-.558-.912 0-1.74.186-2.484.558a4.279 4.279 0 00-1.728 1.566c-.408.672-.612 1.434-.612 2.286 0 .864.204 1.632.612 2.304.42.672.996 1.194 1.728 1.566.732.372 1.56.558 2.484.558zm.054-.918c-.72 0-1.374-.15-1.962-.45a3.378 3.378 0 01-1.35-1.243A3.465 3.465 0 013.5 7.132c0-.672.162-1.272.486-1.8.336-.54.792-.96 1.368-1.26.588-.3 1.242-.45 1.962-.45a3.59 3.59 0 011.818.486c.576.324 1.05.762 1.422 1.314l-1.476.954c-.48-.732-1.068-1.098-1.764-1.098-.576 0-1.05.174-1.422.522-.36.348-.54.792-.54 1.332 0 .552.18 1.002.54 1.35.36.348.828.522 1.404.522.756 0 1.368-.372 1.836-1.116l1.494.918a4.13 4.13 0 01-1.458 1.35 3.821 3.821 0 01-1.872.486zM25.207 13H16.91v-1.188l-.162-.18 4.95-4.536c.384-.372.66-.696.828-.972.18-.288.27-.606.27-.954 0-.564-.18-1.008-.54-1.332-.36-.336-.852-.504-1.476-.504-.516 0-1.002.138-1.458.414-.444.276-.828.66-1.152 1.152l-1.638-1.188a4.917 4.917 0 011.854-1.692 5.039 5.039 0 012.43-.612c.792 0 1.506.15 2.142.45a3.46 3.46 0 011.494 1.314c.372.564.558 1.242.558 2.034 0 .66-.138 1.236-.414 1.728-.276.48-.726 1.008-1.35 1.584l-2.79 2.574h4.752v1.909zm8.176.216c-1.02 0-1.938-.245-2.754-.737-.816-.504-1.458-1.206-1.926-2.106-.456-.9-.684-1.927-.684-3.079 0-1.152.228-2.172.684-3.06.468-.9 1.11-1.596 1.926-2.088.816-.492 1.734-.738 2.754-.738s1.938.252 2.754.756c.816.492 1.452 1.188 1.908 2.088.468.888.702 1.902.702 3.042s-.234 2.16-.702 3.06c-.456.9-1.092 1.603-1.908 2.107-.816.503-1.734.755-2.754.755zm0-1.943a2.78 2.78 0 001.638-.505c.48-.336.858-.804 1.134-1.404.276-.612.414-1.302.414-2.07 0-.768-.138-1.452-.414-2.052-.276-.6-.654-1.068-1.134-1.404a2.787 2.787 0 00-1.638-.504c-.612 0-1.158.168-1.638.504-.48.336-.858.804-1.134 1.404-.264.6-.396 1.284-.396 2.052 0 .78.132 1.47.396 2.07.276.6.654 1.068 1.134 1.404.48.336 1.026.505 1.638.505zM49.641 13h-8.298v-1.188l-.162-.18 4.95-4.536c.384-.372.66-.696.828-.972.18-.288.27-.606.27-.954 0-.564-.18-1.008-.54-1.332-.36-.336-.852-.504-1.476-.504-.516 0-1.002.138-1.458.414-.444.276-.828.66-1.152 1.152l-1.638-1.188a4.917 4.917 0 011.854-1.692 5.039 5.039 0 012.43-.612c.792 0 1.506.15 2.142.45a3.46 3.46 0 011.494 1.314c.372.564.558 1.242.558 2.034 0 .66-.138 1.236-.414 1.728-.276.48-.726 1.008-1.35 1.584l-2.79 2.574h4.752v1.909zm8.176.216c-1.02 0-1.938-.245-2.754-.737-.816-.504-1.458-1.206-1.926-2.106-.456-.9-.684-1.927-.684-3.079 0-1.152.228-2.172.684-3.06.468-.9 1.11-1.596 1.926-2.088.816-.492 1.734-.738 2.754-.738s1.938.252 2.754.756c.816.492 1.452 1.188 1.908 2.088.468.888.702 1.902.702 3.042s-.234 2.16-.702 3.06c-.456.9-1.092 1.603-1.908 2.107-.816.503-1.734.755-2.754.755zm0-1.943a2.78 2.78 0 001.638-.505c.48-.336.858-.804 1.134-1.404.276-.612.414-1.302.414-2.07 0-.768-.138-1.452-.414-2.052-.276-.6-.654-1.068-1.134-1.404a2.787 2.787 0 00-1.638-.504c-.612 0-1.158.168-1.638.504-.48.336-.858.804-1.134 1.404-.264.6-.396 1.284-.396 2.052 0 .78.132 1.47.396 2.07.276.6.654 1.068 1.134 1.404.48.336 1.026.505 1.638.505zM81.575 13H78.82l-3.87-5.238h-1.71l-.018 5.256H71.08V1.048h5.886c.84 0 1.566.144 2.178.432.624.276 1.098.666 1.422 1.17.336.504.504 1.086.504 1.746 0 .924-.318 1.692-.954 2.304-.624.612-1.494.96-2.61 1.044l4.068 5.257zM73.24 5.819h3.726c.6 0 1.068-.126 1.404-.378.336-.264.504-.618.504-1.062 0-.444-.168-.786-.504-1.026-.324-.252-.792-.378-1.404-.378H73.24v2.844zM93.538 13h-9.414V1.03h9.27v1.944h-7.11V5.98h6.12v1.944h-6.12v3.132h7.254v1.945zm13.668 0h-1.836l-6.606-8.262V13h-2.16V1.03h1.854l6.588 8.244V1.03h2.16V13zm9.84.216c-1.296 0-2.46-.257-3.492-.773-1.032-.528-1.842-1.266-2.43-2.214-.576-.949-.864-2.023-.864-3.223 0-1.2.288-2.268.864-3.204a5.9 5.9 0 012.43-2.196c1.032-.528 2.196-.792 3.492-.792 1.296 0 2.454.264 3.474.792 1.032.516 1.836 1.248 2.412 2.196.588.936.882 2.004.882 3.204 0 1.2-.294 2.274-.882 3.223-.576.936-1.38 1.668-2.412 2.196-1.02.527-2.178.791-3.474.791zm0-1.98c.888 0 1.674-.174 2.358-.522a3.983 3.983 0 001.62-1.494c.384-.648.576-1.386.576-2.214 0-.828-.192-1.56-.576-2.196a3.863 3.863 0 00-1.62-1.476c-.684-.36-1.47-.54-2.358-.54-.888 0-1.68.18-2.376.54a3.828 3.828 0 00-1.62 1.494c-.384.636-.576 1.362-.576 2.178 0 .828.192 1.566.576 2.214a3.983 3.983 0 001.62 1.494c.696.348 1.488.522 2.376.522zM132.237 13h-2.106l-5.292-11.97h2.394l3.942 9.18 3.942-9.18h2.394L132.237 13zm17.287 0h-9.414V1.03h9.27v1.944h-7.11V5.98h6.12v1.944h-6.12v3.132h7.254v1.945zm12.48 0h-9.414V1.03h9.27v1.944h-7.11V5.98h6.12v1.944h-6.12v3.132h7.254v1.945zm13.669 0h-1.836l-6.606-8.262V13h-2.16V1.03h1.854l6.588 8.244V1.03h2.16V13zm9.84.216c-1.296 0-2.46-.257-3.492-.773-1.032-.528-1.842-1.266-2.43-2.214-.576-.949-.864-2.023-.864-3.223 0-1.2.288-2.268.864-3.204a5.9 5.9 0 012.43-2.196c1.032-.528 2.196-.792 3.492-.792 1.296 0 2.454.264 3.474.792 1.032.516 1.836 1.248 2.412 2.196.588.936.882 2.004.882 3.204 0 1.2-.294 2.274-.882 3.223-.576.936-1.38 1.668-2.412 2.196-1.02.527-2.178.791-3.474.791zm0-1.98c.888 0 1.674-.174 2.358-.522a3.983 3.983 0 001.62-1.494c.384-.648.576-1.386.576-2.214 0-.828-.192-1.56-.576-2.196a3.863 3.863 0 00-1.62-1.476c-.684-.36-1.47-.54-2.358-.54-.888 0-1.68.18-2.376.54a3.828 3.828 0 00-1.62 1.494c-.384.636-.576 1.362-.576 2.178 0 .828.192 1.566.576 2.214a3.983 3.983 0 001.62 1.494c.696.348 1.488.522 2.376.522zm9.446 1.944c-.372 0-.69-.12-.954-.36a1.151 1.151 0 01-.378-.864c0-.348.126-.636.378-.864.252-.24.57-.36.954-.36.372 0 .684.12.936.36.264.24.396.528.396.864 0 .337-.132.625-.396.864-.252.24-.564.36-.936.36z" opacity=".9" fill="#fff"/></svg>