<svg width="110" height="94" fill="none" xmlns="http://www.w3.org/2000/svg"><path d="M108.857 47c0 25.65-22.288 46.5-49.857 46.5C31.432 93.5 9.143 72.65 9.143 47S31.432.5 59 .5c27.57 0 49.857 20.85 49.857 46.5z" fill="#639CD1" stroke="#333"/><path d="M5.903 84.136c5.696 0 12.8-8.704 20.032-19.328 5.568-1.92 11.584-5.696 18.048-14.528h-.448c-6.144 8.448-11.968 12.16-17.28 14.016 7.68-11.328 15.424-24.64 21.632-32h-4.544c-.832 1.024-1.856 2.496-3.008 4.288l.064-.896c0-1.984-1.024-3.392-3.648-3.392-8 .064-14.336 7.488-20.608 17.984-1.984 3.328-3.776 7.616-3.776 10.688 0 2.368 1.024 4.032 3.84 4.032 3.584 0 8.512-4.864 12.416-9.6l-6.464 10.048c-8.704 1.856-15.872.384-21.056 10.368-.512 1.28-.832 2.496-.832 3.584 0 2.752 1.728 4.736 5.632 4.736zm-.64-.448c-3.008 0-4.544-1.856-4.544-4.352 0-1.088.256-2.24.768-3.392 4.672-9.536 11.712-8.192 20.352-10.048-6.528 9.792-12.864 17.792-16.576 17.792zm11.264-19.136c-1.408 0-1.984-.64-1.984-1.92 0-3.008 3.712-8.896 5.888-12.352 5.952-9.408 12.352-17.024 16-17.6 2.624 0 3.52 1.28 3.52 3.072l-.192 1.728c-2.816 4.352-5.504 8.704-9.216 14.848-2.944 4.16-9.856 12.224-14.016 12.224z" fill="#fff" fill-opacity=".7"/><path d="M62.91 27.112c1.344 0 2.432-1.344 2.432-2.432 0-.576-.32-1.088-1.088-1.216l-.384-.064c-1.344 0-2.368 1.408-2.368 2.496 0 .768.384 1.152 1.408 1.216zM43.966 64.936c5.504 0 12.16-9.408 16.192-14.656h-.384c-4.8 6.464-10.752 14.272-15.68 14.272-2.112 0-2.88-1.024-2.88-2.624 0-3.072 3.072-8.128 5.76-11.648C52.67 42.664 60.67 32.296 60.67 32.296h-4.608c-3.136 4.096-8.064 11.392-12.544 17.984-2.816 4.032-4.544 7.872-4.544 10.56 0 2.496 1.472 4.096 4.992 4.096z" fill="#fff" fill-opacity=".7"/><path d="M33.592 84.136l1.472-.064c8.896-.32 19.456-4.544 24.832-13.568 1.152-1.984 2.112-4.416 2.112-6.592 0-1.472-.384-2.752-1.408-3.776 4.736-2.048 10.24-4.224 14.08-9.856h-.448c-3.904 5.632-9.344 7.616-14.016 9.6l-.064.448c1.024.96 1.408 2.24 1.408 3.584 0 2.112-.896 4.544-1.984 6.4C54.712 78.376 45.56 82.6 37.304 83.496c17.664-7.04 41.152-70.208 59.712-70.464l.064-.448c-25.664.384-49.472 71.104-63.424 71.104l-.064.448z" fill="#fff" fill-opacity=".7"/><path d="M74.59 64.936c5.567 0 12.224-9.408 16.255-14.656h-.448c-4.736 6.464-10.688 14.272-15.616 14.272-2.047 0-2.88-1.024-2.88-2.624 0-3.072 3.073-8.128 5.697-11.648 2.88-3.776 9.407-12.992 15.36-21.312h4.992v-.448h-4.672l11.2-15.744h-4.48c-1.217 1.984-5.633 8.576-10.56 15.744h-7.105v.448h6.785c-5.825 8.576-12.352 17.856-14.912 21.312-2.88 3.904-4.609 7.68-4.609 10.432 0 2.56 1.473 4.224 4.993 4.224z" fill="#fff" fill-opacity=".7"/><path d="M47.663 60.432c-2.04 0-3.876-.492-5.508-1.476-1.632-1.008-2.916-2.412-3.852-4.212-.912-1.8-1.368-3.852-1.368-6.156s.456-4.344 1.368-6.12c.936-1.8 2.22-3.192 3.852-4.176 1.632-.984 3.468-1.476 5.508-1.476s3.876.504 5.508 1.512c1.632.984 2.904 2.376 3.816 4.176.936 1.776 1.404 3.804 1.404 6.084s-.468 4.32-1.404 6.12c-.912 1.8-2.184 3.204-3.816 4.212-1.632 1.008-3.468 1.512-5.508 1.512zm0-3.888c1.224 0 2.316-.336 3.276-1.008.96-.672 1.716-1.608 2.268-2.808.552-1.224.828-2.604.828-4.14 0-1.536-.276-2.904-.828-4.104-.552-1.2-1.308-2.136-2.268-2.808-.96-.672-2.052-1.008-3.276-1.008-1.224 0-2.316.336-3.276 1.008-.96.672-1.716 1.608-2.268 2.808-.528 1.2-.792 2.568-.792 4.104 0 1.56.264 2.94.792 4.14.552 1.2 1.308 2.136 2.268 2.808.96.672 2.052 1.008 3.276 1.008zM77.881 48.3c1.008.576 1.788 1.308 2.34 2.196.552.864.828 1.836.828 2.916a5.934 5.934 0 01-1.224 3.672c-.816 1.056-1.968 1.884-3.456 2.484-1.464.576-3.156.864-5.076.864-1.848 0-3.528-.324-5.04-.972-1.488-.672-2.724-1.56-3.708-2.664l2.916-2.7c1.44 1.632 3.372 2.448 5.796 2.448 1.656 0 2.964-.288 3.924-.864.984-.576 1.476-1.356 1.476-2.34 0-.888-.468-1.608-1.404-2.16-.936-.552-2.208-.828-3.816-.828H67.01V46.5h4.32c1.44 0 2.58-.252 3.42-.756.864-.504 1.296-1.2 1.296-2.088 0-.888-.432-1.608-1.296-2.16-.84-.552-2.028-.828-3.564-.828-1.152 0-2.16.204-3.024.612a5.264 5.264 0 00-2.088 1.728l-3.24-2.376c.864-1.2 2.028-2.136 3.492-2.808 1.464-.672 3.084-1.008 4.86-1.008 1.776 0 3.36.288 4.752.864 1.416.552 2.508 1.344 3.276 2.376.792 1.032 1.188 2.208 1.188 3.528 0 .936-.228 1.812-.684 2.628a6.088 6.088 0 01-1.836 2.088z" fill="#333"/></svg>