<svg width="252" height="96" fill="none" xmlns="http://www.w3.org/2000/svg"><g clip-path="url(#clip0)" fill="#1D1D1B"><path d="M24.777 32.622l-7.06-11.348H15.37v11.348H9V.374h8.952c8.579 0 12.614 2.852 12.614 9.69v1.682c0 4.793-1.85 7.371-6.14 8.627l7.779 12.25h-7.428zM17.952 15.95c4.606 0 5.9-1.437 5.9-4.519v-1.088c0-3.052-.872-4.648-5.814-4.648h-2.722V15.95h2.636zM56.838.374h-20.44v5.027h20.44V.374zM42.768 27.39v-8.503h11.99v-5.195h-18.36v18.964H57.48V27.39H42.768zM78.423.417v19.821L68.694.417h-6.321v32.205h6.321V13.275l9.868 19.347h6.182V.417h-6.321zm12.226 22.87V9.636C90.649 2.805 93.927 0 102.5 0s12.139 2.804 12.139 9.638v13.649c0 6.66-3.69 9.637-12.139 9.637-8.45 0-11.852-2.976-11.852-9.637zm17.622-.283V9.925c0-2.933-.829-4.821-5.751-4.821-4.615 0-5.487 1.888-5.487 4.821v13.079c0 3.072.872 4.826 5.487 4.826s5.751-1.754 5.751-4.826zM143.706.417l-9.561 32.239h-6.642L117.908.417h6.504l6.417 22.246L137.188.418h6.518zm24.082-.043h-20.445v5.027h20.445V.374zm-14.08 27.016v-8.503h11.99v-5.195h-18.355v18.964h21.077V27.39h-14.712zM193.796.374h-20.435v5.027h20.435V.374zM179.73 27.39v-8.503h11.991v-5.195h-18.36v18.964h21.082V27.39H179.73zM215.386.417v19.821L205.658.417h-6.322v32.205h6.322V13.275l9.862 19.347h6.183V.417h-6.317zm12.226 22.87V9.636c0-6.833 3.278-9.637 11.852-9.637 8.573 0 12.129 2.804 12.129 9.638v13.649c0 6.66-3.695 9.637-12.129 9.637-8.435 0-11.852-2.976-11.852-9.637zm17.612-.283V9.925c0-2.933-.824-4.821-5.751-4.821-4.62 0-5.487 1.888-5.487 4.821v13.079c0 3.072.867 4.826 5.487 4.826s5.751-1.754 5.751-4.826z"/></g><path d="M43.998 59.744c.704.064 1.12.192 1.616.48 1.28.768 1.968 2.016 1.968 3.552 0 1.712-.832 3.232-2.224 4-.752.432-1.712.688-3.184.88.512.672.704 1.024.976 1.872 1.12-.192 1.744-.352 2.512-.672 2.448-.992 3.888-3.2 3.888-5.968 0-3.6-2.496-5.936-6.336-5.936-2.272 0-4.16.768-5.504 2.24-1.136 1.248-1.76 2.896-1.76 4.656 0 2.576 1.312 4.432 3.136 4.432 1.312 0 2.336-.944 3.248-3.008.8-1.808 1.36-4.016 1.664-6.528zm-1.952.016c-.192 1.808-.72 3.968-1.328 5.408-.576 1.376-1.12 2.048-1.648 2.048-.704 0-1.264-1.04-1.264-2.352 0-1.712.832-3.36 2.176-4.32.656-.464 1.232-.688 2.064-.784zm11.888.096c.112 0 .192.016.224.016.064 0 .176.016.368.032.784.112 2.112.192 2.928.192 1.008 0 1.696-.032 2.4-.128-.208.128-.224.128-.352.192-.208.128-.256.16-.416.256-.4.224-.576.336-1.584.976l1.392 1.104c1.344-.992 3.312-2.224 4.272-2.64l-.064-1.808c-1.056.224-2.192.304-4.224.304-2.144 0-3.568-.112-4.8-.4l-.144 1.904zm1.184 3.616c-1.44 1.2-2.064 2.256-2.064 3.488 0 1.248.672 2.128 2.048 2.672.848.352 2.256.528 4 .528 1.376 0 2.4-.08 4.32-.368.368-.048.416-.048.704-.064l-.176-2.192c-1.024.4-3.12.688-5.024.688-2.704 0-3.872-.448-3.872-1.488 0-.688.448-1.36 1.456-2.208l-1.392-1.056zm10.992-.656a9.253 9.253 0 00-1.664-2.256l-1.072.56c.624.688 1.152 1.44 1.632 2.32l1.104-.624zm-4.704-.752c.704.768 1.152 1.408 1.68 2.384l1.12-.592c-.544-.992-.976-1.6-1.68-2.352l-1.12.56zm11.024-1.04c.368 0 .64.016 1.008.048v-1.696c-.288.064-.608.08-1.024.08h-.912v-1.312c0-.736.032-1.232.096-1.648H69.71c.064.448.096.816.096 1.664v1.296h-.992c-.544 0-.896-.016-1.184-.08v1.712a7.838 7.838 0 011.168-.064h.784c-.528 1.968-1.408 3.744-2.448 4.992.384.528.608.976.88 1.744.288-.384.576-.864.944-1.632.416-.816.608-1.312.96-2.432-.064.56-.112 1.696-.112 2.4v3.296c0 .816-.032 1.456-.096 1.968h1.888c-.064-.48-.096-1.168-.096-1.968V65.28c0-.88-.016-1.264-.064-2.192.48 1.168.816 1.744 1.52 2.688.256-.72.304-.832.64-1.36.048-.064.112-.176.192-.304-1.072-1.04-1.648-1.888-2.144-3.088h.784zm3.216 10.272v-.944h4.016v.912h1.824a21.942 21.942 0 01-.08-2.032V58.688c0-.736.016-1.168.048-1.632-.336.048-.688.064-1.376.064h-4.8c-.688 0-.992-.016-1.424-.048.048.768.064 1.152.064 1.696v10.48c0 .784-.032 1.456-.08 2.048h1.808zm0-12.544h4.016v2.272h-4.016v-2.272zm0 3.792h4.016V64.8h-4.016v-2.256zm0 3.776h4.016v2.432h-4.016V66.32zm16.88-3.232c.032.304.048.544.048.992 0 1.872-.352 3.12-1.184 4.08-.688.8-1.456 1.28-2.72 1.712v-2.688c0-.592.016-.864.048-1.152-.272.048-.432.048-.96.048h-2.752c-.496 0-.752-.016-1.072-.064.048.432.064.768.064 1.248v2.448c0 .512-.032 1.072-.08 1.568h1.648v-.832h1.584v.656h1.6A13.771 13.771 0 0188.686 70c.288.4.528.88.768 1.456 2.208-.912 3.376-2.08 4.048-4 .8 1.744 2.08 3.024 3.984 3.968.32-.8.48-1.104.912-1.696-1.296-.496-2.288-1.184-3.04-2.096-.752-.912-1.104-2.064-1.104-3.648 0-.336.016-.608.064-.896h-1.792zm-7.008 4.288h1.664v1.696h-1.664v-1.696zm-1.504-8.88c.384-.032.72-.048 1.296-.048h2.048c.576 0 .864.016 1.296.048V56.96c-.384.064-.656.08-1.296.08H85.31c-.64 0-.928-.016-1.296-.08v1.536zm-.624 2.368c.384-.048.72-.064 1.28-.064h3.2c.656 0 .88.016 1.216.064v-1.648c-.384.048-.624.064-1.28.064H84.67c-.592 0-.896-.016-1.28-.08v1.664zm.624 2.224a8.103 8.103 0 011.008-.048h2.624c.464 0 .704.016.992.048V61.6c-.272.032-.48.048-.992.048h-2.624c-.496 0-.704-.016-1.008-.048v1.488zm0 2.224a8.103 8.103 0 011.008-.048h2.608c.48 0 .736.016 1.008.048v-1.488c-.272.032-.48.048-.992.048h-2.624c-.496 0-.704-.016-1.008-.048v1.488zm6.144-7.904c-.192 1.104-.4 1.632-.976 2.544l1.504.608c.528-.944.752-1.52 1.056-2.768l-1.584-.384zm6.224-.192c-.48 1.12-.8 1.648-1.584 2.544.576.24.832.4 1.36.816.768-.928 1.136-1.504 1.776-2.752l-1.552-.608zm-6.304 7.136c-.224 1.136-.512 1.824-1.072 2.624l1.488.672c.512-.848.72-1.36 1.136-2.816l-1.552-.48zm6.288-.16c-.432 1.072-.768 1.664-1.456 2.496.672.32.752.368 1.344.832.736-.928 1.04-1.44 1.648-2.704l-1.536-.624zm-3.808-7.52c.032.352.048.528.048.896 0 1.344-.208 2.272-.704 3.072-.656 1.056-1.552 1.68-3.104 2.192.416.464.624.8.928 1.44 1.296-.592 1.984-1.056 2.656-1.808a6.014 6.014 0 001.104-1.856c.48.944.608 1.136 1.12 1.712.752.832 1.52 1.376 2.72 1.952.272-.672.432-.944.88-1.584-1.008-.352-1.472-.576-2.032-.992-.72-.544-1.2-1.12-1.504-1.808-.24-.512-.4-1.456-.4-2.304 0-.304.016-.592.064-.912h-1.776zm11.76 3.744a22.176 22.176 0 00-.336-1.136c-.464-1.376-.464-1.376-.56-1.888l-1.984.56c.304.56.608 1.408 1.088 2.976-.768.24-.896.272-1.552.496-.784.272-.992.32-1.456.416l.624 1.872c.416-.208 1.488-.64 2.064-.816.56-.192.592-.192.8-.288.992 3.44 1.872 7.232 1.952 8.512l2.112-.48a4.276 4.276 0 01-.24-.768c-.96-4-1.04-4.304-2.032-7.776 2.704-.8 3.664-.992 4.8-.992 1.344 0 2.128.592 2.128 1.6 0 .56-.24 1.056-.656 1.36-.496.336-1.12.528-1.808.528-.816 0-1.6-.192-2.56-.624.224.896.272 1.2.288 1.968.848.288 1.696.448 2.48.448 1.216 0 2.208-.32 2.96-.944a3.63 3.63 0 001.296-2.784c0-1.968-1.488-3.264-3.744-3.264-.32 0-.544.016-.928.048.016-2.064.016-2.064.08-2.56h-2.016c.08.416.08.528.096 1.92.016.56.016.56.016.88-.64.128-.912.192-1.36.304l-1.552.432zm17.04 4.688c1.136-.352 2.112-.528 3.072-.528 1.712 0 2.832.896 2.832 2.272 0 1.024-.672 1.776-1.616 1.776-.448 0-.832-.208-1.008-.544-.16-.304-.224-.736-.224-1.408 0-.256 0-.4.032-.704-.688.368-.96.48-1.776.704 0 .976.064 1.504.272 2.048.416 1.152 1.328 1.776 2.624 1.776 2.08 0 3.632-1.568 3.632-3.648 0-2.272-1.904-3.904-4.576-3.904-1.168 0-2.176.128-3.264.448v-2.08c.608-.064.928-.112 1.456-.208 1.104-.192 1.408-.24 1.696-.288l-.064-1.792c-.816.256-1.888.464-3.088.608v-1.024c0-.896.016-1.232.096-1.744h-2c.08.512.096.928.096 1.84v1.056c-.176 0-.256 0-.64.016-.224.016-.4.016-.56.016-.848 0-1.488-.048-1.936-.144l.016 1.792c.144-.016.272-.016.336-.016.048 0 .192 0 .4.016.192 0 .64.016.88.016.4 0 .624 0 .864-.016.528-.032.528-.032.656-.032l.016 2.464c-1.056.448-1.76.864-2.336 1.36-.88.768-1.376 1.616-1.376 2.368 0 .688.304 1.312.88 1.808.8.688 2.016 1.136 3.024 1.136.752 0 1.328-.368 1.472-.928.096-.32.128-.704.128-1.36l-.016-3.152zm-1.792 2.912c0 .528-.08.672-.352.672-.304 0-.704-.128-1.024-.352-.368-.224-.528-.464-.528-.736 0-.576.704-1.28 1.904-1.92v2.336zm10.336-6.752c-.848-1.248-1.776-2.208-3.168-3.28l-1.504 1.008c1.232.928 2.4 2.192 3.2 3.456l1.472-1.184zm3.872 1.248h2.88c.528 0 1.088.016 1.472.048a15.08 15.08 0 01-.048-1.44v-2.64c0-.624.016-.992.048-1.504-.432.048-.8.064-1.632.064h-2.832c-.768 0-1.136-.016-1.632-.064.048.512.064.96.064 1.808v10.48c0 .992-.032 1.504-.096 1.984h1.872c-.064-.416-.096-1.008-.096-1.968v-6.768zm0-4.16h2.736v.832h-2.736v-.832zm0 2.064h2.736v.848h-2.736v-.848zm11.696-1.648c0-.784.016-1.264.08-1.792-.496.048-.88.064-1.648.064h-3.04c-.8 0-1.152-.016-1.632-.064.032.464.048.896.048 1.504v2.64c0 .688-.016 1.008-.032 1.44a18.58 18.58 0 011.456-.048h3.088v6.544c0 .352-.08.416-.528.416-.528 0-1.296-.064-1.968-.144.256.592.336.928.448 1.696 1.056.064 1.232.064 1.488.064.928 0 1.36-.064 1.68-.256.416-.256.56-.672.56-1.552V58.768zm-4.608-.416h2.928v.832h-2.928v-.832zm0 2.064h2.928v.848h-2.928v-.848zm1.008 4.304c0-.464.016-.784.048-1.104-.336.032-.736.048-1.232.048h-3.952c-.464 0-.832-.016-1.184-.048.032.336.048.688.048 1.12v3.424c0 .608-.032 1.104-.08 1.552h1.696V68.64h3.568c.464 0 .8.016 1.136.048a10.019 10.019 0 01-.048-1.088v-2.88zm-4.656.368h3.04v2.096h-3.04v-2.096zm11.248-6.848c.048.352.048.464.064 1.024.064 4.432.352 6.752 1.008 8.352.64 1.536 1.504 2.32 2.576 2.32 1.36 0 2.288-1.296 3.12-4.416-.784-.576-1.04-.816-1.6-1.456a11.796 11.796 0 01-.848 2.896c-.192.448-.416.688-.656.688-.512 0-1.024-1.024-1.296-2.688-.176-.976-.304-2.896-.304-4.288 0-1.056.048-1.84.128-2.432h-2.192zm8.08 1.52a13.966 13.966 0 012.272 3.936 16.22 16.22 0 011.024 4.624l1.984-.752c-.464-3.52-1.584-6.192-3.6-8.608l-1.68.8zm10.096 3.2c.416-.048.864-.064 1.376-.064h5.472c.64 0 1.04.016 1.44.064v-1.12c.976.64 1.472.896 2.608 1.408.304-.784.464-1.088.88-1.76-1.632-.608-2.832-1.248-4.08-2.192-1.28-.96-2-1.68-2.688-2.704h-1.904c-.656.992-1.408 1.792-2.512 2.672a15.986 15.986 0 01-4.08 2.304c.464.624.656.96.928 1.632 1.104-.48 1.52-.704 2.56-1.344v1.104zm1.392-1.728h-.448c1.472-1.056 2.176-1.744 3.136-3.12 1.008 1.28 1.888 2.112 3.296 3.12h-5.984zm-.784 9.984V70.4h6.992v.816h1.904c-.08-.496-.096-.944-.096-1.68v-3.744c0-.688.016-1.136.08-1.584-.368.048-.752.064-1.392.064h-8c-.64 0-1.024-.016-1.376-.064.048.464.08.928.08 1.584v3.728c0 .704-.032 1.184-.096 1.696h1.904zm0-5.392h6.992v3.008h-6.992v-3.008zm13.152 2.224c.208-.32.656-.816 1.232-1.376.48-.464.592-.592.704-.752h.032c-.032.32-.032.496-.032.944v1.424c0 1.616-.016 2.08-.096 2.56h2.08c-.08-.704-.128-2.496-.128-4.784l.016-1.664c1.76-1.6 3.328-2.416 4.656-2.416 1.68 0 2.736 1.072 2.736 2.784 0 1.952-1.344 3.312-3.264 3.312-.96 0-1.952-.208-2.848-.592.256.88.304 1.232.304 2.08.816.24 1.568.352 2.384.352 1.088 0 2.032-.208 2.848-.608 1.584-.816 2.544-2.512 2.544-4.528 0-1.296-.432-2.464-1.232-3.296a4.464 4.464 0 00-3.12-1.312c-1.568 0-2.864.496-4.608 1.76a2.82 2.82 0 00-.384.304l-.032.016c.016-.048.032-.4.064-1.088.576-.72.688-.848.912-1.04l-.608-.656c-.08.048-.112.048-.224.08v-.288c.032-.448.032-.448.048-.752.064-1.104.064-1.12.16-1.536l-2.064-.016c.048.32.064.448.064.704v.16c0 .144-.016.368-.016.672 0 .576-.016.784-.048 1.2-.896.064-1.776.112-2.064.112-.144 0-.272-.016-.528-.032l.112 1.808c.496-.096.496-.096 2.432-.24-.032 1.312-.032 1.328-.064 2.304-1.904 1.76-2.528 2.304-2.896 2.56l.928 1.84zm28.064-.144c-1.04.416-2.544.608-4.624.608-2.608 0-3.296-.336-3.424-1.68-.032-.32-.08-2.064-.08-2.896V63.6c.016-.848.016-.848.016-.928v-.432c2.224-.128 2.224-.128 4.656-.224-.016.896-.064 1.536-.144 2-.096.624-.272.832-.688.832-.48 0-1.232-.288-2.096-.784.08.576.112.88.112 1.312 0 .224 0 .32-.016.64.832.384 1.536.544 2.288.544.944 0 1.6-.4 1.952-1.2.256-.576.4-1.776.416-3.392.752 0 1.664-.016 2.224-.016.4 0 .544 0 .912.048l-.032-1.904c-.528.064-.528.064-3.104.144v-2c0-.4.016-.592.08-1.104h-2c.096.624.096.624.096 3.168-2.384.112-2.384.112-4.624.224.048-2.528.048-2.528.144-3.12h-2.144c.096.576.112 1.024.112 2.72 0 .096 0 .24-.016.496-1.584.096-2.464.144-2.608.144-.08 0-.24 0-.464-.016l.128 1.872c.72-.128.72-.128 2.96-.288-.016 1.248-.016 1.312-.016 1.552 0 2.752.064 3.648.288 4.368.48 1.536 1.776 2.112 4.768 2.112a51.69 51.69 0 004.336-.24c.544-.064.544-.064.72-.08l-.128-2.144zm8.016-5.952c.048-.016.08-.016.096-.016.032 0 .08 0 .16.016.032 0 .128 0 .272.016.08 0 .256.016.48.016.752.064 1.392.08 1.984.08.416 0 .8-.016 1.44-.032.064 2.224.08 3.008.128 3.408-.432-.16-.832-.224-1.424-.224-1.936 0-3.296 1.088-3.296 2.64 0 1.632 1.28 2.624 3.376 2.624 1.552 0 2.672-.56 3.04-1.504a2.8 2.8 0 00.128-.896v-.224c.096.064.464.304 1.008.656.448.288.928.704 1.2 1.024l.768-1.936c-.16-.08-.24-.128-.448-.272-.96-.688-1.36-.912-2.512-1.456-.16-2.688-.16-2.72-.16-3.616v-.352c.848-.096 1.68-.24 2.224-.352.288-.064.304-.064.464-.08l-.064-1.808-.128.032c-.256.096-.256.096-.352.128-.624.16-1.328.288-2.16.384v-.736c0-1.136.032-1.904.112-2.352l-2 .048c.032.176.048.416.048.768 0 .656.016 1.456.016 2.4-.56.032-.912.032-1.472.032-1.312 0-2.144-.064-2.896-.256l-.032 1.84zm4.592 5.12v.432c0 .432-.064.672-.208.864-.24.32-.704.496-1.296.496-.896 0-1.472-.4-1.472-.992 0-.656.64-1.056 1.664-1.056.48 0 .784.064 1.312.256zm-6.256 3.408c-.032-.304-.032-.32-.032-.432 0-1.056.64-3.04 1.584-4.896l-1.328-.592c-.144.4-.16.448-.192.496-.16.384-.16.384-.304.72-.08.256-.16.432-.192.544-.112.288-.112.288-.192.464h-.016c.016-.176.016-.208.016-.336v-.256c0-.256 0-.256.016-.832.016-2.784.624-6.64 1.28-8.032l-2.16-.224v.064c0 .16-.064.624-.176 1.184-.352 1.808-.352 1.808-.432 2.288a28.599 28.599 0 00-.304 4.24c0 1.68.128 3.216.432 5.088.064.368.064.464.08.624l1.92-.112zM14.593 94.288c-1.072-2.016-2.352-3.952-3.92-5.968l-1.568.88c.912 1.136 1.296 1.664 2.032 2.848-2.128.304-3.264.416-5.792.528.816-1.328 2.24-4.256 2.992-6.16.16-.384.224-.512.32-.704l-2.112-.544c-.176.864-.4 1.52-.928 2.752a42.11 42.11 0 01-2.352 4.736c-.448.016-.544.016-.912.016-.448 0-.816-.016-1.168-.048l.32 2.048c.48-.096.608-.096 1.872-.176a83.292 83.292 0 008.656-.88c.288.544.432.816.832 1.68l1.728-1.008zM5.121 80.912c-.096.56-.352 1.136-.848 1.984-.992 1.664-2.192 2.912-3.952 4.128.496.528.816.944 1.216 1.664 1.168-.944 1.696-1.424 2.464-2.304 1.04-1.184 2.048-2.656 2.656-3.92.112-.256.112-.256.208-.416.048-.08.064-.128.08-.16.08-.144.08-.144.144-.24l-1.968-.736zm3.648.736l.128.256c.112.208.112.208.16.32.08.176.144.288.176.368.384.784.88 1.6 1.472 2.416 1.008 1.392 1.872 2.24 3.696 3.696.4-.752.656-1.152 1.184-1.76-.896-.592-1.104-.752-1.52-1.088a13.256 13.256 0 01-1.76-1.808c-.816-1.024-1.552-2.32-1.776-3.152l-1.76.752zm20.081 1.68l1.295-.736c-.704-.912-.896-1.12-1.584-1.808l-1.392.656c.704.72 1.072 1.168 1.52 1.888h-1.888c-.016-.528-.016-.992-.016-1.264 0-.464.016-.896.064-1.296h-1.936c.048.288.096.848.096 1.248 0 .48 0 .48.048 1.312h-6.336c-.784 0-1.376-.032-1.872-.096v1.792a16.796 16.796 0 011.872-.096h6.4c.128 2.224.16 2.512.384 3.808.352 2.064.96 3.68 1.776 4.816.704.944 1.52 1.552 2.128 1.552.416 0 .8-.24 1.104-.672.4-.576.672-1.472.912-3.008-.576-.256-.848-.416-1.52-.896-.208 1.664-.4 2.432-.592 2.432-.048 0-.208-.128-.368-.288-.336-.336-.656-.88-.96-1.584-.624-1.472-.976-3.376-1.12-6.16h2.336c.8 0 1.424.032 1.872.096v-1.792c-.4.08-.8.096-1.552.096h-.672zm-8.753 5.12V92.4c-1.792.272-2.544.368-3.216.368l.288 1.808c.272-.048.448-.08.592-.112 2.144-.32 4.672-.832 7.376-1.488v-1.632c-1.536.384-2.16.512-3.28.736v-3.632h1.104c.608 0 1.136.032 1.6.08v-1.696c-.4.048-.912.08-1.616.08h-3.872c-.704 0-1.248-.032-1.648-.08v1.696c.448-.048 1.008-.08 1.616-.08h1.056zm22.016 3.696c-.672.08-1.184.112-2.272.112h-4.48v-8.448c0-1.168.032-1.696.128-2.352h-2.416c.096.688.128 1.264.128 2.368v8.304c0 .928-.032 1.52-.128 2.112a34.346 34.346 0 012.032-.048h4.736c1.136 0 1.696.032 2.272.112v-2.16zm1.242-10.688c.096.64.128 1.072.128 2.064v8.608c0 .944-.032 1.456-.128 2.064h2.431c-.096-.608-.128-1.12-.128-2.064V83.52c0-.96.032-1.456.128-2.064h-2.431zm15.551 12.736c-.096-.56-.128-1.168-.128-2.064v-8.464c0-.976.032-1.568.128-2.208H56.57c.096.608.128 1.264.128 2.208v5.376c0 .672.048 1.632.112 2.256a31.63 31.63 0 00-1.248-2.048l-4.048-6.096c-.544-.816-.832-1.296-.976-1.696h-2.496c.096.656.128 1.232.128 2.064v8.256c0 1.088-.048 1.888-.128 2.416h2.336c-.08-.576-.128-1.328-.128-2.4v-5.248a35.5 35.5 0 00-.048-1.392c-.048-.592-.048-.592-.064-.816.384.752.784 1.44 1.088 1.92l4.128 6.224c.464.704.752 1.168 1.024 1.712h2.528zm11.364-2.016c-.687.08-1.151.112-2.047.112h-4.8v-3.776h3.904c.992 0 1.424.016 2.08.112v-2.096c-.704.08-1.248.112-2.08.112h-3.888v-3.296h4.608c.944 0 1.456.032 2.064.112v-2.112c-.736.08-1.264.112-2.064.112h-4.832c-.976 0-1.392-.016-2.032-.048.096.752.128 1.232.128 2.064v8.656c0 .944-.032 1.472-.128 2.112.64-.032 1.072-.048 2.032-.048h4.992c.976 0 1.488.032 2.064.112v-2.128zm4.954 2.208c-.016-.208-.016-.336-.016-.432 0-1.136.544-2.992 1.424-4.848l-1.28-.576c-.624 1.44-.656 1.552-.832 2.112.016-.4.032-.528.032-.88.016-1.392.08-2.336.24-3.536.256-2.048.624-3.84 1.008-4.784l-2.112-.224c-.032.432-.064.592-.24 1.488-.464 2.368-.656 4.192-.656 6.256 0 1.616.112 2.848.416 4.784.048.368.064.464.08.752l1.936-.112zm2.208-9.584c1.696.176 1.712.176 2.88.176 1.184 0 2.4-.064 3.424-.192.768-.096 1.008-.128 1.136-.144l-.096-1.936c-1.056.288-2.576.432-4.352.432-1.392 0-2.24-.064-2.96-.256l-.032 1.92zm1.104 2.64c-.992 1.184-1.472 2.256-1.472 3.296 0 .576.176 1.168.48 1.568.704.944 1.984 1.392 3.968 1.392 1.056 0 2.032-.096 3.312-.304.368-.064.432-.08.656-.096l-.16-2.032c-1.008.384-2.4.608-3.808.608-1.664 0-2.544-.48-2.544-1.392 0-.688.336-1.376 1.136-2.304l-1.568-.736zm9.84-2.48c.624-.128 1.584-.24 2.656-.32 3.472-.256 4.096-.304 5.392-.496-1.04.528-1.616.944-2.224 1.6-.976 1.072-1.52 2.416-1.52 3.776 0 1.664.816 3.024 2.288 3.856.976.544 1.984.832 3.744 1.056.272.032.352.048.544.096l.288-2.176c-.16.016-.304.016-.32.016-.576 0-1.6-.176-2.384-.416-1.344-.4-2.128-1.36-2.128-2.608 0-1.616 1.2-3.216 3.232-4.272 1.024-.544 2.208-.864 3.168-.864.16 0 .16 0 .336.016l-.112-2.048c-.288.08-.528.096-1.84.16-4.432.208-7.088.352-7.984.4-2.352.16-2.352.16-2.64.16-.08 0-.256 0-.608-.016l.112 2.08zm17.696-1.776c.24.448.528 1.136.688 1.664h-1.008c-.864 0-1.28-.016-1.76-.08.048.576.064.912.064 1.36v1.2c0 .432-.032.864-.096 1.232h1.776v-2.08h10.528v2h1.776a8.616 8.616 0 01-.08-1.184v-1.168c0-.576.016-.928.048-1.344-.448.048-.816.064-1.728.064h-1.056c.24-.4.256-.448.976-1.84l-1.552-.496a24.985 24.985 0 001.936-.368c.384-.096.432-.096.688-.144l-1.104-1.552c-.8.288-1.92.544-3.232.72-2.032.256-4.944.432-7.248.432-.288 0-.72 0-1.264-.016.272.592.416 1.008.576 1.6h1.072zm2.448 1.664a16.899 16.899 0 00-.688-1.728c1.2-.064 1.824-.096 1.872-.112.24.576.448 1.168.656 1.84h-1.84zm3.52 0c-.224-.88-.336-1.232-.64-1.968.512-.064.928-.096 1.184-.128.592-.048.992-.096 1.168-.112.16-.016.272-.032.688-.096a13.513 13.513 0 01-1.056 2.304h-1.344zm2.928 2.736c-.336.064-.736.08-1.392.08h-5.808c-.64 0-1.2-.032-1.632-.08v1.648c.288-.032.32-.032.784-.064 1.088 1.536 1.568 2.08 2.576 2.928-1.616.752-3.536 1.28-5.712 1.536.4.608.608.992.88 1.712 2.56-.496 4.512-1.168 6.32-2.176.752.448 1.408.768 2.208 1.088 1.28.496 2.256.736 4.336 1.056.224-.688.464-1.232.832-1.776-2.752-.336-4.064-.656-5.76-1.408.832-.624 1.472-1.2 2-1.76 1.136-1.296 1.136-1.296 1.408-1.552l-1.04-1.232zm-1.552 1.568c-.752.88-1.376 1.424-2.4 2.096-.96-.624-1.52-1.168-2.192-2.096h4.592zm11.472-2.864h.24c.192 0 .256 0 .72.032.416.016 1.008.032 1.456.032.8 0 1.632-.016 2.176-.064.016.528.016.672.016 1.008 0 2.368-.288 3.488-1.12 4.496-.608.72-1.36 1.248-2.448 1.744.736.544.992.784 1.552 1.504.816-.48 1.248-.784 1.744-1.216.896-.8 1.472-1.776 1.824-3.104.224-.8.336-2.128.336-3.824 0-.288 0-.432-.016-.768.688-.08.832-.112 1.552-.272.528-.112.624-.128.896-.16l-.112-1.904c-.544.256-1.248.432-2.384.608-.032-1.024-.064-1.632-.064-1.808-.032-.72-.032-.864-.032-1.024 0-.192 0-.288.032-.544l-2.032.032c.096.576.112.72.208 3.536-.832.048-1.088.064-1.696.064-1.296 0-2.144-.064-2.848-.208v1.84zm-1.024 2.064c-.384.72-.784 1.76-1.056 2.64 0-.256-.016-.352-.032-.608v-.288c-.016-.784-.016-1.056-.016-1.232-.016-.256-.016-.448-.016-.496 0-.304.032-.768.112-1.824.096-1.344.16-1.792.416-3.152.176-.944.272-1.312.464-1.952l-2.112-.208c0 .336-.016.512-.112 1.184-.496 3.312-.592 4.256-.592 6.064 0 1.808.176 3.392.576 5.2.08.304.096.384.112.608l1.856-.096c.032-1.152.768-3.2 1.824-5.136l-1.424-.704zm22.608-4.304h-4.432c-.736 0-1.312-.032-1.808-.096v1.792a16.889 16.889 0 011.888-.096h4.352v7.232c0 .352-.128.4-1.024.4-.56 0-1.056-.048-1.968-.16.304.688.416 1.104.512 1.808.688.048 1.12.064 1.696.064 1.184 0 1.616-.064 1.968-.304.368-.24.544-.736.544-1.568v-7.472h.512c.56 0 1.072.032 1.504.064v-1.76c-.416.064-.848.096-1.552.096h-.464V82.64c0-.8.032-1.376.096-1.984h-1.936c.08.56.112 1.216.112 1.984v1.408zm-6.96.24c.448-.896.896-1.904 1.088-2.432.16-.416.272-.688.384-.928l-1.84-.512c-.096.576-.272 1.12-.656 2-.768 1.792-1.712 3.2-2.96 4.448a7.16 7.16 0 01.896 1.824c.576-.592.832-.928 1.376-1.824-.032.64-.032 1.008-.032 1.792v4.72c0 .8-.032 1.344-.096 1.92h1.92a23.36 23.36 0 01-.08-1.92v-9.088zm1.456 3.328c1.04 1.28 1.6 2.192 2.368 3.888l1.488-1.056c-.752-1.456-1.36-2.384-2.464-3.728l-1.392.896zm15.92-1.328h.24c.192 0 .256 0 .72.032.416.016 1.008.032 1.456.032.8 0 1.632-.016 2.176-.064.016.528.016.672.016 1.008 0 2.368-.288 3.488-1.12 4.496-.608.72-1.36 1.248-2.448 1.744.736.544.992.784 1.552 1.504.816-.48 1.248-.784 1.744-1.216.896-.8 1.472-1.776 1.824-3.104.224-.8.336-2.128.336-3.824 0-.288 0-.432-.016-.768.688-.08.832-.112 1.552-.272.528-.112.624-.128.896-.16l-.112-1.904c-.544.256-1.248.432-2.384.608-.032-1.024-.064-1.632-.064-1.808-.032-.72-.032-.864-.032-1.024 0-.192 0-.288.032-.544l-2.032.032c.096.576.112.72.208 3.536-.832.048-1.088.064-1.696.064-1.296 0-2.144-.064-2.848-.208v1.84zm-1.024 2.064c-.384.72-.784 1.76-1.056 2.64 0-.256-.016-.352-.032-.608v-.288c-.016-.784-.016-1.056-.016-1.232-.016-.256-.016-.448-.016-.496 0-.304.032-.768.112-1.824.096-1.344.16-1.792.416-3.152.176-.944.272-1.312.464-1.952l-2.112-.208c0 .336-.016.512-.112 1.184-.496 3.312-.592 4.256-.592 6.064 0 1.808.176 3.392.576 5.2.08.304.096.384.112.608l1.856-.096c.032-1.152.768-3.2 1.824-5.136l-1.424-.704zm12.512-3.392c.624-.128 1.584-.24 2.656-.32 3.472-.256 4.096-.304 5.392-.496-1.04.528-1.616.944-2.224 1.6-.976 1.072-1.52 2.416-1.52 3.776 0 1.664.816 3.024 2.288 3.856.976.544 1.984.832 3.744 1.056.272.032.352.048.544.096l.288-2.176c-.16.016-.304.016-.32.016-.576 0-1.6-.176-2.384-.416-1.344-.4-2.128-1.36-2.128-2.608 0-1.616 1.2-3.216 3.232-4.272 1.024-.544 2.208-.864 3.168-.864.16 0 .16 0 .336.016l-.112-2.048c-.288.08-.528.096-1.84.16-4.432.208-7.088.352-7.984.4-2.352.16-2.352.16-2.64.16-.08 0-.256 0-.608-.016l.112 2.08zm21.232 4.144c1.136-.352 2.112-.528 3.072-.528 1.712 0 2.832.896 2.832 2.272 0 1.024-.672 1.776-1.616 1.776-.448 0-.832-.208-1.008-.544-.16-.304-.224-.736-.224-1.408 0-.256 0-.4.032-.704-.688.368-.96.48-1.776.704 0 .976.064 1.504.272 2.048.416 1.152 1.328 1.776 2.624 1.776 2.08 0 3.632-1.568 3.632-3.648 0-2.272-1.904-3.904-4.576-3.904-1.168 0-2.176.128-3.264.448v-2.08c.608-.064.928-.112 1.456-.208 1.104-.192 1.408-.24 1.696-.288l-.064-1.792c-.816.256-1.888.464-3.088.608v-1.024c0-.896.016-1.232.096-1.744h-2c.08.512.096.928.096 1.84v1.056c-.176 0-.256 0-.64.016-.224.016-.4.016-.56.016-.848 0-1.488-.048-1.936-.144l.016 1.792c.144-.016.272-.016.336-.016.048 0 .192 0 .4.016.192 0 .64.016.88.016.4 0 .624 0 .864-.016.528-.032.528-.032.656-.032l.016 2.464c-1.056.448-1.76.864-2.336 1.36-.88.768-1.376 1.616-1.376 2.368 0 .688.304 1.312.88 1.808.8.688 2.016 1.136 3.024 1.136.752 0 1.328-.368 1.472-.928.096-.32.128-.704.128-1.36l-.016-3.152zm-1.792 2.912c0 .528-.08.672-.352.672-.304 0-.704-.128-1.024-.352-.368-.224-.528-.464-.528-.736 0-.576.704-1.28 1.904-1.92v2.336zm10.336-6.752c-.848-1.248-1.776-2.208-3.168-3.28l-1.504 1.008c1.232.928 2.4 2.192 3.2 3.456l1.472-1.184zm4.496-4.448c0 .208-.016.272-.048.544l-.24 1.984c-.128 1.104-.224 2.88-.224 4.176 0 .32.032 1.504.048 1.968v.304c0 .032 0 .112-.016.208l1.92-.032v-.336c0-1.904.768-3.872 2.016-5.168.56-.576 1.12-.848 1.728-.848 1.376 0 2.144 1.28 2.144 3.584 0 2.432-.848 3.952-2.704 4.896-.976.496-1.904.736-3.504.912.448.624.624.976.944 1.888 1.2-.208 2.32-.528 3.136-.896 2.688-1.184 4.128-3.488 4.128-6.576 0-1.888-.352-3.184-1.152-4.256-.688-.928-1.648-1.44-2.736-1.44-1.168 0-2.16.544-3.04 1.632-.432.56-.848 1.344-1.008 1.904-.064.256-.064.256-.096.352h-.048c.032-.384.096-.928.208-1.6.304-2.128.384-2.544.576-3.088l-2.032-.112zm26.736 11.488c-.224-.128-.304-.192-.576-.368-1.728-1.216-2.976-1.84-4.384-2.256-.016-.384-.016-.384-.064-1.936.624-.032.864-.048 1.088-.064 1.2-.112 1.92-.192 2.16-.224.368-.048.768-.096 1.04-.112l-.048-1.76c-.72.192-.976.224-1.984.352-1.472.16-1.472.16-2.272.208-.016-.992-.016-1.184-.032-1.584 1.408-.08 2.032-.128 3.44-.32.912-.128.912-.128 1.264-.144l-.08-1.776c-1.04.304-2.432.48-4.608.608.016-1.312.032-1.52.112-1.952h-2.032c.064.4.064.416.08 2.016-.4.016-.944.032-1.2.032-1.84 0-3.488-.128-4.304-.336l-.016 1.776h.256c.048 0 .176 0 .352.016 1.072.08 3.136.16 3.92.16.24 0 .496 0 1.008-.016.016.912.016 1.456.016 1.6-.448.016-.992.032-1.312.032-1.52 0-3.04-.112-3.728-.272l-.032 1.728c.24 0 .4 0 .608.016 1.328.096 1.92.112 2.896.112.336 0 .832-.016 1.6-.032.016.64.016.64.032.864v.352c.016.192.016.192.016.384a8.36 8.36 0 00-1.072-.064c-2.688 0-4.272 1.024-4.272 2.768 0 1.584 1.344 2.496 3.68 2.496 1.168 0 2.032-.224 2.64-.688.608-.464.896-1.152.896-2.16v-.176c.384.16.512.208.864.4 1.152.592 2.256 1.408 2.96 2.192l1.088-1.872zm-6.752-1.232v.384c0 .48-.064.816-.192 1.024-.224.32-.72.512-1.392.512-1.136 0-1.824-.368-1.824-.96 0-.688.784-1.104 2.08-1.104.48 0 .8.032 1.328.144zm18.688-5.584v-1.04c1.264-.032 1.552-.032 1.936-.032 1.328 0 2.096.032 2.688.08l-.016-1.84c-.592.064-1.84.096-4.624.112.016-1.376.016-1.408.08-1.904l-2.016.016c.08.416.08.416.096 1.936-.832.032-.832.032-1.36.048-1.312.032-1.472.032-2.512.064-2.064.08-2.32.08-2.72.08-.288 0-.432 0-.784-.032l.064 1.904c.432-.064.432-.064 2.848-.24.704-.048 2.208-.096 4.496-.16 0 .432 0 1.328.016 1.36 0 .112 0 .112.016.192-.368-.304-.976-.48-1.664-.48-1.856 0-3.184 1.216-3.184 2.912 0 .912.352 1.616 1.104 2.16.544.4 1.12.576 1.856.576 1.056 0 1.888-.4 2.352-1.136-.128.896-.768 1.712-1.856 2.336-.752.448-1.408.672-2.72.928.528.576.688.816 1.136 1.808 1.488-.512 2.224-.848 2.896-1.312 1.552-1.072 2.384-2.576 2.384-4.32 0-.864-.16-1.52-.512-2.256 0-.192-.016-.32-.016-.384l.016-1.376zm-1.84 2.64c0 .832-.656 1.44-1.568 1.44-.8 0-1.36-.528-1.36-1.264 0-.704.672-1.28 1.488-1.28.88 0 1.44.432 1.44 1.104zm9.442 1.712a2.71 2.71 0 00-2.704 2.704 2.714 2.714 0 002.704 2.72 2.714 2.714 0 002.704-2.72 2.7 2.7 0 00-2.704-2.704zm0 1.248a1.465 1.465 0 010 2.928 1.465 1.465 0 010-2.928z" fill="#333"/><defs><clipPath id="clip0"><path fill="#fff" transform="translate(9)" d="M0 0h242.593v32.924H0z"/></clipPath></defs></svg>