<svg width="669" height="118" fill="none" xmlns="http://www.w3.org/2000/svg"><g clip-path="url(#clip0)" fill="#1D1D1B"><path d="M118.92 68.07l-14.73-23.68h-4.9v23.68H86V.78h18.68C122.58.78 131 6.73 131 21v3.51c0 10-3.86 15.38-12.81 18l16.23 25.56h-15.5zm-14.24-34.79c9.61 0 12.31-3 12.31-9.43v-2.27c0-6.37-1.82-9.7-12.13-9.7h-5.68v21.4h5.5zM185.82.78h-42.65v10.49h42.65V.78zm-29.36 56.37V39.41h25.02V28.57h-38.31v39.57h43.99V57.15h-30.7zM230.86.87v41.36L210.56.87h-13.19v67.2h13.19V27.7l20.59 40.37h12.9V.87h-13.19zm25.51 47.72V20.11C256.37 5.85 263.21 0 281.1 0s25.33 5.85 25.33 20.11v28.48c0 13.9-7.7 20.11-25.33 20.11s-24.73-6.21-24.73-20.11zm36.77-.59V20.71c0-6.12-1.73-10.06-12-10.06-9.63 0-11.45 3.94-11.45 10.06V48c0 6.41 1.82 10.07 11.45 10.07 9.63 0 12-3.66 12-10.07zM367.08.87l-19.95 67.27h-13.86L313.25.87h13.57l13.39 46.42L353.48.87h13.6zm50.25-.09h-42.66v10.49h42.66V.78zm-29.38 56.37V39.41h25.02V28.57h-38.3v39.57h43.98V57.15h-30.7zM471.6.78h-42.64v10.49h42.64V.78zm-29.35 56.37V39.41h25.02V28.57h-38.31v39.57h43.99V57.15h-30.7zM516.65.87v41.36L496.35.87h-13.19v67.2h13.19V27.7l20.58 40.37h12.9V.87h-13.18zm25.51 47.72V20.11C542.16 5.85 549 0 566.89 0s25.31 5.85 25.31 20.11v28.48c0 13.9-7.71 20.11-25.31 20.11-17.6 0-24.73-6.21-24.73-20.11zm36.75-.59V20.71c0-6.12-1.72-10.06-12-10.06-9.64 0-11.45 3.94-11.45 10.06V48c0 6.41 1.81 10.07 11.45 10.07 9.64 0 12-3.66 12-10.07z"/></g><path d="M12.872 99.616c1.056.096 1.68.288 2.424.72 1.92 1.152 2.952 3.024 2.952 5.328 0 2.568-1.248 4.848-3.336 6-1.128.648-2.568 1.032-4.776 1.32.768 1.008 1.056 1.536 1.464 2.808 1.68-.288 2.616-.528 3.768-1.008 3.672-1.488 5.832-4.8 5.832-8.952 0-5.4-3.744-8.904-9.504-8.904-3.408 0-6.24 1.152-8.256 3.36C1.736 102.16.8 104.632.8 107.272c0 3.864 1.968 6.648 4.704 6.648 1.968 0 3.504-1.416 4.872-4.512 1.2-2.712 2.04-6.024 2.496-9.792zm-2.928.024c-.288 2.712-1.08 5.952-1.992 8.112-.864 2.064-1.68 3.072-2.472 3.072-1.056 0-1.896-1.56-1.896-3.528 0-2.568 1.248-5.04 3.264-6.48.984-.696 1.848-1.032 3.096-1.176zm17.832.144c.168 0 .288.024.336.024.096 0 .264.024.552.048 1.176.168 3.168.288 4.392.288 1.512 0 2.544-.048 3.6-.192-.312.192-.336.192-.528.288-.312.192-.384.24-.624.384-.6.336-.864.504-2.376 1.464l2.088 1.656c2.016-1.488 4.968-3.336 6.408-3.96l-.096-2.712c-1.584.336-3.288.456-6.336.456-3.216 0-5.352-.168-7.2-.6l-.216 2.856zm1.776 5.424c-2.16 1.8-3.096 3.384-3.096 5.232 0 1.872 1.008 3.192 3.072 4.008 1.272.528 3.384.792 6 .792 2.064 0 3.6-.12 6.48-.552.552-.072.624-.072 1.056-.096l-.264-3.288c-1.536.6-4.68 1.032-7.536 1.032-4.056 0-5.808-.672-5.808-2.232 0-1.032.672-2.04 2.184-3.312l-2.088-1.584zm16.488-.984c-.744-1.368-1.416-2.28-2.496-3.384l-1.608.84a17.683 17.683 0 012.448 3.48l1.656-.936zm-7.056-1.128c1.056 1.152 1.728 2.112 2.52 3.576l1.68-.888c-.816-1.488-1.464-2.4-2.52-3.528l-1.68.84zm16.536-1.56c.552 0 .96.024 1.512.072v-2.544c-.432.096-.912.12-1.536.12h-1.368v-1.968c0-1.104.048-1.848.144-2.472H51.44c.096.672.144 1.224.144 2.496v1.944h-1.488c-.816 0-1.344-.024-1.776-.12v2.568c.504-.072.984-.096 1.752-.096h1.176c-.792 2.952-2.112 5.616-3.672 7.488.576.792.912 1.464 1.32 2.616.432-.576.864-1.296 1.416-2.448.624-1.224.912-1.968 1.44-3.648-.096.84-.168 2.544-.168 3.6v4.944c0 1.224-.048 2.184-.144 2.952h2.832c-.096-.72-.144-1.752-.144-2.952v-6.168c0-1.32-.024-1.896-.096-3.288.72 1.752 1.224 2.616 2.28 4.032.384-1.08.456-1.248.96-2.04.072-.096.168-.264.288-.456-1.608-1.56-2.472-2.832-3.216-4.632h1.176zm4.824 15.408v-1.416h6.024v1.368h2.736a32.914 32.914 0 01-.12-3.048V98.032c0-1.104.024-1.752.072-2.448-.504.072-1.032.096-2.064.096h-7.2a24.56 24.56 0 01-2.136-.072c.072 1.152.096 1.728.096 2.544v15.72c0 1.176-.048 2.184-.12 3.072h2.712zm0-18.816h6.024v3.408h-6.024v-3.408zm0 5.688h6.024v3.384h-6.024v-3.384zm0 5.664h6.024v3.648h-6.024v-3.648zm25.32-4.848c.048.456.072.816.072 1.488 0 2.808-.528 4.68-1.776 6.12-1.032 1.2-2.184 1.92-4.08 2.568v-4.032c0-.888.024-1.296.072-1.728-.408.072-.648.072-1.44.072h-4.128c-.744 0-1.128-.024-1.608-.096.072.648.096 1.152.096 1.872v3.672c0 .768-.048 1.608-.12 2.352h2.472v-1.248H77.6v.984H80a20.657 20.657 0 01-.096-1.656c.432.6.792 1.32 1.152 2.184 3.312-1.368 5.064-3.12 6.072-6 1.2 2.616 3.12 4.536 5.976 5.952.48-1.2.72-1.656 1.368-2.544-1.944-.744-3.432-1.776-4.56-3.144-1.128-1.368-1.656-3.096-1.656-5.472 0-.504.024-.912.096-1.344h-2.688zm-10.512 6.432h2.496v2.544h-2.496v-2.544zm-2.256-13.32c.576-.048 1.08-.072 1.944-.072h3.072c.864 0 1.296.024 1.944.072V95.44c-.576.096-.984.12-1.944.12H74.84c-.96 0-1.392-.024-1.944-.12v2.304zm-.936 3.552c.576-.072 1.08-.096 1.92-.096h4.8c.984 0 1.32.024 1.824.096v-2.472c-.576.072-.936.096-1.92.096H73.88c-.888 0-1.344-.024-1.92-.12v2.496zm.936 3.336c.456-.048.768-.072 1.512-.072h3.936c.696 0 1.056.024 1.488.072V102.4c-.408.048-.72.072-1.488.072h-3.936c-.744 0-1.056-.024-1.512-.072v2.232zm0 3.336c.432-.048.792-.072 1.512-.072h3.912c.72 0 1.104.024 1.512.072v-2.232c-.408.048-.72.072-1.488.072h-3.936c-.744 0-1.056-.024-1.512-.072v2.232zm9.216-11.856c-.288 1.656-.6 2.448-1.464 3.816l2.256.912c.792-1.416 1.128-2.28 1.584-4.152l-2.376-.576zm9.336-.288c-.72 1.68-1.2 2.472-2.376 3.816.864.36 1.248.6 2.04 1.224 1.152-1.392 1.704-2.256 2.664-4.128l-2.328-.912zm-9.456 10.704c-.336 1.704-.768 2.736-1.608 3.936l2.232 1.008c.768-1.272 1.08-2.04 1.704-4.224l-2.328-.72zm9.432-.24c-.648 1.608-1.152 2.496-2.184 3.744 1.008.48 1.128.552 2.016 1.248 1.104-1.392 1.56-2.16 2.472-4.056l-2.304-.936zm-5.712-11.28c.048.528.072.792.072 1.344 0 2.016-.312 3.408-1.056 4.608-.984 1.584-2.328 2.52-4.656 3.288.624.696.936 1.2 1.392 2.16 1.944-.888 2.976-1.584 3.984-2.712.72-.816 1.248-1.728 1.656-2.784.72 1.416.912 1.704 1.68 2.568 1.128 1.248 2.28 2.064 4.08 2.928.408-1.008.648-1.416 1.32-2.376-1.512-.528-2.208-.864-3.048-1.488-1.08-.816-1.8-1.68-2.256-2.712-.36-.768-.6-2.184-.6-3.456 0-.456.024-.888.096-1.368h-2.664zm17.64 5.616a33.287 33.287 0 00-.504-1.704c-.696-2.064-.696-2.064-.84-2.832l-2.976.84c.456.84.912 2.112 1.632 4.464-1.152.36-1.344.408-2.328.744-1.176.408-1.488.48-2.184.624l.936 2.808c.624-.312 2.232-.96 3.096-1.224.84-.288.888-.288 1.2-.432 1.488 5.16 2.808 10.848 2.928 12.768l3.168-.72a6.413 6.413 0 01-.36-1.152c-1.44-6-1.56-6.456-3.048-11.664 4.056-1.2 5.496-1.488 7.2-1.488 2.016 0 3.192.888 3.192 2.4 0 .84-.36 1.584-.984 2.04-.744.504-1.68.792-2.712.792-1.224 0-2.4-.288-3.84-.936.336 1.344.408 1.8.432 2.952 1.272.432 2.544.672 3.72.672 1.824 0 3.312-.48 4.44-1.416 1.224-1.008 1.944-2.568 1.944-4.176 0-2.952-2.232-4.896-5.616-4.896-.48 0-.816.024-1.392.072.024-3.096.024-3.096.12-3.84h-3.024c.12.624.12.792.144 2.88.024.84.024.84.024 1.32-.96.192-1.368.288-2.04.456l-2.328.648zm25.56 7.032c1.704-.528 3.168-.792 4.608-.792 2.568 0 4.248 1.344 4.248 3.408 0 1.536-1.008 2.664-2.424 2.664-.672 0-1.248-.312-1.512-.816-.24-.456-.336-1.104-.336-2.112 0-.384 0-.6.048-1.056-1.032.552-1.44.72-2.664 1.056 0 1.464.096 2.256.408 3.072.624 1.728 1.992 2.664 3.936 2.664 3.12 0 5.448-2.352 5.448-5.472 0-3.408-2.856-5.856-6.864-5.856-1.752 0-3.264.192-4.896.672v-3.12a25.134 25.134 0 002.184-.312c1.656-.288 2.112-.36 2.544-.432l-.096-2.688c-1.224.384-2.832.696-4.632.912v-1.536c0-1.344.024-1.848.144-2.616h-3c.12.768.144 1.392.144 2.76v1.584c-.264 0-.384 0-.96.024-.336.024-.6.024-.84.024-1.272 0-2.232-.072-2.904-.216l.024 2.688c.216-.024.408-.024.504-.024.072 0 .288 0 .6.024.288 0 .96.024 1.32.024.6 0 .936 0 1.296-.024.792-.048.792-.048.984-.048l.024 3.696c-1.584.672-2.64 1.296-3.504 2.04-1.32 1.152-2.064 2.424-2.064 3.552 0 1.032.456 1.968 1.32 2.712 1.2 1.032 3.024 1.704 4.536 1.704 1.128 0 1.992-.552 2.208-1.392.144-.48.192-1.056.192-2.04l-.024-4.728zm-2.688 4.368c0 .792-.12 1.008-.528 1.008-.456 0-1.056-.192-1.536-.528-.552-.336-.792-.696-.792-1.104 0-.864 1.056-1.92 2.856-2.88v3.504zm15.504-10.128c-1.272-1.872-2.664-3.312-4.752-4.92l-2.256 1.512c1.848 1.392 3.6 3.288 4.8 5.184l2.208-1.776zm5.808 1.872h4.32c.792 0 1.632.024 2.208.072-.048-.528-.072-1.08-.072-2.16v-3.96c0-.936.024-1.488.072-2.256-.648.072-1.2.096-2.448.096h-4.248c-1.152 0-1.704-.024-2.448-.096.072.768.096 1.44.096 2.712v15.72c0 1.488-.048 2.256-.144 2.976h2.808c-.096-.624-.144-1.512-.144-2.952v-10.152zm0-6.24h4.104v1.248h-4.104v-1.248zm0 3.096h4.104v1.272h-4.104v-1.272zm17.544-2.472c0-1.176.024-1.896.12-2.688-.744.072-1.32.096-2.472.096h-4.56c-1.2 0-1.728-.024-2.448-.096.048.696.072 1.344.072 2.256v3.96c0 1.032-.024 1.512-.048 2.16a27.869 27.869 0 012.184-.072h4.632v9.816c0 .528-.12.624-.792.624-.792 0-1.944-.096-2.952-.216.384.888.504 1.392.672 2.544 1.584.096 1.848.096 2.232.096 1.392 0 2.04-.096 2.52-.384.624-.384.84-1.008.84-2.328V98.152zm-6.912-.624h4.392v1.248h-4.392v-1.248zm0 3.096h4.392v1.272h-4.392v-1.272zm1.512 6.456c0-.696.024-1.176.072-1.656a19.72 19.72 0 01-1.848.072h-5.928c-.696 0-1.248-.024-1.776-.072.048.504.072 1.032.072 1.68v5.136c0 .912-.048 1.656-.12 2.328h2.544v-1.608h5.352c.696 0 1.2.024 1.704.072a15.028 15.028 0 01-.072-1.632v-4.32zm-6.984.552h4.56v3.144h-4.56v-3.144zm16.872-10.272c.072.528.072.696.096 1.536.096 6.648.528 10.128 1.512 12.528.96 2.304 2.256 3.48 3.864 3.48 2.04 0 3.432-1.944 4.68-6.624-1.176-.864-1.56-1.224-2.4-2.184-.264 1.608-.696 3.048-1.272 4.344-.288.672-.624 1.032-.984 1.032-.768 0-1.536-1.536-1.944-4.032-.264-1.464-.456-4.344-.456-6.432 0-1.584.072-2.76.192-3.648h-3.288zm12.12 2.28c1.44 1.776 2.592 3.72 3.408 5.904.84 2.184 1.392 4.68 1.536 6.936l2.976-1.128c-.696-5.28-2.376-9.288-5.4-12.912l-2.52 1.2zm15.144 4.8a18.07 18.07 0 012.064-.096h8.208c.96 0 1.56.024 2.16.096v-1.68c1.464.96 2.208 1.344 3.912 2.112.456-1.176.696-1.632 1.32-2.64-2.448-.912-4.248-1.872-6.12-3.288-1.92-1.44-3-2.52-4.032-4.056h-2.856c-.984 1.488-2.112 2.688-3.768 4.008a23.982 23.982 0 01-6.12 3.456c.696.936.984 1.44 1.392 2.448 1.656-.72 2.28-1.056 3.84-2.016v1.656zm2.088-2.592h-.672c2.208-1.584 3.264-2.616 4.704-4.68 1.512 1.92 2.832 3.168 4.944 4.68h-8.976zm-1.176 14.976V115.6h10.488v1.224h2.856c-.12-.744-.144-1.416-.144-2.52v-5.616c0-1.032.024-1.704.12-2.376-.552.072-1.128.096-2.088.096h-12c-.96 0-1.536-.024-2.064-.096.072.696.12 1.392.12 2.376v5.592a19.19 19.19 0 01-.144 2.544h2.856zm0-8.088h10.488v4.512h-10.488v-4.512zm19.728 3.336c.312-.48.984-1.224 1.848-2.064.72-.696.888-.888 1.056-1.128h.048c-.048.48-.048.744-.048 1.416v2.136c0 2.424-.024 3.12-.144 3.84h3.12c-.12-1.056-.192-3.744-.192-7.176l.024-2.496c2.64-2.4 4.992-3.624 6.984-3.624 2.52 0 4.104 1.608 4.104 4.176 0 2.928-2.016 4.968-4.896 4.968-1.44 0-2.928-.312-4.272-.888.384 1.32.456 1.848.456 3.12 1.224.36 2.352.528 3.576.528 1.632 0 3.048-.312 4.272-.912 2.376-1.224 3.816-3.768 3.816-6.792 0-1.944-.648-3.696-1.848-4.944a6.696 6.696 0 00-4.68-1.968c-2.352 0-4.296.744-6.912 2.64-.312.216-.48.36-.576.456l-.048.024c.024-.072.048-.6.096-1.632.864-1.08 1.032-1.272 1.368-1.56l-.912-.984c-.12.072-.168.072-.336.12v-.432c.048-.672.048-.672.072-1.128.096-1.656.096-1.68.24-2.304l-3.096-.024c.072.48.096.672.096 1.056v.24c0 .216-.024.552-.024 1.008 0 .864-.024 1.176-.072 1.8-1.344.096-2.664.168-3.096.168-.216 0-.408-.024-.792-.048l.168 2.712c.744-.144.744-.144 3.648-.36-.048 1.968-.048 1.992-.096 3.456-2.856 2.64-3.792 3.456-4.344 3.84l1.392 2.76zm42.096-.216c-1.56.624-3.816.912-6.936.912-3.912 0-4.944-.504-5.136-2.52-.048-.48-.12-3.096-.12-4.344v-.504c.024-1.272.024-1.272.024-1.392v-.648c3.336-.192 3.336-.192 6.984-.336-.024 1.344-.096 2.304-.216 3-.144.936-.408 1.248-1.032 1.248-.72 0-1.848-.432-3.144-1.176.12.864.168 1.32.168 1.968 0 .336 0 .48-.024.96 1.248.576 2.304.816 3.432.816 1.416 0 2.4-.6 2.928-1.8.384-.864.6-2.664.624-5.088 1.128 0 2.496-.024 3.336-.024.6 0 .816 0 1.368.072l-.048-2.856c-.792.096-.792.096-4.656.216v-3c0-.6.024-.888.12-1.656h-3c.144.936.144.936.144 4.752-3.576.168-3.576.168-6.936.336.072-3.792.072-3.792.216-4.68h-3.216c.144.864.168 1.536.168 4.08 0 .144 0 .36-.024.744-2.376.144-3.696.216-3.912.216-.12 0-.36 0-.696-.024l.192 2.808c1.08-.192 1.08-.192 4.44-.432-.024 1.872-.024 1.968-.024 2.328 0 4.128.096 5.472.432 6.552.72 2.304 2.664 3.168 7.152 3.168 1.584 0 4.752-.168 6.504-.36.816-.096.816-.096 1.08-.12l-.192-3.216zm12.024-8.928c.072-.024.12-.024.144-.024.048 0 .12 0 .24.024.048 0 .192 0 .408.024.12 0 .384.024.72.024a34.17 34.17 0 002.976.12c.624 0 1.2-.024 2.16-.048.096 3.336.12 4.512.192 5.112-.648-.24-1.248-.336-2.136-.336-2.904 0-4.944 1.632-4.944 3.96 0 2.448 1.92 3.936 5.064 3.936 2.328 0 4.008-.84 4.56-2.256.12-.336.192-.816.192-1.344v-.336c.144.096.696.456 1.512.984.672.432 1.392 1.056 1.8 1.536l1.152-2.904c-.24-.12-.36-.192-.672-.408-1.44-1.032-2.04-1.368-3.768-2.184-.24-4.032-.24-4.08-.24-5.424v-.528c1.272-.144 2.52-.36 3.336-.528.432-.096.456-.096.696-.12l-.096-2.712-.192.048c-.384.144-.384.144-.528.192a24.13 24.13 0 01-3.24.576v-1.104c0-1.704.048-2.856.168-3.528l-3 .072c.048.264.072.624.072 1.152 0 .984.024 2.184.024 3.6-.84.048-1.368.048-2.208.048-1.968 0-3.216-.096-4.344-.384l-.048 2.76zm6.888 7.68v.648c0 .648-.096 1.008-.312 1.296-.36.48-1.056.744-1.944.744-1.344 0-2.208-.6-2.208-1.488 0-.984.96-1.584 2.496-1.584.72 0 1.176.096 1.968.384zm-9.384 5.112c-.048-.456-.048-.48-.048-.648 0-1.584.96-4.56 2.376-7.344l-1.992-.888c-.216.6-.24.672-.288.744-.24.576-.24.576-.456 1.08-.12.384-.24.648-.288.816-.168.432-.168.432-.288.696h-.024c.024-.264.024-.312.024-.504v-.384c0-.384 0-.384.024-1.248.024-4.176.936-9.96 1.92-12.048l-3.24-.336v.096c0 .24-.096.936-.264 1.776-.528 2.712-.528 2.712-.648 3.432a42.898 42.898 0 00-.456 6.36c0 2.52.192 4.824.648 7.632.096.552.096.696.12.936l2.88-.168zm43.888-.288c-1.608-3.024-3.528-5.928-5.88-8.952l-2.352 1.32c1.368 1.704 1.944 2.496 3.048 4.272-3.192.456-4.896.624-8.688.792 1.224-1.992 3.36-6.384 4.488-9.24.24-.576.336-.768.48-1.056l-3.168-.816c-.264 1.296-.6 2.28-1.392 4.128a63.166 63.166 0 01-3.528 7.104c-.672.024-.816.024-1.368.024-.672 0-1.224-.024-1.752-.072l.48 3.072c.72-.144.912-.144 2.808-.264 4.632-.24 8.832-.672 12.984-1.32.432.816.648 1.224 1.248 2.52l2.592-1.512zm-14.208-20.064c-.144.84-.528 1.704-1.272 2.976-1.488 2.496-3.288 4.368-5.928 6.192a11.17 11.17 0 011.824 2.496c1.752-1.416 2.544-2.136 3.696-3.456 1.56-1.776 3.072-3.984 3.984-5.88.168-.384.168-.384.312-.624.072-.12.096-.192.12-.24.12-.216.12-.216.216-.36l-2.952-1.104zm5.472 1.104l.192.384c.168.312.168.312.24.48.12.264.216.432.264.552.576 1.176 1.32 2.4 2.208 3.624 1.512 2.088 2.808 3.36 5.544 5.544.6-1.128.984-1.728 1.776-2.64-1.344-.888-1.656-1.128-2.28-1.632-1.056-.912-1.896-1.776-2.64-2.712-1.224-1.536-2.328-3.48-2.664-4.728l-2.64 1.128zm30.12 2.52l1.944-1.104c-1.056-1.368-1.344-1.68-2.376-2.712l-2.088.984c1.056 1.08 1.608 1.752 2.28 2.832h-2.832c-.024-.792-.024-1.488-.024-1.896 0-.696.024-1.344.096-1.944h-2.904c.072.432.144 1.272.144 1.872 0 .72 0 .72.072 1.968h-9.504c-1.176 0-2.064-.048-2.808-.144v2.688a25.195 25.195 0 012.808-.144h9.6c.192 3.336.24 3.768.576 5.712.528 3.096 1.44 5.52 2.664 7.224 1.056 1.416 2.28 2.328 3.192 2.328.624 0 1.2-.36 1.656-1.008.6-.864 1.008-2.208 1.368-4.512-.864-.384-1.272-.624-2.28-1.344-.312 2.496-.6 3.648-.888 3.648-.072 0-.312-.192-.552-.432-.504-.504-.984-1.32-1.44-2.376-.936-2.208-1.464-5.064-1.68-9.24h3.504c1.2 0 2.136.048 2.808.144v-2.688c-.6.12-1.2.144-2.328.144h-1.008zm-13.128 7.68v5.928c-2.688.408-3.816.552-4.824.552l.432 2.712c.408-.072.672-.12.888-.168 3.216-.48 7.008-1.248 11.064-2.232v-2.448c-2.304.576-3.24.768-4.92 1.104v-5.448h1.656c.912 0 1.704.048 2.4.12v-2.544c-.6.072-1.368.12-2.424.12h-5.808c-1.056 0-1.872-.048-2.472-.12v2.544c.672-.072 1.512-.12 2.424-.12h1.584zm33.024 5.544c-1.008.12-1.776.168-3.408.168h-6.72V99.712c0-1.752.048-2.544.192-3.528h-3.624c.144 1.032.192 1.896.192 3.552v12.456c0 1.392-.048 2.28-.192 3.168a51.519 51.519 0 013.048-.072h7.104c1.704 0 2.544.048 3.408.168v-3.24zm1.862-16.032c.144.96.192 1.608.192 3.096v12.912c0 1.416-.048 2.184-.192 3.096h3.648c-.144-.912-.192-1.68-.192-3.096V99.28c0-1.44.048-2.184.192-3.096h-3.648zm23.327 19.104c-.144-.84-.192-1.752-.192-3.096V99.496c0-1.464.048-2.352.192-3.312h-3.504c.144.912.192 1.896.192 3.312v8.064c0 1.008.072 2.448.168 3.384a47.444 47.444 0 00-1.872-3.072l-6.072-9.144c-.816-1.224-1.248-1.944-1.464-2.544h-3.744c.144.984.192 1.848.192 3.096v12.384c0 1.632-.072 2.832-.192 3.624h3.504c-.12-.864-.192-1.992-.192-3.6v-7.872c0-.552-.048-1.632-.072-2.088-.072-.888-.072-.888-.096-1.224a37.44 37.44 0 001.632 2.88l6.192 9.336c.696 1.056 1.128 1.752 1.536 2.568h3.792zm17.047-3.024c-1.032.12-1.728.168-3.072.168h-7.2v-5.664h5.856c1.488 0 2.136.024 3.12.168v-3.144c-1.056.12-1.872.168-3.12.168h-5.832v-4.944h6.912c1.416 0 2.184.048 3.096.168v-3.168c-1.104.12-1.896.168-3.096.168h-7.248c-1.464 0-2.088-.024-3.048-.072.144 1.128.192 1.848.192 3.096v12.984c0 1.416-.048 2.208-.192 3.168.96-.048 1.608-.072 3.048-.072h7.488c1.464 0 2.232.048 3.096.168v-3.192zm7.43 3.312c-.024-.312-.024-.504-.024-.648 0-1.704.816-4.488 2.136-7.272l-1.92-.864c-.936 2.16-.984 2.328-1.248 3.168.024-.6.048-.792.048-1.32.024-2.088.12-3.504.36-5.304.384-3.072.936-5.76 1.512-7.176l-3.168-.336c-.048.648-.096.888-.36 2.232-.696 3.552-.984 6.288-.984 9.384 0 2.424.168 4.272.624 7.176.072.552.096.696.12 1.128l2.904-.168zm3.312-14.376c2.544.264 2.568.264 4.32.264 1.776 0 3.6-.096 5.136-.288 1.152-.144 1.512-.192 1.704-.216l-.144-2.904c-1.584.432-3.864.648-6.528.648-2.088 0-3.36-.096-4.44-.384l-.048 2.88zm1.656 3.96c-1.488 1.776-2.208 3.384-2.208 4.944 0 .864.264 1.752.72 2.352 1.056 1.416 2.976 2.088 5.952 2.088 1.584 0 3.048-.144 4.968-.456.552-.096.648-.12.984-.144l-.24-3.048c-1.512.576-3.6.912-5.712.912-2.496 0-3.816-.72-3.816-2.088 0-1.032.504-2.064 1.704-3.456l-2.352-1.104zm14.76-3.72c.936-.192 2.376-.36 3.984-.48 5.208-.384 6.144-.456 8.088-.744-1.56.792-2.424 1.416-3.336 2.4-1.464 1.608-2.28 3.624-2.28 5.664 0 2.496 1.224 4.536 3.432 5.784 1.464.816 2.976 1.248 5.616 1.584.408.048.528.072.816.144l.432-3.264c-.24.024-.456.024-.48.024-.864 0-2.4-.264-3.576-.624-2.016-.6-3.192-2.04-3.192-3.912 0-2.424 1.8-4.824 4.848-6.408 1.536-.816 3.312-1.296 4.752-1.296.24 0 .24 0 .504.024l-.168-3.072c-.432.12-.792.144-2.76.24-6.648.312-10.632.528-11.976.6-3.528.24-3.528.24-3.96.24-.12 0-.384 0-.912-.024l.168 3.12zm26.544-2.664c.36.672.792 1.704 1.032 2.496h-1.512c-1.296 0-1.92-.024-2.64-.12.072.864.096 1.368.096 2.04v1.8c0 .648-.048 1.296-.144 1.848h2.664v-3.12h15.792v3h2.664a12.924 12.924 0 01-.12-1.776v-1.752c0-.864.024-1.392.072-2.016-.672.072-1.224.096-2.592.096h-1.584c.36-.6.384-.672 1.464-2.76l-2.328-.744a37.478 37.478 0 002.904-.552c.576-.144.648-.144 1.032-.216l-1.656-2.328c-1.2.432-2.88.816-4.848 1.08-3.048.384-7.416.648-10.872.648-.432 0-1.08 0-1.896-.024.408.888.624 1.512.864 2.4h1.608zm3.672 2.496a25.348 25.348 0 00-1.032-2.592c1.8-.096 2.736-.144 2.808-.168.36.864.672 1.752.984 2.76h-2.76zm5.28 0c-.336-1.32-.504-1.848-.96-2.952.768-.096 1.392-.144 1.776-.192.888-.072 1.488-.144 1.752-.168.24-.024.408-.048 1.032-.144a20.27 20.27 0 01-1.584 3.456h-2.016zm4.392 4.104c-.504.096-1.104.12-2.088.12h-8.712c-.96 0-1.8-.048-2.448-.12v2.472c.432-.048.48-.048 1.176-.096 1.632 2.304 2.352 3.12 3.864 4.392-2.424 1.128-5.304 1.92-8.568 2.304.6.912.912 1.488 1.32 2.568 3.84-.744 6.768-1.752 9.48-3.264a22.308 22.308 0 003.312 1.632c1.92.744 3.384 1.104 6.504 1.584.336-1.032.696-1.848 1.248-2.664-4.128-.504-6.096-.984-8.64-2.112 1.248-.936 2.208-1.8 3-2.64 1.704-1.944 1.704-1.944 2.112-2.328l-1.56-1.848zm-2.328 2.352c-1.128 1.32-2.064 2.136-3.6 3.144-1.44-.936-2.28-1.752-3.288-3.144h6.888zm17.208-4.296h.36c.288 0 .384 0 1.08.048.624.024 1.512.048 2.184.048 1.2 0 2.448-.024 3.264-.096.024.792.024 1.008.024 1.512 0 3.552-.432 5.232-1.68 6.744-.912 1.08-2.04 1.872-3.672 2.616 1.104.816 1.488 1.176 2.328 2.256 1.224-.72 1.872-1.176 2.616-1.824 1.344-1.2 2.208-2.664 2.736-4.656.336-1.2.504-3.192.504-5.736 0-.432 0-.648-.024-1.152 1.032-.12 1.248-.168 2.328-.408.792-.168.936-.192 1.344-.24l-.168-2.856c-.816.384-1.872.648-3.576.912-.048-1.536-.096-2.448-.096-2.712-.048-1.08-.048-1.296-.048-1.536 0-.288 0-.432.048-.816l-3.048.048c.144.864.168 1.08.312 5.304-1.248.072-1.632.096-2.544.096-1.944 0-3.216-.096-4.272-.312v2.76zm-1.536 3.096c-.576 1.08-1.176 2.64-1.584 3.96 0-.384-.024-.528-.048-.912v-.432c-.024-1.176-.024-1.584-.024-1.848-.024-.384-.024-.672-.024-.744 0-.456.048-1.152.168-2.736.144-2.016.24-2.688.624-4.728.264-1.416.408-1.968.696-2.928l-3.168-.312c0 .504-.024.768-.168 1.776-.744 4.968-.888 6.384-.888 9.096 0 2.712.264 5.088.864 7.8.12.456.144.576.168.912l2.784-.144c.048-1.728 1.152-4.8 2.736-7.704l-2.136-1.056zm33.912-6.456h-6.648c-1.104 0-1.968-.048-2.712-.144v2.688c.792-.096 1.848-.144 2.832-.144h6.528v10.848c0 .528-.192.6-1.536.6-.84 0-1.584-.072-2.952-.24.456 1.032.624 1.656.768 2.712 1.032.072 1.68.096 2.544.096 1.776 0 2.424-.096 2.952-.456.552-.36.816-1.104.816-2.352v-11.208h.768c.84 0 1.608.048 2.256.096v-2.64c-.624.096-1.272.144-2.328.144h-.696V97.96c0-1.2.048-2.064.144-2.976h-2.904c.12.84.168 1.824.168 2.976v2.112zm-10.44.36c.672-1.344 1.344-2.856 1.632-3.648.24-.624.408-1.032.576-1.392l-2.76-.768c-.144.864-.408 1.68-.984 3-1.152 2.688-2.568 4.8-4.44 6.672.624.936.984 1.68 1.344 2.736.864-.888 1.248-1.392 2.064-2.736-.048.96-.048 1.512-.048 2.688v7.08c0 1.2-.048 2.016-.144 2.88h2.88c-.072-.912-.12-1.8-.12-2.88v-13.632zm2.184 4.992c1.56 1.92 2.4 3.288 3.552 5.832l2.232-1.584c-1.128-2.184-2.04-3.576-3.696-5.592l-2.088 1.344zm23.88-1.992h.36c.288 0 .384 0 1.08.048.624.024 1.512.048 2.184.048 1.2 0 2.448-.024 3.264-.096.024.792.024 1.008.024 1.512 0 3.552-.432 5.232-1.68 6.744-.912 1.08-2.04 1.872-3.672 2.616 1.104.816 1.488 1.176 2.328 2.256 1.224-.72 1.872-1.176 2.616-1.824 1.344-1.2 2.208-2.664 2.736-4.656.336-1.2.504-3.192.504-5.736 0-.432 0-.648-.024-1.152 1.032-.12 1.248-.168 2.328-.408.792-.168.936-.192 1.344-.24l-.168-2.856c-.816.384-1.872.648-3.576.912-.048-1.536-.096-2.448-.096-2.712-.048-1.08-.048-1.296-.048-1.536 0-.288 0-.432.048-.816l-3.048.048c.144.864.168 1.08.312 5.304-1.248.072-1.632.096-2.544.096-1.944 0-3.216-.096-4.272-.312v2.76zm-1.536 3.096c-.576 1.08-1.176 2.64-1.584 3.96 0-.384-.024-.528-.048-.912v-.432c-.024-1.176-.024-1.584-.024-1.848-.024-.384-.024-.672-.024-.744 0-.456.048-1.152.168-2.736.144-2.016.24-2.688.624-4.728.264-1.416.408-1.968.696-2.928l-3.168-.312c0 .504-.024.768-.168 1.776-.744 4.968-.888 6.384-.888 9.096 0 2.712.264 5.088.864 7.8.12.456.144.576.168.912l2.784-.144c.048-1.728 1.152-4.8 2.736-7.704l-2.136-1.056zm18.768-5.088c.936-.192 2.376-.36 3.984-.48 5.208-.384 6.144-.456 8.088-.744-1.56.792-2.424 1.416-3.336 2.4-1.464 1.608-2.28 3.624-2.28 5.664 0 2.496 1.224 4.536 3.432 5.784 1.464.816 2.976 1.248 5.616 1.584.408.048.528.072.816.144l.432-3.264c-.24.024-.456.024-.48.024-.864 0-2.4-.264-3.576-.624-2.016-.6-3.192-2.04-3.192-3.912 0-2.424 1.8-4.824 4.848-6.408 1.536-.816 3.312-1.296 4.752-1.296.24 0 .24 0 .504.024l-.168-3.072c-.432.12-.792.144-2.76.24-6.648.312-10.632.528-11.976.6-3.528.24-3.528.24-3.96.24-.12 0-.384 0-.912-.024l.168 3.12zm31.848 6.216c1.704-.528 3.168-.792 4.608-.792 2.568 0 4.248 1.344 4.248 3.408 0 1.536-1.008 2.664-2.424 2.664-.672 0-1.248-.312-1.512-.816-.24-.456-.336-1.104-.336-2.112 0-.384 0-.6.048-1.056-1.032.552-1.44.72-2.664 1.056 0 1.464.096 2.256.408 3.072.624 1.728 1.992 2.664 3.936 2.664 3.12 0 5.448-2.352 5.448-5.472 0-3.408-2.856-5.856-6.864-5.856-1.752 0-3.264.192-4.896.672v-3.12a25.134 25.134 0 002.184-.312c1.656-.288 2.112-.36 2.544-.432l-.096-2.688c-1.224.384-2.832.696-4.632.912v-1.536c0-1.344.024-1.848.144-2.616h-3c.12.768.144 1.392.144 2.76v1.584c-.264 0-.384 0-.96.024-.336.024-.6.024-.84.024-1.272 0-2.232-.072-2.904-.216l.024 2.688c.216-.024.408-.024.504-.024.072 0 .288 0 .6.024.288 0 .96.024 1.32.024.6 0 .936 0 1.296-.024.792-.048.792-.048.984-.048l.024 3.696c-1.584.672-2.64 1.296-3.504 2.04-1.32 1.152-2.064 2.424-2.064 3.552 0 1.032.456 1.968 1.32 2.712 1.2 1.032 3.024 1.704 4.536 1.704 1.128 0 1.992-.552 2.208-1.392.144-.48.192-1.056.192-2.04l-.024-4.728zm-2.688 4.368c0 .792-.12 1.008-.528 1.008-.456 0-1.056-.192-1.536-.528-.552-.336-.792-.696-.792-1.104 0-.864 1.056-1.92 2.856-2.88v3.504zm15.504-10.128c-1.272-1.872-2.664-3.312-4.752-4.92l-2.256 1.512c1.848 1.392 3.6 3.288 4.8 5.184l2.208-1.776zm6.744-6.672c0 .312-.024.408-.072.816l-.36 2.976c-.192 1.656-.336 4.32-.336 6.264 0 .48.048 2.256.072 2.952v.456c0 .048 0 .168-.024.312l2.88-.048v-.504c0-2.856 1.152-5.808 3.024-7.752.84-.864 1.68-1.272 2.592-1.272 2.064 0 3.216 1.92 3.216 5.376 0 3.648-1.272 5.928-4.056 7.344-1.464.744-2.856 1.104-5.256 1.368.672.936.936 1.464 1.416 2.832 1.8-.312 3.48-.792 4.704-1.344 4.032-1.776 6.192-5.232 6.192-9.864 0-2.832-.528-4.776-1.728-6.384-1.032-1.392-2.472-2.16-4.104-2.16-1.752 0-3.24.816-4.56 2.448-.648.84-1.272 2.016-1.512 2.856-.096.384-.096.384-.144.528h-.072a30.27 30.27 0 01.312-2.4c.456-3.192.576-3.816.864-4.632l-3.048-.168zm40.104 17.232c-.336-.192-.456-.288-.864-.552-2.592-1.824-4.464-2.76-6.576-3.384-.024-.576-.024-.576-.096-2.904a73.024 73.024 0 001.632-.096c1.8-.168 2.88-.288 3.24-.336a25.28 25.28 0 011.56-.168l-.072-2.64c-1.08.288-1.464.336-2.976.528-2.208.24-2.208.24-3.408.312-.024-1.488-.024-1.776-.048-2.376 2.112-.12 3.048-.192 5.16-.48 1.368-.192 1.368-.192 1.896-.216l-.12-2.664c-1.56.456-3.648.72-6.912.912.024-1.968.048-2.28.168-2.928h-3.048c.096.6.096.624.12 3.024-.6.024-1.416.048-1.8.048-2.76 0-5.232-.192-6.456-.504l-.024 2.664h.384c.072 0 .264 0 .528.024 1.608.12 4.704.24 5.88.24.36 0 .744 0 1.512-.024.024 1.368.024 2.184.024 2.4-.672.024-1.488.048-1.968.048-2.28 0-4.56-.168-5.592-.408l-.048 2.592c.36 0 .6 0 .912.024 1.992.144 2.88.168 4.344.168.504 0 1.248-.024 2.4-.048.024.96.024.96.048 1.296v.528c.024.288.024.288.024.576a12.54 12.54 0 00-1.608-.096c-4.032 0-6.408 1.536-6.408 4.152 0 2.376 2.016 3.744 5.52 3.744 1.752 0 3.048-.336 3.96-1.032.912-.696 1.344-1.728 1.344-3.24v-.264c.576.24.768.312 1.296.6 1.728.888 3.384 2.112 4.44 3.288l1.632-2.808zm-10.128-1.848v.576c0 .72-.096 1.224-.288 1.536-.336.48-1.08.768-2.088.768-1.704 0-2.736-.552-2.736-1.44 0-1.032 1.176-1.656 3.12-1.656.72 0 1.2.048 1.992.216zm28.032-8.376v-1.56c1.896-.048 2.328-.048 2.904-.048 1.992 0 3.144.048 4.032.12l-.024-2.76c-.888.096-2.76.144-6.936.168.024-2.064.024-2.112.12-2.856l-3.024.024c.12.624.12.624.144 2.904-1.248.048-1.248.048-2.04.072-1.968.048-2.208.048-3.768.096-3.096.12-3.48.12-4.08.12-.432 0-.648 0-1.176-.048l.096 2.856c.648-.096.648-.096 4.272-.36 1.056-.072 3.312-.144 6.744-.24 0 .648 0 1.992.024 2.04 0 .168 0 .168.024.288-.552-.456-1.464-.72-2.496-.72-2.784 0-4.776 1.824-4.776 4.368 0 1.368.528 2.424 1.656 3.24.816.6 1.68.864 2.784.864 1.584 0 2.832-.6 3.528-1.704-.192 1.344-1.152 2.568-2.784 3.504-1.128.672-2.112 1.008-4.08 1.392.792.864 1.032 1.224 1.704 2.712 2.232-.768 3.336-1.272 4.344-1.968 2.328-1.608 3.576-3.864 3.576-6.48 0-1.296-.24-2.28-.768-3.384 0-.288-.024-.48-.024-.576l.024-2.064zm-2.76 3.96c0 1.248-.984 2.16-2.352 2.16-1.2 0-2.04-.792-2.04-1.896 0-1.056 1.008-1.92 2.232-1.92 1.32 0 2.16.648 2.16 1.656zm14.164 2.568a4.066 4.066 0 00-4.056 4.056c0 2.256 1.824 4.08 4.056 4.08s4.056-1.824 4.056-4.08c0-2.232-1.8-4.056-4.056-4.056zm0 1.872a2.197 2.197 0 010 4.392 2.197 2.197 0 010-4.392z" fill="#333"/><defs><clipPath id="clip0"><path fill="#fff" transform="translate(86)" d="M0 0h506.2v68.7H0z"/></clipPath></defs></svg>