<svg width="247" height="374" fill="none" xmlns="http://www.w3.org/2000/svg"><g clip-path="url(#clip0)"><path d="M122.2.882l-89.332 17.46c-8.06 1.576-13.317 9.393-11.743 17.46L60.077 235.45c1.574 8.068 9.384 13.33 17.444 11.755l89.331-17.461c8.06-1.576 13.318-9.392 11.744-17.46L139.643 12.636C138.069 4.57 130.26-.694 122.2.882z" stroke="#333" stroke-width=".92" stroke-linecap="round" stroke-linejoin="round"/><path d="M56.5 222.5l6 19.5 8.5 5.5 58-9-13.5 78.5-8 11-9.5 9.5-4.5 36.5H0l56.5-151.5zm-11.5-32l4.5-6.5 5 23 2 12-24.5 5.5 13-34z" fill="#fff"/><path d="M121.691 3.391L34.28 20.477c-7.309 1.428-12.077 8.517-10.65 15.832l38.578 197.725c1.428 7.316 8.51 12.088 15.818 10.659l87.412-17.086c7.308-1.428 12.076-8.517 10.648-15.832L137.509 14.05C136.081 6.734 129 1.962 121.691 3.39z" stroke="#333" stroke-linecap="round" stroke-linejoin="round"/><path d="M150 63.5l5.5 1.5 3 2.5 1.5 4 .5 4.5-2 6.5-4 4.5-4.5-23.5z" fill="#fff"/><path d="M135.692 28.273L30.667 48.802l31.489 161.391 105.025-20.528-31.489-161.392zm-17.505 200.692c6.107 0 11.057-4.955 11.057-11.068 0-6.112-4.95-11.067-11.057-11.067s-11.057 4.955-11.057 11.067c0 6.113 4.95 11.068 11.057 11.068zm-14.09-206.797l-46.46 9.081a1.605 1.605 0 00.614 3.15l46.461-9.082a1.604 1.604 0 00-.615-3.15zm-63.412-5.361s.34-1.873 1.054-2.06c.715-.187 13.743-2.83 14.312-2.8.57.03 1.616 1.539 1.616 1.539M26.725 64.497s-.82 1.146-.75 1.789c.07.642 2.474 12.946 2.607 13.347.132.402 1.317 1.11 1.317 1.11" stroke="#333" stroke-width=".92" stroke-linecap="round" stroke-linejoin="round"/><path d="M30.508 83.871s-.82 1.146-.75 1.792c.068.645 2.47 12.943 2.606 13.357.136.413 1.317 1.113 1.317 1.113" stroke="#333" stroke-width="1.92" stroke-linecap="round" stroke-linejoin="round"/><path d="M149.601 63.646s8.68-.301 10.44 7.222c1.552 6.636-.805 11.41-5.22 16.717" stroke="#333" stroke-width=".92" stroke-linecap="round" stroke-linejoin="round"/><path d="M163.359 130.563c-.362.929-3.366 3.062-3.379 11.248-.012 8.187 5.169 14.235 10.85 14.437 5.68.202 12.03-1.508 10.367-8.95-1.787-7.978-3.068-9.414-4.066-13.836-1.395-6.184-9.692-12.256-15.897-13.046" fill="#fff"/><path d="M162.669 130.611c-.359.929-2.676 3.017-2.689 11.209-.012 8.193 5.169 14.235 10.85 14.437 5.68.202 12.03-1.508 10.367-8.95-1.787-7.978-3.068-9.414-4.066-13.836-1.395-6.184-10.246-12.256-16.46-13.046" stroke="#333" stroke-width=".92" stroke-linecap="round" stroke-linejoin="round"/><path d="M177.837 136.022c-.362-.072-3.653-4.274-7.107-3.764-3.453.51-3.676 5.218-3.013 6.533.943 1.889 8.272 6.826 13.206 9.077" stroke="#333" stroke-width=".92" stroke-linecap="round" stroke-linejoin="round"/><path d="M175.977 202.64s-1.507 7.101-2.788 13.001c-1.28 5.9-.081 11.963 6.932 14.117 7.013 2.154 11.235-2.953 12.428-7.656l1.206-4.705s2.411-8.015 1.751-12.123c-.766-4.7-6.392-7.24-6.392-7.24" fill="#fff"/><path d="M175.977 202.64s-1.507 7.101-2.788 13.001c-1.28 5.9-.081 11.963 6.932 14.117 7.013 2.154 11.235-2.953 12.428-7.656l1.206-4.705s2.411-8.015 1.751-12.123c-.766-4.7-6.392-7.24-6.392-7.24" stroke="#333" stroke-width="3.92" stroke-linecap="round" stroke-linejoin="round"/><path d="M189.111 212.081c-2.339-2.835-6.582-3.2-8.49-1.206a10.65 10.65 0 00-2.462 3.945s3.544 3.49 6.681 5.629c3.137 2.139 4.822 2.434 4.822 2.434s2.408-7.209-.551-10.802z" stroke="#333" stroke-width="3.92" stroke-linecap="round" stroke-linejoin="round"/><path d="M171.022 169.584c.22 1.137-2.712 5.393-4.062 10.623-1.35 5.231-1.651 15.384 3.77 19.17 5.422 3.785 12.871 4.663 17.22.582 1.549-1.454 1.935-3.873.968-10.941-.968-7.067.099-13.272-2.803-17.818-2.902-4.545-11.368-9.293-16.979-11.519" fill="#fff"/><path d="M170.287 169.626c.22 1.137-1.974 5.351-3.315 10.581-1.341 5.231-1.651 15.384 3.77 19.17 5.422 3.785 12.872 4.663 17.22.582 1.549-1.454 1.935-3.873.968-10.941-.968-7.067.099-13.272-2.803-17.818-2.902-4.545-11.609-9.293-17.22-11.519" stroke="#333" stroke-width=".92" stroke-linecap="round" stroke-linejoin="round"/><path d="M187.179 184.669c-.196-3.508-1.239-6.977-6.712-7.436-5.472-.458-6.666 7.777-6.732 8.232-.066.456 4.071 3.095 6.886 4.66 2.815 1.566 6.886 2.38 6.886 2.38s-.159-4.82-.328-7.836z" stroke="#333" stroke-width=".92" stroke-linecap="round" stroke-linejoin="round"/><path d="M72.328 247.476c1.697 1.508 8.36 3.082 12.118 13.875" stroke="#333" stroke-width="3.92" stroke-linecap="round" stroke-linejoin="round"/><path d="M44.997 189.452c.603-.26 4.285-5.749 4.713-7.188" stroke="#333" stroke-width=".92" stroke-linecap="round" stroke-linejoin="round"/><path d="M.603 373.409s15.243-52.507 19.414-65.517c4.17-13.01 1.606-21.037 1.606-27.781 0-6.745-3.384-18.79-4.505-26.979-1.121-8.19-4.334-21.2-5.702-26.34-1.368-5.14-.075-11.079.407-19.965.482-8.887-1.124-33.986 0-37.365 1.124-3.378 7.862-14.934 12.675-21.356 4.813-6.422 5.615-13.489 7.218-17.495 1.603-4.006 2.938-6.404 5.937-5.3 1.012.371 2.341.845 3.842 9.101 1.501 8.255 5.5 22.837 4.937 26.402-.564 3.566-1.188 10.509-2.875 12.886-1.688 2.377-2.625 2.878-2.439 3.692.187.815 1.938 1.252 2.875 6.444.938 5.191 3.252 18.4 3.69 21.208.436 2.808 4.607 4.042 9.2 17.16" fill="#fff"/><path d="M.603 373.409s15.243-52.507 19.414-65.517c4.17-13.01 1.606-21.037 1.606-27.781 0-6.745-3.384-18.79-4.505-26.979-1.121-8.19-4.334-21.2-5.702-26.34-1.368-5.14-.075-11.079.407-19.965.482-8.887-1.124-33.986 0-37.365 1.124-3.378 7.862-14.934 12.675-21.356 4.813-6.422 5.615-13.489 7.218-17.495 1.603-4.006 2.938-6.404 5.937-5.3 1.012.371 2.341.845 3.842 9.101 1.501 8.255 5.5 22.837 4.937 26.402-.564 3.566-1.188 10.509-2.875 12.886-1.688 2.377-2.625 2.878-2.439 3.692.187.815 1.938 1.252 2.875 6.444.938 5.191 3.252 18.4 3.69 21.208.436 2.808 5.198 3.855 9.788 16.964" stroke="#333" stroke-width=".92" stroke-linecap="round" stroke-linejoin="round"/><path d="M25.381 147.585c1.094.316 4.948-2.893 7.335-9.463 1.63-4.491 2.583-9.384 2.038-12.605m121.438 106.976s-3.062 12.919-6.389 19.305c-3.327 6.386-1.862 14.518-13.561 35.829s-23.163 33.835-29.558 41.162c-6.395 7.327-7.583 6.938-9.313 11.463-1.73 4.524-3.158 33.18-3.158 33.18" stroke="#333" stroke-width=".92" stroke-linecap="round" stroke-linejoin="round"/><path d="M246.409 218.591c-3.037-10.003-5.493-10.139-8.043-11.765-3.806-2.413-10.409-3.287-15.484-4.186-5.612-.996-7.592-6.636-15.973-7.656-11.397-1.385-15.65 2.075-19.658.932-10.728-3.062-22.379-23.757-38.12-20.837-7.133 1.324-9.866 6.25-10.774 8.563-.403.26-.346 1.234-.394 1.207-.049-.027.12.455-.603 1.261-4.298-6.305-9.086-14.443-12.145-21.167-5.346-11.745-9.135-18.4-13.51-26.161-4.418-7.819-6.423-14.066-11.651-27.633-5.124-13.23-10.346-18.702-17.178-17.122-7.233 1.68-12.356 7.626-10.37 17.852 1.986 10.225 5.247 18.798 9.487 28.535 4.24 9.737 5.964 16.479 9.83 24.469 3.867 7.991 17.814 30.544 19.559 39.907 1.745 9.363 5.425 23.112 8.158 40.149 2.734 17.037 1.04 20.747 1.04 20.747-1.082.021-7.495-4.995-11.946-11.978-4.452-6.983-7.534-16.289-16.37-26.952-8.837-10.663-24.242-16.675-32.801-11.429l.458.754c-3.071 2.817-3.14 9.29.443 14.041 4.822 6.416 9.309 12.105 10.762 20.575 1.452 8.47 2.41 9.08 8.344 16.947 5.934 7.866 12.576 15.987 15.479 26.267 2.902 10.28 7.498 15.987 17.78 24.086 10.283 8.099 37.246 28.807 46.435 34.387 5.807 4.202 16.723 13.272 25.969 21.036h61.276V218.591zm-102.573-22.434l.853.905a71.7 71.7 0 01-.853-.905z" fill="#fff"/><path d="M146.277 197.147c-5.364-5.369-15.255-19.984-20.658-31.862-5.347-11.746-8.981-18.186-13.354-25.941-4.412-7.828-6.416-13.822-11.654-27.39-5.123-13.233-10.605-19.262-17.446-17.67-7.218 1.68-12.356 7.614-10.352 17.851 2.004 10.238 5.488 19.227 9.728 28.958 4.24 9.731 6.112 16.729 9.978 24.735 3.867 8.005 17.712 31.069 19.46 40.447 1.748 9.378 5.253 22.647 7.98 39.684 2.727 17.037.874 19.724.874 19.724-1.082.024-7.055-4.286-11.506-11.269-4.452-6.983-7.595-16.545-16.422-27.196-8.827-10.651-23.295-17.043-31.854-11.794" stroke="#333" stroke-width=".92" stroke-linecap="round" stroke-linejoin="round"/><path d="M89.428 118.693c4.951-1.475 7.754-5.016 4.86-14.862-2.892-9.846-8.407-10.126-14.826-7.24-6.591 2.96-5.552 10.431-2.993 16.163 2.429 5.438 7.522 7.562 12.959 5.939z" stroke="#333" stroke-width="1.39" stroke-linecap="round" stroke-linejoin="round"/><path d="M138.219 184.859s1.748-8.03 11.171-9.78c15.738-2.92 27.389 17.776 38.117 20.838 4.008 1.143 8.261-2.317 19.658-.932 8.378 1.016 10.358 6.66 15.973 7.655 5.078.905 11.678 1.759 15.484 4.187 2.477 1.581 4.87 1.75 7.79 10.944M67.994 239.684s6.407-3.589 7.375-9.42c.967-5.831-4.008-15.028-10.892-15.574-6.883-.546-8.697 9.016-3.86 15.432s9.3 12.096 10.762 20.578c1.461 8.483 2.41 9.077 8.344 16.944 5.934 7.866 12.576 15.987 15.479 26.267 2.902 10.28 7.498 15.987 17.78 24.086 10.283 8.099 37.246 28.807 46.438 34.387 5.108 3.095 16.343 12.919 25.315 21.036" stroke="#333" stroke-width=".92" stroke-linecap="round" stroke-linejoin="round"/></g><defs><clipPath id="clip0"><path fill="#fff" d="M0 0h247v374H0z"/></clipPath></defs></svg>