<svg width="660" height="121" fill="none" xmlns="http://www.w3.org/2000/svg"><path d="M0 26.025C0 16.622 7.606 9 16.988 9h626.024C652.394 9 660 16.622 660 26.025v68.95c0 9.403-7.606 17.025-16.988 17.025H16.988C7.606 112 0 104.378 0 94.975v-68.95z" fill="#3AAE37"/><path d="M98.9 9H41.1C28.894 9 19 18.991 19 31.317v58.366C19 102.008 28.895 112 41.1 112h57.8c12.205 0 22.1-9.992 22.1-22.317V31.317C121 18.99 111.105 9 98.9 9z" fill="#3AAE37"/><path d="M107 56.232C107 39.56 90.179 26 69.496 26 48.813 26 32 39.56 32 56.232 32 71.182 45.346 83.7 63.36 86.08c1.227.264 2.883.802 3.304 1.842.299 1.114.34 2.28.12 3.411l-.55 3.13c-.162.938-.755 3.684 3.245 2.004 3.999-1.68 21.644-12.63 29.48-21.627C104.39 68.87 107 62.9 107 56.232z" fill="#fff"/><path d="M62.287 48h-2.574a.7.7 0 00-.504.217.753.753 0 00-.209.522v16.522c0 .196.075.384.209.523a.7.7 0 00.504.216h2.574a.7.7 0 00.504-.216.753.753 0 00.21-.523V48.739a.753.753 0 00-.21-.522.7.7 0 00-.504-.217zm17.998 0h-2.524a.707.707 0 00-.505.214.739.739 0 00-.21.517v9.722l-7.378-10.135-.05-.069-.042-.043h-2.861a.708.708 0 00-.505.214.739.739 0 00-.21.517v16.332c0 .194.076.38.21.517a.708.708 0 00.505.214h2.575c.19 0 .373-.077.508-.213a.747.747 0 00.215-.518v-9.894l7.344 10.135c.047.075.11.137.186.18h.092a.66.66 0 00.126.12h2.524c.19 0 .372-.076.506-.213a.739.739 0 00.21-.517V48.748a.739.739 0 00-.21-.517.708.708 0 00-.506-.214m-24.017 13.89h-7.17V48.74a.745.745 0 00-.215-.523.728.728 0 00-.517-.217h-2.634a.728.728 0 00-.518.217.745.745 0 00-.214.523v16.546c0 .19.07.374.198.514.139.129.32.2.508.2h10.562a.73.73 0 00.518-.217.745.745 0 00.214-.523v-2.613a.745.745 0 00-.214-.523.727.727 0 00-.518-.217zm39.002-9.795a.72.72 0 00.516-.217.741.741 0 00.214-.523V48.74a.746.746 0 00-.214-.524.724.724 0 00-.516-.217H84.713a.718.718 0 00-.507.21.726.726 0 00-.206.513v16.554a.733.733 0 00.206.514.724.724 0 00.507.209H95.27a.721.721 0 00.515-.217.746.746 0 00.215-.522v-2.605a.746.746 0 00-.214-.523.724.724 0 00-.516-.217h-7.193v-2.832h7.194a.721.721 0 00.515-.217.746.746 0 00.214-.523v-2.649a.75.75 0 00-.214-.523.73.73 0 00-.516-.217h-7.193v-2.84h7.194z" fill="#3AAE37"/><path d="M205.046 55.214c-.899.163-1.798.204-3.636.204h-11.56a86.02 86.02 0 00.653-4.399h16.422c2.328 0 3.554.041 4.983.245v-4.725c-1.47.163-2.9.244-4.983.244h-15.972c.081-.814.081-1.14.204-2.688.081-1.14.204-2.117.327-2.891l-5.188-.123c.122.774.163 1.426.163 2.2 0 .977-.041 2.566-.122 3.502h-6.536c-2.084 0-3.513-.081-4.984-.244v4.725c.94-.163 2.737-.245 4.984-.245h6.127c-.776 5.417-1.634 8.675-3.227 12.3-2.043 4.603-4.412 7.698-8.701 11.445 1.552 1.14 2.247 1.874 3.472 3.462 3.023-2.77 4.943-5.132 6.904-8.35 1.715-2.891 2.859-5.335 3.84-8.104 1.225 2.688 2.982 5.131 5.433 7.697-3.227 2.444-7.067 4.196-11.888 5.417 1.348 1.548 1.839 2.24 2.696 4.114 3.799-1.385 5.148-1.955 7.313-3.136a30.719 30.719 0 005.147-3.462c1.879 1.466 3.513 2.444 5.759 3.543 2.41 1.14 4.984 2.2 7.394 2.933.776-2.037 1.389-3.218 2.492-4.603-5.433-1.221-8.946-2.606-12.418-4.928 2.614-2.891 4.411-5.702 6.045-9.286.695-1.548.899-1.955 1.144-2.362l-2.287-2.485zm-3.432 4.195a27.495 27.495 0 01-4.82 7.21c-2.328-2.24-3.799-4.277-5.188-7.21h10.008zm35.008-11.689v1.996h-6.985c-2.124 0-2.982-.04-3.962-.163v3.87c1.062-.123 1.92-.164 3.962-.164h1.185c.531 1.06.898 1.915 1.184 2.77h-1.47c-2.165 0-2.941-.04-3.963-.163v3.828c.981-.122 1.92-.162 3.963-.162h6.086v2.036h-5.351c-1.552 0-2.778-.04-3.676-.163v3.544c.939-.123 2.205-.163 3.676-.163h5.351v1.995h-6.495c-1.879 0-2.859-.04-3.921-.203v3.747c1.062-.163 2.042-.204 3.921-.204h6.495c-.041 1.507-.081 2.322-.204 3.218h4.698c-.164-.937-.205-1.833-.205-3.218h7.353c1.798 0 2.901.04 3.963.204v-3.747c-1.144.163-2.084.203-4.003.203h-7.313v-1.995h5.883c1.43 0 2.696.04 3.635.163v-3.544c-.898.122-2.083.163-3.635.163h-5.883v-2.036h6.945c2.042 0 2.941.04 3.962.163v-3.829c-1.062.122-1.838.163-3.962.163h-2.247c.409-.855.695-1.466 1.226-2.77h1.674c2.002 0 2.86.041 4.004.163v-3.869c-1.062.122-1.879.163-4.004.163h-7.638V47.72h6.29c1.594 0 2.615.041 3.636.163v-3.87a38.055 38.055 0 01-4.126.205h-5.8c0-1.182.081-2.118.204-2.933h-4.657c.123.855.163 1.589.204 2.933h-5.351c-1.92 0-3.023-.041-4.085-.204v3.828c.94-.081 1.757-.122 3.636-.122h5.8zm5.883 5.54c-.409 1.14-.654 1.75-1.144 2.769h-5.27c-.408-1.181-.653-1.833-1.103-2.77h7.517zm-26.798-8.472c3.187 2.892 4.453 4.317 6.577 7.372l3.35-3.3c-2.043-2.728-3.472-4.276-6.659-7.086l-3.268 3.014zm-.245 16.495c.981-.163 1.593-.204 2.737-.204h2.206v8.757c-2.083 1.874-4.207 3.38-5.76 4.032l2.002 4.643c.327-.285.817-.651 1.185-.936 1.879-1.345 2.655-1.996 4.738-3.91 1.552 1.914 3.145 3.054 5.188 3.665 1.961.57 4.943.815 10.825.815 4.208 0 10.049-.082 13.93-.245.286-1.71.449-2.321 1.225-4.643-4.33.53-8.946.733-15.604.733-5.883 0-8.579-.285-10.254-1.059-1.552-.692-2.369-1.425-3.186-2.85v-8.757c0-2.159.041-3.218.164-4.44-.981.163-1.879.204-3.105.204h-3.064c-1.552 0-2.206-.04-3.227-.204v4.399zm57.026-16.129c-1.184 0-2.165-.04-3.186-.163.082 1.019.163 1.915.163 2.851v20.61c0 1.017-.041 1.954-.122 2.81a31.753 31.753 0 012.982-.123h16.503c1.062 0 1.879.041 2.778.123a30.21 30.21 0 01-.123-2.81v-6.15c0-1.386.041-2.24.123-3.096-.776.081-1.389.122-2.86.122h-14.992v-2.933h13.808c1.266 0 1.92.041 2.941.082-.123-.774-.123-1.67-.123-3.055v-5.58c0-1.059.041-1.954.123-2.85-.817.122-1.675.162-2.941.162h-6.7a39.017 39.017 0 002.084-3.462L278.207 41a23.647 23.647 0 01-2.165 4.154h-3.554zm1.266 3.87h12.337v3.665h-12.337v-3.665zm0 14.051h13.44v4.154h-13.44v-4.154zm-17.32-18.206c2.778 2.566 4.29 4.277 6.781 7.78l3.473-3.3c-2.574-3.299-3.84-4.643-6.986-7.453l-3.268 2.973zm.041 16.658c1.021-.163 1.675-.203 2.819-.203h2.287v8.512c-2.165 1.874-4.575 3.543-5.964 4.073l1.961 4.643c.286-.244.899-.733 1.512-1.222 1.634-1.181 2.9-2.321 4.616-3.991 1.593 1.955 3.186 3.095 5.187 3.787 2.165.693 5.229.978 11.193.978 4.657 0 8.619-.04 13.195-.163.286-1.874.49-2.688 1.225-4.643-4.167.448-9.028.652-16.953.652-5.31 0-7.761-.367-9.477-1.467-1.103-.733-1.674-1.384-2.246-2.606v-8.513c0-2.199.041-3.176.163-4.439-.98.163-1.879.204-3.104.204h-3.146c-1.593 0-2.247-.041-3.268-.204v4.602zm51.552-13.196c.123-3.584.123-3.584.123-4.358.041-1.344.081-1.833.245-2.688h-4.902c.163 1.018.245 1.996.245 3.625 0 2.159 0 2.24-.041 3.421h-1.838c-2.124 0-3.391-.081-4.493-.244v4.765c1.184-.163 2.369-.244 4.125-.244h2.043c-.327 4.887-.899 8.227-1.92 11.689-1.226 4.114-2.86 7.127-5.433 10.141 1.348 1.263 2.247 2.363 3.35 4.155 3.145-4.114 4.942-7.698 6.25-12.463 1.143-4.155 1.756-8.024 2.083-13.522h3.921c-.081 5.946-.081 5.946-.245 9.53-.245 4.521-.612 8.105-1.062 9.653-.367 1.344-.735 1.63-1.879 1.63-.939 0-2.451-.205-4.003-.49.531 1.833.653 2.363.735 4.358 1.757.204 3.268.285 4.289.285 3.35 0 4.535-1.058 5.27-4.643.735-3.462 1.144-9.612 1.225-18.124.041-5.132.041-5.213.205-6.639-1.267.123-2.451.163-4.575.163h-3.718zm15.074 26.392h6.005v2.892h4.616c-.164-1.303-.246-2.566-.246-4.52V49.756c0-1.874.041-2.933.205-4.277-1.144.163-2.043.204-3.677.204h-7.761c-1.552 0-2.492-.04-3.677-.204.164 1.344.205 2.403.205 4.277v23.378c0 1.833-.082 3.421-.245 4.684h4.575v-3.096zm0-24.966h6.005V70.65h-6.005V49.757zm27.777 5.335c.123-.04.205-.04.245-.04.082 0 .205 0 .409.04.082 0 .327 0 .694.04.205 0 .654.042 1.226.042a58.34 58.34 0 005.065.203c1.062 0 2.043-.04 3.677-.081.163 5.661.204 7.657.326 8.675-1.102-.407-2.124-.57-3.635-.57-4.943 0-8.415 2.77-8.415 6.72 0 4.154 3.268 6.68 8.619 6.68 3.963 0 6.822-1.426 7.762-3.829.204-.57.326-1.385.326-2.28v-.57c.245.162 1.185.773 2.574 1.669 1.144.733 2.369 1.792 3.064 2.607l1.96-4.928c-.408-.204-.612-.326-1.143-.693-2.451-1.751-3.473-2.322-6.414-3.706-.408-6.843-.408-6.924-.408-9.205v-.896a67.701 67.701 0 005.678-.896c.735-.163.776-.163 1.184-.204l-.163-4.602-.327.081c-.653.245-.653.245-.898.326-1.594.408-3.391.733-5.515.978v-1.874c0-2.892.082-4.847.286-5.987l-5.106.122c.081.448.122 1.06.122 1.955 0 1.67.041 3.707.041 6.11-1.43.081-2.328.081-3.758.081-3.35 0-5.474-.163-7.394-.652l-.082 4.684zm11.724 13.033v1.1c0 1.1-.163 1.71-.531 2.2-.613.814-1.797 1.262-3.309 1.262-2.287 0-3.758-1.018-3.758-2.525 0-1.67 1.634-2.688 4.249-2.688 1.225 0 2.001.163 3.349.651zm-15.972 8.676c-.082-.774-.082-.815-.082-1.1 0-2.688 1.634-7.738 4.044-12.463l-3.39-1.507c-.368 1.018-.409 1.14-.49 1.263-.409.977-.409.977-.776 1.832-.205.652-.409 1.1-.491 1.385-.286.733-.286.733-.49 1.181h-.041c.041-.448.041-.53.041-.855v-.652c0-.651 0-.651.041-2.118.041-7.086 1.593-16.902 3.268-20.446l-5.515-.57v.163c0 .407-.163 1.589-.449 3.014-.899 4.603-.899 4.603-1.103 5.824-.531 3.544-.776 7.128-.776 10.794 0 4.276.327 8.186 1.103 12.951.163.937.163 1.181.204 1.589l4.902-.285zm39.175-27.085c.572 0 .694.04 1.511.122 2.002.285 5.392.489 7.476.489 2.573 0 4.33-.082 6.127-.326-1.879 1.059-3.881 2.28-6.005 3.625l3.554 2.81c4.044-2.932 8.456-5.661 10.907-6.76l-.164-4.562c-2.696.57-5.596.774-10.784.774-5.474 0-9.109-.286-12.255-1.019l-.367 4.847zm3.023 9.205c-3.677 3.054-5.27 5.742-5.27 8.838 0 3.177 1.716 5.457 5.229 6.802 2.165.896 5.759 1.344 10.212 1.344 3.513 0 6.127-.204 11.029-.896.858-.123 1.103-.123 1.798-.163l-.45-5.58c-2.614.977-7.965 1.71-12.826 1.71-6.904 0-9.886-1.14-9.886-3.787 0-1.752 1.144-3.462 3.717-5.58l-3.553-2.688zm33.292-6.231h.327c.326 0 .735 0 1.307.04 2.165.163 4.003.244 6.168.285-.572 1.996-2.083 5.946-3.431 9.042a27.355 27.355 0 01-1.92 3.665l4.943 1.711c.735-1.018 1.47-1.63 2.982-2.362 2.614-1.263 5.759-1.996 8.782-1.996 4.412 0 6.863 1.385 6.863 3.91 0 3.258-3.84 5.335-9.763 5.335-3.431 0-6.863-.651-10.539-1.954.367 2.036.408 2.85.408 5.172 3.187.937 6.781 1.426 10.417 1.426 8.946 0 14.787-3.91 14.787-9.938 0-5.173-4.289-8.268-11.478-8.268-4.003 0-7.557.896-10.294 2.647v-.081c.817-1.467 2.369-5.377 3.227-8.268 5.106-.122 8.701-.408 14.624-1.06 1.062-.121 1.43-.162 2.369-.203l-.245-4.928c-1.43.407-2.206.57-5.229.937-2.696.325-7.312.651-10.416.733.245-.774.245-.774.98-3.829.409-1.629.409-1.629.654-2.362l-5.474-.448c-.082 1.751-.368 3.462-1.144 6.72-4.207 0-6.944-.203-8.823-.692l-.082 4.765zm48.407-6.232c4.656 2.158 8.946 3.502 15.931 5.09l1.675-4.683c-4.616-.652-12.419-2.973-15.237-4.52l-2.369 4.113zm-3.268 3.584a16.654 16.654 0 01-.245 2.362c-.736 4.806-1.389 9.327-1.716 11.852-.204 1.548-.204 1.71-.327 2.444l5.147.163c.858-.978 1.103-1.222 1.838-1.751 2.737-1.874 6.536-2.974 10.172-2.974 4.33 0 6.903 1.63 6.903 4.358 0 3.462-4.003 5.865-9.763 5.865-3.472 0-6.985-.651-10.988-2.036.49 1.914.572 2.729.613 5.254 4.656 1.14 6.903 1.425 10.416 1.425 4.739 0 8.129-.855 10.784-2.77 2.615-1.873 4.208-4.887 4.208-7.86 0-5.213-4.575-8.634-11.52-8.634-4.942 0-10.008 1.588-12.377 3.869l-.082-.082c.123-.61.123-.61.205-1.18.531-3.992 1.225-7.78 1.838-10.02l-5.106-.285zm44.771-7.902v.774c0 1.344-.327 3.829-1.062 8.227-2.247.326-7.19.815-8.701.815l.49 4.806c1.348-.367 5.229-1.059 7.312-1.303-1.634 5.824-2.206 7.535-3.962 11.526-1.389 3.095-3.023 6.028-4.249 7.657l4.739 2.607c.204-.408.204-.448.326-.693l.613-1.222c2.369-4.765 3.472-7.371 4.902-11.444.899-2.648 1.266-3.87 2.492-8.839.94-.081 1.552-.122 2.369-.122 3.227 0 4.167 1.1 4.167 4.847 0 3.462-.409 7.168-1.062 9.286-.613 1.996-1.267 2.77-2.451 2.77-1.43 0-3.758-.611-5.964-1.589.327 1.589.408 2.403.408 3.462 0 .407-.041.978-.081 1.792 2.737.856 4.411 1.181 6.29 1.181 2.165 0 3.391-.488 4.535-1.832 1.961-2.24 3.145-7.82 3.145-14.826 0-3.706-.531-5.66-1.92-7.209-1.348-1.425-3.349-2.158-6.046-2.158-.776 0-1.348.04-2.532.122.122-.53.122-.611.286-1.507.572-3.055.572-3.055.694-3.91.123-.652.164-.855.245-1.385.082-.448.205-.896.327-1.262l-5.31-.57zm14.624 7.82c1.92 2.078 3.227 3.951 4.697 6.965 1.553 3.055 2.492 5.743 3.268 9.245l4.657-2.362c-1.756-6.272-4.33-11.119-8.415-15.884l-4.207 2.036zm25.572-3.502c4.656 2.158 8.946 3.502 15.931 5.09l1.675-4.683c-4.616-.652-12.419-2.973-15.237-4.52l-2.369 4.113zm-3.268 3.584a16.654 16.654 0 01-.245 2.362c-.736 4.806-1.389 9.327-1.716 11.852-.204 1.548-.204 1.71-.327 2.444l5.147.163c.858-.978 1.103-1.222 1.838-1.751 2.737-1.874 6.536-2.974 10.172-2.974 4.33 0 6.903 1.63 6.903 4.358 0 3.462-4.003 5.865-9.763 5.865-3.472 0-6.985-.651-10.988-2.036.49 1.914.572 2.729.613 5.254 4.656 1.14 6.903 1.425 10.416 1.425 4.739 0 8.129-.855 10.784-2.77 2.615-1.873 4.208-4.887 4.208-7.86 0-5.213-4.575-8.634-11.52-8.634-4.942 0-10.008 1.588-12.377 3.869l-.082-.082c.123-.61.123-.61.205-1.18.531-3.992 1.225-7.78 1.838-10.02l-5.106-.285z" fill="#fff"/></svg>