<svg width="241" height="23" fill="none" xmlns="http://www.w3.org/2000/svg"><g clip-path="url(#clip0)" fill="#1D1D1B"><path d="M8.78 21.154l-3.93-6.316H3.544v6.316H0V3.208h4.982c4.774 0 7.02 1.587 7.02 5.393v.936c0 2.667-1.03 4.101-3.417 4.8l4.328 6.817H8.78zm-3.798-9.278c2.563 0 3.283-.8 3.283-2.515v-.606c0-1.699-.486-2.587-3.235-2.587H3.515v5.708h1.467zm21.639-8.668H15.247v2.798H26.62V3.208zm-7.83 15.033v-4.73h6.673v-2.892H15.247v10.553h11.732v-2.93H18.79zM38.633 3.232v11.03L33.22 3.233h-3.518v17.922h3.518V10.388l5.491 10.766h3.44V3.232h-3.517zm6.804 12.727V8.363C45.437 4.56 47.26 3 52.032 3s6.755 1.56 6.755 5.363v7.596c0 3.707-2.053 5.363-6.755 5.363s-6.595-1.656-6.595-5.363zm9.806-.158V8.523c0-1.632-.462-2.683-3.2-2.683-2.569 0-3.054 1.051-3.054 2.683v7.278c0 1.71.485 2.686 3.053 2.686 2.569 0 3.2-.976 3.2-2.686zM74.962 3.232l-5.32 17.94h-3.697l-5.339-17.94h3.619l3.571 12.38 3.539-12.38h3.627zm13.401-.024H76.986v2.798h11.377V3.208zm-7.835 15.033v-4.73h6.673v-2.892H76.986v10.553h11.73v-2.93h-8.188zm22.309-15.033H91.465v2.798h11.372V3.208zM95.01 18.241v-4.73h6.672v-2.892H91.465v10.553h11.732v-2.93h-8.188zm19.841-15.009v11.03l-5.414-11.03h-3.517v17.922h3.517V10.388l5.489 10.766h3.44V3.232h-3.515zm6.804 12.727V8.363c0-3.803 1.824-5.363 6.595-5.363S135 4.56 135 8.363v7.596c0 3.707-2.056 5.363-6.75 5.363s-6.595-1.656-6.595-5.363zm9.801-.158V8.523c0-1.632-.459-2.683-3.201-2.683-2.571 0-3.053 1.051-3.053 2.683v7.278c0 1.71.482 2.686 3.053 2.686 2.571 0 3.201-.976 3.201-2.686z"/></g><path d="M154.072 3.12h11.52v1.752h1.656v-3.12h-14.76v3.12h1.584V3.12zm1.224 10.608V12.12h3.624v1.608h-3.624zm0-4.344h3.624v1.56h-3.624v-1.56zm9.072 0v1.56h-3.696v-1.56h3.696zm0 4.344h-3.696V12.12h3.696v1.608zm-5.448 6.336h1.752v-2.28h7.008v-1.368h-7.008v-1.464h5.304V8.16h-5.304V6.72h6V5.376h-6V3.72h-1.752v1.656h-5.928V6.72h5.928v1.44h-5.184v6.792h5.184v1.464h-6.84v1.368h6.84v2.28zm-7.272-14.64c-.744-1.176-2.4-2.808-3.864-3.912l-1.368 1.008c1.464 1.152 3.072 2.808 3.792 4.008l1.44-1.104zm-.72 4.896H146.2V12h3.048v6.144a39.503 39.503 0 01-3.312 2.76l.936 1.704a84.331 84.331 0 003.336-3.072c1.488 1.872 3.648 2.712 6.792 2.832 2.688.12 7.752.072 10.44-.048.072-.528.36-1.344.576-1.752-2.88.192-8.4.264-11.04.144-2.808-.096-4.92-.912-6.048-2.688V10.32zm36.648 10.032h-12.744v-3.264h12.744v3.264zM176.488 9.456h9.24v2.76h-9.24v-2.76zm10.968 4.152V8.064h-12.648v5.544h4.896c-.144.624-.36 1.32-.528 1.92h-6.024v7.32h1.68v-.912h12.744v.888h1.752v-7.296h-8.448c.264-.6.528-1.248.768-1.92h5.808zm-.216-8.904a37.152 37.152 0 002.328-2.952l-1.848-.624c-.552 1.056-1.584 2.544-2.448 3.576h-4.368l1.176-.456c-.312-.912-1.152-2.352-1.872-3.36l-1.56.528c.672 1.008 1.44 2.352 1.776 3.288h-4.68l.72-.336c-.408-.864-1.368-2.184-2.232-3.12l-1.512.672c.696.84 1.488 1.944 1.944 2.784h-3.384v4.68h1.656V6.24h16.368v3.144h1.704v-4.68h-3.768zm7.968 9.84h6.312c-.648 1.752-1.68 3.936-2.592 5.592-1.296.048-2.496.072-3.528.096l.24 1.752c4.104-.144 10.32-.408 16.2-.696.456.576.816 1.128 1.104 1.608l1.608-.984c-1.104-1.776-3.432-4.368-5.64-6.264l-1.512.816c1.056.936 2.184 2.112 3.168 3.24-3.36.144-6.744.264-9.72.36.96-1.68 1.992-3.744 2.832-5.52h11.256v-1.656h-19.728v1.656zm4.08-6.216V9.96h11.352V8.328h-11.352zM203.896.96c-1.848 3.048-5.832 6.504-9.936 8.472.384.36.84 1.008 1.032 1.416 4.08-2.016 7.968-5.304 9.912-8.184 2.232 3.096 6.432 6.288 10.128 8.088.312-.528.744-1.152 1.152-1.584-3.768-1.56-7.944-4.68-10.464-8.208h-1.824zm24.168 13.536c-.6-.528-2.712-2.376-3.84-3.264 1.272-1.608 2.376-3.384 3.12-5.232l-1.008-.672-.312.072h-2.088V.936h-1.752V5.4h-3.768v1.632h6.672c-1.656 3.192-4.656 6.216-7.512 7.872.288.336.744 1.152.936 1.608a22.662 22.662 0 003.672-3v9.312h1.752v-9.936c1.08 1.008 2.4 2.352 3.024 3.048l1.104-1.44zm6.528 5.904v-9.96h5.112V8.712h-5.112V1.104h-1.776v7.608h-5.136v1.728h5.136v9.96h-6.072v1.752h13.44V20.4h-5.592z" fill="#333"/><defs><clipPath id="clip0"><path fill="#fff" transform="translate(0 3)" d="M0 0h135v18.322H0z"/></clipPath></defs></svg>