<svg width="549" height="84" fill="none" xmlns="http://www.w3.org/2000/svg"><path d="M0 0h549v62H0V0z" fill="#fff"/><path d="M274 84l19.053-23.25h-38.105L274 84z" fill="#fff"/><path d="M74.816 26.064c1.272 0 2.208.048 3 .144v-2.832c-.792.12-1.632.168-3 .168H63.752c.624-1.272.624-1.272.84-1.68l-2.88-.432c-.072.504-.216.912-.528 1.512-.984 1.968-2.304 3.624-4.344 5.424.744.576 1.248 1.08 1.872 1.872 1.464-1.368 2.52-2.592 3.576-4.176h12.528zm-2.688 15.288a84.333 84.333 0 00-4.176-3.48c.6-.672.984-1.176 1.56-1.992.528-.72.792-1.08 1.032-1.344l-2.568-1.224c-.288.888-.96 1.872-2.088 3.072-1.704-1.152-2.496-1.656-4.248-2.664l-1.752 1.608c1.896 1.128 2.712 1.656 4.176 2.736-1.752 1.368-3.384 2.256-6.648 3.648.96.96 1.32 1.416 1.8 2.256 3.456-1.704 5.088-2.736 6.936-4.32 1.656 1.32 2.736 2.304 4.176 3.696l1.8-1.992zm.552-8.304c.048 3.528.36 5.784 1.104 7.752.672 1.824 1.896 3.072 2.976 3.072 1.464 0 2.208-1.536 2.592-5.304-.792-.384-1.272-.696-2.064-1.44-.072 1.968-.24 3.096-.576 3.552-.408-.384-.552-.696-.84-1.632-.432-1.536-.672-3.624-.672-6.168 0-.792.024-1.416.12-2.184-.72.072-1.224.096-2.808.096H60.32c-.936 0-1.512-.024-2.064-.12v2.52c.72-.096 1.512-.144 2.76-.144H72.68zm-11.088-3.576c.648-.072 1.296-.096 2.28-.096h9.576c1.2 0 1.824.024 2.544.12V27.12c-.528.072-1.344.12-2.544.12H63.392c-.72 0-1.488-.048-1.8-.096v2.328zm24.744 13.104c-.024-.312-.024-.504-.024-.648 0-1.704.816-4.488 2.136-7.272l-1.92-.864c-.936 2.16-.984 2.328-1.248 3.168.024-.6.048-.792.048-1.32.024-2.088.12-3.504.36-5.304.384-3.072.936-5.76 1.512-7.176l-3.168-.336c-.048.648-.096.888-.36 2.232-.696 3.552-.984 6.288-.984 9.384 0 2.424.168 4.272.624 7.176.072.552.096.696.12 1.128l2.904-.168zM89.648 28.2c2.544.264 2.568.264 4.32.264 1.776 0 3.6-.096 5.136-.288 1.152-.144 1.512-.192 1.704-.216l-.144-2.904c-1.584.432-3.864.648-6.528.648-2.088 0-3.36-.096-4.44-.384l-.048 2.88zm1.656 3.96c-1.488 1.776-2.208 3.384-2.208 4.944 0 .864.264 1.752.72 2.352 1.056 1.416 2.976 2.088 5.952 2.088 1.584 0 3.048-.144 4.968-.456.552-.096.648-.12.984-.144l-.24-3.048c-1.512.576-3.6.912-5.712.912-2.496 0-3.816-.72-3.816-2.088 0-1.032.504-2.064 1.704-3.456l-2.352-1.104zm20.016-10.056c-.048 1.032-.312 2.472-.72 4.176-.528.024-.936.024-1.224.024-1.464 0-2.376-.048-3.24-.216v2.736l1.272.024c.504.024.648.024.96.024.288 0 .432 0 1.512-.024-.912 2.76-1.32 3.744-2.256 5.664-.816 1.656-1.488 2.736-2.328 3.84l2.76 1.536c.144-.288.144-.288.456-.864.912-1.68 1.128-2.112 1.68-3.288a46.067 46.067 0 002.64-6.96c1.488-.12 2.952-.288 3.816-.432.456-.096.504-.096.768-.12l-.072-2.76c-.936.288-2.184.504-3.84.672.264-1.056.384-1.536.504-2.112.24-1.152.24-1.152.384-1.608l-3.072-.312zm15.36 6.24c-2.136-1.296-3.936-2.136-6.768-3.216l-1.44 2.328c2.688.936 4.824 1.968 6.912 3.36l1.296-2.472zm-.096 10.824c-.168-.144-.168-.144-.36-.336-.384-.312-.48-.408-.84-.648-1.824-1.32-2.064-1.44-3.792-2.208a25.482 25.482 0 01-.216-3.288c0-.984.048-1.536.288-2.424l-2.784-.144c-.144.792-.192 1.488-.192 2.424 0 .72.048 1.656.12 2.76-1.008-.168-1.512-.216-2.232-.216-3.048 0-5.184 1.704-5.184 4.128 0 2.448 2.064 4.032 5.232 4.032 1.704 0 3.144-.48 3.984-1.344.624-.624 1.032-1.656 1.032-2.544 0-.096-.024-.264-.048-.48 1.416.816 2.808 1.944 3.672 2.976l1.32-2.688zm-7.68-1.32s.048.576.048.816c0 1.344-.792 2.016-2.424 2.016-1.488 0-2.352-.576-2.352-1.56 0-1.008 1.008-1.656 2.568-1.656.744 0 1.32.096 2.16.384zm13.152-3.888c.816-.336 1.248-.456 2.784-.816 2.808-.672 4.656-.936 6.312-.936 2.544 0 3.936 1.008 3.936 2.88 0 1.32-.552 2.376-1.704 3.24-1.08.84-2.136 1.272-4.008 1.632-1.176.216-2.52.36-3.408.36h-.36c.6 1.08.792 1.536 1.032 2.736 3.12-.36 3.72-.456 5.208-.912 3.816-1.2 6.072-3.792 6.072-6.984 0-1.176-.288-2.184-.888-3.096-1.08-1.656-2.928-2.448-5.664-2.448-1.992 0-4.152.288-7.416 1.008-1.824.408-1.824.408-2.496.456l.6 2.88zm22.176-5.112c.216-.024.336-.024.456-.024.192 0 .528 0 .96.024.408.024.648.024.768.024h1.392c.048 0 .144 0 .312-.024-.792 4.272-2.64 9.864-4.296 12.912l3.024 1.176c1.584-4.248 1.992-5.448 2.688-7.944.624-2.184 1.224-4.728 1.488-6.216.792-.024 2.712-.264 3.936-.504.576-.096.576-.096.768-.12l-.12-2.76c-1.2.36-2.328.552-4.104.72.096-.552.12-.696.24-1.368.288-1.752.288-1.752.456-2.304l-3.168-.288c.024.192.024.336.024.432 0 .672-.24 2.52-.456 3.672-.552.024-.816.024-1.104.024-1.392 0-2.352-.072-3.216-.216l-.048 2.784zm19.032.528c-1.512-.024-1.728-.024-2.376-.024-2.592 0-3.744.12-7.152.768l.216 2.64c2.376-.528 3.96-.696 6.336-.696 1.2 0 1.872.048 3.024.168l-.048-2.856zm-9.456 5.04c-1.32 1.8-1.776 2.88-1.776 4.152 0 1.2.672 2.352 1.704 2.952 1.152.648 2.688.96 4.824.96 1.416 0 2.472-.096 4.464-.384.552-.096.744-.12 1.176-.168l-.216-2.952c-1.392.504-3.696.888-5.448.888-2.4 0-3.6-.624-3.6-1.848 0-.84.288-1.44 1.248-2.64l-2.376-.96zm22.632-9.072h-6.168c-1.224 0-2.136-.048-3-.168v2.904c.816-.096 1.8-.144 3-.144h3.936c-.12 4.896-.936 7.68-3 10.152-1.152 1.392-2.184 2.232-4.296 3.552.888.696 1.344 1.224 1.944 2.28 4.536-2.976 6.696-6.048 7.704-10.872h6.624c-.096 3.072-.24 4.584-.528 6.024-.312 1.656-.552 1.92-1.608 1.92-1.104 0-2.208-.096-3.6-.312.408.888.6 1.68.696 2.784 1.848.144 2.4.168 3.24.168 2.4 0 3.192-.6 3.744-2.88.408-1.728.72-4.824.816-8.424.048-1.032.048-1.32.096-1.68.024-.048.024-.12.024-.24-.552.096-1.224.12-2.472.12h-6.648c.072-.72.072-.792.192-2.592h8.784c1.44 0 2.184.048 2.928.144v-2.904c-.816.12-1.68.168-3.024.168h-6.6V23.88c0-.864.048-1.488.144-1.992h-3.096c.12.576.168 1.2.168 1.992v1.464zm22.152 4.584c.072-.024.12-.024.144-.024.048 0 .12 0 .24.024.048 0 .192 0 .408.024.12 0 .384.024.72.024a34.17 34.17 0 002.976.12c.624 0 1.2-.024 2.16-.048.096 3.336.12 4.512.192 5.112-.648-.24-1.248-.336-2.136-.336-2.904 0-4.944 1.632-4.944 3.96 0 2.448 1.92 3.936 5.064 3.936 2.328 0 4.008-.84 4.56-2.256.12-.336.192-.816.192-1.344v-.336c.144.096.696.456 1.512.984.672.432 1.392 1.056 1.8 1.536l1.152-2.904c-.24-.12-.36-.192-.672-.408-1.44-1.032-2.04-1.368-3.768-2.184-.24-4.032-.24-4.08-.24-5.424v-.528c1.272-.144 2.52-.36 3.336-.528.432-.096.456-.096.696-.12l-.096-2.712-.192.048c-.384.144-.384.144-.528.192-.936.24-1.992.432-3.24.576v-1.104c0-1.704.048-2.856.168-3.528l-3 .072c.048.264.072.624.072 1.152 0 .984.024 2.184.024 3.6-.84.048-1.368.048-2.208.048-1.968 0-3.216-.096-4.344-.384l-.048 2.76zm6.888 7.68v.648c0 .648-.096 1.008-.312 1.296-.36.48-1.056.744-1.944.744-1.344 0-2.208-.6-2.208-1.488 0-.984.96-1.584 2.496-1.584.72 0 1.176.096 1.968.384zm-9.384 5.112c-.048-.456-.048-.48-.048-.648 0-1.584.96-4.56 2.376-7.344l-1.992-.888c-.216.6-.24.672-.288.744-.24.576-.24.576-.456 1.08-.12.384-.24.648-.288.816-.168.432-.168.432-.288.696h-.024c.024-.264.024-.312.024-.504v-.384c0-.384 0-.384.024-1.248.024-4.176.936-9.96 1.92-12.048l-3.24-.336v.096c0 .24-.096.936-.264 1.776-.528 2.712-.528 2.712-.648 3.432a42.898 42.898 0 00-.456 6.36c0 2.52.192 4.824.648 7.632.096.552.096.696.12.936l2.88-.168zm18.744-4.32c2.088 1.656 3.456 3.096 5.208 5.472l2.232-2.088c-1.848-2.28-3.192-3.6-5.4-5.28l-2.04 1.896zm38.424.816c-1.008.12-1.776.168-3.408.168h-6.72V26.712c0-1.752.048-2.544.192-3.528h-3.624c.144 1.032.192 1.896.192 3.552v12.456c0 1.392-.048 2.28-.192 3.168a51.519 51.519 0 013.048-.072h7.104c1.704 0 2.544.048 3.408.168v-3.24zm1.862-16.032c.144.96.192 1.608.192 3.096v12.912c0 1.416-.048 2.184-.192 3.096h3.648c-.144-.912-.192-1.68-.192-3.096V26.28c0-1.44.048-2.184.192-3.096h-3.648zm23.327 19.104c-.144-.84-.192-1.752-.192-3.096V26.496c0-1.464.048-2.352.192-3.312h-3.504c.144.912.192 1.896.192 3.312v8.064c0 1.008.072 2.448.168 3.384a47.444 47.444 0 00-1.872-3.072l-6.072-9.144c-.816-1.224-1.248-1.944-1.464-2.544h-3.744c.144.984.192 1.848.192 3.096v12.384c0 1.632-.072 2.832-.192 3.624h3.504c-.12-.864-.192-1.992-.192-3.6v-7.872c0-.552-.048-1.632-.072-2.088-.072-.888-.072-.888-.096-1.224a37.44 37.44 0 001.632 2.88l6.192 9.336c.696 1.056 1.128 1.752 1.536 2.568h3.792zm17.047-3.024c-1.032.12-1.728.168-3.072.168h-7.2v-5.664h5.856c1.488 0 2.136.024 3.12.168v-3.144c-1.056.12-1.872.168-3.12.168h-5.832v-4.944h6.912c1.416 0 2.184.048 3.096.168v-3.168c-1.104.12-1.896.168-3.096.168h-7.248c-1.464 0-2.088-.024-3.048-.072.144 1.128.192 1.848.192 3.096v12.984c0 1.416-.048 2.208-.192 3.168.96-.048 1.608-.072 3.048-.072h7.488c1.464 0 2.232.048 3.096.168v-3.192zm14.966-12.648c1.056.096 1.68.288 2.424.72 1.92 1.152 2.952 3.024 2.952 5.328 0 2.568-1.248 4.848-3.336 6-1.128.648-2.568 1.032-4.776 1.32.768 1.008 1.056 1.536 1.464 2.808 1.68-.288 2.616-.528 3.768-1.008 3.672-1.488 5.832-4.8 5.832-8.952 0-5.4-3.744-8.904-9.504-8.904-3.408 0-6.24 1.152-8.256 3.36-1.704 1.872-2.64 4.344-2.64 6.984 0 3.864 1.968 6.648 4.704 6.648 1.968 0 3.504-1.416 4.872-4.512 1.2-2.712 2.04-6.024 2.496-9.792zm-2.928.024c-.288 2.712-1.08 5.952-1.992 8.112-.864 2.064-1.68 3.072-2.472 3.072-1.056 0-1.896-1.56-1.896-3.528 0-2.568 1.248-5.04 3.264-6.48.984-.696 1.848-1.032 3.096-1.176zM349.506 30c-.528.096-1.056.12-2.136.12h-6.792c.168-1.008.24-1.44.384-2.592h9.648c1.368 0 2.088.024 2.928.144v-2.784c-.864.096-1.704.144-2.928.144h-9.384c.048-.48.048-.672.12-1.584.048-.672.12-1.248.192-1.704l-3.048-.072c.072.456.096.84.096 1.296 0 .576-.024 1.512-.072 2.064h-3.84c-1.224 0-2.064-.048-2.928-.144v2.784c.552-.096 1.608-.144 2.928-.144h3.6c-.456 3.192-.96 5.112-1.896 7.248-1.2 2.712-2.592 4.536-5.112 6.744.912.672 1.32 1.104 2.04 2.04 1.776-1.632 2.904-3.024 4.056-4.92 1.008-1.704 1.68-3.144 2.256-4.776.72 1.584 1.752 3.024 3.192 4.536-1.896 1.44-4.152 2.472-6.984 3.192.792.912 1.08 1.32 1.584 2.424 2.232-.816 3.024-1.152 4.296-1.848a18.026 18.026 0 003.024-2.04c1.104.864 2.064 1.44 3.384 2.088 1.416.672 2.928 1.296 4.344 1.728.456-1.2.816-1.896 1.464-2.712-3.192-.72-5.256-1.536-7.296-2.904 1.536-1.704 2.592-3.36 3.552-5.472.408-.912.528-1.152.672-1.392L349.506 30zm-2.016 2.472c-.744 1.608-1.68 3-2.832 4.248-1.368-1.32-2.232-2.52-3.048-4.248h5.88zm9.144-3.408c.216-.024.336-.024.456-.024.192 0 .624 0 .96.024h1.704l.528.024h.24c-.816 4.296-2.736 10.08-4.296 12.864l3.024 1.176c2.088-5.496 3.288-9.504 4.176-14.136.576 0 2.328-.216 3.936-.504l.552-.096c.024 0 .096 0 .216-.024l-.12-2.76c-1.128.336-2.544.576-4.104.72.072-.432.12-.624.144-.744.072-.432.12-.768.168-1.056.216-1.224.24-1.344.384-1.872l-3.168-.288c.024.192.024.336.024.432 0 .672-.24 2.52-.456 3.672-.552.024-.816.024-1.104.024-1.392 0-2.352-.072-3.216-.216l-.048 2.784zm13.44-5.208c1.056 1.152 1.728 2.112 2.52 3.576l1.68-.888c-.816-1.488-1.464-2.4-2.52-3.528l-1.68.84zm5.592 5.712c-1.104-.024-1.656-.024-2.376-.024-2.592 0-3.768.12-7.152.768l.216 2.664c2.376-.552 3.96-.72 6.336-.72 1.2 0 1.872.048 3.024.168l-.048-2.856zm-9.456 5.04c-1.32 1.824-1.776 2.904-1.776 4.176 0 1.2.672 2.352 1.704 2.952 1.152.648 2.688.96 4.824.96 1.416 0 2.472-.096 4.464-.408.624-.096.744-.12 1.176-.168l-.216-2.928c-1.392.504-3.696.888-5.448.888-2.4 0-3.6-.624-3.6-1.848 0-.864.288-1.44 1.248-2.664l-2.376-.96zm10.92-9.624c-.744-1.368-1.416-2.28-2.496-3.384l-1.608.84a17.683 17.683 0 012.448 3.48l1.656-.936zm3.912 3.528h.192c.192 0 .432 0 .768.024 1.272.096 2.352.144 3.624.168-.336 1.176-1.224 3.504-2.016 5.328-.36.84-.768 1.584-1.128 2.16l2.904 1.008c.432-.6.864-.96 1.752-1.392a12.134 12.134 0 015.16-1.176c2.592 0 4.032.816 4.032 2.304 0 1.92-2.256 3.144-5.736 3.144-2.016 0-4.032-.384-6.192-1.152.216 1.2.24 1.68.24 3.048 1.872.552 3.984.84 6.12.84 5.256 0 8.688-2.304 8.688-5.856 0-3.048-2.52-4.872-6.744-4.872-2.352 0-4.44.528-6.048 1.56V33.6c.48-.864 1.392-3.168 1.896-4.872 3-.072 5.112-.24 8.592-.624.624-.072.84-.096 1.392-.12l-.144-2.904c-.84.24-1.296.336-3.072.552-1.584.192-4.296.384-6.12.432.144-.456.144-.456.576-2.256.24-.96.24-.96.384-1.392l-3.216-.264c-.048 1.032-.216 2.04-.672 3.96-2.472 0-4.08-.12-5.184-.408l-.048 2.808zm41.832-3.648c-.528.888-1.344 1.872-2.376 2.832-.6-.432-.888-.672-1.488-1.2.816-.792 1.848-1.92 2.472-2.76l-1.992-1.32c-.432.768-1.128 1.68-2.016 2.592-1.008-1.152-1.344-1.728-1.608-2.712-.504.072-.936.096-2.064.096h-4.512c-1.008 0-1.392-.024-1.992-.12v2.424c.552-.072.984-.096 1.464-.096h3.168c-.768 1.032-1.152 1.44-2.28 2.424-1.008-1.032-2.04-1.92-3.36-2.928l-1.776 1.584c1.296.936 1.968 1.512 3.216 2.808-1.632 1.104-2.784 1.704-4.512 2.376.528.624.888 1.248 1.296 2.28 2.64-1.272 3.96-2.088 5.976-3.72v1.56c.432-.072.888-.096 1.512-.096h5.304c.816 0 1.128.024 1.608.096v-1.416c1.992 1.584 3.288 2.352 5.808 3.48.384-1.08.648-1.584 1.248-2.4-1.632-.648-2.472-1.032-3.648-1.704a26.005 26.005 0 002.112-2.232c.216-.288.24-.312.432-.504l-1.992-1.344zm-10.728 3.888h-.84c1.344-1.2 2.256-2.232 3.312-3.768 1.2 1.656 2.016 2.616 3.312 3.768h-5.784zM406.17 41.04c-1.128 0-1.632-.024-2.328-.12v2.592c.744-.096 1.344-.12 2.496-.12h16.608c1.152 0 1.776.024 2.496.12V40.92c-.696.096-1.224.12-2.352.12h-4.104c.168-.24.72-1.272 1.104-1.992l-1.992-.72h2.328c.792 0 1.272.024 1.728.072-.072-.552-.096-.936-.096-1.752V33.6c0-.696.024-1.08.096-1.608-.576.072-1.032.096-1.872.096h-11.328c-.792 0-1.272-.024-1.896-.096.072.552.096 1.008.096 1.632v3.024c0 .696-.024 1.104-.096 1.752.432-.048.936-.072 1.728-.072h2.568l-2.112.768c.36.528.768 1.32.984 1.944h-4.056zm6.648 0a19.43 19.43 0 00-1.2-2.712h6c-.216.744-.696 1.776-1.224 2.712h-3.576zm-3.192-6.816h9.888v1.944h-9.888v-1.944zm26.112 4.632c.528-1.32.816-2.304 1.152-3.84l-1.824-.6c-.216 1.512-.456 2.472-.96 3.912l1.632.528zm1.368-5.568c.912 1.224 1.464 2.256 2.112 3.816l1.848-1.224c-.648-1.488-.96-1.992-2.088-3.576l-1.872.984zm-5.592-3.432v1.608h-1.224a20.39 20.39 0 01-2.376-.12v2.448c.6-.072 1.344-.12 2.352-.12h1.248v6.72c-1.896.384-2.76.504-3.744.504l.36 2.64c.744-.216.768-.216 1.896-.432 2.16-.432 3.984-.912 6.432-1.704v-.96l.768 1.704c.408-.288.408-.288.792-.552 1.632-1.128 1.632-1.128 2.04-1.416.72-.504.864-.648 1.704-1.344v2.28c0 .528-.168.624-1.056.624-.432 0-1.104-.072-1.872-.24.336.816.456 1.32.552 2.424a27.32 27.32 0 002.112.096c1.944 0 2.64-.576 2.64-2.184V38.76c-.048-1.296-.096-2.184-.144-2.664.648 1.8 1.032 2.592 1.824 3.72.768 1.104 1.392 1.776 2.928 3.096.456-.984.792-1.536 1.44-2.352-1.704-1.08-2.64-1.968-3.696-3.456.984-.84 1.992-1.944 3.192-3.408l-1.968-1.392c-.648 1.128-1.248 1.848-2.328 2.88-.696-1.464-.936-2.232-1.152-3.552h3.216c.888 0 1.632.048 2.28.12v-2.376c-.648.096-1.296.144-2.304.144h-.144c.096-1.248.216-3.36.288-4.608.072-1.776.072-1.776.144-2.328-.576.072-1.224.096-2.208.096h-5.64c-1.08 0-1.728-.024-2.4-.12v2.304c.576-.072 1.272-.096 2.28-.096h5.376c-.024.648-.024.72-.072 1.32h-4.848c-1.128 0-1.584-.024-2.184-.12v2.28c.6-.072 1.104-.096 2.184-.096h4.752c-.024.408-.048.648-.096 1.368h-6.072c-.96 0-1.632-.048-2.304-.144v1.992c-.456.072-.984.096-1.704.096h-.96v-1.608h.696c.672 0 .888 0 1.416.072v-1.8l.192.168c.456-.888.792-1.392 1.464-2.136-1.8-1.296-2.688-2.328-3.504-4.032h-2.64c-.768 2.04-2.184 3.816-4.152 5.184.552.792.792 1.296 1.104 2.28.504-.408.648-.528 1.104-.936v1.272c.528-.048.888-.072 1.416-.072h.6zm10.248 1.776v4.56c-1.8 1.488-3.408 2.544-5.328 3.48v-.504c-1.272.384-1.704.528-2.616.744v-6.24h.96c.864 0 1.344.024 1.872.12v-2.064c.576-.072 1.2-.096 2.136-.096h2.976zm-11.28-3.936c1.032-1.104 1.68-2.04 2.4-3.408.816 1.44 1.488 2.328 2.544 3.384-.312.024-.456.024-.888.024h-4.056zm.48 11.496c-.312-2.016-.552-3.12-1.056-4.656l-1.872.576c.552 1.824.816 3.024 1.008 4.68l1.92-.6zm22.56-2.256c.192-.288.24-.36.504-.648 1.44-1.56 2.76-3.168 4.728-5.808.816-1.08 1.056-1.296 1.44-1.296.456 0 .6.12 2.088 1.824 2.568 2.928 2.616 3 4.44 4.872 1.752 1.752 3.648 3.552 4.896 4.656.36.312.456.408.696.696l1.464-3.408c-.792-.456-1.392-.936-2.616-2.016-2.664-2.4-4.992-4.776-7.176-7.344-.744-.888-1.272-1.44-1.608-1.728-.72-.6-1.44-.912-2.16-.912-.6 0-1.272.24-1.92.72-.456.312-.864.744-1.488 1.512-3.168 3.984-4.2 5.16-5.232 5.88l1.944 3zm26.112-1.176a4.066 4.066 0 00-4.056 4.056c0 2.256 1.824 4.08 4.056 4.08s4.056-1.824 4.056-4.08c0-2.232-1.8-4.056-4.056-4.056zm0 1.872a2.197 2.197 0 010 4.392 2.197 2.197 0 010-4.392z" fill="#333"/></svg>