<svg width="57" height="57" viewBox="0 0 57 57" fill="none" xmlns="http://www.w3.org/2000/svg">
<path d="M57 28.5C57 44.2401 44.2401 57 28.5 57C12.7599 57 0 44.2401 0 28.5C0 12.7599 12.7599 0 28.5 0C44.2401 0 57 12.7599 57 28.5Z" fill="white" fill-opacity="0.7"/>
<path fill-rule="evenodd" clip-rule="evenodd" d="M28.5 55.6897C43.5164 55.6897 55.6897 43.5164 55.6897 28.5C55.6897 13.4836 43.5164 1.31034 28.5 1.31034C13.4836 1.31034 1.31034 13.4836 1.31034 28.5C1.31034 43.5164 13.4836 55.6897 28.5 55.6897ZM28.5 57C44.2401 57 57 44.2401 57 28.5C57 12.7599 44.2401 0 28.5 0C12.7599 0 0 12.7599 0 28.5C0 44.2401 12.7599 57 28.5 57Z" fill="#333333"/>
<path d="M17.5152 31.8582V26.3516L15.1235 31.0547H13.7986L11.4069 26.3397V31.8582H10V24H11.7821L14.4552 29.2939L17.14 24H18.9221V31.8582H17.5152Z" fill="#333333"/>
<path d="M27.5811 31.8582H21.4494V24H27.4873V25.2762H22.8563V27.2496H26.8425V28.5258H22.8563V30.582H27.5811V31.8582Z" fill="#333333"/>
<path d="M36.4839 31.8582H35.2881L30.9853 26.4343V31.8582H29.5784V24H30.786L35.077 29.4121V24H36.4839V31.8582Z" fill="#333333"/>
<path d="M42.4593 32C41.1775 32 40.263 31.677 39.7159 31.031C39.1765 30.3772 38.9069 29.4633 38.9069 28.2895V24H40.3607V28.2895C40.3607 29.1561 40.5209 29.7745 40.8414 30.1448C41.1697 30.515 41.709 30.7001 42.4593 30.7001C43.2018 30.7001 43.7333 30.515 44.0538 30.1448C44.3821 29.7745 44.5462 29.1561 44.5462 28.2895V24H46V28.2895C46 29.4476 45.7303 30.3575 45.191 31.0192C44.6595 31.6731 43.749 32 42.4593 32Z" fill="#333333"/>
</svg>
