<svg width="1113" height="251" fill="none" xmlns="http://www.w3.org/2000/svg"><path d="M725.262 1.078c-.792 1.224-1.494 2.034-2.772 3.132a18.774 18.774 0 01-4.896 3.132c.414.414.558.612.756 1.026a20.812 20.812 0 003.816-2.34c1.584-1.224 2.574-2.25 3.78-3.942a15.121 15.121 0 002.772 3.024 25.161 25.161 0 005.076 3.312c.216-.45.396-.756.72-1.134-1.71-.684-3.402-1.692-4.932-2.952-1.386-1.134-2.214-2.034-2.97-3.258h-1.35zm-3.51 6.696c.378-.054.846-.072 1.404-.072h5.598c.684 0 1.116.018 1.512.072V6.55c-.378.054-.81.072-1.512.072h-5.58c-.666 0-1.098-.018-1.422-.072v1.224zm-.126 9.396v-1.044h8.694v1.044h1.296a12.51 12.51 0 01-.108-1.764v-3.978c0-.702.018-1.17.09-1.656-.378.054-.756.072-1.404.072h-8.442c-.648 0-1.026-.018-1.404-.072.072.504.09.99.09 1.656v3.978c0 .684-.036 1.206-.108 1.764h1.296zm0-6.228h8.694v4.122h-8.694v-4.122zm25.578-4.158h-1.584c-.9 0-1.512-.036-2.07-.108v1.296a17.564 17.564 0 012.07-.108h1.584v6.876c0 1.278-.036 1.854-.126 2.574h1.44c-.108-.684-.144-1.422-.144-2.574V7.864h1.71c.9 0 1.494.036 2.16.108V6.676c-.594.072-1.188.108-2.16.108h-1.71V3.148c0-.774.036-1.44.126-1.998h-1.422c.09.648.126 1.152.126 1.998v3.636zm-10.26-3.888c.396-.054.846-.072 1.458-.072h2.934c.612 0 .954.018 1.422.072V1.762c-.432.072-.792.09-1.422.09h-2.934c-.648 0-1.026-.018-1.458-.09v1.134zm-.846 2.502c.504-.072.954-.09 1.548-.09h4.356c.648 0 1.134.018 1.566.09V4.21c-.414.072-.864.108-1.566.108h-4.338c-.648 0-1.08-.036-1.566-.108v1.188zm.864 2.448a8.71 8.71 0 011.296-.072h3.204c.576 0 .81.018 1.278.072V6.748c-.396.054-.666.072-1.278.072h-3.204c-.63 0-.918-.018-1.296-.072v1.098zm0 2.484a8.556 8.556 0 011.296-.072h3.204c.612 0 .846.018 1.278.072V9.232c-.396.054-.666.072-1.278.072h-3.204c-.648 0-.936-.018-1.296-.072v1.098zm1.278 6.066h3.42v.702h1.206a9.383 9.383 0 01-.108-1.53v-2.376c0-.684.018-1.026.072-1.44-.36.036-.702.054-1.224.054h-3.294c-.576 0-.864-.018-1.26-.072.072.468.09.882.09 1.476v2.394c0 .684-.036 1.206-.108 1.728h1.206v-.936zm-.018-3.618h3.456v2.664h-3.456v-2.664zm26.37-6.894v-1.08h2.574c.684 0 1.188.018 1.71.054-.054-.288-.054-.414-.054-1.008v-.612c0-.54.018-.81.072-1.17-.396.072-.882.09-1.71.09h-2.592v-.18c0-.45.018-.684.09-1.062h-1.188c.072.378.09.612.09 1.044v.198h-2.862c.036-.648.054-1.062.072-1.224h-1.17c.072.468.09.666.09 1.224h-3.168c-.9 0-1.332-.018-1.782-.09v1.044c.522-.072 1.044-.09 1.782-.09h3.132a8.867 8.867 0 01-.09.972h-2.322c-.828 0-1.242-.018-1.638-.054-.252 1.152-.504 1.854-1.008 2.826.468-.036.918-.054 1.602-.054h2.304c-.936 1.026-2.16 1.566-4.716 2.106.288.306.432.558.576.918 1.008-.288 1.386-.414 1.998-.684v3.996c0 .846-.018 1.44-.072 1.818.468-.054 1.152-.072 1.998-.072h7.65c.864 0 1.548.018 2.016.072-.054-.432-.072-.936-.072-1.854v-2.898c0-.648.018-1.206.036-1.656.198.018.342.018.468.018.432 0 .738-.108.918-.324.18-.216.27-.54.414-1.458.072-.45.072-.468.162-.864-.432.054-.72.054-1.728.054h-3.582zm1.494 2.322h-8.01c.702-.396 1.17-.81 1.638-1.494h3.87v.18c0 .396-.018.666-.09.972h1.188c-.072-.306-.09-.576-.09-.99v-.162h4.104c-.126.936-.162.972-.576.972-.27 0-.612-.072-1.116-.234.09.27.126.432.18.756h-1.098zm-6.642-3.402c-.108.468-.18.666-.36 1.08h-2.97c.126-.306.198-.486.396-1.08h2.934zm4.14 0v1.08h-3.438c.18-.432.234-.612.324-1.08h3.114zm0-1.782v.972h-2.988c.036-.36.036-.378.09-.972h2.898zm1.008 0h3.168v.972h-3.168v-.972zm-7.128 6.048h9.342v1.062h-9.342V9.07zm0 1.89h9.342v1.062h-9.342V10.96zm0 1.89h9.342v1.08h-9.342v-1.08zm1.872 2.106c-1.656.9-2.97 1.296-5.184 1.602.288.306.45.576.648 1.008 2.412-.504 3.492-.9 5.364-1.944l-.828-.666zm4.68.666c1.098.63 1.638.864 2.844 1.26 1.026.342 1.566.468 2.664.666.252-.468.342-.612.684-1.026-1.188-.126-1.782-.234-2.7-.486-1.062-.288-1.584-.486-2.646-1.062l-.846.648z" fill="#333"/><path d="M0 168h331v80H0v-80z" fill="#7EB1DD"/><g clip-path="url(#clip0)" fill="#1D1D1B"><path d="M118.818 218.021l-5.83-8.345h-1.939v8.345h-5.259v-23.712h7.392c7.084 0 10.416 2.096 10.416 7.125v1.237c0 3.524-1.527 5.42-5.069 6.343l6.423 9.007h-6.134zm-5.636-12.26c3.803 0 4.872-1.057 4.872-3.323v-.8c0-2.244-.72-3.418-4.8-3.418h-2.248v7.541h2.176zm32.111-11.452h-16.879v3.696h16.879v-3.696zm-11.619 19.864v-6.251h9.901v-3.82h-15.161v13.944h17.409v-3.873h-12.149zm29.443-19.833v14.575l-8.033-14.575h-5.22v23.681h5.22v-14.226l8.148 14.226h5.105V194.34h-5.22zm10.096 16.817v-10.036c0-5.025 2.707-7.087 9.786-7.087 7.08 0 10.025 2.062 10.025 7.087v10.036c0 4.898-3.048 7.087-10.025 7.087s-9.786-2.189-9.786-7.087zm14.551-.208v-9.617c0-2.156-.684-3.545-4.749-3.545-3.811 0-4.531 1.389-4.531 3.545v9.617c0 2.259.72 3.549 4.531 3.549s4.749-1.29 4.749-3.549zm29.261-16.609l-7.895 23.706h-5.485l-7.922-23.706h5.37l5.299 16.358 5.251-16.358h5.382zm19.887-.031h-16.883v3.696h16.883v-3.696zm-11.627 19.864v-6.251h9.901v-3.82h-15.157v13.944h17.405v-3.873h-12.149zm33.104-19.864h-16.875v3.696h16.875v-3.696zm-11.616 19.864v-6.251h9.902v-3.82h-15.161v13.944h17.409v-3.873h-12.15zm29.444-19.833v14.575l-8.034-14.575h-5.22v23.681h5.22v-14.226l8.145 14.226h5.105V194.34h-5.216zm10.095 16.817v-10.036c0-5.025 2.707-7.087 9.787-7.087 7.08 0 10.016 2.062 10.016 7.087v10.036c0 4.898-3.051 7.087-10.016 7.087s-9.787-2.189-9.787-7.087zm14.544-.208v-9.617c0-2.156-.681-3.545-4.749-3.545-3.815 0-4.531 1.389-4.531 3.545v9.617c0 2.259.716 3.549 4.531 3.549 3.815 0 4.749-1.29 4.749-3.549z"/></g><path d="M36.589 203.621H30.78c-1.08 0-1.704-.024-2.496-.144v2.736c.72-.072 1.416-.096 2.472-.096h13.848v2.304H31.357c-1.152 0-1.776-.024-2.328-.096v2.688c.576-.072 1.248-.096 2.304-.096h13.272v2.568H30.589c-1.176 0-1.824-.024-2.496-.12v2.736c.672-.12 1.488-.168 2.616-.144h13.848v1.176h2.784c-.096-.768-.144-1.56-.144-2.736v-8.88c0-.84.024-1.392.096-2.016-.648.096-1.104.12-1.92.12h-6.096v-6.432c0-1.032.048-1.752.144-2.376h-2.976c.096.672.144 1.392.144 2.376v6.432zm-8.232-6.36c1.608 2.016 2.592 3.624 3.696 5.976l2.352-1.392c-.984-2.064-1.968-3.6-3.744-5.88l-2.304 1.296zm16.56-1.368c-1.032 2.616-1.848 4.008-3.432 5.976l2.232 1.392c1.56-1.992 2.328-3.264 3.744-6.192l-2.544-1.176zm12.168 11.712c1.032 1.2 1.848 1.896 3.096 2.712.384-.912.744-1.584 1.32-2.352-1.584-.912-2.688-1.776-3.816-3.048 1.152-1.584 1.608-2.376 2.4-4.104.168-.408.312-.648.528-1.008l-1.152-1.248c-.312.048-.648.072-1.392.072h-.984v-1.968c0-.792.048-1.32.144-1.872h-2.904c.096.552.144 1.2.144 1.824v2.016h-1.2c-.792 0-1.296-.024-1.896-.096v2.664a16.433 16.433 0 012.016-.096H57.3c-.792 1.536-1.488 2.52-2.616 3.696-1.296 1.368-2.448 2.28-4.128 3.24.504.72.936 1.584 1.224 2.496 1.224-.792 1.728-1.176 2.664-2.04v6.024c0 1.128-.024 1.776-.144 2.496h2.904c-.096-.72-.12-1.32-.12-2.448v-6.96zm10.176-3.552h2.544c.84 0 1.584.048 2.352.12v-2.712c-.672.096-1.272.12-2.352.12H67.26v-4.224c0-1.032.024-1.536.168-2.496h-3c.12.936.168 1.512.168 2.496v4.224h-1.8c-1.032 0-1.656-.024-2.352-.12v2.712c.768-.072 1.536-.12 2.352-.12h1.8v9.384H61.98c-1.152 0-1.992-.048-2.76-.144v2.904c.84-.12 1.752-.168 2.712-.168h8.208c.96 0 1.896.048 2.736.168v-2.904c-.744.096-1.536.144-2.736.144h-2.88v-9.384z" fill="#fff"/><path d="M3 52h332v82H3V52z" fill="#C4C4C4"/><path d="M43.864 96.208c-.024 2.496-.144 4.176-.36 5.184-.096.48-.36.648-1.032.648-.72 0-1.392-.072-2.52-.24.36.864.528 1.56.6 2.64 1.056.096 1.608.12 2.136.12 2.064 0 2.712-.36 3.12-1.656.36-1.152.6-4.104.6-7.44.024-.96.024-1.2.072-1.68-.648.096-1.296.12-2.28.12h-3.312c.048-.912.072-1.032.096-2.328h2.52c1.368 0 2.232.024 3.024.096-.072-.552-.096-1.032-.096-2.496v-3.12c0-1.176.024-1.704.096-2.544-.672.096-1.416.12-2.952.12h-4.848c-1.392 0-2.256-.024-3-.12.072.912.096 1.416.096 2.64v2.904c0 1.224-.024 1.776-.096 2.616.768-.072 1.248-.096 2.664-.096-.048 1.968-.144 3.12-.408 4.632-.528 3-1.368 4.632-3.312 6.312.888.84 1.176 1.2 1.8 2.352 1.32-1.272 2.04-2.256 2.784-3.768.672-1.416 1.032-2.712 1.368-4.896h3.24zm-5.496-10.32h5.568v3.432h-5.568v-3.432zm9.984-1.632c.096.744.144 1.56.144 2.928v9.12c0 1.608-.024 2.112-.12 2.808h2.76c-.096-.72-.12-1.32-.12-2.856v-9.072c0-1.416.024-2.136.144-2.928h-2.808zm5.184-1.224c.12 1.056.168 2.112.168 3.264v15c0 .576-.24.72-1.152.72-.696 0-1.872-.072-3.264-.24.408.912.624 1.632.816 2.688 1.128.048 1.464.072 1.992.072 3.504 0 4.176-.48 4.176-2.904V86.296c0-1.368.048-2.304.168-3.264h-2.904zm18.336 4.584c1.056.096 1.68.288 2.424.72 1.92 1.152 2.952 3.024 2.952 5.328 0 2.568-1.248 4.848-3.336 6-1.128.648-2.568 1.032-4.776 1.32.768 1.008 1.056 1.536 1.464 2.808 1.68-.288 2.616-.528 3.768-1.008 3.672-1.488 5.832-4.8 5.832-8.952 0-5.4-3.744-8.904-9.504-8.904-3.408 0-6.24 1.152-8.256 3.36-1.704 1.872-2.64 4.344-2.64 6.984 0 3.864 1.968 6.648 4.704 6.648 1.968 0 3.504-1.416 4.872-4.512 1.2-2.712 2.04-6.024 2.496-9.792zm-2.928.024c-.288 2.712-1.08 5.952-1.992 8.112-.864 2.064-1.68 3.072-2.472 3.072-1.056 0-1.896-1.56-1.896-3.528 0-2.568 1.248-5.04 3.264-6.48.984-.696 1.848-1.032 3.096-1.176zm24.672-.984c-1.032 1.8-1.824 2.856-3.408 4.464-2.232 2.304-4.464 3.96-7.56 5.592.864.96 1.296 1.584 1.68 2.448 2.136-1.344 3.384-2.208 4.56-3.168 1.512-1.248 2.664-2.4 3.504-3.504-.024 1.056-.024 1.368-.024 2.232v7.2c0 1.008-.072 2.112-.168 3.024h3.096c-.12-.912-.168-1.896-.168-3.024v-12.6c.936-1.272 1.224-1.728 1.704-2.664h4.848c1.032 0 2.16.048 3.12.144v-2.832c-.768.096-1.776.144-3.192.144H86.344c-1.2 0-2.232-.048-3.192-.144V86.8c.96-.096 2.256-.144 3.288-.144h7.176zm1.704 5.328c2.376 2.928 4.896 5.064 8.52 7.152.528-1.056.96-1.704 1.656-2.616-1.752-.768-3.12-1.632-4.92-3.072-1.392-1.128-2.304-2.016-3.504-3.408l-1.752 1.944zm16.968-5.16h-2.928c-.984 0-1.584-.024-2.232-.12v2.208c.672-.096 1.224-.12 2.232-.12h2.928v1.032h-2.064c-1.056 0-1.68-.024-2.352-.072.048.6.072 1.056.072 2.184v3.096c0 1.176-.024 1.68-.072 2.28a29.345 29.345 0 012.328-.072h2.088v1.056h-2.448c-1.08 0-1.584-.024-2.256-.12v2.256c.648-.072 1.464-.096 2.232-.096h2.472v1.32c-2.544.144-3 .168-4.08.168-.528 0-.744 0-1.248-.048l.432 2.568c.576-.096.936-.144 1.392-.192 4.392-.336 6.144-.528 9.432-1.008.816.576 1.392 1.152 1.896 1.896.96-1.296 1.344-1.92 1.92-3.144.384 1.032.504 1.536.552 2.592.36.024 1.536.072 1.92.072 1.8 0 2.568-.36 3-1.416.6-1.392.912-4.776 1.032-10.968.072-3.456.072-3.648.168-4.512-.648.072-1.224.096-2.256.096h-2.088c.072-4.152.072-4.152.192-4.8h-2.76c.12.672.144 1.056.144 3.048 0 .744 0 1.152-.024 1.752h-.36c-.816 0-1.224-.024-1.704-.096v2.592c.624-.072 1.008-.096 1.992-.096-.12 3.096-.264 4.584-.624 6.336-.456 2.04-1.248 3.984-2.28 5.52v-1.032c-2.256.312-3.072.408-4.32.528v-1.176h2.688c.912 0 1.248.024 1.68.12V98.2c-.552.072-1.056.096-2.256.096h-2.112V97.24h2.232c1.128 0 1.608 0 2.16.048-.024-.312-.048-1.032-.072-2.184v-3.24c0-1.224.024-1.608.072-2.112-.504.048-.936.072-2.016.072h-2.376v-1.032h3c1.056 0 1.368.024 1.728.096v-2.184c-.552.096-1.104.12-2.232.12h-2.496V85.48c1.2-.168 2.4-.36 3.288-.528a18.605 18.605 0 011.32-.216l-1.44-1.968c-1.632.768-5.76 1.272-10.464 1.296.456.816.648 1.248.84 1.92 1.8-.096 2.472-.144 4.128-.288v1.128zm0 4.8v1.008H110.2v-1.008h2.088zm2.328 0h2.088v1.008h-2.088v-1.008zm-2.328 2.76v1.056H110.2v-1.056h2.088zm2.328 0h2.088v1.056h-2.088v-1.056zm11.52-4.224c-.024.792-.024.936-.048 1.68-.024 1.944-.024 1.944-.048 2.784-.096 2.664-.168 3.696-.336 4.968-.288 2.232-.456 2.52-1.536 2.52-.528 0-.888-.048-2.112-.24 1.464-3.216 2.016-6 2.256-11.712h1.824zm11.328 9.552a20.213 20.213 0 012.208-.096h2.784v2.328h-5.496c-1.032 0-1.656-.024-2.256-.12v2.544c.84-.096 1.488-.12 2.304-.12h13.32c.912 0 1.632.048 2.352.144v-2.568c-.6.072-1.32.12-2.28.12h-5.424v-2.328h3.6c1.056 0 1.464.024 2.16.096V97.36c-.6.072-1.032.096-2.16.096h-3.6V95.56h4.296c1.104 0 1.632.024 2.328.096v-2.544c-.6.096-1.128.12-2.304.12h-4.32c0-.696.024-1.032.096-1.536h-2.736c.072.408.096.792.096 1.536h-2.688c.288-.696.288-.696.528-1.296l-2.424-.552c-.48 1.536-.696 2.064-1.248 3.072-.528.96-1.008 1.584-1.68 2.256.168-1.824.216-2.808.216-5.592h14.832c1.248 0 1.92.024 2.688.12v-2.448c-.672.096-1.392.12-2.688.12H146.8c.408-.72.528-.984 1.008-2.04h1.848c1.272 0 1.872.024 2.568.096v-2.592c-.696.096-1.464.144-2.712.144h-5.88v-.24c0-.576.048-1.008.144-1.512h-2.952c.072.552.12 1.008.12 1.512v.24h-5.88c-1.224 0-1.968-.048-2.616-.144v2.592c.672-.072 1.176-.096 2.448-.096h2.04c.456.864.576 1.152.816 2.04h-2.472c-1.08 0-1.8-.024-2.736-.12.072.792.12 1.68.12 2.64 0 3.432-.264 6.12-.744 7.992-.312 1.2-.648 1.944-1.368 3.168.792.744 1.128 1.152 1.92 2.352 1.272-1.968 1.92-4.008 2.352-7.512.552.528.912.96 1.392 1.656.648-.696.864-.96 1.248-1.464v2.088zm4.992-4.152v1.896h-2.808c-1.008 0-1.56-.024-2.04-.072.456-.624.696-1.056 1.104-1.824h3.744zm-1.944-6.648c-.288-.84-.432-1.224-.816-2.04h5.376c-.312.864-.48 1.248-.912 2.04h-3.648zm19.416 3.624a19.2 19.2 0 012.064-.096h8.016c.912 0 1.536.024 2.16.096v-1.872c1.68 1.056 2.592 1.536 4.104 2.184.336-.984.648-1.656 1.32-2.688-2.184-.792-4.128-1.8-6.168-3.24-1.824-1.272-2.784-2.208-4.056-3.984h-2.856c-.984 1.536-2.208 2.808-3.792 4.032-1.824 1.416-3.432 2.304-6.024 3.336.6.816.984 1.488 1.392 2.448 1.68-.744 2.352-1.104 3.84-2.064v1.848zm2.088-2.592c-.432 0-.576 0-.984-.024 2.232-1.56 3.72-2.952 4.992-4.656 1.44 1.896 2.808 3.144 5.016 4.656-.456.024-.672.024-1.056.024h-7.968zm.24 6.936c-.648 1.632-1.392 3.024-2.568 4.8a53.393 53.393 0 01-2.112.096c-.336 0-.744-.024-1.392-.072l.384 2.928c.552-.12 1.752-.24 3.096-.336.96-.072 5.712-.504 8.088-.72a185.25 185.25 0 004.32-.528c.408.576.648.912 1.44 2.088l2.304-1.512c-1.944-2.616-2.976-3.816-5.544-6.408l-2.376 1.056a111.532 111.532 0 012.52 2.664c-3.36.36-3.36.36-7.608.6 1.008-1.488 1.752-2.904 2.496-4.656h8.256c1.2 0 2.016.048 2.808.144V94.24c-.792.096-1.632.144-2.808.144h-14.952c-1.128 0-2.04-.048-2.832-.144v2.784c.792-.096 1.608-.144 2.832-.144h3.648zm22.944-1.296c1.032 1.2 1.848 1.896 3.096 2.712.384-.912.744-1.584 1.32-2.352-1.584-.912-2.688-1.776-3.816-3.048 1.152-1.584 1.608-2.376 2.4-4.104.168-.408.312-.648.528-1.008l-1.152-1.248c-.312.048-.648.072-1.392.072h-.984V84.64c0-.792.048-1.32.144-1.872h-2.904c.096.552.144 1.2.144 1.824v2.016h-1.2c-.792 0-1.296-.024-1.896-.096v2.664a16.433 16.433 0 012.016-.096h3.912c-.792 1.536-1.488 2.52-2.616 3.696-1.296 1.368-2.448 2.28-4.128 3.24.504.72.936 1.584 1.224 2.496 1.224-.792 1.728-1.176 2.664-2.04v6.024c0 1.128-.024 1.776-.144 2.496h2.904c-.096-.72-.12-1.32-.12-2.448v-6.96zm10.176-3.552h2.544c.84 0 1.584.048 2.352.12V89.44c-.672.096-1.272.12-2.352.12h-2.544v-4.224c0-1.032.024-1.536.168-2.496h-3c.12.936.168 1.512.168 2.496v4.224h-1.8c-1.032 0-1.656-.024-2.352-.12v2.712c.768-.072 1.536-.12 2.352-.12h1.8v9.384h-2.616c-1.152 0-1.992-.048-2.76-.144v2.904c.84-.12 1.752-.168 2.712-.168h8.208c.96 0 1.896.048 2.736.168v-2.904c-.744.096-1.536.144-2.736.144h-2.88v-9.384zm20.064 3.288h7.032v-2.88h-7.032V85.6h-2.904v6.84h-7.032v2.88h7.032v7.056h2.904V95.32zm21-7.8v12.84h-6c-1.464 0-2.328-.048-3.312-.168v2.904c1.008-.12 2.016-.168 3.264-.168h15.312c1.296 0 2.376.048 3.264.168v-2.904c-.96.12-1.872.168-3.264.168h-6.432V87.52h5.28c1.296 0 2.088.048 3.072.144v-2.832c-.912.096-1.68.144-3.096.144h-12.912c-1.464 0-2.28-.048-3.12-.144v2.832a27.962 27.962 0 013.096-.144h4.848zm27.48 10.584c-.96 2.28-2.544 3.624-5.616 4.776a9.774 9.774 0 011.488 2.136c3.792-1.656 5.688-3.624 6.72-6.912h3.144c-.072 1.2-.144 1.92-.312 2.712-.264 1.224-.504 1.512-1.272 1.512-.72 0-1.656-.12-2.76-.336.36 1.008.48 1.536.552 2.496 1.104.12 1.872.168 2.544.168 1.872 0 2.496-.384 2.976-1.848.336-.984.648-3.168.84-6.024.024-.504.024-.504.096-1.056-.432.072-.84.096-1.896.096h-3.408c.048-.432.096-.6.12-.936.024-.216.048-.264.048-.384a8.05 8.05 0 01.072-.432c0-.144 0-.144.024-.312l-2.448-.024c1.032-.48 1.584-.768 2.232-1.224 1.392.912 2.784 1.488 5.4 2.232.36-1.152.528-1.56 1.104-2.496-2.064-.36-3.192-.672-4.608-1.344 1.128-1.2 1.632-1.992 2.376-3.768.744 0 1.176.024 1.728.096v-2.448c-.624.072-1.416.12-2.544.12h-4.968c.192-.408.288-.624.408-.936.144-.384.288-.72.36-.84l-2.496-.48c-.144.744-.264 1.08-.6 1.824-.816 1.824-1.776 3.072-3.576 4.632.744.504 1.272.96 1.824 1.632.936-.984 1.272-1.344 1.848-2.112.504.888 1.128 1.656 1.968 2.472-1.176.648-2.424 1.128-3.936 1.488a4.39 4.39 0 01.288-.744l-1.032-1.272c-.456.048-.912.072-1.752.072h-1.44l.528-.576c-.216-.264-.312-.336-.528-.576.936-.768 2.328-2.352 3.36-3.768.24-.336.432-.576.528-.696l-1.296-1.392c-.504.048-.816.072-2.04.072h-4.104c-1.056 0-1.608-.024-2.256-.096v2.472c.624-.072 1.224-.096 2.064-.096h4.176c-.624.888-1.152 1.488-1.944 2.112-.6-.528-.72-.6-2.064-1.608l-1.488 1.44c1.104.792 2.04 1.584 3.192 2.712h-2.4c-.984 0-1.56-.024-2.16-.12v2.544c.552-.096 1.104-.12 2.016-.12h1.656c-1.032 2.592-2.112 4.128-4.056 5.784.552.888.84 1.488 1.2 2.616 1.512-1.392 2.616-2.976 3.528-5.088l.024 5.736c.024.48-.12.576-.768.576-.456 0-1.152-.072-2.136-.24.336.888.456 1.44.504 2.352.72.048 1.464.072 1.992.072 1.152 0 1.896-.168 2.232-.48.36-.36.504-.864.504-1.608l-.048-9.72h1.512a12.784 12.784 0 01-1.368 3.048c.792.432 1.08.648 1.752 1.32.312-.648.408-.816.648-1.416V98.2c.528-.072.96-.096 1.896-.096h1.848zm-1.704-2.28c-1.08 0-1.536-.024-1.968-.072.336-.864.528-1.368.84-2.376.384.6.504.792.792 1.44 1.32-.432 1.824-.6 2.736-.984a.468.468 0 01.024.192c0 .576-.048 1.128-.12 1.8h-2.304zm6.552-8.688c-.456 1.152-.84 1.704-1.704 2.592-.936-.84-1.608-1.656-2.064-2.592h3.768zm17.328 8.448h-3.072c-1.008 0-1.536-.024-2.136-.096.072.624.096 1.224.096 2.112v4.368c0 1.32-.048 2.28-.144 2.952h2.712v-1.008h8.88v1.032h2.736c-.12-.768-.144-1.632-.144-3.12v-3.912c0-1.032.024-1.656.096-2.424-.576.072-1.104.096-2.112.096h-4.392v-2.52h5.136c.936 0 1.752.048 2.448.144v-2.64c-.552.096-1.32.144-2.544.144h-5.04v-.288c0-1.32.024-1.824.096-2.376h-2.736c.096.6.12 1.056.12 2.376v5.16zm-2.544 2.4h8.88v3.552h-8.88v-3.552zm1.632-12.936h-5.424a32.51 32.51 0 01-2.832-.12c.072.84.096 1.608.096 3.648 0 4.728-.144 7.296-.504 9.336-.384 2.088-.84 3.384-1.8 4.872 1.056.816 1.416 1.176 2.136 2.064 2.208-3.6 2.784-7.224 2.76-17.4h14.208c1.176 0 2.256.048 2.976.12v-2.664c-.648.096-1.608.144-3.024.144h-5.952v-.864c0-.696.024-1.104.12-1.488h-2.88c.072.432.12.816.12 1.464v.888z" fill="#333"/><path d="M376 52h737v82H376V52zm0 114h462v82H376v-82z" fill="#C4C4C4"/><path d="M376 52h138v82H376V52z" fill="#F7F8F8"/><path d="M376 15h320v1H376v-1zm417 0h320v1H793v-1zm319 1h1v21h-1V16zm-736 0h1v21h-1V16z" fill="#C4C4C4"/><mask id="a" maskUnits="userSpaceOnUse" x="838" y="166" width="274" height="85"><path d="M838 166h274v85H838v-85z" fill="#C4C4C4"/></mask><g mask="url(#a)" fill="#7EB1DD" fill-opacity=".3"><path d="M914.642 110.376l3.022 7.822-85.995 147.422-3.022-7.822 85.995-147.422zm-27.393-3.901l3.022 7.822-85.995 147.422-3.022-7.822 85.995-147.422zm268.451 38.227l3.02 7.822-85.99 147.422-3.02-7.822 85.99-147.422zm-211.002-30.047l3.022 7.822-85.995 147.422-3.022-7.821 85.995-147.423zm30.681 4.369l3.022 7.822-85.995 147.422-3.022-7.822 85.995-147.422zm30.681 4.369l3.02 7.822-85.994 147.422-3.022-7.821 85.996-147.423zm30.68 4.369l3.02 7.822-85.994 147.422-3.022-7.822 85.996-147.422zm30.68 4.369l3.02 7.822-85.993 147.422-3.023-7.822 85.996-147.422zm30.68 4.369l3.02 7.821-85.99 147.423-3.03-7.822 86-147.422zm30.68 4.369l3.02 7.822-85.99 147.422-3.03-7.822 86-147.422z"/></g><path d="M417.064 108.216c-.108-.738-.144-1.386-.144-2.34v-9.108c0-1.08.036-1.908.144-2.97-.648.072-.918.09-1.836.09h-1.656c-.846 0-1.242-.018-1.8-.108v2.286a16.008 16.008 0 011.854-.108h.864v9.918c0 .936-.036 1.638-.144 2.34h2.718zm11.14.288c1.872 0 3.366-.72 4.374-2.124.846-1.17 1.332-3.114 1.332-5.328 0-1.476-.234-2.916-.702-4.176-.234-.648-.648-1.278-1.188-1.818-.954-.954-2.268-1.458-3.798-1.458-1.998 0-3.618.882-4.59 2.502-.666 1.098-1.098 3.078-1.098 4.986 0 1.458.234 2.862.702 4.14.234.648.648 1.278 1.188 1.818.954.954 2.25 1.458 3.78 1.458zm.018-2.088c-.99 0-1.746-.378-2.304-1.17-.576-.828-.918-2.394-.918-4.284 0-1.962.396-3.438 1.188-4.374.522-.63 1.152-.918 2.016-.918.81 0 1.53.27 1.962.756.81.882 1.26 2.52 1.26 4.608 0 2.106-.45 3.78-1.26 4.626-.45.486-1.152.756-1.944.756zm12.797 2.088c1.872 0 3.366-.72 4.374-2.124.846-1.17 1.332-3.114 1.332-5.328 0-1.476-.234-2.916-.702-4.176-.234-.648-.648-1.278-1.188-1.818-.954-.954-2.268-1.458-3.798-1.458-1.998 0-3.618.882-4.59 2.502-.666 1.098-1.098 3.078-1.098 4.986 0 1.458.234 2.862.702 4.14.234.648.648 1.278 1.188 1.818.954.954 2.25 1.458 3.78 1.458zm.018-2.088c-.99 0-1.746-.378-2.304-1.17-.576-.828-.918-2.394-.918-4.284 0-1.962.396-3.438 1.188-4.374.522-.63 1.152-.918 2.016-.918.81 0 1.53.27 1.962.756.81.882 1.26 2.52 1.26 4.608 0 2.106-.45 3.78-1.26 4.626-.45.486-1.152.756-1.944.756zm12.454-10.674c-.054 2.214-.072 2.394-.252 3.582-.36 2.394-1.134 4.302-2.394 5.94-.792 1.026-1.458 1.62-2.772 2.466a6.267 6.267 0 011.512 1.728c1.62-1.152 2.574-2.142 3.528-3.654 1.026-1.656 1.62-3.24 1.998-5.382h5.598c-.126 3.132-.378 5.328-.738 6.21-.198.504-.522.648-1.404.648-.702 0-1.782-.144-2.826-.36.288.72.396 1.242.486 2.052 1.584.126 1.962.144 2.556.144 1.782 0 2.574-.396 3.024-1.512.45-1.098.81-3.96.936-7.128.054-1.602.054-1.62.108-2.034-.54.072-1.242.09-2.304.09h-5.166c.108-.99.126-1.386.162-2.79h6.75c.81 0 1.584.036 2.286.108v-2.124a22.26 22.26 0 01-2.304.108h-11.574a21.53 21.53 0 01-2.304-.108v2.124a23.662 23.662 0 012.322-.108h2.772zm15.606 6.678h10.71v4.392c0 .432-.108.486-.81.486-.648 0-1.548-.072-2.736-.198.324.738.45 1.242.558 1.944.702.036 1.692.072 2.394.072.972 0 1.548-.072 1.89-.252.522-.27.738-.774.738-1.692V95.634c0-.972.018-1.44.072-1.962-.432.054-.972.072-1.962.072h-10.944c-.954 0-1.422-.018-1.998-.072.054.522.072.972.072 1.728v11.772c0 .936-.036 1.584-.108 2.16h2.214c-.072-.414-.09-.954-.09-2.088v-4.824zm4.266-1.89h-4.266v-4.878h4.266v4.878zm1.944 0v-4.878h4.5v4.878h-4.5zM400.06 78.896c.882 0 1.176.014 1.61.07V77.93c-.462.07-.728.084-1.624.084h-8.19c-.882 0-1.162-.014-1.624-.084v1.036c.434-.056.728-.07 1.61-.07h3.794c-.112 3.192-1.204 4.69-4.102 5.656.336.322.476.504.658.91 3.164-1.232 4.34-2.94 4.508-6.566h3.36zm-8.414-3.374c.392-.056.63-.07 1.596-.07h4.256c.882.014 1.414.028 1.596.042v-1.008c-.49.056-.854.07-1.61.07h-4.228c-.91 0-1.19-.014-1.61-.098v1.064zm7.504-1.904c.392.448 1.036 1.512 1.358 2.268l.714-.392a10.895 10.895 0 00-1.372-2.212l-.7.336zm1.722-.518c.518.658 1.078 1.582 1.358 2.254l.714-.392a11.653 11.653 0 00-1.372-2.212l-.7.35zm6.86 3.78v-1.666c0-.616.014-.798.056-1.134h-1.134c.042.308.056.434.056 1.176v1.624h-1.162c-.882 0-1.162-.014-1.638-.084v1.064c.448-.056.728-.07 1.624-.07h1.176v2.296c0 .742-.014.882-.056 1.176h1.134c-.042-.322-.056-.518-.056-1.134V77.79h4.256c-.028 2.24-.112 3.08-.42 3.92-.56 1.414-1.974 2.506-3.808 2.968.322.308.462.518.63.882 1.89-.644 3.15-1.624 3.906-3.024.518-1.008.672-2.044.686-4.746h1.232c.896 0 1.176.014 1.624.07v-1.064c-.476.07-.756.084-1.638.084h-1.204v-1.47c.014-.924.014-.938.056-1.33h-1.092c.042.322.042.448.042 1.428v1.372h-4.27zm5.852-3.472c.378.63.658 1.302.994 2.338l.742-.252c-.322-.994-.546-1.484-.994-2.296l-.742.21zm1.638-.434c.336.546.714 1.442.98 2.296l.728-.252a10.853 10.853 0 00-.994-2.282l-.714.238zm11.906.91c-.392.658-1.372 1.638-2.674 2.646-2.212 1.736-4.634 2.94-7.266 3.626.28.35.35.49.546.938 2.562-.868 3.584-1.33 5.404-2.45v5.32c0 .77-.014 1.092-.084 1.456h1.218c-.056-.378-.07-.686-.07-1.484v-5.964c1.204-.868 2.394-1.89 3.276-2.814.35-.378.364-.406.616-.588l-.966-.686zm5.222 1.974a15.46 15.46 0 013.332 2.744l.728-.868c-1.008-.994-1.876-1.68-3.374-2.632l-.686.756zm.098 9.1c.35-.112.462-.14.84-.224 2.338-.532 3.78-1.106 5.222-2.086 1.848-1.274 3.15-2.912 4.27-5.348-.392-.266-.532-.392-.854-.826-1.134 2.968-3.01 5.026-5.712 6.23-1.302.602-2.982 1.036-4.074 1.078l.308 1.176zm18.718-6.426c-.63 0-1.148.518-1.148 1.148 0 .63.518 1.148 1.148 1.148.63 0 1.148-.518 1.148-1.148 0-.63-.518-1.148-1.148-1.148zm18.984.798c-.21.042-.462.056-1.05.056h-3.906c-.406 0-.714-.014-.994-.07v.91c.294-.042.462-.056.84-.07.714 1.624 1.106 2.226 2.072 3.192-1.008.812-2.044 1.372-3.486 1.862.252.252.378.42.546.77 1.498-.588 2.604-1.232 3.556-2.058 1.036.868 1.96 1.372 3.626 2.03.154-.35.28-.56.504-.882-1.54-.49-2.52-.98-3.514-1.75a10.897 10.897 0 002.058-2.954c.182-.378.182-.378.266-.518l-.518-.518zm-.588.826c-.546 1.148-1.022 1.82-1.834 2.632-.938-.896-1.358-1.498-1.862-2.632h3.696zm-10.052-5.474c.308-.042.63-.056 1.064-.056h1.89c.448 0 .714.014 1.064.056V73.8c-.336.056-.588.07-1.064.07h-1.89c-.49 0-.728-.014-1.064-.07v.882zm-.476 1.988a8.779 8.779 0 011.12-.056h2.772c.504 0 .742.014 1.022.056v-.938c-.322.056-.546.07-1.12.07h-2.674c-.532 0-.798-.014-1.12-.07v.938zm.49 1.932a6.774 6.774 0 011.008-.056h1.974c.434 0 .658.014.994.056v-.854c-.294.042-.49.056-.994.056h-1.974c-.49 0-.742-.014-1.008-.056v.854zm0 1.932a6.655 6.655 0 011.008-.056h1.974c.476 0 .602.014.994.056v-.854c-.252.042-.518.056-.994.056h-1.974c-.49 0-.728-.014-1.008-.056v.854zm.882 5.516v-.756h2.254v.574h.868a7.327 7.327 0 01-.07-1.148v-1.974c0-.532.014-.784.042-1.106-.252.042-.42.042-1.022.042h-1.834c-.406 0-.756-.014-1.12-.056.056.364.07.686.07 1.176v1.89c0 .56-.028.952-.084 1.358h.896zm0-3.64h2.254v2.156h-2.254V82.41zm8.106-7.756v2.954c0 .63.252.77 1.386.77.798 0 1.148-.07 1.358-.252.266-.238.406-.756.49-1.89-.308-.098-.434-.154-.77-.378-.028.826-.098 1.33-.224 1.568-.07.154-.238.196-.812.196-.462 0-.588-.056-.588-.294v-2.184c0-.56.014-.924.056-1.316a9.256 9.256 0 01-1.19.056h-1.708c-.364 0-.714-.014-1.092-.056.056.364.07.504.07.84 0 .924-.098 1.554-.322 2.128-.28.742-.644 1.176-1.372 1.666.252.14.462.322.714.588.574-.448.854-.77 1.148-1.302.462-.84.63-1.582.672-3.094h2.184zm13.146 3.178h-1.232c-.7 0-1.176-.028-1.61-.084v1.008c.476-.056.994-.084 1.61-.084h1.232v5.348c0 .994-.028 1.442-.098 2.002h1.12c-.084-.532-.112-1.106-.112-2.002v-5.348h1.33c.7 0 1.162.028 1.68.084v-1.008c-.462.056-.924.084-1.68.084h-1.33v-2.828a10 10 0 01.098-1.554h-1.106c.07.504.098.896.098 1.554v2.828zm-7.98-3.024a8.46 8.46 0 011.134-.056h2.282c.476 0 .742.014 1.106.056v-.882c-.336.056-.616.07-1.106.07h-2.282c-.504 0-.798-.014-1.134-.07v.882zm-.658 1.946c.392-.056.742-.07 1.204-.07h3.388c.504 0 .882.014 1.218.07v-.924c-.322.056-.672.084-1.218.084h-3.374c-.504 0-.84-.028-1.218-.084v.924zm.672 1.904a6.774 6.774 0 011.008-.056h2.492c.448 0 .63.014.994.056v-.854a6.34 6.34 0 01-.994.056H474.7c-.49 0-.714-.014-1.008-.056v.854zm0 1.932a6.655 6.655 0 011.008-.056h2.492c.476 0 .658.014.994.056v-.854a6.34 6.34 0 01-.994.056H474.7c-.504 0-.728-.014-1.008-.056v.854zm.994 4.718h2.66v.546h.938a7.298 7.298 0 01-.084-1.19v-1.848c0-.532.014-.798.056-1.12-.28.028-.546.042-.952.042h-2.562c-.448 0-.672-.014-.98-.056.056.364.07.686.07 1.148v1.862c0 .532-.028.938-.084 1.344h.938v-.728zm-.014-2.814h2.688v2.072h-2.688v-2.072zm20.51-5.362v-.84h2.002c.532 0 .924.014 1.33.042-.042-.224-.042-.322-.042-.784v-.476c0-.42.014-.63.056-.91-.308.056-.686.07-1.33.07h-2.016v-.14c0-.35.014-.532.07-.826h-.924c.056.294.07.476.07.812v.154h-2.226c.028-.504.042-.826.056-.952h-.91c.056.364.07.518.07.952h-2.464c-.7 0-1.036-.014-1.386-.07v.812c.406-.056.812-.07 1.386-.07h2.436a6.897 6.897 0 01-.07.756h-1.806c-.644 0-.966-.014-1.274-.042-.196.896-.392 1.442-.784 2.198a15.25 15.25 0 011.246-.042h1.792c-.728.798-1.68 1.218-3.668 1.638.224.238.336.434.448.714.784-.224 1.078-.322 1.554-.532v3.108c0 .658-.014 1.12-.056 1.414.364-.042.896-.056 1.554-.056h5.95c.672 0 1.204.014 1.568.056-.042-.336-.056-.728-.056-1.442v-2.254c0-.504.014-.938.028-1.288.154.014.266.014.364.014.336 0 .574-.084.714-.252.14-.168.21-.42.322-1.134.056-.35.056-.364.126-.672-.336.042-.56.042-1.344.042h-2.786zm1.162 1.806h-6.23c.546-.308.91-.63 1.274-1.162h3.01v.14c0 .308-.014.518-.07.756h.924a3.138 3.138 0 01-.07-.77v-.126h3.192c-.098.728-.126.756-.448.756-.21 0-.476-.056-.868-.182.07.21.098.336.14.588h-.854zm-5.166-2.646c-.084.364-.14.518-.28.84h-2.31c.098-.238.154-.378.308-.84h2.282zm3.22 0v.84h-2.674c.14-.336.182-.476.252-.84h2.422zm0-1.386v.756h-2.324c.028-.28.028-.294.07-.756h2.254zm.784 0h2.464v.756h-2.464v-.756zm-5.544 4.704h7.266v.826h-7.266v-.826zm0 1.47h7.266v.826h-7.266v-.826zm0 1.47h7.266v.84h-7.266v-.84zm1.456 1.638c-1.288.7-2.31 1.008-4.032 1.246.224.238.35.448.504.784 1.876-.392 2.716-.7 4.172-1.512l-.644-.518zm3.64.518c.854.49 1.274.672 2.212.98.798.266 1.218.364 2.072.518.196-.364.266-.476.532-.798-.924-.098-1.386-.182-2.1-.378-.826-.224-1.232-.378-2.058-.826l-.658.504z" fill="#333"/><path d="M513 52h462v82H513V52z" fill="#D2E5F5"/><path d="M740.664 97.822c-.396-.936-.666-1.35-1.134-1.836-.864-.9-2.142-1.368-3.69-1.368-1.89 0-3.33.702-4.392 2.142-.918 1.224-1.476 3.348-1.476 5.562 0 2.718.756 4.878 2.088 6.03.882.756 2.214 1.188 3.654 1.188 3.06 0 5.22-2.016 5.22-4.86 0-1.062-.216-1.998-.648-2.7-.792-1.35-2.34-2.142-4.176-2.142-1.818 0-2.88.486-3.852 1.8.09-1.386.288-2.25.738-3.186.612-1.242 1.548-1.872 2.826-1.872s1.944.504 2.412 1.818l2.43-.576zm-4.968 3.978c1.782 0 2.844 1.044 2.844 2.826 0 .63-.144 1.224-.414 1.638-.504.792-1.422 1.26-2.466 1.26-1.764 0-3.042-1.206-3.042-2.844 0-1.656 1.314-2.88 3.078-2.88zm12.508 7.704c1.872 0 3.366-.72 4.374-2.124.846-1.17 1.332-3.114 1.332-5.328 0-1.476-.233-2.916-.702-4.176-.234-.648-.648-1.278-1.187-1.818-.955-.954-2.268-1.458-3.799-1.458-1.998 0-3.618.882-4.59 2.502-.666 1.098-1.098 3.078-1.098 4.986 0 1.458.234 2.862.702 4.14.234.648.648 1.278 1.188 1.818.954.954 2.25 1.458 3.78 1.458zm.018-2.088c-.989 0-1.746-.378-2.304-1.17-.576-.828-.918-2.394-.918-4.284 0-1.962.396-3.438 1.188-4.374.522-.63 1.152-.918 2.016-.918.81 0 1.531.27 1.963.756.809.882 1.26 2.52 1.26 4.608 0 2.106-.451 3.78-1.26 4.626-.451.486-1.153.756-1.945.756zm12.797 2.088c1.872 0 3.366-.72 4.374-2.124.846-1.17 1.332-3.114 1.332-5.328 0-1.476-.234-2.916-.702-4.176-.234-.648-.648-1.278-1.188-1.818-.954-.954-2.268-1.458-3.798-1.458-1.998 0-3.618.882-4.59 2.502-.666 1.098-1.098 3.078-1.098 4.986 0 1.458.234 2.862.702 4.14.234.648.648 1.278 1.188 1.818.954.954 2.25 1.458 3.78 1.458zm.018-2.088c-.99 0-1.746-.378-2.304-1.17-.576-.828-.918-2.394-.918-4.284 0-1.962.396-3.438 1.188-4.374.522-.63 1.152-.918 2.016-.918.81 0 1.53.27 1.962.756.81.882 1.26 2.52 1.26 4.608 0 2.106-.45 3.78-1.26 4.626-.45.486-1.152.756-1.944.756zm12.454-10.674c-.054 2.214-.072 2.394-.252 3.582-.36 2.394-1.134 4.302-2.394 5.94-.792 1.026-1.458 1.62-2.772 2.466a6.267 6.267 0 011.512 1.728c1.62-1.152 2.574-2.142 3.528-3.654 1.026-1.656 1.62-3.24 1.998-5.382h5.598c-.126 3.132-.378 5.328-.738 6.21-.198.504-.522.648-1.404.648-.702 0-1.782-.144-2.826-.36.288.72.396 1.242.486 2.052 1.584.126 1.962.144 2.556.144 1.782 0 2.574-.396 3.024-1.512.45-1.098.81-3.96.936-7.128.054-1.602.054-1.62.108-2.034-.54.072-1.242.09-2.304.09h-5.166c.108-.99.126-1.386.162-2.79h6.75c.81 0 1.584.036 2.286.108v-2.124a22.26 22.26 0 01-2.304.108h-11.574a21.53 21.53 0 01-2.304-.108v2.124a23.662 23.662 0 012.322-.108h2.772zm15.606 6.678h10.71v4.392c0 .432-.108.486-.81.486-.648 0-1.548-.072-2.736-.198.324.738.45 1.242.558 1.944.702.036 1.692.072 2.394.072.972 0 1.548-.072 1.89-.252.522-.27.738-.774.738-1.692V96.634c0-.972.018-1.44.072-1.962-.432.054-.972.072-1.962.072h-10.944c-.954 0-1.422-.018-1.998-.072.054.522.072.972.072 1.728v11.772c0 .936-.036 1.584-.108 2.16h2.214c-.072-.414-.09-.954-.09-2.088v-4.824zm4.266-1.89h-4.266v-4.878h4.266v4.878zm1.944 0v-4.878h4.5v4.878h-4.5zM751.56 79.372v-.784c0-.476.014-.756.084-1.134h-.952c.042.35.056.672.056 1.148v1.022l-.098.028c-.462.14-.672.182-.98.238l.182.924a7.92 7.92 0 01.896-.364v4.032c0 1.036.448 1.204 3.206 1.204 2.968 0 3.08-.084 3.318-2.604-.364-.084-.518-.154-.868-.35-.028 1.064-.126 1.722-.294 1.904-.154.182-.644.238-2.114.238-2.282 0-2.436-.042-2.436-.616v-4.06l1.596-.518v2.324c0 .588-.014.812-.056 1.176h.91c-.056-.322-.07-.602-.07-1.176v-2.576l1.862-.602c0 1.106-.056 1.988-.154 2.758-.042.294-.154.42-.406.42-.182 0-.602-.056-.91-.112.112.322.154.49.196.826.308.028.602.042.77.042.518 0 .798-.098.938-.336.21-.378.294-1.176.364-3.346.014-.294.014-.462.056-1.358-.196.098-.77.308-1.148.42l-1.568.49v-.826c0-.462.028-.798.084-1.134h-.938c.042.35.07.686.07 1.162v1.036l-1.596.504zm-4.606-3.752h-1.106c-.532 0-.854-.028-1.218-.084v.938c.322-.056.63-.07 1.176-.07h.406c-.056 2.66-.084 3.234-.196 4.256-.224 2.016-.7 3.276-1.708 4.508.266.21.42.364.658.7.854-1.19 1.26-2.044 1.582-3.332.21-.84.322-1.708.42-3.444h1.582c0 2.03-.084 3.668-.238 4.69-.14.952-.224 1.078-.714 1.078-.364 0-.7-.042-1.134-.154.098.266.126.476.168.91.378.028.77.056.952.056.476 0 .84-.07 1.008-.21.224-.168.378-.602.504-1.372.154-.966.252-2.94.266-4.956 0-.35.014-.602.028-.868-.28.042-.532.056-.98.056h-1.414c.028-1.12.028-1.12.056-1.918h1.722c.602 0 .924.014 1.246.056v-.91c-.364.056-.728.07-1.246.07h-.952v-.924c0-.56.014-.868.084-1.288h-1.036c.056.406.084.756.084 1.288v.924zm8.792.504a14.1 14.1 0 011.428.056v-.938c-.336.056-.784.084-1.428.084h-4.018c.182-.406.266-.588.504-1.162.168-.434.182-.476.252-.588l-.938-.224c-.042.224-.07.336-.196.7-.448 1.4-1.12 2.534-2.212 3.808.336.182.518.336.672.56.7-.91 1.064-1.47 1.512-2.296h4.424zm8.652-.364v7.994h-3.948c-.742 0-1.176-.028-1.652-.098v1.092c.49-.07.938-.098 1.638-.098h9.198c.7 0 1.19.028 1.638.098v-1.092c-.476.07-.91.098-1.638.098h-4.228V75.76h3.374c.658 0 1.106.028 1.61.084V74.78a12.48 12.48 0 01-1.624.084h-7.448c-.742 0-1.176-.028-1.624-.084v1.064c.49-.056.952-.084 1.61-.084h3.094zm16.618 1.372v-.84h2.002c.532 0 .924.014 1.33.042-.042-.224-.042-.322-.042-.784v-.476c0-.42.014-.63.056-.91-.308.056-.686.07-1.33.07h-2.016v-.14c0-.35.014-.532.07-.826h-.924c.056.294.07.476.07.812v.154h-2.226c.028-.504.042-.826.056-.952h-.91c.056.364.07.518.07.952h-2.464c-.7 0-1.036-.014-1.386-.07v.812c.406-.056.812-.07 1.386-.07h2.436a6.897 6.897 0 01-.07.756h-1.806c-.644 0-.966-.014-1.274-.042-.196.896-.392 1.442-.784 2.198a15.25 15.25 0 011.246-.042h1.792c-.728.798-1.68 1.218-3.668 1.638.224.238.336.434.448.714.784-.224 1.078-.322 1.554-.532v3.108c0 .658-.014 1.12-.056 1.414.364-.042.896-.056 1.554-.056h5.95c.672 0 1.204.014 1.568.056-.042-.336-.056-.728-.056-1.442v-2.254c0-.504.014-.938.028-1.288.154.014.266.014.364.014.336 0 .574-.084.714-.252.14-.168.21-.42.322-1.134.056-.35.056-.364.126-.672-.336.042-.56.042-1.344.042h-2.786zm1.162 1.806h-6.23c.546-.308.91-.63 1.274-1.162h3.01v.14c0 .308-.014.518-.07.756h.924a3.138 3.138 0 01-.07-.77v-.126h3.192c-.098.728-.126.756-.448.756-.21 0-.476-.056-.868-.182.07.21.098.336.14.588h-.854zm-5.166-2.646c-.084.364-.14.518-.28.84h-2.31c.098-.238.154-.378.308-.84h2.282zm3.22 0v.84h-2.674c.14-.336.182-.476.252-.84h2.422zm0-1.386v.756h-2.324c.028-.28.028-.294.07-.756h2.254zm.784 0h2.464v.756h-2.464v-.756zm-5.544 4.704h7.266v.826h-7.266v-.826zm0 1.47h7.266v.826h-7.266v-.826zm0 1.47h7.266v.84h-7.266v-.84zm1.456 1.638c-1.288.7-2.31 1.008-4.032 1.246.224.238.35.448.504.784 1.876-.392 2.716-.7 4.172-1.512l-.644-.518zm3.64.518c.854.49 1.274.672 2.212.98.798.266 1.218.364 2.072.518.196-.364.266-.476.532-.798-.924-.098-1.386-.182-2.1-.378-.826-.224-1.232-.378-2.058-.826l-.658.504z" fill="#333"/><path d="M376 166h462v84H376v-84z" fill="#D2E5F5"/><path d="M580.664 212.822c-.396-.936-.666-1.35-1.134-1.836-.864-.9-2.142-1.368-3.69-1.368-1.89 0-3.33.702-4.392 2.142-.918 1.224-1.476 3.348-1.476 5.562 0 2.718.756 4.878 2.088 6.03.882.756 2.214 1.188 3.654 1.188 3.06 0 5.22-2.016 5.22-4.86 0-1.062-.216-1.998-.648-2.7-.792-1.35-2.34-2.142-4.176-2.142-1.818 0-2.88.486-3.852 1.8.09-1.386.288-2.25.738-3.186.612-1.242 1.548-1.872 2.826-1.872s1.944.504 2.412 1.818l2.43-.576zm-4.968 3.978c1.782 0 2.844 1.044 2.844 2.826 0 .63-.144 1.224-.414 1.638-.504.792-1.422 1.26-2.466 1.26-1.764 0-3.042-1.206-3.042-2.844 0-1.656 1.314-2.88 3.078-2.88zm12.508 7.704c1.872 0 3.366-.72 4.374-2.124.846-1.17 1.332-3.114 1.332-5.328 0-1.476-.233-2.916-.702-4.176-.234-.648-.648-1.278-1.187-1.818-.955-.954-2.268-1.458-3.799-1.458-1.998 0-3.618.882-4.59 2.502-.666 1.098-1.098 3.078-1.098 4.986 0 1.458.234 2.862.702 4.14.234.648.648 1.278 1.188 1.818.954.954 2.25 1.458 3.78 1.458zm.018-2.088c-.989 0-1.746-.378-2.304-1.17-.576-.828-.918-2.394-.918-4.284 0-1.962.396-3.438 1.188-4.374.522-.63 1.152-.918 2.016-.918.81 0 1.531.27 1.963.756.809.882 1.26 2.52 1.26 4.608 0 2.106-.451 3.78-1.26 4.626-.451.486-1.153.756-1.945.756zm12.797 2.088c1.872 0 3.366-.72 4.374-2.124.846-1.17 1.332-3.114 1.332-5.328 0-1.476-.234-2.916-.702-4.176-.234-.648-.648-1.278-1.188-1.818-.954-.954-2.268-1.458-3.798-1.458-1.998 0-3.618.882-4.59 2.502-.666 1.098-1.098 3.078-1.098 4.986 0 1.458.234 2.862.702 4.14.234.648.648 1.278 1.188 1.818.954.954 2.25 1.458 3.78 1.458zm.018-2.088c-.99 0-1.746-.378-2.304-1.17-.576-.828-.918-2.394-.918-4.284 0-1.962.396-3.438 1.188-4.374.522-.63 1.152-.918 2.016-.918.81 0 1.53.27 1.962.756.81.882 1.26 2.52 1.26 4.608 0 2.106-.45 3.78-1.26 4.626-.45.486-1.152.756-1.944.756zm12.454-10.674c-.054 2.214-.072 2.394-.252 3.582-.36 2.394-1.134 4.302-2.394 5.94-.792 1.026-1.458 1.62-2.772 2.466a6.267 6.267 0 011.512 1.728c1.62-1.152 2.574-2.142 3.528-3.654 1.026-1.656 1.62-3.24 1.998-5.382h5.598c-.126 3.132-.378 5.328-.738 6.21-.198.504-.522.648-1.404.648-.702 0-1.782-.144-2.826-.36.288.72.396 1.242.486 2.052 1.584.126 1.962.144 2.556.144 1.782 0 2.574-.396 3.024-1.512.45-1.098.81-3.96.936-7.128.054-1.602.054-1.62.108-2.034-.54.072-1.242.09-2.304.09h-5.166c.108-.99.126-1.386.162-2.79h6.75c.81 0 1.584.036 2.286.108v-2.124a22.26 22.26 0 01-2.304.108h-11.574a21.53 21.53 0 01-2.304-.108v2.124a23.662 23.662 0 012.322-.108h2.772zm15.606 6.678h10.71v4.392c0 .432-.108.486-.81.486-.648 0-1.548-.072-2.736-.198.324.738.45 1.242.558 1.944.702.036 1.692.072 2.394.072.972 0 1.548-.072 1.89-.252.522-.27.738-.774.738-1.692v-11.538c0-.972.018-1.44.072-1.962-.432.054-.972.072-1.962.072h-10.944c-.954 0-1.422-.018-1.998-.072.054.522.072.972.072 1.728v11.772c0 .936-.036 1.584-.108 2.16h2.214c-.072-.414-.09-.954-.09-2.088v-4.824zm4.266-1.89h-4.266v-4.878h4.266v4.878zm1.944 0v-4.878h4.5v4.878h-4.5zm-43.747-21.158v-.784c0-.476.014-.756.084-1.134h-.952c.042.35.056.672.056 1.148v1.022l-.098.028c-.462.14-.672.182-.98.238l.182.924a7.92 7.92 0 01.896-.364v4.032c0 1.036.448 1.204 3.206 1.204 2.968 0 3.08-.084 3.318-2.604-.364-.084-.518-.154-.868-.35-.028 1.064-.126 1.722-.294 1.904-.154.182-.644.238-2.114.238-2.282 0-2.436-.042-2.436-.616v-4.06l1.596-.518v2.324c0 .588-.014.812-.056 1.176h.91c-.056-.322-.07-.602-.07-1.176v-2.576l1.862-.602c0 1.106-.056 1.988-.154 2.758-.042.294-.154.42-.406.42-.182 0-.602-.056-.91-.112.112.322.154.49.196.826.308.028.602.042.77.042.518 0 .798-.098.938-.336.21-.378.294-1.176.364-3.346.014-.294.014-.462.056-1.358-.196.098-.77.308-1.148.42l-1.568.49v-.826c0-.462.028-.798.084-1.134h-.938c.042.35.07.686.07 1.162v1.036l-1.596.504zm-4.606-3.752h-1.106c-.532 0-.854-.028-1.218-.084v.938c.322-.056.63-.07 1.176-.07h.406c-.056 2.66-.084 3.234-.196 4.256-.224 2.016-.7 3.276-1.708 4.508.266.21.42.364.658.7.854-1.19 1.26-2.044 1.582-3.332.21-.84.322-1.708.42-3.444h1.582c0 2.03-.084 3.668-.238 4.69-.14.952-.224 1.078-.714 1.078-.364 0-.7-.042-1.134-.154.098.266.126.476.168.91.378.028.77.056.952.056.476 0 .84-.07 1.008-.21.224-.168.378-.602.504-1.372.154-.966.252-2.94.266-4.956 0-.35.014-.602.028-.868-.28.042-.532.056-.98.056h-1.414c.028-1.12.028-1.12.056-1.918h1.722c.602 0 .924.014 1.246.056v-.91c-.364.056-.728.07-1.246.07h-.952v-.924c0-.56.014-.868.084-1.288h-1.036c.056.406.084.756.084 1.288v.924zm8.792.504a14.1 14.1 0 011.428.056v-.938c-.336.056-.784.084-1.428.084h-4.018c.182-.406.266-.588.504-1.162.168-.434.182-.476.252-.588l-.938-.224c-.042.224-.07.336-.196.7-.448 1.4-1.12 2.534-2.212 3.808.336.182.518.336.672.56.7-.91 1.064-1.47 1.512-2.296h4.424zm8.652-.364v7.994h-3.948c-.742 0-1.176-.028-1.652-.098v1.092c.49-.07.938-.098 1.638-.098h9.198c.7 0 1.19.028 1.638.098v-1.092c-.476.07-.91.098-1.638.098h-4.228v-7.994h3.374c.658 0 1.106.028 1.61.084v-1.064a12.48 12.48 0 01-1.624.084h-7.448c-.742 0-1.176-.028-1.624-.084v1.064c.49-.056.952-.084 1.61-.084h3.094zm16.618 1.372v-.84h2.002c.532 0 .924.014 1.33.042-.042-.224-.042-.322-.042-.784v-.476c0-.42.014-.63.056-.91-.308.056-.686.07-1.33.07h-2.016v-.14c0-.35.014-.532.07-.826h-.924c.056.294.07.476.07.812v.154h-2.226c.028-.504.042-.826.056-.952h-.91c.056.364.07.518.07.952h-2.464c-.7 0-1.036-.014-1.386-.07v.812c.406-.056.812-.07 1.386-.07h2.436a6.897 6.897 0 01-.07.756h-1.806c-.644 0-.966-.014-1.274-.042-.196.896-.392 1.442-.784 2.198a15.25 15.25 0 011.246-.042h1.792c-.728.798-1.68 1.218-3.668 1.638.224.238.336.434.448.714.784-.224 1.078-.322 1.554-.532v3.108c0 .658-.014 1.12-.056 1.414.364-.042.896-.056 1.554-.056h5.95c.672 0 1.204.014 1.568.056-.042-.336-.056-.728-.056-1.442v-2.254c0-.504.014-.938.028-1.288.154.014.266.014.364.014.336 0 .574-.084.714-.252.14-.168.21-.42.322-1.134.056-.35.056-.364.126-.672-.336.042-.56.042-1.344.042h-2.786zm1.162 1.806h-6.23c.546-.308.91-.63 1.274-1.162h3.01v.14c0 .308-.014.518-.07.756h.924a3.138 3.138 0 01-.07-.77v-.126h3.192c-.098.728-.126.756-.448.756-.21 0-.476-.056-.868-.182.07.21.098.336.14.588h-.854zm-5.166-2.646c-.084.364-.14.518-.28.84h-2.31c.098-.238.154-.378.308-.84h2.282zm3.22 0v.84h-2.674c.14-.336.182-.476.252-.84h2.422zm0-1.386v.756h-2.324c.028-.28.028-.294.07-.756h2.254zm.784 0h2.464v.756h-2.464v-.756zm-5.544 4.704h7.266v.826h-7.266v-.826zm0 1.47h7.266v.826h-7.266v-.826zm0 1.47h7.266v.84h-7.266v-.84zm1.456 1.638c-1.288.7-2.31 1.008-4.032 1.246.224.238.35.448.504.784 1.876-.392 2.716-.7 4.172-1.512l-.644-.518zm3.64.518c.854.49 1.274.672 2.212.98.798.266 1.218.364 2.072.518.196-.364.266-.476.532-.798-.924-.098-1.386-.182-2.1-.378-.826-.224-1.232-.378-2.058-.826l-.658.504zm394.492-91.49c-.1-.738-.14-1.386-.14-2.34v-9.108c0-1.08.04-1.908.14-2.97-.64.072-.91.09-1.83.09h-1.66c-.84 0-1.24-.018-1.8-.108v2.286c.67-.072 1.19-.108 1.86-.108h.86v9.918c0 .936-.04 1.638-.14 2.34h2.71zm11.14.288c1.88 0 3.37-.72 4.38-2.124.84-1.17 1.33-3.114 1.33-5.328 0-1.476-.23-2.916-.7-4.176a5.129 5.129 0 00-1.19-1.818c-.95-.954-2.27-1.458-3.8-1.458-2 0-3.62.882-4.59 2.502-.66 1.098-1.1 3.078-1.1 4.986 0 1.458.24 2.862.71 4.14.23.648.64 1.278 1.18 1.818.96.954 2.25 1.458 3.78 1.458zm.02-2.088c-.99 0-1.74-.378-2.3-1.17-.58-.828-.92-2.394-.92-4.284 0-1.962.4-3.438 1.19-4.374.52-.63 1.15-.918 2.01-.918.81 0 1.53.27 1.97.756.81.882 1.26 2.52 1.26 4.608 0 2.106-.45 3.78-1.26 4.626-.45.486-1.16.756-1.95.756zm12.8 2.088c1.87 0 3.36-.72 4.37-2.124.85-1.17 1.33-3.114 1.33-5.328 0-1.476-.23-2.916-.7-4.176-.23-.648-.65-1.278-1.19-1.818-.95-.954-2.26-1.458-3.79-1.458-2 0-3.62.882-4.59 2.502-.67 1.098-1.1 3.078-1.1 4.986 0 1.458.23 2.862.7 4.14.23.648.65 1.278 1.19 1.818.95.954 2.25 1.458 3.78 1.458zm.02-2.088c-.99 0-1.75-.378-2.31-1.17-.57-.828-.92-2.394-.92-4.284 0-1.962.4-3.438 1.19-4.374.52-.63 1.15-.918 2.02-.918.81 0 1.53.27 1.96.756.81.882 1.26 2.52 1.26 4.608 0 2.106-.45 3.78-1.26 4.626-.45.486-1.15.756-1.94.756zm12.45-10.674c-.05 2.214-.07 2.394-.25 3.582-.36 2.394-1.13 4.302-2.39 5.94-.8 1.026-1.46 1.62-2.78 2.466.65.522 1.1 1.044 1.52 1.728 1.62-1.152 2.57-2.142 3.52-3.654 1.03-1.656 1.62-3.24 2-5.382h5.6c-.13 3.132-.38 5.328-.74 6.21-.2.504-.52.648-1.4.648-.7 0-1.78-.144-2.83-.36.29.72.4 1.242.49 2.052 1.58.126 1.96.144 2.55.144 1.79 0 2.58-.396 3.03-1.512.45-1.098.81-3.96.93-7.128.06-1.602.06-1.62.11-2.034-.54.072-1.24.09-2.3.09h-5.17c.11-.99.13-1.386.16-2.79h6.75c.81 0 1.59.036 2.29.108v-2.124c-.7.072-1.44.108-2.3.108h-11.58c-.88 0-1.64-.036-2.3-.108v2.124a23.62 23.62 0 012.32-.108h2.77zm15.61 6.678h10.71v4.392c0 .432-.11.486-.81.486-.65 0-1.55-.072-2.74-.198.33.738.45 1.242.56 1.944.7.036 1.69.072 2.39.072.98 0 1.55-.072 1.89-.252.53-.27.74-.774.74-1.692V96.634c0-.972.02-1.44.07-1.962-.43.054-.97.072-1.96.072h-10.94c-.96 0-1.42-.018-2-.072.05.522.07.972.07 1.728v11.772c0 .936-.03 1.584-.11 2.16h2.22c-.07-.414-.09-.954-.09-2.088v-4.824zm4.26-1.89h-4.26v-4.878h4.26v4.878zm1.95 0v-4.878h4.5v4.878h-4.5zm-62.88-24.546h-3.9c-.44 0-.71-.014-1.05-.056.05.364.07.672.07 1.106v3.822c0 .448-.02.84-.08 1.246h1.01v-.952h3.95v3.262c0 .756-.03 1.12-.1 1.596h1.12c-.09-.448-.1-.798-.1-1.596V82.15h4.17v.952h1.01c-.06-.42-.08-.784-.08-1.246v-3.822c0-.448.01-.742.07-1.106-.33.042-.59.056-1.07.056h-4.1v-1.232c0-.602.03-.994.1-1.428h-1.12c.07.434.1.77.1 1.456v1.204zm0 .84v3.486h-3.95v-3.486h3.95zm.92 3.486v-3.486h4.17v3.486h-4.17zm8.88-2.142h2.56c.56 0 1.03.014 1.41.042-.03-.35-.04-.742-.04-1.302v-1.736c0-.518.01-.938.04-1.33-.39.042-.73.056-1.43.056h-2c-.71 0-1.08-.014-1.47-.056.04.448.06.854.06 1.54v9.044c0 .756-.03 1.19-.09 1.568h1.04c-.06-.364-.08-.784-.08-1.568v-6.258zm0-3.584h3.13v1.12h-3.13v-1.12zm0 1.778h3.13v1.134h-3.13v-1.134zm10.4-.98c0-.63.01-.994.07-1.54-.41.042-.74.056-1.47.056h-2.31c-.72 0-1.04-.014-1.43-.056.03.42.04.84.04 1.33v1.736c0 .518-.01.938-.04 1.302.38-.028.83-.042 1.41-.042h2.87v6.412c0 .336-.11.406-.68.406-.3 0-.88-.056-1.54-.14.12.294.19.518.25.896.35.028 1.11.056 1.4.056 1.13 0 1.43-.238 1.43-1.162v-9.254zm-4.3-.798h3.44v1.12h-3.44v-1.12zm0 1.778h3.44v1.134h-3.44v-1.134zm1.25 4.228c0-.56.01-.924.04-1.316-.42.042-.74.056-1.39.056h-2.56c-.63 0-.97-.014-1.39-.056.03.406.05.812.05 1.316v3.108c0 .574-.02.938-.07 1.316h.86v-.98h3.07c.57 0 1.04.014 1.43.042-.03-.364-.04-.742-.04-1.274V81.59zm-4.46-.56h3.66v1.246h-3.66V81.03zm0 1.946h3.66v1.358h-3.66v-1.358zm12.13-2.87c2.1 1.694 4.18 3.99 5.46 6.02l.85-.714c-.94-1.246-1.51-1.974-2.04-2.548 1.76-1.428 3.25-3.108 4.62-5.25.29-.448.39-.574.56-.742l-.59-.7c-.22.084-.29.098-.78.098h-8.17c-.81 0-1.14-.014-1.63-.084v1.106c.47-.042.86-.056 1.62-.056 7.8-.014 7.8-.014 7.99-.028-.05.084-.07.098-.11.168-.59.966-1.54 2.226-2.31 3.038a25.16 25.16 0 01-1.86 1.722c-1.27-1.302-1.79-1.778-2.84-2.646l-.77.616zm11.41 1.092c.42-.042.71-.056 1.73-.056h8.12c.94 0 1.26.014 1.71.056v-1.134c-.43.056-.66.07-1.69.07h-8.14c-.95 0-1.33-.014-1.73-.084v1.148zm15.8-5.068c.8.238 2.66 1.246 3.45 1.862l.57-.938a21.872 21.872 0 00-3.47-1.764l-.55.84zm-1.1 3.36c1.13.406 2.74 1.274 3.57 1.918l.54-.952c-1.1-.7-2.33-1.33-3.55-1.82l-.56.854zm.47 6.692c.21-.07.24-.07.55-.14 5.04-.952 7.92-3.15 9.69-7.392-.37-.252-.53-.392-.87-.756-1.01 2.968-3.18 5.278-5.88 6.272-1.32.504-2.88.868-3.68.868h-.09l.28 1.148zm7.82-11.172c.4.448 1.07 1.484 1.42 2.226l.7-.42c-.42-.826-.81-1.414-1.42-2.17l-.7.364zm1.58-.742c.54.63 1.13 1.54 1.44 2.198l.7-.406c-.46-.882-.81-1.4-1.46-2.17l-.68.378zm4.39 2.59a15.5 15.5 0 013.34 2.744l.72-.868c-1-.994-1.87-1.68-3.37-2.632l-.69.756zm.1 9.1c.35-.112.46-.14.84-.224 2.34-.532 3.78-1.106 5.22-2.086 1.85-1.274 3.15-2.912 4.27-5.348-.39-.266-.53-.392-.85-.826-1.13 2.968-3.01 5.026-5.71 6.23-1.3.602-2.98 1.036-4.08 1.078l.31 1.176zm-188.658 139.39c.342-.054.396-.054 1.17-.108.36-.036.918-.072 1.692-.126v5.508c0 .9-.036 1.386-.108 1.926h1.98c-.072-.54-.108-1.026-.108-1.926v-5.67c.324-.018.738-.072 1.278-.126.072.288.108.432.198.846l1.512-.63c-.468-1.386-.954-2.592-1.422-3.51l-1.35.54c.288.594.36.774.522 1.224-.918.108-.99.108-2.052.162.774-.882 2.034-2.556 3.042-4.05.306-.45.414-.63.594-.828l-1.656-.954c-.252.594-.774 1.458-1.944 3.15-.252-.324-.45-.54-.756-.9.45-.612 1.26-1.926 1.674-2.754.198-.36.27-.486.378-.648l-1.71-.702c-.18.648-.81 1.872-1.494 2.916-.18-.216-.288-.324-.54-.63l-1.026 1.494c1.314 1.224 1.494 1.422 2.466 2.664-.36.468-.432.558-1.044 1.314-.414.018-.594.018-.72.018-.36 0-.504-.018-.774-.054l.198 1.854zm13.932-4.968c0 3.744-.216 6.93-.576 8.676-.216 1.116-.414 1.332-1.224 1.332-.63 0-1.44-.072-2.358-.234.288.774.414 1.224.504 2.016.648.054 1.206.072 1.674.072 1.17 0 1.89-.144 2.304-.468.594-.468.918-1.458 1.206-3.528.198-1.476.396-4.608.414-6.66.018-2.556.018-2.556.09-3.132-.396.054-.72.072-1.476.072h-3.924c.216-.558.288-.774.522-1.512.144-.504.144-.504.234-.738l-2.016-.36c-.09.594-.306 1.368-.648 2.268a11.653 11.653 0 01-2.124 3.582c.666.486 1.08.9 1.44 1.458.846-1.044 1.152-1.548 1.8-2.844h4.158zm-13.374 5.58c-.108 2.052-.342 3.294-.846 4.842l1.602.738c.504-1.566.756-3.078.882-5.328l-1.638-.252zm4.752.252c.306 1.422.558 3.24.684 4.626l1.638-.396a44.472 44.472 0 00-.864-4.59l-1.458.36zm7.02.774c-.684-1.854-1.152-2.826-2.214-4.518l-1.566.864c.936 1.566 1.296 2.376 2.052 4.572l1.728-.918z" fill="#333"/><path d="M912.476 224.628c.648 2.088 1.116 3.024 2.016 4.032 2.052 2.34 4.932 3.42 9.144 3.42 3.852 0 6.876-1.008 8.856-2.916 1.332-1.332 2.16-3.312 2.16-5.256 0-2.124-.54-3.636-1.728-4.968-1.26-1.404-2.592-2.016-5.148-2.412 1.908-.504 2.7-.792 3.492-1.404 1.548-1.152 2.484-3.132 2.484-5.292 0-4.68-3.888-7.704-9.9-7.704-2.88 0-5.22.648-7.056 1.98-1.692 1.224-2.52 2.484-3.42 5.148l5.148.864c.432-1.476.792-2.088 1.512-2.772.864-.72 2.16-1.116 3.924-1.116 3.06 0 4.752 1.404 4.752 3.888 0 2.772-2.124 4.428-5.724 4.428-1.548 0-2.34-.036-3.492-.18v4.464c1.224-.144 2.268-.18 3.852-.18s3.276.36 4.14.864c1.296.756 2.016 2.124 2.016 3.78 0 2.844-2.268 4.68-5.832 4.68-1.728 0-3.168-.468-4.356-1.404-.9-.72-1.224-1.296-1.692-2.952l-5.148 1.008zm36.933 7.38c3.744 0 6.732-1.44 8.748-4.248 1.692-2.34 2.664-6.228 2.664-10.656 0-2.952-.468-5.832-1.404-8.352-.468-1.296-1.296-2.556-2.376-3.636-1.908-1.908-4.536-2.916-7.596-2.916-3.996 0-7.236 1.764-9.18 5.004-1.332 2.196-2.196 6.156-2.196 9.972 0 2.916.468 5.724 1.404 8.28.468 1.296 1.296 2.556 2.376 3.636 1.908 1.908 4.5 2.916 7.56 2.916zm.036-4.176c-1.98 0-3.492-.756-4.608-2.34-1.152-1.656-1.836-4.788-1.836-8.568 0-3.924.792-6.876 2.376-8.748 1.044-1.26 2.304-1.836 4.032-1.836 1.62 0 3.06.54 3.924 1.512 1.62 1.764 2.52 5.04 2.52 9.216 0 4.212-.9 7.56-2.52 9.252-.9.972-2.304 1.512-3.888 1.512zm25.593 4.176c3.744 0 6.732-1.44 8.748-4.248 1.692-2.34 2.664-6.228 2.664-10.656 0-2.952-.468-5.832-1.404-8.352-.468-1.296-1.296-2.556-2.376-3.636-1.908-1.908-4.536-2.916-7.596-2.916-3.996 0-7.236 1.764-9.18 5.004-1.332 2.196-2.196 6.156-2.196 9.972 0 2.916.468 5.724 1.404 8.28.468 1.296 1.296 2.556 2.376 3.636 1.908 1.908 4.5 2.916 7.56 2.916zm.036-4.176c-1.98 0-3.492-.756-4.608-2.34-1.152-1.656-1.836-4.788-1.836-8.568 0-3.924.792-6.876 2.376-8.748 1.044-1.26 2.304-1.836 4.032-1.836 1.62 0 3.06.54 3.924 1.512 1.62 1.764 2.52 5.04 2.52 9.216 0 4.212-.9 7.56-2.52 9.252-.9.972-2.304 1.512-3.888 1.512zm24.909-21.348c-.108 4.428-.144 4.788-.504 7.164-.72 4.788-2.268 8.604-4.788 11.88-1.584 2.052-2.916 3.24-5.544 4.932a12.534 12.534 0 013.024 3.456c3.24-2.304 5.148-4.284 7.056-7.308 2.053-3.312 3.243-6.48 3.993-10.764h11.2c-.25 6.264-.76 10.656-1.48 12.42-.39 1.008-1.04 1.296-2.81 1.296-1.4 0-3.56-.288-5.65-.72.58 1.44.79 2.484.97 4.104 3.17.252 3.93.288 5.12.288 3.56 0 5.14-.792 6.04-3.024.9-2.196 1.62-7.92 1.88-14.256.1-3.204.1-3.24.21-4.068-1.08.144-2.48.18-4.61.18h-10.33c.22-1.98.25-2.772.33-5.58h13.5c1.62 0 3.16.072 4.57.216v-4.248c-1.41.144-2.88.216-4.61.216h-23.147c-1.764 0-3.276-.072-4.608-.216v4.248a47.325 47.325 0 014.644-.216h5.544zm31.207 13.356h21.42v8.784c0 .864-.21.972-1.62.972-1.29 0-3.09-.144-5.47-.396.65 1.476.9 2.484 1.12 3.888 1.4.072 3.38.144 4.79.144 1.94 0 3.09-.144 3.78-.504 1.04-.54 1.47-1.548 1.47-3.384v-23.076c0-1.944.04-2.88.15-3.924-.87.108-1.95.144-3.93.144h-21.89c-1.9 0-2.84-.036-3.99-.144.11 1.044.14 1.944.14 3.456v23.544c0 1.872-.07 3.168-.21 4.32h4.42c-.14-.828-.18-1.908-.18-4.176v-9.648zm8.54-3.78h-8.54v-9.756h8.54v9.756zm3.88 0v-9.756h9v9.756h-9z" fill="#2C8BE2"/><path d="M934.068 178.21c.378-.054.684-.09 1.152-.108 2.988-.144 3.636-.198 5.022-.396-1.35 1.386-3.942 3.474-5.526 4.428-.414.072-.594.108-1.026.144-.36.054-.594.072-.684.09-.432.054-1.188.108-1.548.108-.054 0-.162 0-.288-.018l.216 2.196c.342-.09.468-.126.828-.18a120.06 120.06 0 012.898-.396c.504-.072 1.17-.144 1.98-.252.864-.108 1.44-.198 2.214-.342-.972.504-1.422.828-1.926 1.368-.63.684-.972 1.494-.972 2.34 0 1.422.99 2.664 2.538 3.15.936.306 2.25.504 3.348.504h.234c.504-.018.792-.018.918-.018.252 0 .468 0 .666.018l-.09-2.286c-.522.126-1.026.162-1.71.162-2.322 0-3.618-.648-3.618-1.818 0-.972.99-2.07 2.448-2.736 1.332-.594 2.952-.882 5.004-.882h.54l-.126-2.106c-.252.054-.306.054-.594.072-.162.018-.63.054-1.278.126-.414.036-1.242.09-2.376.18-2.178.18-3.474.306-4.374.432 1.62-1.116 3.654-2.736 4.95-3.924.576-.54.666-.612 1.044-.882l-1.17-1.494c-.378.144-.828.216-1.692.288a82.244 82.244 0 01-5.346.198c-.828 0-1.188-.018-1.764-.09l.108 2.124zm32.256.252c.792.072 1.26.216 1.818.54 1.44.864 2.214 2.268 2.214 3.996 0 1.926-.936 3.636-2.502 4.5-.846.486-1.926.774-3.582.99.576.756.792 1.152 1.098 2.106 1.26-.216 1.962-.396 2.826-.756 2.754-1.116 4.374-3.6 4.374-6.714 0-4.05-2.808-6.678-7.128-6.678-2.556 0-4.68.864-6.192 2.52-1.278 1.404-1.98 3.258-1.98 5.238 0 2.898 1.476 4.986 3.528 4.986 1.476 0 2.628-1.062 3.654-3.384.9-2.034 1.53-4.518 1.872-7.344zm-2.196.018c-.216 2.034-.81 4.464-1.494 6.084-.648 1.548-1.26 2.304-1.854 2.304-.792 0-1.422-1.17-1.422-2.646 0-1.926.936-3.78 2.448-4.86.738-.522 1.386-.774 2.322-.882zm25.596 0v1.08h-3.78c-.756 0-1.134-.018-1.62-.09v1.782c.486-.054.9-.072 1.62-.072h3.78v1.098h-4.968c-1.008 0-1.422-.018-1.944-.09v1.854c.63-.072 1.17-.108 1.944-.108h1.674a10.01 10.01 0 01-4.068 5.58c.612.648.882 1.008 1.26 1.728 1.062-.828 1.71-1.458 2.484-2.466.756-.99 1.332-1.962 1.764-3.024v1.242c.396-.054.864-.072 1.44-.072h2.088v2.214h-3.744c-.774 0-1.098-.018-1.656-.108v1.944a16.521 16.521 0 012.07-.108h8.658c.864 0 1.458.036 2.07.108v-1.944c-.558.072-1.152.108-1.98.108h-3.42v-2.214h2.628c.684 0 1.242.018 1.728.09v-1.836c-.504.072-.9.09-1.746.09h-6.678c-.594 0-.828 0-1.26-.054.144-.432.18-.558.396-1.278h8.532c.882 0 1.44.036 1.926.108v-1.854c-.45.072-.9.09-1.926.09h-5.274v-1.098h4.122c.702 0 1.116.018 1.602.072v-1.782c-.486.072-.882.09-1.602.09h-4.122v-1.08h4.644c.846 0 1.35.018 1.926.09v-1.854c-.54.072-1.08.108-1.926.108h-2.142c.414-.486.756-.972 1.206-1.728l-2.052-.45c-.414.972-.684 1.44-1.242 2.178h-2.556a17.477 17.477 0 00-1.422-2.178l-1.962.522c.54.576.9 1.044 1.242 1.656h-2.052c-.828 0-1.404-.036-1.944-.108v1.854c.558-.072 1.098-.09 1.944-.09h4.338z" fill="#333"/><path fill-rule="evenodd" clip-rule="evenodd" d="M1100.13 179.44l3.22 3.146c.2.193.2.51.01.707l-3.15 3.218a.504.504 0 01-.71.008.5.5 0 010-.707l2.3-2.355-92.79 1.043-.02-1 92.8-1.042-2.36-2.303a.5.5 0 11.7-.715zm-252.302 7.095l-3.182-3.182a.5.5 0 010-.707l3.182-3.182a.5.5 0 01.708.707l-2.329 2.329H921v1h-74.793l2.329 2.328a.5.5 0 01-.708.707z" fill="#333"/><path d="M347 102.57V84.43c0-.61.281-1.032.844-1.266.609-.234 1.125-.14 1.547.281l9.07 9.07c.281.282.422.61.422.985s-.141.703-.422.984l-9.07 9.071c-.422.422-.938.515-1.547.281-.563-.234-.844-.656-.844-1.266zm0 115v-18.14c0-.61.281-1.031.844-1.266.609-.234 1.125-.14 1.547.281l9.07 9.071c.281.281.422.609.422.984s-.141.703-.422.984l-9.07 9.071c-.422.422-.938.515-1.547.281-.563-.234-.844-.656-.844-1.266z" fill="#333"/><defs><clipPath id="clip0"><path fill="#fff" transform="translate(105.79 194.034)" d="M0 0h200.325v24.209H0z"/></clipPath></defs></svg>