<svg width="69" height="507" fill="none" xmlns="http://www.w3.org/2000/svg"><g clip-path="url(#clip0)" fill="#1D1D1B"><path d="M68.07 473.28l-23.68 14.73v4.9h23.68v13.29H.78v-18.68c0-17.9 5.95-26.32 20.22-26.32h3.51c10 0 15.38 3.86 18 12.81l25.56-16.23v15.5zm-34.79 14.24c0-9.61-3-12.31-9.43-12.31h-2.27c-6.37 0-9.7 1.82-9.7 12.13v5.68h21.4v-5.5zM.78 406.38v42.65h10.49v-42.65H.78zm56.37 29.36H39.41v-25.02H28.57v38.31h39.57v-43.99H57.15v30.7zM.87 361.34h41.36L.87 381.64v13.19h67.2v-13.19H27.7l40.37-20.59v-12.9H.87v13.19zm47.72-25.51H20.11C5.85 335.83 0 328.99 0 311.1s5.85-25.33 20.11-25.33h28.48c13.9 0 20.11 7.7 20.11 25.33s-6.21 24.73-20.11 24.73zM48 299.06H20.71c-6.12 0-10.06 1.73-10.06 12 0 9.63 3.94 11.45 10.06 11.45H48c6.41 0 10.07-1.82 10.07-11.45 0-9.63-3.66-12-10.07-12zM.87 225.12l67.27 19.95v13.86L.87 278.95v-13.57l46.42-13.39L.87 238.72v-13.6zm-.09-50.25v42.66h10.49v-42.66H.78zm56.37 29.38H39.41v-25.02H28.57v38.3h39.57v-43.98H57.15v30.7zM.78 120.6v42.64h10.49V120.6H.78zm56.37 29.35H39.41v-25.02H28.57v38.31h39.57v-43.99H57.15v30.7zM.87 75.55h41.36L.87 95.85v13.19h67.2V95.85H27.7l40.37-20.58v-12.9H.87v13.18zm47.72-25.51H20.11C5.85 50.04 0 43.2 0 25.31S5.85 0 20.11 0h28.48C62.49 0 68.7 7.71 68.7 25.31c0 17.6-6.21 24.73-20.11 24.73zM48 13.29H20.71c-6.12 0-10.06 1.72-10.06 12 0 9.64 3.94 11.45 10.06 11.45H48c6.41 0 10.07-1.81 10.07-11.45 0-9.64-3.66-12-10.07-12z"/></g><defs><clipPath id="clip0"><path fill="#fff" transform="rotate(-90 253.1 253.1)" d="M0 0h506.2v68.7H0z"/></clipPath></defs></svg>