<svg width="44" height="326" viewBox="0 0 44 326" fill="none" xmlns="http://www.w3.org/2000/svg">
<g clip-path="url(#clip0)">
<path d="M43.5965 304.799L28.4302 314.285V317.441H43.5965V326H0.499512L0.499512 313.97C0.499512 302.442 4.31028 297.019 13.4497 297.019H15.6978C22.1024 297.019 25.5481 299.505 27.2261 305.269L43.5965 294.817V304.799ZM21.3146 313.97C21.3146 307.781 19.3933 306.042 15.2751 306.042H13.8212C9.74143 306.042 7.60868 307.214 7.60868 313.854V317.512H21.3146V313.97Z" fill="#1D1D1B"/>
<path d="M0.499512 261.714L0.499512 289.182H7.218L7.218 261.714H0.499512Z" fill="#1D1D1B"/>
<path d="M36.6024 280.623H25.2405V264.509H18.2979V289.182H43.6411V260.851H36.6024V280.623Z" fill="#1D1D1B"/>
<path d="M0.557129 232.708H27.0468L0.557129 245.782L0.557129 254.276H43.5964V245.782H17.7408L43.5964 232.522V224.214H0.557129L0.557129 232.708Z" fill="#1D1D1B"/>
<path d="M31.1202 216.279H12.8798C3.74673 216.279 0 211.874 0 200.353C0 188.831 3.74673 184.04 12.8798 184.04H31.1202C40.0227 184.04 44 188.999 44 200.353C44 211.707 40.0227 216.279 31.1202 216.279ZM30.7424 192.599H13.264C9.3444 192.599 6.82096 193.713 6.82096 200.327C6.82096 206.529 9.3444 207.701 13.264 207.701H30.7424C34.8477 207.701 37.1918 206.529 37.1918 200.327C37.1918 194.125 34.8477 192.599 30.7424 192.599Z" fill="#1D1D1B"/>
<path d="M0.557129 144.981L43.6413 157.829V166.755L0.557129 179.648L0.557129 170.909L30.2876 162.285L0.557129 153.739L0.557129 144.981Z" fill="#1D1D1B"/>
<path d="M0.499512 112.619L0.499512 140.093H7.218L7.218 112.619H0.499512Z" fill="#1D1D1B"/>
<path d="M36.6024 131.54H25.2405V115.427H18.2979V140.093H43.6411V111.769H36.6024V131.54Z" fill="#1D1D1B"/>
<path d="M0.499512 77.6681L0.499512 105.129H7.218L7.218 77.6681H0.499512Z" fill="#1D1D1B"/>
<path d="M36.6024 96.57H25.2405V80.4567H18.2979V105.129H43.6411V76.7987H36.6024V96.57Z" fill="#1D1D1B"/>
<path d="M0.557129 48.6556H27.0468L0.557129 61.7291L0.557129 70.2236H43.5964V61.7291H17.7408L43.5964 48.4753V40.1675H0.557129L0.557129 48.6556Z" fill="#1D1D1B"/>
<path d="M31.1202 32.2266H12.8798C3.74673 32.2266 0 27.8215 0 16.3001C0 4.77867 3.74673 9.15527e-05 12.8798 9.15527e-05H31.1202C40.0227 9.15527e-05 44 4.96544 44 16.3001C44 27.6347 40.0227 32.2266 31.1202 32.2266ZM30.7424 8.55904L13.264 8.55904C9.3444 8.55904 6.82096 9.66675 6.82096 16.2872C6.82096 22.4955 9.3444 23.6612 13.264 23.6612H30.7424C34.8477 23.6612 37.1918 22.4955 37.1918 16.2872C37.1918 10.0789 34.8477 8.55904 30.7424 8.55904Z" fill="#1D1D1B"/>
</g>
<defs>
<clipPath id="clip0">
<rect width="326" height="44" fill="white" transform="translate(0 326) rotate(-90)"/>
</clipPath>
</defs>
</svg>
