<svg width="106" height="106" fill="none" xmlns="http://www.w3.org/2000/svg"><circle cx="53" cy="53" r="52.5" stroke="#333"/><g clip-path="url(#clip0)"><path d="M61.586 40.645a1.391 1.391 0 00.387 1.944L77.24 52.722 67.037 59.49l3.54-6.073a1.391 1.391 0 00-.514-1.913 1.425 1.425 0 00-.706-.19H32.263a4.657 4.657 0 01-3.273-1.35 4.57 4.57 0 01-1.352-3.247v-4.723c0-.371-.15-.728-.415-.99a1.42 1.42 0 00-2 0 1.392 1.392 0 00-.414.99v4.723c-.002.971.19 1.933.564 2.83a7.388 7.388 0 001.615 2.4 7.463 7.463 0 002.42 1.606 7.519 7.519 0 002.855.564h34.642l-5.361 9.185a1.39 1.39 0 00.256 1.724 1.42 1.42 0 001.752.145L80.564 53.89a1.405 1.405 0 00.633-1.168 1.391 1.391 0 00-.633-1.168L63.552 40.27a1.42 1.42 0 00-1.966.374z" fill="#333"/></g><defs><clipPath id="clip0"><path fill="#fff" transform="rotate(-90 45.106 20.298)" d="M0 0h25.372v56.383H0z"/></clipPath></defs></svg>