<svg width="208" height="139" fill="none" xmlns="http://www.w3.org/2000/svg"><path d="M24.376 108.427c15.5-2.859 19.378-14.32 25.6-26.78l-.66.116c-3.424 6.918-8.39 19.349-16.999 23.308 3.017-2.672 3.808-6.403 2.97-11.105-.888-4.984-3.61-11-7.472-17.977-1.698-2.997-2.655-5.64-3.057-7.898-1.055-5.924 1.69-9.033 5.17-9.653 3.761-.67 8.375 1.807 9.347 7.261l.258 1.992c-.467-.984-1.353-1.603-2.294-1.435-2.018.65-2.785 2.34-2.45 4.22.235 1.317 1.094 2.329 2.317 2.11 1.659-.489 2.62-1.63 2.688-3.971l-.244-3.547c-1.089-6.113-5.585-7.931-10.1-7.127-5.171.921-10.211 5.312-9.7 10.364L9.819 88.8l.659-.118 9.502-19.643c1.256 7.053 8.99 18.871 10.548 27.618 1.005 5.642-.437 10.071-7.773 11.378-5.66.912-8.352-1.131-9.056-5.081-.804-4.514 1.815-10.511 6.047-11.266 3.01-.536 4.816.889 5.184 2.958.168.94.07 2.025-.31 3.16-.251-1.41-1.104-1.84-2.626-1.667-1.975.352-3.127 2.595-2.86 4.1.218 1.222.977 1.669 2.499 1.495 2.633-.469 4.364-4.367 3.828-7.377-.402-2.257-2.054-3.903-5.534-3.283-4.59.915-7.747 6.62-6.825 11.792.687 3.856 3.846 6.883 10.9 5.627l.375-.067z" fill="#fff"/><path d="M53.71 103.2c8.182-1.457 15.5-17.024 20.05-25.791l-.657.117c-5.267 10.738-11.97 23.77-19.21 25.06-3.01.536-4.5-.751-4.92-3.102-.804-4.514 2.386-12.748 5.32-18.607 3.244-6.303 10.424-21.554 16.992-35.338l7.335-1.307-.117-.658-6.865 1.223L83.974 18.73l-6.583 1.173c-1.268 3.234-6.031 14.076-11.396 25.9l-10.439 1.86.118.657 9.968-1.776C59.33 60.671 52.167 76.016 49.31 81.764c-3.21 6.492-4.761 12.493-4.04 16.536.67 3.762 3.268 5.822 8.44 4.9z" fill="#fff"/><path d="M77.209 98.432c-1.881.335-2.818-.566-3.12-2.258-.787-4.42 2.998-14.216 5.385-19.88 6.19-15.366 13.687-28.83 18.826-29.94l.188-.034c3.856-.687 5.713 1.02 6.232 3.935.922 5.173-1.997 13.843-4.743 19.67l-.863.056c-6.772 1.206-9.445 10.706-8.49 16.067l.067.376c-4.328 6.205-9.157 11.237-13.483 12.008zm-.165.708c4.591-.915 9.436-5.853 13.78-11.964.769 2.677 2.686 4.18 5.32 3.71 4.231-.754 10.403-6.414 17.767-20.63l-.658.117c-6.541 13.39-13.123 18.93-17.26 19.667-2.352.419-4.014-.74-4.382-2.81l-.09-1.05c4.848-6.007 15.748-27.064 14.106-36.28-.57-3.198-2.631-4.965-7.051-4.178C86.93 47.894 79.46 60.966 73.002 77.544c-2.044 5.41-3.46 12.163-2.657 16.677.62 3.48 2.56 5.657 6.605 4.936l.094-.017zM91.602 85c.47-2.8 3.132-13.463 7.834-14.3l.282-.05C98.048 74.342 93.964 81.376 91.6 85z" fill="#fff"/><path d="M130.658 34.767c-2.68-.88-3.694-1.67-3.811-2.329-.201-1.128 2.271-1.957 4.058-2.275l2.008-.164-2.255 4.768zm3.874 54.422c7.712-1.374 14.66-19.01 17.726-25.766l-.658.118c-2.989 6.645-9.551 23.727-17.169 25.084-1.598.285-4.083-.049-4.764-3.323-.905-5.079 12.722-26.621 11.017-37.282l-.676-4.343c-.637-3.573-1.969-6.15-8.514-8.574.904-2.004 4.443-7.195 4.091-9.17-.151-.846-.826-.823-2.143-.589-6.018 1.073-9.833 6.895-9.045 11.315.335 1.88 1.483 3.423 3.582 4.31L113.23 70.377l.658-.118 14.705-29.108c5.809 2.652 9.601 3.238 10.204 6.623 1.089 6.113-14.963 27.117-13.921 34.597.553 3.104 3.167 7.974 9.656 6.818z" fill="#fff"/><path d="M146.094 115.85c8.369-1.491 16.624-16.158 24.469-33.662 7.585-4.263 15.531-11.403 22.717-26.073l-.658.117c-6.911 14.04-14.403 21.002-21.722 25.12 8.319-18.657 16.213-40.245 23.315-52.669l-6.677 1.19c-4.844 9.304-8.781 20.97-12.755 30.799-5.206 10.533-11.622 22.446-18.581 23.686-3.386.603-5.031-.462-5.433-2.719-1.424-7.994 13.026-30.362 17.285-41.309.69-1.578.754-2.85.57-3.885-.369-2.07-1.964-2.852-2.999-2.668-.282.05-.453.178-.608.4l-13.398 29.36c-2.988 6.646-4.633 12.663-3.913 16.707.654 3.668 3.236 5.634 8.408 4.712 7.524-1.34 12.67-11.669 16.118-17.911l-7.05 17.072c-12.398 5.022-23.316 4.736-28.226 20.747-.511 2.032-.646 3.997-.361 5.595.703 3.95 3.762 6.413 9.499 5.391zm-.964-.507c-4.42.787-7.163-1.538-7.817-5.206-.284-1.599-.21-3.358.241-5.185 4.369-15.236 15.065-15.104 27.275-20.093-7.123 16.114-14.339 29.528-19.699 30.484z" fill="#fff"/></svg>